<svg xmlns="http://www.w3.org/2000/svg" xmlns:xlink="http://www.w3.org/1999/xlink" width="505" height="373.251" viewBox="0 0 505 373.251">
  <defs>
    <clipPath id="clip-path">
      <rect id="Rect치ngulo_344325" data-name="Rect치ngulo 344325" width="505" height="373.251" transform="translate(0 4)" fill="none"/>
    </clipPath>
  </defs>
  <g id="Grupo_896239" data-name="Grupo 896239" transform="translate(0 -4)">
    <g id="Enmascarar_grupo_896238" data-name="Enmascarar grupo 896238" clip-path="url(#clip-path)">
      <path id="Trazado_693840" data-name="Trazado 693840" d="M269.367,1092.84c-131.8,0-238.639,10.216-238.639,22.82s106.838,22.812,238.639,22.812S508,1128.258,508,1115.66s-106.837-22.82-238.628-22.82" transform="translate(-21.404 -761.221)" fill="#c7dcf5" fill-rule="evenodd"/>
      <path id="Trazado_693841" data-name="Trazado 693841" d="M48.607,80.023c64.922-27.91,130.91-3.235,175.663,50.49,22.385,26.871,57.072,17.593,92.387,8.305,35.288-9.279,71.207-18.557,96.114,8.249,33.99,36.613,18.418,130.734-28.2,171.5C321.217,373.98,85.184,375.64,46.021,356.627c-66.924-32.487-.426-92.664-31.664-150.338C-22.5,138.243,19.91,92.351,48.607,80.023" transform="translate(0 -47.664)" fill="#c7dcf5" fill-rule="evenodd"/>
      <path id="Trazado_693842" data-name="Trazado 693842" d="M882.123,87.782l211.9,13.56a15.1,15.1,0,0,1,14.108,15.063V257.038a15.367,15.367,0,0,1-16.248,15.286l-211.9-13.552a15.1,15.1,0,0,1-14.109-15.062V103.076a15.381,15.381,0,0,1,16.249-15.294" transform="translate(-603.128 -61.123)" fill="#599dad" fill-rule="evenodd"/>
      <path id="Trazado_693843" data-name="Trazado 693843" d="M899.867,114.823l211.9,13.552a7.586,7.586,0,0,1,6.981,7.443V276.443a6.486,6.486,0,0,1-6.981,6.534l-211.9-13.552a7.571,7.571,0,0,1-6.989-7.433V121.367a6.5,6.5,0,0,1,6.989-6.544" transform="translate(-621.937 -79.971)" fill="#deedff" fill-rule="evenodd"/>
      <path id="Trazado_693844" data-name="Trazado 693844" d="M1111.419,433.19c-4.374,3.05-8.129,23.516-9.205,61.381l25.463,1.632c2.67-7.934,5.006-16.026,6.961-24.22q1.655,13.9,3.624,24.9l25.677,1.64c4.171-34.629-1.882-53.845-10.437-65.672-17.195,2.558-32.127,2.383-42.083.343" transform="translate(-767.751 -301.501)" fill="#1c468a" fill-rule="evenodd"/>
      <path id="Trazado_693845" data-name="Trazado 693845" d="M981.186,233.28c12.866-49.878-1.149-68.046-28.707-68.268q-2.725,7.273-9.761,14.85a28,28,0,0,0-6.294-8.435,28.742,28.742,0,0,0-7.276,7.471,31.083,31.083,0,0,1,1.456-13.385q-14.879,1.043-46.365,14.729a404.74,404.74,0,0,0-42.286-11.522l-.047.046.11.3a16.239,16.239,0,0,0-3.263,7.212c-.26-.075-.427-.12-.612-.167l-.278.788c13.579,8.565,26.789,13.589,45.6,18.724,11.947-.1,24.017.371,36.177-3.9.176,35.872,2.706,50.786,7.647,54.911a90.7,90.7,0,0,0,17.334,1.558,17.219,17.219,0,0,1,1.084,3.42c3.152-.982,6.628-2.6,10.456-3.837l1.056-.426c10.549-4.273,17.834-8.639,23.97-14.062" transform="translate(-583.618 -114.94)" fill="#699dee" fill-rule="evenodd"/>
      <path id="Trazado_693846" data-name="Trazado 693846" d="M1148.484,240.307a107.366,107.366,0,0,1-15.423,7.462c4.208-.315,8.628-.8,13.208-1.483a34.6,34.6,0,0,0,2.215-5.979M1106.2,181.076a62.83,62.83,0,0,1,3.559-5.3,5.87,5.87,0,0,1-.622-.7,38.359,38.359,0,0,0-3.076,3.819c.028.742.074,1.474.139,2.188m-9.659,10.641a78.043,78.043,0,0,1,.482-8.769,20.324,20.324,0,0,1-5.191,10.205c1.567-.407,3.142-.881,4.709-1.437m23.08-11.855a36.887,36.887,0,0,0-2.753-4.514c-.176.148-.584.6-1.168,1.056.9,2.178,1.872,4.774,2.808,7.518,4.653-5.858,9.066-13.3,10.873-18.91q-2.725,7.273-9.761,14.85m1.9,68.324a15.026,15.026,0,0,0-3.4-4.273c13.858-9.631,21.968-15.183,28.178-19.086a108.586,108.586,0,0,1-2.92-29.152q-3.073,16.629-.741,28.253c-10.8,7.462-20.839,15.239-27.391,20.68l.444.778a19.75,19.75,0,0,0-2.912,2.429c2.717.232,5.637.352,8.742.371" transform="translate(-760.519 -114.94)" fill="#4a75cb" fill-rule="evenodd"/>
      <path id="Trazado_693847" data-name="Trazado 693847" d="M1155.287,244.2c-.917-14.052-2.021-31.145-3.133-52.344a9.941,9.941,0,0,0,2.29-1.789,22.358,22.358,0,0,0-3.541-3.921,22.966,22.966,0,0,0-4.19,3.644,10.648,10.648,0,0,0,2.253,2.076q-1.544,19.576-3.188,53.345a11.67,11.67,0,0,0,4.736,5.849c1.511-1.233,4.05-3.494,4.773-6.859" transform="translate(-798.095 -129.663)" fill="#1c468a" fill-rule="evenodd"/>
      <path id="Trazado_693848" data-name="Trazado 693848" d="M1151.917,169.713q7.036-7.577,9.761-14.849c-1.019-1.928-2.632-3.874-3.764-4.421-5.45,5.691-8.917,8.87-12.236,10.808a.336.336,0,0,1-.064.028c-.037-.149-.084-.3-.13-.454a81.366,81.366,0,0,1-2.7-9.946c-1.567,1.112-2.133,2.8-2.985,4.486a31.089,31.089,0,0,0-1.456,13.385,39.814,39.814,0,0,1,3.087-3.828,23,23,0,0,1,4.19-3.643,22.367,22.367,0,0,1,3.541,3.921,36.9,36.9,0,0,1,2.753,4.514" transform="translate(-792.816 -104.792)" fill="#aec8e6" fill-rule="evenodd"/>
      <path id="Trazado_693849" data-name="Trazado 693849" d="M1212.967,257.025a9.253,9.253,0,0,0,.158-2.7,33.616,33.616,0,0,1-12.412-.973,4.493,4.493,0,0,0-.519,2.382q4.212,1.571,12.772,1.288" transform="translate(-835.995 -176.475)" fill="#4a75cb" fill-rule="evenodd"/>
      <path id="Trazado_693850" data-name="Trazado 693850" d="M1149,84.991a13.253,13.253,0,0,1-2.133-4.2c.306-.936.622-2.123.945-3.541q8.94-6.368,2.281-9.177-1.307.764-3.2,4.663a2.706,2.706,0,0,1-2.419-1.558,80.444,80.444,0,0,0,2.216-10.6c-3.086-4.366-10.067-4.848-19.281-3.457-.379,2.475-.666,5.079-.89,7.842-1.594,1.539-1.269,7.11.372,13.506q-1,5.505,6.9,5.839l.074,1.112a81.722,81.722,0,0,0,2.7,9.955l.195.417c3.319-1.927,6.785-5.107,12.236-10.8" transform="translate(-783.957 -39.302)" fill="#f9b291" fill-rule="evenodd"/>
      <path id="Trazado_693851" data-name="Trazado 693851" d="M1120.052,33.028c9.214-1.39,16.195-.908,19.281,3.458a80.4,80.4,0,0,1-2.216,10.6,2.706,2.706,0,0,0,2.419,1.558q1.892-3.894,3.2-4.663,6.66,2.808-2.281,9.177c-.323,1.418-.638,2.6-.945,3.541,5.414-1.345,9.863-6.313,10.465-8.426,6.08-12.662-1.121-17.8-4.949-19.642-1.938-12.356-19.707-1.02-28.856-6.795-3.476,5.024,1.085,11.142,3.884,11.188" transform="translate(-776.597 -15.213)" fill="#b5453c" fill-rule="evenodd"/>
      <path id="Trazado_693852" data-name="Trazado 693852" d="M1159.855,145.462a30.032,30.032,0,0,1-6.962.862l.074,1.112c.1.677.241,1.345.389,2.021.019-.009.047-.019.066-.028q4.519-1.57,6.433-3.967" transform="translate(-803.052 -101.322)" fill="#f08261" fill-rule="evenodd"/>
      <path id="Trazado_693853" data-name="Trazado 693853" d="M1149.481,190.8a5.066,5.066,0,0,1-.622-.7q3.046-3.241,4.329-3.514a48.15,48.15,0,0,1,2.234,4.848c.584-.454.992-.908,1.167-1.056a22.159,22.159,0,0,0-3.4-3.792,21.949,21.949,0,0,0-3.708,4.218" transform="translate(-800.242 -129.962)" fill="#2f365c" fill-rule="evenodd"/>
      <path id="Trazado_693854" data-name="Trazado 693854" d="M816.247,151.936q-1.821-4.852-4.44-5.617a58.134,58.134,0,0,1-10.427-5.9q-1.836,2.252,2.91,4.652a10.3,10.3,0,0,1,2.865,2.161c-3.292,1.557-4.883,3.513-4.793,5.876q.7,2.726,1.771,3.143a1.5,1.5,0,0,0,1.807-.418c1.78,3.559,4.1,3.708,5.913,3.031.52.112.685.158,1.131.279a16.233,16.233,0,0,1,3.262-7.212" transform="translate(-557.847 -97.813)" fill="#fcb88d" fill-rule="evenodd"/>
      <path id="Trazado_693855" data-name="Trazado 693855" d="M1160.762,427.44a53.45,53.45,0,0,0-8.166,4.152q-3.323,5.589-1.761,8.7c1.778,1.9,3.651,1.066,5.144.676a6.669,6.669,0,0,1,1.687-4.774q2.628.612,3.42-1.316c.713-.213,1.353-.389,1.937-.547a6.031,6.031,0,0,0-.982-5.46c-.408-.491-.844-.955-1.279-1.437" transform="translate(-801.271 -297.735)" fill="#fcb88d" fill-rule="evenodd"/>
      <path id="Trazado_693856" data-name="Trazado 693856" d="M1473.325,961.847s-7.619-8.89-.463-14.525c0,0,5.209-3.162,9.463-2.913,0,0-6.024,10.123-4.078,11.124s5.915-11.754,5.915-11.754,11.882-1.148,15.7.687c0,0-10.16,8.315-8.019,8.806s13.107-7.666,13.107-7.666,11.057,1.891,10.465,8.63-4.4,8.825-6.072,8.649-11.467-3.921-11.689-2.549c-.2,1.372,5.691,5.858,9.816,6.061,0,0-7.795,8.6-12.968,6.118-5.191-2.484-5.626-6.414-8.852-7.888s-5.987-1.474-4.653.036,7.175,2.968,9.02,6.23,3.5,5.469-1.863,4.662c-5.349-.806-14.062-4.727-14.45-9.214Z" transform="translate(-1023.792 -657.146)" fill="#82b378" fill-rule="evenodd"/>
      <path id="Trazado_693857" data-name="Trazado 693857" d="M1502.742,979.545s-30.024-1.159-36.66,7.425a21.687,21.687,0,0,1-5.968,8.388l-.714,1.918s5.2-5.478,7.063-5.812c0,0-2.911-10.641,36.28-11.92" transform="translate(-1016.549 -682.269)" fill="#82b378" fill-rule="evenodd"/>
      <path id="Trazado_693858" data-name="Trazado 693858" d="M1445.9,1030.043a18.891,18.891,0,0,0-6.907,13.282l1.169.112s2.066-8.806,5.784-12.254-.046-1.14-.046-1.14" transform="translate(-1002.335 -716.953)" fill="#82b378" fill-rule="evenodd"/>
      <path id="Trazado_693859" data-name="Trazado 693859" d="M1291.685,895.307s12.116-6.785,6.461-16c0,0-4.533-5.644-9.37-7.1,0,0,2.586,13.729,0,14.054s-1.78-15.509-1.78-15.509-12.765-6.135-17.77-5.653c0,0,7.916,13.4,5.339,13.079s-11.475-13.886-11.475-13.886-13.079-2.419-15.183,5.331,1.3,11.632,3.235,12.115,14.376.325,14.053,1.937-8.731,4.2-13.412,2.744c0,0,5.172,12.764,11.956,12.115s8.881-4.846,13.08-5.172,7.275.816,5.182,1.945-9.215.372-12.617,3.255c-3.383,2.882-6.127,4.662.177,5.95s17.6.482,19.854-4.366Z" transform="translate(-868.774 -601.777)" fill="#a8d29f" fill-rule="evenodd"/>
      <path id="Trazado_693860" data-name="Trazado 693860" d="M1269.125,890.652s33.926,10.984,37.8,23.265a25.726,25.726,0,0,0,3.226,11.792v2.416s-3.55-8.238-5.5-9.369c0,0,7.6-10.659-35.529-28.1" transform="translate(-884.013 -620.387)" fill="#82b378" fill-rule="evenodd"/>
      <path id="Trazado_693861" data-name="Trazado 693861" d="M1400.6,1002.714a22.347,22.347,0,0,1,2.252,17.611l-1.343-.362s1.307-10.651-1.437-16.008.528-1.242.528-1.242" transform="translate(-974.467 -697.392)" fill="#82b378" fill-rule="evenodd"/>
      <path id="Trazado_693862" data-name="Trazado 693862" d="M1433.1,841.549s-15.971-8.935-8.518-21.078c0,0,5.96-7.452,12.347-9.371,0,0-3.4,18.1,0,18.529s2.345-20.44,2.345-20.44,16.824-8.091,23.425-7.451c0,0-10.437,17.675-7.027,17.239s15.109-18.307,15.109-18.307,17.25-3.2,20.021,7.025-1.706,15.332-4.254,15.972-18.956.425-18.53,2.548,11.494,5.534,17.668,3.625c0,0-6.8,16.823-15.748,15.971s-11.708-6.387-17.25-6.814-9.585,1.067-6.813,2.55,12.133.491,16.611,4.292,8.091,6.146-.222,7.852c-8.3,1.7-23.2.63-26.186-5.747Z" transform="translate(-990.915 -557.38)" fill="#a8d29f" fill-rule="evenodd"/>
      <path id="Trazado_693863" data-name="Trazado 693863" d="M1497.236,835.452s-44.715,14.48-49.823,30.654a33.951,33.951,0,0,1-4.263,15.545v3.2s4.69-10.865,7.239-12.347c0,0-10-14.063,46.846-37.05" transform="translate(-1005.232 -581.937)" fill="#82b378" fill-rule="evenodd"/>
      <path id="Trazado_693864" data-name="Trazado 693864" d="M1433.572,983.133s-6.9,10.475-2.957,23.22l1.77-.482s-1.724-14.034,1.892-21.1c3.6-7.063-.7-1.641-.7-1.641" transform="translate(-995.653 -683.419)" fill="#82b378" fill-rule="evenodd"/>
      <path id="Trazado_693865" data-name="Trazado 693865" d="M1383.617,1083.5a31.29,31.29,0,0,0,31.284-31.284h-62.568a31.284,31.284,0,0,0,31.284,31.284" transform="translate(-941.972 -732.923)" fill="#f1a34f" fill-rule="evenodd"/>
      <path id="Trazado_693866" data-name="Trazado 693866" d="M1400.055,1083.257a31.293,31.293,0,0,1-35.167-31.043h7.776a31.28,31.28,0,0,0,27.391,31.043" transform="translate(-950.717 -732.923)" fill="#ffb973" fill-rule="evenodd"/>
      <path id="Trazado_693867" data-name="Trazado 693867" d="M1414.348,1151.691h-63.421a3.86,3.86,0,0,1,3.848-3.865h55.717a3.861,3.861,0,0,1,3.856,3.865" transform="translate(-940.993 -799.522)" fill="#f1a34f" fill-rule="evenodd"/>
      <rect id="Rect치ngulo_344324" data-name="Rect치ngulo 344324" width="64.304" height="0.964" transform="translate(409.331 319.291)" fill="#d86713"/>
      <path id="Trazado_693868" data-name="Trazado 693868" d="M280.443,755.7H561.775c5.868,0-.129,11.743-2.975,11.743H546.936L553.8,883.474c.565,9.437-5.451,7.86-6.211,0L536.34,767.441H305.877L294.94,883.474c-.742,7.806-6.757,9.493-6.22,0l6.562-116.033H283.418c-2.493,0-9.1-11.743-2.975-11.743" transform="translate(-193.581 -526.384)" fill="#b5453c" fill-rule="evenodd"/>
      <path id="Trazado_693869" data-name="Trazado 693869" d="M208.356,482.342c.482-1.715.927-3.513,1.27-4.57,15.285-.88,14.154-4.745,13.756-6.5-2.308-8.37-3.68-13.654-1.27-15.878a7.638,7.638,0,0,1,3.931,5.72c1-.482,2.289-1.141,2.54-2.206.658-3.2,1.159-9.955,4.922-10.178.463,3.031.825,6.229,1.085,9.612,1.965,1.891,1.557,8.732-.454,16.583q1.238,6.757-8.473,7.166l.112,1.381a60.839,60.839,0,0,0-17.417-1.131" transform="translate(-145.131 -312.566)" fill="#ffb27d" fill-rule="evenodd"/>
      <path id="Trazado_693870" data-name="Trazado 693870" d="M487.751,739.975h-76.87c-3.949,0-6.016-2.558-6.016-6.85h86.779c.834,0,1.983.472,1.186,3.021a5.807,5.807,0,0,1-5.079,3.828" transform="translate(-282.01 -510.661)" fill="#d9bdb9" fill-rule="evenodd"/>
      <path id="Trazado_693871" data-name="Trazado 693871" d="M585.248,584.115H536.1a4.534,4.534,0,0,0-3.781,2.661L515.441,626.67c-.621,1.465.074,2.661,1.529,2.661h49.155a4.562,4.562,0,0,0,3.782-2.661l16.879-39.894c.612-1.465-.074-2.661-1.539-2.661" transform="translate(-358.873 -406.867)" fill="#599dad" fill-rule="evenodd"/>
      <path id="Trazado_693872" data-name="Trazado 693872" d="M592.583,595.478H546.069a1.3,1.3,0,0,0-.686.556L529.4,633.8h46.514a1.286,1.286,0,0,0,.695-.554Z" transform="translate(-368.758 -414.782)" fill="#c7dcf5" fill-rule="evenodd"/>
      <path id="Trazado_693873" data-name="Trazado 693873" d="M192.364,583.562q-22.928-4.617-37.911-1.752-11.1,1.029-12.393,11.837c-.35,41.286.039,66.088,7.9,93.23.955,2.689,9.585,4.765,22.432,3.124,22.691.9,49.109-12.764,38.273-17.278-11.123-4.635-12.588-20.5-7.163-36.928a5.834,5.834,0,0,0,.025-2.262q-.111-8.955-4.774-20.05a18.778,18.778,0,0,0-5.877-1.277c-6.646-7.721-11.643-24.082-.509-28.643" transform="translate(-98.893 -404.498)" fill="#f99746" fill-rule="evenodd"/>
      <path id="Trazado_693874" data-name="Trazado 693874" d="M183.1,566.563q12.986-2.35,31.83.825-2.155-3.573-3.781-6.461c-10.243-3.077-25.47-2.614-27.372.324a44.013,44.013,0,0,0-.677,5.311" transform="translate(-127.535 -389.251)" fill="#c9303d" fill-rule="evenodd"/>
      <path id="Trazado_693875" data-name="Trazado 693875" d="M275.813,887.982c-9.826-2.419-20.633-2.93-32.693-2.6-2.78,11.068-13.783,14.7-38.152,16.778a53.84,53.84,0,0,1-16.221-.038q13.209,24.291,87.52,9.417,10.512-10.174-.454-23.552" transform="translate(-131.472 -616.652)" fill="#2b478b" fill-rule="evenodd"/>
      <path id="Trazado_693876" data-name="Trazado 693876" d="M330.622,627.457c-18.483-13.727-20.058-33.444-37.661-37.355-12.2,4.984-5.034,24.165,2.456,30.607q10.372,12.042,30.171,21.727,9.33,3.811,46.421-1.1,2.488-5.687-1.437-8.694-32.925-4.243-39.951-5.182" transform="translate(-199.49 -411.038)" fill="#f99746" fill-rule="evenodd"/>
      <path id="Trazado_693877" data-name="Trazado 693877" d="M440.366,706.3a77.177,77.177,0,0,1-11.1,1.019c.287.364.583.715.871,1.076q3.323.444,12.432,1.631c-.41-1.891-1.151-3.133-2.208-3.725" transform="translate(-299.01 -491.977)" fill="#ed7d2b" fill-rule="evenodd"/>
      <path id="Trazado_693878" data-name="Trazado 693878" d="M339.857,727.5q10.679-1.028,15.767-2.687a99.813,99.813,0,0,1-17.871-12.189,44.1,44.1,0,0,1,2.1,14.876" transform="translate(-235.263 -496.383)" fill="#ed7d2b" fill-rule="evenodd"/>
      <path id="Trazado_693879" data-name="Trazado 693879" d="M499.228,719.9a12.241,12.241,0,0,0,4.544.52c4.53-1.6,6.069-5.331,8.51-6.192a34.983,34.983,0,0,1,5.309.789q4.8-.558-6.98-5.137a31.149,31.149,0,0,0-12.495,2.651c1.891,1.818,2.261,4.283,1.112,7.37m-23.136-15.888a50.076,50.076,0,0,0-7.509,1.372,6.636,6.636,0,0,1,1.374,3.049q3.347.432,7.478.964a16.217,16.217,0,0,1,1.539-1.518c4.579,1.01,6.729,1.381,6.507.657q-2.837-2.378-9.39-4.524" transform="translate(-326.393 -490.38)" fill="#ffb27d" fill-rule="evenodd"/>
      <path id="Trazado_693880" data-name="Trazado 693880" d="M87.371,764.345H92.1l-4.171-35.326H80.3a12.929,12.929,0,0,1-12.458-11.15l-3.263-27.641a9.729,9.729,0,0,1,9.835-11.142H99.467a12.93,12.93,0,0,1,12.458,11.142l3.263,27.641a9.732,9.732,0,0,1-9.835,11.15h-7.62l4.162,35.326h72.579a5.919,5.919,0,0,1,0,11.837H132.6v16.759h2.41v25.7l25.473,1.751a2.037,2.037,0,0,1,1.983,1.985v1.98H97v-2.305a1.7,1.7,0,0,1,1.669-1.66l25.8-1.751v-25.7h2.41V776.182H87.371a5.919,5.919,0,1,1,0-11.837M162.2,835.617a4.255,4.255,0,1,0-4.255-4.255,4.254,4.254,0,0,0,4.255,4.255m-43.881-8.51a4.255,4.255,0,1,1-4.255,4.255,4.253,4.253,0,0,1,4.255-4.255m24.045,0a4.255,4.255,0,1,1-4.255,4.255,4.255,4.255,0,0,1,4.255-4.255m-43.881,0a4.255,4.255,0,1,1-4.255,4.255,4.255,4.255,0,0,1,4.255-4.255" transform="translate(-44.928 -473.02)" fill="#b5453c" fill-rule="evenodd"/>
      <path id="Trazado_693881" data-name="Trazado 693881" d="M161.3,689.419l3.263,27.641a9.732,9.732,0,0,1-9.835,11.15h-7.62l3.448,29.255c.324.073.667.148,1.02.212.445.084.917.167,1.408.232l-3.214-27.252h5.661A11.494,11.494,0,0,0,167,717.558l-3.263-27.649c-.825-6.981-7.211-11.985-14.256-11.985H135.4c-.028.353,0,0-.018.353H148.84A12.929,12.929,0,0,1,161.3,689.419" transform="translate(-94.3 -472.21)" fill="#ed7d2b" fill-rule="evenodd"/>
      <path id="Trazado_693882" data-name="Trazado 693882" d="M277.407,962.553a7.7,7.7,0,0,0-7.481-5.95h-69.39c.361.351.723.7,1.113,1.047h67.583a5.935,5.935,0,0,1,5.886,5.313c.76-.131,1.52-.262,2.29-.41" transform="translate(-139.684 -666.325)" fill="#233862" fill-rule="evenodd"/>
      <path id="Trazado_693883" data-name="Trazado 693883" d="M662.128,482.342c.484-1.715.918-3.513,1.271-4.57,15.284-.88,14.154-4.745,13.758-6.5-2.31-8.37-3.683-13.654-1.272-15.878a7.661,7.661,0,0,1,3.93,5.72c1-.482,2.29-1.141,2.54-2.206.658-3.2,1.159-9.955,4.922-10.178.455,3.031.816,6.229,1.085,9.612,1.965,1.891,1.557,8.732-.454,16.583q1.238,6.757-8.472,7.166l.111,1.381a60.858,60.858,0,0,0-17.417-1.131" transform="translate(-461.208 -312.566)" fill="#ffb27d" fill-rule="evenodd"/>
      <path id="Trazado_693884" data-name="Trazado 693884" d="M650.158,442.622c.408,1.742,2.7,8.584-14.979,8.6-.909.146-5.312-3.791-8.593-7.369-8.016-8.7-6.173-24.193,4.338-26.167-.435-11.652,18.316-5,26.111-6.721,8.185,6.165,5.451,11.142,2.021,11.207-3.763.222-4.264,6.98-4.922,10.178-.25,1.065-1.539,1.724-2.54,2.206a7.662,7.662,0,0,0-3.93-5.72c-2.15,1.993-.306,4.746,1.761,11.281.241.779.491,1.613.732,2.5" transform="translate(-432.988 -286.008)" fill="#fff" fill-rule="evenodd"/>
      <path id="Trazado_693885" data-name="Trazado 693885" d="M941.522,739.975H864.651c-3.958,0-6.016-2.558-6.016-6.85h86.771c.833,0,1.992.472,1.195,3.021a5.82,5.82,0,0,1-5.079,3.828" transform="translate(-598.085 -510.661)" fill="#347e8f" fill-rule="evenodd"/>
      <path id="Trazado_693886" data-name="Trazado 693886" d="M1039.016,584.115H989.861a4.534,4.534,0,0,0-3.773,2.661l-16.88,39.894c-.62,1.465.065,2.661,1.53,2.661h49.154a4.537,4.537,0,0,0,3.774-2.661l16.879-39.894c.62-1.465-.066-2.661-1.53-2.661" transform="translate(-674.946 -406.867)" fill="#599dad" fill-rule="evenodd"/>
      <path id="Trazado_693887" data-name="Trazado 693887" d="M1046.353,595.478H999.841a1.354,1.354,0,0,0-.7.556L983.173,633.8h46.514a1.352,1.352,0,0,0,.7-.554Z" transform="translate(-684.833 -414.782)" fill="#c7dcf5" fill-rule="evenodd"/>
      <path id="Trazado_693888" data-name="Trazado 693888" d="M640.476,583.562q-22.928-4.617-37.912-1.752-11.1,1.029-12.393,11.837c-5.006,28.763-2.781,58.5,7.9,93.23.955,2.689,9.587,4.765,22.434,3.124,24.153-2.058,31.439-4.014,38.512-12.727,13.338-16.425-.353-39.218-16.092-63.106-7.48-6.442-14.645-25.622-2.447-30.607" transform="translate(-409.309 -404.498)" fill="#6bb7bf" fill-rule="evenodd"/>
      <path id="Trazado_693889" data-name="Trazado 693889" d="M636.868,566.563q12.986-2.35,31.831.825-2.152-3.573-3.782-6.461c-10.243-3.077-25.473-2.614-27.372.324a43.976,43.976,0,0,0-.677,5.311" transform="translate(-443.613 -389.251)" fill="#599dad" fill-rule="evenodd"/>
      <path id="Trazado_693890" data-name="Trazado 693890" d="M748.178,871.5c-12.2-2.271-25.694-8.463-46.374-4.338-.723,1.325-3.5,7.416-4.523,8.676-7.074,8.713-14.359,10.668-38.513,12.727l-.317.037-.278.037h-.037l-.306.037-.25.029h-.065l-.306.036-.22.019-.559.055h-.018l-.111.019-.306.027-.158.019-.433.037-.132.018-.167.019-.3.027h-.1l-.185.019-.287.018h-.074l-.213.02-.287.017H653.6l-.232.009-.278.019h-.028l-.259.019-.266.019-.281.019h-1.622l-.157.008H649.6l-.111-.008h-1.623l-.241-.019h-.018l-.223-.019-.463-.038-.2-.017h-.029l-.222-.019-.185-.019h-.047l-.223-.017h-.055l-.167-.011-.223-.027-.129-.009h-.084l-.213-.029-.213-.018-.213-.029-.408-.055-.074-.009-.315-.046h-.075l-.148-.029-.195-.026h-.028l-.167-.029-.195-.028h-.019l-.176-.036-.176-.029-.183-.036c9.072,16.694,33.719,20.754,86.119,9.7,4.245,15.638,7.138,13.867,18.594,55.3,5.273,4.256,21.7,3.615,18.584-5.423-5.45-18.556-2.892-35.7-6.914-55.245-1.734-8.425-3.765-19.937-10.753-21.356Z" transform="translate(-447.575 -603.059)" fill="#2b478b" fill-rule="evenodd"/>
      <path id="Trazado_693891" data-name="Trazado 693891" d="M793.907,984.9c-.834,16.7,3.495,23.237,3.865,50.656,3.957,2.252,10.057,3.81,15.786-3.55.649-22.042,3.772-37.346,4.552-49.313-7.008.936-18.279,1.956-24.2,2.207" transform="translate(-552.925 -684.495)" fill="#233862" fill-rule="evenodd"/>
      <path id="Trazado_693892" data-name="Trazado 693892" d="M783.238,626.345c-19.057-23.368-31.905-34.7-37.958-36.243-14.664,4.774-3.588,28.939,3.9,35.391,6.915,8.017,15.527,12.948,28.726,19.409,6.22,2.531,21.689-.3,46.42-3.568q2.489-5.687-1.437-8.694c-21.949-2.828-34.972-5.664-39.653-6.294" transform="translate(-514.114 -411.038)" fill="#6bb7bf" fill-rule="evenodd"/>
      <path id="Trazado_693893" data-name="Trazado 693893" d="M896.82,706.3a75.39,75.39,0,0,1-9.928.982c2.178.3,6.146,1.056,11.966,2.085a4.807,4.807,0,0,0-2.039-3.068" transform="translate(-617.768 -491.977)" fill="#599dad" fill-rule="evenodd"/>
      <path id="Trazado_693894" data-name="Trazado 693894" d="M796.954,733.933q4.909-.6,8.323-1.363a77.322,77.322,0,0,1-15.034-10.049c2.428,3.865,4.7,7.675,6.711,11.412" transform="translate(-550.446 -503.275)" fill="#599dad" fill-rule="evenodd"/>
      <path id="Trazado_693895" data-name="Trazado 693895" d="M952.991,719.9a12.253,12.253,0,0,0,4.542.52c4.541-1.6,6.081-5.331,8.51-6.192a34.9,34.9,0,0,1,5.319.789q4.8-.558-6.979-5.137a31.107,31.107,0,0,0-12.495,2.651c1.89,1.818,2.262,4.283,1.1,7.37m-23.127-15.888a49.81,49.81,0,0,0-7.509,1.372,6.613,6.613,0,0,1,1.372,3.049q3.352.432,7.48.964a15.239,15.239,0,0,1,1.539-1.518c4.579,1.01,6.721,1.381,6.507.657q-2.835-2.378-9.389-4.524" transform="translate(-642.47 -490.38)" fill="#ffb27d" fill-rule="evenodd"/>
      <path id="Trazado_693896" data-name="Trazado 693896" d="M872.037,1169.087q24.722,1.18,24.693-1.484c-.074-4.393-9.732-2.826-17.435-10.214-.176,4.708-5.766,6.127-9.7,4.578-1.864-1.417-3.365-1.724-4.487-.926a9.271,9.271,0,0,0-.881,5.914q1.376,2.308,7.814,2.132m-62.717-1.53c16.482.788,18.585-2.057,18.558-3.837-.25-3.068-5.135-.871-11.93-6.516-.176,4.708-3.5,5.71-7.442,4.161-1.863-1.408-3.078-2.409-5.868-.184a7.267,7.267,0,0,0-.88,5.218c.918,1.539,3.262,1.279,7.563,1.159" transform="translate(-558.392 -806.054)" fill="#233862" fill-rule="evenodd"/>
      <path id="Trazado_693897" data-name="Trazado 693897" d="M871.151,1153.983c.083.584.149,1.159.184,1.723q1.544-.459,3.82,1.261c3.577,1.4,8.518.361,9.529-3.373a10.137,10.137,0,0,1-2.429-3.569c-1.362,3.178-6.406,4.337-11.1,3.958m-61.1-1.262a17.936,17.936,0,0,1-.411,2.513c1.845-.881,2.928-.019,4.431,1.13,3.605,1.418,6.692.7,7.332-3.03a8.532,8.532,0,0,1-.7-1.364c-2.818,2.411-7.341,2.16-10.657.751" transform="translate(-563.958 -801.054)" fill="#ffb27d" fill-rule="evenodd"/>
      <path id="Trazado_693898" data-name="Trazado 693898" d="M615.053,689.419l3.263,27.641a9.737,9.737,0,0,1-9.835,11.15h-7.629l3.458,29.255c.324.073.658.148,1.02.212.445.084.917.167,1.409.232l-3.217-27.252h5.664a11.488,11.488,0,0,0,11.559-13.1l-3.262-27.649c-.825-6.981-7.2-11.985-14.247-11.985h-14.08l-.026.353h13.457a12.931,12.931,0,0,1,12.467,11.142" transform="translate(-410.36 -472.21)" fill="#599dad" fill-rule="evenodd"/>
      <path id="Trazado_693899" data-name="Trazado 693899" d="M731.17,962.553a7.684,7.684,0,0,0-7.471-5.95H654.308c.353.351.723.7,1.113,1.047H723a5.936,5.936,0,0,1,5.886,5.313c.759-.131,1.52-.262,2.281-.41" transform="translate(-455.761 -666.325)" fill="#233862" fill-rule="evenodd"/>
      <path id="Trazado_693900" data-name="Trazado 693900" d="M148.488,430.8c-3.337-11.736,3.976-16.833,8.1-18.826,7.694-10.984,22.673-8.666,28.531-6.266,11.031,5.367,7.322,13.959,3.893,14.024a6.143,6.143,0,0,0-4.523,2.807c-2.846,9.076,7.137,16.288.825,23.824-6.1,7.286,3.161,11.365,3.625,12.66,1.2,3.432-35.975,10.217-43.1,2.913-8.621-8.825-.786-10.409,3-16.611,2.15-3.513.491-7.452-.352-14.516Z" transform="translate(-98.87 -281.204)" fill="#fff" fill-rule="evenodd"/>
      <path id="Trazado_693901" data-name="Trazado 693901" d="M510.46,968.848c-5.246-17.863-4.319-38.9-7.879-56.218-1.733-8.427-2.073-14.442-9.065-15.852q-7.9-1.472-17.844-2.613,10.97,13.376.454,23.552c1.548-.314,5.793-1.815,7.378-2.149-2.827,11.522,6.906,17.193,12.792,38.383,1.1,3.958,2.151,7.973,2.994,11.931.676,3.161,1.362,6.386.992,9.473a15.507,15.507,0,0,0,1.882.231c4.2.826,8.138,3.522,9.677.334.139-.268,1.4-3.6,1.474-3.884.195-.7-2.679-2.474-2.855-3.188" transform="translate(-331.331 -622.834)" fill="#ffb27d" fill-rule="evenodd"/>
      <path id="Trazado_693902" data-name="Trazado 693902" d="M443.179,1021.118c-4.542-15.48-4.45-33.351-6.665-49.117-2.29.453-4.542.88-6.739,1.278l-2.29.418c.019.194.028.389.028.592a5.938,5.938,0,0,1-5.914,5.923h-2.317c1.474,8.6,4.523,14.062,9.742,26.019,2.957,6.776,3.81,14.432,4.533,21.237a6.752,6.752,0,0,0,1.334.389c4.2.833,6.4-.594,7.944-3.782a5.646,5.646,0,0,0,.315-.825,4.159,4.159,0,0,0,.028-2.133" transform="translate(-292.053 -677.051)" fill="#ffb27d" fill-rule="evenodd"/>
      <path id="Trazado_693903" data-name="Trazado 693903" d="M576.283,1151.566c-.38-3.068-5.172-.666-12.189-6.034.021,4.719-3.262,5.85-7.267,4.468-1.919-1.334-3.625-5.96-5.877.056a7.213,7.213,0,0,0-.658,5.246c.976,1.5,3.308,1.141,7.6.844,16.5.12,18.485-2.808,18.39-4.58" transform="translate(-383.177 -797.924)" fill="#233862" fill-rule="evenodd"/>
      <path id="Trazado_693904" data-name="Trazado 693904" d="M477.653,1134.883c-.324-3.059-3.93-.723-9.992-6.09,2.206,4.255-3.346,5.915-6.8,4.524-1.659-1.326-3.133-5.951-5.071.055a8.326,8.326,0,0,0-.574,5.256c.844,1.493,2.864,1.141,6.562.844,14.247.112,15.962-2.818,15.878-4.588" transform="translate(-316.971 -786.265)" fill="#233862" fill-rule="evenodd"/>
      <path id="Trazado_693905" data-name="Trazado 693905" d="M541.135,764.345h4.737L541.7,729.019h-7.629a12.93,12.93,0,0,1-12.458-11.15l-3.263-27.641a9.727,9.727,0,0,1,9.826-11.142h25.055A12.931,12.931,0,0,1,565.7,690.229l3.263,27.641a9.732,9.732,0,0,1-9.835,11.15H551.5l4.171,35.326h72.579a5.919,5.919,0,0,1,0,11.837h-41.87v16.759h2.4v25.7L614.26,820.4a2.043,2.043,0,0,1,1.983,1.985v1.98h-65.47v-2.305a1.7,1.7,0,0,1,1.669-1.66l25.8-1.751v-25.7h2.4V776.182H541.135a5.919,5.919,0,0,1,0-11.837m74.832,71.272a4.255,4.255,0,1,0-4.255-4.255,4.255,4.255,0,0,0,4.255,4.255m-43.872-8.51a4.255,4.255,0,1,1-4.255,4.255,4.247,4.247,0,0,1,4.255-4.255m24.044,0a4.255,4.255,0,1,1-4.255,4.255,4.247,4.247,0,0,1,4.255-4.255m-43.88,0A4.255,4.255,0,1,1,548,831.362a4.255,4.255,0,0,1,4.255-4.255" transform="translate(-361.005 -473.02)" fill="#b5453c" fill-rule="evenodd"/>
      <path id="Trazado_693906" data-name="Trazado 693906" d="M457.018,991.843c-5.886-21.19-15.619-26.861-12.792-38.383-1.585.334-5.83,1.835-7.379,2.149a20.226,20.226,0,0,0,3.115-3.818q5.214-1.738,9.826-3.226c-5.182,15.063,10.382,27.549,12.8,61.363a1.265,1.265,0,0,0-1.5.528,44,44,0,0,0-1.075-6.683c-.844-3.958-1.891-7.973-2.994-11.931m-19.5-27.584q-7.536,1.612-9.242,4.986c-1.038,5.4,7.759,23.127,7.369,38.264-.945-.974-1.853-2.771-2.827-2.679a56.529,56.529,0,0,0-3.791-14.924c-5.219-11.958-8.269-17.418-9.742-26.019H421.6a5.938,5.938,0,0,0,5.914-5.924c0-.2-.018-.4-.028-.592l.222-.047h.038c.639-.111,1.279-.223,1.927-.342.029,0,.066-.019.1-.019,2.2-.4,4.449-.826,6.739-1.287.389,2.808.714,5.669,1,8.583" transform="translate(-292.053 -660.726)" fill="#f08261" fill-rule="evenodd"/>
      <g id="Grupo_990836" data-name="Grupo 990836" transform="translate(15.106 9.169)">
        <path id="Trazado_693907" data-name="Trazado 693907" d="M326.079,0a62.039,62.039,0,1,1-62.035,62.042A62.04,62.04,0,0,1,326.079,0" transform="translate(-183.921)" fill="#a8d29f" fill-rule="evenodd"/>
        <path id="Trazado_693908" data-name="Trazado 693908" d="M339.2,17.9a57.266,57.266,0,1,1-57.262,57.27A57.271,57.271,0,0,1,339.2,17.9" transform="translate(-197.047 -13.126)" fill="#c7ebbf" fill-rule="evenodd"/>
        <path id="Trazado_693909" data-name="Trazado 693909" d="M476.3,183.884a8.619,8.619,0,0,0-2.973.945c-.839.587-1.14,1.312-1.832,1.9a18.358,18.358,0,0,1-1.613,3.78c-.513.929-1.686,2.46-1.254,3.641l.586.472a13.565,13.565,0,0,0-.586,2.411c-.13,1.181.073,1.955.016,3.1-.033,2.126,2.183,2.827,3.764,3.828,5.75,3.649,5.058,3.544,11.363,3.266,3.4-.146,3.861-.782,6.027-1.376-.261.969-.244.586-1.189,1.148-5.27,3.144-4.871,3.934-11.306,4.105-2.208.057-1.694.579-3.429-.619-1.629-1.116-3.942-2.753-6-1.971a2.9,2.9,0,0,0-2.036,2.093c1.467,1.425,3.185,1.922,4.822,3.111.977.708,1.059,1.132,2.422,1.6,3.834,1.311,12.435.041,16.421-1.809.356-.163.071-.285.56.017-1.89.659-5.376,3.763-6.769,4.162a69.913,69.913,0,0,1-8.716,2.2c-2.232.415-4.089.7-3.665,3.389,1.36,1.01,1.441.7,3.293.594a31.672,31.672,0,0,0,10.106-2.036c4.4-1.458,5.946-2.639,9.391-4.855a9.271,9.271,0,0,1,1.14-.758l.253.236c-.292.261.106-.178-.3.3-.22.253-.073.122-.285.375l-4.48,4.627c-1.442,1.368-4.838,3.543-2.126,6.019,1.775.2,1.751-.578,2.614-1.523.7-.766,1.255-.9,2.078-1.694,1.262-1.222,2.411-2.37,3.926-3.641.929-.782,1.361-.8,2.15-1.857l3.16-4.391a22.263,22.263,0,0,0,1.955-1.833c3.871-4.863,3.4-9.929,7.811-15.093a10.287,10.287,0,0,1,4.863-2.729,22.514,22.514,0,0,0-.415-10.467c-.676-2.468-2.492-6.06-4.032-7.412-1.792.424-3.7,1.979-8.088,2.908-3.7.774-6.361.277-9.815-.228-2.647-.383-10.019,2.329-13.293,3.176-1.23.318-3.655.529-4.513.888m-.057,6.924c.407-1.3.407-1.165,1.808-1.026,3.836.391,4.5-.049,8.015-.758a11.278,11.278,0,0,0,2.264,2.566c2.916,2.68,3.567,1.547,2.1,5.465-.953,2.533-3.51,2.981-5.922,3.6-1.269.326-2.354.855-3.462,1.238-.953.326-1.906-.692-2.938-1.206-4.043-1.971-2.739.13-4.368-4.016a2.193,2.193,0,0,1-.343-.383l-.562-.782c-.325-.423-.48-.5-.766-.88.692-.554,1.556-1.14,2.224-1.71.75-.643,1.148-1.467,1.947-2.109" transform="translate(-331.904 -129.906)" fill="#fff" fill-rule="evenodd"/>
        <path id="Trazado_693910" data-name="Trazado 693910" d="M373.514,142.226c.057-1.149-.146-1.923-.016-3.1a13.6,13.6,0,0,1,.586-2.411l-.586-.472c-.652.415-2.313-.114-4.448.033-1.507.106-2.948.668-4.26.676-2.311-4.733-6.361-2.436-3.812-8.553.961-2.313,3.926-2.7,5.857-3.242,1.376-.391,2.313-1.092,3.69-1.222a11.344,11.344,0,0,0,5.01,2.492l.831,2.395c.692-.586.993-1.311,1.832-1.9a8.631,8.631,0,0,1,2.973-.945c-.212-2.053-.692-1.963-3.4-3.763-1.409-.929-2.851-1.914-4.382-2.769-2.965-1.654-9.253-.343-12.023.912.1-.693.432-.839,1.271-1.426l3.185-2.175c2.843-1.792,2.289-1.784,6.361-1.9,3.494-.1,2.387-.758,4.651.945,2.395,1.808,5.906,3,6.948-.244-.709-1.263-3.185-2.118-4.456-3.144-2.036-1.645-2.3-1.906-5.808-2.02-6.451-.212-6.776.6-12.756,2.5,1.482-1.255,2.916-1.963,4.326-3.087,3.079-2.468,1.173-1.059,5.14-2.443,3.567-1.246,7.526-1.181,8.6-2.721a1.571,1.571,0,0,0-.391-2.338c-.758-.415-5.2.211-6.484.342-2.526.269-8.838,2.884-10.864,4.261-1.077.741-3.61,2.688-4.691,2.867.511-1.3,3.6-4.284,4.608-5.384,1.5-1.613,4.725-3.609,1.946-6.215-1.295.122-1.5.717-2.166,1.54s-1.3,1.067-1.988,1.8a33.863,33.863,0,0,1-3.674,3.665c-2.607,2.143-3.1,4.146-4.862,6.239-.628.75-1.2,1.206-1.817,1.971-3.38,4.179-3.25,9.9-7.16,14.858-1.612,2.052-2.72,1.654-4.585,2.981-1.928,5.172,1.3,15.159,4.121,17.545,6.662-3.193,8.935-3.885,16.022-2.745,4.023.644,11.835-3.185,16.673-3.8" transform="translate(-236.774 -71.997)" fill="#fff" fill-rule="evenodd"/>
      </g>
      <path id="Trazado_693911" data-name="Trazado 693911" d="M491.134,235.071c.695-2.5,2.326-4.663,2.846-6.673-.909.732-1.354,1.668-2.215,2.4-.76.649-1.743,1.316-2.531,1.946.325.427.5.519.871,1l.639.89a2.5,2.5,0,0,0,.39.435" transform="translate(-340.778 -159.091)" fill="#fff" fill-rule="evenodd"/>
      <path id="Trazado_693912" data-name="Trazado 693912" d="M1057.007,633.79c-1.02-2.779-6.106-8.886-7.957-9.73v8.176c3.351,2.124,8.457,8.24,8.457,8.24,9.612-14.934,15.261-18.821,15.261-18.821v-9.92c-10,6.874-15.761,22.055-15.761,22.055" transform="translate(-730.719 -426.106)" fill="#65b300"/>
    </g>
  </g>
</svg>
