<svg xmlns="http://www.w3.org/2000/svg" xmlns:xlink="http://www.w3.org/1999/xlink" width="154" height="154" viewBox="0 0 154 154">
  <defs>
    <filter id="Elipse_4763" x="0" y="0" width="154" height="154" filterUnits="userSpaceOnUse">
      <feOffset dy="3" input="SourceAlpha"/>
      <feGaussianBlur stdDeviation="3" result="blur"/>
      <feFlood flood-opacity="0.161"/>
      <feComposite operator="in" in2="blur"/>
      <feComposite in="SourceGraphic"/>
    </filter>
  </defs>
  <g id="Grupo_1005940" data-name="Grupo 1005940" transform="translate(-373.66 -6294)">
    <g transform="matrix(1, 0, 0, 1, 373.66, 6294)" filter="url(#Elipse_4763)">
      <circle id="Elipse_4763-2" data-name="Elipse 4763" cx="68" cy="68" r="68" transform="translate(9 6)" fill="#0098e8"/>
    </g>
    <g id="reunion" transform="translate(405.004 6322)">
      <g id="Grupo_895474" data-name="Grupo 895474" transform="translate(29.279)">
        <g id="Grupo_895473" data-name="Grupo 895473" transform="translate(0 1.81)">
          <g id="Grupo_895472" data-name="Grupo 895472">
            <g id="Grupo_895470" data-name="Grupo 895470">
              <g id="Grupo_895469" data-name="Grupo 895469">
                <g id="Grupo_895468" data-name="Grupo 895468">
                  <g id="Grupo_895467" data-name="Grupo 895467">
                    <g id="Grupo_895466" data-name="Grupo 895466">
                      <g id="Grupo_895465" data-name="Grupo 895465">
                        <g id="Grupo_895464" data-name="Grupo 895464">
                          <g id="Grupo_895463" data-name="Grupo 895463" transform="translate(0 16.15)">
                            <g id="Grupo_895462" data-name="Grupo 895462">
                              <g id="Grupo_895461" data-name="Grupo 895461">
                                <g id="Grupo_895460" data-name="Grupo 895460">
                                  <g id="Grupo_895459" data-name="Grupo 895459">
                                    <g id="Grupo_895458" data-name="Grupo 895458">
                                      <g id="Grupo_895457" data-name="Grupo 895457">
                                        <g id="Grupo_895456" data-name="Grupo 895456">
                                          <g id="Grupo_895455" data-name="Grupo 895455">
                                            <g id="Grupo_895454" data-name="Grupo 895454">
                                              <g id="Grupo_895453" data-name="Grupo 895453">
                                                <g id="Grupo_895452" data-name="Grupo 895452">
                                                  <g id="Grupo_895451" data-name="Grupo 895451">
                                                    <path id="Trazado_691335" data-name="Trazado 691335" d="M229.5,114.524c2.5,0,6.476-6.67,5.7-6.819l-.564-.3a2.239,2.239,0,0,1-1.192-1.979V99.99h-7.895v5.438a2.239,2.239,0,0,1-1.192,1.979l-.564.3C223.023,107.854,227,114.524,229.5,114.524Z" transform="translate(-212.804 -99.99)" fill="#ffeae1"/>
                                                    <path id="Trazado_691336" data-name="Trazado 691336" d="M190.513,158.259v-8.351c0-5.645-3.483-8.784-6.734-10.486a5.727,5.727,0,0,1-4.041,2.444c-1.907.014-3.774-1.737-4.844-3.644s-11.848,1.72-11.848,11.959v8.077h27.467Z" transform="translate(-163.046 -130.956)" fill="#acdf91"/>
                                                    <path id="Trazado_691337" data-name="Trazado 691337" d="M277.145,140.45a9.049,9.049,0,0,1-1.279,1.745c3.184,1.629,6.652,4.674,6.652,10.214v8.077h6.476v-8.077C288.993,142.17,277.145,140.45,277.145,140.45Z" transform="translate(-255.602 -133.183)" fill="#7fd061"/>
                                                  </g>
                                                </g>
                                              </g>
                                            </g>
                                          </g>
                                        </g>
                                      </g>
                                    </g>
                                  </g>
                                </g>
                              </g>
                            </g>
                          </g>
                          <path id="Trazado_691338" data-name="Trazado 691338" d="M216.6,25.7l-.017-15.061A11.132,11.132,0,0,0,213,10.075l-.233.006h0c-.078,0-.155-.005-.233-.006-3.871.027-7.363,1.583-7.381,5.814l-.008,2.02-.5,0a1.338,1.338,0,0,0-1.336,1.341l-.006,2.868a1.339,1.339,0,0,0,1.325,1.352l.5,0a6.959,6.959,0,0,0,2.3,5.123,8.232,8.232,0,0,0,7.361,1.756A7.03,7.03,0,0,0,216.6,25.7Z" transform="translate(-196.067 -10.075)" fill="#ffeae1"/>
                          <path id="Trazado_691339" data-name="Trazado 691339" d="M267.495,19.356l-.5,0-.008-2.02c-.013-3.186-2-4.855-4.629-5.5l.018,15.062A6.963,6.963,0,0,1,260.109,32a7.669,7.669,0,0,0,4.6-1.955,6.959,6.959,0,0,0,2.3-5.123l.5,0a1.339,1.339,0,0,0,1.325-1.352l-.006-2.868A1.338,1.338,0,0,0,267.495,19.356Z" transform="translate(-242.675 -11.525)" fill="#ffdbcc"/>
                        </g>
                      </g>
                    </g>
                  </g>
                </g>
              </g>
            </g>
            <g id="Grupo_895471" data-name="Grupo 895471" transform="translate(8.258 23.174)">
              <path id="Trazado_691340" data-name="Trazado 691340" d="M211.289,139.235l-1.774.8a.831.831,0,0,0-.3,1.281l2.367,2.917a2.24,2.24,0,0,0,2.874.52l3.007-1.766-4.585-3.574A1.571,1.571,0,0,0,211.289,139.235Z" transform="translate(-209.024 -139.097)" fill="#51be26"/>
              <path id="Trazado_691341" data-name="Trazado 691341" d="M262.148,139.235l1.774.8a.831.831,0,0,1,.3,1.281l-2.367,2.917a2.24,2.24,0,0,1-2.874.52l-3.007-1.766,4.585-3.574A1.571,1.571,0,0,1,262.148,139.235Z" transform="translate(-247.545 -139.097)" fill="#51be26"/>
            </g>
          </g>
        </g>
        <path id="Trazado_691342" data-name="Trazado 691342" d="M203.333,17.881v3.9h2.786a2.453,2.453,0,0,0,2.453-2.453V13.168C205.169,13.439,203.333,15.445,203.333,17.881Z" transform="translate(-196.097 -10.803)" fill="#fb9538"/>
        <path id="Trazado_691343" data-name="Trazado 691343" d="M216.588,6.45,216.581.539l-.834-.527C215.618,0,215.487,0,215.356,0H204.578A1.279,1.279,0,0,0,203.3,1.279,4.719,4.719,0,0,0,208.018,6h7.142A2.478,2.478,0,0,1,216.588,6.45Z" transform="translate(-196.069 0)" fill="#fba65c"/>
      </g>
      <g id="Grupo_895476" data-name="Grupo 895476" transform="translate(22.761 24.983)">
        <path id="Trazado_691344" data-name="Trazado 691344" d="M180.818,278.513l2.9-44.59H151.707l2.9,44.59Z" transform="translate(-147.225 -216.89)" fill="#ecb9a1"/>
        <path id="Trazado_691345" data-name="Trazado 691345" d="M311.012,233.922l-2.9,44.59h6.476l2.9-44.59Z" transform="translate(-275.542 -216.89)" fill="#e7ab8a"/>
        <path id="Trazado_691346" data-name="Trazado 691346" d="M171.158,224.1H128.779a1.248,1.248,0,0,1-1.2-.919l-.776-2.842a1.248,1.248,0,0,1,1.2-1.577h43.931a1.248,1.248,0,0,1,1.2,1.577l-.776,2.842A1.247,1.247,0,0,1,171.158,224.1Z" transform="translate(-126.755 -204.45)" fill="#fbe05c"/>
        <g id="Grupo_895475" data-name="Grupo 895475" transform="translate(14.777)">
          <path id="Trazado_691347" data-name="Trazado 691347" d="M211.289,139.235l-1.774.8a.831.831,0,0,0-.3,1.281l2.367,2.917a2.24,2.24,0,0,0,2.874.52l3.007-1.766-4.585-3.574A1.571,1.571,0,0,0,211.289,139.235Z" transform="translate(-209.024 -139.097)" fill="#7fd061"/>
          <path id="Trazado_691348" data-name="Trazado 691348" d="M262.148,139.235l1.774.8a.831.831,0,0,1,.3,1.281l-2.367,2.917a2.24,2.24,0,0,1-2.874.52l-3.007-1.766,4.585-3.574A1.571,1.571,0,0,1,262.148,139.235Z" transform="translate(-247.545 -139.097)" fill="#7fd061"/>
        </g>
        <path id="Trazado_691349" data-name="Trazado 691349" d="M166.7,223.178l1.206-4.419H128a1.248,1.248,0,0,0-1.2,1.577l.776,2.842a1.248,1.248,0,0,0,1.2.919h36.712A1.248,1.248,0,0,0,166.7,223.178Z" transform="translate(-126.756 -204.451)" fill="#df9874"/>
      </g>
      <path id="Trazado_691350" data-name="Trazado 691350" d="M345.17,218.759h-4.842l-1.206,4.419a1.248,1.248,0,0,1-1.2.919h6.476a1.248,1.248,0,0,0,1.2-.919l.776-2.842A1.248,1.248,0,0,0,345.17,218.759Z" transform="translate(-277.23 -179.467)" fill="#da8659"/>
      <g id="Grupo_895489" data-name="Grupo 895489" transform="translate(0 69.207)">
        <g id="Grupo_895480" data-name="Grupo 895480" transform="translate(0)">
          <g id="Grupo_895479" data-name="Grupo 895479">
            <g id="Grupo_895478" data-name="Grupo 895478">
              <g id="Grupo_895477" data-name="Grupo 895477">
                <path id="Trazado_691351" data-name="Trazado 691351" d="M58.886,395.078a7,7,0,0,0,5.782-3.052c-.34-.09-.629-.156-.848-.2a1.862,1.862,0,0,1-1.5-1.636c0-.054-.007-.109-.007-.164v-4.707H55.483v4.707q0,.082-.007.164a1.863,1.863,0,0,1-1.5,1.636c-.225.047-.522.114-.873.208a7,7,0,0,0,5.777,3.045Z" transform="translate(-43.576 -385.318)" fill="#ffeae1"/>
                <path id="Trazado_691352" data-name="Trazado 691352" d="M19.241,423.16a6.22,6.22,0,0,1-9.032-1.335c-2.4.538-10.177,2.894-10.177,10.841v3.663a1.689,1.689,0,0,0,1.688,1.689H6.508v-.026a.468.468,0,0,1,.468-.468H23.738a.468.468,0,0,1,.468.468v.026l.727-1.573v-3.468a11.079,11.079,0,0,0-5.691-9.817Z" transform="translate(-0.032 -415.268)" fill="#7aabdc"/>
                <path id="Trazado_691353" data-name="Trazado 691353" d="M105.5,421.8a6.259,6.259,0,0,1-1.836,1.764,10.068,10.068,0,0,1,5.56,9.082v5.352H115.7v-5.352C115.7,424.67,107.879,422.324,105.5,421.8Z" transform="translate(-85.055 -415.244)" fill="#5f98d5"/>
              </g>
            </g>
            <path id="Trazado_691354" data-name="Trazado 691354" d="M53.785,474.083h-17.7v-4.639a3.663,3.663,0,0,1,3.663-3.663H50.122a3.663,3.663,0,0,1,3.663,3.663v4.639Z" transform="translate(-29.611 -451.33)" fill="#e5ecf6"/>
          </g>
        </g>
        <g id="Grupo_895484" data-name="Grupo 895484" transform="translate(30.65)">
          <g id="Grupo_895483" data-name="Grupo 895483">
            <g id="Grupo_895482" data-name="Grupo 895482">
              <g id="Grupo_895481" data-name="Grupo 895481">
                <path id="Trazado_691355" data-name="Trazado 691355" d="M229.532,395.078a7,7,0,0,0,5.782-3.052c-.341-.09-.63-.156-.849-.2a1.861,1.861,0,0,1-1.5-1.681c0-.04,0-.079,0-.119v-4.707h-6.835v4.707q0,.06,0,.119a1.861,1.861,0,0,1-1.5,1.681c-.225.047-.522.114-.874.208A6.994,6.994,0,0,0,229.532,395.078Z" transform="translate(-214.222 -385.318)" fill="#ffeae1"/>
                <path id="Trazado_691356" data-name="Trazado 691356" d="M189.847,423.192a6.22,6.22,0,0,1-8.992-1.366c-2.4.538-10.177,2.894-10.177,10.841v5.352h6.475v-.026a.468.468,0,0,1,.468-.468h16.763a.468.468,0,0,1,.468.468v.026h0l.736-1.573v-3.525A10.912,10.912,0,0,0,189.847,423.192Z" transform="translate(-170.677 -415.268)" fill="#fc8086"/>
                <path id="Trazado_691357" data-name="Trazado 691357" d="M276.15,421.8a6.258,6.258,0,0,1-1.836,1.764,10.068,10.068,0,0,1,5.56,9.082v5.352h6.476v-5.352C286.35,424.67,278.524,422.324,276.15,421.8Z" transform="translate(-255.7 -415.244)" fill="#fb636f"/>
              </g>
            </g>
          </g>
        </g>
        <g id="Grupo_895488" data-name="Grupo 895488" transform="translate(61.299)">
          <g id="Grupo_895487" data-name="Grupo 895487">
            <g id="Grupo_895486" data-name="Grupo 895486">
              <g id="Grupo_895485" data-name="Grupo 895485">
                <path id="Trazado_691358" data-name="Trazado 691358" d="M400.177,395.078a7,7,0,0,0,5.782-3.052c-.34-.09-.629-.156-.848-.2a1.862,1.862,0,0,1-1.5-1.636q-.007-.081-.007-.164v-4.707h-6.835v4.707q0,.082-.007.164a1.862,1.862,0,0,1-1.5,1.636c-.224.047-.522.114-.873.208A6.994,6.994,0,0,0,400.177,395.078Z" transform="translate(-384.867 -385.318)" fill="#ffeae1"/>
                <path id="Trazado_691359" data-name="Trazado 691359" d="M360.482,423.2a6.219,6.219,0,0,1-8.982-1.374c-2.4.538-10.177,2.894-10.177,10.841v5.352H347.8v-.026a.468.468,0,0,1,.468-.468H365.03a.468.468,0,0,1,.468.468v.026h0l.739-1.573V432.9A10.865,10.865,0,0,0,360.482,423.2Z" transform="translate(-341.322 -415.268)" fill="#7aabdc"/>
                <path id="Trazado_691360" data-name="Trazado 691360" d="M446.8,421.8a6.256,6.256,0,0,1-1.834,1.763,10.069,10.069,0,0,1,5.562,9.083v5.352h4.784A1.688,1.688,0,0,0,457,436.305v-3.663C457,424.67,449.177,422.324,446.8,421.8Z" transform="translate(-426.352 -415.244)" fill="#5f98d5"/>
              </g>
            </g>
          </g>
        </g>
      </g>
      <path id="Trazado_691361" data-name="Trazado 691361" d="M224.427,474.083h-17.7v-4.639a3.663,3.663,0,0,1,3.663-3.663h10.373a3.663,3.663,0,0,1,3.663,3.663v4.639Z" transform="translate(-169.604 -382.122)" fill="#e5ecf6"/>
      <path id="Trazado_691362" data-name="Trazado 691362" d="M395.084,474.083h-17.7v-4.639a3.663,3.663,0,0,1,3.663-3.663h10.373a3.663,3.663,0,0,1,3.663,3.663v4.639Z" transform="translate(-309.609 -382.122)" fill="#e5ecf6"/>
      <path id="Trazado_691363" data-name="Trazado 691363" d="M279.081,6.922A6.867,6.867,0,0,0,272.605.066l.007,6.061a2.49,2.49,0,0,1,1.9,2.417A2.492,2.492,0,0,0,277,11.036h2.087L279.081,11V6.922Z" transform="translate(-223.648 -0.054)" fill="#fb9538"/>
      <g id="Grupo_895490" data-name="Grupo 895490" transform="translate(67.936 53.158)">
        <path id="Trazado_691364" data-name="Trazado 691364" d="M388.007,315.263a6.387,6.387,0,0,0,2.148-4.684l.014-13.713-1.152-.9H383.3a2.121,2.121,0,0,0-2.121,2.121.717.717,0,0,1-.716.716h-.071a2.121,2.121,0,0,0-2.121,2.121v7.8a1.229,1.229,0,0,0,1.216,1.241l.462,0a6.388,6.388,0,0,0,2.109,4.7,7.05,7.05,0,0,0,4.081,1.781A7.427,7.427,0,0,0,388.007,315.263Z" transform="translate(-378.271 -295.962)" fill="#8f818f"/>
      </g>
      <path id="Trazado_691365" data-name="Trazado 691365" d="M418.392,295.963h-1.036l-.018,14.062a6.386,6.386,0,0,1-2.148,4.684,7.3,7.3,0,0,1-2.375,1.388,6.954,6.954,0,0,0,2.191.383,7.025,7.025,0,0,0,4.624-1.771,6.387,6.387,0,0,0,2.148-4.684h.451a1.643,1.643,0,0,0,1.618-1.755V301.4a5.452,5.452,0,0,0-5.455-5.441Z" transform="translate(-338.675 -242.805)" fill="#786e79"/>
      <g id="Grupo_895491" data-name="Grupo 895491" transform="translate(37.587 53.158)">
        <path id="Trazado_691366" data-name="Trazado 691366" d="M219.034,315.263a6.387,6.387,0,0,0,2.148-4.684l.015-13.713-1.153-.9h-5.715a2.121,2.121,0,0,0-2.121,2.121.716.716,0,0,1-.716.716h-.072a2.121,2.121,0,0,0-2.121,2.121v7.8a1.229,1.229,0,0,0,1.216,1.241l.462,0a6.388,6.388,0,0,0,2.109,4.7,7.05,7.05,0,0,0,4.081,1.781A7.43,7.43,0,0,0,219.034,315.263Z" transform="translate(-209.298 -295.962)" fill="#8f818f"/>
      </g>
      <path id="Trazado_691367" data-name="Trazado 691367" d="M249.419,295.963h-1.036l-.018,14.062a6.386,6.386,0,0,1-2.148,4.684,7.3,7.3,0,0,1-2.375,1.388,6.954,6.954,0,0,0,2.191.383,7.025,7.025,0,0,0,4.624-1.771,6.387,6.387,0,0,0,2.148-4.684h.451a1.643,1.643,0,0,0,1.618-1.755V301.4a5.452,5.452,0,0,0-5.455-5.441Z" transform="translate(-200.051 -242.805)" fill="#786e79"/>
      <g id="Grupo_895492" data-name="Grupo 895492" transform="translate(6.707 53.158)">
        <path id="Trazado_691368" data-name="Trazado 691368" d="M47.108,315.263a6.387,6.387,0,0,0,2.148-4.684l.015-13.713-1.153-.9H42.4a2.121,2.121,0,0,0-2.121,2.121.716.716,0,0,1-.716.716h-.071a2.121,2.121,0,0,0-2.121,2.121v7.8a1.229,1.229,0,0,0,1.216,1.241l.462,0a6.388,6.388,0,0,0,2.109,4.7,7.05,7.05,0,0,0,4.081,1.781A7.43,7.43,0,0,0,47.108,315.263Z" transform="translate(-37.372 -295.962)" fill="#8f818f"/>
      </g>
      <path id="Trazado_691369" data-name="Trazado 691369" d="M77.493,295.963H76.457l-.018,14.062a6.386,6.386,0,0,1-2.148,4.684,7.3,7.3,0,0,1-2.375,1.388,6.954,6.954,0,0,0,2.191.383,7.025,7.025,0,0,0,4.624-1.771,6.387,6.387,0,0,0,2.148-4.684h.451a1.642,1.642,0,0,0,1.618-1.755V301.4A5.453,5.453,0,0,0,77.493,295.963Z" transform="translate(-59.005 -242.805)" fill="#786e79"/>
    </g>
  </g>
</svg>
