<svg xmlns="http://www.w3.org/2000/svg" xmlns:xlink="http://www.w3.org/1999/xlink" width="1030" height="465.355" viewBox="0 0 1030 465.355">
  <defs>
    <clipPath id="clip-path">
      <rect id="Rectángulo_343448" data-name="Rectángulo 343448" width="610.661" height="363.357" fill="none"/>
    </clipPath>
    <clipPath id="clip-path-2">
      <rect id="Rectángulo_343446" data-name="Rectángulo 343446" width="61.495" height="13.208" fill="none"/>
    </clipPath>
    <clipPath id="clip-path-3">
      <rect id="Rectángulo_343447" data-name="Rectángulo 343447" width="100.24" height="39.247" fill="none"/>
    </clipPath>
    <filter id="Trazado_701887" x="307" y="0" width="416" height="83.999" filterUnits="userSpaceOnUse">
      <feOffset dy="3" input="SourceAlpha"/>
      <feGaussianBlur stdDeviation="3" result="blur"/>
      <feFlood flood-opacity="0.161"/>
      <feComposite operator="in" in2="blur"/>
      <feComposite in="SourceGraphic"/>
    </filter>
  </defs>
  <g id="Grupo_1005932" data-name="Grupo 1005932" transform="translate(-285 -2435.001)">
    <g id="Grupo_894307" data-name="Grupo 894307" transform="translate(495 2537)">
      <g id="Grupo_894306" data-name="Grupo 894306" clip-path="url(#clip-path)">
        <path id="Trazado_689282" data-name="Trazado 689282" d="M649.471,534.123s102.3-157-6.309-199.94c-27.358-10.816-36.9-162.24-158.423-86.528-48.327,30.11-117.914-6.327-184.554,13.588-61.2,18.29-62.607,71.049-54.869,90.042,8.455,20.753-25.262,45.566-59.794,62.607-54.166,26.731-14.335,120.675,36.836,121.124s427.113-.894,427.113-.894" transform="translate(-121.044 -171.79)" fill="#ebf3fa"/>
        <path id="Trazado_689283" data-name="Trazado 689283" d="M368.554,228.731l-8.9-.2c2.86,3.706,3.5,7.121,1.722,10.01-1.78,2.948-6.041,5.37-12.4,7.209A115.05,115.05,0,0,0,196.482,99.619c-1.693.73-3.385,1.488-5.02,2.276l-.015.007c-4.944-1.509-9.76-2.745-14.406-3.687-23.455-4.76-40.1-1.47-46.862,9.263-6.434,10.208-2.932,25.574,9.836,43.5l0,.008c-1.722,3.181-3.269,6.45-4.7,9.835-1.08,2.539-2.043,5.078-2.919,7.676-23.989,1.43-36.831,5.652-41.5,13.3-5.428,8.9,1.985,20.847,25.712,32.463,3.269,1.605,6.771,3.181,10.448,4.757a112.408,112.408,0,0,0,8.259,31.286,114.991,114.991,0,0,0,211.383,1.08c11.7-2.422,19.407-6.216,22.472-11.236,2.13-3.473,1.868-7.325-.613-11.411m-27.463,18.824a177.258,177.258,0,0,1-28.863,2.335,422.879,422.879,0,0,1-59.169-3.986q2.691-5.858,5.268-12.023a162.776,162.776,0,0,0,19.161,5.209,97.067,97.067,0,0,0,19.132,2.127c13.394,0,22.991-3.867,27.73-11.39a19.671,19.671,0,0,0,1.906-3.941h-6.828c-.113.208-.233.413-.359.613-3.521,5.589-11.388,8.475-22.434,8.473a91.124,91.124,0,0,1-17.908-2,156.1,156.1,0,0,1-18.033-4.878q2.466-6.17,4.786-12.561c4.162-11.476,7.725-22.852,10.608-33.776a290.068,290.068,0,0,0,42.217,2.909q13.991,0,28.989-1.13a108.891,108.891,0,0,1,2.233,22.026,107.611,107.611,0,0,1-8.434,42m-142.255,56.99c-3.321-1.2-5.007-5.971-5.836-9.757-1.311-5.984-1.548-14.388-.685-24.305.436-5.016,1.137-10.349,2.081-15.927a295.73,295.73,0,0,1,40.216,13.917c-2.956,5.1-5.946,9.825-8.935,14.11-5.7,8.164-11.265,14.463-16.107,18.215-3.064,2.374-7.413,4.952-10.734,3.747m38.783-41.409a301.835,301.835,0,0,0-42.13-14.59q.754-3.883,1.653-7.9,5.951,1.353,12.064,2.616c11.921,2.438,23.813,4.508,35.454,6.183q-3.458,7.156-7.042,13.688m-25.786-24.191q-6.909-1.422-13.606-2.966c2.1-8.739,4.68-17.849,7.692-27.132a266.275,266.275,0,0,0,46.653,23.009q-2.837,6.772-5.818,13.179c-11.451-1.642-23.166-3.68-34.921-6.09M173.6,120.987a71.492,71.492,0,0,0,4.232,7.447c7.915,12.232,18.368,21.1,25.743,26.383a126.045,126.045,0,0,0,13.546,8.433c-4.373,9.528-8.537,19.7-12.366,30.254q-1.071,2.953-2.087,5.895c-22.872-14.888-42.236-31.972-54.939-48.5l-.005-.007a108.736,108.736,0,0,1,10.91-15.372c1.693-1.984,3.444-3.911,5.282-5.778l.759-.759a109.357,109.357,0,0,1,8.924-7.992m97.8-16.5c3.321,1.2,5.007,5.971,5.836,9.757,1.311,5.984,1.548,14.389.685,24.305a242.507,242.507,0,0,1-6.353,36.312q-5.86-1.008-11.439-2.287a164.493,164.493,0,0,1-35-12.065,247.057,247.057,0,0,1,19.427-34.06c5.7-8.164,11.265-14.463,16.107-18.215,2.526-1.958,5.926-4.054,8.9-4.054a5.337,5.337,0,0,1,1.83.306m-13.052,73.927q5.706,1.325,11.707,2.363c-2.808,10.564-6.265,21.566-10.295,32.675q-2.33,6.423-4.815,12.629a260.707,260.707,0,0,1-46.992-23.322q1.224-3.579,2.529-7.179c3.743-10.321,7.806-20.254,12.066-29.557a170.306,170.306,0,0,0,35.8,12.392m59.46-49.437a107.872,107.872,0,0,1,28.072,48.55c-24.96,1.825-47.832,1.252-68.278-1.707a247.746,247.746,0,0,0,6.387-36.742c1.058-12.164.929-26.571-4-34.679q1.715.659,3.414,1.377a107.5,107.5,0,0,1,34.408,23.2M241.252,97.255a108.46,108.46,0,0,1,22.091,2.253c-8.507,3.7-17.192,14.009-23.784,23.459a252.944,252.944,0,0,0-19.848,34.76,120.153,120.153,0,0,1-12.169-7.559,93.805,93.805,0,0,1-24.368-24.685,63.943,63.943,0,0,1-4.615-8.247,108.246,108.246,0,0,1,14-8.445h0q2.983-1.506,6.074-2.824c.149-.063.3-.129.446-.192.034-.015.07-.029.1-.044q.658-.278,1.321-.545l.355-.141a107.552,107.552,0,0,1,40.392-7.792M135.46,110.807c3.521-5.589,11.388-8.473,22.434-8.473a91.129,91.129,0,0,1,17.908,2q3.764.762,7.68,1.794l.007,0a113.037,113.037,0,0,0-23.545,18.149c-1.488,1.459-2.918,2.977-4.319,4.553-1.751,1.926-3.415,3.94-5.02,5.983A115.89,115.89,0,0,0,143.483,145l-.005.009c-9.761-14.493-12.7-26.783-8.018-34.2m5.981,52.609c.963-2.218,1.955-4.407,3.035-6.537l0-.006c13.376,16.719,33.091,33.81,56.126,48.633-3.266,9.941-6.053,19.711-8.3,29.074a445.3,445.3,0,0,1-45.9-13.553c-2.86-1.022-5.632-2.072-8.288-3.123-1.576-.613-3.123-1.255-4.64-1.9-.233-2.335-.409-4.7-.467-7.063-.029-1.138-.058-2.247-.058-3.385,0-1.313.029-2.656.058-3.969a109.519,109.519,0,0,1,4.962-28.718c.5-1.576,1.021-3.123,1.605-4.669.584-1.605,1.2-3.21,1.868-4.786m-19.524,47.4C101.224,200.714,91.769,190.966,96,184.05c3.415-5.6,15.847-9.4,34.876-10.8a111.807,111.807,0,0,0-4.32,24.282c-.175,2.451-.262,4.9-.291,7.384v.642c0,2.481.087,4.961.233,7.413-1.576-.7-3.094-1.43-4.582-2.159m15.7,12.4c2.8,1.051,5.662,2.1,8.609,3.123,13.55,4.7,28.739,9.059,44.987,12.931q-.885,3.949-1.634,7.781-1.992-.483-3.986-.94a242.067,242.067,0,0,0-47.132-6.329A105.827,105.827,0,0,1,134.2,221.9l3.415,1.313m3.823,24.486q-.371-.882-.725-1.769A249.886,249.886,0,0,1,184.47,252.1q2,.458,4.006.949c-1.016,5.924-1.765,11.585-2.228,16.906-.877,10.081-.939,21.7,1.873,30a108.92,108.92,0,0,1-46.68-52.258M283.394,305.34a108.665,108.665,0,0,1-74.98,3.455c8.011-4.2,16.06-13.842,22.259-22.727,3.2-4.583,6.392-9.655,9.546-15.129a306.057,306.057,0,0,1,52.1,30.14q-4.347,2.324-8.923,4.262m34.408-23.2a107.483,107.483,0,0,1-19.7,15.612,312.442,312.442,0,0,0-54.9-32.143c2.641-4.838,5.243-9.949,7.784-15.283a467.827,467.827,0,0,0,49.912,4.089c4.028.117,7.938.117,11.732.087a208.783,208.783,0,0,0,26.091-1.751A107.6,107.6,0,0,1,317.8,282.139" transform="translate(-67.644 -68.704)" fill="#adcbf9"/>
        <path id="Trazado_689284" data-name="Trazado 689284" d="M529.9,36.523l-27.2,4.619,17.791-12.83,1.026,3.934,6.671,1.026Z" transform="translate(-381.204 -21.469)" fill="#456aa3"/>
        <path id="Trazado_689285" data-name="Trazado 689285" d="M502.7,37.384l22.409-12.317,22.238-1.711Z" transform="translate(-381.204 -17.712)" fill="#adcbf9"/>
        <path id="Trazado_689286" data-name="Trazado 689286" d="M520.49,6.842,502.7,19.672,516.214,0Z" transform="translate(-381.204 0)" fill="#adcbf9"/>
        <path id="Trazado_689287" data-name="Trazado 689287" d="M121.06,317.423,146.8,327.34l-14.9-16.1-1.786,3.653-6.743-.316Z" transform="translate(-91.801 -236.017)" fill="#456aa3"/>
        <path id="Trazado_689288" data-name="Trazado 689288" d="M98.994,306.96,79.469,290.447l-21.458-6.083Z" transform="translate(-43.991 -215.637)" fill="#adcbf9"/>
        <path id="Trazado_689289" data-name="Trazado 689289" d="M165.949,292.855l14.9,16.1L171.5,287Z" transform="translate(-125.841 -217.633)" fill="#adcbf9"/>
        <path id="Trazado_689290" data-name="Trazado 689290" d="M593.005,1245.072H88.847s55.644-37.062,81.239-22.337,69.584-3.485,82.63-22.6,31.714,27.577,48.724,15.945,23.992-60.623,46.6-49.973,12.956,70.168,28.176,37.747,45.909-50.684,53.041-11.2,85.922-8.129,163.745,52.42" transform="translate(-67.374 -883.132)" fill="#a8d29f"/>
        <rect id="Rectángulo_343444" data-name="Rectángulo 343444" width="16.336" height="12.733" transform="translate(419.501 97.087)" fill="#fff"/>
        <path id="Trazado_689291" data-name="Trazado 689291" d="M1767.582,414.863l-2.888,11.583h-22.186l4.567-16.908a10.594,10.594,0,0,1,20.507,5.326" transform="translate(-1321.367 -304.619)" fill="#a0c0ef"/>
        <path id="Trazado_689292" data-name="Trazado 689292" d="M1208.851,830.393,1221.6,981.981s1.336,9.189-5.5,9.205c-11.238.027-55.936,0-55.936,0s8.458-1.913,8.355-6.216c-.121-5.073-14.9-156.012-14.9-156.012Z" transform="translate(-874.805 -628.61)" fill="#d86713"/>
        <path id="Trazado_689293" data-name="Trazado 689293" d="M1200.726,979.809c-10.945.14-53.636.007-55.847,0,.832,0,7.253-.159,8.16-4.99a6.448,6.448,0,0,0,.107-1.226c0-.945-.524-6.943-1.367-16.082-.754-8.2-1.768-18.916-2.905-30.782-4.4-45.982-10.629-109.147-10.629-109.147l55.232,1.434,9.059,107.713,1.768,21.023,1.59,18.914.332,3.94s1.558,9.115-5.5,9.2" transform="translate(-863.147 -619.983)" fill="#ee9849"/>
        <path id="Trazado_689294" data-name="Trazado 689294" d="M937.877,493.589,906.823,618.328l-4.252,17.084-14.464,58.1H619.4l53.311-199.921Z" transform="translate(-469.697 -374.295)" fill="#f1a34f"/>
        <path id="Trazado_689295" data-name="Trazado 689295" d="M1780.978,493.588l4.3,1.435-48.352,202.827-5.722-4.339Z" transform="translate(-1312.797 -374.294)" fill="#ee9849"/>
        <path id="Trazado_689296" data-name="Trazado 689296" d="M893.833,1325.124H626.777l-7.375-4.339H888.111Z" transform="translate(-469.701 -1001.569)" fill="#d86713"/>
        <rect id="Rectángulo_343445" data-name="Rectángulo 343445" width="57.822" height="2.748" transform="translate(272.528 359.887)" fill="#f1a34f"/>
        <path id="Trazado_689297" data-name="Trazado 689297" d="M1243.01,1338.375l-.361,4.3-.013.158s-37.56,3.6-52.512,9.6c-.376-4.109-.82-8.854-1.313-14.06Z" transform="translate(-901.491 -1014.908)" fill="#d86713"/>
        <g id="Grupo_894302" data-name="Grupo 894302" transform="translate(281.732 346.682)" opacity="0.4">
          <g id="Grupo_894301" data-name="Grupo 894301">
            <g id="Grupo_894300" data-name="Grupo 894300" clip-path="url(#clip-path-2)">
              <path id="Trazado_689298" data-name="Trazado 689298" d="M1221.539,1447.573c-10.945.14-53.636.007-55.847,0,.832,0,7.253-.158,8.16-4.99,4.4.227,28.844,1.008,52.855-8.154l.332,3.94s1.558,9.115-5.5,9.2" transform="translate(-1165.691 -1434.429)" fill="#d86713"/>
            </g>
          </g>
        </g>
        <g id="Grupo_894305" data-name="Grupo 894305" transform="translate(327.592 279.969)" opacity="0.4">
          <g id="Grupo_894304" data-name="Grupo 894304">
            <g id="Grupo_894303" data-name="Grupo 894303" clip-path="url(#clip-path-3)">
              <path id="Trazado_689299" data-name="Trazado 689299" d="M1455.683,1158.4l-9.771,39.247h-90.469c38.253-12.152,56.36-29.93,63.657-39.247Z" transform="translate(-1355.442 -1158.395)" fill="#d86713"/>
            </g>
          </g>
        </g>
        <path id="Trazado_689300" data-name="Trazado 689300" d="M978.753,504.524,940.431,662.556H675.974l42.945-158.032Z" transform="translate(-512.6 -382.587)" fill="#d2e4ff"/>
        <path id="Trazado_689301" data-name="Trazado 689301" d="M660.724,1158.4h3.27l-.655,2.409-3.163-.358Z" transform="translate(-500.62 -878.427)" fill="#f1a34f"/>
        <path id="Trazado_689302" data-name="Trazado 689302" d="M1931.208,493.585v2.644h-2.456l.64-2.644Z" transform="translate(-1462.599 -374.292)" fill="#f1a34f"/>
        <path id="Trazado_689303" data-name="Trazado 689303" d="M764.318,646.041H946.079L1007,401.706H835.565a13.22,13.22,0,0,0-12.827,10.022Z" transform="translate(-579.593 -304.619)" fill="#fff"/>
        <path id="Trazado_689304" data-name="Trazado 689304" d="M1023.065,847.437h120.407a3.718,3.718,0,0,0,3.39-2.713l.254-1.017a2.055,2.055,0,0,0-2.037-2.714H1024.672a3.719,3.719,0,0,0-3.39,2.714l-.254,1.017a2.055,2.055,0,0,0,2.037,2.713" transform="translate(-774.197 -637.736)" fill="#a0c0ef"/>
        <path id="Trazado_689305" data-name="Trazado 689305" d="M1067.388,669.668H1187.8a3.719,3.719,0,0,0,3.39-2.713l.254-1.018a2.055,2.055,0,0,0-2.037-2.713H1068.995a3.72,3.72,0,0,0-3.39,2.713l-.254,1.018a2.055,2.055,0,0,0,2.037,2.713" transform="translate(-807.807 -502.932)" fill="#a0c0ef"/>
        <path id="Trazado_689306" data-name="Trazado 689306" d="M1051.992,731.42H1172.4a3.719,3.719,0,0,0,3.39-2.714l.253-1.017a2.055,2.055,0,0,0-2.037-2.713H1053.6a3.72,3.72,0,0,0-3.39,2.713l-.254,1.017a2.055,2.055,0,0,0,2.037,2.714" transform="translate(-796.132 -549.759)" fill="#a0c0ef"/>
        <path id="Trazado_689307" data-name="Trazado 689307" d="M1037.529,789.429h120.407a3.719,3.719,0,0,0,3.39-2.714l.254-1.017a2.055,2.055,0,0,0-2.037-2.713H1039.136a3.719,3.719,0,0,0-3.39,2.713l-.254,1.017a2.055,2.055,0,0,0,2.037,2.714" transform="translate(-785.164 -593.748)" fill="#a0c0ef"/>
        <path id="Trazado_689308" data-name="Trazado 689308" d="M993.59,965.661H1114a3.72,3.72,0,0,0,3.391-2.714l.254-1.017a2.055,2.055,0,0,0-2.037-2.714H995.2a3.719,3.719,0,0,0-3.39,2.714l-.254,1.017a2.055,2.055,0,0,0,2.037,2.714" transform="translate(-751.845 -727.386)" fill="#a0c0ef"/>
        <path id="Trazado_689309" data-name="Trazado 689309" d="M1008.053,907.652H1128.46a3.719,3.719,0,0,0,3.39-2.714l.254-1.017a2.055,2.055,0,0,0-2.037-2.714H1009.66a3.719,3.719,0,0,0-3.39,2.714l-.254,1.017a2.055,2.055,0,0,0,2.037,2.714" transform="translate(-762.813 -683.397)" fill="#a0c0ef"/>
        <path id="Trazado_689310" data-name="Trazado 689310" d="M949,1147.954h29.245a4.416,4.416,0,0,0,4.026-3.222,2.44,2.44,0,0,0-2.419-3.222H950.6a4.416,4.416,0,0,0-4.026,3.222,2.44,2.44,0,0,0,2.419,3.222" transform="translate(-717.728 -865.622)" fill="#a0c0ef"/>
        <path id="Trazado_689311" data-name="Trazado 689311" d="M1319.683,1147.954h29.245a4.417,4.417,0,0,0,4.026-3.222,2.44,2.44,0,0,0-2.419-3.222H1321.29a4.417,4.417,0,0,0-4.026,3.222,2.441,2.441,0,0,0,2.419,3.222" transform="translate(-998.825 -865.622)" fill="#a0c0ef"/>
        <path id="Trazado_689312" data-name="Trazado 689312" d="M916.554,1246.11H873.906a3.332,3.332,0,0,1-2.7-1.229,3.53,3.53,0,0,1-.549-3.094l3.075-12.331a5.8,5.8,0,0,1,5.3-4.241h42.648a3.331,3.331,0,0,1,2.7,1.229,3.529,3.529,0,0,1,.549,3.094l-3.074,12.331a5.8,5.8,0,0,1-5.3,4.241m-37.524-20.553a5.443,5.443,0,0,0-4.97,3.981l-3.075,12.331a3.2,3.2,0,0,0,.486,2.8,3,3,0,0,0,2.434,1.1h42.648a5.442,5.442,0,0,0,4.97-3.981l3.075-12.331a3.2,3.2,0,0,0-.486-2.8,3,3,0,0,0-2.434-1.1Z" transform="translate(-660.128 -929.096)" fill="#476ba7"/>
        <path id="Trazado_689313" data-name="Trazado 689313" d="M1287.87,1246.11h-42.648a3.332,3.332,0,0,1-2.7-1.229,3.53,3.53,0,0,1-.548-3.094l3.074-12.331a5.8,5.8,0,0,1,5.3-4.241h42.648a3.331,3.331,0,0,1,2.7,1.229,3.529,3.529,0,0,1,.548,3.094l-3.074,12.331a5.8,5.8,0,0,1-5.3,4.241m-37.524-20.553a5.442,5.442,0,0,0-4.969,3.981l-3.075,12.331a3.2,3.2,0,0,0,.486,2.8,3,3,0,0,0,2.434,1.1h42.648a5.442,5.442,0,0,0,4.969-3.981l3.075-12.331a3.2,3.2,0,0,0-.486-2.8,3,3,0,0,0-2.433-1.1Z" transform="translate(-941.702 -929.096)" fill="#476ba7"/>
        <path id="Trazado_689314" data-name="Trazado 689314" d="M1108.879,479.775a11.883,11.883,0,0,1,10.738-8.036c2.93,0,4.209,1.11,5.186,2.531l-2.814,2.353a3.779,3.779,0,0,0-3.428-1.731c-2.619,0-5.22,2.175-6.108,4.884-.874,2.664.241,4.884,2.9,4.884a7.82,7.82,0,0,0,4.681-1.82l1.411,2.331a10.8,10.8,0,0,1-7.237,2.642c-4.573,0-6.811-3.529-5.333-8.036" transform="translate(-840.535 -357.726)" fill="#f1a34f"/>
        <path id="Trazado_689315" data-name="Trazado 689315" d="M1174.869,479.775a12.092,12.092,0,0,1,10.916-8.036c4.8,0,7.063,3.574,5.6,8.036a12.092,12.092,0,0,1-10.916,8.036c-4.795,0-7.063-3.574-5.6-8.036m12.942,0c.874-2.664-.352-4.884-3.1-4.884a7.02,7.02,0,0,0-6.263,4.884c-.874,2.664.351,4.884,3.1,4.884a7.02,7.02,0,0,0,6.264-4.884" transform="translate(-890.585 -357.726)" fill="#f1a34f"/>
        <path id="Trazado_689316" data-name="Trazado 689316" d="M1251.725,472.841h3.152l4.142,9.568,3.139-9.568h3.374l-5.1,15.539h-2.908l-4.285-9.878L1250,488.38h-3.374Z" transform="translate(-945.335 -358.561)" fill="#f1a34f"/>
        <path id="Trazado_689317" data-name="Trazado 689317" d="M1336.14,475.993h-4.728l1.034-3.152h12.875l-1.034,3.152h-4.728l-4.063,12.387h-3.418Z" transform="translate(-1009.627 -358.561)" fill="#f1a34f"/>
        <path id="Trazado_689318" data-name="Trazado 689318" d="M1383.812,472.841h7.1c1.975,0,3.325.555,4.011,1.576a4.066,4.066,0,0,1,.153,3.6,7.446,7.446,0,0,1-4.91,4.817l1.976,5.55h-4l-1.743-4.972h-2.642l-1.631,4.972h-3.418Zm4.406,7.548a3.342,3.342,0,0,0,3.355-2.242c.48-1.465-.293-2.22-1.958-2.22h-3.4l-1.464,4.462Z" transform="translate(-1045.498 -358.562)" fill="#f1a34f"/>
        <path id="Trazado_689319" data-name="Trazado 689319" d="M1451.407,472.381h3.152l1.526,15.65h-3.574l-.277-3.485h-6.571l-2.564,3.485h-3.485Zm.6,9.146-.411-5.039-3.717,5.039Z" transform="translate(-1091.679 -358.213)" fill="#f1a34f"/>
        <path id="Trazado_689320" data-name="Trazado 689320" d="M1519.834,479.775a11.883,11.883,0,0,1,10.738-8.036c2.93,0,4.209,1.11,5.186,2.531l-2.814,2.353a3.779,3.779,0,0,0-3.428-1.731c-2.619,0-5.22,2.175-6.108,4.884-.874,2.664.24,4.884,2.9,4.884a7.821,7.821,0,0,0,4.682-1.82l1.411,2.331a10.806,10.806,0,0,1-7.238,2.642c-4.573,0-6.812-3.529-5.333-8.036" transform="translate(-1152.167 -357.726)" fill="#f1a34f"/>
        <path id="Trazado_689321" data-name="Trazado 689321" d="M1598.291,475.993h-4.728l1.034-3.152h12.875l-1.034,3.152h-4.728l-4.063,12.387h-3.419Z" transform="translate(-1208.42 -358.561)" fill="#f1a34f"/>
        <path id="Trazado_689322" data-name="Trazado 689322" d="M1334.554,1218.224q-9.716,4.015-19.289,8.774.379-1.072.68-2.146c.161-.575-.614-.958-1.094-.325a10.216,10.216,0,0,1-.676.8c.161-.515-.446-.8-.967-.425-.035.025-.066.052-.1.078.252-.692-.824-.8-1.225-.126l-.6,1a4.193,4.193,0,0,1-1.931,1.289,3.27,3.27,0,0,1-.284-1.074.478.478,0,0,0-.5-.456c-.011-.352-.329-.56-.8-.351a4.387,4.387,0,0,0-1.469,1.083c-.319-.6-1.344-.169-1.894.4.015-.032.031-.064.046-.1.259-.554-.222-1.186-.871-.627a7.843,7.843,0,0,0-2.385,3.5,13.5,13.5,0,0,1-1.22,1.2c-.212.182-1.2,1.1-1.428,1.019s-.1-.644,0-1.044l.106-.147c.822-1.144,4.785-6.53,1.992-6.481a1,1,0,0,0-.777.473,18.548,18.548,0,0,0-2.287,4.875c-.092.317-.219.725-.323,1.153-.081.109-.162.218-.245.326-1.109,1.453-2.641,3.55-4.44,4.267-.166-2.277.983-4.971,1.852-7.36q.562-1.545,1.171-3.088a.869.869,0,0,0,.386-.2c1.942-1.634,2.734-4.057,1.855-5.686-.253-.469-1.027-.042-1.249.456q-2.005,4.5-3.635,9.029c-.96,2.677-2.05,5.5-1.65,7.975.042.261.347.358.631.3,2.049-.447,3.835-2.27,5.272-4.089a.854.854,0,0,0,.562.5c.954.283,2.256-.778,3.193-1.665a3.737,3.737,0,0,0,.167.9c.1.313.426.383.806.231a7.427,7.427,0,0,0,2.413-1.613,5.2,5.2,0,0,0,2.413-1.937,12.81,12.81,0,0,0,1.189-1.187,1.822,1.822,0,0,0,.332.606c.349.4,1.228.037,1.789-.219a5.922,5.922,0,0,0,1.474-.968,2.939,2.939,0,0,0,1.015-.276.824.824,0,0,0,.24.251,1.051,1.051,0,0,0,1.172-.111c-.092.26-.187.52-.286.78q-1.394.7-2.785,1.422c-.612.316-.755,1.253-.069,1.2l2.554-.195a1.015,1.015,0,0,0,.856-.644c.15-.341.294-.682.433-1.023q9.99-5.007,20.163-9.212c.865-.358.577-1.469-.286-1.113m-29.681,9.8a4.181,4.181,0,0,1-.21.533c-.057.121-.122.239-.19.356a4.521,4.521,0,0,1,.4-.889m-1.875,1.6a1.592,1.592,0,0,0-.022.97,5.879,5.879,0,0,1-.639.423,3.664,3.664,0,0,1,.073-1.192c.3-.348.573-.708.831-1.076a6.356,6.356,0,0,0-.243.874" transform="translate(-979.15 -923.742)" fill="#365da2"/>
        <path id="Trazado_689323" data-name="Trazado 689323" d="M930.246,1201.121c-2.293,4.262-3.579,8.637-5.443,12.95a34.6,34.6,0,0,1-3.366,6.186c-.968,1.382-3.076,4.387-4.862,3.735-.445-.162-.569-.544-.424-1.064.032-.114.071-.232.112-.352a.986.986,0,0,0,.927-.108,3.323,3.323,0,0,0,1.318-1.467c.268-.58.225-1.183-.242-1.441a1.316,1.316,0,0,0-1.455.409,4.862,4.862,0,0,0-.932,1.65,5.1,5.1,0,0,0-.63,2.072c.065.984,1.127,1.333,2.166,1.105a6.624,6.624,0,0,0,3.228-2.381,27.67,27.67,0,0,0,2.645-3.73,51.674,51.674,0,0,0,3.69-8.029,78.75,78.75,0,0,1,3.968-9.322c.269-.5-.429-.715-.7-.212m-12.415,19.352c.078.3-.214.7-.452.974a1.6,1.6,0,0,1-.272.268.954.954,0,0,1-.193.115.328.328,0,0,0-.061.015.26.26,0,0,0-.241-.135c.1-.226.206-.448.307-.661.15-.317.749-1.208.913-.576" transform="translate(-694.043 -910.609)" fill="#365da2"/>
        <path id="Trazado_689324" data-name="Trazado 689324" d="M974.3,1253.6a5.106,5.106,0,0,1-1.456.605,1.4,1.4,0,0,1-.372.011,2.3,2.3,0,0,0,.719-1.13c.086-.618-.595-.76-1.171-.443a1.773,1.773,0,0,0-.882,1.332.911.911,0,0,0,.071.439,3.234,3.234,0,0,1-1.88.755,6.843,6.843,0,0,0,1.73-1.71.356.356,0,0,0,.025-.388,1.138,1.138,0,0,0-1.456-.112,2.917,2.917,0,0,0-1.25,1.5,2.146,2.146,0,0,0-.16.551,4.331,4.331,0,0,1-1.848.418v-.011q.291-.269.571-.548c.28-.279.113-.565-.147-.6a1.191,1.191,0,0,0-1.188.93,17.766,17.766,0,0,1-2.929,2.121c-.26.149-.611.452-.784.26a9.157,9.157,0,0,0,1.189-1.05c.7-.743,1.4-2.069.568-2.528a.487.487,0,0,0-.592.143l-1.1,1.459a6.406,6.406,0,0,0-.845,1.31,1.7,1.7,0,0,0-.12.458,7.986,7.986,0,0,1-1.162.6l-.1.041q.324-.258.646-.519a2.673,2.673,0,0,0,1.188-1.758,1.97,1.97,0,0,0-.766-1.471c-.1-.1-.352-.053-.5.062a7.9,7.9,0,0,0-2.6,3.344,1.305,1.305,0,0,0-.037,1.1q-1.565,1.193-3.166,2.33c-.113.081-.388.332-.5.294s-.06-.276-.061-.387a7.667,7.667,0,0,1,.051-.895,8.867,8.867,0,0,1,.487-2,10.843,10.843,0,0,1,.813-1.731.426.426,0,0,0,.447-.083,2.726,2.726,0,0,0,1.124-2.313c-.027-.281-.478-.239-.689,0a11.233,11.233,0,0,0-3.066,7.487c.023.537.267.988.985.688a5.194,5.194,0,0,0,.932-.6q.585-.417,1.165-.841,1.091-.8,2.169-1.621a3.715,3.715,0,0,0,1.284-.289,8.761,8.761,0,0,0,1.48-.707.741.741,0,0,0,.777.369,4.115,4.115,0,0,0,1.3-.656c.433-.261.859-.538,1.274-.834s.794-.593,1.173-.912c.087.122.239.158.5.165a4.422,4.422,0,0,0,1.095-.118,5.794,5.794,0,0,0,1.181-.416.755.755,0,0,0,.194.134,2.129,2.129,0,0,0,1.6-.1,6.042,6.042,0,0,0,1.5-.846,1.472,1.472,0,0,0,.44.117,4.4,4.4,0,0,0,2.331-.719c.522-.276.349-.966-.176-.689m-15.6,3.614a6.849,6.849,0,0,1,1.66-2.062.928.928,0,0,1,.161,1.3,5.007,5.007,0,0,1-.86.759q-.493.393-.989.781l-.261.2c-.114-.226.164-.732.289-.975m4.481-2.1a3.283,3.283,0,0,1-.858,1.227c-.053.052-.107.1-.162.153.3-.468.663-.927,1.02-1.379m6.969-1.581a5.275,5.275,0,0,1-1.017.955c.209-.457.693-.98,1.017-.955m1.914-.022c.048-.08.275-.334.238-.161a1.372,1.372,0,0,1-.324.4.614.614,0,0,1,.085-.24" transform="translate(-722.741 -949.772)" fill="#365da2"/>
        <path id="Trazado_689325" data-name="Trazado 689325" d="M622.9,386.311s-1.4-19.948-27.3-12.4c-5.878,1.714-5.114,19.461,9.122,26.217Z" transform="translate(-449.032 -282.25)" fill="#2b478b"/>
        <path id="Trazado_689326" data-name="Trazado 689326" d="M673.995,539.526s10.14,1.836,13.9,5.6,12.634,14.854,7.051,51.843c0,0-.447,11.148-12.983,12.222s-7.969-69.661-7.969-69.661" transform="translate(-510.484 -409.13)" fill="#b64c41"/>
        <path id="Trazado_689327" data-name="Trazado 689327" d="M579.836,840.527c1.744,12.138,13.442,43.687,13.1,54.591-.269,8.593-.127,28.444,1.007,41.631a81.255,81.255,0,0,0,1.148,8.9c1.007,4.864,2.3,10.465,2.992,14,1.546,7.926.737,12.549,2,16.8,1.39,4.651,17.341,3.8,12.535.978a14.114,14.114,0,0,1-5.445-5.913c-4.481-10.039,1.8-53.329,3.673-70.018.241-2.084.411-3.743.482-4.878.624-10.308,7.7-78.983,7.7-78.983-17.185-9.557-40.923,10.752-39.193,22.889" transform="translate(-439.63 -618.146)" fill="#d9935c"/>
        <path id="Trazado_689328" data-name="Trazado 689328" d="M579.838,840.452c1.744,12.138,13.442,43.687,13.1,54.591-.269,8.593-.127,28.444,1.007,41.631l16.9-35.25c.241-2.084.411-3.743.482-4.877.624-10.309,7.878-79.009,7.878-79.009-17.186-9.557-41.1,10.778-39.37,22.915" transform="translate(-439.632 -618.071)" fill="#cb8757"/>
        <path id="Trazado_689329" data-name="Trazado 689329" d="M609.4,818.866s-14.759,67.845-16.436,78.031-15.118,58.149-12.189,70.168c1.728,7.09,4.741,9.187,4.741,9.187.709,1.3-10.965,3.882-11.908-1.093-1.2-6.316-1.448-15.182-3.2-30.212-3.019-25.878,2.969-40.606,4.421-51.42s-4.874-45.193-1.363-56.942c6.144-20.56,19.829-28.99,35.936-17.718" transform="translate(-431.909 -617.143)" fill="#d9935c"/>
        <path id="Trazado_689330" data-name="Trazado 689330" d="M567.571,882.026s3.843.6,9.5.993l3.077-12.336,1.078,12.563c9.089.369,20.957-.085,29.706-3.7l-1.886-62.12s-12.671,3.343-27.915-2.513c0,0-19.823,15.478-13.56,67.114" transform="translate(-429.469 -617.959)" fill="#b64c41"/>
        <path id="Trazado_689331" data-name="Trazado 689331" d="M579.117,1433.342h-13.67c-1.092-1.593-2.625-8.024-3.78-9.315-.077-.085-.162-.186-.251-.3l-.116,9.614h-1.245a106.45,106.45,0,0,0-.872-13.136c-.747-1.426-1.279-2.806-1.047-3.388.483-1.214,4.947-3.906,4.947-3.906s3.026,16.462,4.872,16.926a21.649,21.649,0,0,0,8.436.325,7.233,7.233,0,0,1,2.6,1.86v0a1.256,1.256,0,0,1,.121,1.317" transform="translate(-423.201 -1071.43)" fill="#2b478b"/>
        <path id="Trazado_689332" data-name="Trazado 689332" d="M656.368,1433.408H642.7c-1.08-1.576-2.589-7.872-3.742-9.259l-.111,9.259H637.6c0-.268-.01-.722-.024-1.317v0a105.367,105.367,0,0,0-.725-11.047c-.952-1.673-1.738-3.468-1.464-4.157.483-1.214,4.849-3.885,4.849-3.885s3.122,16.44,4.97,16.9a25.181,25.181,0,0,0,8.836.421s3.145,1.53,2.325,3.084" transform="translate(-481.781 -1071.496)" fill="#2b478b"/>
        <path id="Trazado_689333" data-name="Trazado 689333" d="M647.424,607.572s6.01-20.545,4.117-40.328a42.974,42.974,0,0,0-16.973-29.895s-15.534,1.307-17.535,5.654,4.709,53.786,1.176,62.412c0,0,11.639,8.035,29.216,2.156" transform="translate(-467.616 -407.479)" fill="#e7f0fd"/>
        <path id="Trazado_689334" data-name="Trazado 689334" d="M657.8,507.161a.042.042,0,0,1,0-.012,24.575,24.575,0,0,1-.425-7.236v0c.068-.793.147-1.264.147-1.264l-.147-.046L644.9,494.8c-.181,3.964-.411,6.9-.655,9.083-.116,1.032-.232,1.895-.35,2.613a51.2,51.2,0,0,0,6.064,2.262c4.476,1.3,6.414.783,7.245,0a1.944,1.944,0,0,0,.6-1.6" transform="translate(-488.27 -375.213)" fill="#d9935c"/>
        <path id="Trazado_689335" data-name="Trazado 689335" d="M658.47,498.6v1.313s-8.32.094-13.136,3.969c.246-2.181.475-5.118.656-9.082Z" transform="translate(-489.365 -375.216)" fill="#cb8757"/>
        <path id="Trazado_689336" data-name="Trazado 689336" d="M655.02,435.961S639.9,439,638.155,429.553s-4.873-15.413,4.706-17.751,12.126.918,13.476,3.929,2.571,19.2-1.317,20.23" transform="translate(-482.469 -311.67)" fill="#d9935c"/>
        <path id="Trazado_689337" data-name="Trazado 689337" d="M634.068,399.267a21.565,21.565,0,0,0-2.877.216,12.872,12.872,0,0,0-14.719,4.451c-7.191,9.028,8.332,24.176,8.332,24.176-2.072-2.754-2.671-12.547,5.128-17.444,4.834-3.035,5.029-6.247,4.479-8.249l.214.063s6.229.765,6.585,7.957c0,0,2.728-11.4-7.142-11.17" transform="translate(-466.036 -302.378)" fill="#2b478b"/>
        <path id="Trazado_689338" data-name="Trazado 689338" d="M585.2,612.309c5.19,1.063,13.47.525,19.61-1.233a21.322,21.322,0,0,0,5.2-2.141c5.487-3.375,8.153-28.359,7.2-37.816S599.43,541.99,599.43,541.99c-3.9,2.893-4.672,9.915-7.012,18.749-5.629,21.255-7.217,51.571-7.217,51.571" transform="translate(-443.766 -410.998)" fill="#b64c41"/>
        <path id="Trazado_689339" data-name="Trazado 689339" d="M585.2,671.135c5.19,1.063,13.47.525,19.61-1.233a31.112,31.112,0,0,0,5.02-11.9c2.793-13.782-8.224-28.742-17.413-38.44-5.629,21.255-7.217,51.571-7.217,51.571" transform="translate(-443.766 -469.824)" fill="#aa413e"/>
        <path id="Trazado_689340" data-name="Trazado 689340" d="M594.081,731.964l12.227,8.825a3.4,3.4,0,0,0,4.736-.765l13.637-18.894a3.4,3.4,0,0,0-.765-4.736l-12.227-8.825a3.4,3.4,0,0,0-4.736.765l-13.637,18.894a3.4,3.4,0,0,0,.765,4.736" transform="translate(-449.435 -536.076)" fill="#233862"/>
        <path id="Trazado_689341" data-name="Trazado 689341" d="M665.3,784.678s5.977-.6,6.715.4.067,4.9-3.291,5.3-7.185-2.35-7.185-2.35Z" transform="translate(-501.651 -594.896)" fill="#da935b"/>
        <path id="Trazado_689342" data-name="Trazado 689342" d="M572.5,541.99A20.716,20.716,0,0,0,558.213,553.1c-4.608,9.571-9.571,34.208-8.33,36.512s16.129,14.711,28.359,16.306c0,0,2.659-3.367,2.482-6.381,0,0-16.484-10.28-17.9-13.116s12.584-26.409,12.407-30.486S572.5,541.99,572.5,541.99" transform="translate(-416.837 -410.998)" fill="#b64c41"/>
        <path id="Trazado_689343" data-name="Trazado 689343" d="M224.1,524.751s-20.88,21.555-21.882,29.682,9.934,20.842,9.934,20.842Z" transform="translate(-153.297 -397.926)" fill="#4a75cb"/>
        <path id="Trazado_689344" data-name="Trazado 689344" d="M329.9,1438.36s.71,11.459,2.927,11.623c.295.022,11.244.022,11.244.022l13.977-.081s-.091-3.368-4.177-4.08-10.924-3.584-13.4-8.983c-2.6-5.681-10.572,1.5-10.572,1.5" transform="translate(-250.165 -1087.932)" fill="#163560"/>
        <path id="Trazado_689345" data-name="Trazado 689345" d="M201.087,1438.36s.71,11.459,2.927,11.623c.295.022,11.244.022,11.244.022l14.019-.05s-.134-3.4-4.219-4.111-10.924-3.584-13.4-8.983c-2.6-5.681-10.572,1.5-10.572,1.5" transform="translate(-152.487 -1087.932)" fill="#163560"/>
        <path id="Trazado_689346" data-name="Trazado 689346" d="M245.169,886.532s-3.656,23.38-17.292,64.883-15.5,59.475-15.5,59.475a60.047,60.047,0,0,1-7.585.535,48.033,48.033,0,0,1-7.044-.945s-.125-45.358,6.16-66.228,1.356-75.24,1.356-75.24Z" transform="translate(-149.958 -658.983)" fill="#355493"/>
        <path id="Trazado_689347" data-name="Trazado 689347" d="M290.433,874.312a567.454,567.454,0,0,1-5.578,78.491c-6.1,43.259-4.029,61.621-4.029,61.621s-5.018.9-6.782.958c-1.887.063-7.818-.472-7.818-.472S257.5,971.635,260,949.983s-11.948-74.3-11.948-74.3Z" transform="translate(-188.103 -663.002)" fill="#415da5"/>
        <path id="Trazado_689348" data-name="Trazado 689348" d="M306.459,478.526l6.886,5.1,9.952-2.095c-.138-.908-.795-4.669-1.393-8.076-.036-.2-.072-.4-.106-.6-.512-2.9-.955-5.389-.955-5.389l-9.3-4.633-3.466-1.727c.009.061.269,3.217.3,3.678a29.759,29.759,0,0,1-1.928,13.74" transform="translate(-232.392 -349.664)" fill="#ffb27d"/>
        <path id="Trazado_689349" data-name="Trazado 689349" d="M319,511.282c-.218-.092-13.538-4.022-14.985-3.545s-2.3,3.277-2.3,3.277L323.5,515.94s-1.715-3.487-4.5-4.658" transform="translate(-228.794 -384.993)" fill="#4a75cb"/>
        <path id="Trazado_689350" data-name="Trazado 689350" d="M223.094,610.7c2.258,10.3,39.833,11.521,49.518,2.172,1.1-1.065,1.156-6.023.741-12.708-.813-13.061-3.422-32.707-3.524-42.745a79.474,79.474,0,0,0-1.6-14.307,116.19,116.19,0,0,0-4.766-17.125s-18.353-5.933-21.787-4.924c-16.545,4.861-20.837,79.338-18.579,89.637" transform="translate(-168.753 -395.041)" fill="#739af0"/>
        <path id="Trazado_689351" data-name="Trazado 689351" d="M375.369,663.592c-.813-13.061-3.423-32.707-3.524-42.745a79.471,79.471,0,0,0-1.6-14.307l-11.04-1.948s-10.794,44.089,16.167,59" transform="translate(-270.769 -458.47)" fill="#4a75cb"/>
        <path id="Trazado_689352" data-name="Trazado 689352" d="M390.13,768a2.6,2.6,0,0,0,.828,3.006c1.581,1.208,2.605,3.165,2.244,4.594s-3.829,3.763-5.03,3.387-3.648-2.26-3.384-3.014-1.645-6.619,1.285-8.877,4.059.9,4.059.9" transform="translate(-291.509 -581.085)" fill="#ffb27d"/>
        <path id="Trazado_689353" data-name="Trazado 689353" d="M352.972,530.866s10.767,2.015,19.346,14.658,14.223,22.043,12.643,26.6-15.986,20.36-18.47,20.36-6.491-1.806-6.717-5.87c0,0,10.142-15.2,8.144-17.478-.854-.973-13.167-10.969-14.925-6.454-2.908,7.471-.022-31.817-.022-31.817" transform="translate(-266.695 -402.563)" fill="#739af0"/>
        <path id="Trazado_689354" data-name="Trazado 689354" d="M316.489,470.345c2.041,3.906,9.647,7.283,12.819,8.525-.036-.2-.072-.4-.106-.6-.513-2.9-.955-5.389-.955-5.389l-9.3-4.633c-2.054-.032-3.305.488-2.463,2.1" transform="translate(-239.797 -355.079)" fill="#fca56b"/>
        <path id="Trazado_689355" data-name="Trazado 689355" d="M320.028,405.8s-16.415,1.887-17.433-8.354-3.822-16.894,6.615-18.532,12.866,2.067,14.037,5.4,1.025,20.728-3.219,21.483" transform="translate(-228.614 -287.032)" fill="#ffb27d"/>
        <path id="Trazado_689356" data-name="Trazado 689356" d="M304.6,365.5s-3.134,11.1-5.374,10.162-4.288-1.7-4.593,1.767,2.184,8.009-5.122,7.244-14.117-21.278-11.474-24.414c7.627-9.048,37.152-5.552,26.563,5.241" transform="translate(-210.398 -269.266)" fill="#233862"/>
        <path id="Trazado_689357" data-name="Trazado 689357" d="M1941.016,1383.346l-3.869,16.3-5.8-.033-.212-16.263Z" transform="translate(-1464.409 -1049.01)" fill="#ffb27d"/>
        <path id="Trazado_689358" data-name="Trazado 689358" d="M1722.3,1379.49l-11.009,15.6-4.291-5.509,6.626-12.237Z" transform="translate(-1294.44 -1044.459)" fill="#ffb27d"/>
        <path id="Trazado_689359" data-name="Trazado 689359" d="M1869.017,491.632a11.221,11.221,0,0,1,6.075-1.162,2.84,2.84,0,0,0-1.281-.608c1.04-.154,3.361.877,3.361.877,14.465-5.574,16.739,15.725,16.435,20.674s4.861,6.564,12.387,10.462c14.359,7.439,15.62,17.4,15.62,17.4-.112.066-.228.141-.353.226-.712-1.207-2.179-3.474-3.416-3.815a51.216,51.216,0,0,1,1.99,4.846c-4.236,3.223-12.161,10.363-17.684,15.425a8.111,8.111,0,0,0-.376-3.136l-.682,4.109c-2.955,2.717-4.994,4.628-4.994,4.628.365-4-18.085-25.1-27.711-31.421-2.343-3.45-3.176-9.544-3.238-10.024.4,4.832,1.231,7.543,1.97,9.069-8.151-7.5-3.406-34.537,1.9-37.551" transform="translate(-1412.537 -371.434)" fill="#b64c41"/>
        <path id="Trazado_689360" data-name="Trazado 689360" d="M1888.481,613.237c-.048.022,4.648,2.46,8.18,1.494,3.322-.906,5.493-5.214,5.447-5.224-1.407-.279-1.813-2.213-1.783-10.522l-.636.125-10.7,2.118s.243,3.366.25,6.537c.008,2.662-.154,5.188-.763,5.472" transform="translate(-1432.06 -454.218)" fill="#ffb27d"/>
        <path id="Trazado_689361" data-name="Trazado 689361" d="M1890.605,601.621s.243,3.366.25,6.537c5.985-.169,9.149-5.628,10.445-8.655Z" transform="translate(-1433.671 -454.611)" fill="#d68d5d"/>
        <path id="Trazado_689362" data-name="Trazado 689362" d="M1881.271,525.736s3.136-4.956,3.889-9.193c.537-3.025-1-14.239-12.272-12.624a15.308,15.308,0,0,0-6.349,2.4c-2.447,1.652-5.978,5.22-2.03,15.005l1.026,3.306Z" transform="translate(-1412.537 -382.008)" fill="#b64c41"/>
        <path id="Trazado_689363" data-name="Trazado 689363" d="M1714.226,1025.39l5.669.173,6.137.188s14.174-15.781,22.125-41.08q.278-.882.588-1.786c4.351-12.688,13.372-28.614,18.126-43.029.756-2.3,1.436-4.457,2.046-6.5.2-.655.385-1.3.566-1.932a152.916,152.916,0,0,0,5.452-28.7l-34.326.275a639.871,639.871,0,0,1-26.383,122.4" transform="translate(-1299.921 -684.544)" fill="#80bdcc"/>
        <path id="Trazado_689364" data-name="Trazado 689364" d="M1827.659,682.626c.086,16.335-2.4,23.343-2.4,23.343a46.126,46.126,0,0,0,32.165,1.97c.206-.065,14.463-3.319,14.463-3.319-.292-.661-2.892-11.669-3.177-12.276-3.688-7.92-6.488-11.393-6.926-13.828a51.8,51.8,0,0,1-.425-13.685,109.8,109.8,0,0,1,4.236-21.491,112.651,112.651,0,0,1-14.294-4.793c-1.139,1.419-4.5,2.853-7.521,2.785-3.479-.077-4.566-1.548-4.438-3.205-3.708,2.063-6.656,4.026-6.656,4.026-3.151,5.474-9.543,10.79-10.006,19.187-.114,2.065,4.971,20.828,4.974,21.286" transform="translate(-1382.165 -483.9)" fill="#e7f1fd"/>
        <path id="Trazado_689365" data-name="Trazado 689365" d="M1949.237,740.711c1.5,2.124,4.377,15.032,11.534,16.654-3.688-9.2-6.488-13.233-6.926-16.062a69.772,69.772,0,0,1-.425-15.9c-2.4-4.2-4.184-7.078-4.184-7.078-.188-.679-3.808-11.87-4.967-1.867s3.291,21.874,4.967,24.249" transform="translate(-1474.222 -540.165)" fill="#5f9aa8"/>
        <path id="Trazado_689366" data-name="Trazado 689366" d="M1867.538,545.72s14.16.234,14.17-8.587,1.844-14.731-7.2-15.253-10.8,2.842-11.52,5.785.864,17.767,4.547,18.055" transform="translate(-1412.603 -395.708)" fill="#ffb27d"/>
        <path id="Trazado_689367" data-name="Trazado 689367" d="M1860.373,516.631c2.185-2.649,3.838-2.073,4.765-1.277,3.06-4.573,12.731,2.04,12.731,2.04a16.849,16.849,0,0,0,5.511,9.954s-2.581,1.594-8.531.064c-4.682-1.2-8.08-7.869-9.316-10.654a11.238,11.238,0,0,0-3.151,4.172c-.706,2.246-1.023,6.87-2.371,6.713,0,0-2.921-7.033.361-11.012" transform="translate(-1409.563 -389.578)" fill="#b64c41"/>
        <path id="Trazado_689368" data-name="Trazado 689368" d="M1933.28,1447a15.7,15.7,0,0,0,.738,6.681s.949,4.322-3.308,4.4-5.3-.321-4.819-2.971,1.4-7.234,1.4-7.234Z" transform="translate(-1460.347 -1097.28)" fill="#ffb27d"/>
        <path id="Trazado_689369" data-name="Trazado 689369" d="M1924.559,1480.818l.014.01h8.807l.014-.01c.481-2.26-.306-6.519-.306-6.519-4.82,4.608-7.837-.116-7.837-.116-.782,1.971-.692,6.634-.692,6.634" transform="translate(-1459.416 -1117.894)" fill="#163560"/>
        <path id="Trazado_689370" data-name="Trazado 689370" d="M1664.547,1441.319s7.848-8.912,10.257-13.344l5.836,2.99-13.044,12.25-3.052-.4Z" transform="translate(-1262.246 -1082.853)" fill="#ffb27d"/>
        <path id="Trazado_689371" data-name="Trazado 689371" d="M1644.642,1455.054h10.889a17.767,17.767,0,0,0,2.994-4.887,5.266,5.266,0,0,1,3.554-2.424v7.311h2.252l2.086-7.774c1.389-2.6.346-4.994-.631-7.052-1.137,0-4.435.819-10.232,7.48a7.54,7.54,0,0,1-6.1,2.9.519.519,0,0,1-.086.046c-3.3,1.514-4.378,3.375-4.728,4.4" transform="translate(-1247.154 -1092.144)" fill="#163560"/>
        <path id="Trazado_689372" data-name="Trazado 689372" d="M1642.192,648.551s9.3,5.2,12.615,6.7c1.181.532,3.32,1.528,5.506,2.549,1.32.616,2.656,1.243,3.811,1.787a4.79,4.79,0,0,0,5.677-1.225c5.033-5.877,18.059-18.614,31.51-20.211l.047-.02-.006.015.017,0-.074.145c-.756,1.88-8.13,20.3-8.359,24.191-.241,4.1-.964,66.981-.964,66.981s.482,2.891-5.06,1.686-6.987-2.409-6.987-2.409,5.3-38.791,3.855-52.284a30.007,30.007,0,0,1,.564-8.7,69.1,69.1,0,0,1-17.852,7.169,81.255,81.255,0,0,1-9.2-5.04,57.743,57.743,0,0,1-7.758-6.242c-3.241-2.971-8.818-10.149-8.818-10.149Z" transform="translate(-1244.176 -483.9)" fill="#e37970"/>
        <path id="Trazado_689373" data-name="Trazado 689373" d="M1737.683,1103.586l6.137.188s14.174-15.781,22.125-41.08q.278-.882.588-1.786c4.351-12.688,13.372-28.614,18.126-43.029.756-2.3,1.436-4.457,2.046-6.5.2-.655.386-1.3.566-1.932l-5.055-3.836s-15.176,24.576-19.875,47.7c-4.082,20.089-20.427,44.263-24.658,50.274" transform="translate(-1317.708 -762.567)" fill="#5f9aa8"/>
        <path id="Trazado_689374" data-name="Trazado 689374" d="M1909.173,1035c-.087,11.247.482,37.1,1.947,47.809h5.436c3,0,4.5-.043,4.5-.043,3.674-18.613,6.288-34.013,8.192-47.284,1.561-10.89,2.949-20.227,4.016-28.264,1.075-8.088,1.821-14.861,2.089-20.583q.062-1.352.089-2.629t.014-2.494l-29.659-2.891c.374,19.706,3.421,49.843,3.373,56.379" transform="translate(-1445.194 -742.103)" fill="#80bdcc"/>
        <path id="Trazado_689375" data-name="Trazado 689375" d="M1950.3,1107.955c3,0,4.5-.043,4.5-.043,3.674-18.612,6.288-34.013,8.192-47.284,1.561-10.89,2.949-20.227,4.016-28.264,1.075-8.088,1.821-14.861,2.089-20.583l-10.883,6.4s6.946,2.451,4.3,21-8.524,66.144-12.213,68.771" transform="translate(-1478.941 -767.246)" fill="#5f9aa8"/>
        <path id="Trazado_689376" data-name="Trazado 689376" d="M1912.706,729.57s2.089,7.549,9.317,6.585,17.507-5.3,17.507-5.3-3.089-9.76-6.929-22.583c-4.65-15.524-10.406-35.536-13.119-48.159a78.033,78.033,0,0,1-1.475-8.606l-6.121-11.64s-8.817,20.073-9.3,25.133,10.119,64.571,10.119,64.571" transform="translate(-1442.745 -485.219)" fill="#e37970"/>
        <path id="Trazado_689377" data-name="Trazado 689377" d="M1945.813,739.125c.323,8.192,2.25,24.094,19.436,32.606.046.022.092.046.137.065-4.65-15.524-10.406-35.536-13.119-48.158-3.156,4.717-6.631,10.977-6.455,15.487" transform="translate(-1475.531 -548.744)" fill="#c45446"/>
        <path id="Trazado_689378" data-name="Trazado 689378" d="M1654.807,687.953c1.181.532,3.32,1.528,5.506,2.549-1.169,2.077-2.632,5.85-3.021,12.087a50.462,50.462,0,0,1-7.99-6.435,105.952,105.952,0,0,1-8.587-9.956l1.477-4.941s9.3,5.2,12.615,6.7" transform="translate(-1244.176 -516.607)" fill="#ffb27d"/>
        <path id="Trazado_689379" data-name="Trazado 689379" d="M1553.344,600.439h0a.572.572,0,0,0,.187.788l3.412,2.1.6-.975-3.412-2.1a.573.573,0,0,0-.788.187" transform="translate(-1177.857 -455.115)" fill="#163560"/>
        <path id="Trazado_689380" data-name="Trazado 689380" d="M1876.383,838.839l-.671,1.089-4.122-2.541-3.193,5.181,3.864,2.381a10.29,10.29,0,0,1-11.159,2.185c-7.491-3.078-18.135-9.383-32.4-19.2a7.365,7.365,0,0,0-5.968-4.161l-.981-.693a1.472,1.472,0,1,0-1.7,2.4c18,12.755,31.063,20.728,39.933,24.373a13.225,13.225,0,0,0,14.844-3.328l.088.054a3.041,3.041,0,0,0,3.3-5.106l.675-1.1a1.472,1.472,0,1,0-2.507-1.545" transform="translate(-1379.695 -623.949)" fill="#163560"/>
        <path id="Trazado_689381" data-name="Trazado 689381" d="M1564.5,605.817a.9.9,0,0,0-.78,1.266c5.582,12.372,91.2,69.809,102.275,73.954q.792.3,1.544.53c9.854,3.07,17.331-9.062,10.16-16.485q-.548-.567-1.168-1.142c-8.68-8.03-98.471-58.7-112.031-58.123" transform="translate(-1185.734 -459.395)" fill="#415da5"/>
        <path id="Trazado_689382" data-name="Trazado 689382" d="M1580.742,615.072a884.279,884.279,0,0,1,79.505,39.775s-42.733-27.51-79.505-39.775" transform="translate(-1198.698 -466.417)" fill="#a0c0ef"/>
        <path id="Trazado_689383" data-name="Trazado 689383" d="M1820.29,772.178c3.479.457,5.629,1.055,6.059,3.548a10.588,10.588,0,0,0,1.515,3.616c3.465.186,11.718.635,18.651,1.074l.572,9.094a103.853,103.853,0,0,1-20.75-4.912,5.427,5.427,0,0,1-2.362-1.284c-4.991-4.088-8.147-7.78-8.156-8.76s.993-2.834,4.471-2.377" transform="translate(-1376.96 -585.499)" fill="#ffb27d"/>
        <path id="Trazado_689384" data-name="Trazado 689384" d="M1938.544,639.867s14.7,1.042,18.235,8.913,4.658,34.053.161,41.763c0,0-6.192,1.764-17.144-.284l-.4-.077s-3.494-8.554-.361-10.24c0,0,9.236.482,8.272-2.57s-8.758-37.5-8.758-37.5" transform="translate(-1469.403 -485.22)" fill="#e37970"/>
        <path id="Trazado_689385" data-name="Trazado 689385" d="M1625.046,671.306s-7.306-7.726-4.245-9.256,7.225,1.143,5.483,6.007,1.8,1.469-1.239,3.249" transform="translate(-1228.507 -501.714)" fill="#ffb27d"/>
        <path id="Trazado_689386" data-name="Trazado 689386" d="M609.939,1498.888H.722a.722.722,0,0,1,0-1.444H609.939a.722.722,0,1,1,0,1.444" transform="translate(0 -1135.531)" fill="#202f4e"/>
      </g>
    </g>
    <path id="Trazado_701886" data-name="Trazado 701886" d="M0,0H610.66V363.357H0Z" transform="translate(495 2537)" fill="none"/>
    <path id="Trazado_701872" data-name="Trazado 701872" d="M15,0H175a15,15,0,0,1,15,15V57.5a15,15,0,0,1-15,15H15a15,15,0,0,1-15-15V15A15,15,0,0,1,15,0Z" transform="translate(1125 2562.791)" fill="#112e4c"/>
    <path id="Trazado_701873" data-name="Trazado 701873" d="M40.963,11.211A4.025,4.025,0,0,1,39.607,14.1a4.76,4.76,0,0,1-3.223,1.055,4.281,4.281,0,0,1-3.441-1.473,6.038,6.038,0,0,1-1.254-4.043v-.7a6.819,6.819,0,0,1,.578-2.891A4.332,4.332,0,0,1,33.92,4.137a5.164,5.164,0,0,1,5.668.387,4.326,4.326,0,0,1,1.391,2.961H38.635a2.376,2.376,0,0,0-.613-1.6,2.271,2.271,0,0,0-1.605-.5,1.991,1.991,0,0,0-1.754.84,4.707,4.707,0,0,0-.6,2.605V9.7a5.038,5.038,0,0,0,.559,2.7,1.954,1.954,0,0,0,1.762.852,2.314,2.314,0,0,0,1.621-.5,2.241,2.241,0,0,0,.613-1.535ZM42,10.7a5.013,5.013,0,0,1,.484-2.242A3.546,3.546,0,0,1,43.881,6.93a4.069,4.069,0,0,1,2.113-.539,3.849,3.849,0,0,1,2.793,1.047,4.2,4.2,0,0,1,1.207,2.844l.016.578a4.418,4.418,0,0,1-1.086,3.121,4.209,4.209,0,0,1-5.832,0A4.5,4.5,0,0,1,42,10.8Zm2.258.16a3.16,3.16,0,0,0,.453,1.843,1.628,1.628,0,0,0,2.578.008,3.457,3.457,0,0,0,.461-2.015,3.128,3.128,0,0,0-.461-1.831,1.5,1.5,0,0,0-1.3-.649,1.474,1.474,0,0,0-1.281.646A3.516,3.516,0,0,0,44.26,10.856Zm9.219-4.309.07.977a2.951,2.951,0,0,1,2.43-1.133,2.453,2.453,0,0,1,2,.789,3.682,3.682,0,0,1,.672,2.359V15H56.393V9.581a1.47,1.47,0,0,0-.312-1.045,1.4,1.4,0,0,0-1.039-.325,1.553,1.553,0,0,0-1.43.814V15H51.354V6.547Zm9.586-2.078V6.547H64.51V8.2H63.064v4.219a1.007,1.007,0,0,0,.18.672.9.9,0,0,0,.688.2,3.6,3.6,0,0,0,.664-.055v1.711a4.648,4.648,0,0,1-1.367.2,2.156,2.156,0,0,1-2.422-2.4V8.2H59.572V6.547h1.234V4.469Zm7.453,4.2a6.134,6.134,0,0,0-.812-.062,1.654,1.654,0,0,0-1.68.867V15H65.768V6.547H67.9l.063,1.008a2.092,2.092,0,0,1,1.883-1.164,2.366,2.366,0,0,1,.7.1ZM76.268,15a2.507,2.507,0,0,1-.227-.758,2.732,2.732,0,0,1-2.133.914,3,3,0,0,1-2.059-.719,2.312,2.312,0,0,1-.816-1.812,2.389,2.389,0,0,1,1-2.062,4.915,4.915,0,0,1,2.879-.727h1.039V9.352a1.393,1.393,0,0,0-.3-.937,1.183,1.183,0,0,0-.949-.352,1.345,1.345,0,0,0-.895.273.929.929,0,0,0-.324.75H71.221a2.268,2.268,0,0,1,.453-1.359,3,3,0,0,1,1.281-.98,4.669,4.669,0,0,1,1.859-.355,3.689,3.689,0,0,1,2.48.785,2.747,2.747,0,0,1,.918,2.207v3.664a4.041,4.041,0,0,0,.336,1.82V15ZM74.4,13.43a1.945,1.945,0,0,0,.922-.223,1.462,1.462,0,0,0,.625-.6V11.156H75.1q-1.7,0-1.8,1.172l-.008.133a.9.9,0,0,0,.3.7A1.153,1.153,0,0,0,74.4,13.43Zm8.25-8.961V6.547H84.1V8.2H82.65v4.219a1.007,1.007,0,0,0,.18.672.9.9,0,0,0,.688.2,3.6,3.6,0,0,0,.664-.055v1.711a4.648,4.648,0,0,1-1.367.2,2.156,2.156,0,0,1-2.422-2.4V8.2H79.158V6.547h1.234V4.469ZM84.768,10.7a5.013,5.013,0,0,1,.484-2.242A3.546,3.546,0,0,1,86.646,6.93a4.069,4.069,0,0,1,2.113-.539,3.849,3.849,0,0,1,2.793,1.047,4.2,4.2,0,0,1,1.207,2.844l.016.578a4.418,4.418,0,0,1-1.086,3.121,4.209,4.209,0,0,1-5.832,0,4.5,4.5,0,0,1-1.09-3.187Zm2.258.16a3.16,3.16,0,0,0,.453,1.843,1.628,1.628,0,0,0,2.578.008,3.457,3.457,0,0,0,.461-2.015,3.128,3.128,0,0,0-.461-1.831,1.5,1.5,0,0,0-1.3-.649,1.474,1.474,0,0,0-1.281.646A3.516,3.516,0,0,0,87.025,10.856ZM97.8,10.711a5.094,5.094,0,0,1,.887-3.148,2.877,2.877,0,0,1,2.426-1.172,2.589,2.589,0,0,1,2.039.922V3h2.266V15h-2.039l-.109-.9a2.657,2.657,0,0,1-2.172,1.055A2.869,2.869,0,0,1,98.7,13.98,5.258,5.258,0,0,1,97.8,10.711Zm2.258.161a3.355,3.355,0,0,0,.414,1.829,1.348,1.348,0,0,0,1.2.636,1.51,1.51,0,0,0,1.477-.887V9.1a1.489,1.489,0,0,0-1.461-.887Q100.057,8.211,100.057,10.872Zm11,4.285a4.15,4.15,0,0,1-3.027-1.141,4.054,4.054,0,0,1-1.168-3.039v-.219a5.106,5.106,0,0,1,.492-2.277,3.612,3.612,0,0,1,1.395-1.547,3.914,3.914,0,0,1,2.059-.543,3.508,3.508,0,0,1,2.73,1.094,4.444,4.444,0,0,1,1,3.1v.922H109.15a2.1,2.1,0,0,0,.66,1.328,2,2,0,0,0,1.395.5,2.437,2.437,0,0,0,2.039-.945l1.109,1.242a3.389,3.389,0,0,1-1.375,1.121A4.511,4.511,0,0,1,111.057,15.156ZM110.8,8.211a1.411,1.411,0,0,0-1.09.455,2.357,2.357,0,0,0-.535,1.3h3.141V9.788a1.681,1.681,0,0,0-.406-1.165A1.456,1.456,0,0,0,110.8,8.211ZM36.916,39a2.507,2.507,0,0,1-.227-.758,2.732,2.732,0,0,1-2.133.914,3,3,0,0,1-2.059-.719,2.312,2.312,0,0,1-.816-1.812,2.389,2.389,0,0,1,1-2.062,4.915,4.915,0,0,1,2.879-.727H36.6v-.484a1.393,1.393,0,0,0-.3-.937,1.183,1.183,0,0,0-.949-.352,1.345,1.345,0,0,0-.895.273.929.929,0,0,0-.324.75H31.869a2.268,2.268,0,0,1,.453-1.359,3,3,0,0,1,1.281-.98,4.669,4.669,0,0,1,1.859-.355,3.689,3.689,0,0,1,2.48.785,2.747,2.747,0,0,1,.918,2.207v3.664a4.041,4.041,0,0,0,.336,1.82V39Zm-1.867-1.57a1.945,1.945,0,0,0,.922-.223,1.462,1.462,0,0,0,.625-.6V35.156h-.844q-1.7,0-1.8,1.172l-.008.133a.9.9,0,0,0,.3.7A1.153,1.153,0,0,0,35.049,37.43Zm13.156-2.578a5.07,5.07,0,0,1-.887,3.129,2.843,2.843,0,0,1-2.395,1.176,2.633,2.633,0,0,1-2.07-.891V42.25H40.6v-11.7h2.094l.078.828a2.654,2.654,0,0,1,2.141-.984,2.862,2.862,0,0,1,2.43,1.156,5.207,5.207,0,0,1,.867,3.188Zm-2.258-.172a3.345,3.345,0,0,0-.418-1.826,1.36,1.36,0,0,0-1.215-.643,1.478,1.478,0,0,0-1.461.815V36.5a1.5,1.5,0,0,0,1.477.839Q45.947,37.336,45.947,34.679Zm8.406-2.015a6.134,6.134,0,0,0-.812-.062,1.654,1.654,0,0,0-1.68.867V39H49.6V30.547h2.133l.063,1.008a2.092,2.092,0,0,1,1.883-1.164,2.366,2.366,0,0,1,.7.1Zm4.828,6.492a4.15,4.15,0,0,1-3.027-1.141,4.054,4.054,0,0,1-1.168-3.039v-.219a5.106,5.106,0,0,1,.492-2.277,3.612,3.612,0,0,1,1.395-1.547,3.914,3.914,0,0,1,2.059-.543,3.508,3.508,0,0,1,2.73,1.094,4.444,4.444,0,0,1,1,3.1v.922H57.275a2.1,2.1,0,0,0,.66,1.328,2,2,0,0,0,1.395.5,2.437,2.437,0,0,0,2.039-.945l1.109,1.242A3.389,3.389,0,0,1,61.1,38.754,4.511,4.511,0,0,1,59.182,39.156Zm-.258-6.945a1.411,1.411,0,0,0-1.09.455,2.357,2.357,0,0,0-.535,1.3h3.141v-.181a1.681,1.681,0,0,0-.406-1.165A1.456,1.456,0,0,0,58.924,32.211Zm7.094-1.664.07.977a2.951,2.951,0,0,1,2.43-1.133,2.453,2.453,0,0,1,2,.789,3.682,3.682,0,0,1,.672,2.359V39H68.932V33.581a1.47,1.47,0,0,0-.312-1.045,1.4,1.4,0,0,0-1.039-.325,1.553,1.553,0,0,0-1.43.814V39H63.893V30.547Zm6.531,4.164a5.094,5.094,0,0,1,.887-3.148,2.877,2.877,0,0,1,2.426-1.172,2.589,2.589,0,0,1,2.039.922V27h2.266V39H78.127l-.109-.9a2.657,2.657,0,0,1-2.172,1.055,2.869,2.869,0,0,1-2.395-1.176A5.258,5.258,0,0,1,72.549,34.711Zm2.258.161a3.355,3.355,0,0,0,.414,1.829,1.348,1.348,0,0,0,1.2.636,1.51,1.51,0,0,0,1.477-.887V33.1a1.489,1.489,0,0,0-1.461-.887Q74.807,32.211,74.807,34.872ZM84.3,39H82.033V30.547H84.3ZM81.9,28.359a1.112,1.112,0,0,1,.34-.836,1.465,1.465,0,0,1,1.848,0,1.193,1.193,0,0,1,0,1.68,1.448,1.448,0,0,1-1.836,0A1.108,1.108,0,0,1,81.9,28.359Zm6.852,8.82h4.133V39H85.869V37.625l3.977-5.258H85.986v-1.82H92.76v1.33ZM99.2,39a2.507,2.507,0,0,1-.227-.758,2.732,2.732,0,0,1-2.133.914,3,3,0,0,1-2.059-.719,2.312,2.312,0,0,1-.816-1.812,2.389,2.389,0,0,1,1-2.062,4.915,4.915,0,0,1,2.879-.727h1.039v-.484a1.393,1.393,0,0,0-.3-.937,1.183,1.183,0,0,0-.949-.352,1.345,1.345,0,0,0-.895.273.929.929,0,0,0-.324.75H94.15a2.268,2.268,0,0,1,.453-1.359,3,3,0,0,1,1.281-.98,4.669,4.669,0,0,1,1.859-.355,3.689,3.689,0,0,1,2.48.785,2.747,2.747,0,0,1,.918,2.207v3.664a4.041,4.041,0,0,0,.336,1.82V39ZM97.33,37.43a1.945,1.945,0,0,0,.922-.223,1.462,1.462,0,0,0,.625-.6V35.156h-.844q-1.7,0-1.8,1.172l-.008.133a.9.9,0,0,0,.3.7A1.153,1.153,0,0,0,97.33,37.43Zm7.938-6.883v8.914a3.024,3.024,0,0,1-.742,2.176,2.821,2.821,0,0,1-2.141.777,4.591,4.591,0,0,1-1.117-.133V40.492a4.238,4.238,0,0,0,.711.07q1.023,0,1.023-1.086v-8.93Zm-2.445-2.187a1.112,1.112,0,0,1,.34-.836,1.47,1.47,0,0,1,1.852,0,1.2,1.2,0,0,1-.008,1.68,1.448,1.448,0,0,1-1.836,0A1.108,1.108,0,0,1,102.822,28.359Zm8.1,10.8a4.15,4.15,0,0,1-3.027-1.141,4.054,4.054,0,0,1-1.168-3.039v-.219a5.106,5.106,0,0,1,.492-2.277,3.612,3.612,0,0,1,1.395-1.547,3.914,3.914,0,0,1,2.059-.543,3.508,3.508,0,0,1,2.73,1.094,4.444,4.444,0,0,1,1,3.1v.922h-5.383a2.1,2.1,0,0,0,.66,1.328,2,2,0,0,0,1.395.5,2.437,2.437,0,0,0,2.039-.945l1.109,1.242a3.389,3.389,0,0,1-1.375,1.121A4.511,4.511,0,0,1,110.924,39.156Zm-.258-6.945a1.411,1.411,0,0,0-1.09.455,2.357,2.357,0,0,0-.535,1.3h3.141v-.181a1.681,1.681,0,0,0-.406-1.165A1.456,1.456,0,0,0,110.666,32.211Z" transform="translate(1147 2572.791)" fill="#fff"/>
    <path id="Trazado_701880" data-name="Trazado 701880" d="M15,0H175a15,15,0,0,1,15,15V65.5a15,15,0,0,1-15,15H15a15,15,0,0,1-15-15V15A15,15,0,0,1,15,0Z" transform="translate(285 2562.791)" fill="#112e4c"/>
    <path id="Trazado_701881" data-name="Trazado 701881" d="M31.8,11.211A4.025,4.025,0,0,1,30.441,14.1a4.76,4.76,0,0,1-3.223,1.055,4.28,4.28,0,0,1-3.441-1.473,6.038,6.038,0,0,1-1.254-4.043v-.7A6.819,6.819,0,0,1,23.1,6.055a4.332,4.332,0,0,1,1.652-1.918,4.629,4.629,0,0,1,2.5-.668,4.637,4.637,0,0,1,3.172,1.055,4.326,4.326,0,0,1,1.391,2.961H29.469a2.376,2.376,0,0,0-.613-1.6,2.271,2.271,0,0,0-1.605-.5,1.991,1.991,0,0,0-1.754.84,4.707,4.707,0,0,0-.6,2.605V9.7a5.038,5.038,0,0,0,.559,2.7,1.954,1.954,0,0,0,1.762.852,2.314,2.314,0,0,0,1.621-.5,2.241,2.241,0,0,0,.613-1.535Zm1.039-.516a5.013,5.013,0,0,1,.484-2.242A3.546,3.546,0,0,1,34.715,6.93a4.069,4.069,0,0,1,2.113-.539,3.849,3.849,0,0,1,2.793,1.047,4.2,4.2,0,0,1,1.207,2.844l.016.578a4.418,4.418,0,0,1-1.086,3.121,4.209,4.209,0,0,1-5.832,0,4.5,4.5,0,0,1-1.09-3.187Zm2.258.16a3.16,3.16,0,0,0,.453,1.843,1.628,1.628,0,0,0,2.578.008,3.457,3.457,0,0,0,.461-2.015,3.128,3.128,0,0,0-.461-1.831,1.5,1.5,0,0,0-1.3-.649,1.474,1.474,0,0,0-1.281.646A3.516,3.516,0,0,0,35.094,10.856Zm9.219-4.309.07.977a2.951,2.951,0,0,1,2.43-1.133,2.453,2.453,0,0,1,2,.789,3.682,3.682,0,0,1,.672,2.359V15H47.227V9.581a1.47,1.47,0,0,0-.312-1.045,1.4,1.4,0,0,0-1.039-.325,1.553,1.553,0,0,0-1.43.814V15H42.188V6.547ZM53.9,4.469V6.547h1.445V8.2H53.9v4.219a1.007,1.007,0,0,0,.18.672.9.9,0,0,0,.688.2,3.6,3.6,0,0,0,.664-.055v1.711a4.648,4.648,0,0,1-1.367.2,2.156,2.156,0,0,1-2.422-2.4V8.2H50.406V6.547h1.234V4.469Zm7.453,4.2a6.134,6.134,0,0,0-.812-.062,1.654,1.654,0,0,0-1.68.867V15H56.6V6.547h2.133L58.8,7.555A2.092,2.092,0,0,1,60.68,6.391a2.366,2.366,0,0,1,.7.1ZM67.1,15a2.507,2.507,0,0,1-.227-.758,2.732,2.732,0,0,1-2.133.914,3,3,0,0,1-2.059-.719,2.312,2.312,0,0,1-.816-1.812,2.389,2.389,0,0,1,1-2.062,4.915,4.915,0,0,1,2.879-.727h1.039V9.352a1.393,1.393,0,0,0-.3-.937,1.183,1.183,0,0,0-.949-.352,1.345,1.345,0,0,0-.895.273.929.929,0,0,0-.324.75H62.055a2.268,2.268,0,0,1,.453-1.359,3,3,0,0,1,1.281-.98,4.669,4.669,0,0,1,1.859-.355,3.689,3.689,0,0,1,2.48.785,2.747,2.747,0,0,1,.918,2.207v3.664a4.041,4.041,0,0,0,.336,1.82V15Zm-1.867-1.57a1.945,1.945,0,0,0,.922-.223,1.462,1.462,0,0,0,.625-.6V11.156h-.844q-1.7,0-1.8,1.172l-.008.133a.9.9,0,0,0,.3.7A1.153,1.153,0,0,0,65.234,13.43Zm8.25-8.961V6.547H74.93V8.2H73.484v4.219a1.007,1.007,0,0,0,.18.672.9.9,0,0,0,.688.2,3.6,3.6,0,0,0,.664-.055v1.711a4.648,4.648,0,0,1-1.367.2,2.156,2.156,0,0,1-2.422-2.4V8.2H69.992V6.547h1.234V4.469ZM75.6,10.7a5.013,5.013,0,0,1,.484-2.242A3.546,3.546,0,0,1,77.48,6.93a4.069,4.069,0,0,1,2.113-.539,3.849,3.849,0,0,1,2.793,1.047,4.2,4.2,0,0,1,1.207,2.844l.016.578a4.418,4.418,0,0,1-1.086,3.121,4.209,4.209,0,0,1-5.832,0A4.5,4.5,0,0,1,75.6,10.8Zm2.258.16a3.16,3.16,0,0,0,.453,1.843,1.628,1.628,0,0,0,2.578.008,3.457,3.457,0,0,0,.461-2.015,3.128,3.128,0,0,0-.461-1.831,1.5,1.5,0,0,0-1.3-.649,1.474,1.474,0,0,0-1.281.646A3.516,3.516,0,0,0,77.859,10.856ZM92.5,13.336a1.481,1.481,0,0,0,1.016-.344,1.2,1.2,0,0,0,.406-.914h2.117a2.9,2.9,0,0,1-.469,1.574,3.093,3.093,0,0,1-1.262,1.109,3.949,3.949,0,0,1-1.77.395A3.67,3.67,0,0,1,89.68,14a4.56,4.56,0,0,1-1.047-3.184v-.148a4.508,4.508,0,0,1,1.039-3.117,3.627,3.627,0,0,1,2.852-1.164,3.555,3.555,0,0,1,2.543.9,3.2,3.2,0,0,1,.973,2.4H93.922a1.551,1.551,0,0,0-.406-1.072,1.51,1.51,0,0,0-2.223.163,3.333,3.333,0,0,0-.4,1.866v.235a3.375,3.375,0,0,0,.4,1.878A1.377,1.377,0,0,0,92.5,13.336ZM99.711,15H97.445V6.547h2.266Zm-2.4-10.641a1.112,1.112,0,0,1,.34-.836,1.465,1.465,0,0,1,1.848,0,1.105,1.105,0,0,1,.344.836A1.108,1.108,0,0,1,99.5,5.2a1.448,1.448,0,0,1-1.836,0A1.108,1.108,0,0,1,97.313,4.359Zm7.422,7.883,1.57-5.7h2.359L105.813,15h-2.156L100.8,6.547h2.359Zm7.3,2.758h-2.266V6.547h2.266Zm-2.4-10.641a1.112,1.112,0,0,1,.34-.836,1.465,1.465,0,0,1,1.848,0,1.105,1.105,0,0,1,.344.836,1.108,1.108,0,0,1-.348.844,1.448,1.448,0,0,1-1.836,0A1.108,1.108,0,0,1,109.641,4.359ZM116.281,15h-2.266V3h2.266Zm13.453-4.148a5.07,5.07,0,0,1-.887,3.129,2.843,2.843,0,0,1-2.395,1.176,2.633,2.633,0,0,1-2.07-.891V18.25h-2.258V6.547h2.094l.078.828a2.654,2.654,0,0,1,2.141-.984,2.862,2.862,0,0,1,2.43,1.156,5.207,5.207,0,0,1,.867,3.188Zm-2.258-.172a3.345,3.345,0,0,0-.418-1.826,1.36,1.36,0,0,0-1.215-.643,1.478,1.478,0,0,0-1.461.815V12.5a1.5,1.5,0,0,0,1.477.839Q127.477,13.336,127.477,10.679Zm3.3.016a5.013,5.013,0,0,1,.484-2.242A3.546,3.546,0,0,1,132.66,6.93a4.069,4.069,0,0,1,2.113-.539,3.849,3.849,0,0,1,2.793,1.047,4.2,4.2,0,0,1,1.207,2.844l.016.578A4.418,4.418,0,0,1,137.7,13.98a4.209,4.209,0,0,1-5.832,0,4.5,4.5,0,0,1-1.09-3.187Zm2.258.16a3.16,3.16,0,0,0,.453,1.843,1.628,1.628,0,0,0,2.578.008,3.457,3.457,0,0,0,.461-2.015,3.128,3.128,0,0,0-.461-1.831,1.5,1.5,0,0,0-1.3-.649,1.474,1.474,0,0,0-1.281.646A3.516,3.516,0,0,0,133.039,10.856ZM144.93,8.664a6.134,6.134,0,0,0-.812-.062,1.654,1.654,0,0,0-1.68.867V15H140.18V6.547h2.133l.063,1.008a2.092,2.092,0,0,1,1.883-1.164,2.366,2.366,0,0,1,.7.1ZM8.566,34.852A5.07,5.07,0,0,1,7.68,37.98a2.843,2.843,0,0,1-2.395,1.176,2.633,2.633,0,0,1-2.07-.891V42.25H.957v-11.7H3.051l.078.828a2.654,2.654,0,0,1,2.141-.984A2.862,2.862,0,0,1,7.7,31.547a5.207,5.207,0,0,1,.867,3.188Zm-2.258-.172a3.345,3.345,0,0,0-.418-1.826,1.36,1.36,0,0,0-1.215-.643,1.478,1.478,0,0,0-1.461.815V36.5a1.5,1.5,0,0,0,1.477.839Q6.309,37.336,6.309,34.679Zm8.406-2.015A6.134,6.134,0,0,0,13.9,32.6a1.654,1.654,0,0,0-1.68.867V39H9.965V30.547H12.1l.063,1.008a2.092,2.092,0,0,1,1.883-1.164,2.366,2.366,0,0,1,.7.1Zm4.828,6.492a4.15,4.15,0,0,1-3.027-1.141,4.054,4.054,0,0,1-1.168-3.039v-.219a5.106,5.106,0,0,1,.492-2.277,3.612,3.612,0,0,1,1.395-1.547,3.914,3.914,0,0,1,2.059-.543,3.508,3.508,0,0,1,2.73,1.094,4.444,4.444,0,0,1,1,3.1v.922H17.637a2.1,2.1,0,0,0,.66,1.328,2,2,0,0,0,1.395.5,2.437,2.437,0,0,0,2.039-.945l1.109,1.242a3.389,3.389,0,0,1-1.375,1.121A4.511,4.511,0,0,1,19.543,39.156Zm-.258-6.945a1.411,1.411,0,0,0-1.09.455,2.357,2.357,0,0,0-.535,1.3H20.8v-.181a1.681,1.681,0,0,0-.406-1.165A1.456,1.456,0,0,0,19.285,32.211Zm9.594,4.453a.727.727,0,0,0-.41-.652,4.659,4.659,0,0,0-1.316-.426q-3.016-.633-3.016-2.562a2.323,2.323,0,0,1,.934-1.879,3.766,3.766,0,0,1,2.441-.754,4.053,4.053,0,0,1,2.574.758,2.388,2.388,0,0,1,.965,1.969H28.793a1.092,1.092,0,0,0-.312-.8A1.322,1.322,0,0,0,27.5,32a1.351,1.351,0,0,0-.883.258.814.814,0,0,0-.312.656.7.7,0,0,0,.355.605,3.657,3.657,0,0,0,1.2.4,9.8,9.8,0,0,1,1.422.379,2.336,2.336,0,0,1,1.789,2.273,2.2,2.2,0,0,1-.992,1.871,4.28,4.28,0,0,1-2.562.715,4.47,4.47,0,0,1-1.887-.379,3.166,3.166,0,0,1-1.293-1.039,2.414,2.414,0,0,1-.469-1.426h2.141a1.179,1.179,0,0,0,.445.922,1.766,1.766,0,0,0,1.109.32,1.635,1.635,0,0,0,.98-.246A.766.766,0,0,0,28.879,36.664Zm6.352-8.2v2.078h1.445V32.2H35.23v4.219a1.007,1.007,0,0,0,.18.672.9.9,0,0,0,.688.2,3.6,3.6,0,0,0,.664-.055v1.711a4.648,4.648,0,0,1-1.367.2,2.156,2.156,0,0,1-2.422-2.4V32.2H31.738V30.547h1.234V28.469ZM42.832,39a2.507,2.507,0,0,1-.227-.758,2.732,2.732,0,0,1-2.133.914,3,3,0,0,1-2.059-.719,2.312,2.312,0,0,1-.816-1.812,2.389,2.389,0,0,1,1-2.062,4.915,4.915,0,0,1,2.879-.727h1.039v-.484a1.393,1.393,0,0,0-.3-.937,1.183,1.183,0,0,0-.949-.352,1.345,1.345,0,0,0-.895.273.929.929,0,0,0-.324.75H37.785a2.268,2.268,0,0,1,.453-1.359,3,3,0,0,1,1.281-.98,4.669,4.669,0,0,1,1.859-.355,3.689,3.689,0,0,1,2.48.785,2.747,2.747,0,0,1,.918,2.207v3.664a4.041,4.041,0,0,0,.336,1.82V39Zm-1.867-1.57a1.945,1.945,0,0,0,.922-.223,1.462,1.462,0,0,0,.625-.6V35.156h-.844q-1.7,0-1.8,1.172l-.008.133a.9.9,0,0,0,.3.7A1.153,1.153,0,0,0,40.965,37.43Zm9.063-.094a1.481,1.481,0,0,0,1.016-.344,1.2,1.2,0,0,0,.406-.914h2.117a2.9,2.9,0,0,1-.469,1.574,3.093,3.093,0,0,1-1.262,1.109,3.949,3.949,0,0,1-1.77.395A3.67,3.67,0,0,1,47.207,38,4.56,4.56,0,0,1,46.16,34.82v-.148A4.508,4.508,0,0,1,47.2,31.555a3.627,3.627,0,0,1,2.852-1.164,3.555,3.555,0,0,1,2.543.9,3.2,3.2,0,0,1,.973,2.4H51.449a1.551,1.551,0,0,0-.406-1.072,1.51,1.51,0,0,0-2.223.163,3.333,3.333,0,0,0-.4,1.866v.235a3.375,3.375,0,0,0,.4,1.878A1.377,1.377,0,0,0,50.027,37.336ZM57.238,39H54.973V30.547h2.266Zm-2.4-10.641a1.112,1.112,0,0,1,.34-.836,1.465,1.465,0,0,1,1.848,0,1.193,1.193,0,0,1,0,1.68,1.448,1.448,0,0,1-1.836,0A1.108,1.108,0,0,1,54.84,28.359ZM58.746,34.7a5.013,5.013,0,0,1,.484-2.242,3.546,3.546,0,0,1,1.395-1.523,4.069,4.069,0,0,1,2.113-.539,3.849,3.849,0,0,1,2.793,1.047,4.2,4.2,0,0,1,1.207,2.844l.016.578a4.418,4.418,0,0,1-1.086,3.121,4.209,4.209,0,0,1-5.832,0,4.5,4.5,0,0,1-1.09-3.187Zm2.258.16a3.16,3.16,0,0,0,.453,1.843,1.628,1.628,0,0,0,2.578.008,3.457,3.457,0,0,0,.461-2.015,3.128,3.128,0,0,0-.461-1.831,1.5,1.5,0,0,0-1.3-.649,1.474,1.474,0,0,0-1.281.646A3.516,3.516,0,0,0,61,34.856ZM63.184,27h2.461L63.48,29.422H61.645Zm7.039,3.547.07.977a2.951,2.951,0,0,1,2.43-1.133,2.453,2.453,0,0,1,2,.789,3.682,3.682,0,0,1,.672,2.359V39H73.137V33.581a1.47,1.47,0,0,0-.312-1.045,1.4,1.4,0,0,0-1.039-.325,1.553,1.553,0,0,0-1.43.814V39H68.1V30.547Zm10.516,4.164a5.094,5.094,0,0,1,.887-3.148,2.877,2.877,0,0,1,2.426-1.172,2.589,2.589,0,0,1,2.039.922V27h2.266V39H86.316l-.109-.9a2.657,2.657,0,0,1-2.172,1.055,2.869,2.869,0,0,1-2.395-1.176A5.258,5.258,0,0,1,80.738,34.711ZM83,34.872A3.355,3.355,0,0,0,83.41,36.7a1.348,1.348,0,0,0,1.2.636,1.51,1.51,0,0,0,1.477-.887V33.1a1.489,1.489,0,0,0-1.461-.887Q83,32.211,83,34.872Zm11,4.285a4.15,4.15,0,0,1-3.027-1.141A4.054,4.054,0,0,1,89.8,34.977v-.219a5.106,5.106,0,0,1,.492-2.277,3.612,3.612,0,0,1,1.395-1.547,3.914,3.914,0,0,1,2.059-.543,3.508,3.508,0,0,1,2.73,1.094,4.444,4.444,0,0,1,1,3.1v.922H92.09a2.1,2.1,0,0,0,.66,1.328,2,2,0,0,0,1.395.5,2.437,2.437,0,0,0,2.039-.945l1.109,1.242a3.389,3.389,0,0,1-1.375,1.121A4.511,4.511,0,0,1,94,39.156Zm-.258-6.945a1.411,1.411,0,0,0-1.09.455,2.357,2.357,0,0,0-.535,1.3h3.141v-.181a1.681,1.681,0,0,0-.406-1.165A1.456,1.456,0,0,0,93.738,32.211Zm13.578,4.453a.727.727,0,0,0-.41-.652,4.659,4.659,0,0,0-1.316-.426q-3.016-.633-3.016-2.562a2.323,2.323,0,0,1,.934-1.879,3.766,3.766,0,0,1,2.441-.754,4.053,4.053,0,0,1,2.574.758,2.388,2.388,0,0,1,.965,1.969H107.23a1.092,1.092,0,0,0-.312-.8,1.322,1.322,0,0,0-.977-.316,1.351,1.351,0,0,0-.883.258.814.814,0,0,0-.312.656.7.7,0,0,0,.355.605,3.657,3.657,0,0,0,1.2.4,9.8,9.8,0,0,1,1.422.379,2.336,2.336,0,0,1,1.789,2.273,2.2,2.2,0,0,1-.992,1.871,4.28,4.28,0,0,1-2.562.715,4.47,4.47,0,0,1-1.887-.379,3.166,3.166,0,0,1-1.293-1.039,2.414,2.414,0,0,1-.469-1.426h2.141a1.179,1.179,0,0,0,.445.922,1.766,1.766,0,0,0,1.109.32,1.635,1.635,0,0,0,.98-.246A.766.766,0,0,0,107.316,36.664Zm7.539,2.492a4.15,4.15,0,0,1-3.027-1.141,4.054,4.054,0,0,1-1.168-3.039v-.219a5.106,5.106,0,0,1,.492-2.277,3.612,3.612,0,0,1,1.395-1.547,3.914,3.914,0,0,1,2.059-.543,3.508,3.508,0,0,1,2.73,1.094,4.444,4.444,0,0,1,1,3.1v.922h-5.383a2.1,2.1,0,0,0,.66,1.328,2,2,0,0,0,1.395.5,2.437,2.437,0,0,0,2.039-.945l1.109,1.242a3.389,3.389,0,0,1-1.375,1.121A4.511,4.511,0,0,1,114.855,39.156Zm-.258-6.945a1.411,1.411,0,0,0-1.09.455,2.357,2.357,0,0,0-.535,1.3h3.141v-.181a1.681,1.681,0,0,0-.406-1.165A1.456,1.456,0,0,0,114.6,32.211Zm9.766.453a6.134,6.134,0,0,0-.812-.062,1.654,1.654,0,0,0-1.68.867V39h-2.258V30.547h2.133l.063,1.008a2.092,2.092,0,0,1,1.883-1.164,2.366,2.366,0,0,1,.7.1Zm4.391,3.578,1.57-5.7h2.359L129.832,39h-2.156l-2.852-8.453h2.359Zm7.3,2.758h-2.266V30.547h2.266Zm-2.4-10.641a1.112,1.112,0,0,1,.34-.836,1.465,1.465,0,0,1,1.848,0,1.193,1.193,0,0,1,0,1.68,1.448,1.448,0,0,1-1.836,0A1.109,1.109,0,0,1,133.66,28.359Zm7.773,8.977a1.481,1.481,0,0,0,1.016-.344,1.2,1.2,0,0,0,.406-.914h2.117a2.9,2.9,0,0,1-.469,1.574,3.093,3.093,0,0,1-1.262,1.109,3.949,3.949,0,0,1-1.77.395A3.67,3.67,0,0,1,138.613,38a4.56,4.56,0,0,1-1.047-3.184v-.148a4.508,4.508,0,0,1,1.039-3.117,3.627,3.627,0,0,1,2.852-1.164,3.555,3.555,0,0,1,2.543.9,3.2,3.2,0,0,1,.973,2.4h-2.117a1.551,1.551,0,0,0-.406-1.072,1.51,1.51,0,0,0-2.223.163,3.333,3.333,0,0,0-.4,1.866v.235a3.375,3.375,0,0,0,.4,1.878A1.377,1.377,0,0,0,141.434,37.336ZM148.645,39h-2.266V30.547h2.266Zm-2.4-10.641a1.112,1.112,0,0,1,.34-.836,1.465,1.465,0,0,1,1.848,0,1.193,1.193,0,0,1,0,1.68,1.448,1.448,0,0,1-1.836,0A1.109,1.109,0,0,1,146.246,28.359Zm3.906,6.336a5.013,5.013,0,0,1,.484-2.242,3.546,3.546,0,0,1,1.395-1.523,4.069,4.069,0,0,1,2.113-.539,3.849,3.849,0,0,1,2.793,1.047,4.2,4.2,0,0,1,1.207,2.844l.016.578a4.418,4.418,0,0,1-1.086,3.121,4.209,4.209,0,0,1-5.832,0,4.5,4.5,0,0,1-1.09-3.187Zm2.258.16a3.16,3.16,0,0,0,.453,1.843,1.628,1.628,0,0,0,2.578.008,3.457,3.457,0,0,0,.461-2.015,3.128,3.128,0,0,0-.461-1.831,1.5,1.5,0,0,0-1.3-.649,1.474,1.474,0,0,0-1.281.646A3.516,3.516,0,0,0,152.41,34.856Zm11.719,1.808a.727.727,0,0,0-.41-.652,4.659,4.659,0,0,0-1.316-.426q-3.016-.633-3.016-2.562a2.323,2.323,0,0,1,.934-1.879,3.766,3.766,0,0,1,2.441-.754,4.053,4.053,0,0,1,2.574.758,2.388,2.388,0,0,1,.965,1.969h-2.258a1.092,1.092,0,0,0-.312-.8,1.322,1.322,0,0,0-.977-.316,1.351,1.351,0,0,0-.883.258.814.814,0,0,0-.312.656.7.7,0,0,0,.355.605,3.657,3.657,0,0,0,1.2.4,9.8,9.8,0,0,1,1.422.379,2.336,2.336,0,0,1,1.789,2.273,2.205,2.205,0,0,1-.992,1.871,4.28,4.28,0,0,1-2.562.715,4.47,4.47,0,0,1-1.887-.379,3.166,3.166,0,0,1-1.293-1.039,2.414,2.414,0,0,1-.469-1.426h2.141a1.179,1.179,0,0,0,.445.922,1.766,1.766,0,0,0,1.109.32,1.635,1.635,0,0,0,.98-.246A.766.766,0,0,0,164.129,36.664Z" transform="translate(297 2572.791)" fill="#fff"/>
    <path id="Trazado_701874" data-name="Trazado 701874" d="M15,0H175a15,15,0,0,1,15,15V57.5a15,15,0,0,1-15,15H15a15,15,0,0,1-15-15V15A15,15,0,0,1,15,0Z" transform="translate(1125 2684.469)" fill="#112e4c"/>
    <path id="Trazado_701875" data-name="Trazado 701875" d="M16.572,11.211A4.025,4.025,0,0,1,15.217,14.1a4.76,4.76,0,0,1-3.223,1.055,4.28,4.28,0,0,1-3.441-1.473A6.038,6.038,0,0,1,7.3,9.641v-.7a6.819,6.819,0,0,1,.578-2.891A4.332,4.332,0,0,1,9.529,4.137a4.629,4.629,0,0,1,2.5-.668A4.637,4.637,0,0,1,15.2,4.523a4.326,4.326,0,0,1,1.391,2.961H14.244a2.376,2.376,0,0,0-.613-1.6,2.271,2.271,0,0,0-1.605-.5,1.991,1.991,0,0,0-1.754.84,4.707,4.707,0,0,0-.6,2.605V9.7a5.038,5.038,0,0,0,.559,2.7,1.954,1.954,0,0,0,1.762.852,2.314,2.314,0,0,0,1.621-.5,2.241,2.241,0,0,0,.613-1.535Zm1.039-.516A5.013,5.013,0,0,1,18.1,8.453,3.546,3.546,0,0,1,19.49,6.93,4.069,4.069,0,0,1,21.6,6.391,3.849,3.849,0,0,1,24.4,7.438,4.2,4.2,0,0,1,25.6,10.281l.016.578a4.418,4.418,0,0,1-1.086,3.121,3.775,3.775,0,0,1-2.914,1.176A3.793,3.793,0,0,1,18.7,13.984a4.5,4.5,0,0,1-1.09-3.187Zm2.258.16a3.16,3.16,0,0,0,.453,1.843,1.628,1.628,0,0,0,2.578.008,3.457,3.457,0,0,0,.461-2.015A3.128,3.128,0,0,0,22.9,8.86a1.5,1.5,0,0,0-1.3-.649,1.474,1.474,0,0,0-1.281.646A3.516,3.516,0,0,0,19.869,10.856Zm9.219-4.309.07.977a2.951,2.951,0,0,1,2.43-1.133,2.453,2.453,0,0,1,2,.789,3.682,3.682,0,0,1,.672,2.359V15H32V9.581a1.47,1.47,0,0,0-.312-1.045,1.4,1.4,0,0,0-1.039-.325,1.553,1.553,0,0,0-1.43.814V15H26.963V6.547Zm9.586-2.078V6.547h1.445V8.2H38.674v4.219a1.007,1.007,0,0,0,.18.672.9.9,0,0,0,.688.2,3.6,3.6,0,0,0,.664-.055v1.711a4.648,4.648,0,0,1-1.367.2,2.156,2.156,0,0,1-2.422-2.4V8.2H35.182V6.547h1.234V4.469Zm7.453,4.2a6.134,6.134,0,0,0-.812-.062,1.654,1.654,0,0,0-1.68.867V15H41.377V6.547H43.51l.063,1.008a2.092,2.092,0,0,1,1.883-1.164,2.366,2.366,0,0,1,.7.1ZM51.877,15a2.507,2.507,0,0,1-.227-.758,2.732,2.732,0,0,1-2.133.914,3,3,0,0,1-2.059-.719,2.312,2.312,0,0,1-.816-1.812,2.389,2.389,0,0,1,1-2.062,4.915,4.915,0,0,1,2.879-.727h1.039V9.352a1.393,1.393,0,0,0-.3-.937,1.183,1.183,0,0,0-.949-.352,1.345,1.345,0,0,0-.895.273.929.929,0,0,0-.324.75H46.83a2.268,2.268,0,0,1,.453-1.359,3,3,0,0,1,1.281-.98,4.669,4.669,0,0,1,1.859-.355,3.689,3.689,0,0,1,2.48.785,2.747,2.747,0,0,1,.918,2.207v3.664a4.041,4.041,0,0,0,.336,1.82V15ZM50.01,13.43a1.945,1.945,0,0,0,.922-.223,1.462,1.462,0,0,0,.625-.6V11.156h-.844q-1.7,0-1.8,1.172l-.008.133a.9.9,0,0,0,.3.7A1.153,1.153,0,0,0,50.01,13.43Zm8.25-8.961V6.547h1.445V8.2H58.26v4.219a1.007,1.007,0,0,0,.18.672.9.9,0,0,0,.688.2,3.6,3.6,0,0,0,.664-.055v1.711a4.648,4.648,0,0,1-1.367.2A2.156,2.156,0,0,1,56,12.758V8.2H54.768V6.547H56V4.469ZM60.377,10.7a5.013,5.013,0,0,1,.484-2.242A3.546,3.546,0,0,1,62.256,6.93a4.069,4.069,0,0,1,2.113-.539,3.849,3.849,0,0,1,2.793,1.047,4.2,4.2,0,0,1,1.207,2.844l.016.578A4.418,4.418,0,0,1,67.3,13.98a4.209,4.209,0,0,1-5.832,0,4.5,4.5,0,0,1-1.09-3.187Zm2.258.16a3.16,3.16,0,0,0,.453,1.843,1.628,1.628,0,0,0,2.578.008,3.457,3.457,0,0,0,.461-2.015,3.128,3.128,0,0,0-.461-1.831,1.5,1.5,0,0,0-1.3-.649,1.474,1.474,0,0,0-1.281.646A3.516,3.516,0,0,0,62.635,10.856Zm10.773-.145a5.094,5.094,0,0,1,.887-3.148,2.877,2.877,0,0,1,2.426-1.172,2.589,2.589,0,0,1,2.039.922V3h2.266V15H78.986l-.109-.9a2.657,2.657,0,0,1-2.172,1.055,2.869,2.869,0,0,1-2.395-1.176A5.258,5.258,0,0,1,73.408,10.711Zm2.258.161A3.355,3.355,0,0,0,76.08,12.7a1.348,1.348,0,0,0,1.2.636,1.51,1.51,0,0,0,1.477-.887V9.1A1.489,1.489,0,0,0,77.3,8.211Q75.666,8.211,75.666,10.872Zm11,4.285a4.15,4.15,0,0,1-3.027-1.141,4.054,4.054,0,0,1-1.168-3.039v-.219a5.106,5.106,0,0,1,.492-2.277,3.612,3.612,0,0,1,1.395-1.547,3.914,3.914,0,0,1,2.059-.543,3.508,3.508,0,0,1,2.73,1.094,4.444,4.444,0,0,1,1,3.1v.922H84.76a2.1,2.1,0,0,0,.66,1.328,2,2,0,0,0,1.395.5,2.437,2.437,0,0,0,2.039-.945l1.109,1.242a3.389,3.389,0,0,1-1.375,1.121A4.511,4.511,0,0,1,86.666,15.156Zm-.258-6.945a1.411,1.411,0,0,0-1.09.455,2.357,2.357,0,0,0-.535,1.3h3.141V9.788a1.681,1.681,0,0,0-.406-1.165A1.456,1.456,0,0,0,86.408,8.211ZM95.057,10.7a5.013,5.013,0,0,1,.484-2.242A3.546,3.546,0,0,1,96.936,6.93a4.069,4.069,0,0,1,2.113-.539,3.849,3.849,0,0,1,2.793,1.047,4.2,4.2,0,0,1,1.207,2.844l.016.578a4.418,4.418,0,0,1-1.086,3.121,4.209,4.209,0,0,1-5.832,0,4.5,4.5,0,0,1-1.09-3.187Zm2.258.16a3.16,3.16,0,0,0,.453,1.843,1.628,1.628,0,0,0,2.578.008,3.457,3.457,0,0,0,.461-2.015,3.128,3.128,0,0,0-.461-1.831,1.5,1.5,0,0,0-1.3-.649,1.474,1.474,0,0,0-1.281.646A3.516,3.516,0,0,0,97.314,10.856Zm14.758,0a5.119,5.119,0,0,1-.867,3.168,2.872,2.872,0,0,1-2.422,1.137,2.639,2.639,0,0,1-2.2-1.055l-.1.9h-2.031V3h2.258V7.3a2.571,2.571,0,0,1,2.055-.914,2.9,2.9,0,0,1,2.426,1.137,5.126,5.126,0,0,1,.879,3.2Zm-2.258-.172a3.381,3.381,0,0,0-.406-1.877,1.372,1.372,0,0,0-1.211-.592,1.489,1.489,0,0,0-1.484.885v3.346a1.509,1.509,0,0,0,1.5.893,1.4,1.4,0,0,0,1.438-1.081A5.6,5.6,0,0,0,109.814,10.679Zm8.4-2.015A6.134,6.134,0,0,0,117.4,8.6a1.654,1.654,0,0,0-1.68.867V15h-2.258V6.547H115.6l.063,1.008a2.092,2.092,0,0,1,1.883-1.164,2.366,2.366,0,0,1,.7.1ZM123.963,15a2.507,2.507,0,0,1-.227-.758,2.732,2.732,0,0,1-2.133.914,3,3,0,0,1-2.059-.719,2.312,2.312,0,0,1-.816-1.812,2.389,2.389,0,0,1,1-2.062,4.915,4.915,0,0,1,2.879-.727h1.039V9.352a1.393,1.393,0,0,0-.3-.937,1.183,1.183,0,0,0-.949-.352,1.345,1.345,0,0,0-.895.273.929.929,0,0,0-.324.75h-2.258a2.268,2.268,0,0,1,.453-1.359,3,3,0,0,1,1.281-.98,4.669,4.669,0,0,1,1.859-.355,3.689,3.689,0,0,1,2.48.785,2.747,2.747,0,0,1,.918,2.207v3.664a4.041,4.041,0,0,0,.336,1.82V15ZM122.1,13.43a1.945,1.945,0,0,0,.922-.223,1.462,1.462,0,0,0,.625-.6V11.156H122.8q-1.7,0-1.8,1.172l-.008.133a.9.9,0,0,0,.3.7A1.153,1.153,0,0,0,122.1,13.43ZM136.525,15a2.507,2.507,0,0,1-.227-.758,2.732,2.732,0,0,1-2.133.914,3,3,0,0,1-2.059-.719,2.312,2.312,0,0,1-.816-1.812,2.389,2.389,0,0,1,1-2.062,4.915,4.915,0,0,1,2.879-.727h1.039V9.352a1.393,1.393,0,0,0-.3-.937,1.183,1.183,0,0,0-.949-.352,1.345,1.345,0,0,0-.895.273.929.929,0,0,0-.324.75h-2.258a2.268,2.268,0,0,1,.453-1.359,3,3,0,0,1,1.281-.98,4.669,4.669,0,0,1,1.859-.355,3.689,3.689,0,0,1,2.48.785,2.747,2.747,0,0,1,.918,2.207v3.664a4.041,4.041,0,0,0,.336,1.82V15Zm-1.867-1.57a1.945,1.945,0,0,0,.922-.223,1.462,1.462,0,0,0,.625-.6V11.156h-.844q-1.7,0-1.8,1.172l-.008.133a.9.9,0,0,0,.3.7A1.153,1.153,0,0,0,134.658,13.43ZM57.877,39H55.611V27h2.266Zm6.758,0a2.507,2.507,0,0,1-.227-.758,2.732,2.732,0,0,1-2.133.914,3,3,0,0,1-2.059-.719,2.312,2.312,0,0,1-.816-1.812,2.389,2.389,0,0,1,1-2.062,4.915,4.915,0,0,1,2.879-.727h1.039v-.484a1.393,1.393,0,0,0-.3-.937,1.183,1.183,0,0,0-.949-.352,1.345,1.345,0,0,0-.895.273.929.929,0,0,0-.324.75H59.588a2.268,2.268,0,0,1,.453-1.359,3,3,0,0,1,1.281-.98,4.669,4.669,0,0,1,1.859-.355,3.689,3.689,0,0,1,2.48.785,2.747,2.747,0,0,1,.918,2.207v3.664a4.041,4.041,0,0,0,.336,1.82V39Zm-1.867-1.57a1.945,1.945,0,0,0,.922-.223,1.462,1.462,0,0,0,.625-.6V35.156h-.844q-1.7,0-1.8,1.172l-.008.133a.9.9,0,0,0,.3.7A1.153,1.153,0,0,0,62.768,37.43Zm13.164-2.578a5.119,5.119,0,0,1-.867,3.168,2.872,2.872,0,0,1-2.422,1.137,2.639,2.639,0,0,1-2.2-1.055l-.1.9H68.314V27h2.258v4.3a2.571,2.571,0,0,1,2.055-.914,2.9,2.9,0,0,1,2.426,1.137,5.126,5.126,0,0,1,.879,3.2Zm-2.258-.172a3.381,3.381,0,0,0-.406-1.877,1.372,1.372,0,0,0-1.211-.592,1.489,1.489,0,0,0-1.484.885v3.346a1.509,1.509,0,0,0,1.5.893,1.4,1.4,0,0,0,1.438-1.081A5.6,5.6,0,0,0,73.674,34.679Zm3.3.016a5.013,5.013,0,0,1,.484-2.242A3.546,3.546,0,0,1,78.85,30.93a4.069,4.069,0,0,1,2.113-.539,3.849,3.849,0,0,1,2.793,1.047,4.2,4.2,0,0,1,1.207,2.844l.016.578a4.418,4.418,0,0,1-1.086,3.121,4.209,4.209,0,0,1-5.832,0,4.5,4.5,0,0,1-1.09-3.187Zm2.258.16a3.16,3.16,0,0,0,.453,1.843,1.628,1.628,0,0,0,2.578.008,3.457,3.457,0,0,0,.461-2.015,3.128,3.128,0,0,0-.461-1.831,1.5,1.5,0,0,0-1.3-.649,1.474,1.474,0,0,0-1.281.646A3.516,3.516,0,0,0,79.229,34.856Zm11.891-2.192a6.134,6.134,0,0,0-.812-.062,1.654,1.654,0,0,0-1.68.867V39H86.369V30.547H88.5l.063,1.008a2.092,2.092,0,0,1,1.883-1.164,2.366,2.366,0,0,1,.7.1Z" transform="translate(1147 2694.469)" fill="#fff"/>
    <path id="Trazado_701882" data-name="Trazado 701882" d="M15,0H175a15,15,0,0,1,15,15V65.031a15,15,0,0,1-15,15H15a15,15,0,0,1-15-15V15A15,15,0,0,1,15,0Z" transform="translate(285 2684.469)" fill="#112e4c"/>
    <path id="Trazado_701883" data-name="Trazado 701883" d="M45.506,11.211A4.025,4.025,0,0,1,44.15,14.1a4.76,4.76,0,0,1-3.223,1.055,4.281,4.281,0,0,1-3.441-1.473,6.038,6.038,0,0,1-1.254-4.043v-.7a6.819,6.819,0,0,1,.578-2.891,4.332,4.332,0,0,1,1.652-1.918,5.164,5.164,0,0,1,5.668.387,4.326,4.326,0,0,1,1.391,2.961H43.178a2.376,2.376,0,0,0-.613-1.6,2.271,2.271,0,0,0-1.605-.5,1.991,1.991,0,0,0-1.754.84,4.707,4.707,0,0,0-.6,2.605V9.7a5.038,5.038,0,0,0,.559,2.7,1.954,1.954,0,0,0,1.762.852,2.314,2.314,0,0,0,1.621-.5,2.241,2.241,0,0,0,.613-1.535Zm1.039-.516a5.013,5.013,0,0,1,.484-2.242A3.546,3.546,0,0,1,48.424,6.93a4.069,4.069,0,0,1,2.113-.539A3.849,3.849,0,0,1,53.33,7.438a4.2,4.2,0,0,1,1.207,2.844l.016.578a4.418,4.418,0,0,1-1.086,3.121,4.209,4.209,0,0,1-5.832,0,4.5,4.5,0,0,1-1.09-3.187Zm2.258.16a3.16,3.16,0,0,0,.453,1.843,1.628,1.628,0,0,0,2.578.008,3.457,3.457,0,0,0,.461-2.015,3.128,3.128,0,0,0-.461-1.831,1.5,1.5,0,0,0-1.3-.649,1.474,1.474,0,0,0-1.281.646A3.516,3.516,0,0,0,48.8,10.856Zm9.219-4.309.07.977a2.951,2.951,0,0,1,2.43-1.133,2.453,2.453,0,0,1,2,.789,3.682,3.682,0,0,1,.672,2.359V15H60.936V9.581a1.47,1.47,0,0,0-.312-1.045,1.4,1.4,0,0,0-1.039-.325,1.553,1.553,0,0,0-1.43.814V15H55.9V6.547Zm9.586-2.078V6.547h1.445V8.2H67.607v4.219a1.007,1.007,0,0,0,.18.672.9.9,0,0,0,.688.2,3.6,3.6,0,0,0,.664-.055v1.711a4.648,4.648,0,0,1-1.367.2,2.156,2.156,0,0,1-2.422-2.4V8.2H64.115V6.547H65.35V4.469Zm7.453,4.2a6.134,6.134,0,0,0-.812-.062,1.654,1.654,0,0,0-1.68.867V15H70.311V6.547h2.133l.063,1.008a2.092,2.092,0,0,1,1.883-1.164,2.366,2.366,0,0,1,.7.1ZM80.811,15a2.507,2.507,0,0,1-.227-.758,2.732,2.732,0,0,1-2.133.914,3,3,0,0,1-2.059-.719,2.312,2.312,0,0,1-.816-1.812,2.389,2.389,0,0,1,1-2.062,4.915,4.915,0,0,1,2.879-.727H80.49V9.352a1.393,1.393,0,0,0-.3-.937,1.183,1.183,0,0,0-.949-.352,1.345,1.345,0,0,0-.895.273.929.929,0,0,0-.324.75H75.764a2.268,2.268,0,0,1,.453-1.359,3,3,0,0,1,1.281-.98,4.669,4.669,0,0,1,1.859-.355,3.689,3.689,0,0,1,2.48.785,2.747,2.747,0,0,1,.918,2.207v3.664a4.041,4.041,0,0,0,.336,1.82V15Zm-1.867-1.57a1.945,1.945,0,0,0,.922-.223,1.462,1.462,0,0,0,.625-.6V11.156h-.844q-1.7,0-1.8,1.172l-.008.133a.9.9,0,0,0,.3.7A1.153,1.153,0,0,0,78.943,13.43Zm8.25-8.961V6.547h1.445V8.2H87.193v4.219a1.007,1.007,0,0,0,.18.672.9.9,0,0,0,.688.2,3.6,3.6,0,0,0,.664-.055v1.711a4.648,4.648,0,0,1-1.367.2,2.156,2.156,0,0,1-2.422-2.4V8.2H83.7V6.547h1.234V4.469ZM89.311,10.7a5.013,5.013,0,0,1,.484-2.242A3.546,3.546,0,0,1,91.189,6.93,4.069,4.069,0,0,1,93.3,6.391,3.849,3.849,0,0,1,96.1,7.438,4.2,4.2,0,0,1,97.3,10.281l.016.578a4.418,4.418,0,0,1-1.086,3.121,4.209,4.209,0,0,1-5.832,0,4.5,4.5,0,0,1-1.09-3.187Zm2.258.16a3.16,3.16,0,0,0,.453,1.843,1.628,1.628,0,0,0,2.578.008,3.457,3.457,0,0,0,.461-2.015A3.128,3.128,0,0,0,94.6,8.86a1.5,1.5,0,0,0-1.3-.649,1.474,1.474,0,0,0-1.281.646A3.516,3.516,0,0,0,91.568,10.856ZM107.592,15a2.507,2.507,0,0,1-.227-.758,2.732,2.732,0,0,1-2.133.914,3,3,0,0,1-2.059-.719,2.312,2.312,0,0,1-.816-1.812,2.389,2.389,0,0,1,1-2.062,4.915,4.915,0,0,1,2.879-.727h1.039V9.352a1.393,1.393,0,0,0-.3-.937,1.183,1.183,0,0,0-.949-.352,1.345,1.345,0,0,0-.895.273.929.929,0,0,0-.324.75h-2.258A2.268,2.268,0,0,1,103,7.727a3,3,0,0,1,1.281-.98,4.669,4.669,0,0,1,1.859-.355,3.689,3.689,0,0,1,2.48.785,2.747,2.747,0,0,1,.918,2.207v3.664a4.041,4.041,0,0,0,.336,1.82V15Zm-1.867-1.57a1.945,1.945,0,0,0,.922-.223,1.462,1.462,0,0,0,.625-.6V11.156h-.844q-1.7,0-1.8,1.172l-.008.133a.9.9,0,0,0,.3.7A1.153,1.153,0,0,0,105.725,13.43ZM35.1,28.469v2.078h1.445V32.2H35.1v4.219a1.007,1.007,0,0,0,.18.672.9.9,0,0,0,.688.2,3.6,3.6,0,0,0,.664-.055v1.711a4.648,4.648,0,0,1-1.367.2,2.156,2.156,0,0,1-2.422-2.4V32.2H31.6V30.547h1.234V28.469Zm6.594,10.688a4.15,4.15,0,0,1-3.027-1.141,4.054,4.054,0,0,1-1.168-3.039v-.219a5.106,5.106,0,0,1,.492-2.277,3.612,3.612,0,0,1,1.395-1.547,3.914,3.914,0,0,1,2.059-.543,3.508,3.508,0,0,1,2.73,1.094,4.444,4.444,0,0,1,1,3.1v.922H39.783a2.1,2.1,0,0,0,.66,1.328,2,2,0,0,0,1.395.5,2.437,2.437,0,0,0,2.039-.945l1.109,1.242a3.389,3.389,0,0,1-1.375,1.121A4.511,4.511,0,0,1,41.689,39.156Zm-.258-6.945a1.411,1.411,0,0,0-1.09.455,2.357,2.357,0,0,0-.535,1.3h3.141v-.181a1.681,1.681,0,0,0-.406-1.165A1.456,1.456,0,0,0,41.432,32.211Zm.2-5.211H44.1l-2.164,2.422H40.1ZM51.2,32.664a6.134,6.134,0,0,0-.812-.062,1.654,1.654,0,0,0-1.68.867V39H46.447V30.547H48.58l.063,1.008a2.092,2.092,0,0,1,1.883-1.164,2.366,2.366,0,0,1,.7.1Zm3.2-2.117.07.945a2.971,2.971,0,0,1,2.43-1.1,2.255,2.255,0,0,1,2.242,1.289,2.9,2.9,0,0,1,2.539-1.289,2.521,2.521,0,0,1,2.047.8A3.681,3.681,0,0,1,64.4,33.6V39H62.135V33.6a1.616,1.616,0,0,0-.281-1.053,1.245,1.245,0,0,0-.992-.333,1.409,1.409,0,0,0-1.406.971L59.463,39H57.205V33.6a1.6,1.6,0,0,0-.289-1.065,1.257,1.257,0,0,0-.984-.329,1.463,1.463,0,0,0-1.391.8V39H52.283V30.547ZM68.518,39H66.252V30.547h2.266Zm-2.4-10.641a1.112,1.112,0,0,1,.34-.836,1.465,1.465,0,0,1,1.848,0,1.193,1.193,0,0,1,0,1.68,1.448,1.448,0,0,1-1.836,0A1.108,1.108,0,0,1,66.119,28.359Zm6.336,2.188.07.977a2.951,2.951,0,0,1,2.43-1.133,2.453,2.453,0,0,1,2,.789,3.682,3.682,0,0,1,.672,2.359V39H75.369V33.581a1.47,1.47,0,0,0-.312-1.045,1.4,1.4,0,0,0-1.039-.325,1.553,1.553,0,0,0-1.43.814V39H70.33V30.547ZM78.986,34.7a5.013,5.013,0,0,1,.484-2.242,3.546,3.546,0,0,1,1.395-1.523,4.069,4.069,0,0,1,2.113-.539,3.849,3.849,0,0,1,2.793,1.047,4.2,4.2,0,0,1,1.207,2.844l.016.578a4.418,4.418,0,0,1-1.086,3.121,4.209,4.209,0,0,1-5.832,0,4.5,4.5,0,0,1-1.09-3.187Zm2.258.16A3.16,3.16,0,0,0,81.7,36.7a1.628,1.628,0,0,0,2.578.008,3.457,3.457,0,0,0,.461-2.015,3.128,3.128,0,0,0-.461-1.831,1.5,1.5,0,0,0-1.3-.649,1.474,1.474,0,0,0-1.281.646A3.516,3.516,0,0,0,81.244,34.856ZM92.916,39V32.2H91.658V30.547h1.258v-.391A3.17,3.17,0,0,1,93.9,27.7a3.945,3.945,0,0,1,2.723-.863,9.031,9.031,0,0,1,2.563.461l-.328,1.867a10,10,0,0,0-1.187-.293,5.835,5.835,0,0,0-.906-.066q-1.578,0-1.578,1.4v.344h1.664V32.2H95.182V39Zm7.32,0H97.971V30.547h2.266Zm4.258-8.453v8.914a3.024,3.024,0,0,1-.742,2.176,2.821,2.821,0,0,1-2.141.777,4.591,4.591,0,0,1-1.117-.133V40.492a4.238,4.238,0,0,0,.711.07q1.023,0,1.023-1.086v-8.93Zm-2.445-2.187a1.112,1.112,0,0,1,.34-.836,1.47,1.47,0,0,1,1.852,0,1.2,1.2,0,0,1-.008,1.68,1.448,1.448,0,0,1-1.836,0A1.108,1.108,0,0,1,102.049,28.359Zm3.859,6.336a5.013,5.013,0,0,1,.484-2.242,3.546,3.546,0,0,1,1.395-1.523,4.069,4.069,0,0,1,2.113-.539,3.849,3.849,0,0,1,2.793,1.047,4.2,4.2,0,0,1,1.207,2.844l.016.578a4.418,4.418,0,0,1-1.086,3.121,4.209,4.209,0,0,1-5.832,0,4.5,4.5,0,0,1-1.09-3.187Zm2.258.16a3.16,3.16,0,0,0,.453,1.843,1.628,1.628,0,0,0,2.578.008,3.457,3.457,0,0,0,.461-2.015,3.128,3.128,0,0,0-.461-1.831,1.5,1.5,0,0,0-1.3-.649,1.474,1.474,0,0,0-1.281.646A3.516,3.516,0,0,0,108.166,34.856Z" transform="translate(307 2694.469)" fill="#fff"/>
    <path id="Trazado_701870" data-name="Trazado 701870" d="M15,0H175a15,15,0,0,1,15,15V57.5a15,15,0,0,1-15,15H15a15,15,0,0,1-15-15V15A15,15,0,0,1,15,0Z" transform="translate(1125 2804.469)" fill="#112e4c"/>
    <path id="Trazado_701871" data-name="Trazado 701871" d="M51.787,11.211A4.025,4.025,0,0,1,50.432,14.1a4.76,4.76,0,0,1-3.223,1.055,4.281,4.281,0,0,1-3.441-1.473,6.038,6.038,0,0,1-1.254-4.043v-.7a6.819,6.819,0,0,1,.578-2.891,4.332,4.332,0,0,1,1.652-1.918,5.164,5.164,0,0,1,5.668.387A4.326,4.326,0,0,1,51.8,7.484H49.459a2.376,2.376,0,0,0-.613-1.6,2.271,2.271,0,0,0-1.605-.5,1.991,1.991,0,0,0-1.754.84,4.707,4.707,0,0,0-.6,2.605V9.7a5.038,5.038,0,0,0,.559,2.7,1.954,1.954,0,0,0,1.762.852,2.314,2.314,0,0,0,1.621-.5,2.241,2.241,0,0,0,.613-1.535Zm1.039-.516a5.013,5.013,0,0,1,.484-2.242A3.546,3.546,0,0,1,54.705,6.93a4.069,4.069,0,0,1,2.113-.539,3.849,3.849,0,0,1,2.793,1.047,4.2,4.2,0,0,1,1.207,2.844l.016.578a4.418,4.418,0,0,1-1.086,3.121,4.209,4.209,0,0,1-5.832,0,4.5,4.5,0,0,1-1.09-3.187Zm2.258.16a3.16,3.16,0,0,0,.453,1.843,1.628,1.628,0,0,0,2.578.008,3.457,3.457,0,0,0,.461-2.015,3.128,3.128,0,0,0-.461-1.831,1.5,1.5,0,0,0-1.3-.649,1.474,1.474,0,0,0-1.281.646A3.516,3.516,0,0,0,55.084,10.856ZM64.3,6.547l.07.977A2.951,2.951,0,0,1,66.8,6.391a2.453,2.453,0,0,1,2,.789,3.682,3.682,0,0,1,.672,2.359V15H67.217V9.581A1.47,1.47,0,0,0,66.9,8.536a1.4,1.4,0,0,0-1.039-.325,1.553,1.553,0,0,0-1.43.814V15H62.178V6.547Zm9.586-2.078V6.547h1.445V8.2H73.889v4.219a1.007,1.007,0,0,0,.18.672.9.9,0,0,0,.688.2,3.6,3.6,0,0,0,.664-.055v1.711a4.648,4.648,0,0,1-1.367.2,2.156,2.156,0,0,1-2.422-2.4V8.2H70.4V6.547h1.234V4.469Zm7.453,4.2a6.134,6.134,0,0,0-.812-.062,1.654,1.654,0,0,0-1.68.867V15H76.592V6.547h2.133l.063,1.008A2.092,2.092,0,0,1,80.67,6.391a2.366,2.366,0,0,1,.7.1ZM87.092,15a2.507,2.507,0,0,1-.227-.758,2.732,2.732,0,0,1-2.133.914,3,3,0,0,1-2.059-.719,2.312,2.312,0,0,1-.816-1.812,2.389,2.389,0,0,1,1-2.062,4.915,4.915,0,0,1,2.879-.727h1.039V9.352a1.393,1.393,0,0,0-.3-.937,1.183,1.183,0,0,0-.949-.352,1.345,1.345,0,0,0-.895.273.929.929,0,0,0-.324.75H82.045A2.268,2.268,0,0,1,82.5,7.727a3,3,0,0,1,1.281-.98,4.669,4.669,0,0,1,1.859-.355,3.689,3.689,0,0,1,2.48.785,2.747,2.747,0,0,1,.918,2.207v3.664a4.041,4.041,0,0,0,.336,1.82V15Zm-1.867-1.57a1.945,1.945,0,0,0,.922-.223,1.462,1.462,0,0,0,.625-.6V11.156h-.844q-1.7,0-1.8,1.172l-.008.133a.9.9,0,0,0,.3.7A1.153,1.153,0,0,0,85.225,13.43Zm8.25-8.961V6.547H94.92V8.2H93.475v4.219a1.007,1.007,0,0,0,.18.672.9.9,0,0,0,.688.2,3.6,3.6,0,0,0,.664-.055v1.711a4.648,4.648,0,0,1-1.367.2,2.156,2.156,0,0,1-2.422-2.4V8.2H89.982V6.547h1.234V4.469ZM95.592,10.7a5.013,5.013,0,0,1,.484-2.242A3.546,3.546,0,0,1,97.471,6.93a4.069,4.069,0,0,1,2.113-.539,3.849,3.849,0,0,1,2.793,1.047,4.2,4.2,0,0,1,1.207,2.844l.016.578a4.418,4.418,0,0,1-1.086,3.121,4.209,4.209,0,0,1-5.832,0,4.5,4.5,0,0,1-1.09-3.187Zm2.258.16A3.16,3.16,0,0,0,98.3,12.7a1.628,1.628,0,0,0,2.578.008,3.457,3.457,0,0,0,.461-2.015,3.128,3.128,0,0,0-.461-1.831,1.5,1.5,0,0,0-1.3-.649,1.474,1.474,0,0,0-1.281.646A3.516,3.516,0,0,0,97.85,10.856ZM44.361,28.469v2.078h1.445V32.2H44.361v4.219a1.007,1.007,0,0,0,.18.672.9.9,0,0,0,.688.2,3.6,3.6,0,0,0,.664-.055v1.711a4.648,4.648,0,0,1-1.367.2,2.156,2.156,0,0,1-2.422-2.4V32.2H40.869V30.547H42.1V28.469Zm6.594,10.688a4.15,4.15,0,0,1-3.027-1.141,4.054,4.054,0,0,1-1.168-3.039v-.219a5.106,5.106,0,0,1,.492-2.277,3.612,3.612,0,0,1,1.395-1.547,3.914,3.914,0,0,1,2.059-.543,3.508,3.508,0,0,1,2.73,1.094,4.444,4.444,0,0,1,1,3.1v.922H49.049a2.1,2.1,0,0,0,.66,1.328,2,2,0,0,0,1.395.5,2.437,2.437,0,0,0,2.039-.945l1.109,1.242a3.389,3.389,0,0,1-1.375,1.121A4.511,4.511,0,0,1,50.955,39.156ZM50.7,32.211a1.411,1.411,0,0,0-1.09.455,2.357,2.357,0,0,0-.535,1.3h3.141v-.181a1.681,1.681,0,0,0-.406-1.165A1.456,1.456,0,0,0,50.7,32.211Zm7.133-1.664.07.945a2.971,2.971,0,0,1,2.43-1.1,2.255,2.255,0,0,1,2.242,1.289,2.9,2.9,0,0,1,2.539-1.289,2.521,2.521,0,0,1,2.047.8,3.681,3.681,0,0,1,.672,2.41V39H65.564V33.6a1.616,1.616,0,0,0-.281-1.053,1.245,1.245,0,0,0-.992-.333,1.409,1.409,0,0,0-1.406.971L62.893,39H60.635V33.6a1.6,1.6,0,0,0-.289-1.065,1.257,1.257,0,0,0-.984-.329,1.463,1.463,0,0,0-1.391.8V39H55.713V30.547Zm19.344,4.3a5.07,5.07,0,0,1-.887,3.129,2.843,2.843,0,0,1-2.395,1.176,2.633,2.633,0,0,1-2.07-.891V42.25H69.564v-11.7h2.094l.078.828a2.654,2.654,0,0,1,2.141-.984,2.862,2.862,0,0,1,2.43,1.156,5.207,5.207,0,0,1,.867,3.188Zm-2.258-.172a3.345,3.345,0,0,0-.418-1.826,1.36,1.36,0,0,0-1.215-.643,1.478,1.478,0,0,0-1.461.815V36.5a1.5,1.5,0,0,0,1.477.839Q74.916,37.336,74.916,34.679Zm3.3.016a5.013,5.013,0,0,1,.484-2.242A3.546,3.546,0,0,1,80.1,30.93a4.069,4.069,0,0,1,2.113-.539,3.849,3.849,0,0,1,2.793,1.047,4.2,4.2,0,0,1,1.207,2.844l.016.578a4.418,4.418,0,0,1-1.086,3.121,4.209,4.209,0,0,1-5.832,0,4.5,4.5,0,0,1-1.09-3.187Zm2.258.16a3.16,3.16,0,0,0,.453,1.843,1.628,1.628,0,0,0,2.578.008,3.457,3.457,0,0,0,.461-2.015,3.128,3.128,0,0,0-.461-1.831,1.5,1.5,0,0,0-1.3-.649,1.474,1.474,0,0,0-1.281.646A3.516,3.516,0,0,0,80.479,34.856Zm11.891-2.192a6.134,6.134,0,0,0-.812-.062,1.654,1.654,0,0,0-1.68.867V39H87.619V30.547h2.133l.063,1.008A2.092,2.092,0,0,1,91.7,30.391a2.366,2.366,0,0,1,.7.1ZM98.119,39a2.507,2.507,0,0,1-.227-.758,2.732,2.732,0,0,1-2.133.914,3,3,0,0,1-2.059-.719,2.312,2.312,0,0,1-.816-1.812,2.389,2.389,0,0,1,1-2.062,4.915,4.915,0,0,1,2.879-.727H97.8v-.484a1.393,1.393,0,0,0-.3-.937,1.183,1.183,0,0,0-.949-.352,1.345,1.345,0,0,0-.895.273.929.929,0,0,0-.324.75H93.072a2.268,2.268,0,0,1,.453-1.359,3,3,0,0,1,1.281-.98,4.669,4.669,0,0,1,1.859-.355,3.689,3.689,0,0,1,2.48.785,2.747,2.747,0,0,1,.918,2.207v3.664a4.041,4.041,0,0,0,.336,1.82V39Zm-1.867-1.57a1.945,1.945,0,0,0,.922-.223,1.462,1.462,0,0,0,.625-.6V35.156h-.844q-1.7,0-1.8,1.172l-.008.133a.9.9,0,0,0,.3.7A1.153,1.153,0,0,0,96.252,37.43Zm7.93,1.57h-2.266V27h2.266Z" transform="translate(1147 2814.469)" fill="#fff"/>
    <path id="Trazado_701884" data-name="Trazado 701884" d="M15,0H175a15,15,0,0,1,15,15V65.031a15,15,0,0,1-15,15H15a15,15,0,0,1-15-15V15A15,15,0,0,1,15,0Z" transform="translate(285 2804.469)" fill="#112e4c"/>
    <path id="Trazado_701885" data-name="Trazado 701885" d="M15.518,11.211A4.025,4.025,0,0,1,14.162,14.1a4.76,4.76,0,0,1-3.223,1.055A4.28,4.28,0,0,1,7.5,13.684,6.038,6.038,0,0,1,6.244,9.641v-.7a6.819,6.819,0,0,1,.578-2.891A4.332,4.332,0,0,1,8.475,4.137a4.629,4.629,0,0,1,2.5-.668,4.637,4.637,0,0,1,3.172,1.055,4.326,4.326,0,0,1,1.391,2.961H13.189a2.376,2.376,0,0,0-.613-1.6,2.271,2.271,0,0,0-1.605-.5,1.991,1.991,0,0,0-1.754.84,4.707,4.707,0,0,0-.6,2.605V9.7a5.038,5.038,0,0,0,.559,2.7,1.954,1.954,0,0,0,1.762.852,2.314,2.314,0,0,0,1.621-.5,2.241,2.241,0,0,0,.613-1.535Zm1.039-.516a5.013,5.013,0,0,1,.484-2.242A3.546,3.546,0,0,1,18.436,6.93a4.069,4.069,0,0,1,2.113-.539,3.849,3.849,0,0,1,2.793,1.047,4.2,4.2,0,0,1,1.207,2.844l.016.578a4.418,4.418,0,0,1-1.086,3.121,3.775,3.775,0,0,1-2.914,1.176,3.793,3.793,0,0,1-2.918-1.172,4.5,4.5,0,0,1-1.09-3.187Zm2.258.16a3.16,3.16,0,0,0,.453,1.843,1.628,1.628,0,0,0,2.578.008,3.457,3.457,0,0,0,.461-2.015,3.128,3.128,0,0,0-.461-1.831,1.5,1.5,0,0,0-1.3-.649,1.474,1.474,0,0,0-1.281.646A3.516,3.516,0,0,0,18.814,10.856Zm9.219-4.309.07.977a2.951,2.951,0,0,1,2.43-1.133,2.453,2.453,0,0,1,2,.789,3.682,3.682,0,0,1,.672,2.359V15H30.947V9.581a1.47,1.47,0,0,0-.312-1.045A1.4,1.4,0,0,0,29.6,8.211a1.553,1.553,0,0,0-1.43.814V15H25.908V6.547Zm9.586-2.078V6.547h1.445V8.2H37.619v4.219a1.007,1.007,0,0,0,.18.672.9.9,0,0,0,.688.2,3.6,3.6,0,0,0,.664-.055v1.711a4.648,4.648,0,0,1-1.367.2,2.156,2.156,0,0,1-2.422-2.4V8.2H34.127V6.547h1.234V4.469Zm7.453,4.2A6.134,6.134,0,0,0,44.26,8.6a1.654,1.654,0,0,0-1.68.867V15H40.322V6.547h2.133l.063,1.008A2.092,2.092,0,0,1,44.4,6.391a2.366,2.366,0,0,1,.7.1ZM50.822,15a2.507,2.507,0,0,1-.227-.758,2.732,2.732,0,0,1-2.133.914,3,3,0,0,1-2.059-.719,2.312,2.312,0,0,1-.816-1.812,2.389,2.389,0,0,1,1-2.062,4.915,4.915,0,0,1,2.879-.727H50.5V9.352a1.393,1.393,0,0,0-.3-.937,1.183,1.183,0,0,0-.949-.352,1.345,1.345,0,0,0-.895.273.929.929,0,0,0-.324.75H45.775a2.268,2.268,0,0,1,.453-1.359,3,3,0,0,1,1.281-.98,4.669,4.669,0,0,1,1.859-.355,3.689,3.689,0,0,1,2.48.785,2.747,2.747,0,0,1,.918,2.207v3.664a4.041,4.041,0,0,0,.336,1.82V15Zm-1.867-1.57a1.945,1.945,0,0,0,.922-.223,1.462,1.462,0,0,0,.625-.6V11.156h-.844q-1.7,0-1.8,1.172l-.008.133a.9.9,0,0,0,.3.7A1.153,1.153,0,0,0,48.955,13.43Zm8.25-8.961V6.547H58.65V8.2H57.205v4.219a1.007,1.007,0,0,0,.18.672.9.9,0,0,0,.688.2,3.6,3.6,0,0,0,.664-.055v1.711a4.648,4.648,0,0,1-1.367.2,2.156,2.156,0,0,1-2.422-2.4V8.2H53.713V6.547h1.234V4.469ZM59.322,10.7a5.013,5.013,0,0,1,.484-2.242A3.546,3.546,0,0,1,61.2,6.93a4.069,4.069,0,0,1,2.113-.539,3.849,3.849,0,0,1,2.793,1.047,4.2,4.2,0,0,1,1.207,2.844l.016.578a4.418,4.418,0,0,1-1.086,3.121,4.209,4.209,0,0,1-5.832,0,4.5,4.5,0,0,1-1.09-3.187Zm2.258.16a3.16,3.16,0,0,0,.453,1.843,1.628,1.628,0,0,0,2.578.008,3.457,3.457,0,0,0,.461-2.015,3.128,3.128,0,0,0-.461-1.831,1.5,1.5,0,0,0-1.3-.649,1.474,1.474,0,0,0-1.281.646A3.516,3.516,0,0,0,61.58,10.856ZM77.6,15a2.507,2.507,0,0,1-.227-.758,2.732,2.732,0,0,1-2.133.914,3,3,0,0,1-2.059-.719,2.312,2.312,0,0,1-.816-1.812,2.389,2.389,0,0,1,1-2.062,4.915,4.915,0,0,1,2.879-.727h1.039V9.352a1.393,1.393,0,0,0-.3-.937,1.183,1.183,0,0,0-.949-.352,1.345,1.345,0,0,0-.895.273.929.929,0,0,0-.324.75H72.557a2.268,2.268,0,0,1,.453-1.359,3,3,0,0,1,1.281-.98,4.669,4.669,0,0,1,1.859-.355,3.689,3.689,0,0,1,2.48.785,2.747,2.747,0,0,1,.918,2.207v3.664a4.041,4.041,0,0,0,.336,1.82V15Zm-1.867-1.57a1.945,1.945,0,0,0,.922-.223,1.462,1.462,0,0,0,.625-.6V11.156h-.844q-1.7,0-1.8,1.172l-.008.133a.9.9,0,0,0,.3.7A1.153,1.153,0,0,0,75.736,13.43ZM87.971,4.469V6.547h1.445V8.2H87.971v4.219a1.007,1.007,0,0,0,.18.672.9.9,0,0,0,.688.2,3.6,3.6,0,0,0,.664-.055v1.711a4.648,4.648,0,0,1-1.367.2,2.156,2.156,0,0,1-2.422-2.4V8.2H84.479V6.547h1.234V4.469Zm6.594,10.688a4.15,4.15,0,0,1-3.027-1.141,4.054,4.054,0,0,1-1.168-3.039v-.219a5.106,5.106,0,0,1,.492-2.277,3.612,3.612,0,0,1,1.395-1.547,3.914,3.914,0,0,1,2.059-.543,3.508,3.508,0,0,1,2.73,1.094,4.444,4.444,0,0,1,1,3.1v.922H92.658a2.1,2.1,0,0,0,.66,1.328,2,2,0,0,0,1.395.5,2.437,2.437,0,0,0,2.039-.945l1.109,1.242a3.389,3.389,0,0,1-1.375,1.121A4.511,4.511,0,0,1,94.564,15.156Zm-.258-6.945a1.411,1.411,0,0,0-1.09.455,2.357,2.357,0,0,0-.535,1.3h3.141V9.788a1.681,1.681,0,0,0-.406-1.165A1.456,1.456,0,0,0,94.307,8.211ZM94.51,3h2.461L94.807,5.422H92.971Zm9.563,5.664a6.134,6.134,0,0,0-.812-.062,1.654,1.654,0,0,0-1.68.867V15H99.322V6.547h2.133l.063,1.008A2.092,2.092,0,0,1,103.4,6.391a2.366,2.366,0,0,1,.7.1Zm3.2-2.117.07.945a2.971,2.971,0,0,1,2.43-1.1,2.255,2.255,0,0,1,2.242,1.289,2.9,2.9,0,0,1,2.539-1.289,2.521,2.521,0,0,1,2.047.8,3.681,3.681,0,0,1,.672,2.41V15H115.01V9.6a1.616,1.616,0,0,0-.281-1.053,1.245,1.245,0,0,0-.992-.333,1.409,1.409,0,0,0-1.406.971L112.338,15H110.08V9.6a1.6,1.6,0,0,0-.289-1.065,1.257,1.257,0,0,0-.984-.329,1.463,1.463,0,0,0-1.391.8V15h-2.258V6.547ZM121.393,15h-2.266V6.547h2.266Zm-2.4-10.641a1.112,1.112,0,0,1,.34-.836,1.465,1.465,0,0,1,1.848,0,1.105,1.105,0,0,1,.344.836,1.108,1.108,0,0,1-.348.844,1.448,1.448,0,0,1-1.836,0A1.108,1.108,0,0,1,118.994,4.359Zm6.336,2.188.07.977a2.951,2.951,0,0,1,2.43-1.133,2.453,2.453,0,0,1,2,.789,3.682,3.682,0,0,1,.672,2.359V15h-2.258V9.581a1.47,1.47,0,0,0-.312-1.045,1.4,1.4,0,0,0-1.039-.325,1.553,1.553,0,0,0-1.43.814V15h-2.258V6.547Zm6.531,4.148a5.013,5.013,0,0,1,.484-2.242A3.546,3.546,0,0,1,133.74,6.93a4.069,4.069,0,0,1,2.113-.539,3.849,3.849,0,0,1,2.793,1.047,4.2,4.2,0,0,1,1.207,2.844l.016.578a4.418,4.418,0,0,1-1.086,3.121,4.209,4.209,0,0,1-5.832,0,4.5,4.5,0,0,1-1.09-3.187Zm2.258.16a3.16,3.16,0,0,0,.453,1.843,1.628,1.628,0,0,0,2.578.008,3.457,3.457,0,0,0,.461-2.015,3.128,3.128,0,0,0-.461-1.831,1.5,1.5,0,0,0-1.3-.649,1.474,1.474,0,0,0-1.281.646A3.516,3.516,0,0,0,134.119,10.856ZM40.3,39H38.033V30.547H40.3ZM37.9,28.359a1.112,1.112,0,0,1,.34-.836,1.465,1.465,0,0,1,1.848,0,1.193,1.193,0,0,1,0,1.68,1.448,1.448,0,0,1-1.836,0A1.108,1.108,0,0,1,37.9,28.359Zm6.336,2.188.07.977a2.951,2.951,0,0,1,2.43-1.133,2.453,2.453,0,0,1,2,.789,3.682,3.682,0,0,1,.672,2.359V39H47.15V33.581a1.47,1.47,0,0,0-.312-1.045,1.4,1.4,0,0,0-1.039-.325,1.553,1.553,0,0,0-1.43.814V39H42.111V30.547Zm6.531,4.164a5.094,5.094,0,0,1,.887-3.148,2.877,2.877,0,0,1,2.426-1.172,2.589,2.589,0,0,1,2.039.922V27h2.266V39H56.346l-.109-.9a2.657,2.657,0,0,1-2.172,1.055A2.869,2.869,0,0,1,51.67,37.98,5.258,5.258,0,0,1,50.768,34.711Zm2.258.161a3.355,3.355,0,0,0,.414,1.829,1.348,1.348,0,0,0,1.2.636,1.51,1.51,0,0,0,1.477-.887V33.1a1.489,1.489,0,0,0-1.461-.887Q53.025,32.211,53.025,34.872Zm11,4.285A4.15,4.15,0,0,1,61,38.016a4.054,4.054,0,0,1-1.168-3.039v-.219a5.106,5.106,0,0,1,.492-2.277,3.612,3.612,0,0,1,1.395-1.547,3.914,3.914,0,0,1,2.059-.543,3.508,3.508,0,0,1,2.73,1.094,4.444,4.444,0,0,1,1,3.1v.922H62.119a2.1,2.1,0,0,0,.66,1.328,2,2,0,0,0,1.395.5,2.437,2.437,0,0,0,2.039-.945l1.109,1.242a3.389,3.389,0,0,1-1.375,1.121A4.511,4.511,0,0,1,64.025,39.156Zm-.258-6.945a1.411,1.411,0,0,0-1.09.455,2.357,2.357,0,0,0-.535,1.3h3.141v-.181a1.681,1.681,0,0,0-.406-1.165A1.456,1.456,0,0,0,63.768,32.211ZM69.33,39V32.2H68.072V30.547H69.33v-.391a3.17,3.17,0,0,1,.98-2.457,3.945,3.945,0,0,1,2.723-.863A9.031,9.031,0,0,1,75.6,27.3l-.328,1.867a10,10,0,0,0-1.187-.293,5.835,5.835,0,0,0-.906-.066q-1.578,0-1.578,1.4v.344H73.26V32.2H71.6V39Zm7.32,0H74.385V30.547H76.65ZM80.6,30.547l.07.977a2.951,2.951,0,0,1,2.43-1.133,2.453,2.453,0,0,1,2,.789,3.682,3.682,0,0,1,.672,2.359V39H83.51V33.581a1.47,1.47,0,0,0-.312-1.045,1.4,1.4,0,0,0-1.039-.325,1.553,1.553,0,0,0-1.43.814V39H78.471V30.547ZM89.861,39H87.6V30.547h2.266Zm-2.4-10.641a1.112,1.112,0,0,1,.34-.836,1.465,1.465,0,0,1,1.848,0,1.193,1.193,0,0,1,0,1.68,1.448,1.448,0,0,1-1.836,0A1.108,1.108,0,0,1,87.463,28.359Zm3.906,6.352a5.094,5.094,0,0,1,.887-3.148,2.877,2.877,0,0,1,2.426-1.172,2.589,2.589,0,0,1,2.039.922V27h2.266V39H96.947l-.109-.9a2.657,2.657,0,0,1-2.172,1.055,2.869,2.869,0,0,1-2.395-1.176A5.258,5.258,0,0,1,91.369,34.711Zm2.258.161a3.355,3.355,0,0,0,.414,1.829,1.348,1.348,0,0,0,1.2.636,1.51,1.51,0,0,0,1.477-.887V33.1a1.489,1.489,0,0,0-1.461-.887Q93.627,32.211,93.627,34.872Zm6.758-.176a5.013,5.013,0,0,1,.484-2.242,3.546,3.546,0,0,1,1.395-1.523,4.069,4.069,0,0,1,2.113-.539,3.849,3.849,0,0,1,2.793,1.047,4.2,4.2,0,0,1,1.207,2.844l.016.578a4.418,4.418,0,0,1-1.086,3.121,4.209,4.209,0,0,1-5.832,0,4.5,4.5,0,0,1-1.09-3.187Zm2.258.16A3.16,3.16,0,0,0,103.1,36.7a1.628,1.628,0,0,0,2.578.008,3.457,3.457,0,0,0,.461-2.015,3.128,3.128,0,0,0-.461-1.831,1.5,1.5,0,0,0-1.3-.649,1.474,1.474,0,0,0-1.281.646A3.516,3.516,0,0,0,102.643,34.856Z" transform="translate(307 2814.469)" fill="#fff"/>
    <g transform="matrix(1, 0, 0, 1, 285, 2435)" filter="url(#Trazado_701887)">
      <path id="Trazado_701887-2" data-name="Trazado 701887" d="M-595,12786h34l-17,21Zm-159.5,0a22.5,22.5,0,0,1-22.5-22.5,22.5,22.5,0,0,1,22.5-22.5h353a22.5,22.5,0,0,1,22.5,22.5,22.5,22.5,0,0,1-22.5,22.5Z" transform="translate(1093 -12735)" fill="#112e4c"/>
    </g>
    <path id="Trazado_701879" data-name="Trazado 701879" d="M-64.846-10.661h-3.92V0H-71.4V-10.661H-75.27V-12.8h10.424ZM-60.829,0h-2.549V-9.51h2.549Zm-2.7-11.971a1.251,1.251,0,0,1,.382-.94A1.436,1.436,0,0,1-62.1-13.28a1.44,1.44,0,0,1,1.037.369,1.244,1.244,0,0,1,.387.94,1.247,1.247,0,0,1-.391.949,1.443,1.443,0,0,1-1.033.369,1.443,1.443,0,0,1-1.033-.369A1.247,1.247,0,0,1-63.527-11.971Zm13.351,7.3a5.7,5.7,0,0,1-1,3.52A3.2,3.2,0,0,1-53.868.176a2.963,2.963,0,0,1-2.329-1V3.656h-2.54V-9.51h2.355l.088.932a2.985,2.985,0,0,1,2.408-1.107,3.22,3.22,0,0,1,2.733,1.3A5.858,5.858,0,0,1-50.177-4.8Zm-2.54-.194a3.763,3.763,0,0,0-.47-2.054,1.53,1.53,0,0,0-1.367-.723,1.662,1.662,0,0,0-1.644.917v3.906a1.691,1.691,0,0,0,1.661.943Q-52.717-1.872-52.717-4.861ZM-49-4.843a5.64,5.64,0,0,1,.545-2.522,3.989,3.989,0,0,1,1.569-1.714,4.577,4.577,0,0,1,2.377-.606,4.33,4.33,0,0,1,3.142,1.178,4.727,4.727,0,0,1,1.358,3.2l.018.65a4.97,4.97,0,0,1-1.222,3.511A4.247,4.247,0,0,1-44.49.176a4.268,4.268,0,0,1-3.283-1.318A5.058,5.058,0,0,1-49-4.729Zm2.54.18a3.555,3.555,0,0,0,.51,2.073,1.682,1.682,0,0,0,1.459.717,1.686,1.686,0,0,0,1.441-.709,3.89,3.89,0,0,0,.519-2.267,3.519,3.519,0,0,0-.519-2.06,1.686,1.686,0,0,0-1.459-.731,1.658,1.658,0,0,0-1.441.726A3.955,3.955,0,0,0-46.459-4.662Zm13.184,2.035a.818.818,0,0,0-.461-.734,5.241,5.241,0,0,0-1.481-.479q-3.393-.712-3.393-2.883a2.613,2.613,0,0,1,1.05-2.114,4.237,4.237,0,0,1,2.747-.848,4.56,4.56,0,0,1,2.9.853,2.687,2.687,0,0,1,1.085,2.215h-2.54a1.229,1.229,0,0,0-.352-.9,1.488,1.488,0,0,0-1.1-.356,1.52,1.52,0,0,0-.993.29.916.916,0,0,0-.352.738.783.783,0,0,0,.4.681,4.114,4.114,0,0,0,1.349.448,11.019,11.019,0,0,1,1.6.426,2.628,2.628,0,0,1,2.013,2.558,2.481,2.481,0,0,1-1.116,2.1,4.815,4.815,0,0,1-2.883.8A5.029,5.029,0,0,1-36.927-.25a3.561,3.561,0,0,1-1.455-1.169,2.716,2.716,0,0,1-.527-1.6H-36.5A1.326,1.326,0,0,0-36-1.986a1.987,1.987,0,0,0,1.248.36,1.839,1.839,0,0,0,1.1-.277A.861.861,0,0,0-33.275-2.628Zm8.191-2.2a5.731,5.731,0,0,1,1-3.542,3.237,3.237,0,0,1,2.729-1.318,2.913,2.913,0,0,1,2.294,1.037V-13.5h2.549V0h-2.294l-.123-1.011A2.989,2.989,0,0,1-21.375.176a3.228,3.228,0,0,1-2.694-1.323A5.916,5.916,0,0,1-25.084-4.825Zm2.54.181a3.775,3.775,0,0,0,.466,2.057,1.516,1.516,0,0,0,1.354.715,1.7,1.7,0,0,0,1.661-1V-6.64a1.675,1.675,0,0,0-1.644-1Q-22.544-7.638-22.544-4.644ZM-10.169.176a4.668,4.668,0,0,1-3.406-1.283,4.561,4.561,0,0,1-1.314-3.419v-.246a5.745,5.745,0,0,1,.554-2.562,4.064,4.064,0,0,1,1.569-1.74,4.4,4.4,0,0,1,2.316-.611,3.947,3.947,0,0,1,3.072,1.23A5,5,0,0,1-6.258-4.966v1.037h-6.056a2.36,2.36,0,0,0,.743,1.494A2.245,2.245,0,0,0-10-1.872,2.742,2.742,0,0,0-7.708-2.936l1.248,1.4A3.813,3.813,0,0,1-8.007-.277,5.075,5.075,0,0,1-10.169.176Zm-.29-7.813a1.587,1.587,0,0,0-1.226.512,2.651,2.651,0,0,0-.6,1.466h3.533v-.2a1.891,1.891,0,0,0-.457-1.311A1.638,1.638,0,0,0-10.459-7.638ZM3.621-1.872a1.666,1.666,0,0,0,1.143-.387,1.355,1.355,0,0,0,.457-1.028H7.6a3.258,3.258,0,0,1-.527,1.771A3.48,3.48,0,0,1,5.656-.268,4.442,4.442,0,0,1,3.665.176a4.129,4.129,0,0,1-3.217-1.3A5.13,5.13,0,0,1-.729-4.7v-.167A5.071,5.071,0,0,1,.439-8.376a4.08,4.08,0,0,1,3.208-1.31A4,4,0,0,1,6.508-8.67,3.594,3.594,0,0,1,7.6-5.968H5.221a1.745,1.745,0,0,0-.457-1.206A1.524,1.524,0,0,0,3.6-7.638a1.53,1.53,0,0,0-1.34.647,3.749,3.749,0,0,0-.453,2.1v.264a3.8,3.8,0,0,0,.448,2.113A1.549,1.549,0,0,0,3.621-1.872ZM8.657-4.843A5.64,5.64,0,0,1,9.2-7.365a3.989,3.989,0,0,1,1.569-1.714,4.577,4.577,0,0,1,2.377-.606,4.33,4.33,0,0,1,3.142,1.178,4.727,4.727,0,0,1,1.358,3.2l.018.65a4.97,4.97,0,0,1-1.222,3.511A4.247,4.247,0,0,1,13.166.176,4.268,4.268,0,0,1,9.883-1.143,5.058,5.058,0,0,1,8.657-4.729Zm2.54.18a3.555,3.555,0,0,0,.51,2.073,1.682,1.682,0,0,0,1.459.717,1.686,1.686,0,0,0,1.441-.709,3.89,3.89,0,0,0,.519-2.267,3.519,3.519,0,0,0-.519-2.06,1.686,1.686,0,0,0-1.459-.731,1.658,1.658,0,0,0-1.441.726A3.955,3.955,0,0,0,11.2-4.662ZM21.568-9.51l.079,1.1a3.32,3.32,0,0,1,2.733-1.274,2.759,2.759,0,0,1,2.25.888,4.142,4.142,0,0,1,.756,2.654V0h-2.54V-6.1A1.654,1.654,0,0,0,24.5-7.272a1.572,1.572,0,0,0-1.169-.366,1.747,1.747,0,0,0-1.608.916V0h-2.54V-9.51Zm10.784-2.338V-9.51h1.626v1.863H32.353V-2.9a1.133,1.133,0,0,0,.2.756,1.015,1.015,0,0,0,.773.229,4.051,4.051,0,0,0,.747-.062V-.053a5.229,5.229,0,0,1-1.538.229,2.425,2.425,0,0,1-2.725-2.7V-7.646H28.424V-9.51h1.389v-2.338Zm8.385,4.72a6.9,6.9,0,0,0-.914-.07,1.86,1.86,0,0,0-1.89.976V0h-2.54V-9.51h2.4l.07,1.134a2.354,2.354,0,0,1,2.118-1.31,2.662,2.662,0,0,1,.791.114ZM47.206,0a2.821,2.821,0,0,1-.255-.853,3.073,3.073,0,0,1-2.4,1.028,3.376,3.376,0,0,1-2.316-.809,2.6,2.6,0,0,1-.918-2.039,2.687,2.687,0,0,1,1.121-2.32,5.529,5.529,0,0,1,3.239-.817h1.169v-.545a1.567,1.567,0,0,0-.338-1.055,1.331,1.331,0,0,0-1.068-.4,1.513,1.513,0,0,0-1.006.308,1.045,1.045,0,0,0-.365.844h-2.54a2.551,2.551,0,0,1,.51-1.529,3.37,3.37,0,0,1,1.441-1.1,5.253,5.253,0,0,1,2.092-.4,4.15,4.15,0,0,1,2.791.883,3.09,3.09,0,0,1,1.033,2.483V-2.2a4.546,4.546,0,0,0,.378,2.048V0Zm-2.1-1.767a2.188,2.188,0,0,0,1.037-.25,1.645,1.645,0,0,0,.7-.672V-4.324H45.9q-1.907,0-2.03,1.318l-.009.149a1.017,1.017,0,0,0,.334.782A1.3,1.3,0,0,0,45.105-1.767Zm9.281-10.081V-9.51h1.626v1.863H54.387V-2.9a1.133,1.133,0,0,0,.2.756,1.015,1.015,0,0,0,.773.229,4.051,4.051,0,0,0,.747-.062V-.053a5.229,5.229,0,0,1-1.538.229,2.425,2.425,0,0,1-2.725-2.7V-7.646H50.458V-9.51h1.389v-2.338Zm2.382,7a5.64,5.64,0,0,1,.545-2.522,3.989,3.989,0,0,1,1.569-1.714,4.577,4.577,0,0,1,2.377-.606A4.33,4.33,0,0,1,64.4-8.508a4.727,4.727,0,0,1,1.358,3.2l.018.65a4.97,4.97,0,0,1-1.222,3.511A4.247,4.247,0,0,1,61.277.176a4.268,4.268,0,0,1-3.283-1.318,5.058,5.058,0,0,1-1.226-3.586Zm2.54.18a3.555,3.555,0,0,0,.51,2.073,1.682,1.682,0,0,0,1.459.717,1.686,1.686,0,0,0,1.441-.709,3.89,3.89,0,0,0,.519-2.267,3.519,3.519,0,0,0-.519-2.06,1.686,1.686,0,0,0-1.459-.731,1.658,1.658,0,0,0-1.441.726A3.955,3.955,0,0,0,59.309-4.662ZM72.492-2.628a.818.818,0,0,0-.461-.734,5.241,5.241,0,0,0-1.481-.479q-3.393-.712-3.393-2.883a2.613,2.613,0,0,1,1.05-2.114,4.237,4.237,0,0,1,2.747-.848,4.56,4.56,0,0,1,2.9.853,2.687,2.687,0,0,1,1.085,2.215H72.4a1.229,1.229,0,0,0-.352-.9,1.488,1.488,0,0,0-1.1-.356,1.52,1.52,0,0,0-.993.29.916.916,0,0,0-.352.738.783.783,0,0,0,.4.681,4.114,4.114,0,0,0,1.349.448,11.019,11.019,0,0,1,1.6.426,2.628,2.628,0,0,1,2.013,2.558,2.481,2.481,0,0,1-1.116,2.1,4.815,4.815,0,0,1-2.883.8A5.029,5.029,0,0,1,68.84-.25a3.561,3.561,0,0,1-1.455-1.169,2.716,2.716,0,0,1-.527-1.6h2.408a1.326,1.326,0,0,0,.5,1.037,1.987,1.987,0,0,0,1.248.36,1.839,1.839,0,0,0,1.1-.277A.861.861,0,0,0,72.492-2.628Z" transform="translate(800.001 2471)" fill="#fff"/>
  </g>
</svg>
