<svg id="Grupo_895350" data-name="Grupo 895350" xmlns="http://www.w3.org/2000/svg" xmlns:xlink="http://www.w3.org/1999/xlink" width="820" height="321.958" viewBox="0 0 820 321.958">
  <defs>
    <clipPath id="clip-path">
      <rect id="Rectángulo_343924" data-name="Rectángulo 343924" width="820" height="321.957" fill="none"/>
    </clipPath>
    <clipPath id="clip-path-3">
      <rect id="Rectángulo_343921" data-name="Rectángulo 343921" width="64.345" height="18.984" fill="none"/>
    </clipPath>
    <clipPath id="clip-path-4">
      <rect id="Rectángulo_343922" data-name="Rectángulo 343922" width="38.369" height="14.837" fill="none"/>
    </clipPath>
  </defs>
  <g id="Grupo_895349" data-name="Grupo 895349" clip-path="url(#clip-path)">
    <g id="Grupo_895348" data-name="Grupo 895348">
      <g id="Grupo_895347" data-name="Grupo 895347" clip-path="url(#clip-path)">
        <path id="Trazado_690690" data-name="Trazado 690690" d="M893.745,272.1a5.641,5.641,0,0,0-.763.067,25.317,25.317,0,0,0-1.055-2.716h0a18.977,18.977,0,0,0-2.312-3.874l-.07-.09c-.147-.184-.3-.362-.449-.534l-.143-.161c-.143-.157-.286-.309-.433-.456-.061-.061-.122-.118-.184-.177-.142-.136-.284-.271-.429-.4-.067-.058-.136-.111-.2-.166q-.386-.319-.786-.59c-.09-.061-.179-.128-.271-.184-.108-.069-.22-.128-.33-.19s-.249-.143-.376-.207c-.107-.055-.216-.1-.325-.152-.134-.061-.269-.12-.405-.172-.1-.041-.21-.078-.316-.114-.145-.049-.292-.093-.44-.133-.1-.026-.2-.054-.3-.076-.166-.038-.333-.066-.5-.09-.085-.013-.169-.029-.254-.039a6.6,6.6,0,0,0-1.888.048c-.123.02-.243.059-.365.086a7.207,7.207,0,0,0-.725.184c-.144.048-.285.113-.426.169-.211.084-.422.166-.628.268-.15.075-.3.165-.443.249-.193.111-.385.221-.573.348-.149.1-.294.214-.441.326l0,0-.089-8.458A20.578,20.578,0,0,0,890,245.087c4.27-7.921,2.51-18.756-8.321-19.9a17.552,17.552,0,0,0-16.344,7.382V186.152l.017-.043V181.5l1.245-3.072v-1.309h0l0-.008H840.268l-9.1,22.4v.85h1.4v2.2h-1.4v2.26H799.225V169.553H755.045l-19.1,34.114h.008v1.351h3.066v31.516c-.168-.223-.346-.432-.527-.637-.094-7.442-4.332-13.7-9.878-14.257a8.155,8.155,0,0,0-5.078,1.192V201.821l3-5.55H689.275l-8.052,14.915V199.557h-.075l1.774-3.286H645.667L632.642,220.4h13.721v3.59h-8.309v1.5h-3.6v22.992h-3.119V269.47h3.119v19.66H780.584v-.025h71.3v.025h51.583c0-.025,0-.048,0-.074,0-9.367-4.354-16.96-9.724-16.96" transform="translate(-113.641 -30.52)" fill="#addde0"/>
        <path id="Trazado_690691" data-name="Trazado 690691" d="M379.49,111.338h-2.108v-7.223H319.406v7.223h-1.517v133.29H391.6l-8.353-133.29Z" transform="translate(-57.22 -18.741)" fill="#addde0"/>
        <path id="Trazado_690692" data-name="Trazado 690692" d="M715.322,131.827h-1.249v-6.321H679.726v6.321h-.9V248.478H722.5l-4.948-116.652Z" transform="translate(-122.189 -22.591)" fill="#addde0"/>
        <path id="Trazado_690693" data-name="Trazado 690693" d="M586.329,220.535h-.516V93.2H578.78V82.558l.494-2.777h-45.42l-7.023,41.008h2.589l-.592,11.559H528v88.188h-.322v1.36h58.65Z" transform="translate(-94.83 -14.36)" fill="#addde0"/>
        <path id="Trazado_690694" data-name="Trazado 690694" d="M815.883,258.021h-.492v-138.2h-6.7V108.262l.471-3.014h-43.3l-6.7,44.51h2.467l-.564,12.546h-.787v95.718h-.308V259.5h55.909Z" transform="translate(-136.65 -18.945)" fill="#addde0"/>
        <path id="Trazado_690695" data-name="Trazado 690695" d="M604.579,272.1a5.65,5.65,0,0,0-.764.067,25.162,25.162,0,0,0-1.054-2.716h0a18.985,18.985,0,0,0-2.311-3.874l-.07-.09c-.148-.184-.3-.362-.449-.534l-.143-.161c-.143-.157-.286-.309-.433-.456-.061-.061-.122-.118-.184-.177-.142-.136-.284-.271-.429-.4-.067-.058-.136-.111-.2-.166q-.386-.319-.786-.59c-.09-.061-.18-.128-.271-.184-.108-.069-.22-.128-.331-.19s-.249-.143-.375-.207c-.107-.055-.216-.1-.325-.152-.135-.061-.269-.12-.405-.172-.1-.041-.21-.078-.317-.114-.145-.049-.292-.093-.439-.133-.1-.026-.2-.054-.3-.076-.166-.038-.334-.066-.5-.09-.085-.013-.169-.029-.254-.039a6.6,6.6,0,0,0-1.888.048c-.123.02-.244.059-.366.086a7.243,7.243,0,0,0-.724.184c-.144.048-.285.113-.426.169-.211.084-.422.166-.628.268-.15.075-.3.165-.443.249-.193.111-.385.221-.573.348-.149.1-.294.214-.441.326l0,0-.089-8.458a20.575,20.575,0,0,0,12.183-9.778c4.271-7.921,2.511-18.756-8.32-19.9a17.555,17.555,0,0,0-16.345,7.382V186.152l.018-.043V181.5l1.245-3.072v-1.309h0l0-.008H551.1l-9.1,22.4h0v.85h1.4v2.2H542v2.26H510.059V169.553H465.88l-19.1,34.114h.008v1.351h3.066v31.516c-.169-.223-.346-.432-.527-.637-.094-7.442-4.331-13.7-9.877-14.257a8.159,8.159,0,0,0-5.079,1.192V201.821l3-5.55H400.109l-8.053,14.915V199.557h-.075l1.774-3.286H356.5L343.476,220.4H357.2v3.59h-8.309v1.5h-3.6v22.992h-3.119V269.47h3.119v19.66H491.418v-.025h71.3v.025H614.3c0-.025,0-.048,0-.074,0-9.367-4.354-16.96-9.724-16.96" transform="translate(-61.591 -30.52)" fill="#addde0"/>
        <path id="Trazado_690696" data-name="Trazado 690696" d="M19.67,291.658c0,.022,0,.043,0,.066H71.255V291.7h71.3v.022H288.684V274.008H291.8V255.089h-3.118V234.37h-3.6v-1.351h-8.309v-3.236H290.5l-13.026-21.741H240.218L241.992,211h-.075v10.48l-8.052-13.441H196.61l3,5v18.934a8.882,8.882,0,0,0-5.078-1.074c-5.546.506-9.784,6.143-9.878,12.849-.18.185-.358.373-.526.574v-28.4h3.065v-1.217h.009l-19.1-30.743H123.915v31.788H91.974v-2.037h-1.4v-1.983h1.4v-.767h0l-9.1-20.188H56.54l0,.007h0v1.179l1.244,2.768v4.152l.018.039v41.83A18.35,18.35,0,0,0,41.457,234.1c-10.831,1.032-12.591,10.8-8.321,17.933a20.327,20.327,0,0,0,12.184,8.811l-.089,7.623,0,0c-.148-.1-.293-.2-.443-.294-.188-.115-.38-.213-.572-.313-.147-.076-.293-.157-.442-.225-.207-.093-.418-.166-.629-.241-.143-.051-.283-.11-.426-.153-.239-.07-.482-.117-.726-.165-.122-.025-.242-.06-.365-.078a7.7,7.7,0,0,0-1.12-.085c-.258,0-.514.016-.769.042-.084.008-.168.024-.253.035-.168.022-.335.048-.5.081-.1.021-.2.045-.3.069-.148.036-.294.075-.44.12-.106.032-.211.066-.317.1-.136.048-.271.1-.405.156-.108.044-.217.087-.324.136-.127.057-.251.123-.376.187s-.222.11-.331.171c-.091.052-.179.111-.27.166q-.4.244-.786.531c-.068.051-.137.1-.2.15-.144.114-.287.235-.429.358-.062.053-.123.1-.183.16-.148.132-.29.269-.434.411-.048.048-.1.1-.143.144-.152.156-.3.315-.449.481-.025.026-.048.054-.071.081a16.915,16.915,0,0,0-2.312,3.491h0a21.515,21.515,0,0,0-1.055,2.448,6.2,6.2,0,0,0-.763-.061c-5.371,0-9.724,6.843-9.724,15.284" transform="translate(-3.541 -33.114)" fill="#addde0"/>
        <rect id="Rectángulo_343912" data-name="Rectángulo 343912" width="1.708" height="74.476" transform="translate(585.617 184.752)" fill="#f2ffff"/>
        <path id="Trazado_690697" data-name="Trazado 690697" d="M726.2,222.122,715.521,224.8v1.541l10.677-2.679Z" transform="translate(-128.794 -39.982)" fill="#f2ffff"/>
        <path id="Trazado_690698" data-name="Trazado 690698" d="M702.083,222.122,712.76,224.8v1.541l-10.677-2.679Z" transform="translate(-126.375 -39.982)" fill="#f2ffff"/>
        <rect id="Rectángulo_343913" data-name="Rectángulo 343913" width="1.708" height="74.476" transform="translate(702.695 184.752)" fill="#f2ffff"/>
        <path id="Trazado_690699" data-name="Trazado 690699" d="M868.976,222.122,858.3,224.8v1.541l10.677-2.679Z" transform="translate(-154.494 -39.982)" fill="#f2ffff"/>
        <path id="Trazado_690700" data-name="Trazado 690700" d="M844.861,222.122l10.677,2.679v1.541l-10.677-2.679Z" transform="translate(-152.075 -39.982)" fill="#f2ffff"/>
        <rect id="Rectángulo_343914" data-name="Rectángulo 343914" width="1.708" height="74.476" transform="translate(772.053 184.752)" fill="#f2ffff"/>
        <path id="Trazado_690701" data-name="Trazado 690701" d="M953.559,222.122,942.882,224.8v1.541l10.677-2.679Z" transform="translate(-169.718 -39.982)" fill="#f2ffff"/>
        <path id="Trazado_690702" data-name="Trazado 690702" d="M929.444,222.122l10.677,2.679v1.541l-10.677-2.679Z" transform="translate(-167.3 -39.982)" fill="#f2ffff"/>
        <rect id="Rectángulo_343915" data-name="Rectángulo 343915" width="1.708" height="74.476" transform="translate(468.682 184.752)" fill="#f2ffff"/>
        <path id="Trazado_690703" data-name="Trazado 690703" d="M583.594,222.122,572.916,224.8v1.541l10.677-2.679Z" transform="translate(-103.125 -39.982)" fill="#f2ffff"/>
        <path id="Trazado_690704" data-name="Trazado 690704" d="M559.479,222.122l10.677,2.679v1.541l-10.677-2.679Z" transform="translate(-100.706 -39.982)" fill="#f2ffff"/>
        <rect id="Rectángulo_343916" data-name="Rectángulo 343916" width="1.708" height="74.476" transform="translate(350.209 184.752)" fill="#f2ffff"/>
        <path id="Trazado_690705" data-name="Trazado 690705" d="M439.115,222.122,428.437,224.8v1.541l10.677-2.679Z" transform="translate(-77.119 -39.982)" fill="#f2ffff"/>
        <path id="Trazado_690706" data-name="Trazado 690706" d="M415,222.122l10.677,2.679v1.541L415,223.663Z" transform="translate(-74.7 -39.982)" fill="#f2ffff"/>
        <rect id="Rectángulo_343917" data-name="Rectángulo 343917" width="1.708" height="74.476" transform="translate(233.359 184.752)" fill="#f2ffff"/>
        <path id="Trazado_690707" data-name="Trazado 690707" d="M296.614,222.122,285.937,224.8v1.541l10.677-2.679Z" transform="translate(-51.469 -39.982)" fill="#f2ffff"/>
        <path id="Trazado_690708" data-name="Trazado 690708" d="M272.5,222.122l10.677,2.679v1.541L272.5,223.663Z" transform="translate(-49.05 -39.982)" fill="#f2ffff"/>
        <rect id="Rectángulo_343918" data-name="Rectángulo 343918" width="1.708" height="74.476" transform="translate(115.484 184.752)" fill="#f2ffff"/>
        <path id="Trazado_690709" data-name="Trazado 690709" d="M152.865,222.122,142.187,224.8v1.541l10.677-2.679Z" transform="translate(-25.594 -39.982)" fill="#f2ffff"/>
        <path id="Trazado_690710" data-name="Trazado 690710" d="M128.75,222.122l10.677,2.679v1.541l-10.677-2.679Z" transform="translate(-23.175 -39.982)" fill="#f2ffff"/>
        <rect id="Rectángulo_343919" data-name="Rectángulo 343919" width="820" height="6.509" transform="translate(0 257.023)" fill="#f2ffff"/>
        <rect id="Rectángulo_343920" data-name="Rectángulo 343920" width="820" height="60.27" transform="translate(0 261.687)" fill="#d8cb59"/>
        <path id="Trazado_690711" data-name="Trazado 690711" d="M403.736,319.131,0,348.3v13.359l426.742-42.533Z" transform="translate(0 -57.444)" fill="#c8bf54"/>
        <path id="Trazado_690712" data-name="Trazado 690712" d="M191.628,319.131,0,330.749v5.3l214.633-16.915Z" transform="translate(0 -57.444)" fill="#c8bf54"/>
        <path id="Trazado_690713" data-name="Trazado 690713" d="M663.192,379.4H487.917l385.138-60.27h23.005Z" transform="translate(-87.825 -57.444)" fill="#c8bf54"/>
        <path id="Trazado_690714" data-name="Trazado 690714" d="M815.9,324.631c-286.12,11.313-557.138,10.554-815.9,0v26.24c330.69-7.3,626.108-10.211,815.9,0Z" transform="translate(0 -58.434)" fill="#af8137"/>
        <path id="Trazado_690715" data-name="Trazado 690715" d="M607.633,350.431c0-.988-22.574-1.789-50.42-1.789s-50.421.8-50.421,1.789,22.575,1.789,50.421,1.789,50.42-.8,50.42-1.789" transform="translate(-91.223 -62.756)" fill="#af8137"/>
        <path id="Trazado_690716" data-name="Trazado 690716" d="M699.824,359.7c0-.988-22.574-1.789-50.42-1.789s-50.421.8-50.421,1.789,22.574,1.789,50.421,1.789,50.42-.8,50.42-1.789" transform="translate(-107.817 -64.425)" fill="#af8137"/>
        <path id="Trazado_690717" data-name="Trazado 690717" d="M788.459,366.8c0-.988-17.3-1.789-38.64-1.789s-38.641.8-38.641,1.789,17.3,1.789,38.641,1.789,38.64-.8,38.64-1.789" transform="translate(-128.012 -65.701)" fill="#af8137"/>
        <path id="Trazado_690718" data-name="Trazado 690718" d="M480.862,68.9c1.653,1.15,6.016,9.1,8.014,13.787l-10.061,7.351c-6.651-5.446-8.058-15.255-6.545-16.4s6.939-5.888,8.593-4.739" transform="translate(-84.909 -12.371)" fill="#e79b69"/>
        <path id="Trazado_690719" data-name="Trazado 690719" d="M493.749,69.237c.19.774-2.612,5.984-1.929,13.918L485.015,81.5c.089-3.528,4.18-12.936,5.42-13.723a2.339,2.339,0,0,1,3.314,1.457" transform="translate(-87.303 -12.146)" fill="#edb984"/>
        <path id="Trazado_690720" data-name="Trazado 690720" d="M482.665,58.175c.315.752,1.73,8.518,3.857,15.322l-5.936-2.882s-1.645-11.225-.959-12.516a1.733,1.733,0,0,1,3.038.077" transform="translate(-86.303 -10.302)" fill="#edb984"/>
        <path id="Trazado_690721" data-name="Trazado 690721" d="M478.5,68.141c.734.286,5.421,6.871,2.233,9.178-1.5,1.087-3.63-2.449-3.63-2.449s-1.727-3.962-1.423-5.277a2.364,2.364,0,0,1,2.82-1.453" transform="translate(-85.615 -12.25)" fill="#edb984"/>
        <path id="Trazado_690722" data-name="Trazado 690722" d="M473.212,81.911c-5.365-6.972.362-12.867,1.094-11.523s3.85,5.614,3.479,7.5c-.473,2.412-4.573,4.022-4.573,4.022" transform="translate(-84.769 -12.635)" fill="#edb984"/>
        <path id="Trazado_690723" data-name="Trazado 690723" d="M539.107,61.225c-11.3,10.782-13.706,24.529-30.619,54.988-1.433,2.581,6.2,25.96,13.238,26.229s35.226-35.125,35.226-35.125Z" transform="translate(-91.496 -11.02)" fill="#e8e4d4"/>
        <path id="Trazado_690724" data-name="Trazado 690724" d="M541.6,69.066c-.155,6.99-2.594,15.948-7.2,24.923-7.591,14.788-18.529,24.68-26.052,24.2-.5,4.361,6.709,25.407,13.383,25.662,7.034.27,35.226-35.124,35.226-35.124Z" transform="translate(-91.498 -12.432)" fill="#ddd6c0"/>
        <path id="Trazado_690725" data-name="Trazado 690725" d="M502.752,108.574c-3.793,20.4,10.11,42.318,18.079,44.854,9.947,3.166,13.114-37.994,1.42-44.9-13.79-8.15-19.5.051-19.5.051" transform="translate(-90.38 -18.884)" fill="#a03d59"/>
        <path id="Trazado_690726" data-name="Trazado 690726" d="M542.628,141.26c-10.706,54.988,5.818,169.277,5.818,169.277L586.3,160.668Z" transform="translate(-97.023 -25.427)" fill="#544e5e"/>
        <path id="Trazado_690727" data-name="Trazado 690727" d="M563.608,157.856,550.255,312.008c.137.982.214,1.516.214,1.516l37.85-149.87Z" transform="translate(-99.046 -28.414)" fill="#474251"/>
        <path id="Trazado_690728" data-name="Trazado 690728" d="M603.811,165.628l-52.1-6.617,1.333,36.658,7.179,7.009S579.72,279.229,592.9,313.732c0,0,13.668-120.611,10.912-148.1" transform="translate(-99.309 -28.622)" fill="#544e5e"/>
        <path id="Trazado_690729" data-name="Trazado 690729" d="M606.34,166.9l-67.206,8.459L539.044,190c17.6-4.9,35.212-2.335,52.92,3.7L590.14,313.882c.161.427.321.854.48,1.27,0,0,18.476-120.758,15.72-148.252" transform="translate(-97.028 -30.042)" fill="#474251"/>
        <path id="Trazado_690730" data-name="Trazado 690730" d="M538.362,162.661c9.049-2.489,25.887-3.665,40.838-3.1,12.576.477,32.538-83.023,10.235-101.891-17.58-14.873-37.278-2.822-44.927,1.617a5.737,5.737,0,0,0-2.806,5.624c4.892,44.694-4.055,77.178-3.341,97.748" transform="translate(-96.898 -9.084)" fill="#e8e4d4"/>
        <path id="Trazado_690731" data-name="Trazado 690731" d="M598.274,59.155c-3.318-2.807-8.2,7.537-10.641,34.065-1.454,15.8,5.234,56.049-.057,67.808,12.161.53,24.391,2.292,28.423,5.407,0,0,4.578-88.412-17.724-107.281" transform="translate(-105.736 -10.568)" fill="#ddd6c0"/>
        <g id="Grupo_895343" data-name="Grupo 895343" transform="translate(445.565 92.608)" opacity="0.76" style="mix-blend-mode: multiply;isolation: isolate">
          <g id="Grupo_895342" data-name="Grupo 895342">
            <g id="Grupo_895341" data-name="Grupo 895341" clip-path="url(#clip-path-3)">
              <path id="Trazado_690732" data-name="Trazado 690732" d="M607.717,131.921c-.216-3.569-.492-7.2-.835-10.836-13.169-3.228-44.15-10.021-62.985-7.658q-.186,5.184-.525,10.057c26.188-.841,53.215,5.465,64.345,8.437" transform="translate(-543.372 -112.937)" fill="#a03d59"/>
            </g>
          </g>
        </g>
        <path id="Trazado_690733" data-name="Trazado 690733" d="M474.939,87.1c20.044,49.01,40.7,56.265,40.7,56.265,6.518-.083,9.866-32.625.541-40.082-5.224-4.178-29.9-21.025-29.9-21.025Z" transform="translate(-85.489 -14.807)" fill="#edb984"/>
        <path id="Trazado_690734" data-name="Trazado 690734" d="M549.87,349.542H539.649a57.089,57.089,0,0,1,6.827-3.184c4.327-1.309,3.394,3.184,3.394,3.184" transform="translate(-97.137 -62.301)" fill="#eae3d3"/>
        <path id="Trazado_690735" data-name="Trazado 690735" d="M605.1,349.471h-5.868s.613-2.582,1.5-3.307c1.8-1.474,4.372,3.307,4.372,3.307" transform="translate(-107.862 -62.259)" fill="#eae3d3"/>
        <path id="Trazado_690736" data-name="Trazado 690736" d="M559.258,214.068l-12.967-6.2,11.652,1.473,11-6.222Z" transform="translate(-98.332 -36.561)" fill="#474251"/>
        <path id="Trazado_690737" data-name="Trazado 690737" d="M517.878,106.152c1.094,11.144-2.41,14.625-5.9,15.7-4.556,1.407-15.376.779-36.387-34.028l-.648.277c20.044,49.01,40.781,59.125,40.781,59.125,6.082-.078,9.326-30.9,2.158-41.08" transform="translate(-85.489 -15.809)" fill="#e79b69"/>
        <path id="Trazado_690738" data-name="Trazado 690738" d="M588.43,58.886C578.384,70.842,577.48,84.8,563.99,116.965c-1.143,2.726,8.954,25.205,15.96,24.719s31.15-38.779,31.15-38.779Z" transform="translate(-101.502 -10.599)" fill="#e8e4d4"/>
        <path id="Trazado_690739" data-name="Trazado 690739" d="M589.626,55.563c.6,6.981,1.115,25.036-2.486,34.474-5.934,15.55-15.717,26.58-23.23,26.912-.027,4.4,9.4,24.6,16.042,24.138,7.006-.485,31.151-38.778,31.151-38.778,4.44-26.336-6.232-45.07-21.478-46.745" transform="translate(-101.504 -10.001)" fill="#ddd6c0"/>
        <path id="Trazado_690740" data-name="Trazado 690740" d="M556.359,110.462c-1.561,20.74,14.593,41.086,22.771,42.76,10.207,2.089,8.91-39.268-3.435-44.9-14.557-6.643-19.336,2.142-19.336,2.142" transform="translate(-100.125 -19.05)" fill="#a03d59"/>
        <path id="Trazado_690741" data-name="Trazado 690741" d="M526.367,92.013C551.535,138.7,572.8,143.72,572.8,143.72c6.457-.782,6.267-33.57-3.786-40-5.633-3.6-31.926-17.746-31.926-17.746Z" transform="translate(-94.746 -15.475)" fill="#edb984"/>
        <path id="Trazado_690742" data-name="Trazado 690742" d="M570.9,106.642c2.287,10.988-.813,14.833-4.163,16.283-4.367,1.891-15.167,2.425-39.761-30.008l-.613.346c25.168,46.69,46.828,54.547,46.828,54.547,6.024-.73,5.917-31.789-2.29-41.168" transform="translate(-94.746 -16.725)" fill="#e79b69"/>
        <path id="Trazado_690743" data-name="Trazado 690743" d="M596,58.18c-25.818-15.3-37.282-5.568-44.922-1.427a6.424,6.424,0,0,0,1.476,4.369c5.019,6.218,21.269,6.429,36.295.471A56.627,56.627,0,0,0,596,58.18" transform="translate(-99.193 -8.978)" fill="#ddd6c0"/>
        <path id="Trazado_690744" data-name="Trazado 690744" d="M540.7,27.022c-11.341-17.9-5.092-24.425.2-25.79s19.411-2.882,22.128,3.186,5.88,32.662,5.88,32.662l-7.478-8.086H555.8L551.247,15.34Z" transform="translate(-96.181 0)" fill="#77383b"/>
        <path id="Trazado_690745" data-name="Trazado 690745" d="M561.761,27.379,551.03,41.2,553.6,52.749c4.927,7.128,14.077,2.078,21.873-6.158Z" transform="translate(-99.185 -4.928)" fill="#d27558"/>
        <path id="Trazado_690746" data-name="Trazado 690746" d="M547.139,47.152c-6.668-16.712-6.547-29.22-4.653-33.353s10.872-5.571,15.831-1.258,4.438,21.924,4.7,25.877-15.881,8.734-15.881,8.734" transform="translate(-97.445 -1.786)" fill="#edb984"/>
        <path id="Trazado_690747" data-name="Trazado 690747" d="M565.468,28.124l-5.714.935S550.579,8.544,558.518,8.61s6.95,19.514,6.95,19.514" transform="translate(-99.951 -1.55)" fill="#77383b"/>
        <path id="Trazado_690748" data-name="Trazado 690748" d="M567.415,27.532c.145-2.586-.833-4.683-2.184-4.683s-2.566,2.1-2.71,4.683.833,4.683,2.184,4.683,2.565-2.1,2.71-4.683" transform="translate(-101.251 -4.113)" fill="#edb984"/>
        <path id="Trazado_690749" data-name="Trazado 690749" d="M567.231,28.6c.183-1.524-.315-2.761-1.111-2.761s-1.592,1.237-1.775,2.761.315,2.761,1.112,2.761,1.591-1.237,1.774-2.761" transform="translate(-101.575 -4.65)" fill="#d27558"/>
        <path id="Trazado_690750" data-name="Trazado 690750" d="M566.471,30.918c.13-1.085-.224-1.965-.791-1.965s-1.132.88-1.263,1.965.225,1.965.791,1.965,1.132-.88,1.263-1.965" transform="translate(-101.59 -5.212)" fill="#edb984"/>
        <path id="Trazado_690751" data-name="Trazado 690751" d="M529.635,73.02c1.8.9,7.26,8.166,9.912,12.524L530.694,94.3c-7.353-4.442-10.171-13.974-8.845-15.329s5.987-6.849,7.785-5.947" transform="translate(-93.876 -13.126)" fill="#edb984"/>
        <path id="Trazado_690752" data-name="Trazado 690752" d="M541.584,69.247c.3.74-1.714,7.1.116,14.873l-6.4-4.136c-.495-2.13,1.7-10.743,2.806-11.7,1.235-1.07,3.041-.116,3.48.967" transform="translate(-96.341 -12.206)" fill="#edb984"/>
        <path id="Trazado_690753" data-name="Trazado 690753" d="M528.95,61.769a84.566,84.566,0,0,1,4.165,12.37l-4.876-.938s-2.781-9.681-2.251-10.953a1.8,1.8,0,0,1,2.963-.479" transform="translate(-94.666 -11.013)" fill="#edb984"/>
        <path id="Trazado_690754" data-name="Trazado 690754" d="M518.166,66.527c.774.079,5.278,5.288,9.385,10.212l-4.894,1.017s-6.73-7.706-6.789-9.06a2.352,2.352,0,0,1,2.3-2.169" transform="translate(-92.856 -11.974)" fill="#edb984"/>
        <path id="Trazado_690755" data-name="Trazado 690755" d="M523.722,88.194c-6.6-5.214-3.722-11.474-2.5-10.548s9.245,5.688,9.193,5.924-6.694,4.624-6.694,4.624" transform="translate(-93.517 -13.96)" fill="#edb984"/>
        <path id="Trazado_690756" data-name="Trazado 690756" d="M551.725,29.031c-.136-.941.289-1.74.95-1.787s1.318.683,1.459,1.631-.289,1.756-.959,1.795-1.315-.7-1.45-1.639" transform="translate(-99.306 -4.904)" fill="#5a4949"/>
        <path id="Trazado_690757" data-name="Trazado 690757" d="M542.92,30.614c-.121-.951.272-1.755.881-1.8s1.209.7,1.334,1.654-.273,1.77-.887,1.806-1.206-.709-1.328-1.663" transform="translate(-97.722 -5.187)" fill="#5a4949"/>
        <path id="Trazado_690758" data-name="Trazado 690758" d="M550.49,21.124l4.778.681a1.14,1.14,0,0,1,.959,1.255l-.139,1.208a1.054,1.054,0,0,1-1.212.936l-4.781-.739a1.116,1.116,0,0,1-.914-1.238l.14-1.178a1.037,1.037,0,0,1,1.169-.926" transform="translate(-98.851 -3.8)" fill="#77383b"/>
        <path id="Trazado_690759" data-name="Trazado 690759" d="M539.619,23.625l3.588-1.09a.859.859,0,0,1,1.032.728l.247,1.071a1.008,1.008,0,0,1-.587,1.221l-3.613,1.067a.849.849,0,0,1-1.009-.735l-.235-1.059a1.006,1.006,0,0,1,.576-1.2" transform="translate(-97.023 -4.051)" fill="#77383b"/>
        <path id="Trazado_690760" data-name="Trazado 690760" d="M548.22,31.646s.2.189.483.5c-.512,2.071-.848,5.452,2.052,4.075,0,.084.023.169.016.252-4.758,3.114-3.088-3.465-2.551-4.822" transform="translate(-98.549 -5.696)" fill="#d27558"/>
        <path id="Trazado_690761" data-name="Trazado 690761" d="M550.585,41.616a4.415,4.415,0,0,0,3.95-3.815s1.3,1.436-.759,3.118-3.191.7-3.191.7" transform="translate(-99.105 -6.804)" fill="#d27558"/>
        <path id="Trazado_690762" data-name="Trazado 690762" d="M556.947,42.178c-.112-.275-.644-.323-1.187-.108s-.894.613-.781.887.644.323,1.187.108.894-.613.781-.887" transform="translate(-99.892 -7.548)" fill="#d27558"/>
        <path id="Trazado_690763" data-name="Trazado 690763" d="M614.349,122.114c-10.888-20.293-3.565-36.757,10.047-38.872s26.68,8.753,25.719,18.6c0,0,8.113-1.961,13.437,10.94s-1.951,22.024-1.951,22.024,15.771,2.981,9.394,15.51-25.364,18.589-35.209,10.877a20.621,20.621,0,0,1-8-18.639s-9.517,1.5-12.829-5.977a20.464,20.464,0,0,1-.606-14.467" transform="translate(-109.636 -14.936)" fill="#77383b"/>
        <path id="Trazado_690764" data-name="Trazado 690764" d="M637.338,325.849s-15.747-69.687-14.695-76.025c1.293-7.786,27.91-49.573,27.91-49.573l-2.345-18.161,26.368-1.678a85.991,85.991,0,0,1,.38,32.352c-3.271,16.953-33.721,45.353-33.721,45.353Z" transform="translate(-112.067 -32.474)" fill="#563740"/>
        <path id="Trazado_690765" data-name="Trazado 690765" d="M677.238,181.2l-5.889-.347-20.633,1.314,8.345,21.672-6.213,7.986,5.418,5.87s-20.316,27.882-21.608,35.668c-.778,4.683,1.96,43.77,3.625,64.968l5.264-60.8s30.289-27.31,33.56-44.264c2.858-14.81-1.21-28.864-1.868-32.072" transform="translate(-114.574 -32.554)" fill="#472c35"/>
        <path id="Trazado_690766" data-name="Trazado 690766" d="M686.714,325.764s-28.671-61.486-29.076-67.921c-.5-7.9,5.489-44.036,5.489-44.036l-7.187-1.882-2.379-26.064,26-5.927s15.172,11.1,15.815,28.413-19.592,51.566-19.592,51.566Z" transform="translate(-117.641 -32.388)" fill="#563740"/>
        <path id="Trazado_690767" data-name="Trazado 690767" d="M697.313,207.785c-.643-17.313-17.757-27.851-17.757-27.851l-26,5.928,1.47,15.388-1.434,2.931s24.361,1.447,27.217,9.065c3.072,8.2-11.52,46.123-11.52,46.123l16.031,63.4c.878,1.9,1.388,2.992,1.388,2.992L677.637,260.1s20.319-35,19.676-52.316" transform="translate(-117.641 -32.388)" fill="#472c35"/>
        <path id="Trazado_690768" data-name="Trazado 690768" d="M631.732,150.884c17.14,12.99,18.431,42.9,18.431,42.9s17.565,1.751,40.167-6.5c-10.388-19.8-39.053-53.861-48.992-56.309-10.926-2.692-9.606,19.912-9.606,19.912" transform="translate(-113.703 -23.535)" fill="#b54b66"/>
        <path id="Trazado_690769" data-name="Trazado 690769" d="M650.54,167.5c9.037-1.528,20.4,6.461,25.375,17.844a28.549,28.549,0,0,1,1.823,5.715,112.608,112.608,0,0,0,12.591-3.777c-10.388-19.8-39.053-53.862-48.992-56.31-10.926-2.691-9.605,19.913-9.605,19.913,6.4,4.847,10.582,12.049,13.321,19.174a10.967,10.967,0,0,1,5.487-2.558" transform="translate(-113.703 -23.535)" fill="#a03755"/>
        <path id="Trazado_690770" data-name="Trazado 690770" d="M625,134.379c-3.427,5.712-7.155,25.851-10.81,21.411-4.122-5.006-.762-26.529-.762-26.529L611.4,128.5c-5.458,16.5-9.139,31.987-.888,36.429s18.912-8.631,18.912-8.631Z" transform="translate(-109.021 -23.13)" fill="#a03755"/>
        <path id="Trazado_690771" data-name="Trazado 690771" d="M629.381,134.646c-1.642,15.578.705,31.67,2.4,32.808s19.965-2.086,20.719-5.12-8.324-30.195-11.678-31.386-11.159,1.017-11.442,3.7" transform="translate(-113.188 -23.511)" fill="#b54b66"/>
        <path id="Trazado_690772" data-name="Trazado 690772" d="M642.357,131.225c-2.585,8.989-4.672,18.059-4.853,28.762-.03,1.761,2.79,6.55-1.822,7.774,5.538-.322,17.449-2.88,18.054-5.319.732-2.949-7.819-28.675-11.379-31.217" transform="translate(-114.423 -23.62)" fill="#a03755"/>
        <path id="Trazado_690773" data-name="Trazado 690773" d="M637.644,136.2c-8.581,6.6-18.661,29.632-25.281,28.115s-11.914-37.39-11.914-37.39l-1.711.493S595.171,167.584,609.2,174s34.346-29.309,34.987-32.874-2.166-8.3-6.539-4.931" transform="translate(-107.7 -22.846)" fill="#b54b66"/>
        <path id="Trazado_690774" data-name="Trazado 690774" d="M644.172,143.136a9.928,9.928,0,0,0-.816-4.87c-4.094,8.735-21.066,38.922-33.614,33.18-8.285-3.791-11.153-20.878-11.4-33.363-.329,12.506.467,34.682,10.433,39.244,14.025,6.417,34.761-30.625,35.4-34.19" transform="translate(-107.691 -24.855)" fill="#a03755"/>
        <path id="Trazado_690775" data-name="Trazado 690775" d="M640.545,358.792H630.034a60,60,0,0,1,7.091-3.283c4.479-1.35,3.419,3.283,3.419,3.283" transform="translate(-113.406 -63.947)" fill="#eae3d3"/>
        <path id="Trazado_690776" data-name="Trazado 690776" d="M697.735,358.7H691.7s0-2.717.727-3.478c1.486-1.551,5.308,3.478,5.308,3.478" transform="translate(-124.506 -63.887)" fill="#eae3d3"/>
        <path id="Trazado_690777" data-name="Trazado 690777" d="M646.791,136.8c-1.068-1.162-1.734-2.7-3.017-3.253a5.514,5.514,0,0,0-3.02-2.6c-2.446-.869-7.252.075-9.788,1.688a2.984,2.984,0,0,0-1.212,1.026c-.007.008-.011.016-.017.025-.048.066-.1.127-.143.2a15.187,15.187,0,0,0-1.151,2.289,19.177,19.177,0,0,0,4.674,10.461s8.567-10.771,13.674-9.831" transform="translate(-113.12 -23.511)" fill="#a03755"/>
        <path id="Trazado_690778" data-name="Trazado 690778" d="M630.2,128.518l-2.825-13.654,7.2-9.53,5.086,20.908-6.5,6.4Z" transform="translate(-112.927 -18.96)" fill="#d27558"/>
        <path id="Trazado_690779" data-name="Trazado 690779" d="M623.172,125.45c-9.078-12.5-5.009-26.8-1.444-30.245,3.774-3.644,13.948,1.771,14.2,9.514.6,18.374-12.758,20.73-12.758,20.73" transform="translate(-111.179 -16.928)" fill="#edb984"/>
        <path id="Trazado_690780" data-name="Trazado 690780" d="M630.743,91.167c-5.359,3.556-3.031,13.034,6.047,22.042,9.054,8.984,10.456-10.921,5.92-16.083-4.564-5.195-11.967-5.959-11.967-5.959" transform="translate(-113.022 -16.41)" fill="#77383b"/>
        <g id="Grupo_895346" data-name="Grupo 895346" transform="translate(534.932 150.649)" style="mix-blend-mode: overlay;isolation: isolate">
          <g id="Grupo_895345" data-name="Grupo 895345">
            <g id="Grupo_895344" data-name="Grupo 895344" clip-path="url(#clip-path-4)">
              <path id="Trazado_690781" data-name="Trazado 690781" d="M690.885,191.784c-.723-1.185-1.5-2.4-2.3-3.637-8.469,3.724-21.476,8.265-35.347,8.759.136.867.249,1.674.344,2.412,14.794.465,28.568-3.906,37.3-7.534" transform="translate(-652.515 -184.515)" fill="#eae3d3"/>
              <path id="Trazado_690782" data-name="Trazado 690782" d="M686,183.718c-8.247,3.6-20.355,7.712-33.648,8.366.082.4.162.8.235,1.193,13.606-.414,26.037-4.708,34.238-8.345q-.407-.6-.825-1.214" transform="translate(-652.356 -183.718)" fill="#eae3d3"/>
            </g>
          </g>
        </g>
        <path id="Trazado_690783" data-name="Trazado 690783" d="M599.826,127.127c-.827-2.353-.927-5.116-1.728-5.551s-3.659,1.283-2.3,3.458a27.009,27.009,0,0,0,3.024,3.9Z" transform="translate(-107.179 -21.871)" fill="#edb984"/>
        <path id="Trazado_690784" data-name="Trazado 690784" d="M600.642,126.18c-.385-2.667,1.157-7.131.661-7.431-.472-.285-2.641,4.808-2.444,5.652.2.876,1.938,2.854,1.783,1.779" transform="translate(-107.792 -21.373)" fill="#edb984"/>
        <path id="Trazado_690785" data-name="Trazado 690785" d="M600.094,124.03c-2.527-3.7-2.018-7.642-2.361-7.956s-1.178,2.721-.209,5.209,2.571,2.746,2.571,2.746" transform="translate(-107.473 -20.889)" fill="#edb984"/>
        <path id="Trazado_690786" data-name="Trazado 690786" d="M598.926,124.893c-2.84-3.417-2.968-8.047-3.414-8.372s-.581,3.287.7,5.649a5.874,5.874,0,0,0,2.712,2.723" transform="translate(-107.136 -20.97)" fill="#edb984"/>
        <path id="Trazado_690787" data-name="Trazado 690787" d="M597.79,126.585c-2.968-3.8-3.19-7.389-3.482-7.564s-.409,2.354.643,4.457a6.389,6.389,0,0,0,2.839,3.107" transform="translate(-106.94 -21.422)" fill="#edb984"/>
        <path id="Trazado_690788" data-name="Trazado 690788" d="M628.428,111.784c-.034-1.1.3-2,.743-2.007s.827.892.857,1.993-.3,1.985-.742,1.989-.824-.878-.858-1.976" transform="translate(-113.117 -19.76)" fill="#5a4949"/>
        <path id="Trazado_690789" data-name="Trazado 690789" d="M618.24,111.864c-.054-1.109.267-2.016.717-2.018s.853.9.9,2-.271,2-.717,2-.849-.884-.9-1.988" transform="translate(-111.282 -19.772)" fill="#5a4949"/>
        <path id="Trazado_690790" data-name="Trazado 690790" d="M626.185,104.885l3.617.75a.986.986,0,0,1,.739,1.022l-.066.934a.711.711,0,0,1-.857.686l-3.6-.736a1,1,0,0,1-.753-1.021l.057-.941a.711.711,0,0,1,.861-.695" transform="translate(-112.548 -18.876)" fill="#872d2d"/>
        <path id="Trazado_690791" data-name="Trazado 690791" d="M617.3,105.894l2.515-1.148c.31-.142.654.118.77.579l.229.91a.947.947,0,0,1-.349,1.082l-2.5,1.141c-.308.14-.652-.115-.771-.571l-.236-.907a.944.944,0,0,1,.343-1.087" transform="translate(-111.046 -18.847)" fill="#872d2d"/>
        <path id="Trazado_690792" data-name="Trazado 690792" d="M623.555,113.735s.1.205.235.526c-.734,1.456-1.583,3.951.625,3.738-.016.065-.016.136-.037.2-3.763.991-1.441-3.564-.823-4.462" transform="translate(-112.01 -20.472)" fill="#d27558"/>
        <path id="Trazado_690793" data-name="Trazado 690793" d="M622.228,121.457l5.615-.476s-.526,3.812-2.855,3.7-2.76-3.227-2.76-3.227" transform="translate(-112.001 -21.777)" fill="#2d171a"/>
        <path id="Trazado_690794" data-name="Trazado 690794" d="M627.122,122.433a6.65,6.65,0,0,0,.324-1.237l-4.682.4a4.661,4.661,0,0,0,.548,1.538Z" transform="translate(-112.097 -21.815)" fill="#faf0db"/>
        <path id="Trazado_690795" data-name="Trazado 690795" d="M630.26,113.392c-.082-1.381-.768-2.462-1.533-2.417s-1.316,1.2-1.234,2.582.768,2.462,1.532,2.417,1.317-1.2,1.235-2.582" transform="translate(-112.947 -19.975)" fill="#edb984"/>
        <path id="Trazado_690796" data-name="Trazado 690796" d="M620.817,113.5c-.082-1.381-.768-2.462-1.532-2.417s-1.316,1.2-1.234,2.582.768,2.462,1.532,2.417,1.317-1.2,1.235-2.582" transform="translate(-111.247 -19.994)" fill="#edb984"/>
        <path id="Trazado_690797" data-name="Trazado 690797" d="M640.32,113.205c.792-2.191.417-4.461-.837-5.069s-2.914.675-3.706,2.866-.417,4.46.837,5.069,2.913-.675,3.706-2.866" transform="translate(-114.365 -19.437)" fill="#edb984"/>
        <path id="Trazado_690798" data-name="Trazado 690798" d="M639.64,113.94c.5-1.393.265-2.837-.533-3.224s-1.853.429-2.357,1.823-.265,2.837.533,3.224,1.853-.43,2.357-1.823" transform="translate(-114.567 -19.912)" fill="#d27558"/>
        <path id="Trazado_690799" data-name="Trazado 690799" d="M638.929,115.219c.34-.94.179-1.913-.359-2.174s-1.25.289-1.589,1.229-.179,1.912.359,2.174,1.25-.289,1.589-1.229" transform="translate(-114.624 -20.336)" fill="#edb984"/>
        <path id="Trazado_690800" data-name="Trazado 690800" d="M613.826,129.521c.882-2.333,2.582-4.512,2.25-5.361s-3.628-1.372-3.986,1.167a27.068,27.068,0,0,0-.2,4.936Z" transform="translate(-110.134 -22.223)" fill="#edb984"/>
        <path id="Trazado_690801" data-name="Trazado 690801" d="M614.693,129.421c1.422-2.289,5.474-4.713,5.287-5.263-.178-.522-5.115,1.982-5.507,2.754-.408.8-.354,3.431.22,2.508" transform="translate(-110.557 -22.336)" fill="#edb984"/>
        <path id="Trazado_690802" data-name="Trazado 690802" d="M615.777,127.17c.449-4.462,3.373-7.148,3.311-7.61s-2.653,1.324-3.512,3.854.2,3.756.2,3.756" transform="translate(-110.743 -21.508)" fill="#edb984"/>
        <path id="Trazado_690803" data-name="Trazado 690803" d="M614.4,127.03c.025-4.443,2.9-8.07,2.774-8.606s-2.562,2.143-3.1,4.776a5.873,5.873,0,0,0,.325,3.829" transform="translate(-110.505 -21.304)" fill="#edb984"/>
        <path id="Trazado_690804" data-name="Trazado 690804" d="M612.562,127.584c.175-4.821,2.313-7.708,2.2-8.03s-1.828,1.539-2.375,3.825a6.39,6.39,0,0,0,.174,4.2" transform="translate(-110.186 -21.514)" fill="#edb984"/>
        <path id="Trazado_690805" data-name="Trazado 690805" d="M614.717,129.958l-.677,3.808-3.808-.677,1.334-2.793Z" transform="translate(-109.842 -23.392)" fill="#e8e4d4"/>
        <path id="Trazado_690806" data-name="Trazado 690806" d="M600.386,127.116l1.114,3.7-3.7,1.114-.071-3.094Z" transform="translate(-107.591 -22.881)" fill="#e8e4d4"/>
        <path id="Trazado_690807" data-name="Trazado 690807" d="M412.34,349.34c0-.988-22.574-1.789-50.42-1.789s-50.421.8-50.421,1.789,22.574,1.789,50.421,1.789,50.42-.8,50.42-1.789" transform="translate(-56.07 -62.559)" fill="#af8137"/>
        <path id="Trazado_690808" data-name="Trazado 690808" d="M297.238,357.522c0-.988-22.574-1.789-50.42-1.789s-50.421.8-50.421,1.789,22.575,1.789,50.421,1.789,50.42-.8,50.42-1.789" transform="translate(-35.351 -64.032)" fill="#af8137"/>
        <path id="Trazado_690809" data-name="Trazado 690809" d="M355.348,11.274c-7.666-7.879-13.842,1.7-13.842,1.7-4.472-1.065-18.953,11.5-22.573,25.979s10.009,26.619,28.748,19.378l3.833-1.064c8.517-4.259,1.916-9.125,7.665-19.8s3.833-18.313-3.833-26.192" transform="translate(-57.303 -1.47)" fill="#874232"/>
        <path id="Trazado_690810" data-name="Trazado 690810" d="M354.883,70.062c8.84,7.671,26.718,31.527,30.865,32.352,4.221.84,9.378-2.17,8.542-6.339-.818-4.075-25.916-30.867-31.3-33.758-5.19-2.787-12.779,3.69-8.107,7.744" transform="translate(-63.616 -11.096)" fill="#e8e4d4"/>
        <path id="Trazado_690811" data-name="Trazado 690811" d="M394.36,95.74c-.188-.935-1.663-3.074-3.876-5.838a8.333,8.333,0,0,1-4.973.631c-3.641-.724-7.176-19.257-25.547-30.752-3.766,1.165-8.308,7.084-5.01,9.946,8.84,7.671,26.719,31.527,30.865,32.352,4.222.84,9.378-2.17,8.542-6.339" transform="translate(-63.686 -10.761)" fill="#dbd4bd"/>
        <path id="Trazado_690812" data-name="Trazado 690812" d="M399.342,94.777c-3.442-1.077-8.063,1.42-10.323,5.578s-1.3,8.4,2.138,9.48,8.064-1.419,10.324-5.578,1.3-8.4-2.138-9.481" transform="translate(-69.803 -17.015)" fill="#b54b66"/>
        <path id="Trazado_690813" data-name="Trazado 690813" d="M391.528,93.634c9.164-20.255,30.035-40.56,30.035-40.56l1.1.8S407.084,88.727,400.71,96.27a19.3,19.3,0,0,1-2.823,2.759c-3.9,3.053-8.427-.822-6.358-5.4" transform="translate(-70.382 -9.553)" fill="#edb984"/>
        <path id="Trazado_690814" data-name="Trazado 690814" d="M402.6,88.523a19.263,19.263,0,0,1-2.936,2.64c-2.514,1.8-5.156.9-6.239-1.128-.673,1.291-1.309,2.586-1.895,3.882-2.07,4.573,2.454,8.449,6.358,5.4a19.292,19.292,0,0,0,2.823-2.759c5.938-7.027,19.859-37.73,21.739-41.907-5.422,10.5-15.17,28.783-19.851,33.877" transform="translate(-70.381 -9.836)" fill="#e79b69"/>
        <path id="Trazado_690815" data-name="Trazado 690815" d="M362.022,135.259l25.823,4.2c11.906,28.943-2.512,95.029-18.192,170.5h-1.942S346.417,205.737,346.79,179.234c.433-30.63,15.232-43.975,15.232-43.975" transform="translate(-62.421 -24.347)" fill="#563740"/>
        <path id="Trazado_690816" data-name="Trazado 690816" d="M372.071,184.658l8.539,4.091-7.3,127.885h.821l8.74-127.885,6.656-4.307c-5.364,1.85-11.311,1.414-17.452.216" transform="translate(-66.973 -33.2)" fill="#492e37"/>
        <path id="Trazado_690817" data-name="Trazado 690817" d="M359.3,202.851c2.016-31.926,17.311-44.659,17.311-44.659l14.553-5.911a54.892,54.892,0,0,0-3.315-12.819l-25.823-4.2s-14.8,13.345-15.232,43.975c-.374,26.5,20.921,130.725,20.921,130.725H369.4c-4.584-34.23-11.272-88.682-10.109-107.107" transform="translate(-62.421 -24.346)" fill="#492e37"/>
        <path id="Trazado_690818" data-name="Trazado 690818" d="M392.475,140.9s-24.467,6.379-40.2.073c8.982-32.88,6.465-42.751.939-65.324l11.79-.181s21.137,31.9,27.468,65.433" transform="translate(-63.41 -13.585)" fill="#e8e4d4"/>
        <path id="Trazado_690819" data-name="Trazado 690819" d="M367.552,143.729c-.372-1.241-.722-2.506-1.039-3.8C361.895,121.1,365.158,104.12,373.8,102a8.914,8.914,0,0,1,6.008.809,220.9,220.9,0,0,0-14.8-27.338l-11.791.182c5.527,22.574,8.043,32.445-.938,65.324a45.038,45.038,0,0,0,15.274,2.752" transform="translate(-63.41 -13.585)" fill="#dbd4bd"/>
        <path id="Trazado_690820" data-name="Trazado 690820" d="M381.211,88.508s-4.477,2.953-15.59,4.9a6.268,6.268,0,0,1-6.9-3.761l-9.4-24.675a3.783,3.783,0,0,1,3.262-5.09l3.973-.5a4.624,4.624,0,0,1,3.427.93,72.639,72.639,0,0,1,21.222,28.2" transform="translate(-62.833 -10.682)" fill="#e8e4d4"/>
        <path id="Trazado_690821" data-name="Trazado 690821" d="M371.623,91.581a7.378,7.378,0,0,1-7.239-3.492L350.453,62.664a5.407,5.407,0,0,1-.435-1.026,3.622,3.622,0,0,0-.69,3.749l9.147,26.478a6.268,6.268,0,0,0,6.9,3.761c5.355-.939,9.729-3.886,12.573-5.029-1.867.442-3.971.654-6.321.984" transform="translate(-62.834 -11.095)" fill="#dbd4bd"/>
        <path id="Trazado_690822" data-name="Trazado 690822" d="M345.045,65.743c-1.621,13.546-11.249,42.46-9.6,46.108s7.663,7.48,10.549,4.836,9.641-33.217,9.245-40.392-9.289-18.142-10.2-10.551" transform="translate(-60.346 -11.372)" fill="#e8e4d4"/>
        <path id="Trazado_690823" data-name="Trazado 690823" d="M339.568,103.812c-1.591-2.736,5.077-25.91,6.863-40.553-.695.207-1.2.973-1.387,2.5-1.62,13.546-11.249,42.46-9.6,46.108s7.663,7.48,10.55,4.836c1.082-.991,2.708-5.911,4.3-12.051-1.725,2.041-9.314,1.592-10.727-.839" transform="translate(-60.346 -11.387)" fill="#dbd4bd"/>
        <path id="Trazado_690824" data-name="Trazado 690824" d="M339.957,127.461c3.379.621,6.954-1.9,8.37-5.505,1.392-3.544.448-7.514-2.422-9.106-3.319-1.84-7.97.082-9.92,4.662-1.993,4.681.044,9.228,3.973,9.95" transform="translate(-60.338 -20.188)" fill="#b54b66"/>
        <path id="Trazado_690825" data-name="Trazado 690825" d="M363.285,349.221h11.521s.373-3.069-1.194-4.317c-3.188-2.54-10.327,4.317-10.327,4.317" transform="translate(-65.391 -61.981)" fill="#eae3d3"/>
        <path id="Trazado_690826" data-name="Trazado 690826" d="M382.991,349.034h-8.315s-.957-3.606-.105-5.073c1.732-2.985,8.42,5.073,8.42,5.073" transform="translate(-67.359 -61.793)" fill="#eae3d3"/>
        <path id="Trazado_690827" data-name="Trazado 690827" d="M366.939,68a2.788,2.788,0,0,0,.273-1.843,34.073,34.073,0,0,0-5.268-4.256,5.472,5.472,0,0,0-.615-.278c-.524-.443-1.056-.882-1.6-1.315a4.626,4.626,0,0,0-3.428-.93l-3.973.5a3.985,3.985,0,0,0-3.085,2.089c-.577.18-1.133.772-1.629,1.893.673.438,1.364.87,2.089,1.286,7.842,4.5,15.559,5.775,17.238,2.85" transform="translate(-62.57 -10.682)" fill="#dbd4bd"/>
        <path id="Trazado_690828" data-name="Trazado 690828" d="M359.4,56.51l-4.891-14.074-6.952-3.857,3.97,18.488,8.261,3Z" transform="translate(-62.56 -6.944)" fill="#d27558"/>
        <path id="Trazado_690829" data-name="Trazado 690829" d="M363.954,49.719c2.873-11.674-.175-27.345-4.437-28.96-8.379-3.175-13.017,4.881-12.573,11.435,1.091,16.11,17.01,17.525,17.01,17.525" transform="translate(-62.445 -3.608)" fill="#edb984"/>
        <path id="Trazado_690830" data-name="Trazado 690830" d="M349.388,15.089c6.411,3.025,5.871,14.651-3.049,26.707-8.933,12.074-11.21-13.657-7.541-19.326,3.646-5.634,10.589-7.381,10.589-7.381" transform="translate(-60.682 -2.716)" fill="#874232"/>
        <path id="Trazado_690831" data-name="Trazado 690831" d="M346.189,40.428c-1.117-1.959-1.124-4.221-.018-5.052s2.909.083,4.026,2.042,1.124,4.221.017,5.052-2.909-.083-4.025-2.042" transform="translate(-62.162 -6.312)" fill="#edb984"/>
        <path id="Trazado_690832" data-name="Trazado 690832" d="M347.124,40.225c-.772-1.355-.777-2.918-.012-3.492s2.011.057,2.784,1.411.777,2.918.011,3.493-2.011-.057-2.783-1.412" transform="translate(-62.378 -6.574)" fill="#d27558"/>
        <path id="Trazado_690833" data-name="Trazado 690833" d="M348.436,41.965c-.544-.938-.553-2.013-.021-2.4s1.4.06,1.947,1,.553,2.014.021,2.4-1.4-.06-1.948-1" transform="translate(-62.644 -7.097)" fill="#edb984"/>
        <path id="Trazado_690834" data-name="Trazado 690834" d="M427.29,53.692c2.558-1.31,4.718-3.631,5.822-3.291s2.6,4.412-.344,5.086a30.322,30.322,0,0,1-5.854.687Z" transform="translate(-76.844 -9.066)" fill="#edb984"/>
        <path id="Trazado_690835" data-name="Trazado 690835" d="M427.5,52.167c2.364-1.982,4.2-7.265,4.9-7.08.672.176-1.022,6.572-1.843,7.132-.851.581-4.012.747-3.059-.052" transform="translate(-76.918 -8.115)" fill="#edb984"/>
        <path id="Trazado_690836" data-name="Trazado 690836" d="M429.328,51.139c5.22-.959,7.664-4.854,8.232-4.818s-.885,3.435-3.684,4.735-4.548.084-4.548.084" transform="translate(-77.279 -8.338)" fill="#edb984"/>
        <path id="Trazado_690837" data-name="Trazado 690837" d="M429.6,53.013c5.31-.427,8.89-4.353,9.566-4.235s-1.888,3.392-4.9,4.3a7.084,7.084,0,0,1-4.668-.063" transform="translate(-77.328 -8.779)" fill="#edb984"/>
        <path id="Trazado_690838" data-name="Trazado 690838" d="M429.587,55.532c5.723-.648,8.613-3.579,9.028-3.469.4.1-1.359,2.422-3.95,3.31a7.568,7.568,0,0,1-5.078.158" transform="translate(-77.326 -9.371)" fill="#edb984"/>
        <path id="Trazado_690839" data-name="Trazado 690839" d="M358.927,35.552c-.069-1.269-.757-2.255-1.538-2.2s-1.366,1.136-1.3,2.412.763,2.258,1.547,2.2,1.355-1.14,1.287-2.408" transform="translate(-64.096 -6.003)" fill="#473939"/>
        <path id="Trazado_690840" data-name="Trazado 690840" d="M367.994,34.107c-.066-1.045-.664-1.873-1.337-1.849s-1.169.9-1.1,1.946.671,1.876,1.344,1.846,1.161-.9,1.095-1.943" transform="translate(-65.799 -5.806)" fill="#473939"/>
        <path id="Trazado_690841" data-name="Trazado 690841" d="M353.166,32.422l-.176-.248a.993.993,0,0,1,.259-1.375l3.72-2.655a1,1,0,0,1,1.4.2l.108.153Z" transform="translate(-63.507 -5.03)" fill="#7f4138"/>
        <path id="Trazado_690842" data-name="Trazado 690842" d="M363.229,36.591s-.117.255-.269.654c1.2,1.756,2.68,4.78-.448,4.653.03.079.039.167.076.243,5.371.985,1.61-4.473.641-5.549" transform="translate(-65.252 -6.586)" fill="#d27558"/>
        <path id="Trazado_690843" data-name="Trazado 690843" d="M363.582,47.017c-1.224.117-2.272-.818-2.947-2.321l-.626.187c.663,1.692,1.788,2.74,3.1,2.615a2.139,2.139,0,0,0,1.515-.879,2.11,2.11,0,0,1-1.037.4" transform="translate(-64.801 -8.045)" fill="#d27558"/>
        <path id="Trazado_690844" data-name="Trazado 690844" d="M363.738,28.25l.021-.156a.571.571,0,0,1,.817-.512L367.794,29a1.163,1.163,0,0,1,.617,1.163l-.021.158Z" transform="translate(-65.473 -4.954)" fill="#7f4138"/>
        <path id="Trazado_690845" data-name="Trazado 690845" d="M362.619,49.637c.04-.2-.319-.443-.8-.54s-.91-.016-.95.185.319.442.8.54.91.015.95-.185" transform="translate(-64.955 -8.83)" fill="#d27558"/>
        <path id="Trazado_690846" data-name="Trazado 690846" d="M338.088,113.568c7.645-18,26.815-35.215,26.815-35.215l1.182.813S353.307,109.149,347.5,115.7a15.336,15.336,0,0,1-2.145,2.018c-3.741,2.869-9.087.133-7.267-4.152" transform="translate(-60.79 -14.104)" fill="#edb984"/>
        <path id="Trazado_690847" data-name="Trazado 690847" d="M346.38,112.533a22.813,22.813,0,0,1-2.441,2.374c-2.207,1.833-4.67,1.785-6.2.634a4.734,4.734,0,0,0,7.58,3.5,15.324,15.324,0,0,0,2.144-2.017c5.807-6.554,18.626-37.719,18.626-37.719l-.247-.171c-4.321,8.438-14.479,27.81-19.462,33.4" transform="translate(-60.793 -14.245)" fill="#e79b69"/>
        <path id="Trazado_690848" data-name="Trazado 690848" d="M366.967,82.091c.822-2.869.67-6.3,1.654-6.786s4.829,1.854,3.3,4.463a27.646,27.646,0,0,1-3.487,4.646Z" transform="translate(-66.054 -13.543)" fill="#edb984"/>
        <path id="Trazado_690849" data-name="Trazado 690849" d="M366.219,80.855c.223-3.291-2.212-8.953-1.6-9.291.577-.321,3.879,6.168,3.712,7.2-.174,1.076-2.2,3.414-2.108,2.088" transform="translate(-65.613 -12.879)" fill="#edb984"/>
        <path id="Trazado_690850" data-name="Trazado 690850" d="M366.744,78.245c2.868-4.431,1.814-9.367,2.223-9.733s1.79,3.468.8,6.5-3.022,3.237-3.022,3.237" transform="translate(-66.014 -12.328)" fill="#edb984"/>
        <path id="Trazado_690851" data-name="Trazado 690851" d="M368.143,79.406c3.3-4.052,2.993-9.8,3.532-10.177s1.081,4.131-.328,6.979a6.128,6.128,0,0,1-3.2,3.2" transform="translate(-66.266 -12.457)" fill="#edb984"/>
        <path id="Trazado_690852" data-name="Trazado 690852" d="M369.768,81.593c3.425-4.522,3.344-8.969,3.7-9.167s.765,2.958-.373,5.5a6.633,6.633,0,0,1-3.328,3.667" transform="translate(-66.558 -13.035)" fill="#edb984"/>
        <path id="Trazado_690853" data-name="Trazado 690853" d="M303.883,78.538c1.57,1.133,2.267,1.65,3.87,2.868l4.634,1.6,3.7,2.708s-1.758,8.48-7.32,12.061l-9.979-3.93c-.061-8.336,5.1-15.308,5.1-15.308" transform="translate(-53.781 -14.137)" fill="#e79b69"/>
        <path id="Trazado_690854" data-name="Trazado 690854" d="M313.076,89.451c-2.23-1.207-3.9-7.883-9-7.764a10.481,10.481,0,0,0-1.473.142,26.371,26.371,0,0,1,1.969-3.291c1.57,1.133,2.267,1.65,3.869,2.868l4.635,1.6,3.7,2.708s-1.758,8.48-7.32,12.061l-3.066-4.042c2.881-1.493,6.664-1.1,6.692-4.284" transform="translate(-54.468 -14.137)" fill="#edaa72"/>
        <path id="Trazado_690855" data-name="Trazado 690855" d="M318.246,87.035c2.134-6.16,3.739-12.125,3.653-12.664s-2.592-1.652-2.887-1.411a60.212,60.212,0,0,0-4.531,9.522c-.057,1.344,2.513,4.22,3.765,4.553" transform="translate(-56.606 -13.127)" fill="#edb984"/>
        <path id="Trazado_690856" data-name="Trazado 690856" d="M309.649,79.037c-.583,1.592-2.243,5.364-2.13,5.829.136.562,2.956,2.061,3.749,1.54a28.638,28.638,0,0,0,2.763-5.7,7.194,7.194,0,0,0-4.383-1.665" transform="translate(-55.353 -14.224)" fill="#edb984"/>
        <path id="Trazado_690857" data-name="Trazado 690857" d="M311.633,86.333c.11,0,.218-.012.326-.021a5.29,5.29,0,0,1-.69,1.1c-.793.521-3.614-.979-3.749-1.54a3.9,3.9,0,0,1,.33-1.25,4.5,4.5,0,0,0,3.783,1.708" transform="translate(-55.353 -15.232)" fill="#edaa72"/>
        <path id="Trazado_690858" data-name="Trazado 690858" d="M303.89,78.253c-.584,1.59-2.236,5.38-2.134,5.82.124.53,2.827,1.734,3.6,1.161A31.268,31.268,0,0,0,308.1,79.48a6.326,6.326,0,0,0-4.211-1.227" transform="translate(-54.315 -14.076)" fill="#edb984"/>
        <path id="Trazado_690859" data-name="Trazado 690859" d="M304.154,83.047a6.916,6.916,0,0,0,2.369.785,12.327,12.327,0,0,1-1.168,2.084c-.772.573-3.477-.631-3.6-1.161a12.462,12.462,0,0,1,.924-2.768,7.055,7.055,0,0,0,1.475,1.061" transform="translate(-54.315 -14.757)" fill="#edaa72"/>
        <path id="Trazado_690860" data-name="Trazado 690860" d="M297.506,95.418l12.963,3.6a10.638,10.638,0,0,0-1.779,6.743l-12.489.294Z" transform="translate(-53.316 -17.175)" fill="#edb984"/>
        <path id="Trazado_690861" data-name="Trazado 690861" d="M296.2,106.187l1.018-10.037c1.9,9.389,10.028,7.02,12.516,4.262a10.906,10.906,0,0,0-1.045,5.48Z" transform="translate(-53.316 -17.307)" fill="#edb984"/>
        <path id="Trazado_690862" data-name="Trazado 690862" d="M305.969,97.152c1.6-.962,6.363-2.282,7.15-1.763.765.5.169,2.224-.816,3.406-1.314,1.578-3.991,2.733-5.6,1.991-1.707-.788-2.926-2.32-.734-3.634" transform="translate(-54.862 -17.149)" fill="#edb984"/>
        <path id="Trazado_690863" data-name="Trazado 690863" d="M300,83.857l3.726,3.984-.947,2.4c2.974,2.764,1.672,9.337-3.238,8.321-4.124-.853-3.237-8.563-3.228-9.429s3.105-5.3,3.688-5.273" transform="translate(-53.321 -15.094)" fill="#edb984"/>
        <path id="Trazado_690864" data-name="Trazado 690864" d="M296.312,89.13c.007-.868,3.105-5.3,3.688-5.273l3.726,3.984-.946,2.4c.1.091.189.185.277.284a3.709,3.709,0,0,0-4.189-.852c-1.895.937-2.57,3.567-1.507,5.874,1,2.18,3.2,3.291,5.034,2.617a3.853,3.853,0,0,1-2.853.4c-4.125-.853-3.237-8.563-3.229-9.429" transform="translate(-53.321 -15.094)" fill="#edaa72"/>
        <path id="Trazado_690865" data-name="Trazado 690865" d="M303.4,83.708c2.986,3.515,7.058,2.848,7.426,2.993a2.022,2.022,0,0,1-.022,2.678c-2.968,2.88-7.634-.249-7.634-.249s-3.188-3.033-3.117-4.638c.036-.8,2.011-1.48,3.347-.784" transform="translate(-54.009 -15.015)" fill="#edb984"/>
        <path id="Trazado_690866" data-name="Trazado 690866" d="M303.9,104.244c2.131,16.945-3.292,47.9-7.19,51.37s-24.837-3.782-27.521-10.471,23-45.517,23-45.517Z" transform="translate(-48.419 -17.933)" fill="#edb984"/>
        <path id="Trazado_690867" data-name="Trazado 690867" d="M271.891,135.865c5.239,2.816,10.546,4.444,12.606,3.159,3.5-2.179,19.41-33.766,19.41-33.766,2.131,16.945-3.292,47.9-7.19,51.37s-24.837-3.782-27.521-10.471c-.671-1.672.525-5.5,2.695-10.291" transform="translate(-48.422 -18.946)" fill="#e79b69"/>
        <path id="Trazado_690868" data-name="Trazado 690868" d="M210.864,38.28a12.122,12.122,0,0,1-.415-11.809c3.2-6.668,10.838-4.028,10.838-4.028a13.635,13.635,0,0,1,13.059-2.359c7.5,2.641,6.251,8.893,6.251,8.893,1.528.973,4.3,7.086-.28,12.921L222.807,64.957s-14.725-9.589-15.557-16.675,3.614-10,3.614-10" transform="translate(-37.286 -3.476)" fill="#7c4735"/>
        <path id="Trazado_690869" data-name="Trazado 690869" d="M278.8,327.35h-2.223l-31.1-108.5L295.494,206.3s7.77,57.1-16.693,121.053" transform="translate(-44.186 -37.133)" fill="#6a6ac7"/>
        <path id="Trazado_690870" data-name="Trazado 690870" d="M263.678,216.035c14.777,17.862,15.017,64.794,14.585,113.067h-1.684l-31.1-108.5Z" transform="translate(-44.186 -38.886)" fill="#5656b7"/>
        <path id="Trazado_690871" data-name="Trazado 690871" d="M225.263,327.674H223.04l-3.314-113.823,60.76-5.7s-10.4,56.381-55.223,119.522" transform="translate(-39.551 -37.467)" fill="#6a6ac7"/>
        <path id="Trazado_690872" data-name="Trazado 690872" d="M230.052,234.75l-5.537,90.775h-1.476L219.725,211.7,289.8,196.209a98.327,98.327,0,0,1,2.072,25.638c-13.837.867-36.94,6.49-61.818,12.9" transform="translate(-39.551 -35.318)" fill="#5656b7"/>
        <path id="Trazado_690873" data-name="Trazado 690873" d="M291.383,192.916c-27.51,9.72-75.86,18.047-75.86,18.047s-21.1-93.643-8.316-111.98,27.265-16.018,36.255-12.316c27.629,11.38,45.474,55.685,47.92,106.248" transform="translate(-36.557 -15.138)" fill="#f7e4bc"/>
        <path id="Trazado_690874" data-name="Trazado 690874" d="M245.308,86.67c1.21.5,2.394,1.082,3.565,1.7-2.535,3.78-11.875,6.589-23.041,6.586a57.429,57.429,0,0,1-12.492-1.305c11.628-12.463,23.97-10.279,31.968-6.985" transform="translate(-38.401 -15.14)" fill="#ecd3a4"/>
        <path id="Trazado_690875" data-name="Trazado 690875" d="M207.208,101.989c5.161-7.4,15.086,20.411,30.852,59.791,7.51,18.759,22.674,31.351,34.614,39.819-26.406,7.074-57.151,12.37-57.151,12.37s-21.1-93.643-8.316-111.98" transform="translate(-36.557 -18.143)" fill="#ecd3a4"/>
        <path id="Trazado_690876" data-name="Trazado 690876" d="M245.693,86.669a42.188,42.188,0,0,1,7.118,3.8c1.2,5.075.48,12.335-1.366,16.024-14.2-1.347-27.066-8.561-35.964-14.622,11.1-10.471,22.616-8.333,30.211-5.2" transform="translate(-38.787 -15.139)" fill="#b1405c"/>
        <path id="Trazado_690877" data-name="Trazado 690877" d="M246.376,86.67c.96.4,1.906.84,2.841,1.314,2.431,3.012,2.07,11.154.28,14.729-12.662-1.2-23.9-8.748-30.224-13.435,10.1-7.457,20.215-5.445,27.1-2.608" transform="translate(-39.469 -15.14)" fill="#edb984"/>
        <path id="Trazado_690878" data-name="Trazado 690878" d="M227.732,94.945a99.157,99.157,0,0,1-8.459-5.668c10.1-7.457,20.215-5.444,27.1-2.608.96.4,1.906.84,2.841,1.314a4.994,4.994,0,0,1,.48.736c-2.784,3.511-11.51,6.1-21.965,6.225" transform="translate(-39.469 -15.14)" fill="#e79b69"/>
        <path id="Trazado_690879" data-name="Trazado 690879" d="M246.071,82.245l-2.536-12.237-19.727-8.756L221.957,83.69c15.948,5.188,22.867,3.9,24.114-1.445" transform="translate(-39.952 -11.025)" fill="#d27558"/>
        <path id="Trazado_690880" data-name="Trazado 690880" d="M249.148,73.518c-8.4,1.893-20.467-3.521-22.1-5.482s-6.227-20.649-4.708-25.116S239,35.428,241.308,37.348c7.136,5.944,9.909,25.616,7.84,36.17" transform="translate(-39.966 -6.617)" fill="#edb984"/>
        <path id="Trazado_690881" data-name="Trazado 690881" d="M206.419,100.873c-15.986,25.439-15.007,60.146,5.666,77.078l20.494-26.6c-7.575-6.217-10.143-22.718-9.585-36.241.5-12.131-13.338-19.388-16.575-14.237" transform="translate(-35.171 -17.855)" fill="#f7e4bc"/>
        <path id="Trazado_690882" data-name="Trazado 690882" d="M206.419,100.182c.386-.615,2.87-4.392,4.435-4.764,3.032-.721,2.83,5.3,1.729,8.218-8.245,21.808-5.714,46.658,8.921,61.4l-9.418,12.224c-20.673-16.931-21.652-51.639-5.666-77.078" transform="translate(-35.171 -17.165)" fill="#ecd3a4"/>
        <path id="Trazado_690883" data-name="Trazado 690883" d="M282.029,356.233l10.293,0s-6.34-4.69-8.728-4.4-1.565,4.4-1.565,4.4" transform="translate(-50.741 -63.328)" fill="#ecd3a4"/>
        <path id="Trazado_690884" data-name="Trazado 690884" d="M226.863,356.19l-9.117,0s3.558-4.847,5.8-4.547,3.316,4.549,3.316,4.549" transform="translate(-39.194 -63.293)" fill="#ecd3a4"/>
        <path id="Trazado_690885" data-name="Trazado 690885" d="M232.264,158.127c-11.026-3.578-24.735.443-28.016,13.7s15.641,29.506,25.478,15.352,2.538-29.056,2.538-29.056" transform="translate(-36.697 -28.239)" fill="#b1405c"/>
        <path id="Trazado_690886" data-name="Trazado 690886" d="M262.232,157.834c-11.117,12.965-32.485,30.235-37.632,31.085-12.2,2.013-22.417-17.81-10.739-27.418,5.566-4.58,43.813-16.179,43.813-16.179Z" transform="translate(-37.57 -26.158)" fill="#edb984"/>
        <path id="Trazado_690887" data-name="Trazado 690887" d="M212.681,165.341c2.132,4,5.7,6.956,10.146,7.2,4.488.248,39.407-11.962,39.407-11.962-11.117,12.965-32.485,30.235-37.632,31.085-11.754,1.939-21.662-16.391-11.92-26.325" transform="translate(-37.571 -28.905)" fill="#e79b69"/>
        <path id="Trazado_690888" data-name="Trazado 690888" d="M277.9,255.146l10.283-6.853-8.792,2.531-9.833-2.832Z" transform="translate(-48.52 -44.639)" fill="#5656b7"/>
        <path id="Trazado_690889" data-name="Trazado 690889" d="M222.8,56.256l6.408.374S228.463,38,232.561,36.366s-3.65-7-9.909-2.312.145,22.2.145,22.2" transform="translate(-39.583 -5.791)" fill="#7c4735"/>
        <path id="Trazado_690890" data-name="Trazado 690890" d="M220.657,60.531c-1.606-2.44-1.781-5.161-.389-6.077s3.822.318,5.429,2.758,1.78,5.161.389,6.077-3.823-.318-5.429-2.758" transform="translate(-39.479 -9.747)" fill="#edb984"/>
        <path id="Trazado_690891" data-name="Trazado 690891" d="M221.486,60.491c-1.037-1.576-1.15-3.333-.251-3.925s2.468.206,3.506,1.782,1.15,3.334.251,3.925-2.468-.206-3.506-1.782" transform="translate(-39.713 -10.147)" fill="#d27558"/>
        <path id="Trazado_690892" data-name="Trazado 690892" d="M223.355,62.058c-.622-.943-.689-2-.15-2.349s1.479.122,2.1,1.065.69,2,.151,2.349-1.48-.122-2.1-1.065" transform="translate(-40.111 -10.726)" fill="#edb984"/>
        <path id="Trazado_690893" data-name="Trazado 690893" d="M245.784,54.741c-.177-1.159-.894-2.02-1.6-1.927s-1.138,1.11-.962,2.268.895,2.021,1.6,1.927,1.139-1.109.962-2.268" transform="translate(-43.773 -9.505)" fill="#5a4949"/>
        <path id="Trazado_690894" data-name="Trazado 690894" d="M244.272,46.981,239.754,48.2a.676.676,0,0,0-.489.845l.415,1.372a.726.726,0,0,0,.887.472l4.517-1.223a.676.676,0,0,0,.489-.845l-.415-1.372a.727.727,0,0,0-.887-.472" transform="translate(-43.063 -8.452)" fill="#7c4735"/>
        <path id="Trazado_690895" data-name="Trazado 690895" d="M251.887,52.64c-.335-1.123-.864-1.967-1.182-1.886s-.3,1.056.033,2.179.863,1.967,1.181,1.887.3-1.057-.032-2.18" transform="translate(-45.086 -9.135)" fill="#5a4949"/>
        <path id="Trazado_690896" data-name="Trazado 690896" d="M252.254,46l-2.327.3c-.2.025-.319.35-.276.727l.164,1.421c.043.376.237.662.433.637l2.326-.3c.2-.025.319-.35.276-.727l-.164-1.42c-.043-.376-.237-.662-.433-.637" transform="translate(-44.936 -8.279)" fill="#7c4735"/>
        <path id="Trazado_690897" data-name="Trazado 690897" d="M249.494,55.575c3.152,2.734,4.841,4.672,4.407,6.034A2.463,2.463,0,0,1,251.887,63l.025.075s2.839.006,3.393-1.351-1.726-3.286-5.811-6.153" transform="translate(-44.909 -10.004)" fill="#d27558"/>
        <path id="Trazado_690898" data-name="Trazado 690898" d="M252.415,67.33l-6.676.335s-1.007,4.226,3.28,4.426c3.245.151,3.4-4.762,3.4-4.762" transform="translate(-44.215 -12.119)" fill="#3e2d34"/>
        <path id="Trazado_690899" data-name="Trazado 690899" d="M252.024,67.711l-5.527.278s-.834,3.5,2.716,3.665c2.686.125,2.811-3.943,2.811-3.943" transform="translate(-44.354 -12.188)" fill="#f9eddb"/>
        <path id="Trazado_690900" data-name="Trazado 690900" d="M284.123,149.355l-2.5,1.725-1.623-.718.6-2.01Z" transform="translate(-50.401 -26.703)" fill="#edb984"/>
        <path id="Trazado_690901" data-name="Trazado 690901" d="M278.16,149.75l1.952,4.385s-8.151,6.114-15.455,3.954L259.794,146.1c1.676-1.49,1.849-5.024,3.867-4.828,4.357.423,6.117-1.4,8.565-1.9,2-.414,5.934,10.377,5.934,10.377" transform="translate(-46.763 -25.085)" fill="#edb984"/>
        <path id="Trazado_690902" data-name="Trazado 690902" d="M274.558,152.408c.8-1.986,4.592-.5,4.592-.5L281.1,156.3s-8.151,6.115-15.455,3.954l-.354-4.315c3.229-.935,10.034,2.4,9.266-3.528" transform="translate(-47.753 -27.248)" fill="#edb984"/>
        <path id="Trazado_690903" data-name="Trazado 690903" d="M268.8,141.1c2.043-.444,3.388-1.385,5.044-1.728,2-.414,5.934,10.378,5.934,10.378l1.952,4.385a26.482,26.482,0,0,1-7.523,3.7c2.171-2.293,2.161-13.4-5.406-16.736" transform="translate(-48.385 -25.085)" fill="#edb984"/>
        <path id="Trazado_690904" data-name="Trazado 690904" d="M281.162,143.79c-.81-.08-7.109,2.817-7.469,3.315-.435.6.531,4.182,1.73,4.362.53.08,7-1.991,7.788-3.2.467-.716-1.279-4.406-2.048-4.482" transform="translate(-49.246 -25.882)" fill="#edb984"/>
        <path id="Trazado_690905" data-name="Trazado 690905" d="M277.455,137.952c-.708-.357-6.557,2.561-6.845,3.047-.349.587.857,4.079,1.98,4.254.5.078,6.216-2.143,6.842-3.277.4-.725-.349-3.2-1.977-4.025" transform="translate(-48.699 -24.826)" fill="#edb984"/>
        <path id="Trazado_690906" data-name="Trazado 690906" d="M261.975,144.607l4.562,14.714-8.207,2.813-5.91-11.168Z" transform="translate(-45.436 -26.029)" fill="#edb984"/>
        <path id="Trazado_690907" data-name="Trazado 690907" d="M267.033,159.807c-.3-.058-.61-.124-.917-.2-5.333-1.366-8.971-5.378-8.124-8.96.522-2.208,2.628-3.734,5.414-4.263l4.111,13.259Z" transform="translate(-46.417 -26.349)" fill="#edb984"/>
        <path id="Trazado_690908" data-name="Trazado 690908" d="M268.152,157.163c1.457.588,3.983,2.683,4.091,3.59.1.881-2.109,1.028-3.366,1.036a4.628,4.628,0,0,1-4.138-3.074c-.442-1.756,1.422-2.356,3.413-1.552" transform="translate(-47.641 -28.226)" fill="#edb984"/>
        <path id="Trazado_690909" data-name="Trazado 690909" d="M260.7,136l4.945,1.875-.638,2.582c3.729,3.784.857,13.913-4.853,12.863-2.076-.382-5.837-4.458-4.259-6.469,1.889-2.408,1.685-5.855,1.856-6.336A25.841,25.841,0,0,1,260.7,136" transform="translate(-45.993 -24.48)" fill="#edb984"/>
        <path id="Trazado_690910" data-name="Trazado 690910" d="M265.644,137.876l-.629,2.545a2.9,2.9,0,0,0-1.456-.358c-2.431.057-4.675,3.02-5.011,6.619s1.363,6.471,3.795,6.413c.077,0,.154-.015.231-.022a4.211,4.211,0,0,1-2.421.248c-2.076-.382-5.837-4.458-4.259-6.469,1.889-2.408,1.685-5.855,1.855-6.336A25.884,25.884,0,0,1,260.7,136Z" transform="translate(-45.993 -24.48)" fill="#edb984"/>
        <path id="Trazado_690911" data-name="Trazado 690911" d="M260.911,135.585c2.714-3.633.876-7.7.919-8.1a2.081,2.081,0,0,1,2.752-.519c3.978,2.489,2.269,8.945,1.744,9.948,0,0-6.375,3.065-5.415-1.328" transform="translate(-46.946 -22.799)" fill="#edb984"/>
        <path id="Trazado_690912" data-name="Trazado 690912" d="M282.331,156.833c2.247-.716,10.377-3.9,10.859-4.372.582-.568.116-3.835-.991-4.159-.489-.143-8.994,2.35-10.376,2.964-2.077,1.445-2.043,5.974.508,5.567" transform="translate(-50.46 -26.693)" fill="#edb984"/>
        <path id="Trazado_690913" data-name="Trazado 690913" d="M657.932,66.191c.125-.27,1.6-3.282,1.6-3.282s-.19-2.542,3.233-2.726l-3.968-3.308a12.378,12.378,0,0,0-4.357,4.025c-.246.453.667,5.9,1,6.068a4.8,4.8,0,0,0,2.492-.777" transform="translate(-117.791 -10.237)" fill="#e79b69"/>
        <path id="Trazado_690914" data-name="Trazado 690914" d="M650.471,55.781c1.185-.808,6.109-.257,6.109-.257l2.629,3.587-1.173,2.222s-4.511-2.066-5.316-1.837-2.69,2.877-3.336,3.516c-.978.968-3.565,2.084-3.9,1.875a4.793,4.793,0,0,1-.891-2.581c.246-.412,2.347-1.72,2.59-2s2.112-3.727,3.291-4.53" transform="translate(-116.021 -9.961)" fill="#edaa72"/>
        <path id="Trazado_690915" data-name="Trazado 690915" d="M656.928,55.158c-4.852-3.672-8.764-6.476-8.979-6.946s1.127-2.714,1.479-2.686a61.608,61.608,0,0,1,8.6,5.31c.744,1.024-.318,3.377-1.105,4.323" transform="translate(-116.627 -8.194)" fill="#edb984"/>
        <path id="Trazado_690916" data-name="Trazado 690916" d="M670.747,67.992l-10.775,3.5,1.5,6.962,11.671-2.371Z" transform="translate(-118.795 -12.239)" fill="#edaa72"/>
        <path id="Trazado_690917" data-name="Trazado 690917" d="M657.676,61.991c4.575-1.228,1.642-5.28.613-6.053l1.011-4.423s6.707,4.186,8.421,6.659,2.645,7.038,2.645,7.038a6.5,6.5,0,0,1-4.482,6.621Z" transform="translate(-118.382 -9.273)" fill="#edb984"/>
        <path id="Trazado_690918" data-name="Trazado 690918" d="M660.22,62.293c1-1.134.42-3.132-1.095-4.674a4.613,4.613,0,0,0-.912-.727l0,.015c1.03.772,3.642,4.762-.972,6.116l.487.091a2.9,2.9,0,0,0,2.495-.82" transform="translate(-118.303 -10.241)" fill="#edaa72"/>
        <path id="Trazado_690919" data-name="Trazado 690919" d="M652.42,68.641l-1.538-3.731a16.442,16.442,0,0,1,7.431-.38c5.171,1.141,10.862,5.349,7.115,9.08-2.434,2.424-8.239-1.7-8.63-2.445a5.087,5.087,0,0,0-4.378-2.524" transform="translate(-117.159 -11.567)" fill="#edb984"/>
        <path id="Trazado_690920" data-name="Trazado 690920" d="M666.49,70.12a3.515,3.515,0,0,1-1.043,2.955c-1.792,1.566-5.247.547-7.717-2.278-1.884-2.154-4.916-4.089-2.113-6.535a17.99,17.99,0,0,0-4.735.647l1.538,3.731a5.088,5.088,0,0,1,4.378,2.523c.391.75,6.2,4.87,8.63,2.446a3.331,3.331,0,0,0,1.062-3.49" transform="translate(-117.159 -11.567)" fill="#edaa72"/>
        <path id="Trazado_690921" data-name="Trazado 690921" d="M652.151,65.4a1.812,1.812,0,0,1-.674,3.341,10.571,10.571,0,0,0-4.4,2.045c-.309.116-1.546-.856-1.53-1.655.067-3.459,4.7-4.115,4.7-4.115a3.6,3.6,0,0,1,1.9.384" transform="translate(-116.199 -11.701)" fill="#edb984"/>
        <path id="Trazado_690922" data-name="Trazado 690922" d="M754.647,30.8c-3.506-11.762-17.74-17.606-24.383-10.264s-.487,16.782-.487,16.782Z" transform="translate(-130.892 -3.112)" fill="#904930"/>
        <path id="Trazado_690923" data-name="Trazado 690923" d="M747.889,72.8c-27.436-8.958-63.509,22.8-63.509,22.8l-4.846,36.627Z" transform="translate(-122.316 -12.817)" fill="#f0dcb6"/>
        <path id="Trazado_690924" data-name="Trazado 690924" d="M749.664,83.816c-27.436-8.958-63.9,23.041-63.9,23.041l-.562,30.8Z" transform="translate(-123.336 -14.802)" fill="#e2ca9f"/>
        <path id="Trazado_690925" data-name="Trazado 690925" d="M681.256,101.283c6.844,1.967,10.929,12.993,9.124,24.628s-8.816,19.472-15.66,17.505-10.929-12.994-9.124-24.628,8.816-19.473,15.66-17.505" transform="translate(-119.73 -18.176)" fill="#d75c74"/>
        <path id="Trazado_690926" data-name="Trazado 690926" d="M667.108,67.2s23.649,30.241,15.6,57.8l-5.3,8.674c-12.269-2.561-18.25-13.282-18.823-18.779s2.331-39.689,2.331-39.689Z" transform="translate(-118.533 -12.097)" fill="#edb984"/>
        <path id="Trazado_690927" data-name="Trazado 690927" d="M665.553,89.072c3.634,14.973,10.392,25.551,15.093,23.627,1.465-.6,2.558-2.344,3.258-4.914a45.934,45.934,0,0,1-1.19,18.976l-5.3,8.674c-12.268-2.561-18.25-13.282-18.823-18.779s2.331-39.689,2.331-39.689a71.235,71.235,0,0,1,4.63,12.1" transform="translate(-118.533 -13.854)" fill="#e79b69"/>
        <path id="Trazado_690928" data-name="Trazado 690928" d="M705.5,181.425l62.021,11.9s-4.553,74.971-24.862,139.291h-1.666s-45.962-68.027-47.293-76.559c-2.462-15.767,11.8-74.631,11.8-74.631" transform="translate(-124.815 -32.657)" fill="#7b9bc2"/>
        <path id="Trazado_690929" data-name="Trazado 690929" d="M729.611,244.907s7.956,48.947,17.245,97.495l-.289.2-21.728-69.524Z" transform="translate(-130.471 -44.083)" fill="#658bab"/>
        <path id="Trazado_690930" data-name="Trazado 690930" d="M720.691,208.024c-9.9-3.036-18.409,1.877-22.656,11.921,3.119-18.677,6.561-40.091,6.561-40.091l65.553,13.117s-6.348,75.04-26.657,139.36h-.937c3.208-13.433,22.1-110.821-21.864-124.307" transform="translate(-125.646 -32.374)" fill="#658bab"/>
        <path id="Trazado_690931" data-name="Trazado 690931" d="M770.209,188.935c-38.835.827-66.783-22.068-66.783-22.068s-9.592-73.667,13.651-88.84,33-9.933,48.3,4.138,4.829,106.771,4.829,106.771" transform="translate(-126.264 -12.394)" fill="#f0dcb6"/>
        <path id="Trazado_690932" data-name="Trazado 690932" d="M767.032,132.272c-3.984-42.354,5.681-50.872,9.518-47.343C791.849,99,781.379,191.7,781.379,191.7a100.242,100.242,0,0,1-17.856-1.229c3.532-21.438,5.536-36.649,3.509-58.2" transform="translate(-137.434 -15.158)" fill="#e2ca9f"/>
        <path id="Trazado_690933" data-name="Trazado 690933" d="M765.13,74.238c36.592,12.986,62.869,71.323,54.909,81.811l-35.555-9.989c-6.126-7.731-15.254-17.833-18.269-26.721-7.745-22.83-1.085-45.1-1.085-45.1" transform="translate(-137.244 -13.363)" fill="#f0dcb6"/>
        <path id="Trazado_690934" data-name="Trazado 690934" d="M764.961,124.442c14.374,20.276,33.483,31.032,43.375,24.835,4.4-2.756,6.321-8.406,5.956-15.538,6.836,14.237,9.465,26.91,6.149,31.279l-35.555-9.989c-6.126-7.731-15.348-17.933-18.873-27.2-.477-1.255-.909-2.512-1.314-3.765.089.126.173.253.262.38" transform="translate(-137.646 -22.331)" fill="#e2ca9f"/>
        <path id="Trazado_690935" data-name="Trazado 690935" d="M749.91,366.084h-9.791s7.1-5.627,8.333-5.064,1.458,5.064,1.458,5.064" transform="translate(-133.221 -64.976)" fill="#f0dcb6"/>
        <path id="Trazado_690936" data-name="Trazado 690936" d="M750.394,366.185h11.457s-7.181-5.12-8.739-4.609-2.718,4.609-2.718,4.609" transform="translate(-135.071 -65.077)" fill="#f0dcb6"/>
        <path id="Trazado_690937" data-name="Trazado 690937" d="M787.206,164.569c.144-7.2,9.627-13.036,21.18-13.036s20.8,5.836,20.655,13.036S819.413,177.6,807.859,177.6s-20.8-5.836-20.654-13.035" transform="translate(-141.697 -27.276)" fill="#d75c74"/>
        <path id="Trazado_690938" data-name="Trazado 690938" d="M782.541,205.016c15.1-10.484,38.153-27.331,40.916-36.471,3.926-12.99-24.819-16.182-33.954-7.642-5.52,5.161-14,31.973-14,31.973Z" transform="translate(-139.591 -28.106)" fill="#edb984"/>
        <path id="Trazado_690939" data-name="Trazado 690939" d="M793.294,195.465c13.085-10.593,16.919-20.884,12.292-26.373-3.192-3.788-11.018-2.99-19.859,1.346,1.929-4.29,3.913-7.944,5.616-9.537,9.135-8.54,37.88-5.348,33.954,7.642-2.763,9.14-23.932,24.828-39.035,35.312,0,0,4.731-6.528,7.032-8.391" transform="translate(-141.431 -28.106)" fill="#e79b69"/>
        <path id="Trazado_690940" data-name="Trazado 690940" d="M743.732,86.905c-10.052,0-18.391-6.068-22.621-9.631a33.164,33.164,0,0,1,6.408-3.36c13.3-7.1,21.831-6.221,30.684-.449a55.163,55.163,0,0,1,8.266,3.874c-3.831,3.528-12.746,9.567-22.738,9.567" transform="translate(-129.8 -12.395)" fill="#e2ca9f"/>
        <path id="Trazado_690941" data-name="Trazado 690941" d="M729.265,73.769c11.011-5.815,18.747-6.118,26.134-2.69-.982,5.7-6.327,9.984-13.044,9.984a15.15,15.15,0,0,1-13.09-7.294" transform="translate(-131.268 -12.396)" fill="#624952"/>
        <path id="Trazado_690942" data-name="Trazado 690942" d="M751.987,66.6l-2.27-14.484-17.344,4.828.191,12.277c-.045,2.834,14.3,13.022,19.423-2.621" transform="translate(-131.827 -9.381)" fill="#d27558"/>
        <path id="Trazado_690943" data-name="Trazado 690943" d="M748.952,48.835c1.708-10.488-1.137-17.669-2.33-19.7-1.859-3.173-12.7-5.2-15.283-2.023s-4.849,18.4-3.021,32.165c.513,3.863,13.763,3.87,15.97,2.148,3.182-2.483,4.058-8.862,4.665-12.586" transform="translate(-130.978 -4.592)" fill="#edb984"/>
        <path id="Trazado_690944" data-name="Trazado 690944" d="M724.094,204.251l5.926,2.6-.045,3.841-5.926-2.6Z" transform="translate(-130.329 -36.765)" fill="#e2ca9f"/>
        <path id="Trazado_690945" data-name="Trazado 690945" d="M753.8,55.608l-1.483-6.193-3.8-4.695s-4.743-24.648,6.785-18.655-1.5,29.543-1.5,29.543" transform="translate(-134.559 -4.523)" fill="#904930"/>
        <path id="Trazado_690946" data-name="Trazado 690946" d="M739.973,43.347c-.023-.984.449-1.772,1.053-1.761s1.113.817,1.136,1.8-.448,1.772-1.053,1.761-1.114-.817-1.137-1.8" transform="translate(-133.195 -7.485)" fill="#5a4949"/>
        <path id="Trazado_690947" data-name="Trazado 690947" d="M740.4,37.483l3.95.587a.612.612,0,0,1,.532.658l-.144,1.184a.573.573,0,0,1-.671.48l-3.95-.587a.611.611,0,0,1-.532-.658l.144-1.184a.573.573,0,0,1,.671-.48" transform="translate(-133.124 -6.746)" fill="#904930"/>
        <path id="Trazado_690948" data-name="Trazado 690948" d="M728.533,42.077c-.023-.984.448-1.772,1.053-1.761s1.114.817,1.137,1.8-.448,1.772-1.053,1.761-1.114-.817-1.137-1.8" transform="translate(-131.136 -7.257)" fill="#5a4949"/>
        <path id="Trazado_690949" data-name="Trazado 690949" d="M726.457,36.429l3.946.016a.622.622,0,0,1,.624.58l.048,1.2a.561.561,0,0,1-.579.575l-3.947-.016a.621.621,0,0,1-.624-.579l-.048-1.2a.559.559,0,0,1,.578-.575" transform="translate(-130.658 -6.557)" fill="#904930"/>
        <path id="Trazado_690950" data-name="Trazado 690950" d="M734.79,42.679c-1.248,3.2-1.726,5.274-.854,6.158a2.154,2.154,0,0,0,2.063.348l.011.066s-2.114,1.009-3.073.173-.038-3.115,1.852-6.746" transform="translate(-131.86 -7.682)" fill="#d27558"/>
        <path id="Trazado_690951" data-name="Trazado 690951" d="M732.49,55.552l9.063-1.049s.568,3.146-3.423,4.5-5.64-3.446-5.64-3.446" transform="translate(-131.848 -9.811)" fill="#3e2d34"/>
        <path id="Trazado_690952" data-name="Trazado 690952" d="M733.266,55.809l7.793-.9s.49,2.706-2.943,3.865-4.85-2.963-4.85-2.963" transform="translate(-131.988 -9.883)" fill="#f9eddb"/>
        <path id="Trazado_690953" data-name="Trazado 690953" d="M751.358,47.214c1.264-2.51,3.372-3.961,4.709-3.239s1.4,3.341.132,5.852-3.372,3.961-4.709,3.239-1.4-3.342-.132-5.852" transform="translate(-135.081 -7.882)" fill="#edb984"/>
        <path id="Trazado_690954" data-name="Trazado 690954" d="M752.729,48.267c.8-1.58,2.124-2.492,2.961-2.037s.871,2.106.073,3.686-2.124,2.492-2.962,2.037-.87-2.106-.072-3.686" transform="translate(-135.387 -8.3)" fill="#d27558"/>
        <path id="Trazado_690955" data-name="Trazado 690955" d="M751.747,49.636c.554-1.092,1.469-1.721,2.043-1.405s.593,1.458.039,2.549-1.468,1.722-2.043,1.405-.592-1.457-.039-2.549" transform="translate(-135.242 -8.667)" fill="#edb984"/>
        <path id="Trazado_690956" data-name="Trazado 690956" d="M763.092,207.761c1.026-.9,4.328-4.528,8.9-4.057l1.329-4.969c-4.036.285-9.814,2.414-12.434,6.011-1.815,2.49,1.155,3.937,2.2,3.014" transform="translate(-136.857 -35.772)" fill="#edb984"/>
        <path id="Trazado_690957" data-name="Trazado 690957" d="M784.928,206.962l-11.005-8.591a14.413,14.413,0,0,0-8.5,5.731,25.521,25.521,0,0,1-1.17,7.986c-1.274,3.446,17.276,8.459,20.673-5.126" transform="translate(-137.555 -35.707)" fill="#edb984"/>
        <path id="Trazado_690958" data-name="Trazado 690958" d="M757.438,218.447c1.011-.613,4.973-2.441,6.392-7.194l2.8,3.127c-.382,1.988-3.508,4.993-5.63,6.257s-4.571-1.577-3.56-2.19" transform="translate(-136.297 -38.026)" fill="#edb984"/>
        <path id="Trazado_690959" data-name="Trazado 690959" d="M765.2,219.864c1-.636,4.912-2.554,6.227-7.343l2.862,3.068c-.34,2-3.181,4.489-5.273,5.8s-4.814-.889-3.816-1.526" transform="translate(-137.698 -38.254)" fill="#edb984"/>
        <path id="Trazado_690960" data-name="Trazado 690960" d="M772.617,220.755c1.115-.764,5.443-3.153,7.257-8.31l2.775,2.95c-.534,2.131-3.77,5.019-6.108,6.6s-5.038-.474-3.924-1.238" transform="translate(-139.024 -38.24)" fill="#edb984"/>
      </g>
    </g>
  </g>
</svg>
