<svg xmlns="http://www.w3.org/2000/svg" xmlns:xlink="http://www.w3.org/1999/xlink" width="142.623" height="142.623" viewBox="0 0 142.623 142.623">
  <defs>
    <filter id="Elipse_4763" x="0" y="0" width="142.623" height="142.623" filterUnits="userSpaceOnUse">
      <feOffset dy="3" input="SourceAlpha"/>
      <feGaussianBlur stdDeviation="3" result="blur"/>
      <feFlood flood-opacity="0.161"/>
      <feComposite operator="in" in2="blur"/>
      <feComposite in="SourceGraphic"/>
    </filter>
  </defs>
  <g id="Grupo_991070" data-name="Grupo 991070" transform="translate(9 6)">
    <g id="Grupo_896545" data-name="Grupo 896545" transform="translate(0 0)">
      <g transform="matrix(1, 0, 0, 1, -9, -6)" filter="url(#Elipse_4763)">
        <ellipse id="Elipse_4763-2" data-name="Elipse 4763" cx="62.311" cy="62.311" rx="62.311" ry="62.311" transform="translate(9 6)" fill="#0098e8"/>
      </g>
      <g id="discapacidad" transform="translate(5.355 0)">
        <path id="Trazado_695348" data-name="Trazado 695348" d="M70.634,22a59.661,59.661,0,0,0-55.31,81.961l.226.15a23.65,23.65,0,0,1,22.29-19.8l.169-.007.052-.16a10.686,10.686,0,0,1,10.18-7.381H93.027a10.68,10.68,0,0,1,8.279,3.916l10.5,10.735,1.494,5.619-9.561,9.561v24.354l.243.129A59.639,59.639,0,0,0,70.634,22Z" transform="translate(-11 -16.645)" fill="#0098e8"/>
        <path id="Trazado_695349" data-name="Trazado 695349" d="M423.19,341.3a5.443,5.443,0,0,1-8.2-3.189l-1.987-7.474-.349-.365-5.991,5.991,7.777,7.777a5.405,5.405,0,0,0,7.474.172c.508-.9,1-1.817,1.459-2.743Z" transform="translate(-310.36 -249.884)" fill="#f6a96c"/>
        <g id="Grupo_896549" data-name="Grupo 896549" transform="translate(26.752 0)">
          <g id="Grupo_896548" data-name="Grupo 896548">
            <g id="Grupo_896545-2" data-name="Grupo 896545" transform="translate(39.433 2.099)">
              <path id="Trazado_695350" data-name="Trazado 695350" d="M296.492,176.884l-.052.174a17.217,17.217,0,0,1-11.628,11.6l-.174.052v4.408h14.813a13.563,13.563,0,0,0,3.187-8.753v-8.583a6.971,6.971,0,0,1-3.775,1.107Z" transform="translate(-284.219 -135.091)" fill="#883f2e"/>
              <path id="Trazado_695351" data-name="Trazado 695351" d="M285.564,14.393v5.44l.239,0a10.3,10.3,0,0,1,10.062,10.245v3.978h1.7a6.971,6.971,0,0,1,3.775,1.107V21.738A13.116,13.116,0,0,0,288.219,8.622h-5.3A7.61,7.61,0,0,1,285.564,14.393Z" transform="translate(-282.915 -8.622)" fill="#883f2e"/>
            </g>
            <path id="Trazado_695352" data-name="Trazado 695352" d="M148.112,60.121h15.423V55.708A17.309,17.309,0,0,1,151,39.1V29.452a3.411,3.411,0,0,1,3.408-3.408h12.24a10.52,10.52,0,0,0,10.04-7.311l1.346-4.172a1.8,1.8,0,0,1,1.719-1.252c.064,0,.128,0,.192,0V7.87A7.87,7.87,0,0,0,172.079,0H160.144A17.144,17.144,0,0,0,143,17.144V51.368a13.564,13.564,0,0,0,3.32,8.906A10.714,10.714,0,0,1,148.112,60.121Z" transform="translate(-137.622 0)" fill="#a44f3e"/>
            <path id="Trazado_695353" data-name="Trazado 695353" d="M148.112,60.121h8.3a13.562,13.562,0,0,1-3.187-8.753V47.553A17.171,17.171,0,0,1,151,39.1V29.452a3.41,3.41,0,0,1,2.22-3.19V17.144A17.144,17.144,0,0,1,170.367,0H160.144A17.144,17.144,0,0,0,143,17.144V51.368a13.564,13.564,0,0,0,3.32,8.906,10.689,10.689,0,0,1,1.792-.153Z" transform="translate(-137.622 0)" fill="#883f2e"/>
            <g id="Grupo_896546" data-name="Grupo 896546" transform="translate(0 59.877)">
              <path id="Trazado_695354" data-name="Trazado 695354" d="M195.179,260.77,184.649,250a10.93,10.93,0,0,0-8.467-4H131.4a10.957,10.957,0,0,0-10.489,7.8c.367-.017.736-.027,1.108-.027a23.62,23.62,0,1,1,0,47.241c-.308,0-.615-.008-.92-.02a59.666,59.666,0,0,0,66.041-.432V276.175l9.589-9.589Z" transform="translate(-120.907 -246)" fill="#0ed290"/>
            </g>
            <g id="Grupo_896547" data-name="Grupo 896547" transform="translate(0.078 59.877)">
              <path id="Trazado_695355" data-name="Trazado 695355" d="M122.258,253.525a23.746,23.746,0,0,1,8.336,1.5A10.954,10.954,0,0,1,141.375,246h-9.736a10.956,10.956,0,0,0-10.411,7.549C121.569,253.534,121.913,253.525,122.258,253.525Z" transform="translate(-121.228 -246)" fill="#00c285"/>
              <path id="Trazado_695356" data-name="Trazado 695356" d="M123.818,468.527c-.176,0-.352,0-.528-.007a59.537,59.537,0,0,0,8.692,4.641v-6.073A23.747,23.747,0,0,1,123.818,468.527Z" transform="translate(-122.788 -413.274)" fill="#00c285"/>
            </g>
          </g>
          <path id="Trazado_695357" data-name="Trazado 695357" d="M235.8,229.324h-4.439a17.223,17.223,0,0,1-4.994-.739v6.661a7.214,7.214,0,1,0,14.428,0v-6.661A17.226,17.226,0,0,1,235.8,229.324Z" transform="translate(-200.695 -172.946)" fill="#f6a96c"/>
          <path id="Trazado_695358" data-name="Trazado 695358" d="M233.576,236.041v-5.678h-2.22a17.519,17.519,0,0,1-4.994-.726v6.4a7.213,7.213,0,0,0,10.821,6.246,7.209,7.209,0,0,1-3.607-6.246Z" transform="translate(-200.694 -173.742)" fill="#ea9b58"/>
        </g>
        <g id="Grupo_896554" data-name="Grupo 896554" transform="translate(3.996 67.403)">
          <g id="Grupo_896550" data-name="Grupo 896550" transform="translate(1.826 1.825)">
            <ellipse id="Elipse_4778" data-name="Elipse 4778" cx="22.038" cy="22.038" rx="22.038" ry="22.038" fill="#fd8087"/>
          </g>
          <path id="Trazado_695359" data-name="Trazado 695359" d="M42.482,306.454a22.044,22.044,0,0,1,18.255-21.714,22.038,22.038,0,1,0,0,43.427A22.044,22.044,0,0,1,42.482,306.454Z" transform="translate(-33.09 -282.591)" fill="#fe646f"/>
          <g id="Grupo_896551" data-name="Grupo 896551" transform="translate(14.227 8.111)">
            <path id="Trazado_695360" data-name="Trazado 695360" d="M109.233,321.923A11.683,11.683,0,0,0,97.35,310.242a11.808,11.808,0,0,0-11.484,11.874v12.67a7.771,7.771,0,0,0,7.452,7.824,7.667,7.667,0,0,0,7.883-7.664q0-.16-.007-.317a2.205,2.205,0,0,1,1.272-2.1A11.684,11.684,0,0,0,109.233,321.923Z" transform="translate(-85.866 -310.24)" fill="#ffbd86"/>
          </g>
          <g id="Grupo_896552" data-name="Grupo 896552" transform="translate(19.095 12.979)">
            <path id="Trazado_695361" data-name="Trazado 695361" d="M108.583,352.875a2.9,2.9,0,0,1-2.717-2.957v-12.67a6.945,6.945,0,0,1,6.7-7.007h.118a6.816,6.816,0,0,1,2.866,13,7.062,7.062,0,0,0-4.085,6.721c0,.036,0,.076,0,.116a2.8,2.8,0,0,1-2.8,2.8Z" transform="translate(-105.866 -330.24)" fill="#f6a96c"/>
          </g>
          <g id="Grupo_896553" data-name="Grupo 896553" transform="translate(19.095 21.255)">
            <path id="Trazado_695362" data-name="Trazado 695362" d="M105.866,364.24v9.249a4.625,4.625,0,1,0,0-9.249Z" transform="translate(-105.866 -364.24)" fill="#ea9b58"/>
          </g>
          <path id="Trazado_695363" data-name="Trazado 695363" d="M51.28,276.917a23.864,23.864,0,1,0,23.864,23.864A23.891,23.891,0,0,0,51.28,276.917ZM31.067,300.781a20.119,20.119,0,0,1,4.7-12.935L64.215,316.3a20.2,20.2,0,0,1-33.148-15.517ZM66.8,313.716,38.344,285.264A20.2,20.2,0,0,1,66.8,313.716Z" transform="translate(-27.416 -276.917)" fill="#fb2b3a"/>
        </g>
        <path id="Trazado_695364" data-name="Trazado 695364" d="M386.94,142.591l-10.3-38.755a8.249,8.249,0,0,0,1.986-7.819l-4.57-17.056a1.894,1.894,0,0,0-2.222-1.391,1.842,1.842,0,0,0-1.358,2.27l2.406,8.979a.754.754,0,1,1-1.456.39l-3.253-12.141a1.894,1.894,0,0,0-2.222-1.391,1.842,1.842,0,0,0-1.357,2.27l3.273,12.215a.754.754,0,0,1-.533.923h0a.754.754,0,0,1-.923-.533l-3.253-12.141a1.893,1.893,0,0,0-2.222-1.391,1.842,1.842,0,0,0-1.357,2.27l3.273,12.215a.754.754,0,0,1-.533.923h0a.754.754,0,0,1-.923-.533l-2.386-8.9a1.893,1.893,0,0,0-2.222-1.391,1.842,1.842,0,0,0-1.357,2.27l.5,1.856a7.018,7.018,0,0,1,3.466,6.048V94.1a7.018,7.018,0,0,1-3.369,5.991l4.722,2.726a8.267,8.267,0,0,0,4.9,3.966l10.3,38.733a5.689,5.689,0,0,0,8.619,3.295,59.244,59.244,0,0,0,2.486-5.711c-.029-.169-.065-.338-.11-.507Z" transform="translate(-271.545 -57.222)" fill="#ffbd86"/>
        <g id="Grupo_896558" data-name="Grupo 896558" transform="translate(14.727 21.953)">
          <g id="Grupo_896555" data-name="Grupo 896555">
            <path id="Trazado_695365" data-name="Trazado 695365" d="M78.218,117.49a1.819,1.819,0,0,1-1.291-.535,18.567,18.567,0,0,1,0-26.228,1.825,1.825,0,0,1,2.582,2.582,14.912,14.912,0,0,0,0,21.065,1.826,1.826,0,0,1-1.291,3.117Z" transform="translate(-71.504 -90.192)" fill="#fff"/>
          </g>
          <g id="Grupo_896556" data-name="Grupo 896556" transform="translate(7.798 2.429)">
            <path id="Trazado_695366" data-name="Trazado 695366" d="M109.253,122.612a1.819,1.819,0,0,1-1.291-.535,15.127,15.127,0,0,1,0-21.369,1.825,1.825,0,0,1,2.582,2.582,11.472,11.472,0,0,0,0,16.206,1.826,1.826,0,0,1-1.291,3.117Z" transform="translate(-103.543 -100.173)" fill="#fff"/>
          </g>
          <g id="Grupo_896557" data-name="Grupo 896557" transform="translate(15.382 4.859)">
            <path id="Trazado_695367" data-name="Trazado 695367" d="M139.4,127.734a1.819,1.819,0,0,1-1.291-.535,11.688,11.688,0,0,1,0-16.51,1.825,1.825,0,0,1,2.582,2.582,8.032,8.032,0,0,0,0,11.347,1.826,1.826,0,0,1-1.291,3.117Z" transform="translate(-134.697 -110.154)" fill="#fff"/>
          </g>
        </g>
        <path id="Trazado_695368" data-name="Trazado 695368" d="M335.477,112.135h-1.7v11.8a17.222,17.222,0,0,1-.752,5.039h2.447a7.259,7.259,0,0,0,7.259-7.259v-2.323A7.259,7.259,0,0,0,335.477,112.135Z" transform="translate(-254.646 -84.841)" fill="#f6a96c"/>
        <g id="Grupo_896559" data-name="Grupo 896559" transform="translate(39.889 13.066)">
          <path id="Trazado_695369" data-name="Trazado 695369" d="M203.877,53.681a2.049,2.049,0,0,0-1.951,1.421l-1.346,4.172a10.307,10.307,0,0,1-9.809,7.142h-12.24a3.651,3.651,0,0,0-3.651,3.651V79.71a17.525,17.525,0,0,0,17.525,17.525h4.439A17.525,17.525,0,0,0,214.37,79.71V64.174A10.493,10.493,0,0,0,203.877,53.681Z" transform="translate(-174.881 -53.681)" fill="#ffbd86"/>
        </g>
        <g id="Grupo_896560" data-name="Grupo 896560" transform="translate(39.889 25.801)">
          <path id="Trazado_695370" data-name="Trazado 695370" d="M182.456,119.295v-9.644A3.651,3.651,0,0,1,186.107,106h-7.575a3.651,3.651,0,0,0-3.651,3.651v9.644a17.525,17.525,0,0,0,17.525,17.525h4.439c.529,0,1.051-.027,1.568-.074A17.524,17.524,0,0,1,182.456,119.295Z" transform="translate(-174.881 -106)" fill="#f6a96c"/>
        </g>
        <g id="Grupo_896567" data-name="Grupo 896567" transform="translate(45.629 22.571)">
          <g id="Grupo_896562" data-name="Grupo 896562" transform="translate(19.725)">
            <g id="Grupo_896561" data-name="Grupo 896561">
              <path id="Trazado_695371" data-name="Trazado 695371" d="M288.079,96.381h-6.753a1.826,1.826,0,1,1,0-3.651h6.753a1.826,1.826,0,1,1,0,3.651Z" transform="translate(-279.5 -92.73)" fill="#ca6e59"/>
            </g>
          </g>
          <g id="Grupo_896563" data-name="Grupo 896563" transform="translate(8.977 7.278)">
            <path id="Trazado_695372" data-name="Trazado 695372" d="M240.372,135.483a1.816,1.816,0,0,1-1.162-.418L236,132.417a1.826,1.826,0,0,1-.477-2.21l3.206-6.551a1.826,1.826,0,0,1,3.28,1.605l-2.573,5.258,2.1,1.732a1.826,1.826,0,0,1-1.164,3.233Z" transform="translate(-235.341 -122.632)" fill="#ca6e59"/>
          </g>
          <g id="Grupo_896566" data-name="Grupo 896566" transform="translate(0 5.898)">
            <g id="Grupo_896564" data-name="Grupo 896564">
              <ellipse id="Elipse_4779" data-name="Elipse 4779" cx="3.485" cy="3.485" rx="3.485" ry="3.485" fill="#ca6e59"/>
            </g>
            <g id="Grupo_896565" data-name="Grupo 896565" transform="translate(21.047)">
              <ellipse id="Elipse_4780" data-name="Elipse 4780" cx="3.485" cy="3.485" rx="3.485" ry="3.485" fill="#ca6e59"/>
            </g>
          </g>
        </g>
        <g id="Grupo_896568" data-name="Grupo 896568" transform="translate(51.967 45.03)">
          <path id="Trazado_695373" data-name="Trazado 695373" d="M234.906,190.842h-5.477a4.929,4.929,0,0,1-4.929-4.929.913.913,0,0,1,.913-.913h13.509a.913.913,0,0,1,.913.913A4.929,4.929,0,0,1,234.906,190.842Z" transform="translate(-224.5 -185)" fill="#fd8087"/>
        </g>
        <path id="Trazado_695374" data-name="Trazado 695374" d="M229.49,185.913A.913.913,0,0,1,230.4,185h-4.99a.913.913,0,0,0-.913.913,4.929,4.929,0,0,0,4.929,4.929h4.99A4.929,4.929,0,0,1,229.49,185.913Z" transform="translate(-172.533 -139.97)" fill="#fe646f"/>
        <g id="Grupo_896569" data-name="Grupo 896569" transform="translate(89.816 37.728)">
          <path id="Trazado_695375" data-name="Trazado 695375" d="M386.694,163.519a1.826,1.826,0,0,1-1.826-1.826,3.046,3.046,0,0,0-3.043-3.043,1.826,1.826,0,0,1,0-3.651,6.7,6.7,0,0,1,6.694,6.694A1.826,1.826,0,0,1,386.694,163.519Z" transform="translate(-380 -155)" fill="#f6a96c"/>
        </g>
      </g>
    </g>
  </g>
</svg>
