<svg xmlns="http://www.w3.org/2000/svg" width="67.969" height="67.969" viewBox="0 0 67.969 67.969">
  <g id="Grupo_1005940" data-name="Grupo 1005940" transform="translate(-390 -2034.936)">
    <circle id="Elipse_5223" data-name="Elipse 5223" cx="33.984" cy="33.984" r="33.984" transform="translate(390 2034.936)" fill="#0098e8"/>
    <path id="Trazado_701122" data-name="Trazado 701122" d="M6.975,5.053H34.02A7,7,0,0,1,41,12.028V39.073a7,7,0,0,1-6.975,6.975H6.975A7,7,0,0,1,0,39.073V12.028A7,7,0,0,1,6.975,5.053" transform="translate(403.233 2043.369)" fill="#1f4168" fill-rule="evenodd"/>
    <g id="Page-1" transform="translate(411.186 2054.771)">
      <g id="_021---Brain-Profile" data-name="021---Brain-Profile" transform="translate(0.054 -0.015)">
        <path id="Shape" d="M22.851,28.021A.944.944,0,0,1,22,29.376h-9.52a.944.944,0,0,1-.892-.647c-.312-.9-1-2.473-2.129-2.988a40.047,40.047,0,0,1-4.1,1.241,1.286,1.286,0,0,1-1.515-.944c-.4-1.161.156-1.477-.024-2.171-.123-.481-.576-.6-.935-.854-.288-.2.231-.868.231-.868s-.552-.411-.75-.59.08-.467.345-1.02a1.237,1.237,0,0,0,.085-.76c-.094-.51-.859-.7-1.237-.982-.788-.585-.831-.727,1.227-2.95a3.34,3.34,0,0,0,.784-1.775c.038-.222.264-.463.26-.732-.009-.675-.986-.953-1.076-1.61-.071-.51.585-1.44.8-2.351A14.151,14.151,0,0,1,4,7.73,8.525,8.525,0,0,1,5.788,4.8,8.366,8.366,0,0,1,10.173,2.67c5.938-1.369,8.916-.618,12.3,2.044a7.308,7.308,0,0,1,2.653,3.818A13.723,13.723,0,0,1,25.6,12.4c-.047,3.464-2.251,4.678-3.233,6.92a8.548,8.548,0,0,0-.651,4.394,13.086,13.086,0,0,0,1.133,4.29Z" transform="translate(-0.584 -1.521)" fill="#ffc89f"/>
        <path id="Shape-2" data-name="Shape" d="M37.864,28.014a13.086,13.086,0,0,1-1.133-4.29,8.548,8.548,0,0,1,.651-4.394c.982-2.242,3.186-3.455,3.233-6.92a13.723,13.723,0,0,0-.472-3.87,7.308,7.308,0,0,0-2.653-3.818A10.981,10.981,0,0,0,29.5,2.029a11.038,11.038,0,0,1,6.575,2.69,7.308,7.308,0,0,1,2.653,3.818,13.723,13.723,0,0,1,.472,3.87c-.047,3.464-2.251,4.678-3.233,6.92a8.548,8.548,0,0,0-.651,4.394,13.086,13.086,0,0,0,1.133,4.29l0,.014a.944.944,0,0,1-.85,1.356h1.416a.944.944,0,0,0,.85-1.355Z" transform="translate(-15.602 -1.527)" fill="#dfc49c"/>
        <path id="Shape-3" data-name="Shape" d="M28.052,14.173a2.5,2.5,0,0,1-.647,1.676h0A3.505,3.505,0,0,1,25.616,18.3a4.28,4.28,0,0,1,.623,1.256.96.96,0,0,1,.047.3.986.986,0,0,1-.595.9.782.782,0,0,1-.179.052v0a1.008,1.008,0,0,1-.977-.354,2.582,2.582,0,0,0-1.171-.774c-.08-.028-.156-.052-.231-.08-1.3-.467-1.7-.958-1.794-1.765h-.028a4.056,4.056,0,0,1-1.482-.278,2.486,2.486,0,0,1-4.234-.812h0a3.375,3.375,0,0,1-3.866-5.183,1.493,1.493,0,0,1-.08-.481,1.47,1.47,0,0,1,1.18-1.444c0-.057-.009-.113-.009-.175a1.906,1.906,0,0,1,1.9-1.907,1.848,1.848,0,0,1,.826.189,2.788,2.788,0,0,1,2.4-1.364,2.758,2.758,0,0,1,1.836.694,1.463,1.463,0,0,1,2.6.212,3.738,3.738,0,0,1,.4-.024A3.522,3.522,0,0,1,26.282,10.5h.009A1.473,1.473,0,0,1,27.566,12.7a2.475,2.475,0,0,1,.486,1.477Z" transform="translate(-5.865 -3.839)" fill="#ef314c"/>
        <path id="Shape-4" data-name="Shape" d="M37.915,12.7A1.473,1.473,0,0,0,36.64,10.5h-.009a3.522,3.522,0,0,0-3.507-3.228,3.738,3.738,0,0,0-.4.024,1.468,1.468,0,0,0-1.355-.906,1.441,1.441,0,0,0-.708.189,1.475,1.475,0,0,1,.647.717,3.738,3.738,0,0,1,.4-.024A3.522,3.522,0,0,1,35.215,10.5h.009A1.473,1.473,0,0,1,36.5,12.7a2.491,2.491,0,0,1-.16,3.153h0A3.505,3.505,0,0,1,34.549,18.3a4.28,4.28,0,0,1,.623,1.256.961.961,0,0,1,.047.3.977.977,0,0,1-.272.661,1,1,0,0,0,.914.3v0a.782.782,0,0,0,.179-.052.986.986,0,0,0,.595-.9.96.96,0,0,0-.047-.3,4.28,4.28,0,0,0-.623-1.256,3.505,3.505,0,0,0,1.784-2.454h0a2.491,2.491,0,0,0,.16-3.153Z" transform="translate(-16.214 -3.839)" fill="#bb193b"/>
        <path id="Shape-5" data-name="Shape" d="M39.711,46.483H37.569c-.991-2.686-1.883-5.57-1.355-8.538.2-1.123.618-2.322.118-3.545.076.028.151.052.231.08a2.582,2.582,0,0,1,1.171.774,1.008,1.008,0,0,0,.977.354,12.622,12.622,0,0,1-.354,2.336C37.828,40.914,38.72,43.8,39.711,46.483Z" transform="translate(-19.063 -18.628)" fill="#bb193b"/>
        <path id="Shape-6" data-name="Shape" d="M30.053,17.4a.472.472,0,0,0-.552.375,1.883,1.883,0,0,1-.782,1.2,1.928,1.928,0,0,1-2.485-.281.472.472,0,0,0-.7.633,2.842,2.842,0,0,0,1.51.872,1.4,1.4,0,0,1-1.149.593.472.472,0,0,0,0,.944,2.341,2.341,0,0,0,2.2-1.514,2.848,2.848,0,0,0,2.331-2.266.472.472,0,0,0-.375-.555Z" transform="translate(-13.443 -9.647)" fill="#f5f5f5"/>
        <path id="Shape-7" data-name="Shape" d="M23.9,13.862a.472.472,0,0,0-.472-.472,2.174,2.174,0,0,0-2.171,2.171.472.472,0,0,0,.944,0,1.227,1.227,0,0,1,1.227-1.227A.472.472,0,0,0,23.9,13.862Z" transform="translate(-11.248 -7.535)" fill="#f5f5f5"/>
        <path id="Shape-8" data-name="Shape" d="M2.577,13.453a2.87,2.87,0,0,1-.665,1.534C.43,16.587.006,17.138.058,17.708s.675.958,1.18,1.215c.2.1.543.278.566.4a.807.807,0,0,1-.052.474c-.256.54-.762,1.125-.231,1.572.1.09.276.228.435.349a1.19,1.19,0,0,0-.152.684c.051.355.3.485.607.661.417.239.525.309.383.909-.387,1.635.563,3.257,2.129,2.932a38.279,38.279,0,0,0,3.97-1.191,4.934,4.934,0,0,1,1.717,2.631,1.422,1.422,0,0,0,1.342.966h9.518a1.416,1.416,0,0,0,1.267-2.047,12.943,12.943,0,0,1-1.086-4.143,8,8,0,0,1,.614-4.145c.935-2.135,3.223-3.482,3.274-7.1.06-4.147-1.222-6.436-3.307-8.069C18.514.88,15.31.343,9.536,1.675a8.869,8.869,0,0,0-4.62,2.266A8.963,8.963,0,0,0,3.028,7.028,12.456,12.456,0,0,0,2.6,8.572a5.513,5.513,0,0,1-.455,1.27c-.516,1.156-.641,1.6.3,2.466.7.649.239.484.131,1.145ZM17.162,14.67a.472.472,0,0,0-.59-.313,3.587,3.587,0,0,1-2.384-.085.5.5,0,0,0-.53.132A2.021,2.021,0,0,1,10.4,12.039a.472.472,0,0,0-.809-.486,2.933,2.933,0,0,0-.27.607.712.712,0,0,1-.673-.708.467.467,0,0,0-.472-.466c-.9,0-.484,1.944.991,2.106a2.964,2.964,0,0,0,.043.472,2.891,2.891,0,0,1-3.263-3.95,1.922,1.922,0,0,0,.352.28.472.472,0,1,0,.487-.809A1,1,0,0,1,7.3,7.235a.981.981,0,0,1,.793.4.472.472,0,0,0,.758-.564,1.906,1.906,0,0,0-1.339-.755A1.416,1.416,0,0,1,9.081,5.2c-.035.1-.073.194-.1.295a.472.472,0,0,0,.913.236,2.305,2.305,0,0,1,3.486-1.35,1.919,1.919,0,0,0-.11.621.472.472,0,0,0,.944,0A.993.993,0,0,1,16.2,5a.472.472,0,1,0,.944,0c0-.037-.009-.071-.011-.107a3.064,3.064,0,0,1,2.8,2.363,1.921,1.921,0,0,0-.611.3.472.472,0,1,0,.566.755.995.995,0,1,1,1.012,1.7.472.472,0,1,0,.4.855,1.942,1.942,0,0,0,.353-.22,2.018,2.018,0,0,1-3.05,2.324,1.61,1.61,0,0,0,.126-1.66.472.472,0,0,0-.845.421.7.7,0,0,1-.228.89.711.711,0,0,1-1.025-.261.472.472,0,1,0-.843.425,1.628,1.628,0,0,0,2.063.794,2.893,2.893,0,0,0,2.734.575,3.009,3.009,0,0,1-1.944,1.192.472.472,0,0,0,.15.932,3.883,3.883,0,0,0,.837-.244,4.216,4.216,0,0,1,.352.811.509.509,0,0,1-.894.456A3.021,3.021,0,0,0,17.7,16.39c-1.02-.341-1.414-.647-1.581-.979a4.479,4.479,0,0,0,.724-.152.472.472,0,0,0,.313-.588Zm.844,2.92a1.966,1.966,0,0,1,.362.33,1.513,1.513,0,0,0,.841.5c-.18,1.856-1.4,3.736.822,9.945H18.887c-2.648-7.28-.625-8.189-.885-10.778ZM2.692,11.128a3.055,3.055,0,0,1,.315-.9,6.561,6.561,0,0,0,.514-1.443,11.819,11.819,0,0,1,.393-1.43A8.034,8.034,0,0,1,5.6,4.59a7.9,7.9,0,0,1,4.146-2c6.156-1.42,8.837-.456,11.9,1.954A6.809,6.809,0,0,1,24.14,8.123a13.216,13.216,0,0,1,.457,3.738c-.047,3.3-2.171,4.395-3.195,6.739a8.939,8.939,0,0,0-.687,4.635,13.813,13.813,0,0,0,1.18,4.456.472.472,0,0,1-.424.677h-.439c-2.36-6.49-.995-7.9-.871-10.076a1.444,1.444,0,0,0,.716-1.734,5.1,5.1,0,0,0-.417-.961,3.98,3.98,0,0,0,1.568-2.4,2.922,2.922,0,0,0,.261-3.392,1.935,1.935,0,0,0-1.4-2.585,4,4,0,0,0-4.059-3.271,1.921,1.921,0,0,0-2.938-.363,3.246,3.246,0,0,0-4.338.745A2.363,2.363,0,0,0,6.55,6.446,1.93,1.93,0,0,0,5.409,8.638a3.839,3.839,0,0,0,4.106,5.833,2.958,2.958,0,0,0,4.635.782,4.534,4.534,0,0,0,.986.192c.2.755.744,1.249,1.809,1.672a4.7,4.7,0,0,1-.081,2.467c-.654,3.119-.1,5.639,1.02,8.783H11.953a.479.479,0,0,1-.449-.327,6.957,6.957,0,0,0-1.55-2.69c.511-.179.924-.326,1.1-.38,2.019-.635,3.029-1.555,3-2.734a.46.46,0,0,0-.483-.461.472.472,0,0,0-.461.483c.027,1.15-2.04,1.7-3.115,2.077a52.486,52.486,0,0,1-5.262,1.649.836.836,0,0,1-.969-.633c-.372-1.072.219-1.219-.013-2.135-.139-.548-.527-.767-.969-1.024.139-.292.314-.371.277-.647s-.18-.291-.762-.755a2.218,2.218,0,0,0,.438-1.637c-.147-.775-1.086-1.019-1.421-1.269A2.619,2.619,0,0,1,1,17.628a9.555,9.555,0,0,1,1.6-1.995,3.776,3.776,0,0,0,.9-2.021,2.053,2.053,0,0,0,.265-.815c-.009-.905-1.026-1.28-1.079-1.669Z" transform="translate(-0.054 -0.985)"/>
      </g>
    </g>
  </g>
</svg>
