<svg xmlns="http://www.w3.org/2000/svg" xmlns:xlink="http://www.w3.org/1999/xlink" width="67.969" height="67.969" viewBox="0 0 67.969 67.969">
  <defs>
    <clipPath id="clip-path">
      <path id="path2964" d="M0-682.665H34.273v34.273H0Z" transform="translate(0 682.665)"/>
    </clipPath>
  </defs>
  <g id="Grupo_1005938" data-name="Grupo 1005938" transform="translate(-390 -1954.936)">
    <circle id="Elipse_5223" data-name="Elipse 5223" cx="33.984" cy="33.984" r="33.984" transform="translate(390 1954.936)" fill="#0098e8"/>
    <path id="Trazado_701121" data-name="Trazado 701121" d="M6.975,5.053H34.02A7,7,0,0,1,41,12.028V39.073a7,7,0,0,1-6.975,6.975H6.975A7,7,0,0,1,0,39.073V12.028A7,7,0,0,1,6.975,5.053" transform="translate(403.233 1963.37)" fill="#1f4168" fill-rule="evenodd"/>
    <g id="g2958" transform="translate(406.594 2655.529)">
      <g id="g2960" transform="translate(0 -682.665)">
        <g id="g2962" clip-path="url(#clip-path)">
          <g id="g2968" transform="translate(0.505 10.245)">
            <path id="path2970" d="M-468.824,0a20.107,20.107,0,0,1-8.147,1.53A20.107,20.107,0,0,1-485.118,0a35.708,35.708,0,0,1-8.488,3.7,34.022,34.022,0,0,1,7.04,2.923,5.772,5.772,0,0,1,5.152-3.854,6.055,6.055,0,0,1,3.714,1.1,1.307,1.307,0,0,0,1.457,0,6.055,6.055,0,0,1,3.714-1.1,5.772,5.772,0,0,1,5.152,3.854,34.017,34.017,0,0,1,7.04-2.923A35.705,35.705,0,0,1-468.824,0" transform="translate(493.605)" fill="#7b6c79"/>
          </g>
          <g id="g2972" transform="translate(0.505 10.245)">
            <path id="path2974" d="M-150.569-84.958a.841.841,0,0,1,0-1.573,26.019,26.019,0,0,0,3.741-1.885,15.411,15.411,0,0,1-3.215-1.033,35.707,35.707,0,0,1-8.488,3.7,34.012,34.012,0,0,1,7.04,2.923,5.888,5.888,0,0,1,1.217-2.011l-.3-.118" transform="translate(158.528 89.449)" fill="#665e68"/>
          </g>
          <g id="g2976" transform="translate(0.505 2.641)">
            <path id="path2978" d="M-609.526-165.114a85.823,85.823,0,0,0-8.207-7.532,5.081,5.081,0,0,0-6.734.178,1,1,0,0,1-1.286,0,5.081,5.081,0,0,0-6.734-.178,85.822,85.822,0,0,0-8.207,7.532,3.675,3.675,0,0,0-1.051,2.573,36.948,36.948,0,0,0,9.419-4.031,5.386,5.386,0,0,1,5.132-.191l.058.029a4.588,4.588,0,0,0,4.051,0l.058-.029a5.386,5.386,0,0,1,5.132.191,36.947,36.947,0,0,0,9.419,4.031,3.675,3.675,0,0,0-1.051-2.573" transform="translate(641.744 173.842)" fill="#ed5469"/>
          </g>
          <g id="g2980" transform="translate(0.505 2.641)">
            <path id="path2982" d="M-89.885-165.113a85.844,85.844,0,0,1,8.207-7.532,6.6,6.6,0,0,1,1.42-.817,4.975,4.975,0,0,0-5.12.817,85.831,85.831,0,0,0-8.207,7.532,3.675,3.675,0,0,0-1.051,2.573,29.861,29.861,0,0,0,3.94-1.3,3.675,3.675,0,0,1,.812-1.272" transform="translate(94.636 173.841)" fill="#e63850"/>
          </g>
          <g id="g2984" transform="translate(0.505 13.941)">
            <path id="path2986" d="M-127.328-99.946a5.844,5.844,0,0,1,.31-2.561,33.9,33.9,0,0,0-7.04-2.722,3.675,3.675,0,0,0,1.051,2.573c1.409,1.438,4.006,4.026,6.35,6.035a18.562,18.562,0,0,1-.671-3.325" transform="translate(134.058 105.229)" fill="#ed5469"/>
          </g>
          <g id="g2988" transform="translate(0.505 13.941)">
            <path id="path2990" d="M-127.092-97.253c-1.02-.988-1.928-1.9-2.581-2.568a3.675,3.675,0,0,1-.9-1.549,28.958,28.958,0,0,0-3.233-1.024,3.675,3.675,0,0,0,1.051,2.573c1.409,1.438,4.006,4.026,6.35,6.035a18.558,18.558,0,0,1-.671-3.325c0-.048-.009-.095-.012-.142" transform="translate(133.81 102.393)" fill="#e63850"/>
          </g>
          <g id="g2992" transform="translate(26.373 13.941)">
            <path id="path2994" d="M-6.828-51.5a5.844,5.844,0,0,1,.31,2.561,18.558,18.558,0,0,1-.671,3.325c2.345-2.009,4.941-4.6,6.35-6.035A3.675,3.675,0,0,0,.212-54.221,33.9,33.9,0,0,0-6.828-51.5" transform="translate(7.189 54.221)" fill="#ed5469"/>
          </g>
          <g id="g2996" transform="translate(8.733 9.16)">
            <path id="path2998" d="M-159.04-58.327a19.689,19.689,0,0,0,8.407-1.654c-.425-.234-.824-.462-1.191-.679a5.386,5.386,0,0,0-5.132-.191l-.058.029a4.588,4.588,0,0,1-4.051,0l-.058-.029a5.386,5.386,0,0,0-5.132.191c-.367.217-.765.445-1.191.679a19.689,19.689,0,0,0,8.406,1.654" transform="translate(167.446 61.41)" fill="#e8f9fc"/>
          </g>
          <g id="g3000" transform="translate(8.733 9.16)">
            <path id="path3002" d="M-117.227-9.433a5.387,5.387,0,0,0-5.006.252c-.367.217-.765.445-1.191.679a14.264,14.264,0,0,0,2.894,1.024c1.234-.7,2.406-1.441,3.3-1.954" transform="translate(123.424 9.932)" fill="#d9e7ec"/>
          </g>
          <g id="g3004" transform="translate(7.172 12.77)">
            <path id="path3006" d="M-350.033-37.984a5.708,5.708,0,0,0-4.091-2,6.114,6.114,0,0,0-3.734,1.1,1.273,1.273,0,0,1-1.419,0,6.113,6.113,0,0,0-3.734-1.1,5.708,5.708,0,0,0-4.091,2,5.926,5.926,0,0,0-1.4,4.45c.446,4.388,2.832,9.33,5.432,11.249a5.982,5.982,0,0,0,3.9,1.178,9.935,9.935,0,0,1,1.206,0,5.976,5.976,0,0,0,3.9-1.178c2.6-1.92,4.986-6.861,5.432-11.249a5.926,5.926,0,0,0-1.4-4.45" transform="translate(368.535 39.991)" fill="#f78b98"/>
          </g>
          <g id="g3008" transform="translate(7.172 12.77)">
            <path id="path3010" d="M-178.321-334.992c-2.6-1.92-4.986-6.861-5.432-11.249a5.927,5.927,0,0,1,1.4-4.45,5.753,5.753,0,0,1,2.376-1.657,5.784,5.784,0,0,0-2.249-.345,5.707,5.707,0,0,0-4.091,2,5.926,5.926,0,0,0-1.4,4.45c.446,4.388,2.832,9.33,5.432,11.249a5.982,5.982,0,0,0,3.9,1.178,9.942,9.942,0,0,1,1.206,0,5.855,5.855,0,0,0,1.379-.084,6.069,6.069,0,0,1-2.524-1.094" transform="translate(187.747 352.699)" fill="#f27182"/>
          </g>
          <g id="g3012" transform="translate(0.502 9.16)">
            <path id="path3014" d="M-354.116-10.58l-.058.029a4.588,4.588,0,0,1-4.051,0l-.058-.029a5.386,5.386,0,0,0-5.132.191,36.95,36.95,0,0,1-9.419,4.031,33.9,33.9,0,0,1,7.04,2.722,5.772,5.772,0,0,1,5.152-3.854,6.055,6.055,0,0,1,3.714,1.1,1.307,1.307,0,0,0,1.457,0,6.055,6.055,0,0,1,3.714-1.1,5.772,5.772,0,0,1,5.152,3.854,33.9,33.9,0,0,1,7.04-2.722,36.948,36.948,0,0,1-9.419-4.031A5.386,5.386,0,0,0-354.116-10.58Z" transform="translate(372.834 11.139)" fill="none" stroke="#000" stroke-linecap="round" stroke-linejoin="round" stroke-miterlimit="10" stroke-width="1"/>
          </g>
          <g id="g3016" transform="translate(0.502 13.941)">
            <path id="path3018" d="M-127.328-99.946a5.844,5.844,0,0,1,.31-2.561,33.9,33.9,0,0,0-7.04-2.722,3.675,3.675,0,0,0,1.051,2.573c1.409,1.438,4.006,4.026,6.35,6.035A18.562,18.562,0,0,1-127.328-99.946Z" transform="translate(134.058 105.229)" fill="none" stroke="#000" stroke-linecap="round" stroke-linejoin="round" stroke-miterlimit="10" stroke-width="1"/>
          </g>
          <g id="g3020" transform="translate(26.37 13.941)">
            <path id="path3022" d="M-6.827-51.5a5.844,5.844,0,0,1,.31,2.561,18.564,18.564,0,0,1-.671,3.325c2.345-2.009,4.941-4.6,6.35-6.035A3.675,3.675,0,0,0,.213-54.221,33.9,33.9,0,0,0-6.827-51.5Z" transform="translate(7.188 54.221)" fill="none" stroke="#000" stroke-linecap="round" stroke-linejoin="round" stroke-miterlimit="10" stroke-width="1"/>
          </g>
          <g id="g3024" transform="translate(17.136 14.408)">
            <path id="path3026" d="M0,0V9.525" fill="none" stroke="#000" stroke-linecap="round" stroke-linejoin="round" stroke-miterlimit="10" stroke-width="1"/>
          </g>
          <g id="g3028" transform="translate(8.73 9.16)">
            <path id="path3030" d="M-159.04-58.327a19.689,19.689,0,0,0,8.407-1.654c-.425-.234-.824-.462-1.191-.679a5.386,5.386,0,0,0-5.132-.191l-.058.029a4.588,4.588,0,0,1-4.051,0l-.058-.029a5.386,5.386,0,0,0-5.132.191c-.367.217-.765.445-1.191.679A19.689,19.689,0,0,0-159.04-58.327Z" transform="translate(167.446 61.41)" fill="none" stroke="#000" stroke-linecap="round" stroke-linejoin="round" stroke-miterlimit="10" stroke-width="1"/>
          </g>
          <g id="g3032" transform="translate(0.502 2.641)">
            <path id="path3034" d="M-478.527-41.783c-.445-.369-.876-.711-1.283-1.013a5.081,5.081,0,0,0-6.734.178,1,1,0,0,1-1.286,0,5.081,5.081,0,0,0-6.734-.178,85.834,85.834,0,0,0-8.207,7.532,3.675,3.675,0,0,0-1.051,2.573,36.949,36.949,0,0,0,9.419-4.031,5.386,5.386,0,0,1,5.132-.191l.058.029a4.588,4.588,0,0,0,4.051,0l.058-.029a5.386,5.386,0,0,1,5.132.191,36.946,36.946,0,0,0,9.419,4.031,3.675,3.675,0,0,0-1.051-2.573c-1.172-1.2-3.165-3.188-5.152-4.98" transform="translate(503.821 43.991)" fill="none" stroke="#000" stroke-linecap="round" stroke-linejoin="round" stroke-miterlimit="10" stroke-width="1"/>
          </g>
          <g id="g3036" transform="translate(7.202 12.803)">
            <path id="path3038" d="M-338.954-245.908a20.437,20.437,0,0,0,1.922-6.577,5.814,5.814,0,0,0-5.462-6.415,6.055,6.055,0,0,0-3.714,1.1,1.307,1.307,0,0,1-1.457,0,6.055,6.055,0,0,0-3.714-1.1,5.814,5.814,0,0,0-5.462,6.415c.425,4.178,2.7,9.222,5.418,11.226a5.925,5.925,0,0,0,3.881,1.172,9.946,9.946,0,0,1,1.21,0,5.925,5.925,0,0,0,3.881-1.172,10.211,10.211,0,0,0,2.338-2.6" transform="translate(356.87 258.906)" fill="none" stroke="#000" stroke-linecap="round" stroke-linejoin="round" stroke-miterlimit="10" stroke-width="1"/>
          </g>
        </g>
      </g>
    </g>
  </g>
</svg>
