<svg xmlns="http://www.w3.org/2000/svg" width="67.969" height="67.969" viewBox="0 0 67.969 67.969">
  <g id="Grupo_1005936" data-name="Grupo 1005936" transform="translate(-687.448 -1716.326)">
    <circle id="Elipse_5223" data-name="Elipse 5223" cx="33.984" cy="33.984" r="33.984" transform="translate(687.448 1716.326)" fill="#0098e8"/>
    <path id="Trazado_701127" data-name="Trazado 701127" d="M6.975,5.053H34.02A7,7,0,0,1,41,12.028V39.073a7,7,0,0,1-6.975,6.975H6.975A7,7,0,0,1,0,39.073V12.028A7,7,0,0,1,6.975,5.053" transform="translate(700.934 1724.505)" fill="#1f4168" fill-rule="evenodd"/>
    <g id="pensamiento-critico" transform="translate(707.293 1736.033)">
      <g id="Grupo_991123" data-name="Grupo 991123" transform="translate(0.461 0.46)">
        <g id="Grupo_991119" data-name="Grupo 991119" transform="translate(0 0.754)">
          <path id="Trazado_701190" data-name="Trazado 701190" d="M128.578,55.98H117.1q-.689-3.859-4.655-2.959-2.645.459-2.589-.74c-.009-1.241-.222-1.692-.541-1.931-.708-.546.081-1.248.892-1.688-.682-.054-1.557-.6-1.369-1.041.3-1.033.159-1.448-.307-1.69q-1.361-.666-.555-1.7a9.633,9.633,0,0,0,1.484-2.066,3.423,3.423,0,0,0,.386-2.006q-.05-.5-.051-1.014a10.049,10.049,0,1,1,17.719,6.494,3.426,3.426,0,0,0-.826,1.919A15.684,15.684,0,0,0,128.578,55.98Z" transform="translate(-107.671 -29.1)" fill="#ffddce" fill-rule="evenodd"/>
          <path id="Trazado_701191" data-name="Trazado 701191" d="M116.886,55.98h-.957a15.683,15.683,0,0,1-1.9-8.419,3.426,3.426,0,0,1,.826-1.919,10.049,10.049,0,0,0-7.191-16.532c.159-.007.318-.012.479-.012a10.049,10.049,0,0,1,7.669,16.543,3.426,3.426,0,0,0-.826,1.919A15.683,15.683,0,0,0,116.886,55.98Z" transform="translate(-95.979 -29.099)" fill="#f1cbbc" fill-rule="evenodd"/>
        </g>
        <g id="Grupo_991120" data-name="Grupo 991120" transform="translate(5.835 4.471)">
          <path id="Trazado_701192" data-name="Trazado 701192" d="M183.838,101.247a5.406,5.406,0,0,1-.656,1.583l.457,1.028-1.212,1.212-1.028-.457a5.406,5.406,0,0,1-1.583.656l-.4,1.049H177.7l-.4-1.049a5.405,5.405,0,0,1-1.583-.656l-1.028.457-1.212-1.212.457-1.028a5.406,5.406,0,0,1-.656-1.583l-1.049-.4V99.129l1.049-.4a5.405,5.405,0,0,1,.656-1.583l-.457-1.028,1.212-1.212,1.028.457a5.4,5.4,0,0,1,1.583-.656l.4-1.049h1.714l.4,1.049a5.4,5.4,0,0,1,1.583.656l1.028-.457,1.212,1.212-.457,1.028a5.405,5.405,0,0,1,.656,1.583l1.049.4v1.714Z" transform="translate(-172.221 -93.653)" fill="#a79ba7" fill-rule="evenodd"/>
          <path id="Trazado_701193" data-name="Trazado 701193" d="M214.884,104.9l-.379.168-1.212-1.212.457-1.028a5.406,5.406,0,0,1-.656-1.583l-1.049-.4V99.129l1.049-.4a5.4,5.4,0,0,1,.656-1.583l-.457-1.028L214.5,94.9l.379.168-1.044,1.044.457,1.028a5.405,5.405,0,0,0-.656,1.583l-1.049.4v1.714l1.049.4a5.406,5.406,0,0,0,.656,1.583l-.457,1.028Zm3.183,1.417h-.547l-.4-1.049a5.405,5.405,0,0,1-1.583-.656l.31-.138a7.244,7.244,0,0,0,1.819.794Zm-2.534-10.96a5.4,5.4,0,0,1,1.583-.656l.4-1.049h.547l-.4,1.049a7.245,7.245,0,0,0-1.82.794Zm5.688,0,1.028-.457.168.168-.96.426Q221.341,95.424,221.221,95.359Zm1.2,9.543-.168.168-1.028-.457q.12-.066.237-.138Z" transform="translate(-212.044 -93.653)" fill="#837683" fill-rule="evenodd"/>
          <ellipse id="Elipse_7686" data-name="Elipse 7686" cx="2.99" cy="2.99" rx="2.99" ry="2.99" transform="translate(4.709 10.242) rotate(-112.514)" fill="#eceff1"/>
          <path id="Trazado_701194" data-name="Trazado 701194" d="M233.5,154.72a2.989,2.989,0,0,0-2.989-2.989c-.07,0-.14,0-.209.007a2.989,2.989,0,0,1,0,5.964c.069,0,.139.007.209.007A2.989,2.989,0,0,0,233.5,154.72Z" transform="translate(-224.174 -148.387)" fill="#d1d1d6" fill-rule="evenodd"/>
        </g>
        <g id="Grupo_991121" data-name="Grupo 991121" transform="translate(17.774 0)">
          <path id="Trazado_701195" data-name="Trazado 701195" d="M46.643,21.037a3.587,3.587,0,0,1-.435,1.05l.3.682-.8.8-.682-.3a3.586,3.586,0,0,1-1.05.435l-.268.7H42.571l-.268-.7a3.585,3.585,0,0,1-1.05-.435l-.682.3-.8-.8.3-.682a3.584,3.584,0,0,1-.435-1.05l-.7-.268V19.632l.7-.268a3.585,3.585,0,0,1,.435-1.05l-.3-.682.8-.8.682.3A3.585,3.585,0,0,1,42.3,16.7l.268-.7h1.137l.268.7a3.585,3.585,0,0,1,1.05.435l.682-.3.8.8-.3.682a3.586,3.586,0,0,1,.435,1.05l.7.268v1.137Z" transform="translate(-38.939 -16)" fill="#ffe177" fill-rule="evenodd"/>
          <path id="Trazado_701196" data-name="Trazado 701196" d="M67.233,23.461l-.251.112-.8-.8.3-.682a3.584,3.584,0,0,1-.435-1.05l-.7-.268V19.632l.7-.268a3.585,3.585,0,0,1,.435-1.05l-.3-.682.8-.8.251.112-.692.692.3.682a3.584,3.584,0,0,0-.435,1.05l-.7.268v1.137l.7.268a3.585,3.585,0,0,0,.435,1.05l-.3.682Zm2.111.94h-.363l-.268-.7a3.585,3.585,0,0,1-1.05-.435l.206-.091a4.806,4.806,0,0,0,1.207.526Zm-1.681-7.269a3.585,3.585,0,0,1,1.05-.435l.268-.7h.363l-.268.7a4.8,4.8,0,0,0-1.207.527Zm3.772,0,.682-.3.112.112-.636.283Q71.516,17.175,71.436,17.131Zm.794,6.329-.112.112-.682-.3q.08-.044.157-.091Z" transform="translate(-65.35 -16)" fill="#ffd064" fill-rule="evenodd"/>
          <path id="Trazado_701197" data-name="Trazado 701197" d="M81.422,56.5a1.983,1.983,0,1,0-1.983,1.983A1.982,1.982,0,0,0,81.422,56.5Z" transform="translate(-75.239 -52.302)" fill="#eceff1" fill-rule="evenodd"/>
          <path id="Trazado_701198" data-name="Trazado 701198" d="M79.578,56.5A1.982,1.982,0,0,0,77.6,54.52q-.07,0-.139,0a1.983,1.983,0,0,1,0,3.955c.046,0,.092,0,.139,0A1.983,1.983,0,0,0,79.578,56.5Z" transform="translate(-73.396 -52.302)" fill="#d1d1d6" fill-rule="evenodd"/>
        </g>
        <g id="Grupo_991122" data-name="Grupo 991122" transform="translate(18.955 10.294)">
          <path id="Trazado_701199" data-name="Trazado 701199" d="M26.129,199.846a3.587,3.587,0,0,1-.435,1.05l.3.682-.8.8-.682-.3a3.585,3.585,0,0,1-1.05.435l-.268.7H22.057l-.268-.7a3.586,3.586,0,0,1-1.05-.435l-.682.3-.8-.8.3-.682a3.584,3.584,0,0,1-.435-1.05l-.7-.268v-1.137l.7-.268a3.584,3.584,0,0,1,.435-1.05l-.3-.682.8-.8.682.3a3.584,3.584,0,0,1,1.05-.435l.268-.7h1.137l.268.7a3.586,3.586,0,0,1,1.05.435l.682-.3.8.8-.3.682a3.585,3.585,0,0,1,.435,1.05l.7.268v1.137Z" transform="translate(-18.425 -194.81)" fill="#ffe177" fill-rule="evenodd"/>
          <path id="Trazado_701200" data-name="Trazado 701200" d="M46.721,202.27l-.251.112-.8-.8.3-.682a3.584,3.584,0,0,1-.435-1.05l-.7-.268v-1.137l.7-.268a3.584,3.584,0,0,1,.435-1.05l-.3-.682.8-.8.251.112-.692.692.3.682a3.585,3.585,0,0,0-.435,1.05l-.7.268v1.137l.7.268a3.585,3.585,0,0,0,.435,1.05l-.3.682Zm2.111.94H48.47l-.268-.7a3.585,3.585,0,0,1-1.05-.435l.206-.091a4.8,4.8,0,0,0,1.207.527Zm-1.681-7.269a3.584,3.584,0,0,1,1.05-.435l.268-.7h.363l-.268.7a4.8,4.8,0,0,0-1.207.527Zm3.772,0,.682-.3.112.112-.636.283Q51,195.984,50.924,195.94Zm.794,6.329-.112.112-.682-.3q.08-.044.157-.091Z" transform="translate(-44.838 -194.809)" fill="#ffd064" fill-rule="evenodd"/>
          <path id="Trazado_701201" data-name="Trazado 701201" d="M60.91,235.31a1.983,1.983,0,1,0-1.983,1.983A1.982,1.982,0,0,0,60.91,235.31Z" transform="translate(-54.727 -231.109)" fill="#eceff1" fill-rule="evenodd"/>
          <path id="Trazado_701202" data-name="Trazado 701202" d="M59.066,235.31a1.982,1.982,0,0,0-1.983-1.983q-.07,0-.139,0a1.983,1.983,0,0,1,0,3.955c.046,0,.092,0,.139,0A1.982,1.982,0,0,0,59.066,235.31Z" transform="translate(-52.884 -231.109)" fill="#d1d1d6" fill-rule="evenodd"/>
        </g>
      </g>
      <path id="Trazado_701203" data-name="Trazado 701203" d="M34.038,24.479a1.522,1.522,0,1,0-1.522-1.522A1.524,1.524,0,0,0,34.038,24.479Zm0-3.965A2.443,2.443,0,1,1,31.6,22.957a2.446,2.446,0,0,1,2.443-2.443Zm.341-7.852a1.522,1.522,0,1,0-1.522,1.522A1.524,1.524,0,0,0,34.38,12.662Zm-3.966,0a2.443,2.443,0,1,1,2.444,2.443A2.446,2.446,0,0,1,30.414,12.662Zm-7.363,9.132a2.529,2.529,0,1,0-2.529-2.529A2.532,2.532,0,0,0,23.051,21.795Zm0-5.979a3.45,3.45,0,1,1-3.45,3.45A3.454,3.454,0,0,1,23.051,15.816Zm-5.872,3.99V18.725l.754-.29a.46.46,0,0,0,.283-.323,4.917,4.917,0,0,1,.6-1.448.461.461,0,0,0,.029-.428l-.328-.739.765-.765.739.329a.461.461,0,0,0,.428-.029,4.967,4.967,0,0,1,1.448-.6.459.459,0,0,0,.323-.283l.29-.754h1.082l.29.754a.46.46,0,0,0,.323.283,4.95,4.95,0,0,1,1.448.6.462.462,0,0,0,.428.029l.74-.329.764.765-.328.739a.459.459,0,0,0,.029.428,4.936,4.936,0,0,1,.6,1.448.459.459,0,0,0,.283.323l.754.291v1.082l-.754.29a.458.458,0,0,0-.283.323,4.954,4.954,0,0,1-.6,1.448.461.461,0,0,0-.029.429l.328.739-.764.765-.74-.329a.462.462,0,0,0-.428.029,4.912,4.912,0,0,1-1.448.6.462.462,0,0,0-.323.283l-.29.754H22.51l-.29-.754A.461.461,0,0,0,21.9,24.1a4.929,4.929,0,0,1-1.448-.6.458.458,0,0,0-.428-.029l-.739.328-.765-.765.328-.739a.461.461,0,0,0-.029-.428,4.953,4.953,0,0,1-.6-1.448.46.46,0,0,0-.282-.323Zm-.626-1.827.829-.319a5.845,5.845,0,0,1,.525-1.267l-.361-.812a.461.461,0,0,1,.1-.512l1.212-1.212a.461.461,0,0,1,.512-.1l.812.361a5.866,5.866,0,0,1,1.267-.525l.319-.829a.461.461,0,0,1,.43-.3h1.714a.461.461,0,0,1,.43.3l.319.829a5.865,5.865,0,0,1,1.267.525l.812-.361a.461.461,0,0,1,.513.1l1.212,1.212a.459.459,0,0,1,.095.512l-.36.812a5.844,5.844,0,0,1,.525,1.267l.829.319a.46.46,0,0,1,.295.429v1.715a.459.459,0,0,1-.295.429l-.829.319a5.843,5.843,0,0,1-.525,1.268l.36.812a.459.459,0,0,1-.095.512l-1.213,1.212a.459.459,0,0,1-.512.1l-.812-.361a5.865,5.865,0,0,1-1.267.526l-.319.829a.462.462,0,0,1-.43.295H22.194a.462.462,0,0,1-.43-.295l-.319-.829a5.85,5.85,0,0,1-1.267-.525l-.812.36a.459.459,0,0,1-.512-.1l-1.212-1.212a.461.461,0,0,1-.1-.512l.361-.812a5.847,5.847,0,0,1-.525-1.267l-.829-.32a.459.459,0,0,1-.3-.429V18.409a.46.46,0,0,1,.3-.429Zm-5.2,7.146a.672.672,0,0,1,.185-.475A10.145,10.145,0,0,0,13.075,22.5a3.862,3.862,0,0,0,.435-2.264c-.032-.32-.048-.646-.048-.968a9.589,9.589,0,0,1,15.3-7.7l-.268.1a.46.46,0,0,0-.295.43v1.137a.46.46,0,0,0,.295.43l.479.184a3.987,3.987,0,0,0,.3.73l-.208.469a.46.46,0,0,0,.1.512l.8.8a.459.459,0,0,0,.512.095l.469-.208a3.976,3.976,0,0,0,.731.3l.184.478a.461.461,0,0,0,.43.3h.153a9.622,9.622,0,0,1,.2,1.82,4,4,0,0,0-.512.229l-.468-.208a.461.461,0,0,0-.513.1l-.8.8a.461.461,0,0,0-.1.512l.208.469a4.008,4.008,0,0,0-.3.731l-.478.184a.46.46,0,0,0-.3.43v1.136a.461.461,0,0,0,.3.43l.478.184a4,4,0,0,0,.3.73l-.208.469a.457.457,0,0,0-.023.306,3.9,3.9,0,0,0-.786,1.984,15.652,15.652,0,0,0,1.625,8.008H20.683A4.02,4.02,0,0,0,19.1,33.071a4.475,4.475,0,0,0-3.533-.385c-1.485.256-1.884.026-1.971-.051-.026-.023-.075-.066-.068-.216,0-.008,0-.017,0-.025-.009-1.249-.219-1.915-.723-2.294-.056-.044-.1-.09-.093-.111.01-.122.27-.449.926-.805a.461.461,0,0,0-.183-.864,1.528,1.528,0,0,1-.961-.459c.243-.835.368-1.752-.539-2.222l-.01,0c-.344-.168-.553-.349-.59-.509Zm20.223.654-.356-.357.174-.393a.462.462,0,0,0-.029-.429,3.11,3.11,0,0,1-.379-.914.461.461,0,0,0-.283-.323l-.4-.154v-.5l.4-.154a.46.46,0,0,0,.283-.323,3.088,3.088,0,0,1,.379-.915.462.462,0,0,0,.029-.429l-.174-.393.356-.356.393.175a.461.461,0,0,0,.428-.029,3.112,3.112,0,0,1,.915-.379.462.462,0,0,0,.323-.283l.154-.4h.5l.154.4a.462.462,0,0,0,.324.283,3.114,3.114,0,0,1,.915.379.462.462,0,0,0,.428.029l.393-.175.357.356-.174.393a.46.46,0,0,0,.029.428,3.107,3.107,0,0,1,.379.915.463.463,0,0,0,.283.323l.4.154v.5l-.4.154a.46.46,0,0,0-.283.323,3.13,3.13,0,0,1-.379.915.46.46,0,0,0-.029.428l.175.393-.357.357-.393-.174a.459.459,0,0,0-.428.029,3.127,3.127,0,0,1-.915.379.461.461,0,0,0-.324.283l-.154.4h-.5l-.154-.4a.458.458,0,0,0-.323-.282,3.134,3.134,0,0,1-.915-.379.459.459,0,0,0-.429-.029Zm2.014-10.061a.461.461,0,0,0-.323.282l-.154.4h-.5l-.154-.4a.461.461,0,0,0-.323-.283,3.139,3.139,0,0,1-.915-.379.459.459,0,0,0-.428-.029l-.393.174-.357-.356.175-.393a.461.461,0,0,0-.029-.428,3.1,3.1,0,0,1-.379-.915.461.461,0,0,0-.283-.323l-.4-.154v-.5l.4-.154a.46.46,0,0,0,.283-.323,3.107,3.107,0,0,1,.379-.915.46.46,0,0,0,.029-.428l-.175-.393.357-.356.393.175a.463.463,0,0,0,.429-.029,3.11,3.11,0,0,1,.915-.379.461.461,0,0,0,.323-.283l.154-.4h.5l.154.4a.461.461,0,0,0,.323.283,3.109,3.109,0,0,1,.915.379.461.461,0,0,0,.428.029l.393-.175.357.356-.175.393a.461.461,0,0,0,.029.428,3.106,3.106,0,0,1,.379.915.459.459,0,0,0,.283.323l.4.154v.5l-.4.154a.46.46,0,0,0-.283.323,3.119,3.119,0,0,1-.379.915.459.459,0,0,0-.029.428l.174.393-.357.356-.393-.174a.459.459,0,0,0-.428.029A3.143,3.143,0,0,1,33.587,15.719ZM10.82,24.068a.267.267,0,0,1,.024-.028,9.253,9.253,0,0,0,1.414-1.967,2.978,2.978,0,0,0,.335-1.747c-.035-.351-.053-.708-.053-1.061a10.51,10.51,0,0,1,16.715-8.483l.017-.033-.208-.468a.462.462,0,0,1,.1-.513l.8-.8a.459.459,0,0,1,.512-.1l.469.208a4.035,4.035,0,0,1,.73-.3l.184-.478a.461.461,0,0,1,.43-.3h1.136a.461.461,0,0,1,.43.3l.184.478a4.047,4.047,0,0,1,.73.3l.469-.208a.46.46,0,0,1,.512.1l.8.8a.461.461,0,0,1,.1.513l-.208.468a4.023,4.023,0,0,1,.3.731l.478.184a.459.459,0,0,1,.295.43v1.137a.46.46,0,0,1-.295.43l-.478.184a4.062,4.062,0,0,1-.3.731l.208.468a.461.461,0,0,1-.1.513l-.8.8a.46.46,0,0,1-.512.095l-.469-.208a4.087,4.087,0,0,1-.73.3l-.184.478a.461.461,0,0,1-.43.3h-.045q.09.482.136.973h1.09a.461.461,0,0,1,.429.295l.184.479a4,4,0,0,1,.73.3l.469-.208a.461.461,0,0,1,.512.1l.8.8a.461.461,0,0,1,.1.512l-.208.469a4.065,4.065,0,0,1,.3.731l.478.184a.461.461,0,0,1,.3.43v1.137a.46.46,0,0,1-.3.43l-.478.184a4.061,4.061,0,0,1-.3.73l.208.469a.461.461,0,0,1-.1.512l-.8.8a.46.46,0,0,1-.512.095l-.469-.208a4.048,4.048,0,0,1-.73.3l-.184.478a.461.461,0,0,1-.429.3H33.47a.461.461,0,0,1-.43-.3l-.184-.478a4.1,4.1,0,0,1-.731-.3l-.469.208a.461.461,0,0,1-.512-.095l-.3-.3a2.957,2.957,0,0,0-.493,1.374A15.3,15.3,0,0,0,32.2,35.894a.46.46,0,0,1-.413.664H20.308a.461.461,0,0,1-.454-.379,3.368,3.368,0,0,0-1.267-2.339,3.622,3.622,0,0,0-2.832-.252l-.023,0c-1.4.243-2.27.158-2.75-.265a1.14,1.14,0,0,1-.379-.936c-.01-1.161-.208-1.443-.356-1.554l-.006,0a1.022,1.022,0,0,1-.451-.915,1.547,1.547,0,0,1,.59-.988,1.786,1.786,0,0,1-.684-.6.833.833,0,0,1-.086-.738c.271-.937.08-1.047-.078-1.128a1.79,1.79,0,0,1-1.078-1.127,1.481,1.481,0,0,1,.368-1.263Z" transform="translate(-10.422 -8.002)" fill-rule="evenodd"/>
    </g>
  </g>
</svg>
