<svg xmlns="http://www.w3.org/2000/svg" width="67.969" height="67.969" viewBox="0 0 67.969 67.969">
  <g id="Grupo_1005939" data-name="Grupo 1005939" transform="translate(-687.448 -1954.936)">
    <circle id="Elipse_5223" data-name="Elipse 5223" cx="33.984" cy="33.984" r="33.984" transform="translate(687.448 1954.936)" fill="#0098e8"/>
    <path id="Trazado_701124" data-name="Trazado 701124" d="M6.975,5.053H34.02A7,7,0,0,1,41,12.028V39.073a7,7,0,0,1-6.975,6.975H6.975A7,7,0,0,1,0,39.073V12.028A7,7,0,0,1,6.975,5.053" transform="translate(700.934 1963.37)" fill="#1f4168" fill-rule="evenodd"/>
    <g id="Layer_7" data-name="Layer 7" transform="translate(703.978 1972.021)">
      <path id="Trazado_701211" data-name="Trazado 701211" d="M7.636,14l-1.177.979a5.321,5.321,0,0,0-1.914,4.089h0a10.043,10.043,0,0,0,.515,3.173h0l-1.9,3.8a1.525,1.525,0,0,0-.16.682H3A1.52,1.52,0,0,0,4.151,28.2l.909.225.691,3.8A2.275,2.275,0,0,0,7.989,34.09h0a2.321,2.321,0,0,0,.322-.023l3.446-.492h0a6.135,6.135,0,0,1,1.03,3.4v2.263H22.06l-.366-2.559Z" transform="translate(-0.485 -5.819)" fill="#e0ab85"/>
      <path id="Trazado_701212" data-name="Trazado 701212" d="M32.907,30.332a25.321,25.321,0,0,1-9.432-3l.005.005a11.422,11.422,0,0,0,4.595,3.534l4.832,2.035h-2.1a23.294,23.294,0,0,1-4.018-.345,23.8,23.8,0,0,1-3.9-1.025,23.562,23.562,0,0,1-14.3-14.382L5.817,9.3A5.319,5.319,0,0,0,4.06,13.25a10.083,10.083,0,0,0,.515,3.173L4,17.572a5.337,5.337,0,0,1-1.463-1.829A5.25,5.25,0,0,1,2,13.42,11.432,11.432,0,0,1,13.42,2,13.723,13.723,0,0,1,26.87,13.029,86.386,86.386,0,0,0,29.1,21.76l.247.788a10.8,10.8,0,0,0,3.56,5.208,8.366,8.366,0,0,1-6.2-4.111L23.12,17.454,25.392,22.5a16.164,16.164,0,0,0,7.516,7.83Z" transform="translate(0 0)" fill="#542210"/>
      <path id="Trazado_701213" data-name="Trazado 701213" d="M38.738,27.756a10.8,10.8,0,0,1-3.56-5.208l-.247-.788a86.381,86.381,0,0,1-2.23-8.731A13.723,13.723,0,0,0,19.25,2a11.346,11.346,0,0,0-5.226,1.269A33.95,33.95,0,0,0,31.415,32.318c.4.09.8.174,1.2.245a23.3,23.3,0,0,0,4.018.345h2.1l-4.832-2.035a11.422,11.422,0,0,1-4.595-3.534l-.005-.005a25.321,25.321,0,0,0,9.432,3,16.164,16.164,0,0,1-7.516-7.83L28.95,17.454l3.585,6.192a8.366,8.366,0,0,0,6.2,4.111Z" transform="translate(-5.83 0)" fill="#662814"/>
      <path id="Trazado_701214" data-name="Trazado 701214" d="M18,9.576h0a1.885,1.885,0,0,1,1.848,1.515l.212,1.06.212-1.06a1.885,1.885,0,0,1,1.848-1.515h0A1.885,1.885,0,0,1,20.273,8.06L20.06,7l-.212,1.06A1.885,1.885,0,0,1,18,9.576Z" transform="translate(-7.758 -2.424)" fill="#e1f3fc"/>
      <path id="Trazado_701215" data-name="Trazado 701215" d="M54,24.576h0a1.885,1.885,0,0,1,1.848,1.515l.212,1.06.212-1.06a1.885,1.885,0,0,1,1.848-1.515h0a1.885,1.885,0,0,1-1.848-1.515L56.06,22l-.212,1.06A1.885,1.885,0,0,1,54,24.576Z" transform="translate(-25.214 -9.698)" fill="#e1f3fc"/>
      <path id="Trazado_701216" data-name="Trazado 701216" d="M47,4.576h0a1.885,1.885,0,0,1,1.848,1.515l.212,1.06.212-1.06a1.885,1.885,0,0,1,1.848-1.515h0A1.885,1.885,0,0,1,49.273,3.06L49.06,2l-.212,1.06A1.885,1.885,0,0,1,47,4.576Z" transform="translate(-21.819 0)" fill="#e1f3fc"/>
      <path id="Trazado_701217" data-name="Trazado 701217" d="M30.656,36.7A23.723,23.723,0,0,1,27.1,28.54l-.876-3.863-1.006.229.876,3.863a24.783,24.783,0,0,0,2.35,6.26A24.643,24.643,0,0,1,22.156,26.9l-1.129-2.339-.927.448,1.128,2.339A25.649,25.649,0,0,0,32,38.726l.5-.9C31.866,37.474,31.252,37.1,30.656,36.7Z" transform="translate(-8.776 -10.941)" fill="#87321b"/>
      <path id="Trazado_701218" data-name="Trazado 701218" d="M8.471,24.424l-2.6-7.391a5.315,5.315,0,0,0-1.328,3.505,10.043,10.043,0,0,0,.515,3.173l-1.9,3.8a1.521,1.521,0,0,0,.991,2.154l.909.227.691,3.8A2.275,2.275,0,0,0,7.99,35.56a2.321,2.321,0,0,0,.322-.023l3.446-.492a6.135,6.135,0,0,1,1.03,3.4v2.263H22.06l-.247-1.733A25.124,25.124,0,0,1,8.471,24.424Z" transform="translate(-0.485 -7.289)" fill="#efc5a5"/>
    </g>
  </g>
</svg>
