<svg id="discapacidad" xmlns="http://www.w3.org/2000/svg" width="86.83" height="90.729" viewBox="0 0 86.83 90.729">
  <path id="Trazado_689594" data-name="Trazado 689594" d="M54.415,22A43.434,43.434,0,0,0,14.148,81.67l.164.109A17.218,17.218,0,0,1,30.54,67.367l.123-.005.038-.117a7.779,7.779,0,0,1,7.411-5.374H70.718a7.775,7.775,0,0,1,6.027,2.851l7.643,7.815,1.087,4.091-6.961,6.961v17.731l.177.094A43.418,43.418,0,0,0,54.415,22Z" transform="translate(-11 -18.102)" fill="#f6f6f6"/>
  <path id="Trazado_689595" data-name="Trazado 689595" d="M418.7,338.3a3.963,3.963,0,0,1-5.967-2.322l-1.447-5.442-.254-.265-4.362,4.362,5.662,5.662a3.935,3.935,0,0,0,5.441.125c.37-.654.725-1.323,1.062-2Z" transform="translate(-336.553 -271.748)" fill="#f6a96c"/>
  <g id="Grupo_894423" data-name="Grupo 894423" transform="translate(19.476)">
    <g id="Grupo_894422" data-name="Grupo 894422">
      <g id="Grupo_894419" data-name="Grupo 894419" transform="translate(28.709 1.528)">
        <path id="Trazado_689596" data-name="Trazado 689596" d="M293.268,176.583l-.038.126a12.535,12.535,0,0,1-8.465,8.442l-.127.038V188.4h10.784a9.874,9.874,0,0,0,2.32-6.372v-6.249a5.075,5.075,0,0,1-2.748.806Z" transform="translate(-284.333 -146.156)" fill="#883f2e"/>
        <path id="Trazado_689597" data-name="Trazado 689597" d="M284.844,12.824v3.961l.174,0a7.5,7.5,0,0,1,7.325,7.459v2.9h1.234a5.075,5.075,0,0,1,2.748.806V18.171a9.549,9.549,0,0,0-9.549-9.549h-3.861A5.54,5.54,0,0,1,284.844,12.824Z" transform="translate(-282.915 -8.622)" fill="#883f2e"/>
      </g>
      <path id="Trazado_689598" data-name="Trazado 689598" d="M146.721,43.769h11.228V40.557a12.6,12.6,0,0,1-9.122-12.094V21.442a2.484,2.484,0,0,1,2.481-2.481h8.911a7.659,7.659,0,0,0,7.31-5.323l.98-3.037a1.312,1.312,0,0,1,1.251-.911c.047,0,.093,0,.14,0V5.729A5.73,5.73,0,0,0,164.17,0h-8.688A12.481,12.481,0,0,0,143,12.482V37.4a9.875,9.875,0,0,0,2.417,6.484,7.8,7.8,0,0,1,1.3-.111Z" transform="translate(-139.085 0)" fill="#a44f3e"/>
      <path id="Trazado_689599" data-name="Trazado 689599" d="M146.721,43.769h6.042a9.874,9.874,0,0,1-2.321-6.372V34.62a12.5,12.5,0,0,1-1.616-6.157V21.442a2.482,2.482,0,0,1,1.616-2.322V12.482A12.482,12.482,0,0,1,162.924,0h-7.443A12.482,12.482,0,0,0,143,12.482V37.4a9.875,9.875,0,0,0,2.417,6.484,7.782,7.782,0,0,1,1.3-.111Z" transform="translate(-139.085 0)" fill="#883f2e"/>
      <g id="Grupo_894420" data-name="Grupo 894420" transform="translate(0 43.592)">
        <path id="Trazado_689600" data-name="Trazado 689600" d="M174.979,256.753l-7.666-7.837A7.957,7.957,0,0,0,161.149,246H128.543a7.977,7.977,0,0,0-7.636,5.675c.267-.012.536-.02.806-.02a17.2,17.2,0,1,1,0,34.393c-.225,0-.448-.006-.67-.014a43.438,43.438,0,0,0,48.08-.314V267.968l6.981-6.981Z" transform="translate(-120.907 -246)" fill="#0ed290"/>
      </g>
      <g id="Grupo_894421" data-name="Grupo 894421" transform="translate(0.057 43.592)">
        <path id="Trazado_689601" data-name="Trazado 689601" d="M121.978,251.479a17.288,17.288,0,0,1,6.069,1.095A7.975,7.975,0,0,1,135.9,246h-7.088a7.976,7.976,0,0,0-7.579,5.5C121.477,251.485,121.726,251.479,121.978,251.479Z" transform="translate(-121.228 -246)" fill="#00c285"/>
        <path id="Trazado_689602" data-name="Trazado 689602" d="M123.674,468.136c-.128,0-.256,0-.384,0a43.341,43.341,0,0,0,6.328,3.379v-4.421A17.289,17.289,0,0,1,123.674,468.136Z" transform="translate(-122.925 -427.91)" fill="#00c285"/>
      </g>
    </g>
    <path id="Trazado_689603" data-name="Trazado 689603" d="M233.231,229.123H230a12.539,12.539,0,0,1-3.636-.538v4.849a5.252,5.252,0,0,0,10.5,0v-4.849a12.541,12.541,0,0,1-3.636.538Z" transform="translate(-207.676 -188.079)" fill="#f6a96c"/>
    <path id="Trazado_689604" data-name="Trazado 689604" d="M231.614,234.3v-4.134H230a12.755,12.755,0,0,1-3.636-.529V234.3a5.251,5.251,0,0,0,7.878,4.548,5.249,5.249,0,0,1-2.626-4.548Z" transform="translate(-207.675 -188.944)" fill="#ea9b58"/>
  </g>
  <g id="Grupo_894428" data-name="Grupo 894428" transform="translate(2.909 49.071)">
    <g id="Grupo_894424" data-name="Grupo 894424" transform="translate(1.329 1.329)">
      <circle id="Elipse_4755" data-name="Elipse 4755" cx="16.044" cy="16.044" r="16.044" fill="#fd8087"/>
    </g>
    <path id="Trazado_689605" data-name="Trazado 689605" d="M40.424,300.46a16.048,16.048,0,0,1,13.29-15.808,16.044,16.044,0,1,0,0,31.616A16.048,16.048,0,0,1,40.424,300.46Z" transform="translate(-33.587 -283.087)" fill="#fe646f"/>
    <g id="Grupo_894425" data-name="Grupo 894425" transform="translate(10.358 5.905)">
      <path id="Trazado_689606" data-name="Trazado 689606" d="M102.878,318.746a8.506,8.506,0,0,0-8.651-8.5,8.6,8.6,0,0,0-8.36,8.645v9.224a5.658,5.658,0,0,0,5.425,5.7,5.582,5.582,0,0,0,5.739-5.58q0-.116,0-.231a1.605,1.605,0,0,1,.926-1.532A8.506,8.506,0,0,0,102.878,318.746Z" transform="translate(-85.866 -310.24)" fill="#ffbd86"/>
    </g>
    <g id="Grupo_894426" data-name="Grupo 894426" transform="translate(13.902 9.449)">
      <path id="Trazado_689607" data-name="Trazado 689607" d="M107.844,346.719a2.112,2.112,0,0,1-1.978-2.153v-9.224a5.056,5.056,0,0,1,4.875-5.1h.086a4.963,4.963,0,0,1,2.086,9.465,5.141,5.141,0,0,0-2.974,4.893c0,.026,0,.055,0,.085a2.038,2.038,0,0,1-2.038,2.038Z" transform="translate(-105.866 -330.24)" fill="#f6a96c"/>
    </g>
    <g id="Grupo_894427" data-name="Grupo 894427" transform="translate(13.902 15.474)">
      <path id="Trazado_689608" data-name="Trazado 689608" d="M105.866,364.24v6.734a3.367,3.367,0,0,0,0-6.734Z" transform="translate(-105.866 -364.24)" fill="#ea9b58"/>
    </g>
    <path id="Trazado_689609" data-name="Trazado 689609" d="M44.789,276.917A17.374,17.374,0,1,0,62.163,294.29,17.393,17.393,0,0,0,44.789,276.917ZM30.074,294.29a14.647,14.647,0,0,1,3.418-9.417l20.714,20.714a14.706,14.706,0,0,1-24.133-11.3Zm26.012,9.417L35.372,282.994a14.706,14.706,0,0,1,20.714,20.714Z" transform="translate(-27.416 -276.917)" fill="#fb2b3a"/>
  </g>
  <path id="Trazado_689610" data-name="Trazado 689610" d="M378.352,124.38l-7.5-28.214a6.006,6.006,0,0,0,1.446-5.693l-3.327-12.417a1.379,1.379,0,0,0-1.617-1.013,1.341,1.341,0,0,0-.988,1.653l1.752,6.537a.549.549,0,1,1-1.06.284l-2.368-8.839a1.379,1.379,0,0,0-1.618-1.013,1.341,1.341,0,0,0-.988,1.653l2.383,8.893a.549.549,0,0,1-.388.672h0a.549.549,0,0,1-.672-.388l-2.369-8.839a1.379,1.379,0,0,0-1.618-1.013,1.341,1.341,0,0,0-.988,1.653l2.383,8.893a.549.549,0,0,1-.388.672h0a.549.549,0,0,1-.672-.388l-1.737-6.483a1.378,1.378,0,0,0-1.618-1.013,1.341,1.341,0,0,0-.988,1.653l.362,1.351a5.109,5.109,0,0,1,2.523,4.4v1.691a5.109,5.109,0,0,1-2.453,4.362l3.437,1.985a6.018,6.018,0,0,0,3.571,2.887l7.5,28.2a4.142,4.142,0,0,0,6.275,2.4,43.14,43.14,0,0,0,1.81-4.158C378.411,124.625,378.385,124.5,378.352,124.38Z" transform="translate(-294.342 -62.229)" fill="#ffbd86"/>
  <g id="Grupo_894432" data-name="Grupo 894432" transform="translate(10.722 15.982)">
    <g id="Grupo_894429" data-name="Grupo 894429" transform="translate(0)">
      <path id="Trazado_689611" data-name="Trazado 689611" d="M76.392,110.066a1.324,1.324,0,0,1-.94-.389,13.517,13.517,0,0,1,0-19.095,1.329,1.329,0,0,1,1.879,1.879,10.856,10.856,0,0,0,0,15.336,1.329,1.329,0,0,1-.94,2.269Z" transform="translate(-71.504 -90.192)" fill="#fff"/>
    </g>
    <g id="Grupo_894430" data-name="Grupo 894430" transform="translate(5.677 1.769)">
      <path id="Trazado_689612" data-name="Trazado 689612" d="M107.7,116.509a1.324,1.324,0,0,1-.94-.389,11.013,11.013,0,0,1,0-15.557,1.329,1.329,0,1,1,1.879,1.879,8.352,8.352,0,0,0,0,11.8,1.329,1.329,0,0,1-.94,2.269Z" transform="translate(-103.543 -100.173)" fill="#fff"/>
    </g>
    <g id="Grupo_894431" data-name="Grupo 894431" transform="translate(11.198 3.537)">
      <path id="Trazado_689613" data-name="Trazado 689613" d="M138.122,122.953a1.324,1.324,0,0,1-.94-.389,8.509,8.509,0,0,1,0-12.02,1.329,1.329,0,0,1,1.879,1.879,5.848,5.848,0,0,0,0,8.261,1.329,1.329,0,0,1-.94,2.269Z" transform="translate(-134.697 -110.154)" fill="#fff"/>
    </g>
  </g>
  <path id="Trazado_689614" data-name="Trazado 689614" d="M334.811,112.135h-1.234v8.592a12.538,12.538,0,0,1-.547,3.669h1.781a5.285,5.285,0,0,0,5.285-5.285V117.42A5.284,5.284,0,0,0,334.811,112.135Z" transform="translate(-275.965 -92.264)" fill="#f6a96c"/>
  <g id="Grupo_894433" data-name="Grupo 894433" transform="translate(29.04 9.513)">
    <path id="Trazado_689615" data-name="Trazado 689615" d="M195.991,53.681a1.492,1.492,0,0,0-1.42,1.034l-.98,3.037a7.5,7.5,0,0,1-7.141,5.2h-8.911a2.658,2.658,0,0,0-2.658,2.658v7.021A12.759,12.759,0,0,0,187.64,85.39h3.232A12.759,12.759,0,0,0,203.63,72.631V61.32A7.639,7.639,0,0,0,195.991,53.681Z" transform="translate(-174.881 -53.681)" fill="#ffbd86"/>
  </g>
  <g id="Grupo_894434" data-name="Grupo 894434" transform="translate(29.04 18.784)">
    <path id="Trazado_689616" data-name="Trazado 689616" d="M180.4,115.679v-7.021A2.658,2.658,0,0,1,183.053,106h-5.514a2.658,2.658,0,0,0-2.658,2.658v7.021a12.759,12.759,0,0,0,12.759,12.759h3.232c.385,0,.765-.02,1.141-.054A12.758,12.758,0,0,1,180.4,115.679Z" transform="translate(-174.881 -106)" fill="#f6a96c"/>
  </g>
  <g id="Grupo_894441" data-name="Grupo 894441" transform="translate(33.219 16.432)">
    <g id="Grupo_894436" data-name="Grupo 894436" transform="translate(14.36)">
      <g id="Grupo_894435" data-name="Grupo 894435">
        <path id="Trazado_689617" data-name="Trazado 689617" d="M285.745,95.388h-4.916a1.329,1.329,0,1,1,0-2.658h4.916a1.329,1.329,0,0,1,0,2.658Z" transform="translate(-279.5 -92.73)" fill="#ca6e59"/>
      </g>
    </g>
    <g id="Grupo_894437" data-name="Grupo 894437" transform="translate(6.535 5.299)">
      <path id="Trazado_689618" data-name="Trazado 689618" d="M239,131.988a1.322,1.322,0,0,1-.846-.3l-2.334-1.928a1.329,1.329,0,0,1-.347-1.609l2.334-4.769a1.329,1.329,0,0,1,2.388,1.168l-1.873,3.828,1.526,1.261a1.329,1.329,0,0,1-.847,2.354Z" transform="translate(-235.341 -122.632)" fill="#ca6e59"/>
    </g>
    <g id="Grupo_894440" data-name="Grupo 894440" transform="translate(0 4.294)">
      <g id="Grupo_894438" data-name="Grupo 894438">
        <circle id="Elipse_4756" data-name="Elipse 4756" cx="2.537" cy="2.537" r="2.537" fill="#ca6e59"/>
      </g>
      <g id="Grupo_894439" data-name="Grupo 894439" transform="translate(15.323)">
        <circle id="Elipse_4757" data-name="Elipse 4757" cx="2.537" cy="2.537" r="2.537" fill="#ca6e59"/>
      </g>
    </g>
  </g>
  <g id="Grupo_894442" data-name="Grupo 894442" transform="translate(37.833 32.783)">
    <path id="Trazado_689619" data-name="Trazado 689619" d="M232.076,189.253h-3.987a3.588,3.588,0,0,1-3.588-3.588.665.665,0,0,1,.665-.665H235a.665.665,0,0,1,.664.665A3.588,3.588,0,0,1,232.076,189.253Z" transform="translate(-224.5 -185)" fill="#fd8087"/>
  </g>
  <path id="Trazado_689620" data-name="Trazado 689620" d="M228.133,185.665A.665.665,0,0,1,228.8,185h-3.633a.665.665,0,0,0-.665.665,3.588,3.588,0,0,0,3.588,3.588h3.633A3.588,3.588,0,0,1,228.133,185.665Z" transform="translate(-186.667 -152.217)" fill="#fe646f"/>
  <g id="Grupo_894443" data-name="Grupo 894443" transform="translate(65.388 27.467)">
    <path id="Trazado_689621" data-name="Trazado 689621" d="M384.873,161.2a1.329,1.329,0,0,1-1.329-1.329,2.217,2.217,0,0,0-2.215-2.215,1.329,1.329,0,1,1,0-2.658,4.879,4.879,0,0,1,4.873,4.873A1.329,1.329,0,0,1,384.873,161.2Z" transform="translate(-380 -155)" fill="#f6a96c"/>
  </g>
</svg>
