<svg xmlns="http://www.w3.org/2000/svg" xmlns:xlink="http://www.w3.org/1999/xlink" width="156.118" height="156.117" viewBox="0 0 156.118 156.117">
  <defs>
    <clipPath id="clip-path">
      <rect id="Rect치ngulo_33847" data-name="Rect치ngulo 33847" width="156.118" height="156.117" fill="none"/>
    </clipPath>
    <clipPath id="clip-path-2">
      <rect id="Rect치ngulo_34575" data-name="Rect치ngulo 34575" width="93.935" height="107.74" fill="none"/>
    </clipPath>
  </defs>
  <g id="Grupo_998967" data-name="Grupo 998967" transform="translate(0 0)">
    <g id="Grupo_80331" data-name="Grupo 80331" transform="translate(0 0)" clip-path="url(#clip-path)">
      <path id="Trazado_113698" data-name="Trazado 113698" d="M156.118,78.059A78.059,78.059,0,1,1,78.059,0a78.059,78.059,0,0,1,78.059,78.059" fill="#4db1f0"/>
      <g id="Grupo_82194" data-name="Grupo 82194" transform="translate(21.564 24.188)">
        <g id="Grupo_82194-2" data-name="Grupo 82194" clip-path="url(#clip-path-2)">
          <path id="Trazado_114040" data-name="Trazado 114040" d="M89.769,8.465c-1.861,0-3.659,1.659-4.931,4.553-2.481,5.638-5.3,18.023-6.844,25.333,1.321,6.062.007,20.378-2.158,24.166a6.848,6.848,0,0,1-5.988,3.677A6.208,6.208,0,0,1,64.7,63.545c-.651-.948-1.322-3.381-1.874-6.485a18.907,18.907,0,0,1-1.6,5.142,7.336,7.336,0,0,1-6.413,3.939h0a6.643,6.643,0,0,1-5.5-2.835c-1.915-2.789-4.007-17.5-3.14-26.4-1.064-4.021-1.923-8.668-2.767-13.238-.936-5.064-1.9-10.3-3.111-14.4-1.563-5.316-4.427-7.21-6.585-7.21a4.221,4.221,0,0,0-3.065,1.378C29.225,4.9,28.5,7.272,28.59,10.109c.1,2.934.78,9.117,1.57,16.276C33.257,54.438,34.2,67.912,31.2,68.6c-3.524.815-9.217-2.956-16.921-11.211a8.4,8.4,0,0,0-6.094-2.38c-2.592,0-4.761.974-5.661,2.542-.757,1.319-.574,3.017.531,4.91l.667,1.148c15.76,27.165,28.376,41.687,37.5,43.162a72.678,72.678,0,0,0,11.575.921c17.576,0,36.884-6.636,37.741-21.206.684-11.636,1.841-38,2.605-55.453.356-8.129.638-14.551.745-16.583a6.465,6.465,0,0,0-1.557-4.8,3.551,3.551,0,0,0-2.558-1.186M49.654,95.974a.525.525,0,0,1-.519.448.59.59,0,0,1-.079-.006.527.527,0,0,1-.442-.6,22.127,22.127,0,0,0-9.2-21.136A.526.526,0,1,1,40,73.814a23.2,23.2,0,0,1,9.65,22.16M76.479,70.532a68.866,68.866,0,0,1-15.474,3.4q-1.337.1-2.637.1a27.348,27.348,0,0,1-12.941-2.97.526.526,0,0,1,.5-.927,27.563,27.563,0,0,0,15,2.752,67.937,67.937,0,0,0,15.235-3.352.526.526,0,0,1,.315,1" transform="translate(-1.01 -1.007)" fill="#ffdcad"/>
          <path id="Trazado_114041" data-name="Trazado 114041" d="M88.758,6.407c-1.349,0-3.909.673-5.894,5.181-2.361,5.367-4.956,16.4-6.552,23.829-.037-.064-.073-.135-.112-.192-1.634-2.381-6.041-4.394-9.623-4.394a5.62,5.62,0,0,0-3.97,1.311,3.771,3.771,0,0,0-.734,1.08,3.248,3.248,0,0,0-.169-.292c-1.754-2.555-6.485-4.714-10.331-4.714a6.015,6.015,0,0,0-4.246,1.4,7.055,7.055,0,0,0-1.559,3.559c-.784-3.366-1.466-7.059-2.139-10.7-.94-5.09-1.914-10.352-3.136-14.509C38.824,2.978,35.985,0,32.7,0a5.318,5.318,0,0,0-3.821,1.7c-1.617,1.673-2.451,4.314-2.347,7.438.1,2.975.784,9.176,1.576,16.356.977,8.858,2.085,18.9,2.59,27.04.807,13.015-.477,13.98-.743,14.041a3.416,3.416,0,0,1-.77.084c-2.231,0-6.67-1.906-15.146-10.987a9.333,9.333,0,0,0-6.862-2.714c-2.967,0-5.485,1.177-6.573,3.07-.667,1.16-1.115,3.137.535,5.963L1.8,63.134c5.937,10.232,24,41.369,38.236,43.672a73.726,73.726,0,0,0,11.744.935c18.053,0,37.893-6.946,38.79-22.2.684-11.643,1.841-38.017,2.606-55.468.356-8.127.637-14.547.744-16.574a7.512,7.512,0,0,0-1.844-5.581,4.587,4.587,0,0,0-3.321-1.514m4.115,7.039c-.108,2.033-.389,8.454-.745,16.583-.766,17.449-1.922,43.817-2.606,55.453-.856,14.57-20.165,21.206-37.74,21.206a72.691,72.691,0,0,1-11.575-.921c-9.12-1.475-21.734-16-37.5-43.162l-.667-1.148c-1.1-1.894-1.288-3.592-.531-4.91.9-1.567,3.07-2.542,5.661-2.542a8.4,8.4,0,0,1,6.093,2.38c7.7,8.254,13.4,12.026,16.921,11.211,3-.693,2.058-14.167-1.038-42.221-.79-7.158-1.472-13.341-1.57-16.275-.094-2.837.634-5.207,2.051-6.672A4.223,4.223,0,0,1,32.7,1.052c2.159,0,5.022,1.894,6.586,7.21,1.207,4.1,2.175,9.34,3.11,14.4.845,4.57,1.7,9.218,2.768,13.238-.868,8.89,1.225,23.606,3.14,26.4a6.645,6.645,0,0,0,5.5,2.835h0A7.336,7.336,0,0,0,60.219,61.2a18.913,18.913,0,0,0,1.6-5.142c.552,3.1,1.223,5.537,1.873,6.485a6.209,6.209,0,0,0,5.142,2.648h0a6.847,6.847,0,0,0,5.988-3.677c2.166-3.788,3.48-18.1,2.158-24.166,1.543-7.31,4.364-19.7,6.845-25.333C85.1,9.117,86.9,7.458,88.758,7.458a3.552,3.552,0,0,1,2.558,1.186,6.469,6.469,0,0,1,1.557,4.8m-41.5,15.823c3.486,0,7.908,1.989,9.463,4.257,2.283,3.326,1.211,22.355-1.529,27.148a6.311,6.311,0,0,1-5.5,3.409A5.593,5.593,0,0,1,49.169,61.7C47,58.547,44.03,34.035,47.853,30.378a5.011,5.011,0,0,1,3.52-1.109m15.2,2.614c3.225,0,7.317,1.84,8.756,3.936,2.115,3.083,1.118,20.724-1.422,25.169a5.824,5.824,0,0,1-5.076,3.147,5.157,5.157,0,0,1-4.275-2.192c-.739-1.077-1.579-4.837-2.17-9.324.869-6.333,1.045-14.14.013-17.986a4.167,4.167,0,0,1,.93-1.732,4.621,4.621,0,0,1,3.243-1.019" transform="translate(0)" fill="#d79054"/>
          <path id="Trazado_114042" data-name="Trazado 114042" d="M122.166,83.166c.591,4.488,1.431,8.247,2.17,9.324a5.157,5.157,0,0,0,4.276,2.192,5.823,5.823,0,0,0,5.075-3.147c2.541-4.445,3.537-22.087,1.422-25.169-1.439-2.1-5.531-3.936-8.757-3.936a4.618,4.618,0,0,0-3.242,1.02,4.158,4.158,0,0,0-.93,1.732c1.032,3.846.855,11.653-.013,17.985" transform="translate(-59.776 -30.546)" fill="#ffdcad"/>
          <path id="Trazado_114043" data-name="Trazado 114043" d="M93.25,89.747a5.593,5.593,0,0,0,4.637,2.378h0a6.312,6.312,0,0,0,5.5-3.409c2.74-4.794,3.812-23.823,1.529-27.149-1.556-2.267-5.978-4.257-9.463-4.257a5.01,5.01,0,0,0-3.52,1.11c-3.822,3.657-.851,28.169,1.316,31.326" transform="translate(-44.082 -28.042)" fill="#ffdcad"/>
          <path id="Trazado_114044" data-name="Trazado 114044" d="M75.565,142.475a.526.526,0,1,0-.594.868,22.128,22.128,0,0,1,9.2,21.136.526.526,0,0,0,.442.6.58.58,0,0,0,.079.006.525.525,0,0,0,.519-.448,23.2,23.2,0,0,0-9.65-22.16" transform="translate(-36.571 -69.668)" fill="#d79054"/>
          <path id="Trazado_114045" data-name="Trazado 114045" d="M117.444,134.148a67.942,67.942,0,0,1-15.235,3.352,27.564,27.564,0,0,1-15-2.752.526.526,0,0,0-.5.927,27.349,27.349,0,0,0,12.941,2.97q1.3,0,2.637-.1a68.865,68.865,0,0,0,15.474-3.4.526.526,0,1,0-.315-1" transform="translate(-42.29 -65.627)" fill="#d79054"/>
          <path id="Trazado_114046" data-name="Trazado 114046" d="M95.454,57.311a5.011,5.011,0,0,0-3.52,1.109c-3.822,3.657-.851,28.169,1.316,31.327a5.592,5.592,0,0,0,4.637,2.378h0a5.9,5.9,0,0,0,1.945-.34c-.078-.079-.157-.158-.234-.238-4.087-4.3-5.071-10.67-5.119-16.6a71.822,71.822,0,0,1,2.051-17.569,10.27,10.27,0,0,0-1.078-.064" transform="translate(-44.082 -28.042)" fill="#fcca92"/>
          <path id="Trazado_114047" data-name="Trazado 114047" d="M128.556,62.681a10.736,10.736,0,0,0-2.2-.252,4.618,4.618,0,0,0-3.242,1.019,4.164,4.164,0,0,0-.93,1.732c1.033,3.846.855,11.653-.013,17.985.591,4.488,1.431,8.247,2.17,9.324a5.156,5.156,0,0,0,4.275,2.192,5.44,5.44,0,0,0,2.873-.815c-1.025-1.944-2.438-3.807-3.3-5.828a23.377,23.377,0,0,1-1.339-4.984,46.68,46.68,0,0,1-1.041-10.98,19.6,19.6,0,0,1,2.756-9.394" transform="translate(-59.776 -30.546)" fill="#fcca92"/>
          <path id="Trazado_114048" data-name="Trazado 114048" d="M56.595,154.854c-1.1-.865-2.369-1.5-3.415-2.425a4.261,4.261,0,0,1-1.653-3.66,11.769,11.769,0,0,1,1.224-2.739c1.156-2.626.132-5.635-.691-8.383s-1.332-6.048.55-8.213c2.107-2.424,5.884-2.032,9.08-1.718,4.505.442,9.18.289,13.37-1.428a7.911,7.911,0,0,0,3.45-2.394,3.722,3.722,0,0,0,.438-3.988,9.4,9.4,0,0,0-1.8-1.844,8.5,8.5,0,0,1-2.129-3.446,6.64,6.64,0,0,1-5.173,2.5,6.208,6.208,0,0,1-5.142-2.648c-.651-.948-1.322-3.381-1.874-6.485a18.913,18.913,0,0,1-1.6,5.142,7.336,7.336,0,0,1-6.413,3.939h0a6.643,6.643,0,0,1-5.5-2.835,15.9,15.9,0,0,1-1.577-4.738c-.578,2.791-1.008,5.668-2.52,8.066s-4.147,4.893-3.034,7.491c-1.438.444-2.655-1.64-4.141-1.406-1.514.237-1.606,2.436-.983,3.835.955,2.146,2.594,3.912,3.744,5.96s1.761,4.688.544,6.7c-1.436,2.371-4.731,2.808-7.459,2.317-8.3-1.5-14.253-8.757-18.518-16.031a103.145,103.145,0,0,1-9.1-20.29,5.462,5.462,0,0,0-3.743,2.348c-.757,1.318-.574,3.017.531,4.91l.667,1.148C19.482,141.7,32.1,156.222,41.217,157.7a72.679,72.679,0,0,0,11.575.921,70.256,70.256,0,0,0,7.191-.373,39.375,39.375,0,0,0-3.387-3.39M45.213,121.265a.526.526,0,0,1,.712-.215,27.558,27.558,0,0,0,15,2.752,67.908,67.908,0,0,0,15.235-3.352.526.526,0,0,1,.315,1,68.865,68.865,0,0,1-15.474,3.4q-1.337.1-2.637.1a27.348,27.348,0,0,1-12.941-2.97.526.526,0,0,1-.215-.712M49.654,146.9a.525.525,0,0,1-.519.447.585.585,0,0,1-.079-.006.526.526,0,0,1-.442-.6,22.127,22.127,0,0,0-9.2-21.136.526.526,0,1,1,.594-.868,23.2,23.2,0,0,1,9.65,22.16" transform="translate(-1.01 -51.929)" fill="#fcca92"/>
          <path id="Trazado_114049" data-name="Trazado 114049" d="M148.049,14.637a3.045,3.045,0,0,0-.431-.034c-1.861,0-3.659,1.659-4.931,4.553-2.481,5.638-5.3,18.023-6.845,25.333,1.321,6.062.007,20.378-2.158,24.166a6.847,6.847,0,0,1-5.988,3.677,6.208,6.208,0,0,1-5.142-2.648c-.651-.948-1.322-3.381-1.874-6.485q-.182.912-.386,1.723a19.185,19.185,0,0,0,2.139,5.947,22.348,22.348,0,0,0,5.592,6.06q.227.18.459.357c1.882-.5,3.731-1.053,5.529-1.618a.526.526,0,0,1,.315,1c-1.539.484-3.118.958-4.722,1.4a7.584,7.584,0,0,0,2.282,1.01,4.1,4.1,0,0,0,4.08-1.115,6.218,6.218,0,0,0,.989-3.822l.323-9.088a43.006,43.006,0,0,1,.452-5.658c.721-4.246,2.7-8.17,3.824-12.326,1.447-5.331,1.472-10.925,1.92-16.43s1.4-11.164,4.42-15.788c.046-.071.1-.142.151-.212" transform="translate(-58.86 -7.145)" fill="#fcca92"/>
          <path id="Trazado_114050" data-name="Trazado 114050" d="M56.605,68.621c-.1.024-.214.03-.321.046.1,0,.2-.012.3-.025,2.068-.276,3.292-2.431,3.988-4.4,3.291-9.31,1.97-19.538.609-29.318q-1.2-8.633-2.4-17.267c-.719-5.163-1.384-10.653.009-15.568a4.273,4.273,0,0,0-2.739,1.361C54.631,4.919,53.9,7.289,54,10.125c.1,2.935.78,9.117,1.57,16.276,3.1,28.054,4.041,41.528,1.038,42.221" transform="translate(-26.417 -1.024)" fill="#fcca92"/>
          <path id="Trazado_114051" data-name="Trazado 114051" d="M19.285,111.416a6.42,6.42,0,0,0-4.259-1.57.338.338,0,0,0-.089.661,10.081,10.081,0,0,1,4.04,1.983c.848.7,1.559,1.925,2.682,2.161a.217.217,0,0,0,.263-.263c-.173-1.245-1.688-2.278-2.636-2.972" transform="translate(-7.19 -53.739)" fill="#fff9df"/>
          <path id="Trazado_114052" data-name="Trazado 114052" d="M32.413,123.03a2.155,2.155,0,0,0-.9-.959,9.179,9.179,0,0,1-1.092-.937.371.371,0,0,0-.581.448,6.054,6.054,0,0,0,.954,1.209,1.708,1.708,0,0,0,1.317.634c.183-.023.378-.184.3-.395" transform="translate(-14.574 -59.219)" fill="#fff9df"/>
          <path id="Trazado_114053" data-name="Trazado 114053" d="M66.7,5.9c-.193-.132-.35.142-.229.3a28.5,28.5,0,0,1,2.548,3.545c.739,1.312.978,2.8,1.666,4.1a.314.314,0,0,0,.581-.157C71.4,10.9,68.9,7.409,66.7,5.9" transform="translate(-32.503 -2.871)" fill="#fff9df"/>
          <path id="Trazado_114054" data-name="Trazado 114054" d="M116.773,81.1a.248.248,0,0,0-.459.124c.414,4.04-1,7.842-.78,11.842.029.506.8.664.92.125.824-3.849,1.992-8.322.32-12.09" transform="translate(-56.519 -39.621)" fill="#fff9df"/>
          <path id="Trazado_114055" data-name="Trazado 114055" d="M113.612,107.718a6,6,0,0,0-.938,3.96c.04.23.342.215.45.059a9.459,9.459,0,0,0,1.313-3.67.454.454,0,0,0-.826-.348" transform="translate(-55.102 -52.597)" fill="#fff9df"/>
          <path id="Trazado_114056" data-name="Trazado 114056" d="M143.911,90.2a.271.271,0,0,0-.523.144c.733,3.295.181,6.233-.149,9.519-.014.15.208.2.276.075,1.628-2.948,1.277-6.616.4-9.738" transform="translate(-70.087 -44.042)" fill="#fff9df"/>
          <path id="Trazado_114057" data-name="Trazado 114057" d="M178.133,31.643c.02-2.264-.016-4.526-.053-6.79a.148.148,0,0,0-.3,0c-.217,2.262-.426,4.523-.593,6.79-.143,1.936-.536,4,.026,5.879a.223.223,0,0,0,.427,0c.708-1.837.471-3.931.489-5.879" transform="translate(-86.569 -12.091)" fill="#fff9df"/>
          <path id="Trazado_114058" data-name="Trazado 114058" d="M176.969,53.867c.007-.4-.569-.382-.608,0a6.376,6.376,0,0,0,.337,3.591c.089.18.316.068.337-.091a32.227,32.227,0,0,0-.065-3.5" transform="translate(-86.246 -26.214)" fill="#fff9df"/>
          <path id="Trazado_114059" data-name="Trazado 114059" d="M167.349,156.994a26.239,26.239,0,0,1-1.591,6.157c-.644,1.789-1.817,3.528-1.984,5.443a.356.356,0,0,0,.6.25c1.344-1.4,1.928-3.57,2.564-5.366a21.646,21.646,0,0,0,1.146-6.483c.017-.485-.69-.463-.739,0" transform="translate(-80.134 -76.643)" fill="#fff9df"/>
          <path id="Trazado_114060" data-name="Trazado 114060" d="M158.4,184.166a9.929,9.929,0,0,0-1.569,1.592,4.653,4.653,0,0,0-1.164,1.91c-.038.261.162.566.465.465a4.433,4.433,0,0,0,1.652-1.422,10.122,10.122,0,0,0,1.378-1.958.487.487,0,0,0-.761-.587" transform="translate(-76.168 -90.052)" fill="#fff9df"/>
          <path id="Trazado_114061" data-name="Trazado 114061" d="M154.856,133.871a.24.24,0,0,0-.407-.169c-2.424,2.4-2.2,6.986-5.664,8.567-.113.051-.032.226.082.2,1.691-.462,2.626-1.721,3.572-3.113,1.026-1.51,2.52-3.569,2.417-5.481" transform="translate(-72.774 -65.387)" fill="#fcca92"/>
          <path id="Trazado_114062" data-name="Trazado 114062" d="M163.009,131.926c-.112-.376-.758-.322-.71.1a11.188,11.188,0,0,1,.069,1.491c-.011.534-.229,1.025-.02,1.538.048.117.2.228.326.133.871-.661.607-2.343.335-3.258" transform="translate(-79.393 -64.428)" fill="#fcca92"/>
          <path id="Trazado_114063" data-name="Trazado 114063" d="M165.431,76.658a24.638,24.638,0,0,0-.862,4.653c-.007.156.24.235.306.083a24.677,24.677,0,0,0,1.269-4.54c.1-.464-.6-.661-.713-.2" transform="translate(-80.523 -37.379)" fill="#fcca92"/>
          <path id="Trazado_114064" data-name="Trazado 114064" d="M59.4,168.37c-1.334-.42-2.821-.176-4.2-.461a9.841,9.841,0,0,1-4.577-2.375.14.14,0,0,0-.2.2c1.8,2.173,6.191,5.137,9.043,3.133a.274.274,0,0,0-.065-.5" transform="translate(-24.653 -80.976)" fill="#fcca92"/>
          <path id="Trazado_114065" data-name="Trazado 114065" d="M68.4,167.72a31.374,31.374,0,0,1-3.528.081.3.3,0,0,0-.209.505,3.117,3.117,0,0,0,4,.044.372.372,0,0,0-.261-.631" transform="translate(-31.597 -82.065)" fill="#fcca92"/>
          <path id="Trazado_114066" data-name="Trazado 114066" d="M121.083,201.677a6.678,6.678,0,0,0-2.007-.3,13.077,13.077,0,0,0-2.307.091c-.139.023-.144.222-.037.285a4.845,4.845,0,0,0,2.018.632,11.131,11.131,0,0,0,1.3.06,3.114,3.114,0,0,0,1.073-.42c.157-.07.1-.3-.045-.345" transform="translate(-57.081 -98.528)" fill="#fcca92"/>
        </g>
      </g>
    </g>
  </g>
</svg>
