<svg xmlns="http://www.w3.org/2000/svg" xmlns:xlink="http://www.w3.org/1999/xlink" width="610" height="440" viewBox="0 0 610 440">
  <defs>
    <clipPath id="clip-path">
      <rect id="Rectángulo_344041" data-name="Rectángulo 344041" width="610" height="440" transform="translate(0 -0.4)" fill="none"/>
    </clipPath>
    <clipPath id="clip-path-2">
      <rect id="Rectángulo_344027" data-name="Rectángulo 344027" width="708" height="570" transform="translate(-0.2 0.126)" fill="none"/>
    </clipPath>
    <clipPath id="clip-path-4">
      <rect id="Rectángulo_344028" data-name="Rectángulo 344028" width="87.958" height="156.577" fill="none"/>
    </clipPath>
    <clipPath id="clip-path-5">
      <rect id="Rectángulo_344029" data-name="Rectángulo 344029" width="20.999" height="11.489" fill="none"/>
    </clipPath>
    <clipPath id="clip-path-6">
      <rect id="Rectángulo_344030" data-name="Rectángulo 344030" width="19.724" height="65.623" fill="none"/>
    </clipPath>
    <clipPath id="clip-path-7">
      <rect id="Rectángulo_344031" data-name="Rectángulo 344031" width="0.115" height="0.209" fill="none"/>
    </clipPath>
    <clipPath id="clip-path-8">
      <rect id="Rectángulo_344032" data-name="Rectángulo 344032" width="0.008" height="0.154" fill="none"/>
    </clipPath>
    <clipPath id="clip-path-9">
      <rect id="Rectángulo_344033" data-name="Rectángulo 344033" width="12.365" height="76.355" fill="none"/>
    </clipPath>
    <clipPath id="clip-path-10">
      <rect id="Rectángulo_344034" data-name="Rectángulo 344034" width="36.417" height="28.791" fill="none"/>
    </clipPath>
    <clipPath id="clip-path-11">
      <rect id="Rectángulo_344035" data-name="Rectángulo 344035" width="33.833" height="26.583" fill="none"/>
    </clipPath>
    <clipPath id="clip-path-12">
      <rect id="Rectángulo_344036" data-name="Rectángulo 344036" width="4.423" height="61.141" fill="none"/>
    </clipPath>
    <clipPath id="clip-path-13">
      <rect id="Rectángulo_344037" data-name="Rectángulo 344037" width="17.363" height="25.861" fill="none"/>
    </clipPath>
  </defs>
  <g id="Grupo_895621" data-name="Grupo 895621" transform="translate(-41.912 -53.627)">
    <g id="Grupo_895620" data-name="Grupo 895620" transform="translate(41.913 54.027)" clip-path="url(#clip-path)">
      <g id="Grupo_895587" data-name="Grupo 895587" transform="translate(-48.8 -62.525)">
        <g id="Grupo_895586" data-name="Grupo 895586" transform="translate(0 0)" clip-path="url(#clip-path-2)">
          <path id="Trazado_691538" data-name="Trazado 691538" d="M613.1,587.784l.507,61.995a9.529,9.529,0,0,1-9.638,9.407l-27.8.31-9.438,19.916a3.6,3.6,0,0,1-6.4.071l-9.88-19.7-27.8.31a9.528,9.528,0,0,1-9.846-9.19l-.507-61.994a9.529,9.529,0,0,1,9.638-9.408l81.308-.907a9.529,9.529,0,0,1,9.846,9.19" transform="translate(-372.773 -421.219)" fill="#f0f2f5"/>
          <path id="Trazado_691539" data-name="Trazado 691539" d="M256.86,479.578l.36,43.947a6.755,6.755,0,0,1-6.833,6.669l-19.7.22-6.691,14.118a2.553,2.553,0,0,1-4.535.051l-7-13.965-19.7.22a6.755,6.755,0,0,1-6.98-6.515l-.359-43.947a6.755,6.755,0,0,1,6.832-6.669l57.638-.643a6.755,6.755,0,0,1,6.98,6.515" transform="translate(-134.792 -344.393)" fill="#f0f2f5"/>
          <path id="Trazado_691540" data-name="Trazado 691540" d="M774.035,242.937l.325,39.731a6.107,6.107,0,0,1-6.177,6.029l-17.814.2-6.049,12.764a2.308,2.308,0,0,1-4.1.046l-6.332-12.626-17.814.2a6.107,6.107,0,0,1-6.31-5.89l-.325-39.73a6.107,6.107,0,0,1,6.177-6.029l52.108-.581a6.107,6.107,0,0,1,6.31,5.89" transform="translate(-516.28 -172.577)" fill="#f0f2f5"/>
          <path id="Trazado_691541" data-name="Trazado 691541" d="M1715.788,587.784l-.507,61.995a9.529,9.529,0,0,0,9.638,9.407l27.8.31,9.438,19.916a3.6,3.6,0,0,0,6.4.071l9.88-19.7,27.8.31a9.529,9.529,0,0,0,9.846-9.19l.507-61.994a9.529,9.529,0,0,0-9.638-9.408l-81.307-.907a9.529,9.529,0,0,0-9.846,9.19" transform="translate(-1248.519 -421.219)" fill="#f0f2f5"/>
          <path id="Trazado_691542" data-name="Trazado 691542" d="M2150.953,479.578l-.359,43.947a6.755,6.755,0,0,0,6.833,6.669l19.7.22,6.691,14.118a2.553,2.553,0,0,0,4.535.051l7-13.965,19.7.22a6.754,6.754,0,0,0,6.979-6.515l.36-43.947a6.755,6.755,0,0,0-6.833-6.669l-57.638-.643a6.755,6.755,0,0,0-6.98,6.515" transform="translate(-1565.42 -344.393)" fill="#f0f2f5"/>
          <path id="Trazado_691543" data-name="Trazado 691543" d="M1652.219,242.937l-.325,39.731a6.107,6.107,0,0,0,6.177,6.029l17.814.2,6.049,12.764a2.308,2.308,0,0,0,4.1.046l6.332-12.626,17.814.2a6.107,6.107,0,0,0,6.31-5.89l.325-39.73a6.108,6.108,0,0,0-6.177-6.029l-52.108-.581a6.107,6.107,0,0,0-6.31,5.89" transform="translate(-1202.374 -172.577)" fill="#f0f2f5"/>
          <rect id="Rectángulo_343993" data-name="Rectángulo 343993" width="148.798" height="31.055" transform="translate(464.029 452.671)" fill="#f0f2f5"/>
          <rect id="Rectángulo_343994" data-name="Rectángulo 343994" width="3.041" height="31.055" transform="translate(476.536 452.671)" fill="#fff"/>
          <rect id="Rectángulo_343995" data-name="Rectángulo 343995" width="149.55" height="16.814" transform="translate(453.449 483.726)" fill="#e1e6eb"/>
          <rect id="Rectángulo_343996" data-name="Rectángulo 343996" width="9.344" height="16.814" transform="translate(560.863 483.726)" fill="#fff"/>
          <rect id="Rectángulo_343997" data-name="Rectángulo 343997" width="4.672" height="16.814" transform="translate(550.676 483.726)" fill="#fff"/>
          <rect id="Rectángulo_343998" data-name="Rectángulo 343998" width="158.427" height="11.324" transform="translate(444.573 416.224)" fill="#f0f2f5"/>
          <rect id="Rectángulo_343999" data-name="Rectángulo 343999" width="134.188" height="25.122" transform="translate(458.231 427.549)" fill="#f0f2f5"/>
          <rect id="Rectángulo_344000" data-name="Rectángulo 344000" width="61.446" height="3.382" transform="translate(453.449 449.288)" fill="#e1e6eb"/>
          <rect id="Rectángulo_344001" data-name="Rectángulo 344001" width="61.446" height="3.382" transform="translate(453.449 427.549)" fill="#e1e6eb"/>
          <rect id="Rectángulo_344002" data-name="Rectángulo 344002" width="80.906" height="25.122" transform="translate(514.895 427.549)" fill="#e1e6eb"/>
          <rect id="Rectángulo_344003" data-name="Rectángulo 344003" width="7.183" height="18.358" transform="translate(525.325 430.931)" fill="#fff"/>
          <rect id="Rectángulo_344004" data-name="Rectángulo 344004" width="76.724" height="17.387" transform="translate(524.358 398.838)" fill="#f0f2f5"/>
          <rect id="Rectángulo_344005" data-name="Rectángulo 344005" width="75.861" height="17.387" transform="translate(464.03 398.838)" fill="#e1e6eb"/>
          <rect id="Rectángulo_344006" data-name="Rectángulo 344006" width="63.108" height="2.097" transform="translate(539.891 398.838)" fill="#e1e6eb"/>
          <rect id="Rectángulo_344007" data-name="Rectángulo 344007" width="63.108" height="2.097" transform="translate(539.891 414.128)" fill="#e1e6eb"/>
          <rect id="Rectángulo_344008" data-name="Rectángulo 344008" width="0.978" height="17.387" transform="translate(482.362 398.838)" fill="#fff"/>
          <rect id="Rectángulo_344009" data-name="Rectángulo 344009" width="0.979" height="17.387" transform="translate(475.824 398.838)" fill="#fff"/>
          <path id="Trazado_691544" data-name="Trazado 691544" d="M1844.2,1530.2v5.184l-138.97-5.184Z" transform="translate(-1241.206 -1113.975)" fill="#d2d9e1"/>
          <path id="Trazado_691545" data-name="Trazado 691545" d="M1705.235,1664.188v11.325l131.771-11.325Z" transform="translate(-1241.206 -1211.517)" fill="#d2d9e1"/>
          <rect id="Rectángulo_344010" data-name="Rectángulo 344010" width="148.798" height="31.055" transform="translate(94.773 452.671)" fill="#f0f2f5"/>
          <rect id="Rectángulo_344011" data-name="Rectángulo 344011" width="3.041" height="31.055" transform="translate(228.024 452.671)" fill="#fff"/>
          <rect id="Rectángulo_344012" data-name="Rectángulo 344012" width="149.55" height="16.814" transform="translate(104.601 483.726)" fill="#e1e6eb"/>
          <rect id="Rectángulo_344013" data-name="Rectángulo 344013" width="9.344" height="16.814" transform="translate(137.394 483.726)" fill="#fff"/>
          <rect id="Rectángulo_344014" data-name="Rectángulo 344014" width="4.672" height="16.814" transform="translate(152.253 483.726)" fill="#fff"/>
          <rect id="Rectángulo_344015" data-name="Rectángulo 344015" width="158.427" height="11.324" transform="translate(104.601 416.224)" fill="#f0f2f5"/>
          <rect id="Rectángulo_344016" data-name="Rectángulo 344016" width="134.188" height="25.122" transform="translate(115.182 427.549)" fill="#f0f2f5"/>
          <rect id="Rectángulo_344017" data-name="Rectángulo 344017" width="61.446" height="3.382" transform="translate(192.706 449.288)" fill="#e1e6eb"/>
          <rect id="Rectángulo_344018" data-name="Rectángulo 344018" width="61.446" height="3.382" transform="translate(192.706 427.549)" fill="#e1e6eb"/>
          <rect id="Rectángulo_344019" data-name="Rectángulo 344019" width="80.906" height="25.122" transform="translate(111.8 427.549)" fill="#e1e6eb"/>
          <rect id="Rectángulo_344020" data-name="Rectángulo 344020" width="7.183" height="18.358" transform="translate(175.093 430.931)" fill="#fff"/>
          <rect id="Rectángulo_344021" data-name="Rectángulo 344021" width="76.724" height="17.387" transform="translate(106.518 398.838)" fill="#f0f2f5"/>
          <rect id="Rectángulo_344022" data-name="Rectángulo 344022" width="75.861" height="17.387" transform="translate(167.709 398.838)" fill="#e1e6eb"/>
          <rect id="Rectángulo_344023" data-name="Rectángulo 344023" width="63.108" height="2.097" transform="translate(104.601 398.838)" fill="#e1e6eb"/>
          <rect id="Rectángulo_344024" data-name="Rectángulo 344024" width="63.108" height="2.097" transform="translate(104.601 414.128)" fill="#e1e6eb"/>
          <rect id="Rectángulo_344025" data-name="Rectángulo 344025" width="0.978" height="17.387" transform="translate(224.26 398.838)" fill="#fff"/>
          <rect id="Rectángulo_344026" data-name="Rectángulo 344026" width="0.978" height="17.387" transform="translate(230.798 398.838)" fill="#fff"/>
          <path id="Trazado_691546" data-name="Trazado 691546" d="M383.871,1530.2v5.184l138.97-5.184Z" transform="translate(-279.27 -1113.975)" fill="#d2d9e1"/>
          <path id="Trazado_691547" data-name="Trazado 691547" d="M542.105,1664.188v11.325l-131.772-11.325Z" transform="translate(-298.534 -1211.517)" fill="#d2d9e1"/>
        </g>
      </g>
      <g id="Grupo_895619" data-name="Grupo 895619" transform="translate(-48.8 -62.525)">
        <g id="Grupo_895618" data-name="Grupo 895618" transform="translate(0 0)" clip-path="url(#clip-path-2)">
          <path id="Trazado_691548" data-name="Trazado 691548" d="M920.971,1151.022s-1.048,22.289-26.483,15.733c0,0-35.737,4.581-67.186-35.623,0,0,0,0,0-.005s-.01-.01-.017-.02a158.356,158.356,0,0,1-19.707-33.579s-2.458,30.389-11.941,51.134v39.717H585.124v-39.763s-10.115-35.806-9.123-70.238c0-.077,0-.134,0-.173-.074,1.256-1.509,23.064-12.476,42.761a.018.018,0,0,0,0,.007c-5.086,9.131-12.222,17.808-22.22,23.771,0,0-20.212,38.729-50.03,34.074-23.3-3.638-33.17-39.063-25.657-66.428L465.463,1099a21.478,21.478,0,0,1,6.917-16.036l16.4-15.119,27.818-48.134,15.347,7.007L567.13,969.5a16.356,16.356,0,0,1,11.237-7.567l43.173-7.217,2.176-.364,3.569-4.394a13.835,13.835,0,0,1,12.67-4.982l36.191,5.083,12.045,1.69,47.649-6.625a13.594,13.594,0,0,1,13.733,6.823c.1.183.2.372.3.563l1.7,3.405.3.593.148.3,4.422.635,45.235,6.484a19.806,19.806,0,0,1,13.171,7.9l32.287,44.112,10.159-5.46a7.033,7.033,0,0,1,9.024,2.07l23,31.739a15.812,15.812,0,0,1,2.853,11.473l-.562,4.013s36.186,39.859,29.367,91.252" transform="translate(-336.979 -687.838)" fill="#f9a21b"/>
          <g id="Grupo_895590" data-name="Grupo 895590" transform="translate(272.509 256.999)" opacity="0.4" style="mix-blend-mode: multiply;isolation: isolate">
            <g id="Grupo_895589" data-name="Grupo 895589">
              <g id="Grupo_895588" data-name="Grupo 895588" clip-path="url(#clip-path-4)">
                <path id="Trazado_691549" data-name="Trazado 691549" d="M1077.723,1004.949a48.688,48.688,0,0,0,5.7-7.862,42.278,42.278,0,0,0,4.03-8.967,31.309,31.309,0,0,0,1.073-4.865,30.971,30.971,0,0,0,.317-5.009,22.157,22.157,0,0,0-2.471-9.636,39.762,39.762,0,0,0-5.54-8.073,48.681,48.681,0,0,0-7.175-6.59c-1.893-1.391-3.854-2.677-5.851-3.891l-36.191-5.083a13.835,13.835,0,0,0-12.67,4.982l-3.569,4.394-2.176.364a24.483,24.483,0,0,0,4.117,1.024c-13.959,12.073-12.2,26.155-12.2,26.155-15.419,30.837,18.822,24.765,21.729,24.2a21.137,21.137,0,0,0-1.978,3.891,28.211,28.211,0,0,0-1.953,8.791,18.347,18.347,0,0,0,.28,4.566,25.006,25.006,0,0,0,3.5,8.365,22.236,22.236,0,0,0,2.741,3.571,16.26,16.26,0,0,0,3.611,2.845,15.968,15.968,0,0,0,4.33,1.708,24.31,24.31,0,0,0,4.565.57,48.254,48.254,0,0,0,8.938-.543c5.537-.835,10.8-2.087,16.341-2.411-4.1,19.451-22.708,18.145-30.8,30.128s3.436,21.865,3.436,21.865c-1.173-3.941.213-8.519.213-8.519-1.066,8.2,4.471,10.222,4.471,10.222a19.732,19.732,0,0,1,.32-7.56c2.129,13.84,10.647,12.67,10.647,12.67-2.875-3.939-2.449-12.67-2.449-12.67,2.875,21.4,18.846,17.568,18.846,17.568a12.519,12.519,0,0,1-2.768-2.662c12.137,5.537,14.221-8.6,14.221-8.6-8.038,5.339-11.329,2.159-12.611-2.357a16.073,16.073,0,0,1,3.217-14.444c9.772-12.036,7.515-23.092,7.515-23.092,18.774-25.11-3.051-43.413-3.051-43.413Zm-39.913,32.433a17.276,17.276,0,0,1-4.02-.843,11.468,11.468,0,0,1-6.29-5.314,13.527,13.527,0,0,1-1.445-3.983,25.663,25.663,0,0,1-.421-4.184c-.02-.719-.035-1.44-.037-2.164.721,8.149,4.59,15.887,15.909,16.633a28.145,28.145,0,0,1-3.7-.146m40.2-77.294c.629.466,1.279.922,1.881,1.418a16.166,16.166,0,0,1,5.309,7.589,24.888,24.888,0,0,1,.93,9.106,39.61,39.61,0,0,1-1.775,8.987c-.845,2.831-1.854,5.646-2.987,8.444,2.873-9.26,4.9-23.875-4.479-36.3.372.253.743.508,1.12.761" transform="translate(-1001.15 -944.838)" fill="#a65b3c"/>
              </g>
            </g>
          </g>
          <g id="Grupo_895593" data-name="Grupo 895593" transform="translate(375.404 306.475)" opacity="0.4" style="mix-blend-mode: multiply;isolation: isolate">
            <g id="Grupo_895592" data-name="Grupo 895592">
              <g id="Grupo_895591" data-name="Grupo 895591" clip-path="url(#clip-path-5)">
                <path id="Trazado_691550" data-name="Trazado 691550" d="M1379.425,1138.218l5.247-5.637,1.729-1.623s3.794-4.686,6.389-4.192a3.971,3.971,0,0,1,3.164,2.656s1.205,2.332,2.094,3.887a22.982,22.982,0,0,0,2.374,3.223s-9.265-9.377-21,1.687" transform="translate(-1379.424 -1126.729)" fill="#a65b3c"/>
              </g>
            </g>
          </g>
          <g id="Grupo_895596" data-name="Grupo 895596" transform="translate(470.594 377.666)" opacity="0.4" style="mix-blend-mode: multiply;isolation: isolate">
            <g id="Grupo_895595" data-name="Grupo 895595">
              <g id="Grupo_895594" data-name="Grupo 895594" clip-path="url(#clip-path-6)">
                <path id="Trazado_691551" data-name="Trazado 691551" d="M1749.1,1454.072a.242.242,0,0,0-.017-.02,158.377,158.377,0,0,1-19.706-33.579s1.162-16.221,1.668-32.024c.513,17.2,3.737,45.51,18.055,65.623" transform="translate(-1729.371 -1388.449)" fill="#a65b3c"/>
              </g>
            </g>
          </g>
          <g id="Grupo_895599" data-name="Grupo 895599" transform="translate(226.55 432.918)" opacity="0.4" style="mix-blend-mode: multiply;isolation: isolate">
            <g id="Grupo_895598" data-name="Grupo 895598">
              <g id="Grupo_895597" data-name="Grupo 895597" clip-path="url(#clip-path-7)">
                <path id="Trazado_691552" data-name="Trazado 691552" d="M832.3,1591.572c-.038.069-.076.139-.115.208,0,0,.041-.071.115-.208" transform="translate(-832.19 -1591.572)" fill="#a65b3c"/>
              </g>
            </g>
          </g>
          <g id="Grupo_895602" data-name="Grupo 895602" transform="translate(237.882 343.047)" opacity="0.4" style="mix-blend-mode: multiply;isolation: isolate">
            <g id="Grupo_895601" data-name="Grupo 895601">
              <g id="Grupo_895600" data-name="Grupo 895600" clip-path="url(#clip-path-8)">
                <path id="Trazado_691553" data-name="Trazado 691553" d="M873.857,1261.333c0-.065-.006-.119-.008-.155,0,.052.005.1.008.155" transform="translate(-873.849 -1261.178)" fill="#a65b3c"/>
              </g>
            </g>
          </g>
          <g id="Grupo_895605" data-name="Grupo 895605" transform="translate(226.664 356.564)" opacity="0.4" style="mix-blend-mode: multiply;isolation: isolate">
            <g id="Grupo_895604" data-name="Grupo 895604">
              <g id="Grupo_895603" data-name="Grupo 895603" clip-path="url(#clip-path-9)">
                <path id="Trazado_691554" data-name="Trazado 691554" d="M844.976,1344.615c0-12.506-.307-24.815-.6-33.745,1.039,51.04-10.492,73.991-11.76,76.354,10.862-19.641,12.288-41.3,12.362-42.552,0-.037,0-.057,0-.057" transform="translate(-832.611 -1310.87)" fill="#a65b3c"/>
              </g>
            </g>
          </g>
          <g id="Grupo_895608" data-name="Grupo 895608" transform="translate(517.351 373.876)" opacity="0.4" style="mix-blend-mode: multiply;isolation: isolate">
            <g id="Grupo_895607" data-name="Grupo 895607">
              <g id="Grupo_895606" data-name="Grupo 895606" clip-path="url(#clip-path-10)">
                <path id="Trazado_691555" data-name="Trazado 691555" d="M1937.68,1374.517s-8.5,20.819-36.417,28.792c0,0,5.218-1.052,11.335-2.657a30.848,30.848,0,0,0,18.819-14.3,125.034,125.034,0,0,0,6.263-11.838" transform="translate(-1901.262 -1374.517)" fill="#a65b3c"/>
              </g>
            </g>
          </g>
          <g id="Grupo_895611" data-name="Grupo 895611" transform="translate(157.31 392.039)" opacity="0.4" style="mix-blend-mode: multiply;isolation: isolate">
            <g id="Grupo_895610" data-name="Grupo 895610">
              <g id="Grupo_895609" data-name="Grupo 895609" clip-path="url(#clip-path-11)">
                <path id="Trazado_691556" data-name="Trazado 691556" d="M577.642,1441.289a60.112,60.112,0,0,0,33.833,26.583s-5.657-1.474-11.987-3.756a33.2,33.2,0,0,1-17.856-15.263c-1.368-2.5-2.788-5.157-3.989-7.564" transform="translate(-577.642 -1441.289)" fill="#a65b3c"/>
              </g>
            </g>
          </g>
          <g id="Grupo_895614" data-name="Grupo 895614" transform="translate(371.535 439.4)" opacity="0.4" style="mix-blend-mode: multiply;isolation: isolate">
            <g id="Grupo_895613" data-name="Grupo 895613">
              <g id="Grupo_895612" data-name="Grupo 895612" clip-path="url(#clip-path-12)">
                <path id="Trazado_691557" data-name="Trazado 691557" d="M1365.2,1676.542s2.076-38.146.805-61.141l3.619,61.141Z" transform="translate(-1365.198 -1615.401)" fill="#a65b3c"/>
              </g>
            </g>
          </g>
          <g id="Grupo_895617" data-name="Grupo 895617" transform="translate(507.681 438.306)" opacity="0.4" style="mix-blend-mode: multiply;isolation: isolate">
            <g id="Grupo_895616" data-name="Grupo 895616">
              <g id="Grupo_895615" data-name="Grupo 895615" clip-path="url(#clip-path-13)">
                <path id="Trazado_691558" data-name="Trazado 691558" d="M1865.713,1611.38s6.48,16.977,17.362,25.861l-5.522-3.547a20.345,20.345,0,0,1-8.475-11.216Z" transform="translate(-1865.712 -1611.38)" fill="#a65b3c"/>
              </g>
            </g>
          </g>
          <path id="Trazado_691559" data-name="Trazado 691559" d="M1761.52,1302.706c.33,2.229.748,4.444,1.21,6.648.225,1.1.478,2.2.716,3.3l.79,3.284q1.647,6.552,3.835,12.948l.548,1.6c.182.532.361,1.066.567,1.59l1.2,3.157c.191.53.418,1.045.635,1.564l.655,1.557.654,1.556c.215.52.467,1.023.7,1.536l1.42,3.064,1.548,3,.771,1.5.842,1.464,1.688,2.928-1.745-2.9-.872-1.449-.8-1.489c-.529-1-1.065-1.988-1.585-2.988l-1.456-3.053c-.238-.511-.5-1.013-.718-1.531l-.662-1.557-.661-1.557c-.219-.519-.448-1.035-.642-1.565l-1.212-3.158c-.209-.524-.39-1.058-.574-1.591l-.555-1.6c-1.443-4.272-2.724-8.6-3.78-12.986a127.751,127.751,0,0,1-2.513-13.283" transform="translate(-1282.18 -948.363)" fill="#a65b3c"/>
          <path id="Trazado_691560" data-name="Trazado 691560" d="M1833.25,1506.681c.52,2.5,1.142,4.978,1.805,7.443s1.371,4.918,2.143,7.351a145.961,145.961,0,0,0,5.321,14.347c1.011,2.342,2.089,4.656,3.273,6.915s2.435,4.484,3.816,6.627a59.031,59.031,0,0,0,4.491,6.187,45.354,45.354,0,0,0,5.343,5.47,45.4,45.4,0,0,1-5.444-5.384,58.816,58.816,0,0,1-4.565-6.159,76.046,76.046,0,0,1-3.86-6.627c-1.195-2.262-2.283-4.577-3.3-6.921s-1.959-4.723-2.83-7.126-1.7-4.823-2.441-7.267a144.487,144.487,0,0,1-3.749-14.856" transform="translate(-1334.399 -1096.854)" fill="#a65b3c"/>
          <path id="Trazado_691561" data-name="Trazado 691561" d="M1865.335,1610.544c.04.844.084,1.687.155,2.528s.135,1.682.221,2.521c.174,1.678.381,3.352.657,5.015.245,1.669.6,3.318.975,4.96l.3,1.227c.1.41.23.811.344,1.217.208.819.506,1.608.752,2.418a38.745,38.745,0,0,1-1.6-4.812c-.421-1.639-.774-3.3-1.041-4.968s-.467-3.353-.6-5.04-.2-3.377-.169-5.068" transform="translate(-1357.75 -1172.465)" fill="#a65b3c"/>
          <path id="Trazado_691562" data-name="Trazado 691562" d="M1890.633,1374.517a40.021,40.021,0,0,1-4.135,7.08,54.64,54.64,0,0,1-5.308,6.267,58.466,58.466,0,0,1-13.08,9.885,65.6,65.6,0,0,1-15.255,6.024c-.665.166-1.325.349-1.992.5l-2.011.42-1.005.21c-.335.068-.675.114-1.012.172l-2.027.33c-.674.121-1.357.178-2.037.261l-2.04.234c-1.364.117-2.73.2-4.094.3,1.363-.124,2.727-.228,4.087-.367l2.034-.267c.677-.094,1.358-.162,2.029-.294l2.02-.349c.336-.061.675-.109,1.009-.18l1-.219,2-.438c.664-.158,1.321-.346,1.982-.519,1.327-.326,2.622-.762,3.928-1.163l.488-.153.482-.174.963-.349c.639-.24,1.292-.446,1.917-.72l1.892-.783c.63-.262,1.24-.571,1.861-.854l.928-.433c.305-.152.606-.314.909-.471.6-.321,1.216-.621,1.809-.958a59.065,59.065,0,0,0,13.064-9.794,54.806,54.806,0,0,0,5.348-6.2,39.928,39.928,0,0,0,4.242-7" transform="translate(-1336.865 -1000.641)" fill="#a65b3c"/>
          <path id="Trazado_691563" data-name="Trazado 691563" d="M1730.771,1232.159c.152,3.1.265,6.211.36,9.318l.106,4.661.072,4.662q.117,9.325-.018,18.651-.157,9.325-.623,18.641l-.242,4.656-.3,4.653-.163,2.326-.2,2.323-.4,4.646.329-4.651.162-2.325.129-2.327.276-4.654.219-4.656q.405-9.314.532-18.637.173-9.321.109-18.645l-.049-4.662-.081-4.661c-.051-3.107-.12-6.215-.228-9.321" transform="translate(-1258.777 -897.006)" fill="#a65b3c"/>
          <path id="Trazado_691564" data-name="Trazado 691564" d="M1324.56,1406.259c.223-3.4.366-6.815.515-10.223s.25-6.82.344-10.23.144-6.822.176-10.234l.045-5.117.016-5.118c-.009-13.647-.427-27.3-1.457-40.909s-2.547-27.184-4.862-40.632c-.264-1.685-.611-3.356-.918-5.033s-.624-3.354-.987-5.02-.69-3.341-1.057-5.006l-1.177-4.979c-1.648-6.62-3.55-13.177-5.8-19.621l.025-.009a230.645,230.645,0,0,1,10.178,39.623l.838,5.052.745,5.066c.259,1.687.469,3.381.684,5.074s.452,3.384.626,5.082l.563,5.089.479,5.1c.168,1.7.3,3.4.431,5.1s.282,3.4.383,5.1c.5,6.808.79,13.628,1.067,20.448s.415,13.646.448,20.471c.012,3.413.021,6.826-.031,10.239s-.127,6.825-.225,10.236c-.212,6.822-.5,13.644-1.018,20.45Z" transform="translate(-953.039 -905.719)" fill="#a65b3c"/>
          <path id="Trazado_691565" data-name="Trazado 691565" d="M1273.594,1403.621c-.025-3.414-.1-6.828-.151-10.242s-.133-6.827-.216-10.241-.185-6.826-.294-10.239l-.33-10.238q-.36-10.237-.872-20.468c-.335-6.821-.787-13.635-1.279-20.446s-1.066-13.615-1.7-20.415-1.323-13.592-2.147-20.37-1.7-13.55-2.754-20.3-2.239-13.471-3.635-20.157l.026-.006c1.486,6.667,2.712,13.389,3.8,20.132s2.018,13.513,2.822,20.3c1.618,13.565,2.823,27.177,3.731,40.806.239,3.406.445,6.815.655,10.224l.578,10.228q.567,10.229.976,20.465c.128,3.412.267,6.825.359,10.238s.177,6.828.246,10.241c.137,6.828.237,13.658.207,20.488Z" transform="translate(-917.239 -903.081)" fill="#a65b3c"/>
          <path id="Trazado_691566" data-name="Trazado 691566" d="M1071.857,1048.136c-.134-2.7-.4-5.395-.7-8.082-.167-1.342-.319-2.685-.505-4.024l-.289-2.007c-.1-.669-.188-1.339-.305-2-.228-1.332-.431-2.669-.672-4l-.746-3.986-.845-3.966-.211-.992-.239-.985-.477-1.97-.471-1.972c-.162-.656-.349-1.306-.522-1.959-.356-1.3-.7-2.611-1.066-3.912l-1.183-3.878c-.2-.644-.38-1.3-.607-1.934l-.653-1.919-.653-1.92-.327-.96c-.105-.321-.218-.64-.344-.954l-1.45-3.787c-.245-.63-.467-1.27-.731-1.892l-.8-1.865-1.593-3.732a154.99,154.99,0,0,1,6.09,15.042l.672,1.916c.231.636.408,1.29.614,1.935l1.2,3.88c.371,1.3.718,2.61,1.079,3.914.176.653.365,1.3.529,1.96l.477,1.973.472,1.975.236.987.209.994.834,3.974.734,3.993c.241,1.332.432,2.672.646,4.008.111.667.2,1.339.287,2.009l.271,2.012c.174,1.342.316,2.688.467,4.032.256,2.694.478,5.392.568,8.1" transform="translate(-768.917 -717.397)" fill="#a65b3c"/>
          <path id="Trazado_691567" data-name="Trazado 691567" d="M1113.022,1160.841c1.363-.414,2.7-.905,4.015-1.451s2.611-1.13,3.879-1.774a48.321,48.321,0,0,0,7.254-4.458c.576-.416,1.126-.865,1.682-1.306.538-.463,1.088-.914,1.6-1.4.531-.472,1.023-.984,1.528-1.483.477-.525.978-1.03,1.43-1.578a31.6,31.6,0,0,0,4.633-7.132l-.441.974-.225.486-.249.473c-.167.314-.33.632-.5.945l-.549.919a30.079,30.079,0,0,1-2.507,3.47c-.443.561-.94,1.077-1.42,1.606-.505.505-1,1.024-1.53,1.5-.515.5-1.065.953-1.6,1.422-.557.448-1.108.9-1.685,1.325a46.587,46.587,0,0,1-7.324,4.426,44.927,44.927,0,0,1-7.987,3.038" transform="translate(-810.082 -830.102)" fill="#a65b3c"/>
          <path id="Trazado_691568" data-name="Trazado 691568" d="M1208.693,1140.256a42.276,42.276,0,0,1,8.74,4.95c1.366.976,2.675,2.031,3.942,3.134s2.485,2.262,3.644,3.478,2.267,2.48,3.308,3.8,2.039,2.669,2.967,4.068c.454.706.918,1.405,1.339,2.132.214.361.435.718.643,1.082l.609,1.1c.415.729.77,1.49,1.153,2.236s.708,1.52,1.059,2.281a67.32,67.32,0,0,0-4.978-8.714c-.226-.352-.48-.685-.72-1.028s-.476-.688-.731-1.019c-.5-.666-1-1.339-1.535-1.984-.516-.658-1.069-1.286-1.612-1.921-.276-.314-.562-.62-.842-.93s-.566-.615-.858-.914a57.154,57.154,0,0,0-7.512-6.631q-2.016-1.493-4.17-2.791a37.028,37.028,0,0,0-4.447-2.328" transform="translate(-879.729 -830.102)" fill="#a65b3c"/>
          <path id="Trazado_691569" data-name="Trazado 691569" d="M1528.061,1049.614c.391-1.225.7-2.475.983-3.729s.523-2.518.735-3.785q.647-3.8.963-7.647a106.865,106.865,0,0,0,.151-15.4,116.894,116.894,0,0,0-1.942-15.284l-.372-1.892c-.13-.629-.277-1.255-.415-1.882-.267-1.258-.59-2.5-.9-3.749l-.234-.935-.256-.929-.512-1.859c-.354-1.236-.744-2.462-1.115-3.694.391,1.225.8,2.445,1.178,3.675l.545,1.852.273.926.25.932c.327,1.245.661,2.488.94,3.744.144.627.3,1.252.435,1.881l.391,1.891.2.946.171.95.337,1.9.291,1.909c.1.636.194,1.273.268,1.913l.241,1.916.2,1.921c.07.64.123,1.282.169,1.924s.107,1.283.14,1.927a104.036,104.036,0,0,1-.215,15.437q-.354,3.847-1.041,7.652c-.233,1.266-.5,2.526-.8,3.777s-.635,2.5-1.047,3.714" transform="translate(-1110.103 -719.862)" fill="#a65b3c"/>
          <path id="Trazado_691570" data-name="Trazado 691570" d="M1466.216,1157.21a44.958,44.958,0,0,1-7.987-3.038,46.551,46.551,0,0,1-7.324-4.427c-.577-.421-1.128-.877-1.685-1.324-.54-.469-1.089-.926-1.6-1.421-.531-.479-1.024-1-1.53-1.5-.48-.529-.976-1.045-1.42-1.606a30.149,30.149,0,0,1-2.508-3.471l-.549-.919c-.172-.312-.335-.63-.5-.945l-.249-.473-.224-.486-.441-.974a31.6,31.6,0,0,0,4.633,7.132c.451.548.952,1.053,1.43,1.578.5.5,1,1.011,1.528,1.483.514.489,1.063.941,1.6,1.4.556.441,1.106.89,1.682,1.306a48.345,48.345,0,0,0,7.254,4.458q1.9.965,3.88,1.773c1.314.546,2.652,1.037,4.015,1.451" transform="translate(-1048.258 -827.458)" fill="#a65b3c"/>
          <path id="Trazado_691571" data-name="Trazado 691571" d="M1414.623,1129.19a5.387,5.387,0,0,0-.814-1.279,3.665,3.665,0,0,0-1.156-.931,3.07,3.07,0,0,0-1.422-.322,3.988,3.988,0,0,0-1.437.33,9.311,9.311,0,0,0-2.529,1.62c-.2.158-.385.329-.571.5s-.373.345-.551.527c-.373.347-.712.727-1.073,1.089a17.711,17.711,0,0,1,2.057-2.276,6.958,6.958,0,0,1,.584-.5l.3-.24.318-.221a7.015,7.015,0,0,1,1.361-.751,4.235,4.235,0,0,1,1.534-.324,3.061,3.061,0,0,1,1.523.385,4.288,4.288,0,0,1,1.873,2.394" transform="translate(-1022.689 -820.023)" fill="#a65b3c"/>
          <path id="Trazado_691572" data-name="Trazado 691572" d="M792.349,1328.909c-.186,2.544-.433,5.083-.7,7.619s-.6,5.067-.944,7.594-.741,5.048-1.162,7.564-.878,5.027-1.384,7.528c-1.021,5-2.189,9.973-3.633,14.869-.733,2.444-1.5,4.879-2.391,7.271s-1.864,4.752-2.96,7.055c1.056-2.322,1.986-4.7,2.835-7.1s1.608-4.837,2.315-7.285c1.4-4.9,2.569-9.866,3.568-14.864,1.02-4.995,1.862-10.025,2.606-15.068q.557-3.783,1.019-7.58c.313-2.53.6-5.064.834-7.6" transform="translate(-567.044 -967.438)" fill="#a65b3c"/>
          <path id="Trazado_691573" data-name="Trazado 691573" d="M562.537,1409.558a46.833,46.833,0,0,0,3.777,7.929,60,60,0,0,0,10.943,13.673c.546.488,1.073,1,1.633,1.468l1.686,1.406,1.745,1.333.437.333.451.313.9.624.9.628c.306.2.618.391.927.588l.929.585c.311.192.615.4.938.571l1.913,1.078c.316.187.644.348.972.511l.982.491.982.491c.326.167.668.3,1,.452l2.011.883c.68.271,1.368.523,2.052.786l1.027.39c.344.125.7.229,1.043.344l2.091.676c.7.214,1.413.386,2.12.58l1.062.284.531.14.537.115,2.149.462c.359.074.714.166,1.075.227l1.084.182,2.169.365c.361.069.726.1,1.09.147l1.092.129,2.185.258-2.189-.225-1.095-.113c-.365-.039-.731-.067-1.093-.131l-2.176-.332-1.089-.166c-.363-.056-.72-.142-1.08-.211l-2.156-.45-.539-.113-.533-.138-1.065-.279c-.709-.192-1.425-.36-2.128-.571l-2.1-.667c-.349-.114-.7-.216-1.048-.339l-1.032-.386c-.687-.26-1.378-.509-2.062-.777l-2.023-.875c-.335-.15-.679-.282-1.007-.448l-.988-.488-.988-.488c-.33-.162-.661-.323-.978-.507l-1.926-1.073c-.325-.172-.631-.376-.944-.568l-.936-.583c-.311-.2-.626-.386-.934-.586l-.907-.627-.9-.631-.451-.316-.437-.336-1.746-1.347-1.686-1.421c-.56-.476-1.087-.99-1.632-1.482a60.363,60.363,0,0,1-5.959-6.487,52.807,52.807,0,0,1-8.607-15.281" transform="translate(-409.336 -1026.15)" fill="#a65b3c"/>
          <path id="Trazado_691574" data-name="Trazado 691574" d="M499.7,1508.8a10.322,10.322,0,0,1-2.2-1.608,16.05,16.05,0,0,1-1.829-2.038,20.718,20.718,0,0,1-2.633-4.8l-.473-1.287-.375-1.318L492,1497.1l-.14-.67-.27-1.342c-.051-.223-.073-.45-.1-.677l-.084-.678-.167-1.357c-.041-.911-.089-1.82-.12-2.728.093.906.168,1.811.252,2.715l.2,1.346.1.672a6.788,6.788,0,0,0,.119.669l.293,1.327.145.664.192.651.383,1.3.479,1.269a21.445,21.445,0,0,0,2.547,4.77,16.143,16.143,0,0,0,1.753,2.066,10.994,10.994,0,0,0,2.112,1.7" transform="translate(-357.345 -1084.453)" fill="#a65b3c"/>
          <path id="Trazado_691575" data-name="Trazado 691575" d="M725.9,1556.994c-.839,4.09-1.885,8.138-3.06,12.146-.583,2.006-1.223,3.995-1.889,5.974s-1.37,3.948-2.124,5.9-1.553,3.881-2.415,5.784-1.751,3.8-2.748,5.634-2.023,3.659-3.177,5.4a52.767,52.767,0,0,1-3.742,5.021,52.689,52.689,0,0,0,3.63-5.093c1.128-1.754,2.136-3.582,3.1-5.428a111.569,111.569,0,0,0,5.095-11.419c1.519-3.885,2.844-7.844,4.068-11.832q.914-2.993,1.729-6.016c.548-2.013,1.071-4.034,1.53-6.071" transform="translate(-514.32 -1133.482)" fill="#a65b3c"/>
          <path id="Trazado_691576" data-name="Trazado 691576" d="M1013.365,1735.016a101.653,101.653,0,0,1-10.669-1.263q-5.3-.892-10.5-2.293a87.638,87.638,0,0,1-10.187-3.437c-1.659-.68-3.284-1.441-4.885-2.246-1.592-.824-3.142-1.727-4.652-2.688a65.2,65.2,0,0,0,9.616,4.74,91.776,91.776,0,0,0,10.179,3.368c3.448.95,6.947,1.712,10.467,2.35q2.64.481,5.3.848c1.772.252,3.549.47,5.334.62" transform="translate(-707.761 -1254.396)" fill="#a65b3c"/>
          <path id="Trazado_691577" data-name="Trazado 691577" d="M1605.362,1719.633c-1.2.763-2.44,1.45-3.7,2.1s-2.555,1.24-3.858,1.8-2.642,1.045-3.993,1.485a35.441,35.441,0,0,1-4.122,1.062c.68-.206,1.369-.366,2.04-.6.337-.107.677-.2,1.012-.317l1-.346c1.331-.479,2.658-.969,3.954-1.537,1.307-.541,2.593-1.132,3.871-1.74q.958-.457,1.905-.938c.636-.313,1.261-.645,1.888-.976" transform="translate(-1157.089 -1251.881)" fill="#a65b3c"/>
          <path id="Trazado_691578" data-name="Trazado 691578" d="M871.913,1251.71q-.042-4.282-.133-8.562l-.161-8.561q-.187-8.561-.494-17.118-.255-8.558-.641-17.113l-.2-4.277-.223-4.276c-.126-2.852-.3-5.7-.451-8.552.193,2.848.413,5.694.583,8.544l.248,4.275.22,4.276q.433,8.553.732,17.113.259,8.561.4,17.124.07,4.281.113,8.563c.012,2.855.017,5.71,0,8.564" transform="translate(-632.884 -861.401)" fill="#a65b3c"/>
          <path id="Trazado_691579" data-name="Trazado 691579" d="M1291.926,1293.685a4.891,4.891,0,1,1-4.892-4.891,4.892,4.892,0,0,1,4.892,4.891" transform="translate(-933.2 -938.235)" fill="#1f4168"/>
          <path id="Trazado_691580" data-name="Trazado 691580" d="M1325.182,1534.559a4.891,4.891,0,1,1-4.891-4.892,4.891,4.891,0,0,1,4.891,4.892" transform="translate(-957.41 -1113.588)" fill="#1f4168"/>
          <path id="Trazado_691581" data-name="Trazado 691581" d="M1329.12,1779.964a4.891,4.891,0,1,1-4.892-4.892,4.892,4.892,0,0,1,4.892,4.892" transform="translate(-960.277 -1292.24)" fill="#1f4168"/>
          <path id="Trazado_691582" data-name="Trazado 691582" d="M1442.052,1342.325l7.563-.507,7.564-.479,15.131-.913,15.134-.851,7.569-.4,7.57-.375-7.562.507-7.564.479-15.131.913-15.134.85-7.569.4Z" transform="translate(-1049.612 -974.638)" fill="#a65b3c"/>
          <path id="Trazado_691583" data-name="Trazado 691583" d="M1444.644,1386.819l7.563-.507,7.564-.479,15.131-.914,15.134-.85,7.569-.4,7.57-.375-7.562.507-7.564.479-15.131.912-15.135.85-7.569.4Z" transform="translate(-1051.499 -1007.029)" fill="#a65b3c"/>
          <path id="Trazado_691584" data-name="Trazado 691584" d="M1472.6,1416.949l-9.516-3.942-9.5-3.981-2.375-1a22.5,22.5,0,0,1-2.356-1.067,8.24,8.24,0,0,1-4.067-6.347c-.074-.864-.11-1.716-.167-2.574l-.311-5.14-1.153-20.569-.575-10.284-.532-10.287.665,10.279.623,10.282,1.243,20.563.288,5.142c.052.855.086,1.719.155,2.566a8.019,8.019,0,0,0,3.934,6.195,22.274,22.274,0,0,0,2.328,1.065l2.37,1.006,9.481,4.025Z" transform="translate(-1049.612 -984.076)" fill="#a65b3c"/>
          <path id="Trazado_691585" data-name="Trazado 691585" d="M1584.352,1338.8l.719,11.211.677,11.213,1.352,22.427.158,2.8c.026.467.057.932.06,1.411a8.439,8.439,0,0,1-.136,1.417,8.279,8.279,0,0,1-2.794,4.836,6.552,6.552,0,0,1-.563.436,7.052,7.052,0,0,1-.6.387c-.406.241-.815.463-1.222.7l-2.447,1.379-4.892,2.759-9.786,5.517-2.451,1.37c-.41.227-.813.462-1.234.675a8.946,8.946,0,0,1-1.314.508,8.19,8.19,0,0,1-5.508-.336,8.157,8.157,0,0,0,5.489.272,8.842,8.842,0,0,0,1.3-.519c.412-.214.815-.456,1.222-.687l2.436-1.4,9.762-5.559,4.881-2.779,2.441-1.39c.405-.233.818-.46,1.216-.7.2-.121.4-.239.579-.379a6.313,6.313,0,0,0,.545-.426,8.038,8.038,0,0,0,2.7-4.708,8.139,8.139,0,0,0,.126-1.375c0-.458-.038-.927-.065-1.394l-.169-2.8-1.262-22.433-.629-11.217Z" transform="translate(-1131.381 -974.638)" fill="#a65b3c"/>
          <path id="Trazado_691586" data-name="Trazado 691586" d="M1154.354,967.79l24.284-26.087.528-5a8.175,8.175,0,0,1,2.658-5.207c4.948-4.467,16.493-16.327,21.379-33.5l-.107-.056a23.852,23.852,0,0,1-12.719-21.095V864.529h-76.956V874.9c-.389,11.453-5.583,19.546-17.015,22.244,0,0,38.974,25.852,57.948,70.643" transform="translate(-797.986 -629.376)" fill="#ffc89f"/>
          <path id="Trazado_691587" data-name="Trazado 691587" d="M1466.423,669.821s-2.631,13.807-16.649,7.527c0,0,4.934-1.57,7.4-5.046,0,0-10.205,9.922-25.456.532l23.7-80.595s32.076,35.251,11,77.582" transform="translate(-1042.089 -431.152)" fill="#1b1a2e"/>
          <rect id="Rectángulo_344038" data-name="Rectángulo 344038" width="75.246" height="81.781" transform="translate(317.26 207.03)" fill="#ffc89f"/>
          <path id="Trazado_691588" data-name="Trazado 691588" d="M1169.866,522.5h0a50.113,50.113,0,0,1-50.113-50.113V411.165a50.113,50.113,0,0,1,100.225,0v61.219a50.113,50.113,0,0,1-50.113,50.113" transform="translate(-814.982 -262.851)" fill="#ffc89f"/>
          <path id="Trazado_691589" data-name="Trazado 691589" d="M1188.695,889.02a44.945,44.945,0,0,1-12.921-1.259c-1.061-.245-2.1-.586-3.145-.886-.528-.139-1.03-.357-1.544-.537l-1.535-.566c-.519-.172-1-.427-1.5-.644l-1.491-.676c-.5-.21-.971-.5-1.457-.745l-1.444-.771-.36-.195-.346-.218-.693-.436-1.385-.872c-.234-.14-.457-.3-.677-.46l-.663-.479-1.324-.961c-.861-.668-1.68-1.391-2.521-2.083-.814-.724-1.584-1.5-2.371-2.249a44.732,44.732,0,0,1-7.7-10.455,57.614,57.614,0,0,0,8.289,9.852l1.2,1.069c.4.352.782.73,1.2,1.064.842.66,1.661,1.349,2.52,1.984.882.6,1.731,1.255,2.628,1.834l1.363.843.681.422.34.211.354.189a52.984,52.984,0,0,0,11.8,4.951,57.787,57.787,0,0,0,12.707,2.072" transform="translate(-833.811 -629.375)" fill="#ff9b6c"/>
          <path id="Trazado_691590" data-name="Trazado 691590" d="M1405.8,853.181q-.415.955-.852,1.906l-.442.95-.511.913-1.049,1.817-1.187,1.731c-.2.286-.392.582-.6.86l-.656.82c-.446.54-.865,1.1-1.333,1.625l-1.423,1.547c-.472.518-.994.986-1.489,1.482l-.761.724-.793.688c-.534.452-1.043.935-1.6,1.354s-1.1.866-1.664,1.279-1.137.814-1.715,1.206c-.59.376-1.168.766-1.765,1.129-.607.348-1.2.717-1.815,1.044s-1.232.656-1.865.951a17.128,17.128,0,0,1-1.929.8c.616-.322,1.2-.7,1.785-1.067l.873-.561.859-.581c.578-.377,1.134-.79,1.7-1.182l1.666-1.225,1.629-1.271c.54-.426,1.059-.879,1.589-1.317s1.038-.9,1.555-1.354l.77-.685.739-.719a57.824,57.824,0,0,0,5.578-6.058l1.277-1.623,1.182-1.7.6-.846.541-.884q.544-.883,1.113-1.762" transform="translate(-1006.147 -621.115)" fill="#ff9b6c"/>
          <path id="Trazado_691591" data-name="Trazado 691591" d="M1088.869,668.592h1.619a9.816,9.816,0,0,0,9.817-9.817V643.121a9.817,9.817,0,0,0-9.817-9.817h-1.619a9.817,9.817,0,0,0-9.817,9.817v15.655a9.817,9.817,0,0,0,9.817,9.817" transform="translate(-785.352 -461.047)" fill="#ffc89f"/>
          <path id="Trazado_691592" data-name="Trazado 691592" d="M1098.861,669.617a3.688,3.688,0,0,0-2.25,1.833,8.419,8.419,0,0,0-.946,2.781,13.012,13.012,0,0,0-.157,2.955,11.864,11.864,0,0,0,.495,2.895,7.351,7.351,0,0,0,1.292,2.538,3.186,3.186,0,0,0,.981.856c.166.063.237.07.323.025a.907.907,0,0,0,.309-.409,5.7,5.7,0,0,0,.356-1.383c.078-.493.115-1,.149-1.506.064-1.016.071-2.044.07-3.077a21.228,21.228,0,0,1,.435,3.075,14.121,14.121,0,0,1,.021,1.573,5.545,5.545,0,0,1-.277,1.624,1.728,1.728,0,0,1-.575.827,1.116,1.116,0,0,1-.593.206,1.406,1.406,0,0,1-.557-.095,2.9,2.9,0,0,1-.79-.48,5.994,5.994,0,0,1-.609-.583,7.715,7.715,0,0,1-1.565-2.876,12.038,12.038,0,0,1-.148-6.346,7.991,7.991,0,0,1,1.337-2.907,4.5,4.5,0,0,1,1.193-1.082,3.058,3.058,0,0,1,1.5-.446" transform="translate(-796.578 -487.482)" fill="#ff9b6c"/>
          <path id="Trazado_691593" data-name="Trazado 691593" d="M1111.474,669.807c-.115-.632-.166-1.231-.218-1.821s-.093-1.163-.172-1.709a3.844,3.844,0,0,0-.43-1.452,1.237,1.237,0,0,0-.512-.468,2.847,2.847,0,0,0-.844-.226,1.742,1.742,0,0,1,.952-.294,1.579,1.579,0,0,1,1.032.415,3.065,3.065,0,0,1,.873,1.872,6.026,6.026,0,0,1-.052,1.907,5.494,5.494,0,0,1-.628,1.777" transform="translate(-807.37 -483.274)" fill="#ff9b6c"/>
          <path id="Trazado_691594" data-name="Trazado 691594" d="M1395.114,636.033a4.511,4.511,0,1,1-4.511-4.511,4.511,4.511,0,0,1,4.511,4.511" transform="translate(-1008.874 -459.75)" fill="#1b1a2e"/>
          <path id="Trazado_691595" data-name="Trazado 691595" d="M1387.075,610.571a13.34,13.34,0,0,0-2.1-1.379,14.518,14.518,0,0,0-2.285-1.013,13.773,13.773,0,0,0-4.891-.8,14.489,14.489,0,0,0-4.875.916,21.705,21.705,0,0,0-4.465,2.275c.337-.25.674-.5,1.02-.745.356-.225.7-.468,1.068-.678s.733-.421,1.119-.595l.572-.275.588-.242a13.414,13.414,0,0,1,9.959-.116,13.086,13.086,0,0,1,4.287,2.651" transform="translate(-996.039 -441.911)" fill="#1b1a2e"/>
          <path id="Trazado_691596" data-name="Trazado 691596" d="M1221.072,636.033a4.511,4.511,0,1,1-4.511-4.511,4.511,4.511,0,0,1,4.511,4.511" transform="translate(-882.173 -459.75)" fill="#1b1a2e"/>
          <path id="Trazado_691597" data-name="Trazado 691597" d="M1213.032,610.571a13.332,13.332,0,0,0-2.1-1.379,14.5,14.5,0,0,0-2.284-1.013,13.773,13.773,0,0,0-4.891-.8,14.489,14.489,0,0,0-4.876.916,21.715,21.715,0,0,0-4.465,2.275c.338-.25.673-.5,1.02-.745.356-.225.7-.468,1.069-.678s.733-.421,1.119-.595l.572-.275.588-.242a13.413,13.413,0,0,1,9.959-.116,13.085,13.085,0,0,1,4.288,2.651" transform="translate(-869.337 -441.911)" fill="#1b1a2e"/>
          <path id="Trazado_691598" data-name="Trazado 691598" d="M1326.735,690.447c.346,1.922.653,3.848.953,5.776s.571,3.86.858,5.79c.062.486.14.959.185,1.459a8.712,8.712,0,0,1,.009,1.489,7.9,7.9,0,0,1-.742,2.87,5.109,5.109,0,0,1-1.938,2.223c-.856.472-1.707.947-2.568,1.406.82-.529,1.655-1.036,2.478-1.558a4.9,4.9,0,0,0,1.778-2.188,8.184,8.184,0,0,0,.666-2.776,12.345,12.345,0,0,0-.223-2.875c-.257-1.934-.532-3.865-.775-5.8s-.481-3.872-.68-5.814" transform="translate(-963.301 -502.646)" fill="#1b1a2e"/>
          <path id="Trazado_691599" data-name="Trazado 691599" d="M1283.161,794.315a9.168,9.168,0,0,1-.769,1.715,12.276,12.276,0,0,1-1.063,1.482c-.206.228-.419.441-.635.664a5.233,5.233,0,0,1-.689.612c-.24.2-.493.379-.746.563s-.538.332-.815.488a10.99,10.99,0,0,1-1.777.785,11.217,11.217,0,0,1-1.963.437,10.539,10.539,0,0,1-4.129-.268,11.121,11.121,0,0,1-7.867-7.892,10.369,10.369,0,0,1-.292-1.809,6.747,6.747,0,0,1,.1-1.886c.582.292,1.1.57,1.6.84l1.437.773c.1.054.2.109.3.161.25.136.493.265.734.391.538.28,1.053.54,1.544.786a22.9,22.9,0,0,0,4.285,1.663,15.583,15.583,0,0,0,2.035.4c.357.064.739.072,1.128.126.4,0,.811.062,1.247.05.218,0,.441.022.667.015s.464-.01.7-.01l.364,0c.121,0,.243-.012.369-.012l.766-.022c.359-.007.724-.03,1.105-.039.179-.008.355-.013.538-.008h.012a14.634,14.634,0,0,1,1.812-.007" transform="translate(-918.823 -574.542)" fill="#e43f5a"/>
          <path id="Trazado_691600" data-name="Trazado 691600" d="M1290.609,799.073a7.716,7.716,0,0,1-1.814,1.5,9.08,9.08,0,0,1-1.6.786,9.944,9.944,0,0,1-1.8.444,9.3,9.3,0,0,1-3.814-.216,9.694,9.694,0,0,1-3.376-1.653,9.369,9.369,0,0,1-2.342-2.62,8.882,8.882,0,0,1-.756-1.579c.25.136.493.265.734.391.538.28,1.053.54,1.544.786a22.875,22.875,0,0,0,4.285,1.663,15.517,15.517,0,0,0,2.035.4c.357.064.739.072,1.128.126.4,0,.811.062,1.247.05.218,0,.441.022.667.015s.464-.01.7-.01l.364,0c.122,0,.243-.013.37-.013l.766-.022c.359-.007.724-.03,1.105-.04.178-.007.354-.012.538-.007Z" transform="translate(-928.082 -579.292)" fill="#fff"/>
          <path id="Trazado_691601" data-name="Trazado 691601" d="M1387.075,557.112l-2.758-.233c-.835-.074-1.618-.118-2.356-.164-1.481-.078-2.8-.123-4.12-.091-.661.016-1.325.025-2.011.07-.344,0-.691.05-1.051.057-.355.039-.725.04-1.1.081-.187.018-.38.024-.574.037s-.388.038-.589.05c-.4.02-.812.064-1.241.089s-.865.072-1.338.078a12.92,12.92,0,0,1-1.477.026,7.653,7.653,0,0,1,.614-1.384,9.968,9.968,0,0,1,.832-1.2,9.655,9.655,0,0,1,1.008-1.049c.181-.163.369-.317.558-.474s.4-.285.6-.419a10.405,10.405,0,0,1,1.288-.728c.226-.1.457-.2.689-.288l.35-.135.36-.109a10.673,10.673,0,0,1,8.758,1.144,9.068,9.068,0,0,1,2.206,1.969,7.782,7.782,0,0,1,.818,1.243,5.145,5.145,0,0,1,.531,1.433" transform="translate(-996.039 -401.025)" fill="#1b1a2e"/>
          <path id="Trazado_691602" data-name="Trazado 691602" d="M1213.032,557.112l-2.758-.233c-.835-.074-1.619-.118-2.356-.164-1.481-.078-2.8-.123-4.12-.091-.661.016-1.325.025-2.011.07-.344,0-.691.05-1.051.057-.355.039-.725.04-1.1.081-.187.018-.38.024-.574.037s-.388.038-.589.05c-.4.02-.812.064-1.241.089s-.865.072-1.338.078a12.917,12.917,0,0,1-1.477.026,7.678,7.678,0,0,1,.614-1.384,9.981,9.981,0,0,1,.832-1.2,9.647,9.647,0,0,1,1.008-1.049c.181-.163.369-.317.558-.474s.4-.285.6-.419a10.386,10.386,0,0,1,1.288-.728c.226-.1.457-.2.689-.288l.35-.135.36-.109a10.672,10.672,0,0,1,8.757,1.144,9.063,9.063,0,0,1,2.206,1.969,7.759,7.759,0,0,1,.818,1.243,5.149,5.149,0,0,1,.531,1.433" transform="translate(-869.337 -401.025)" fill="#1b1a2e"/>
          <path id="Trazado_691603" data-name="Trazado 691603" d="M1460.6,668.592h1.619a9.817,9.817,0,0,0,9.817-9.817V643.121a9.817,9.817,0,0,0-9.817-9.817H1460.6a9.817,9.817,0,0,0-9.817,9.817v15.655a9.817,9.817,0,0,0,9.817,9.817" transform="translate(-1055.967 -461.047)" fill="#ffc89f"/>
          <path id="Trazado_691604" data-name="Trazado 691604" d="M1486.283,664.608a8.677,8.677,0,0,1,5.516,1.481,8.933,8.933,0,0,1,2.148,2,9.717,9.717,0,0,1,.816,1.234l.326.666c.114.22.181.46.273.689a9.124,9.124,0,0,1,.522,2.9c.021.5-.009.958-.011,1.438s-.019.952-.034,1.428c-.053,1.9-.132,3.807-.282,5.711-.15-1.9-.228-3.807-.281-5.711-.04-.947-.026-1.914-.074-2.845a8.7,8.7,0,0,0-.519-2.684c-.084-.213-.141-.436-.245-.64l-.294-.62a10.493,10.493,0,0,0-.74-1.157,9.1,9.1,0,0,0-1.929-1.957,10.019,10.019,0,0,0-2.434-1.334,11.405,11.405,0,0,0-2.758-.6" transform="translate(-1081.812 -483.822)" fill="#ff9b6c"/>
          <path id="Trazado_691605" data-name="Trazado 691605" d="M1493.418,723.139a4.858,4.858,0,0,1-1.195-1.193,6.279,6.279,0,0,1-1.169-3.158,4.852,4.852,0,0,1,.133-1.684l.421,1.585c.145.514.311,1.013.491,1.507s.383.98.607,1.465Z" transform="translate(-1085.27 -522.053)" fill="#ff9b6c"/>
          <path id="Trazado_691606" data-name="Trazado 691606" d="M1110.054,338.391c-24.91-61.5-70.682-43.779-70.682-43.779-28.951-9.245-48.668,4.561-62.743,24.332h0l0,0c-1.5,1.99-2.9,4.031-4.345,6.041-1.481,1.986-2.869,4.023-4.361,5.992-2.9,3.99-5.912,7.893-8.848,11.886-1.467,1.995-2.911,4.028-4.294,6.107l-2.036,3.162-1.908,3.265c-.59,1.119-1.166,2.248-1.737,3.375-.525,1.153-1.013,2.327-1.492,3.5-.455,1.181-.8,2.4-1.189,3.606a17.9,17.9,0,0,0-.479,1.831l-.427,1.841c-.33,1.215-.452,2.472-.68,3.7l-.31,1.85c-.083.619-.145,1.24-.218,1.859-.116,1.242-.344,2.47-.435,3.712s-.2,2.48-.325,3.719c-.264,2.477-.4,4.979-.448,7.5a40.93,40.93,0,0,0,.511,7.579,30.287,30.287,0,0,0,2.174,7.358c.266.586.519,1.178.827,1.745.29.575.59,1.145.927,1.7a29.782,29.782,0,0,0,2.2,3.181,25.3,25.3,0,0,0,2.626,2.829,22.8,22.8,0,0,0,3,2.4,19.764,19.764,0,0,0,6.83,3.059c-.932.844-6.614,6.208-13.706,17.772-7.766,12.661,5.909,18.739,5.909,18.739-7.091-12.324,6.753-32.75,6.753-32.75-19.245,40.853,14.4,45.2,14.4,45.2-13.958,12.071-12.2,26.155-12.2,26.155-15.418,30.836,18.821,24.765,21.731,24.2a20.992,20.992,0,0,0-1.978,3.892,28.123,28.123,0,0,0-1.953,8.79,18.4,18.4,0,0,0,.278,4.565,25.015,25.015,0,0,0,3.5,8.366,22.252,22.252,0,0,0,2.743,3.572,16.345,16.345,0,0,0,3.61,2.845,16.027,16.027,0,0,0,4.331,1.707,24.325,24.325,0,0,0,4.566.57,48.283,48.283,0,0,0,8.935-.541c5.537-.835,10.8-2.087,16.342-2.413-4.1,19.453-22.708,18.146-30.8,30.128S998.09,604.4,998.09,604.4c-1.171-3.939.213-8.518.213-8.518-1.065,8.2,4.472,10.221,4.472,10.221a19.758,19.758,0,0,1,.32-7.56c2.129,13.842,10.647,12.67,10.647,12.67-2.875-3.939-2.449-12.67-2.449-12.67,2.875,21.4,18.846,17.568,18.846,17.568a12.6,12.6,0,0,1-2.768-2.662c12.138,5.537,14.221-8.6,14.221-8.6-8.037,5.339-11.328,2.159-12.609-2.356a16.074,16.074,0,0,1,3.218-14.445c9.773-12.037,7.515-23.092,7.515-23.092,18.773-25.109-3.051-43.413-3.051-43.413,9.386,3.872,13.376,19.829,13.376,19.829,5.92-10.946-12.321-20.562-14.088-21.461a48.622,48.622,0,0,0,5.7-7.861,42.193,42.193,0,0,0,4.03-8.966,32.549,32.549,0,0,0,1.391-9.874,22.143,22.143,0,0,0-2.472-9.638,39.731,39.731,0,0,0-5.54-8.072,48.734,48.734,0,0,0-7.175-6.591,88.678,88.678,0,0,0-8.108-5.233,77.923,77.923,0,0,0-7.673-3.887c-18.026-11.348-21.686-28.186-21.438-40.736a48.5,48.5,0,0,1,6.137-22.194,56.558,56.558,0,0,0,6.428-25.883c4.05-4.235,8.985-12.338,15.1-35.9,4.925-18.989,14.571-20.873,16.866-20.7l.114.01a35.17,35.17,0,0,1,11.1,4.4q1.271.784,2.466,1.669t2.318,1.856a48.467,48.467,0,0,1,4.188,4.222,47.655,47.655,0,0,1,3.692,4.773,33.248,33.248,0,0,1,2.859,5.4c.209.468.376.952.544,1.436s.343.966.49,1.456c.262.993.572,1.966.783,2.977.469,2.007.814,4.044,1.126,6.082s.564,4.087.856,6.127l.9,6.125c.3,2.046.614,4.1.969,6.152s.777,4.115,1.333,6.166a32.587,32.587,0,0,0,2.256,6.058,20.563,20.563,0,0,0,1.717,2.843,15.816,15.816,0,0,0,2.272,2.482,14.118,14.118,0,0,0,5.854,3.03,20.29,20.29,0,0,0,6.172.551c.1.024.159.033.159.033,14.876,28.012,22.395,58.616,17.029,69.786-4.75,9.89-20.04,13.456-20.04,13.456,5.02,7.459,14.344-1.65,14.344-1.65-2.295,5.379-10.2,7.818-10.2,7.818,27.827,5.6,42.467-77.733,17.557-139.237M951.6,412.052A29.87,29.87,0,0,1,949.758,409c-.3-.515-.556-1.049-.808-1.587-.27-.529-.486-1.084-.716-1.633a53.041,53.041,0,0,1-1.133-35.8,63.638,63.638,0,0,1,6.192-13.149c2.539-4.141,5.542-8.037,8.389-12.088.4-.565.793-1.137,1.19-1.707-4.669,9.882-8.462,19.661-11.71,27.753-11.887,29.616,6.858,47.232,10.548,50.328a28.609,28.609,0,0,1-10.109-9.069m86.52,64.419a16.15,16.15,0,0,1,5.308,7.588,24.855,24.855,0,0,1,.929,9.106,39.524,39.524,0,0,1-1.773,8.988c-.846,2.83-1.854,5.646-2.988,8.443,2.872-9.258,4.9-23.873-4.479-36.3.373.254.744.51,1.121.763.628.465,1.278.922,1.881,1.417m-38.387,76.022a28.314,28.314,0,0,1-3.7-.147,17.234,17.234,0,0,1-4.021-.841,11.473,11.473,0,0,1-6.29-5.314,13.522,13.522,0,0,1-1.446-3.984,25.671,25.671,0,0,1-.421-4.183q-.031-1.08-.038-2.162c.723,8.149,4.592,15.887,15.91,16.632m85.8-166.316a15.874,15.874,0,0,1-2.559-1.413,13.812,13.812,0,0,1-2.149-1.868c-2.564-2.8-3.8-6.616-4.78-10.5-.969-3.9-1.767-7.945-2.608-12-.417-2.026-.835-4.059-1.325-6.08s-1.051-4.027-1.619-6.028l-1.748-5.985-.9-2.993c-.351-.982-.642-1.985-1-2.965-.185-.488-.347-.986-.522-1.479s-.39-.971-.573-1.464c-.35-.993-.815-1.937-1.219-2.918a34.435,34.435,0,0,0-3.186-5.534,24.659,24.659,0,0,0-2.64-3.072c8.4,5.958,16.291,16.462,16.571,34.807.327,21.389,9,28.385,13.473,30.576a22.618,22.618,0,0,1-3.215-1.1" transform="translate(-686.367 -212.345)" fill="#1b1a2e"/>
          <path id="Trazado_691607" data-name="Trazado 691607" d="M1480.152,646.594c1.99,3.577,3.829,7.239,5.577,10.943q2.59,5.572,4.826,11.3a149.262,149.262,0,0,1,7.094,23.536,79.914,79.914,0,0,1,1.55,12.222,40.07,40.07,0,0,1-.223,6.179,17.585,17.585,0,0,1-1.678,5.976,18.1,18.1,0,0,1-3.786,4.9,27.926,27.926,0,0,1-4.971,3.657,41.165,41.165,0,0,1-5.546,2.668,41.952,41.952,0,0,1-5.854,1.854,44.663,44.663,0,0,0,11.219-4.825,27.784,27.784,0,0,0,4.838-3.684,17.6,17.6,0,0,0,3.6-4.823,6.315,6.315,0,0,0,.307-.685c.093-.232.2-.461.281-.7l.225-.719a6.548,6.548,0,0,0,.2-.726c.109-.492.248-.976.317-1.478.085-.5.177-.994.221-1.5a39.477,39.477,0,0,0,.186-6.078,79.6,79.6,0,0,0-1.6-12.105c-.807-4-1.822-7.957-2.985-11.872s-2.507-7.775-3.92-11.61-2.972-7.616-4.63-11.354c-1.637-3.748-3.41-7.436-5.257-11.089" transform="translate(-1075.156 -470.722)" fill="#1f4068"/>
          <path id="Trazado_691608" data-name="Trazado 691608" d="M1104.749,584.412a60.214,60.214,0,0,1-1.141,10.894l-.6,2.681-.745,2.645c-.547,1.747-1.143,3.481-1.854,5.169a89.743,89.743,0,0,1-4.913,9.794c-1.793,3.178-3.695,6.293-5.607,9.4s-3.856,6.19-5.675,9.335q-1.373,2.355-2.567,4.8c-.4.814-.754,1.645-1.137,2.465-.327.842-.686,1.672-.983,2.524a32.121,32.121,0,0,0-1.984,10.58,33.143,33.143,0,0,0,1.763,10.686l-.068.024a30.393,30.393,0,0,1-2.259-10.707l.012-1.381c0-.23,0-.461.011-.691l.063-.688.126-1.377c.04-.459.145-.909.214-1.365.085-.453.142-.912.248-1.36l.341-1.339.171-.67c.059-.223.14-.439.208-.658l.429-1.313a55.072,55.072,0,0,1,4.827-9.871c1.868-3.145,3.908-6.172,5.928-9.205s3.983-6.106,5.736-9.3a80.254,80.254,0,0,0,4.56-9.9,72.14,72.14,0,0,0,3.21-10.39,79.5,79.5,0,0,0,1.615-10.779Z" transform="translate(-783.843 -425.452)" fill="#1f4068"/>
          <path id="Trazado_691609" data-name="Trazado 691609" d="M1063.742,530.09a67.094,67.094,0,0,1-11.253,19.057c-2.384,2.839-4.975,5.487-7.595,8.093s-5.279,5.173-7.93,7.747-5.3,5.14-7.905,7.754-5.11,5.312-7.5,8.112a95.933,95.933,0,0,0-6.7,8.763,92.928,92.928,0,0,0-5.623,9.516l-.065-.031a76.815,76.815,0,0,1,11.8-18.746c2.391-2.835,4.964-5.506,7.606-8.1s5.373-5.083,8.113-7.561,5.451-4.985,8.034-7.623a107.338,107.338,0,0,0,7.3-8.308,95.075,95.075,0,0,0,6.409-8.978,87.338,87.338,0,0,0,5.242-9.727Z" transform="translate(-734.48 -385.888)" fill="#1f4068"/>
          <path id="Trazado_691610" data-name="Trazado 691610" d="M1018.68,573.853a53.685,53.685,0,0,0-1.779,10.286,46.525,46.525,0,0,0,.481,10.376,47.414,47.414,0,0,0,2.747,10.021,48.613,48.613,0,0,0,2.164,4.746,37.164,37.164,0,0,0,2.7,4.477,36.839,36.839,0,0,1-5.388-9.009,44.1,44.1,0,0,1-1.787-4.966,45.331,45.331,0,0,1-1.152-5.156,41.877,41.877,0,0,1-.328-10.536,42.642,42.642,0,0,1,2.338-10.24" transform="translate(-739.563 -417.767)" fill="#1f4068"/>
          <path id="Trazado_691611" data-name="Trazado 691611" d="M1017.592,1045.981q.136.631.258,1.258l.118.627.058.313.085.308.327,1.228c.06.2.1.411.168.61l.209.6.416,1.193.5,1.156a11.36,11.36,0,0,0,.55,1.132c.2.367.368.755.607,1.1l.658,1.073.736,1.021a23.692,23.692,0,0,0,1.621,1.93,21.125,21.125,0,0,0,3.866,3.284,14.642,14.642,0,0,1-4.263-2.886,18.11,18.11,0,0,1-3.237-4.055c-.242-.362-.409-.766-.613-1.148a9.8,9.8,0,0,1-.547-1.18l-.471-1.212c-.136-.411-.243-.831-.361-1.247a19.5,19.5,0,0,1-.514-2.535l-.049-.318-.022-.323-.041-.644c-.026-.429-.045-.857-.061-1.284" transform="translate(-740.61 -761.471)" fill="#1f4068"/>
          <path id="Trazado_691612" data-name="Trazado 691612" d="M1117.844,1137.6a30.608,30.608,0,0,0,3.817,8.363,34.131,34.131,0,0,0,2.757,3.671,39.235,39.235,0,0,0,3.178,3.317,53.133,53.133,0,0,0,7.256,5.658q1.932,1.263,3.951,2.393t4.127,2.1a44.558,44.558,0,0,1-8.379-4.018c-1.332-.8-2.618-1.679-3.868-2.608s-2.436-1.942-3.581-3a34.155,34.155,0,0,1-5.917-7.217,26.938,26.938,0,0,1-2.069-4.186l-.4-1.1c-.127-.367-.224-.744-.337-1.115-.244-.737-.368-1.508-.539-2.261" transform="translate(-813.593 -828.17)" fill="#1f4068"/>
          <path id="Trazado_691613" data-name="Trazado 691613" d="M1106.2,486.269l-1.218,1.351c-.4.451-.827.885-1.217,1.348l-1.173,1.386c-.393.46-.784.921-1.149,1.4-.747.951-1.517,1.883-2.214,2.871l-1.067,1.464-1.012,1.5a70.175,70.175,0,0,0-6.809,12.742,64.534,64.534,0,0,0-4,13.872,58.082,58.082,0,0,0-.783,7.2,42.631,42.631,0,0,0,.193,7.246,46.773,46.773,0,0,1,.043-14.529,56.233,56.233,0,0,1,1.526-7.141,62.633,62.633,0,0,1,2.352-6.917c.218-.569.485-1.118.727-1.676s.491-1.115.768-1.658l.805-1.64.866-1.608c.146-.267.285-.538.437-.8l.464-.787c.311-.523.614-1.051.931-1.57.666-1.018,1.295-2.062,2.022-3.039l1.059-1.485,1.113-1.445c.729-.973,1.524-1.893,2.306-2.822.387-.468.8-.913,1.215-1.357l1.236-1.336c.838-.877,1.714-1.719,2.575-2.571" transform="translate(-789.832 -354.007)" fill="#1f4068"/>
          <path id="Trazado_691614" data-name="Trazado 691614" d="M1216.93,351.716,1216,351.6c-.31-.038-.617-.091-.929-.1-.622-.043-1.241-.1-1.863-.085a22.618,22.618,0,0,0-3.7.234,22.347,22.347,0,0,0-6.992,2.263,23.615,23.615,0,0,0-3.152,1.921,29.788,29.788,0,0,0-2.879,2.33,34.068,34.068,0,0,0-2.6,2.663,28.668,28.668,0,0,0-2.3,2.949,25.215,25.215,0,0,1,4.506-6.018,24.554,24.554,0,0,1,6.092-4.487,22.4,22.4,0,0,1,3.525-1.43,20.218,20.218,0,0,1,11.217-.124" transform="translate(-867.279 -255.523)" fill="#1f4068"/>
          <path id="Trazado_691615" data-name="Trazado 691615" d="M1396.617,392.369a36.926,36.926,0,0,0-3.212-8.664,32.184,32.184,0,0,0-2.485-3.871,30.116,30.116,0,0,0-3.04-3.443,33.392,33.392,0,0,0-7.433-5.389,37.729,37.729,0,0,0-4.2-1.922,30.947,30.947,0,0,0-4.427-1.385,29.731,29.731,0,0,1,8.887,2.807,30.468,30.468,0,0,1,7.678,5.372,29.636,29.636,0,0,1,3.085,3.554,29.266,29.266,0,0,1,2.437,4.02,30.182,30.182,0,0,1,2.713,8.92" transform="translate(-998.482 -267.688)" fill="#1f4068"/>
          <path id="Trazado_691616" data-name="Trazado 691616" d="M1475.047,589.126a15.286,15.286,0,0,1-7.072.2,17.511,17.511,0,0,1-6.52-2.917,25.11,25.11,0,0,1-5.116-4.966,27.494,27.494,0,0,1-3.635-6.083,34.094,34.094,0,0,0,1.914,2.96c.676.958,1.4,1.878,2.157,2.766a28.888,28.888,0,0,0,5.1,4.735,20.184,20.184,0,0,0,2.98,1.766,16.747,16.747,0,0,0,3.249,1.193,17.961,17.961,0,0,0,6.945.345" transform="translate(-1057.366 -418.866)" fill="#1f4068"/>
          <path id="Trazado_691617" data-name="Trazado 691617" d="M1493.891,625.964q-.333.407-.68.81l-.35.4c-.125.125-.258.241-.387.363l-.795.713c-.284.213-.578.415-.867.624-.146.1-.288.212-.439.306l-.465.265c-.314.17-.615.366-.94.514l-.977.439c-.327.142-.669.249-1,.374a18.706,18.706,0,0,1-4.167.892,16.031,16.031,0,0,1-4.232-.116,32.954,32.954,0,0,0,4.158-.441,26.651,26.651,0,0,0,4.009-1.016,19.88,19.88,0,0,0,3.757-1.69l.89-.53.845-.6c.142-.1.289-.2.428-.3l.4-.337c.267-.224.54-.446.818-.666" transform="translate(-1076.21 -455.704)" fill="#1f4068"/>
          <path id="Trazado_691618" data-name="Trazado 691618" d="M1129.875,693.28l-.689,2.247c-.225.75-.485,1.489-.683,2.246l-.622,2.263-.311,1.131-.271,1.142-.555,2.279c-.187.759-.326,1.529-.491,2.292s-.334,1.527-.462,2.3l-.4,2.31c-.144.768-.243,1.543-.35,2.317s-.23,1.545-.327,2.319c-.162,1.553-.373,3.1-.471,4.66-.273,3.111-.355,6.236-.332,9.356a100.542,100.542,0,0,0,1.81,18.617,90.287,90.287,0,0,0,2.224,9.1,64.22,64.22,0,0,0,3.252,8.8,71.969,71.969,0,0,1-6.019-17.787,88.744,88.744,0,0,1-1.448-9.311c-.323-3.126-.524-6.266-.539-9.41s.1-6.288.4-9.416c.109-1.568.332-3.124.506-4.685.105-.778.23-1.554.349-2.33s.24-1.552.4-2.321l.449-2.312c.144-.772.343-1.532.512-2.3s.338-1.532.542-2.29l.609-2.274.311-1.135.351-1.123.7-2.245c.481-1.492,1.032-2.961,1.554-4.437" transform="translate(-817.485 -504.709)" fill="#1f4068"/>
          <path id="Trazado_691619" data-name="Trazado 691619" d="M1245.918,1249.932a15.914,15.914,0,0,1,6.928.708,11.787,11.787,0,0,1,3.1,1.738,10.9,10.9,0,0,1,2.375,2.659,15.584,15.584,0,0,1,2.209,6.671,22.34,22.34,0,0,1-.329,6.957,30.141,30.141,0,0,0-.229-6.882,16.559,16.559,0,0,0-2.258-6.357,10.466,10.466,0,0,0-2.2-2.521,12.118,12.118,0,0,0-2.874-1.742,19.037,19.037,0,0,0-6.723-1.229" transform="translate(-906.829 -909.87)" fill="#1f4068"/>
          <path id="Trazado_691620" data-name="Trazado 691620" d="M1099.559,997.295a58.571,58.571,0,0,0-7.16,10.953,30.713,30.713,0,0,0-2.231,6.108c-.109.53-.242,1.055-.319,1.591-.043.267-.1.532-.132.8l-.1.8a21.024,21.024,0,0,0-.077,3.235,20.261,20.261,0,0,0,4.8,11.867,27.668,27.668,0,0,0,2.213,2.414c.789.757,1.613,1.476,2.463,2.163a45.827,45.827,0,0,0,5.41,3.7,90.625,90.625,0,0,0,11.807,5.689c2.022.828,4.084,1.579,6.115,2.445a62.939,62.939,0,0,1,5.945,2.891,54.875,54.875,0,0,1,5.614,3.5A45.431,45.431,0,0,1,1139,1059.7a32.921,32.921,0,0,1,4.278,5.044,23.418,23.418,0,0,1,1.681,2.848,15.319,15.319,0,0,1,1.19,3.079l-.07.016a15.173,15.173,0,0,0-1.322-2.988,27.385,27.385,0,0,0-1.779-2.742,34.614,34.614,0,0,0-4.37-4.845,44.776,44.776,0,0,0-5.1-4.079,59.516,59.516,0,0,0-5.566-3.422q-2.875-1.558-5.884-2.86c-1.994-.878-4.047-1.653-6.075-2.509a79.933,79.933,0,0,1-11.75-5.983,54.075,54.075,0,0,1-5.367-3.833c-.849-.7-1.672-1.431-2.458-2.2a30.175,30.175,0,0,1-2.256-2.409,24.188,24.188,0,0,1-3.554-5.567,19.119,19.119,0,0,1-1.652-6.424,21.444,21.444,0,0,1,.611-6.619,31.3,31.3,0,0,1,2.349-6.2,50.3,50.3,0,0,1,7.6-10.756Z" transform="translate(-792.522 -725.993)" fill="#1f4068"/>
          <path id="Trazado_691621" data-name="Trazado 691621" d="M1207.5,1147.051a41.9,41.9,0,0,1,8.2,4.2,40.5,40.5,0,0,1,7.079,5.954,39.4,39.4,0,0,1,5.524,7.42,31.507,31.507,0,0,1,3.479,8.529,32.128,32.128,0,0,0-1.745-4.241,45.285,45.285,0,0,0-2.216-4c-.81-1.289-1.67-2.547-2.6-3.748a40.982,40.982,0,0,0-2.962-3.466c-.511-.564-1.062-1.089-1.6-1.626-.559-.516-1.11-1.04-1.69-1.531-1.137-1.013-2.352-1.932-3.583-2.83a57.043,57.043,0,0,0-7.886-4.665" transform="translate(-878.859 -835.048)" fill="#1f4068"/>
          <path id="Trazado_691622" data-name="Trazado 691622" d="M1173.72,1337.333a29.085,29.085,0,0,0-2.437,2.123,24.938,24.938,0,0,0-2.161,2.37,26.441,26.441,0,0,0-1.83,2.62,26.755,26.755,0,0,0-1.477,2.83,29.6,29.6,0,0,0-1.936,6.089c-.212,1.049-.378,2.109-.489,3.178a26.374,26.374,0,0,0-.174,3.228,22.749,22.749,0,0,1,.109-6.5,24.923,24.923,0,0,1,1.833-6.285,25.477,25.477,0,0,1,1.557-2.894,22.461,22.461,0,0,1,1.979-2.621,20.657,20.657,0,0,1,5.027-4.132" transform="translate(-846.488 -973.571)" fill="#1f4068"/>
          <path id="Trazado_691623" data-name="Trazado 691623" d="M1158.3,1346.437a22.906,22.906,0,0,0-2.223,1.552,22.017,22.017,0,0,0-1.991,1.808,27.537,27.537,0,0,0-3.325,4.207,39.619,39.619,0,0,0-2.61,4.711,51.467,51.467,0,0,0-2.055,5.021,25.767,25.767,0,0,1,1.54-5.246c.336-.851.726-1.68,1.14-2.5s.887-1.606,1.382-2.38a22.049,22.049,0,0,1,3.539-4.217,17.249,17.249,0,0,1,2.174-1.691,14.869,14.869,0,0,1,2.429-1.266" transform="translate(-834.16 -980.199)" fill="#1f4068"/>
          <path id="Trazado_691624" data-name="Trazado 691624" d="M1243.608,1252.8a11.977,11.977,0,0,1,3.3,2.937,11.1,11.1,0,0,1,1.9,4.037,13.958,13.958,0,0,1,.338,4.467,19.166,19.166,0,0,1-.9,4.38,25.233,25.233,0,0,1-4.281,7.771,23.3,23.3,0,0,1-6.657,5.774,24.923,24.923,0,0,0,3.356-2.821,29.315,29.315,0,0,0,5.184-6.97,24.547,24.547,0,0,0,1.714-3.979,19.041,19.041,0,0,0,.909-4.214,14.176,14.176,0,0,0-.206-4.282,11.338,11.338,0,0,0-1.644-3.96,12.807,12.807,0,0,0-3.012-3.14" transform="translate(-900.56 -912.031)" fill="#1f4068"/>
          <path id="Trazado_691625" data-name="Trazado 691625" d="M1140.155,859.1a36.512,36.512,0,0,0,4.7,8.89,82.2,82.2,0,0,0,6.4,7.795c2.255,2.507,4.576,4.966,6.924,7.4s4.724,4.839,6.973,7.373a57.025,57.025,0,0,1,6.136,8.115,39.2,39.2,0,0,1,4.237,9.281l.643,2.479.457,2.519c.1.847.175,1.7.263,2.544l.032.318.009.319.017.639.033,1.277a44.367,44.367,0,0,1-1.232,10.081l-.071-.015a52.33,52.33,0,0,0,.739-10.056,36.882,36.882,0,0,0-1.626-9.882,41.786,41.786,0,0,0-4.082-9.152,67.3,67.3,0,0,0-5.855-8.209c-2.145-2.6-4.459-5.07-6.84-7.466s-4.854-4.7-7.2-7.153a59.516,59.516,0,0,1-6.421-7.887,31.41,31.41,0,0,1-4.31-9.185Z" transform="translate(-829.784 -625.426)" fill="#1f4068"/>
          <path id="Trazado_691626" data-name="Trazado 691626" d="M1491.3,531.512c1.992,2.537,3.917,5.132,5.719,7.813.449.671.9,1.341,1.341,2.018l1.287,2.053.644,1.027.616,1.044,1.231,2.087c.779,1.416,1.6,2.812,2.318,4.258l1.107,2.157,1.054,2.183c1.39,2.919,2.7,5.878,3.878,8.888s2.257,6.061,3.216,9.149,1.847,6.2,2.572,9.348a104.119,104.119,0,0,1,2.838,19.142c-.263-3.215-.74-6.406-1.32-9.574s-1.26-6.318-2.057-9.436a154.018,154.018,0,0,0-14.088-35.845l-1.184-2.1-.592-1.053-.62-1.035-1.241-2.073-1.292-2.04c-.841-1.375-1.756-2.7-2.648-4.044-.439-.676-.919-1.324-1.384-1.983Z" transform="translate(-1085.465 -386.944)" fill="#1f4068"/>
          <path id="Trazado_691627" data-name="Trazado 691627" d="M1494.491,747.026a5.273,5.273,0,1,1-5.273-5.273,5.273,5.273,0,0,1,5.273,5.273" transform="translate(-1080.11 -539.997)" fill="#f9a21b"/>
          <path id="Trazado_691628" data-name="Trazado 691628" d="M679.806,929.771s-20.84-30.939-20.2-55.305l14.576-29.742a46.26,46.26,0,0,1,10-13.488l.22-.205a47.381,47.381,0,0,0,13.922-24.173c.955-4.2,1.925-8.427,2.568-11.222a29.462,29.462,0,0,1,2.214-6.273l7.494-15.425a23.106,23.106,0,0,0,1.774-15.1l-1.9-8.567a4.071,4.071,0,0,1,5.29-4.733c7.228,2.453,16.849,11.151,8.79,41.331,0,0,21.91-2.08,35.54.015a8.532,8.532,0,0,1,7.251,8.152l0,.123a8.084,8.084,0,0,1-2.834,6.43l-.927.789a9.309,9.309,0,0,1,4.887,7.706,7.564,7.564,0,0,1-3.647,6.877l-2.67,1.608a4.25,4.25,0,0,1,3.536,4.144,8.738,8.738,0,0,1-3.031,6.712l-3.541,3.054,1.668.6a4.519,4.519,0,0,1,2.852,3.112,8.126,8.126,0,0,1-1.709,7.361,52.587,52.587,0,0,1-16.124,12.83s-16.208,4.217-26.792,3.39c0,0-11.759,21.776-13.724,44.295a72.473,72.473,0,0,1-25.491,25.712" transform="translate(-479.991 -542.588)" fill="#ffc89f"/>
          <path id="Trazado_691629" data-name="Trazado 691629" d="M856.478,898.076c-.662.091-1.323.176-1.982.277s-1.32.187-1.978.291c-1.317.205-2.634.408-3.942.658q-1.967.349-3.914.8c-.325.072-.647.156-.971.234s-.646.162-.966.253c-.648.159-1.279.368-1.921.556a31.669,31.669,0,0,1,3.807-1.245c1.293-.34,2.6-.606,3.915-.86,1.317-.228,2.636-.435,3.962-.6s2.655-.294,3.989-.362" transform="translate(-611.912 -653.798)" fill="#ff9b6c"/>
          <path id="Trazado_691630" data-name="Trazado 691630" d="M991.64,955c-.787.029-1.573.054-2.359.1s-1.571.073-2.356.118c-1.57.091-3.139.188-4.7.327-1.568.113-3.131.282-4.693.456-.781.089-1.562.183-2.34.3-.782.089-1.556.23-2.337.333q2.306-.507,4.65-.835c1.561-.218,3.128-.386,4.7-.52,1.571-.116,3.143-.218,4.718-.264s3.15-.062,4.724-.006" transform="translate(-708.04 -695.208)" fill="#ff9b6c"/>
          <path id="Trazado_691631" data-name="Trazado 691631" d="M923.717,929.489a8.5,8.5,0,0,1-.1-3.033,7.722,7.722,0,0,1,.359-1.486,5.832,5.832,0,0,1,.684-1.36,11.618,11.618,0,0,0-.774,2.884c-.071.492-.115.989-.143,1.488s-.037,1-.026,1.507" transform="translate(-672.133 -672.386)" fill="#ff9b6c"/>
          <path id="Trazado_691632" data-name="Trazado 691632" d="M960.989,1115.99a3.28,3.28,0,0,1-.774-.374,4.486,4.486,0,0,1-.677-.533,3.8,3.8,0,0,1-.552-.666,2.692,2.692,0,0,1-.355-.785c.178.228.34.451.525.658s.369.41.572.6c.4.385.823.737,1.262,1.1" transform="translate(-697.687 -810.719)" fill="#ff9b6c"/>
          <path id="Trazado_691633" data-name="Trazado 691633" d="M933.657,995.646a8.961,8.961,0,0,1-.721-1.591,10.733,10.733,0,0,1-.444-1.7,8.876,8.876,0,0,1-.136-1.751,6.949,6.949,0,0,1,.25-1.731c-.007.293-.059.577-.047.867,0,.144-.012.287-.01.431l.016.431a13.893,13.893,0,0,0,.2,1.707c.1.565.228,1.124.374,1.681.075.278.156.555.246.829s.18.549.276.824" transform="translate(-678.558 -719.9)" fill="#ff9b6c"/>
          <path id="Trazado_691634" data-name="Trazado 691634" d="M947.338,1056.928a9,9,0,0,1-1.068-1.382,10.733,10.733,0,0,1-.822-1.549,8.875,8.875,0,0,1-.536-1.672,6.948,6.948,0,0,1-.156-1.742c.06.287.076.575.154.854.031.14.055.282.09.422l.115.415a13.908,13.908,0,0,0,.583,1.616c.224.528.481,1.042.752,1.55.137.253.28.5.431.75s.3.493.458.739" transform="translate(-687.583 -764.821)" fill="#ff9b6c"/>
          <path id="Trazado_691635" data-name="Trazado 691635" d="M850.376,1158.824c-.9-.049-1.791-.156-2.681-.283s-1.774-.293-2.653-.486a22.2,22.2,0,0,1-2.6-.736,8.762,8.762,0,0,1-2.413-1.2l.594.313.617.26c.419.156.837.309,1.267.43.855.253,1.72.479,2.594.67s1.749.375,2.628.546q.659.129,1.322.245Z" transform="translate(-611.347 -841.648)" fill="#ff9b6c"/>
          <path id="Trazado_691636" data-name="Trazado 691636" d="M1004.024,1014.613a24.3,24.3,0,0,1-3,.643c-1.012.162-2.032.264-3.053.357-1.023.06-2.047.121-3.071.118-.512.006-1.024-.013-1.536-.021-.512-.023-1.023-.05-1.533-.088,1.023-.036,2.044-.052,3.064-.1s2.038-.1,3.055-.18,2.032-.176,3.046-.293q.761-.084,1.518-.2c.506-.067,1.01-.15,1.514-.239" transform="translate(-721.854 -738.635)" fill="#ff9b6c"/>
          <path id="Trazado_691637" data-name="Trazado 691637" d="M1004.383,1065.748c-.273.24-.569.449-.864.661s-.608.4-.92.583a17.116,17.116,0,0,1-1.94.993,16.9,16.9,0,0,1-2.047.746c-.347.106-.7.192-1.053.277s-.713.14-1.07.2c.691-.22,1.382-.422,2.057-.673s1.345-.508,2-.8,1.306-.6,1.948-.925,1.268-.682,1.885-1.063" transform="translate(-725.248 -775.861)" fill="#ff9b6c"/>
          <path id="Trazado_691638" data-name="Trazado 691638" d="M1617.889,903.568s20.84-30.939,20.2-55.3l-14.576-29.743a46.251,46.251,0,0,0-10-13.487l-.22-.205a47.383,47.383,0,0,1-13.922-24.173c-.955-4.2-1.925-8.427-2.568-11.222a29.478,29.478,0,0,0-2.214-6.273l-7.494-15.425a23.105,23.105,0,0,1-1.774-15.1l1.9-8.567a4.071,4.071,0,0,0-5.29-4.733c-7.229,2.454-16.849,11.151-8.79,41.331,0,0-21.91-2.08-35.541.015a8.532,8.532,0,0,0-7.251,8.152l0,.123a8.084,8.084,0,0,0,2.834,6.43l.927.789a9.308,9.308,0,0,0-4.886,7.705,7.563,7.563,0,0,0,3.646,6.878l2.67,1.608a4.25,4.25,0,0,0-3.537,4.144,8.739,8.739,0,0,0,3.031,6.712l3.541,3.054-1.668.6a4.518,4.518,0,0,0-2.852,3.111,8.123,8.123,0,0,0,1.71,7.361,52.577,52.577,0,0,0,16.124,12.83s16.208,4.217,26.792,3.39c0,0,11.759,21.775,13.723,44.295a72.473,72.473,0,0,0,25.491,25.712" transform="translate(-1113.059 -523.513)" fill="#ffc89f"/>
          <path id="Trazado_691639" data-name="Trazado 691639" d="M1690.711,871.873c1.333.068,2.662.2,3.988.362s2.645.369,3.962.6c1.311.254,2.622.52,3.915.86a31.659,31.659,0,0,1,3.807,1.245c-.641-.188-1.273-.4-1.921-.556-.32-.091-.641-.178-.966-.253s-.646-.162-.971-.233q-1.947-.445-3.914-.8c-1.308-.25-2.625-.452-3.942-.657-.658-.1-1.318-.2-1.978-.291s-1.32-.186-1.981-.277" transform="translate(-1230.633 -634.722)" fill="#ff9b6c"/>
          <path id="Trazado_691640" data-name="Trazado 691640" d="M1547.21,928.791c1.574-.056,3.149-.04,4.723.006s3.147.148,4.718.264c1.57.134,3.137.3,4.7.52s3.112.5,4.65.835c-.781-.1-1.554-.244-2.337-.333-.778-.112-1.559-.207-2.34-.295-1.562-.174-3.125-.344-4.693-.456-1.566-.139-3.135-.236-4.7-.327q-1.178-.068-2.356-.118c-.786-.042-1.572-.067-2.358-.1" transform="translate(-1126.165 -676.132)" fill="#ff9b6c"/>
          <path id="Trazado_691641" data-name="Trazado 691641" d="M1662.385,903.285c.011-.506,0-1.007-.026-1.507s-.072-1-.143-1.488a11.611,11.611,0,0,0-.774-2.884,5.829,5.829,0,0,1,.684,1.36,7.7,7.7,0,0,1,.359,1.486,8.506,8.506,0,0,1-.1,3.033" transform="translate(-1209.326 -653.31)" fill="#ff9b6c"/>
          <path id="Trazado_691642" data-name="Trazado 691642" d="M1621.832,1089.786c.439-.367.866-.718,1.262-1.1.2-.188.386-.392.572-.6s.347-.43.525-.658a2.679,2.679,0,0,1-.355.786,3.806,3.806,0,0,1-.552.666,4.5,4.5,0,0,1-.677.533,3.282,3.282,0,0,1-.774.374" transform="translate(-1180.49 -791.643)" fill="#ff9b6c"/>
          <path id="Trazado_691643" data-name="Trazado 691643" d="M1651.989,969.442c.1-.275.2-.546.276-.824s.172-.551.246-.829c.147-.556.278-1.116.374-1.681a13.911,13.911,0,0,0,.2-1.707l.017-.431c0-.144-.008-.287-.01-.431.012-.29-.039-.574-.047-.867a6.965,6.965,0,0,1,.25,1.731,8.912,8.912,0,0,1-.137,1.751,10.772,10.772,0,0,1-.443,1.7,9,9,0,0,1-.721,1.591" transform="translate(-1202.443 -700.823)" fill="#ff9b6c"/>
          <path id="Trazado_691644" data-name="Trazado 691644" d="M1634.871,1030.725c.157-.245.316-.486.459-.738s.294-.5.431-.75c.271-.508.528-1.022.751-1.549a13.974,13.974,0,0,0,.583-1.616l.115-.415c.035-.139.059-.281.09-.422.078-.279.093-.568.154-.854a6.931,6.931,0,0,1-.156,1.742,8.879,8.879,0,0,1-.537,1.672,10.746,10.746,0,0,1-.822,1.548,8.959,8.959,0,0,1-1.069,1.382" transform="translate(-1189.981 -745.745)" fill="#ff9b6c"/>
          <path id="Trazado_691645" data-name="Trazado 691645" d="M1711.068,1132.62l1.324-.243q.662-.117,1.322-.246c.879-.172,1.756-.348,2.628-.546s1.738-.417,2.594-.669c.43-.121.849-.275,1.267-.431l.618-.26.594-.313a8.758,8.758,0,0,1-2.413,1.2,22.165,22.165,0,0,1-2.6.736c-.879.193-1.763.364-2.653.487s-1.783.233-2.68.283" transform="translate(-1245.452 -822.572)" fill="#ff9b6c"/>
          <path id="Trazado_691646" data-name="Trazado 691646" d="M1552.468,988.41c.5.09,1.008.172,1.514.239s1.011.141,1.518.2c1.013.117,2.028.223,3.045.293s2.035.14,3.055.179,2.041.065,3.064.1c-.51.038-1.021.064-1.533.088-.511.007-1.024.027-1.536.021-1.025,0-2.048-.057-3.071-.118-1.021-.093-2.041-.2-3.053-.357a24.318,24.318,0,0,1-3-.644" transform="translate(-1129.993 -719.56)" fill="#ff9b6c"/>
          <path id="Trazado_691647" data-name="Trazado 691647" d="M1563.626,1039.545c.616.38,1.245.732,1.885,1.063s1.286.644,1.948.925,1.326.554,2,.8,1.366.454,2.057.673c-.357-.058-.716-.119-1.07-.2s-.706-.171-1.053-.278a16.909,16.909,0,0,1-2.047-.746,17.081,17.081,0,0,1-1.939-.993q-.468-.279-.92-.583c-.294-.213-.591-.422-.864-.661" transform="translate(-1138.116 -756.785)" fill="#ff9b6c"/>
          <path id="Trazado_691648" data-name="Trazado 691648" d="M1971.869,680.663h-14.747V667.495h9.772Z" transform="translate(-1424.576 -485.938)" fill="#112e4c"/>
          <path id="Trazado_691649" data-name="Trazado 691649" d="M1821.8,335.865l-.523,63.895a9.821,9.821,0,0,0,9.934,9.7l28.648.319,9.727,20.527a3.712,3.712,0,0,0,6.594.074l10.183-20.3,28.648.32a9.821,9.821,0,0,0,10.147-9.472l.522-63.894a9.821,9.821,0,0,0-9.934-9.7l-83.8-.935a9.821,9.821,0,0,0-10.147,9.472" transform="translate(-1325.681 -237.619)" fill="#112e4c"/>
          <path id="Trazado_691650" data-name="Trazado 691650" d="M1767.591,335.865l-.522,63.895a9.821,9.821,0,0,0,9.933,9.7l28.648.319,9.728,20.527a3.712,3.712,0,0,0,6.593.074l10.183-20.3,28.648.32a9.82,9.82,0,0,0,10.147-9.472l.523-63.894a9.82,9.82,0,0,0-9.933-9.7l-83.8-.935a9.821,9.821,0,0,0-10.148,9.472" transform="translate(-1286.219 -237.619)" fill="#1f4168"/>
          <path id="Trazado_691651" data-name="Trazado 691651" d="M2002.783,446.521h9.5a1.852,1.852,0,0,1,1.852,1.853v23.114a1.852,1.852,0,0,1-1.852,1.852h-9.5a1.852,1.852,0,0,1-1.852-1.852V448.374a1.852,1.852,0,0,1,1.852-1.853" transform="translate(-1456.469 -325.071)" fill="#fff"/>
          <path id="Trazado_691652" data-name="Trazado 691652" d="M1868.5,405.419a3.407,3.407,0,0,1,3.407-3.407h13.778s-6.255-12.035,1.753-16.267c1.868-.987,3.98.08,4.068,2.634.38,11.023,4.188,13.179,8.849,13.634a1.923,1.923,0,0,1,1.852,1.852v23.114a1.852,1.852,0,0,1-1.852,1.852h-21.466s-3.615.016-3.9-2.682v-1.013a2.9,2.9,0,0,1,2.9-2.9h-1.851a3.158,3.158,0,0,1-3.158-3.158v-.5a3.156,3.156,0,0,1,2.01-2.939h-.814a3.407,3.407,0,1,1,0-6.814h-2.171a3.407,3.407,0,0,1-3.407-3.407" transform="translate(-1360.06 -280.562)" fill="#fff"/>
          <path id="Trazado_691653" data-name="Trazado 691653" d="M2167.943,1039.3h-9.411v-8.4h6.236Z" transform="translate(-1571.2 -750.492)" fill="#112e4c"/>
          <path id="Trazado_691654" data-name="Trazado 691654" d="M2072.181,819.281l-.334,40.772a6.267,6.267,0,0,0,6.339,6.187l18.281.2,6.208,13.1a2.369,2.369,0,0,0,4.208.047l6.5-12.957,18.281.2a6.267,6.267,0,0,0,6.476-6.044l.333-40.772a6.267,6.267,0,0,0-6.339-6.187l-53.474-.6a6.266,6.266,0,0,0-6.475,6.044" transform="translate(-1508.094 -592.036)" fill="#112e4c"/>
          <path id="Trazado_691655" data-name="Trazado 691655" d="M2037.589,819.281l-.333,40.772a6.267,6.267,0,0,0,6.339,6.187l18.281.2,6.208,13.1a2.368,2.368,0,0,0,4.207.047l6.5-12.957,18.281.2a6.267,6.267,0,0,0,6.475-6.044l.333-40.772a6.267,6.267,0,0,0-6.338-6.187l-53.474-.6a6.267,6.267,0,0,0-6.475,6.044" transform="translate(-1482.912 -592.036)" fill="#1f4168"/>
          <path id="Trazado_691656" data-name="Trazado 691656" d="M2133.161,869.219h0a17.587,17.587,0,0,1-24.872,0,7.284,7.284,0,0,0,0,10.3l12.436,12.436,12.436-12.436a7.284,7.284,0,0,0,0-10.3" transform="translate(-1533.07 -631.226)" fill="#fff"/>
          <path id="Trazado_691657" data-name="Trazado 691657" d="M588.665,680.663h14.747V667.495H593.64Z" transform="translate(-428.357 -485.938)" fill="#112e4c"/>
          <path id="Trazado_691658" data-name="Trazado 691658" d="M498.784,335.865l.523,63.895a9.821,9.821,0,0,1-9.934,9.7l-28.648.319L451,430.3a3.712,3.712,0,0,1-6.593.074l-10.183-20.3-28.648.32a9.821,9.821,0,0,1-10.147-9.472l-.523-63.894a9.821,9.821,0,0,1,9.934-9.7l83.8-.935a9.821,9.821,0,0,1,10.147,9.472" transform="translate(-287.301 -237.619)" fill="#112e4c"/>
          <path id="Trazado_691659" data-name="Trazado 691659" d="M552.991,335.865l.523,63.895a9.821,9.821,0,0,1-9.933,9.7l-28.648.319L505.2,430.3a3.712,3.712,0,0,1-6.593.074l-10.183-20.3-28.648.32a9.821,9.821,0,0,1-10.148-9.472l-.523-63.894a9.821,9.821,0,0,1,9.934-9.7l83.8-.935a9.821,9.821,0,0,1,10.148,9.472" transform="translate(-326.763 -237.619)" fill="#1f4168"/>
          <path id="Trazado_691660" data-name="Trazado 691660" d="M561.89,446.521h-9.5a1.853,1.853,0,0,0-1.852,1.853v23.114a1.852,1.852,0,0,0,1.852,1.852h9.5a1.852,1.852,0,0,0,1.852-1.852V448.374a1.853,1.853,0,0,0-1.852-1.853" transform="translate(-400.604 -325.071)" fill="#fff"/>
          <path id="Trazado_691661" data-name="Trazado 691661" d="M641.29,405.419a3.407,3.407,0,0,0-3.407-3.407H624.105s6.255-12.035-1.753-16.267c-1.868-.987-3.98.08-4.068,2.634-.38,11.023-4.188,13.179-8.849,13.634a1.923,1.923,0,0,0-1.852,1.852v23.114a1.852,1.852,0,0,0,1.852,1.852H630.9s3.615.016,3.9-2.682v-1.013a2.9,2.9,0,0,0-2.9-2.9h1.85a3.158,3.158,0,0,0,3.158-3.158v-.5a3.156,3.156,0,0,0-2.01-2.939h.814a3.407,3.407,0,1,0,0-6.814h2.171a3.407,3.407,0,0,0,3.407-3.407" transform="translate(-442.129 -280.562)" fill="#fff"/>
          <path id="Trazado_691662" data-name="Trazado 691662" d="M406.873,1039.3h9.41v-8.4h-6.235Z" transform="translate(-296.015 -750.492)" fill="#112e4c"/>
          <path id="Trazado_691663" data-name="Trazado 691663" d="M349.518,819.281l.333,40.772a6.267,6.267,0,0,1-6.339,6.187l-18.281.2-6.207,13.1a2.369,2.369,0,0,1-4.207.047l-6.5-12.957-18.281.2a6.267,6.267,0,0,1-6.475-6.044l-.333-40.772a6.267,6.267,0,0,1,6.339-6.187l53.474-.6a6.267,6.267,0,0,1,6.475,6.044" transform="translate(-206.004 -592.036)" fill="#112e4c"/>
          <path id="Trazado_691664" data-name="Trazado 691664" d="M384.109,819.281l.333,40.772a6.267,6.267,0,0,1-6.339,6.187l-18.281.2-6.207,13.1a2.369,2.369,0,0,1-4.207.047l-6.5-12.957-18.281.2a6.267,6.267,0,0,1-6.475-6.044l-.333-40.772a6.267,6.267,0,0,1,6.339-6.187l53.474-.6a6.267,6.267,0,0,1,6.475,6.044" transform="translate(-231.186 -592.036)" fill="#1f4168"/>
          <path id="Trazado_691665" data-name="Trazado 691665" d="M388.854,869.219h0a7.285,7.285,0,0,1,12.436,5.151,7.285,7.285,0,1,1,12.436,5.151l-12.436,12.436-12.436-12.436a7.284,7.284,0,0,1,0-10.3" transform="translate(-281.343 -631.226)" fill="#fff"/>
          <rect id="Rectángulo_344039" data-name="Rectángulo 344039" width="524.289" height="0.816" transform="translate(91.656 500.133)" fill="#1b1a2e"/>
        </g>
      </g>
    </g>
  </g>
</svg>
