<svg xmlns="http://www.w3.org/2000/svg" xmlns:xlink="http://www.w3.org/1999/xlink" width="156.117" height="156.117" viewBox="0 0 156.117 156.117">
  <defs>
    <clipPath id="clip-path">
      <rect id="Rect치ngulo_33848" data-name="Rect치ngulo 33848" width="156.118" height="156.117" fill="none"/>
    </clipPath>
    <clipPath id="clip-path-2">
      <rect id="Rect치ngulo_34577" data-name="Rect치ngulo 34577" width="71.946" height="113.843" fill="none"/>
    </clipPath>
  </defs>
  <g id="Grupo_998966" data-name="Grupo 998966" transform="translate(0)">
    <g id="Grupo_80333" data-name="Grupo 80333" transform="translate(0)" clip-path="url(#clip-path)">
      <path id="Trazado_113701" data-name="Trazado 113701" d="M156.118,78.059A78.059,78.059,0,1,1,78.059,0a78.059,78.059,0,0,1,78.059,78.059" fill="#4db1f0"/>
      <g id="Grupo_82197" data-name="Grupo 82197" transform="translate(38.771 21.137)">
        <g id="Grupo_82197-2" data-name="Grupo 82197" clip-path="url(#clip-path-2)">
          <path id="Trazado_114095" data-name="Trazado 114095" d="M98.324,28.226c3.618,4.618,6.861,15.768,8.345,21.624a13.487,13.487,0,0,1,1.121,2.089c.2-5.8.186-15.792-1.645-20.473C103.479,24.653,85.315,3.874,82.074,2.4a3.843,3.843,0,0,0-1.6-.346,4.582,4.582,0,0,0-3.664,1.955,4.216,4.216,0,0,0-.518,3.943,38.654,38.654,0,0,0,3.469,6.021C87.579,19,95.832,25.046,98.324,28.226" transform="translate(-37.121 -1.005)" fill="#ffdcad"/>
          <path id="Trazado_114096" data-name="Trazado 114096" d="M70.005,30.076C67.4,23.418,49.256,2.194,45.388.439A4.9,4.9,0,0,0,43.351,0a5.65,5.65,0,0,0-4.524,2.4,5.246,5.246,0,0,0-.65,4.9,26.677,26.677,0,0,0,2.355,4.333c-5.994-3.749-11.385-6.67-13.238-6.92a5.668,5.668,0,0,0-5.678,3.16,5.588,5.588,0,0,0,.493,5.935c1.354,1.845,5.607,5.335,10.109,9.03,4.316,3.542,8.757,7.187,10.48,9.265-5.109-2.19-10.586-4.036-14.541-4.036a7.367,7.367,0,0,0-3.579.764C18.623,32.141,1.065,48,.586,51.834a9.129,9.129,0,0,0,2.275,6.7,5.3,5.3,0,0,0,3.875,2.008h0a3.96,3.96,0,0,0,.736-.069c1.526-.286,4.266-2.454,7.735-5.2,4.943-3.912,11.126-8.837,14.489-8.447,1.738.2,3.579,1.828,5.185,4.582,2.87,4.923,4.093,11.921,2.672,15.282-2.286,5.4-5.069,9-11.22,9a20.111,20.111,0,0,1-3.642-.364C15.014,73.9,13.275,69.285,12,65.914c-.267-.709-.519-1.378-.8-1.941-.992-1.983-4.1-3.659-6.8-3.659-2.046,0-3.435.97-3.811,2.661A40.306,40.306,0,0,0,2.632,84.1a29.651,29.651,0,0,0,19.135,17.994c4.839,1.5,7.594,4.138,10.025,6.468,2.247,2.154,4.371,4.19,7.694,4.956a14.657,14.657,0,0,0,3.26.33c6.319,0,15.937-2.978,23.178-9.632,6.109-5.614,5.5-13.567,4.911-21.259a60.445,60.445,0,0,1-.266-8.637c.185-2.652.451-5.076.708-7.419.56-5.1,1.018-9.317.3-12.982.289-4.669.717-17.977-1.576-23.839M42.746,112.79a13.585,13.585,0,0,1-3.024-.3c-3.04-.7-4.968-2.55-7.2-4.69-2.515-2.41-5.366-5.143-10.442-6.714A28.619,28.619,0,0,1,3.614,83.713,39.761,39.761,0,0,1,1.623,63.2a2.518,2.518,0,0,1,2.782-1.837c2.3,0,5.037,1.438,5.856,3.077.257.514.5,1.159.757,1.842,1.282,3.4,3.219,8.542,11.48,10.079a21.118,21.118,0,0,0,3.835.382c7.127,0,10.07-4.637,12.19-9.647,1.747-4.129-.057-11.636-2.731-16.223-1.777-3.048-3.9-4.858-5.974-5.1-3.741-.441-9.886,4.411-15.263,8.667-3.088,2.444-6.006,4.753-7.276,4.991a2.966,2.966,0,0,1-.542.05h0a4.278,4.278,0,0,1-3.085-1.652,8.136,8.136,0,0,1-2.019-5.873c.411-3.288,17.18-18.723,23.457-22.21a6.365,6.365,0,0,1,3.068-.632c8.9,0,26.044,9.8,27.97,10.923l1.259.728C63.646,44.392,68.17,47.006,70,52.077c1.415,3.933.894,8.687.234,14.7-.258,2.354-.525,4.789-.712,7.462a61.281,61.281,0,0,0,.266,8.79c.57,7.441,1.159,15.135-4.573,20.4-6.994,6.427-16.548,9.354-22.465,9.354m1.406-80.463c-1.162-2.009-6.07-6.037-11.266-10.3-4.254-3.491-8.652-7.1-9.929-8.839a4.5,4.5,0,0,1-.4-4.835,4.607,4.607,0,0,1,4.6-2.591c3.731.5,28.45,16.021,33.222,22.11,3.069,3.915,5.921,12.935,7.556,18.949-2.428-2.565-5.845-4.548-10.017-6.959l-1.257-.728c-1.013-.588-6.188-3.549-12.212-6.26-.1-.195-.2-.38-.292-.546M39.687,3.008a4.583,4.583,0,0,1,3.664-1.955,3.849,3.849,0,0,1,1.6.346c3.242,1.47,21.406,22.248,24.071,29.061,1.831,4.681,1.847,14.67,1.646,20.473a13.463,13.463,0,0,0-1.121-2.089C68.063,42.988,64.821,31.837,61.2,27.22,58.711,24.041,50.458,18,42.638,12.972a38.679,38.679,0,0,1-3.469-6.021,4.217,4.217,0,0,1,.518-3.943" transform="translate(0)" fill="#d79054"/>
          <path id="Trazado_114097" data-name="Trazado 114097" d="M77.679,44.6l1.257.728c4.172,2.411,7.589,4.394,10.017,6.959-1.635-6.014-4.488-15.034-7.556-18.949-4.772-6.088-29.491-21.607-33.221-22.11a4.607,4.607,0,0,0-4.6,2.591,4.5,4.5,0,0,0,.4,4.835c1.276,1.738,5.675,5.348,9.929,8.839,5.2,4.264,10.1,8.292,11.266,10.3.1.166.194.351.292.546,6.024,2.711,11.2,5.672,12.211,6.26" transform="translate(-21.024 -5.464)" fill="#ffdcad"/>
          <path id="Trazado_114098" data-name="Trazado 114098" d="M70.8,110.823a61.285,61.285,0,0,1-.267-8.79c.187-2.673.454-5.107.712-7.462.66-6.018,1.182-10.772-.234-14.7-1.825-5.071-6.35-7.685-12.61-11.3l-1.259-.728c-1.926-1.118-19.07-10.923-27.97-10.923a6.365,6.365,0,0,0-3.068.632C19.825,61.031,3.055,76.465,2.644,79.753a8.136,8.136,0,0,0,2.02,5.873,4.28,4.28,0,0,0,3.085,1.652h0a2.974,2.974,0,0,0,.542-.05c1.27-.238,4.187-2.547,7.275-4.991C20.944,77.98,27.09,73.128,30.83,73.57c2.075.239,4.2,2.049,5.974,5.1,2.674,4.587,4.479,12.093,2.731,16.223-2.119,5.01-5.063,9.647-12.19,9.647a21.117,21.117,0,0,1-3.835-.382c-8.261-1.537-10.2-6.678-11.48-10.079-.257-.683-.5-1.327-.757-1.842-.819-1.639-3.556-3.077-5.856-3.077a2.518,2.518,0,0,0-2.782,1.836A39.767,39.767,0,0,0,4.626,111.5a28.621,28.621,0,0,0,18.466,17.369c5.076,1.571,7.927,4.3,10.442,6.714,2.233,2.14,4.161,3.989,7.2,4.69a13.585,13.585,0,0,0,3.023.3c5.917,0,15.471-2.927,22.465-9.354,5.733-5.268,5.143-12.961,4.574-20.4" transform="translate(-1.013 -27.789)" fill="#ffdcad"/>
          <path id="Trazado_114099" data-name="Trazado 114099" d="M72.618,38.017c-1.63-1.1-3.34-2.082-5.023-3.1a113.938,113.938,0,0,1-20.64-16.058,11.028,11.028,0,0,1-2.346-2.934,4.851,4.851,0,0,1-.431-1.389,4.97,4.97,0,0,0-.6.915,4.5,4.5,0,0,0,.4,4.836c1.276,1.738,5.675,5.347,9.928,8.839,5.2,4.264,10.1,8.292,11.267,10.3.1.166.193.352.292.546,6.024,2.712,11.2,5.672,12.211,6.26l1.257.728c1.906,1.1,3.645,2.113,5.213,3.132A39.864,39.864,0,0,0,72.618,38.017" transform="translate(-21.024 -7.096)" fill="#fcca92"/>
          <path id="Trazado_114100" data-name="Trazado 114100" d="M107.79,52.386c.023-.654.042-1.364.057-2.111q-.659-2.524-1.342-5.043l-1.384-5.143a41.261,41.261,0,0,0-1.631-5.152c-3.064-7.366-10-12.239-15.306-18.2A96.835,96.835,0,0,1,79.261,4.3a7.827,7.827,0,0,1-.707-1.325A4.7,4.7,0,0,0,76.807,4.46,4.217,4.217,0,0,0,76.289,8.4a38.692,38.692,0,0,0,3.469,6.021c7.82,5.027,16.073,11.069,18.565,14.248,3.618,4.617,6.86,15.768,8.345,21.624a13.463,13.463,0,0,1,1.121,2.089" transform="translate(-37.121 -1.453)" fill="#fcca92"/>
          <path id="Trazado_114101" data-name="Trazado 114101" d="M46.258,96.726a22.813,22.813,0,0,0-1.012-5.5,24.261,24.261,0,0,0-2.165-4.257c-1.446-2.427-2.994-4.938-5.4-6.416-3.214-1.972-7.416-1.69-10.881-.2s-6.353,4.026-9.178,6.524l-7.74,6.844a18.86,18.86,0,0,1-3.26,2.436c.087.111.169.227.261.332a4.281,4.281,0,0,0,3.085,1.652h0a2.931,2.931,0,0,0,.542-.051c1.27-.238,4.187-2.547,7.275-4.991,5.377-4.256,11.523-9.108,15.263-8.667,2.076.239,4.2,2.05,5.974,5.1,2.674,4.587,4.479,12.094,2.732,16.223-2.12,5.01-5.063,9.647-12.19,9.647a20.949,20.949,0,0,1-3.647-.351,15.108,15.108,0,0,0,5.415,1.331c3.7.3,7.67-.262,10.548-2.608a13.162,13.162,0,0,0,4.3-7.9,33.338,33.338,0,0,0,.078-9.149" transform="translate(-3.233 -38.652)" fill="#fcca92"/>
          <path id="Trazado_114102" data-name="Trazado 114102" d="M43.76,171.714c5.563,0,14.341-2.589,21.184-8.24a41.2,41.2,0,0,1-8.924,1.678,33.756,33.756,0,0,1-21.651-5.607A26.934,26.934,0,0,0,29,156.128c-2.333-.912-4.924-.838-7.373-1.366-5.4-1.165-9.824-5.25-12.6-10.031s-4.114-10.241-5.269-15.646c-.6-2.784-1.123-5.8-.068-8.411a2.1,2.1,0,0,0-1.06,1.454,39.761,39.761,0,0,0,1.991,20.51,28.619,28.619,0,0,0,18.465,17.369c5.076,1.571,7.927,4.3,10.442,6.714,2.234,2.14,4.162,3.989,7.2,4.69a13.581,13.581,0,0,0,3.023.3" transform="translate(-1.014 -58.925)" fill="#fcca92"/>
          <path id="Trazado_114103" data-name="Trazado 114103" d="M26.475,73.641c-1.525.509-2.736,2.036-3.8,3.185a20.852,20.852,0,0,0-3.3,4.277.248.248,0,0,0,.387.3c1.37-1.11,2.532-2.464,3.786-3.7,1.1-1.081,2.645-2.156,3.3-3.566.115-.246-.075-.6-.381-.5" transform="translate(-9.446 -35.95)" fill="#fff9df"/>
          <path id="Trazado_114104" data-name="Trazado 114104" d="M37.993,67.687a1.735,1.735,0,0,0-1.061.665,4.723,4.723,0,0,0-.825,1.052.34.34,0,0,0,.462.462,4.759,4.759,0,0,0,1.067-.809,1.716,1.716,0,0,0,.677-1.048.32.32,0,0,0-.321-.321" transform="translate(-17.609 -33.051)" fill="#fff9df"/>
          <path id="Trazado_114105" data-name="Trazado 114105" d="M79.579,29.346c-1.006-1.382-2.731-2.166-4.166-3.05-1.836-1.13-3.766-2.063-5.691-3.026a.1.1,0,0,0-.1.171c1.607,1.034,3.173,2.138,4.748,3.221,1.522,1.046,3.109,2.577,4.893,3.1.22.064.465-.206.316-.411" transform="translate(-33.973 -11.357)" fill="#fff9df"/>
          <path id="Trazado_114106" data-name="Trazado 114106" d="M94.544,38.72a2.85,2.85,0,0,0-.771-.967,4.277,4.277,0,0,0-1.265-.682c-.3-.1-.642.291-.437.568a3.445,3.445,0,0,0,2.213,1.419.233.233,0,0,0,.26-.339" transform="translate(-44.927 -18.094)" fill="#fff9df"/>
          <path id="Trazado_114107" data-name="Trazado 114107" d="M100,17.77a13.664,13.664,0,0,0-3.855-4.7c-.167-.128-.387.117-.281.281a26.757,26.757,0,0,0,3.813,4.671A.207.207,0,0,0,100,17.77" transform="translate(-46.797 -6.363)" fill="#fff9df"/>
          <path id="Trazado_114108" data-name="Trazado 114108" d="M20.44,134.3c-.561-1.195-1.378-2.253-2.006-3.416-.541-1-.866-2.305-1.688-3.106-.072-.07-.232-.05-.248.066a5.994,5.994,0,0,0,.893,3.139A10.914,10.914,0,0,0,19.9,134.72a.347.347,0,0,0,.543-.419" transform="translate(-8.045 -62.374)" fill="#fff9df"/>
          <path id="Trazado_114109" data-name="Trazado 114109" d="M28.916,145.469a9.252,9.252,0,0,0-1.81-1.358c-.483-.373-1.127.216-.687.687a3.069,3.069,0,0,0,2.264,1.233.333.333,0,0,0,.233-.562" transform="translate(-12.829 -70.312)" fill="#fff9df"/>
          <path id="Trazado_114110" data-name="Trazado 114110" d="M119.12,88.52a9.325,9.325,0,0,0-2.911-1.857,26.246,26.246,0,0,0-3.6-1.566c-.152-.048-.288.168-.16.275a23.063,23.063,0,0,0,2.823,1.937,10.831,10.831,0,0,0,3.55,1.721.307.307,0,0,0,.3-.509" transform="translate(-54.884 -41.549)" fill="#fff9df"/>
          <path id="Trazado_114111" data-name="Trazado 114111" d="M130.019,96.714c-.118-.457-.452-.631-.822-.888-.411-.286-.853-.524-1.262-.816-.222-.158-.553.161-.383.383.511.666,1.32,1.848,2.277,1.655a.274.274,0,0,0,.19-.334" transform="translate(-62.26 -46.372)" fill="#fff9df"/>
          <path id="Trazado_114112" data-name="Trazado 114112" d="M80.4,135.4c-1.559,1.339-2.3,3.583-3.312,5.342-1.4,2.438-3.473,4.621-6.443,4.753-.168.008-.223.277-.041.307a6.623,6.623,0,0,0,5.834-2.139,15.624,15.624,0,0,0,2.428-3.466c.822-1.4,1.878-2.826,2.126-4.452a.357.357,0,0,0-.592-.344" transform="translate(-34.421 -66.067)" fill="#fcca92"/>
          <path id="Trazado_114113" data-name="Trazado 114113" d="M94.421,130.848a.362.362,0,0,0-.724,0,16.639,16.639,0,0,1-.3,3.137,13.136,13.136,0,0,0-.494,2.5c0,.257.364.456.548.227,1.194-1.487,1.112-4.063.97-5.863" transform="translate(-45.364 -63.722)" fill="#fcca92"/>
          <path id="Trazado_114114" data-name="Trazado 114114" d="M112.687,199.44c-2.826.532-6.3,2.471-9.16,1.387-.267-.1-.4.293-.184.436,2.689,1.818,7.206.56,9.591-1.236a.322.322,0,0,0-.247-.586" transform="translate(-50.411 -97.382)" fill="#fcca92"/>
          <path id="Trazado_114115" data-name="Trazado 114115" d="M122.57,194.764c-.49-.2-.953.1-1.4.3a10.552,10.552,0,0,0-1.5.883.37.37,0,0,0,.374.639c.478-.208.969-.384,1.447-.589.457-.2,1.024-.325,1.249-.809a.3.3,0,0,0-.172-.423" transform="translate(-58.348 -95.071)" fill="#fcca92"/>
          <path id="Trazado_114116" data-name="Trazado 114116" d="M110.1,62.853a8.452,8.452,0,0,0-2.427-2.155,31.965,31.965,0,0,0-3.514-2.483.2.2,0,0,0-.239.31,28.829,28.829,0,0,0,2.829,2.664,9.6,9.6,0,0,0,2.933,2.208.373.373,0,0,0,.418-.544" transform="translate(-50.72 -28.412)" fill="#fcca92"/>
          <path id="Trazado_114117" data-name="Trazado 114117" d="M113.778,61.709a5.657,5.657,0,0,1-1.189-1.179c-.17-.253-.576-.024-.412.241a2.84,2.84,0,0,0,1.416,1.254.19.19,0,0,0,.184-.316" transform="translate(-54.757 -29.503)" fill="#fcca92"/>
          <path id="Trazado_114118" data-name="Trazado 114118" d="M126.763,54.053a1.656,1.656,0,0,0-.245-.691,9.005,9.005,0,0,0-.631-.687,4.445,4.445,0,0,0-1.469-.925c-.308-.121-.5.373-.222.526a3.5,3.5,0,0,1,1.1.985c.17.217.326.441.482.669a1.867,1.867,0,0,0,.581.43.274.274,0,0,0,.4-.307" transform="translate(-60.578 -25.26)" fill="#fcca92"/>
        </g>
      </g>
    </g>
  </g>
</svg>
