<svg xmlns="http://www.w3.org/2000/svg" xmlns:xlink="http://www.w3.org/1999/xlink" width="67.969" height="67.969" viewBox="0 0 67.969 67.969">
  <defs>
    <clipPath id="clip-path">
      <rect id="Rectángulo_345287" data-name="Rectángulo 345287" width="40" height="22" rx="11" transform="translate(523.878 2365.272)" fill="#fff" stroke="#707070" stroke-width="1" opacity="0.52"/>
    </clipPath>
  </defs>
  <g id="Grupo_1005935" data-name="Grupo 1005935" transform="translate(-390 -1874.936)">
    <circle id="Elipse_5223" data-name="Elipse 5223" cx="33.984" cy="33.984" r="33.984" transform="translate(390 1874.936)" fill="#0098e8"/>
    <path id="Trazado_701120" data-name="Trazado 701120" d="M6.975,5.053H34.02A7,7,0,0,1,41,12.028V39.073a7,7,0,0,1-6.975,6.975H6.975A7,7,0,0,1,0,39.073V12.028A7,7,0,0,1,6.975,5.053" transform="translate(403 1883.947)" fill="#1f4168" fill-rule="evenodd"/>
    <g id="Enmascarar_grupo_927366" data-name="Enmascarar grupo 927366" transform="translate(-119.878 -466.271)" clip-path="url(#clip-path)">
      <g id="ojo" transform="translate(522.254 2354.648)">
        <g id="Grupo_991117" data-name="Grupo 991117" transform="translate(1.9 1.9)">
          <path id="Trazado_701170" data-name="Trazado 701170" d="M84.884,154.106s-5.082,6.136-12.1,8.493a16.6,16.6,0,0,1-5.293.908c-9.605,0-17.392-9.4-17.392-9.4s7.786-9.4,17.392-9.4a16.588,16.588,0,0,1,5.294.909C79.8,147.972,84.884,154.106,84.884,154.106Z" transform="translate(-47.769 -134.383)" fill="#e5f5f9"/>
          <path id="Trazado_701171" data-name="Trazado 701171" d="M330.76,163.957s-5.082,6.136-12.1,8.493a35.843,35.843,0,0,0,8.36-8.493,35.83,35.83,0,0,0-8.359-8.491C325.678,157.823,330.76,163.957,330.76,163.957Z" transform="translate(-293.645 -144.234)" fill="#bfd5dd"/>
          <path id="Trazado_701172" data-name="Trazado 701172" d="M163.5,154.106a9.406,9.406,0,1,1-9.4-9.4A9.4,9.4,0,0,1,163.5,154.106Z" transform="translate(-134.379 -134.383)" fill="#5cd5ff"/>
          <path id="Trazado_701173" data-name="Trazado 701173" d="M249.463,154.106a9.406,9.406,0,0,1-10.872,9.286,9.4,9.4,0,0,0,0-18.571,9.406,9.406,0,0,1,10.872,9.285Z" transform="translate(-220.338 -134.383)" fill="#5ab5ff"/>
          <path id="Trazado_701174" data-name="Trazado 701174" d="M219.209,215.474a3.741,3.741,0,1,1-3.738-3.738A3.739,3.739,0,0,1,219.209,215.474Z" transform="translate(-195.747 -195.751)" fill="#51697a"/>
          <path id="Trazado_701175" data-name="Trazado 701175" d="M246.656,215.474a3.743,3.743,0,0,1-4.945,3.541,3.741,3.741,0,0,0,0-7.08,3.741,3.741,0,0,1,4.945,3.539Z" transform="translate(-223.195 -195.751)" fill="#354c5b"/>
          <g id="Grupo_991116" data-name="Grupo 991116">
            <g id="Grupo_991115" data-name="Grupo 991115">
              <g id="Grupo_991114" data-name="Grupo 991114">
                <g id="Grupo_991113" data-name="Grupo 991113">
                  <path id="Trazado_701180" data-name="Trazado 701180" d="M31.221,394.918H24.85a2.356,2.356,0,0,1-2.357-2.357v-6.37a1.267,1.267,0,0,1,1.267,1.266v4.831a1.365,1.365,0,0,0,1.363,1.363h4.831a1.266,1.266,0,0,1,1.266,1.266Z" transform="translate(-22.493 -355.472)" fill="#51697a"/>
                  <path id="Trazado_701182" data-name="Trazado 701182" d="M394.911,24.849v6.37a1.267,1.267,0,0,1-1.267-1.266V25.121a1.365,1.365,0,0,0-1.363-1.363h-4.831a1.266,1.266,0,0,1-1.266-1.266h6.371a2.356,2.356,0,0,1,2.357,2.357Z" transform="translate(-355.464 -22.492)" fill="#51697a"/>
                  <path id="Trazado_701183" data-name="Trazado 701183" d="M394.911,386.192v6.37a2.356,2.356,0,0,1-2.357,2.357h-6.371a1.266,1.266,0,0,1,1.266-1.266h4.831a1.365,1.365,0,0,0,1.363-1.363v-4.831A1.267,1.267,0,0,1,394.911,386.192Z" transform="translate(-355.464 -355.472)" fill="#51697a"/>
                </g>
              </g>
            </g>
            <circle id="Elipse_7685" data-name="Elipse 7685" cx="1.907" cy="1.907" r="1.907" transform="translate(20.267 14.905)" fill="#fff"/>
          </g>
        </g>
        <g id="Grupo_991118" data-name="Grupo 991118" transform="translate(0)">
          <path id="Trazado_701185" data-name="Trazado 701185" d="M385.41,0h-4.832a1.9,1.9,0,1,0,0,3.8h4.832a.731.731,0,0,1,.73.73V9.36a1.9,1.9,0,0,0,3.8,0V4.529A4.535,4.535,0,0,0,385.41,0Zm3.263,9.36a.633.633,0,0,1-1.266,0V4.529a2,2,0,0,0-2-2h-4.832a.633.633,0,1,1,0-1.266h4.832a3.266,3.266,0,0,1,3.263,3.262Z" transform="translate(-346.693)"/>
          <path id="Trazado_701186" data-name="Trazado 701186" d="M9.361,386.153H4.53a.731.731,0,0,1-.73-.73v-4.831a1.9,1.9,0,0,0-3.8,0v4.831a4.535,4.535,0,0,0,4.53,4.529H9.361a1.9,1.9,0,1,0,0-3.8Zm0,2.533H4.53a3.266,3.266,0,0,1-3.263-3.262v-4.831a.633.633,0,0,1,1.266,0v4.831a2,2,0,0,0,2,2H9.361a.633.633,0,1,1,0,1.266Z" transform="translate(0 -346.706)"/>
          <path id="Trazado_701187" data-name="Trazado 701187" d="M388.038,378.692a1.9,1.9,0,0,0-1.9,1.9v4.831a.731.731,0,0,1-.73.73h-4.832a1.9,1.9,0,1,0,0,3.8h4.832a4.535,4.535,0,0,0,4.53-4.529v-4.831A1.9,1.9,0,0,0,388.038,378.692Zm.633,6.731a3.266,3.266,0,0,1-3.263,3.262h-4.832a.633.633,0,1,1,0-1.266h4.832a2,2,0,0,0,2-2v-4.831a.633.633,0,0,1,1.266,0v4.831Z" transform="translate(-346.692 -346.706)"/>
          <path id="Trazado_701188" data-name="Trazado 701188" d="M78.5,147.64a.633.633,0,0,0,0-.808,30.405,30.405,0,0,0-3.2-3.187.634.634,0,1,0-.832.956,32.377,32.377,0,0,1,2.7,2.635,31.5,31.5,0,0,1-9.455,7.091,10.018,10.018,0,0,0,0-14.18,26.649,26.649,0,0,1,4.668,2.781.633.633,0,1,0,.752-1.02c-4.236-3.123-8.447-4.706-12.515-4.706-5.136,0-9.728,2.625-12.677,4.826a32.777,32.777,0,0,0-5.2,4.8.633.633,0,0,0,0,.808,32.768,32.768,0,0,0,5.2,4.8c2.948,2.2,7.541,4.826,12.677,4.826s9.728-2.625,12.677-4.826A32.773,32.773,0,0,0,78.5,147.64Zm-34.428-.4a33.463,33.463,0,0,1,4.654-4.211,26.8,26.8,0,0,1,4.8-2.879,10,10,0,0,0-2.94,7.09.633.633,0,1,0,1.267,0A8.767,8.767,0,1,1,60.679,156h-.058a8.694,8.694,0,0,1-5.229-1.729,8.845,8.845,0,0,1-3.132-4.391.633.633,0,1,0-1.208.382,9.959,9.959,0,0,0,2.458,4.053,26.815,26.815,0,0,1-4.783-2.871A33.457,33.457,0,0,1,44.072,147.236Z" transform="translate(-38.998 -125.613)"/>
          <path id="Trazado_701189" data-name="Trazado 701189" d="M208.608,201.283a4.376,4.376,0,0,0,4.232-5.475,2.539,2.539,0,1,0-3.869-3.255c-.121-.01-.242-.015-.363-.015a4.372,4.372,0,1,0,0,8.745Zm2.45-8.557A1.273,1.273,0,1,1,209.785,194,1.275,1.275,0,0,1,211.059,192.726Zm-2.533,1.08q-.007.1-.007.193a2.541,2.541,0,0,0,3.163,2.463,3.141,3.141,0,0,1,.032.448,3.105,3.105,0,1,1-3.188-3.1Z" transform="translate(-186.985 -175.287)"/>
        </g>
      </g>
    </g>
  </g>
</svg>
