<svg xmlns="http://www.w3.org/2000/svg" xmlns:xlink="http://www.w3.org/1999/xlink" width="67.969" height="67.969" viewBox="0 0 67.969 67.969">
  <defs>
    <clipPath id="clip-path">
      <path id="Trazado_701154" data-name="Trazado 701154" d="M6.975,5.053H34.02A7,7,0,0,1,41,12.028V39.073a7,7,0,0,1-6.975,6.975H6.975A7,7,0,0,1,0,39.073V12.028A7,7,0,0,1,6.975,5.053" transform="translate(403.233 1754.505)" fill="#7e2736" clip-rule="evenodd"/>
    </clipPath>
  </defs>
  <g id="Grupo_1005933" data-name="Grupo 1005933" transform="translate(-390 -1716.326)">
    <g id="Grupo_1005932" data-name="Grupo 1005932">
      <circle id="Elipse_5223" data-name="Elipse 5223" cx="33.984" cy="33.984" r="33.984" transform="translate(390 1716.326)" fill="#0098e8"/>
    </g>
    <path id="Trazado_701118" data-name="Trazado 701118" d="M6.975,5.053H34.02A7,7,0,0,1,41,12.028V39.073a7,7,0,0,1-6.975,6.975H6.975A7,7,0,0,1,0,39.073V12.028A7,7,0,0,1,6.975,5.053" transform="translate(403.233 1724.505)" fill="#1f4168" fill-rule="evenodd"/>
    <g id="Enmascarar_grupo_927364" data-name="Enmascarar grupo 927364" transform="translate(0 -30)" clip-path="url(#clip-path)">
      <g id="caminar" transform="translate(386.264 1761.394)">
        <path id="Trazado_701128" data-name="Trazado 701128" d="M144.984,58A5.338,5.338,0,1,0,155.5,58Z" transform="translate(-113.893 -52.41)" fill="#ffc89f"/>
        <path id="Trazado_701129" data-name="Trazado 701129" d="M147.578,58.909a5.368,5.368,0,0,1,.077-.909h-2.672a5.341,5.341,0,0,0,6.6,6.076A5.338,5.338,0,0,1,147.578,58.909Z" transform="translate(-113.893 -52.41)" opacity="0.1"/>
        <path id="Trazado_701130" data-name="Trazado 701130" d="M177.32,297.951a6.18,6.18,0,0,0-1.582-3.116l-4.327-4.325H165.12l7.468,7.464a2.033,2.033,0,0,1,.336.658l1.9,12.26,4.4-.681Z" transform="translate(-132.16 -262.512)" fill="#34a1d7"/>
        <path id="Trazado_701131" data-name="Trazado 701131" d="M175.066,298.632a2.033,2.033,0,0,0-.336-.658l-7.468-7.464h-2.143l7.468,7.464a2.034,2.034,0,0,1,.336.658l1.9,12.26,2.092-.324Z" transform="translate(-132.159 -262.512)" opacity="0.1"/>
        <path id="Trazado_701132" data-name="Trazado 701132" d="M268.693,483.222a.475.475,0,0,0,.006-.055v-1.245a.491.491,0,0,0-.489-.489H262.96a.491.491,0,0,0-.489.489v1.245a.456.456,0,0,0,.006.055Z" transform="translate(-220.129 -435.035)" fill="#08375e"/>
        <path id="Trazado_701133" data-name="Trazado 701133" d="M82.445,290.51V295.3a2.037,2.037,0,0,1-.228.7l-7.329,10.012,3.59,2.626,7.329-10.012a6.177,6.177,0,0,0,1.086-3.321V290.51Z" transform="translate(-50.624 -262.512)" fill="#34a1d7"/>
        <path id="Trazado_701134" data-name="Trazado 701134" d="M82.445,290.51V295.3a2.037,2.037,0,0,1-.228.7l-7.329,10.012,3.59,2.626.505-.691L77.009,306.5l7.329-10.012a2.038,2.038,0,0,0,.228-.7V290.51Z" transform="translate(-50.624 -262.512)" opacity="0.1"/>
        <path id="Trazado_701135" data-name="Trazado 701135" d="M65.5,452.465l4.081,2.856H70.5l.691-.987a.49.49,0,0,0-.12-.681l-4.3-3.009a.491.491,0,0,0-.682.12l-.714,1.02A.49.49,0,0,0,65.5,452.465Z" transform="translate(-41.952 -407.134)" fill="#08375e"/>
        <path id="Trazado_701136" data-name="Trazado 701136" d="M97.848,148.752a1.261,1.261,0,0,1-1.257,1.257H92.945a1.261,1.261,0,0,1-1.257-1.257V137.067a1.26,1.26,0,0,1,1.257-1.257h3.646a1.261,1.261,0,0,1,1.257,1.257Z" transform="translate(-65.805 -122.721)" fill="#cb7c52"/>
        <g id="Grupo_991106" data-name="Grupo 991106" transform="translate(25.883 13.089)" opacity="0.1">
          <path id="Trazado_701137" data-name="Trazado 701137" d="M94.408,148.752V137.067a1.26,1.26,0,0,1,1.257-1.257h-2.72a1.26,1.26,0,0,0-1.257,1.257v11.686a1.261,1.261,0,0,0,1.257,1.257h2.72A1.261,1.261,0,0,1,94.408,148.752Z" transform="translate(-91.688 -135.81)"/>
        </g>
        <path id="Trazado_701138" data-name="Trazado 701138" d="M150.555,129.854a.482.482,0,0,1-.482-.482V116.544a4.378,4.378,0,0,1,8.756,0v12.828a.482.482,0,0,1-.482.482Z" transform="translate(-118.563 -101.358)" fill="#ef5a50"/>
        <g id="Grupo_991107" data-name="Grupo 991107" transform="translate(31.51 10.81)">
          <path id="Trazado_701139" data-name="Trazado 701139" d="M162.095,112.168a4.375,4.375,0,0,0-3.563,1.837,4.375,4.375,0,0,1,6.888,3.582V120.1a6.575,6.575,0,0,0,1.008-1.543,4.42,4.42,0,0,1,.045.625v-2.641A4.382,4.382,0,0,0,162.095,112.168Z" transform="translate(-157.717 -112.168)" fill="#ab5436"/>
          <path id="Trazado_701140" data-name="Trazado 701140" d="M152.843,182.272a6.534,6.534,0,0,1-2.77-.613V184.3a6.559,6.559,0,0,0,8.756-3.265v-1.92a4.416,4.416,0,0,0-.045-.625A6.556,6.556,0,0,1,152.843,182.272Z" transform="translate(-150.073 -172.098)" fill="#ab5436"/>
        </g>
        <path id="Trazado_701141" data-name="Trazado 701141" d="M204.888,154.1h-6.824a4.629,4.629,0,0,1-2.617-1.084l-2.613-2.612a1.668,1.668,0,0,0-2.359,2.358l2.613,2.612a7.844,7.844,0,0,0,4.977,2.06h6.824Z" transform="translate(-154.629 -135.47)" fill="#e23c38"/>
        <g id="Grupo_991108" data-name="Grupo 991108" transform="translate(35.357 14.845)" opacity="0.1">
          <path id="Trazado_701142" data-name="Trazado 701142" d="M198.628,159.586a7.844,7.844,0,0,1-4.977-2.06l-2.613-2.612a1.658,1.658,0,0,1-.461-.88c-.035.029-.069.059-.1.092a1.667,1.667,0,0,0,0,2.358l2.613,2.612a7.844,7.844,0,0,0,4.977,2.06h6.824v-1.57h-6.261Z" transform="translate(-189.987 -154.034)"/>
        </g>
        <path id="Trazado_701143" data-name="Trazado 701143" d="M346.974,200.511a.834.834,0,0,0,.021-.193V169.68a1.11,1.11,0,0,0-2.22,0v30.832Z" transform="translate(-294.501 -152.324)" fill="#cb7c52"/>
        <path id="Trazado_701144" data-name="Trazado 701144" d="M341.96,195.394a.491.491,0,0,1-.489.489h-2.135a.491.491,0,0,1-.489-.489v-3.3a.491.491,0,0,1,.489-.489h2.135a.491.491,0,0,1,.489.489Z" transform="translate(-289.143 -173.138)" fill="#ffcfab"/>
        <path id="Trazado_701145" data-name="Trazado 701145" d="M86.706,217.336a1.261,1.261,0,0,1-1.257,1.257H83.814a1.261,1.261,0,0,1-1.257-1.257v-4.649a1.261,1.261,0,0,1,1.257-1.257h1.634a1.261,1.261,0,0,1,1.257,1.257v4.649Z" transform="translate(-57.554 -191.054)" fill="#ffbb4a"/>
        <g id="Grupo_991109" data-name="Grupo 991109" transform="translate(25.003 20.376)" opacity="0.1">
          <path id="Trazado_701146" data-name="Trazado 701146" d="M84.162,217.336v-4.649a1.261,1.261,0,0,1,1.257-1.257h-1.6a1.261,1.261,0,0,0-1.257,1.257v4.649a1.261,1.261,0,0,0,1.257,1.257h1.6A1.261,1.261,0,0,1,84.162,217.336Z" transform="translate(-82.557 -211.43)"/>
        </g>
        <path id="Trazado_701147" data-name="Trazado 701147" d="M63.85,498.446H19.588a.723.723,0,1,1,0-1.446H63.85a.723.723,0,1,1,0,1.446Z" transform="translate(0 -449.102)" fill="#78a7af"/>
        <g id="Grupo_991110" data-name="Grupo 991110" transform="translate(22.313 14.478)">
          <path id="Trazado_701148" data-name="Trazado 701148" d="M122.01,314.585h-4.337a.723.723,0,1,1,0-1.446h4.337a.723.723,0,1,1,0,1.446Z" transform="translate(-110.945 -297.438)" fill="#08375e"/>
          <path id="Trazado_701149" data-name="Trazado 701149" d="M129.2,339.959h-3.447a.723.723,0,0,1,0-1.446H129.2a.723.723,0,0,1,0,1.446Z" transform="translate(-118.245 -320.367)" fill="#08375e"/>
          <path id="Trazado_701150" data-name="Trazado 701150" d="M59.475,151.671H55.36a.723.723,0,0,1,0-1.446h4.115a.723.723,0,0,1,0,1.446Z" transform="translate(-54.637 -150.225)" fill="#08375e"/>
          <path id="Trazado_701151" data-name="Trazado 701151" d="M71.987,178.2h-2.78a.723.723,0,0,1,0-1.446h2.78a.723.723,0,0,1,0,1.446Z" transform="translate(-67.15 -174.195)" fill="#08375e"/>
        </g>
        <path id="Trazado_701152" data-name="Trazado 701152" d="M153.141,4.665h-4.306V4.15A4.151,4.151,0,0,0,144.683,0h-2.4a4.151,4.151,0,0,0-4.152,4.15v.515a.723.723,0,1,0,0,1.446h15.013a.723.723,0,1,0,0-1.446Z" transform="translate(-107.116)" fill="#e23c38"/>
        <path id="Trazado_701153" data-name="Trazado 701153" d="M139,5.388a.723.723,0,0,1,.723-.723V4.15A4.151,4.151,0,0,1,143.878,0h-1.6a4.151,4.151,0,0,0-4.152,4.15v.515a.723.723,0,1,0,0,1.446h1.6A.723.723,0,0,1,139,5.388Z" transform="translate(-107.115)" opacity="0.1"/>
      </g>
    </g>
  </g>
</svg>
