<svg xmlns="http://www.w3.org/2000/svg" width="67.969" height="67.969" viewBox="0 0 67.969 67.969">
  <g id="Grupo_1005937" data-name="Grupo 1005937" transform="translate(-687.448 -1874.936)">
    <circle id="Elipse_5223" data-name="Elipse 5223" cx="33.984" cy="33.984" r="33.984" transform="translate(687.448 1874.936)" fill="#0098e8"/>
    <path id="Trazado_701125" data-name="Trazado 701125" d="M6.975,5.053H34.02A7,7,0,0,1,41,12.028V39.073a7,7,0,0,1-6.975,6.975H6.975A7,7,0,0,1,0,39.073V12.028A7,7,0,0,1,6.975,5.053" transform="translate(700.934 1883.869)" fill="#1f4168" fill-rule="evenodd"/>
    <g id="reconocimiento-de-voz" transform="translate(702.934 1895.379)">
      <path id="Trazado_701204" data-name="Trazado 701204" d="M197.059,27.423a8.133,8.133,0,0,0,.028,1.519,16.272,16.272,0,0,0,.5,2.7c.128.458,1.067,3.139,1.262,3.564a11.729,11.729,0,0,1,.648,1.257l-10.217.028v-.006c-.067-.223-1.425-4.972-2.788-5.642-.346.134-.726.313-1.112.5a13.2,13.2,0,0,1-2.436,1.095.985.985,0,0,1-.938-.257,1.481,1.481,0,0,1-.369-.625,2.262,2.262,0,0,1-.117-.983,3.076,3.076,0,0,0,.095-1.056c-.106-.452-.061-.558-.369-.8-.134-.106.447-.536,1.413-.911a.5.5,0,0,0-.073-.961,15.944,15.944,0,0,1-2.234-.575c-.173-.162.073-.436.3-.955a1.3,1.3,0,0,0,.078-.715c-.084-.475-.749-.654-1.072-.916-.156-.129-.4-.313-.43-.536-.045-.318.3-.76.464-.983a12.691,12.691,0,0,0,1.816-2.564.88.88,0,0,0,.112-.391c-.006-.631-.849-.9-.927-1.508a1.233,1.233,0,0,1,.084-.531,13.577,13.577,0,0,0,.6-1.676,13.384,13.384,0,0,1,.391-1.547,8.082,8.082,0,0,1,1.547-2.748,6.962,6.962,0,0,1,3.86-2.017,26.367,26.367,0,0,1,3.536-.581c.117-.006.229-.017.346-.022a9.087,9.087,0,0,1,6.687,2.536,6.9,6.9,0,0,1,2.29,3.58,13.952,13.952,0,0,1,.413,3.637,6.868,6.868,0,0,1-.542,2.625Zm0,0" transform="translate(-167.492 -7.984)" fill="#bfa885"/>
      <path id="Trazado_701205" data-name="Trazado 701205" d="M195.382,27.946a8.109,8.109,0,0,0,.028,1.519,16.279,16.279,0,0,0,.5,2.7c.129.458,1.067,3.139,1.262,3.564a11.623,11.623,0,0,1,.648,1.257l-8.541.022c-.067-.223-1.425-4.972-2.788-5.642-.346.134-.726.313-1.112.5a1.812,1.812,0,0,0-.564-.5c-.883.335-1.944.967-2.81,1.335a1.482,1.482,0,0,1-.369-.625,2.262,2.262,0,0,1-.117-.983,3.076,3.076,0,0,0,.095-1.056c-.106-.452-.061-.558-.369-.8-.134-.106.447-.536,1.413-.911a.5.5,0,0,0-.073-.961,15.943,15.943,0,0,1-2.234-.575c-.173-.162.073-.436.3-.955a1.3,1.3,0,0,0,.078-.715c-.084-.475-.748-.654-1.072-.916-.156-.129-.4-.313-.43-.536-.045-.318.3-.76.464-.983a12.692,12.692,0,0,0,1.816-2.564.881.881,0,0,0,.112-.391c-.006-.631-.849-.9-.927-1.508a1.233,1.233,0,0,1,.084-.531,13.572,13.572,0,0,0,.6-1.676,13.384,13.384,0,0,1,.391-1.547,8.082,8.082,0,0,1,1.547-2.748,6.963,6.963,0,0,1,3.86-2.017,26.366,26.366,0,0,1,3.536-.581,9.533,9.533,0,0,1,5.357,2.514,6.9,6.9,0,0,1,2.29,3.581,13.954,13.954,0,0,1,.413,3.637,6.872,6.872,0,0,1-.542,2.625Zm0,0" transform="translate(-167.491 -8.507)" fill="#ffe0b2"/>
      <path id="Trazado_701206" data-name="Trazado 701206" d="M375.791,166.594a4.469,4.469,0,0,1-4.469,4.469,4.583,4.583,0,0,1-.838-.078,4.469,4.469,0,0,1,0-8.781,4.562,4.562,0,0,1,.838-.078A4.469,4.469,0,0,1,375.791,166.594Zm0,0" transform="translate(-342.833 -151.496)" fill="#558b30"/>
      <path id="Trazado_701207" data-name="Trazado 701207" d="M374.2,167.711c0-2.425-1.626-4.391-3.631-4.391s-3.631,1.966-3.631,4.391,1.626,4.391,3.631,4.391S374.2,170.136,374.2,167.711Zm0,0" transform="translate(-342.913 -152.613)" fill="#8bc34a"/>
      <path id="Trazado_701208" data-name="Trazado 701208" d="M192.684,6.567A7.507,7.507,0,0,0,190.216,2.7a9.566,9.566,0,0,0-7.08-2.669,25,25,0,0,0-3.97.614A7.43,7.43,0,0,0,175,2.843a8.565,8.565,0,0,0-1.656,2.935,13.48,13.48,0,0,0-.4,1.555l-.012.059a5.809,5.809,0,0,1-.343.991c-.085.2-.168.408-.243.622a1.735,1.735,0,0,0-.108.779,1.8,1.8,0,0,0,.623,1.042c.154.154.3.3.3.4a1.092,1.092,0,0,1-.06.147,7.021,7.021,0,0,1-1.117,1.665c-.2.238-.408.492-.656.823a1.992,1.992,0,0,0-.555,1.365,1.456,1.456,0,0,0,.632.9,3.047,3.047,0,0,0,.447.283,1.561,1.561,0,0,1,.425.29.745.745,0,0,1-.039.4c-.06.137-.122.255-.175.357-.161.309-.43.826,0,1.229.126.118.228.213,2.319.674-1.01.411-1.553.825-1.614,1.232a.66.66,0,0,0,.229.575c.056.044.076.066.077.066a1.574,1.574,0,0,1,.038.168c.014.073.031.156.056.254a1.287,1.287,0,0,1-.043.491c-.025.125-.049.25-.061.363a2.794,2.794,0,0,0,.138,1.229,1.7,1.7,0,0,0,1.595,1.3A1.682,1.682,0,0,0,175.17,25a10.093,10.093,0,0,0,2.1-.894c.428-.218.865-.439,1.265-.61.789.694,1.8,3.352,2.314,5.167a.559.559,0,0,0,.539.4l10.217-.028a.559.559,0,0,0,.536-.709,3.588,3.588,0,0,0-.422-.871,4.174,4.174,0,0,1-.257-.469c-.176-.383-1.107-3.037-1.233-3.485a15.459,15.459,0,0,1-.478-2.606,7.541,7.541,0,0,1-.038-1.045,5.007,5.007,0,0,0,2.909-6.913,7.377,7.377,0,0,0,.5-2.588,14.449,14.449,0,0,0-.431-3.783Zm-4.6,12.442A3.91,3.91,0,1,1,192,15.1,3.911,3.911,0,0,1,188.087,19.009Zm0-8.938a5.028,5.028,0,1,0,0,10.055c.168,0,.335-.009.5-.025a8.758,8.758,0,0,0,.05.919,16.607,16.607,0,0,0,.514,2.787c.126.447,1.078,3.18,1.288,3.636a4.28,4.28,0,0,0,.254.479l-8.893.025a17.32,17.32,0,0,0-2.166-4.882l.229-.087c.29-.112.508-.194.622-.232,1.809-.622,2.713-1.522,2.689-2.674a.559.559,0,0,0-.558-.547h-.012a.559.559,0,0,0-.546.57c.009.42-.319,1.038-1.934,1.593-.118.041-.35.128-.658.246s-.662.252-1.065.4h0a17.8,17.8,0,0,0-1.638.768,9.694,9.694,0,0,1-1.832.8c-.4.089-.581-.279-.654-.509a1.705,1.705,0,0,1-.094-.751c.01-.093.03-.186.048-.279a2.2,2.2,0,0,0,.036-.966c-.019-.084-.034-.155-.046-.217a1.837,1.837,0,0,0-.125-.43,5.964,5.964,0,0,1,.874-.413,1.061,1.061,0,0,0-.155-2.028c-.9-.2-1.422-.325-1.713-.4.056-.106.112-.223.171-.353a1.861,1.861,0,0,0,.119-1.041,1.638,1.638,0,0,0-.988-1.08,2.247,2.247,0,0,1-.32-.2,1.882,1.882,0,0,1-.185-.167,2.286,2.286,0,0,1,.348-.555c.219-.292.42-.533.607-.758a7.988,7.988,0,0,0,1.275-1.921,1.323,1.323,0,0,0,.158-.617,1.685,1.685,0,0,0-.627-1.18c-.143-.143-.291-.292-.3-.391a.845.845,0,0,1,.056-.279c.065-.188.142-.372.218-.558a6.615,6.615,0,0,0,.4-1.187l.012-.056a12.4,12.4,0,0,1,.362-1.427,7.48,7.48,0,0,1,1.44-2.56A6.36,6.36,0,0,1,179.4,1.737a24.084,24.084,0,0,1,3.795-.591,8.525,8.525,0,0,1,6.293,2.4,6.321,6.321,0,0,1,2.112,3.3,13.3,13.3,0,0,1,.4,3.5,6.4,6.4,0,0,1-.174,1.408,5.01,5.01,0,0,0-3.736-1.676Zm0,0" transform="translate(-159.598)"/>
      <path id="Trazado_701209" data-name="Trazado 701209" d="M.559,243.949H1.676a.558.558,0,0,0,.537-.4l.544-1.905,1.17,4.68a.559.559,0,0,0,.521.423h.021a.559.559,0,0,0,.53-.382l.756-2.268.484.726a.559.559,0,0,0,1.011-.189l.542-2.444.6,2.993a.559.559,0,0,0,1.012.2l.951-1.43h1.377a.559.559,0,1,0,0-1.117H10.055a.558.558,0,0,0-.465.249l-.369.554-.853-4.266a.558.558,0,0,0-.541-.447H7.82a.558.558,0,0,0-.546.437l-.833,3.752-.391-.587a.559.559,0,0,0-.994.133l-.51,1.532-1.211-4.845a.559.559,0,0,0-.532-.423.549.549,0,0,0-.547.4l-1,3.505h-.7a.559.559,0,1,0,0,1.117Zm0,0" transform="translate(0 -223.265)" fill="#e1f3fc"/>
      <path id="Trazado_701210" data-name="Trazado 701210" d="M404.655,205.005l-1.843,2.306-.676-.676a.559.559,0,0,0-.79.79l1.117,1.117a.557.557,0,0,0,.394.164h.031a.559.559,0,0,0,.405-.209l2.234-2.793a.559.559,0,1,0-.872-.7Zm0,0" transform="translate(-374.926 -191.373)"/>
    </g>
  </g>
</svg>
