<svg xmlns="http://www.w3.org/2000/svg" xmlns:xlink="http://www.w3.org/1999/xlink" width="67.969" height="67.969" viewBox="0 0 67.969 67.969">
  <defs>
    <clipPath id="clip-path">
      <path id="Trazado_701169" data-name="Trazado 701169" d="M5.96,5.053H29.069a5.978,5.978,0,0,1,5.96,5.96V34.122a5.978,5.978,0,0,1-5.96,5.96H5.96A5.977,5.977,0,0,1,0,34.122V11.013a5.978,5.978,0,0,1,5.96-5.96" transform="translate(403.233 1838.5)" fill="#1f4168" clip-rule="evenodd"/>
    </clipPath>
  </defs>
  <g id="Grupo_1005934" data-name="Grupo 1005934" transform="translate(-390 -1799.291)">
    <circle id="Elipse_5223" data-name="Elipse 5223" cx="33.984" cy="33.984" r="33.984" transform="translate(390 1799.291)" fill="#0098e8"/>
    <path id="Trazado_701119" data-name="Trazado 701119" d="M6.975,5.053H34.02A7,7,0,0,1,41,12.028V39.073a7,7,0,0,1-6.975,6.975H6.975A7,7,0,0,1,0,39.073V12.028A7,7,0,0,1,6.975,5.053" transform="translate(403.233 1808.5)" fill="#1f4168" fill-rule="evenodd"/>
    <g id="oido" transform="translate(407.641 1816.536)">
      <path id="Trazado_701155" data-name="Trazado 701155" d="M157.477,22.867s-2.519-6.312.209-10.817c2.633-4.347,7.774-5.627,13.232-3.678s7.614,8.7,5.972,12.643c-2.284,5.488-8.332,8.586-9.1,12.762-.94,5.113-5.9,7.534-8.9,6.306-2.775-1.137-5.321-4.188-2.548-9.783C158.614,25.73,157.477,22.867,157.477,22.867Z" transform="translate(-145.74 -6.989)" fill="#ffc89f"/>
      <g id="Grupo_991111" data-name="Grupo 991111" transform="translate(9.898 3.833)">
        <path id="Trazado_701156" data-name="Trazado 701156" d="M181.452,57.879a9.938,9.938,0,0,1,.989,8.4c-2.284,5.488-8.332,8.586-9.1,12.762-.94,5.113-5.9,7.534-8.9,6.306a6.672,6.672,0,0,1-1.937-1.2,5.98,5.98,0,0,0,3.258,2.994c3,1.228,7.956-1.192,8.9-6.306.767-4.176,6.815-7.274,9.1-12.762C184.965,65.184,184.13,60.79,181.452,57.879Z" transform="translate(-162.51 -57.879)" fill="#dfc49c"/>
        <path id="Trazado_701157" data-name="Trazado 701157" d="M240.014,73.273s1.983-4.21,6.458-4.21a6.838,6.838,0,0,1,6.154,3.6c.231-4.873-5.786-7.7-9.977-5.226-2.279,1.345-2.713,3.839-2.635,5.835" transform="translate(-234.873 -65.954)" fill="#f7b081"/>
        <path id="Trazado_701158" data-name="Trazado 701158" d="M234.642,149.763c-.254-4.008-4.378-6.972-9.43-3.451l.491,3s2.521-.15,2.637,1.969c.11,2.014-2.637,2.187-2.637,2.187l-.127-.078a7.926,7.926,0,0,1-1,2.878s-1.544,4.546,1.287,4.718,1.909-3.507,3.538-4.707S234.834,152.789,234.642,149.763Z" transform="translate(-220.071 -138.991)" fill="#dfc49c"/>
      </g>
      <path id="Trazado_701159" data-name="Trazado 701159" d="M249.474,150.806a3.559,3.559,0,0,0,.09-1.044c-.254-4.008-4.378-6.972-9.43-3.451l.261,1.594C245.019,144.867,248.811,147.251,249.474,150.806Z" transform="translate(-225.095 -135.158)" fill="#e09c77"/>
      <path id="Trazado_701160" data-name="Trazado 701160" d="M159.673,173.692a.5.5,0,0,0-.69.124,7.423,7.423,0,0,1-3.415,2.7,4.9,4.9,0,0,1-3.521.112,5.476,5.476,0,0,1-3.111-3.019c-.63-1.669-.354-3.717.82-6.085,2.337-4.714,1.2-7.711,1.145-7.837a17.161,17.161,0,0,1-1.013-5.006.5.5,0,0,0-.991.041,17.854,17.854,0,0,0,1.083,5.331c.011.027,1.03,2.708-1.113,7.03-1.3,2.625-1.59,4.938-.859,6.875a6.374,6.374,0,0,0,3.663,3.587,4.947,4.947,0,0,0,1.882.355,7.98,7.98,0,0,0,6.244-3.521A.5.5,0,0,0,159.673,173.692Z" transform="translate(-138.704 -143.996)"/>
      <path id="Trazado_701161" data-name="Trazado 701161" d="M188.618,6.55A10.211,10.211,0,0,0,182.771.916,13.392,13.392,0,0,0,174.8.382,9.681,9.681,0,0,0,168.948,4.8a9.541,9.541,0,0,0-1.28,4.049.5.5,0,1,0,.987.1A8.56,8.56,0,0,1,169.8,5.318c2.452-4.048,7.3-5.377,12.641-3.468a9.231,9.231,0,0,1,5.273,5.1,9.117,9.117,0,0,1,.408,6.884,22.308,22.308,0,0,1-4.9,6.594c-1.961,2.052-3.813,3.991-4.231,6.269a8.233,8.233,0,0,1-.509,1.711.5.5,0,1,0,.914.386,9.23,9.23,0,0,0,.57-1.917c.365-1.987,2.037-3.737,3.973-5.763a23.408,23.408,0,0,0,5.1-6.9A10.13,10.13,0,0,0,188.618,6.55Z" transform="translate(-157.426 0)"/>
      <path id="Trazado_701162" data-name="Trazado 701162" d="M282.885,66.207h.024a.5.5,0,0,0,.495-.472,6.059,6.059,0,0,0-3.107-5.561,7.527,7.527,0,0,0-7.617-.115.5.5,0,1,0,.5.854,6.523,6.523,0,0,1,6.6.111,5.1,5.1,0,0,1,2.629,4.665A.5.5,0,0,0,282.885,66.207Z" transform="translate(-255.258 -55.168)"/>
      <path id="Trazado_701163" data-name="Trazado 701163" d="M234.708,89.385a.5.5,0,0,0-.7.061,7.3,7.3,0,0,0-1.455,5.056c0,.016,0,.032,0,.048,0,.064,0,.127.008.192a12.823,12.823,0,0,0,.5,2.917l0,.006a.5.5,0,0,0,.029.069l0,0a.5.5,0,0,0,.042.066h0a.5.5,0,0,0,.052.058l0,0a.5.5,0,0,0,.205.117h0a.494.494,0,0,0,.078.016h0a.492.492,0,0,0,.079,0h0a3.164,3.164,0,0,1,1.1.171,1.393,1.393,0,0,1,1.009,1.331c.082,1.5-2.082,1.659-2.174,1.665a.5.5,0,0,0,.032.991h.032c1.12-.071,3.209-.728,3.1-2.709a2.347,2.347,0,0,0-.772-1.691,3.344,3.344,0,0,0-1.937-.737l-.374-2.279c2.788-1.832,4.815-1.339,5.789-.869a4.844,4.844,0,0,1,2.605,4.119,4.66,4.66,0,0,1-1.767,3.533.5.5,0,1,0,.693.709c1.48-1.448,2.155-2.856,2.063-4.3a5.836,5.836,0,0,0-3.164-4.95c-1.1-.532-3.315-1.1-6.259.619a5.85,5.85,0,0,1,1.217-3.516A.5.5,0,0,0,234.708,89.385Z" transform="translate(-218.01 -83.357)"/>
      <path id="Trazado_701164" data-name="Trazado 701164" d="M217.072,290.523c-.1.3-.971,2.985.02,4.46a2.115,2.115,0,0,0,1.706.912c.077,0,.151.007.224.007,1.9,0,2.335-1.57,2.685-2.84a3.583,3.583,0,0,1,.954-1.97c.179-.132.391-.281.615-.439.443-.313.945-.667,1.463-1.072a.5.5,0,1,0-.611-.781c-.5.39-.991.737-1.424,1.043-.228.161-.444.313-.631.451a4.3,4.3,0,0,0-1.322,2.505c-.384,1.4-.661,2.181-1.893,2.106a1.119,1.119,0,0,1-.942-.475c-.61-.908-.139-2.9.095-3.589a.5.5,0,1,0-.939-.319Z" transform="translate(-203.14 -269.575)"/>
      <path id="Trazado_701165" data-name="Trazado 701165" d="M13.185,207.185a.5.5,0,0,0,.019.7,4.237,4.237,0,0,1,0,5.538.5.5,0,1,0,.683.719,5.213,5.213,0,0,0,0-6.977A.5.5,0,0,0,13.185,207.185Z" transform="translate(-13.048 -193.32)" fill="#4db1f0"/>
      <path id="Trazado_701166" data-name="Trazado 701166" d="M50.464,174.287a.5.5,0,1,0-.683.719,7.524,7.524,0,0,1,0,9.893.5.5,0,1,0,.683.719,8.5,8.5,0,0,0,0-11.332Z" transform="translate(-47.205 -162.618)" fill="#4db1f0"/>
      <path id="Trazado_701167" data-name="Trazado 701167" d="M89.044,144.423a.5.5,0,0,0-.683.72,10.51,10.51,0,0,1,0,13.849.5.5,0,1,0,.683.719,11.486,11.486,0,0,0,0-15.288Z" transform="translate(-83.23 -134.731)" fill="#4db1f0"/>
    </g>
  </g>
</svg>
