<svg xmlns="http://www.w3.org/2000/svg" xmlns:xlink="http://www.w3.org/1999/xlink" width="372" height="465" viewBox="0 0 372 465">
  <defs>
    <clipPath id="clip-path">
      <rect id="Rectángulo_345285" data-name="Rectángulo 345285" width="372" height="465" fill="#fff" stroke="#707070" stroke-width="1"/>
    </clipPath>
    <clipPath id="clip-path-2">
      <rect id="Rectángulo_345284" data-name="Rectángulo 345284" width="343.391" height="780.065" fill="none"/>
    </clipPath>
  </defs>
  <g id="Enmascarar_grupo_927363" data-name="Enmascarar grupo 927363" clip-path="url(#clip-path)">
    <g id="Grupo_991105" data-name="Grupo 991105" transform="translate(-12 0.387)">
      <g id="Grupo_991104" data-name="Grupo 991104" clip-path="url(#clip-path-2)">
        <path id="Trazado_701027" data-name="Trazado 701027" d="M174.369,95.958c-5.761,15.333-11.557,30.557-17.444,45.818s-11.829,30.472-18.134,45.833c-.77,1.909-1.615,3.867-2.424,5.8l-1.228,2.912-1.319,3-1.338,3.023-1.6,3.358-.4.838-.2.418-.407.746c-.548.988-1.136,2-1.728,2.925q-.819,1.172-1.682,2.32l-.431.572c-.144.185-.27.324-.407.49l-.814.945a61.589,61.589,0,0,1-6.285,6.216c-.995.82-2.007,1.687-2.993,2.455l-1.476,1.134c-.494.381-.986.755-1.469,1.1-3.9,2.849-7.722,5.31-11.535,7.624-7.617,4.607-15.191,8.588-22.813,12.369q-5.713,2.824-11.465,5.467c-1.922.879-3.844,1.754-5.781,2.612l-2.919,1.282-3.038,1.3a17.459,17.459,0,0,1-14.645-31.684l.411-.2,2.507-1.236,2.6-1.308c1.739-.879,3.476-1.78,5.208-2.686q5.194-2.726,10.288-5.576c6.766-3.8,13.4-7.763,19.5-11.9,3.038-2.065,5.946-4.181,8.508-6.275.335-.261.638-.522.934-.781l.9-.773c.594-.514,1.09-1.01,1.645-1.506a21.376,21.376,0,0,0,2.246-2.488l.168-.222a1,1,0,0,0,.078-.1l.009-.048a.39.39,0,0,1,.087-.165.747.747,0,0,0-.215.276.714.714,0,0,0-.033.083l.111-.276.224-.553.9-2.2.995-2.616,1-2.64,1-2.766c.666-1.854,1.341-3.667,2-5.567,5.282-15.037,10.39-30.424,15.431-45.8s10.027-30.848,14.919-46.249l.011-.033a22.516,22.516,0,1,1,42.917,13.64c-.111.346-.255.762-.381,1.1" transform="translate(36.103 77.075)" fill="#e38c67"/>
        <path id="Trazado_701028" data-name="Trazado 701028" d="M72.973,126.869a.989.989,0,0,1-.52-.148c-3.21-1.987-10.841-2.488-10.919-2.492a.99.99,0,0,1,.124-1.976c.333.022,8.205.538,11.837,2.786a.989.989,0,0,1-.522,1.83" transform="translate(71.299 143.817)" fill="#af5f48"/>
        <path id="Trazado_701029" data-name="Trazado 701029" d="M63.306,125.819A.989.989,0,0,1,62.768,124a17.007,17.007,0,0,1,7.478-2.747.99.99,0,0,1,.122,1.976,15.343,15.343,0,0,0-6.529,2.435.975.975,0,0,1-.533.157" transform="translate(73.307 142.638)" fill="#af5f48"/>
        <path id="Trazado_701030" data-name="Trazado 701030" d="M44.722,136.329s17.1,4.936,27.325,27.471c-2.882,3.935-6.566,5.106-10.786,5.258,0,0-18.264-22.761-27.851-25.793,0,0,.218-6.449,11.313-6.936" transform="translate(39.303 160.378)" fill="#1f2930"/>
        <path id="Trazado_701031" data-name="Trazado 701031" d="M56.159,224.568a13.932,13.932,0,0,1-8.368-2.838c-14.366-10.5-17.35-46.943-17.468-48.49l2.433-.189c.026.368,3.014,36.868,16.475,46.71a11.463,11.463,0,0,0,9.887,2.009c11.35-2.666,12.7-22.339,11.835-38.372a244.054,244.054,0,0,0-4.869-35.275l2.383-.538c.651,2.89,15.67,70.818-8.793,76.562a15.257,15.257,0,0,1-3.517.422" transform="translate(35.672 173.619)" fill="#1f2930"/>
        <path id="Trazado_701032" data-name="Trazado 701032" d="M8.789,586.1a4.307,4.307,0,0,1-.6-.041,4.451,4.451,0,0,1-3.82-5L61.386,156.138a4.451,4.451,0,1,1,8.823,1.184L13.2,582.235A4.453,4.453,0,0,1,8.789,586.1" transform="translate(5.095 179.139)" fill="#b6a99d"/>
        <path id="Trazado_701033" data-name="Trazado 701033" d="M25.373,157.517l.048.028,33.547,20.482a10.433,10.433,0,0,0,10.921-17.779l-.048-.03-33.547-20.48a10.433,10.433,0,0,0-10.921,17.779" transform="translate(24.025 162.589)" fill="#1f2930"/>
        <path id="Trazado_701034" data-name="Trazado 701034" d="M49.5,146.311s6.544,5.563,5.744,9.631,2.681,11.354-1.641,10.965-6.155-6.653-6.629-8.658-7.43-4.59-6.884-8.244,9.411-3.693,9.411-3.693" transform="translate(47.129 172.121)" fill="#e38c67"/>
        <path id="Trazado_701035" data-name="Trazado 701035" d="M20.84,159.383a12.552,12.552,0,0,0,2.538,3.952l0,0a34.489,34.489,0,0,0,2.814,2.879c.879.816,1.841,1.634,2.864,2.425.781.609,1.6,1.206,2.438,1.769.017.009.026.022.039.028a37.162,37.162,0,0,0,5.165,2.94,25.339,25.339,0,0,0,2.42.986l.131.048,0,0A16.371,16.371,0,0,0,53.8,176.507l-4.631-2.86c1.948-1.889,3.543-5.2,5.393-8.834,2.638-5.176,10.625-4.274,10.625-4.274s5.691,3.286,11.13.942c0,0-7.378-12.519-18.985-17.773-13.818-6.255-21.174-9.783-26.763-2.842-4.906,6.094-11.243,13.587-9.726,18.517" transform="translate(24.247 161.241)" fill="#e38c67"/>
        <path id="Trazado_701036" data-name="Trazado 701036" d="M32.308,153.9a.727.727,0,0,0,.248.986l.015.009a8.612,8.612,0,0,0,5,.942.765.765,0,0,0,.3-.115L35.7,154.38a6.07,6.07,0,0,1-2.4-.744.724.724,0,0,0-.992.259" transform="translate(37.89 180.621)" fill="#af5f48"/>
        <path id="Trazado_701037" data-name="Trazado 701037" d="M28.284,156.7a4.137,4.137,0,0,0-.144,3.186,25.343,25.343,0,0,0,2.42.986.774.774,0,0,0-.118-.124,2.968,2.968,0,0,1-.836-3.447,60.674,60.674,0,0,1,4.655-7.613.727.727,0,1,0-1.18-.849,59.208,59.208,0,0,0-4.8,7.861" transform="translate(32.808 174.735)" fill="#af5f48"/>
        <path id="Trazado_701038" data-name="Trazado 701038" d="M24.878,155.69a4.168,4.168,0,0,0-.372,2.2c.781.607,1.6,1.2,2.438,1.767a2.917,2.917,0,0,1-.738-3.365c1.371-3.025,5.646-8.871,5.691-8.93a.73.73,0,0,0-1.177-.864c-.174.246-4.407,6.029-5.841,9.191" transform="translate(28.801 171.992)" fill="#af5f48"/>
        <path id="Trazado_701039" data-name="Trazado 701039" d="M22.279,152.72a4.269,4.269,0,0,0-.4,1.843l0,0a34.789,34.789,0,0,0,2.812,2.879.719.719,0,0,0-.255-.677,2.968,2.968,0,0,1-.84-3.452,68.865,68.865,0,0,1,4.51-7.659.726.726,0,1,0-1.2-.816,67.909,67.909,0,0,0-4.634,7.879" transform="translate(25.743 170.013)" fill="#af5f48"/>
        <rect id="Rectángulo_345283" data-name="Rectángulo 345283" width="30.116" height="23.2" transform="translate(-0.001 776.979) rotate(-82.356)" fill="#6e6663"/>
        <path id="Trazado_701040" data-name="Trazado 701040" d="M109.785,29.778a63,63,0,0,0,1.652,6.749l6.721,16.959,9.45,23.853s9.158,10.987,15.755,10.112c4.068-.542,5.915-4.523,6.729-7.5a19.74,19.74,0,0,0,.614-3.284,10.18,10.18,0,0,0,1.171,1.293c1.867,1.772,5.783,4.34,10.46.779,6.564-5,2.348-17.342,2.348-17.342s6.692,3.756,12.884-.159.353-20.693.353-20.693,4.329,1.489,6.366-6.525-6.555-10.484-6.555-10.484,8.229-11.933-.322-18.027-21.947,1.878-21.947,1.878a16.851,16.851,0,0,0-14.4-7.385c-9.772.261-13.252,16.565-13.252,16.565s-5.465-7.844-14.327-4.605c-5.587,2.041-4.943,11.267-3.7,17.812" transform="translate(128.153 0)" fill="#1f2930"/>
        <path id="Trazado_701041" data-name="Trazado 701041" d="M109.326,13.78a63,63,0,0,0,1.652,6.749L117.7,37.488c11,15.692,22.432,21.773,27.053,23.977a4.062,4.062,0,0,1,1.28.973,19.847,19.847,0,0,0,4.092-7.883c2.176-8.44,2.932-18.541-6.529-30.061-10.107-12.305-28.742-11-34.268-10.714" transform="translate(128.612 15.997)" fill="#ba6c25"/>
        <path id="Trazado_701042" data-name="Trazado 701042" d="M159.009,316.575l7.163,24.735c-8.636,7.263-17.141,6.392-25.61,3.4l-8.682-23.747Z" transform="translate(155.145 372.421)" fill="#e38c67"/>
        <path id="Trazado_701043" data-name="Trazado 701043" d="M190.69,354.779l-3.38,5.9-1.125,1.974-15.392,26.9a12.608,12.608,0,0,1-11.084,6.344c-8.24-.091-21.749-.2-32.006-.05-2.451.035-3.432-1.286-3.43-3.31.017-5.648,7.774-16.789,12.889-19.176,0,0,8.471-29.791,5.537-36.72-5.014-11.837,2.355-12.443,9.528-8.827,3.654,1.837,4.625,4.562,7.334,4.6,4.248.052,13.631-4.277,13.631-4.277s3.426-4.59,4.542-.063a34.238,34.238,0,0,0,1.891,4.766c.459,1.018.982,2.128,1.543,3.3,2.57,5.358,5.942,11.853,7.907,15.592.986,1.87,1.615,3.051,1.615,3.051" transform="translate(146.196 383.352)" fill="#ba6c25"/>
        <path id="Trazado_701044" data-name="Trazado 701044" d="M158.291,356.914l-1.127,1.972c-5.837-4.19-8.647-11.039-8.17-20.051a47.923,47.923,0,0,1,1.613-9.763c.459,1.016.982,2.129,1.543,3.3a43,43,0,0,0-.9,6.638c-.418,8.162,1.946,14.164,7.038,17.908" transform="translate(175.215 387.121)" fill="#9e4f13"/>
        <path id="Trazado_701045" data-name="Trazado 701045" d="M190.69,340.8l-19.9,34.777a12.608,12.608,0,0,1-11.084,6.344c-8.24-.091-21.749-.2-32.006-.05-2.451.035-3.432-1.286-3.43-3.31l35.251-.118a10.509,10.509,0,0,0,9.069-5.254l20.482-35.441c.986,1.87,1.615,3.051,1.615,3.051" transform="translate(146.196 397.33)" fill="#9e4f13"/>
        <path id="Trazado_701046" data-name="Trazado 701046" d="M142.42,336.853a1.941,1.941,0,0,0,1.571-1.652,1.634,1.634,0,0,0-1.863-1.58l-7.637.266a2.03,2.03,0,0,0-2.048,1.715,1.637,1.637,0,0,0,1.865,1.58l7.637-.266a2.291,2.291,0,0,0,.474-.063" transform="translate(155.804 392.472)" fill="#9e4f13"/>
        <path id="Trazado_701047" data-name="Trazado 701047" d="M139.927,348.291a1.941,1.941,0,0,0,1.571-1.652,1.634,1.634,0,0,0-1.863-1.58l-7.637.266a2.03,2.03,0,0,0-2.048,1.715,1.637,1.637,0,0,0,1.865,1.58l7.637-.266a2.276,2.276,0,0,0,.474-.063" transform="translate(152.872 405.928)" fill="#9e4f13"/>
        <path id="Trazado_701048" data-name="Trazado 701048" d="M140.745,345.223a1.946,1.946,0,0,0,1.571-1.652,1.634,1.634,0,0,0-1.863-1.58l-7.637.266a2.03,2.03,0,0,0-2.048,1.715,1.636,1.636,0,0,0,1.863,1.58l7.639-.263a2.446,2.446,0,0,0,.474-.065" transform="translate(153.834 402.319)" fill="#9e4f13"/>
        <path id="Trazado_701049" data-name="Trazado 701049" d="M141.3,342.452a1.941,1.941,0,0,0,1.571-1.652,1.634,1.634,0,0,0-1.863-1.58l-7.637.263a2.034,2.034,0,0,0-2.048,1.717,1.637,1.637,0,0,0,1.865,1.58l7.637-.266a2.288,2.288,0,0,0,.474-.063" transform="translate(154.488 399.059)" fill="#9e4f13"/>
        <path id="Trazado_701050" data-name="Trazado 701050" d="M141.858,339.681a1.946,1.946,0,0,0,1.574-1.652,1.636,1.636,0,0,0-1.863-1.58l-7.637.263a2.034,2.034,0,0,0-2.05,1.717,1.637,1.637,0,0,0,1.865,1.58l7.637-.266a2.272,2.272,0,0,0,.474-.063" transform="translate(155.143 395.799)" fill="#9e4f13"/>
        <path id="Trazado_701051" data-name="Trazado 701051" d="M193.768,127.378s37.36,16.423,44.407,65.845,23.253,67.9,12.268,91.043-87.509-3.852-151.454-2.936-49.733-47.572-37.663-67.364,24.735-77.108,44.381-78.7,88.06-7.885,88.06-7.885" transform="translate(59.917 149.848)" fill="#ba6c25"/>
        <path id="Trazado_701052" data-name="Trazado 701052" d="M87.212,324.357l-1.959,35.036-26.424.237-2.318-35.576Z" transform="translate(66.48 381.22)" fill="#e38c67"/>
        <path id="Trazado_701053" data-name="Trazado 701053" d="M29.457,383.12l94.288-.08a13.2,13.2,0,0,0,1.236-5.239c.581-7.974-1.972-20.7-3.223-28.726-.155-.936-.283-1.813-.385-2.605a27.608,27.608,0,0,1-.283-3.275c-.007-6.551-5.8-5.424-5.8-5.424-9.533,9.365-20.349-4.658-26.654-.048,0,0-2.714,1.948-10.194,8.69s-20.206,11.2-31.04,15.74c-13.988,5.861-17.951,11.707-18.721,15.731a7.364,7.364,0,0,0,.779,5.236" transform="translate(33.555 396.171)" fill="#ba6c25"/>
        <path id="Trazado_701054" data-name="Trazado 701054" d="M29.457,360.938l94.288-.08a13.2,13.2,0,0,0,1.236-5.239l-96.3.083a7.364,7.364,0,0,0,.779,5.236" transform="translate(33.555 418.353)" fill="#9e4f13"/>
        <path id="Trazado_701055" data-name="Trazado 701055" d="M70.318,377.8l2.8,0A20.7,20.7,0,0,1,68.037,362.7c.446-9.317,6.031-15.6,9.914-18.878-.155-.936-.283-1.811-.385-2.6-4.183,3.2-11.232,10.214-11.772,21.37A22.881,22.881,0,0,0,70.318,377.8" transform="translate(77.363 401.417)" fill="#9e4f13"/>
        <path id="Trazado_701056" data-name="Trazado 701056" d="M56.22,346.22a1.554,1.554,0,0,0,.37-3.062L50.7,341.7a1.554,1.554,0,1,0-.747,3.017l5.892,1.458a1.571,1.571,0,0,0,.374.046" transform="translate(57.376 401.924)" fill="#9e4f13"/>
        <path id="Trazado_701057" data-name="Trazado 701057" d="M58.711,343.881a1.554,1.554,0,0,0,.37-3.062l-5.892-1.458a1.553,1.553,0,1,0-.744,3.016l5.889,1.458a1.605,1.605,0,0,0,.377.046" transform="translate(60.306 399.172)" fill="#9e4f13"/>
        <path id="Trazado_701058" data-name="Trazado 701058" d="M53.516,347.795a1.554,1.554,0,0,0,.37-3.062l-5.892-1.456a1.553,1.553,0,1,0-.747,3.014l5.892,1.458a1.6,1.6,0,0,0,.377.046" transform="translate(54.195 403.777)" fill="#9e4f13"/>
        <path id="Trazado_701059" data-name="Trazado 701059" d="M50.811,349.31a1.554,1.554,0,0,0,.37-3.062l-5.892-1.458a1.553,1.553,0,1,0-.744,3.016l5.889,1.458a1.609,1.609,0,0,0,.377.046" transform="translate(51.012 405.559)" fill="#9e4f13"/>
        <path id="Trazado_701060" data-name="Trazado 701060" d="M47.861,350.711a1.554,1.554,0,0,0,.37-3.062l-5.892-1.458a1.553,1.553,0,1,0-.744,3.016l5.889,1.458a1.605,1.605,0,0,0,.377.046" transform="translate(47.542 407.207)" fill="#9e4f13"/>
        <path id="Trazado_701061" data-name="Trazado 701061" d="M44.662,351.906a1.554,1.554,0,0,0,.37-3.062l-5.892-1.458A1.554,1.554,0,0,0,38.4,350.4l5.889,1.458a1.6,1.6,0,0,0,.377.046" transform="translate(43.779 408.613)" fill="#9e4f13"/>
        <path id="Trazado_701062" data-name="Trazado 701062" d="M118.291,212.748q2.39.6,4.806,1.153c20.571,4.7,42.164,6.6,57.274,2.99,7.459-1.78,12.229-10.908,15.265-21.107.829-2.784,1.928-5.593,2.115-8.466,1.85-28.339-5.13-40.361-5.13-40.361L81.384,134.548s-3.7,6.81-7.8,15.688a185.786,185.786,0,0,0-8.312,20.728l-.009.017a54.226,54.226,0,0,0-2.472,11.028c-.881,10.1,25.566,23.214,55.5,30.74" transform="translate(73.842 158.283)" fill="#1f2930"/>
        <path id="Trazado_701063" data-name="Trazado 701063" d="M90.8,197.921c2.374,40.148,15.418,115.178,22.8,144.161,6.551,25.723,40.429,113.243,58.391,158.982.255.651.5,1.295.751,1.926.984,2.5,2.4,7.03,3.275,9.235,3.609-.527,7.428-1.151,11.039-1.663,9.354-1.319,17.9-2.394,27.3-3.326-.283-1.787-.579-6.862-.9-8.884-.1-.644-.2-1.3-.311-1.974-3.434-21.9-8.725-55.433-13.592-85.459-8.083-49.829-20.18-76.76-20.18-76.76s-5.922-10.408-8.869-39.926c-2.435-24.454-9.4-102.452-11.119-128.591-.353-5.276-.557-8.366-.557-8.366s-56.567-4.42-66.731,15.167a13.754,13.754,0,0,0-1.473,5.014,145.579,145.579,0,0,0,.174,20.463" transform="translate(106.281 184.519)" fill="#1f2930"/>
        <path id="Trazado_701064" data-name="Trazado 701064" d="M101.945,239.808a27.325,27.325,0,0,0,19.8-.738,1.552,1.552,0,0,0-1.367-2.788,24.658,24.658,0,0,1-18.051.357,1.553,1.553,0,1,0-1.11,2.9c.244.094.488.183.729.268" transform="translate(117.896 277.778)" fill="#475575"/>
        <path id="Trazado_701065" data-name="Trazado 701065" d="M127.858,317.541c.257.651.507,1.295.753,1.924l35.73-4.072,2.109-.237,2.882-.327c-.1-.644-.2-1.306-.313-1.976l-2.6.3-2.54.292Z" transform="translate(150.413 368.042)" fill="#475575"/>
        <path id="Trazado_701066" data-name="Trazado 701066" d="M134.339,202.719a1.1,1.1,0,0,0,.248-2.176,35.2,35.2,0,0,1-12.765-6.8c-8.579-7.054-13.331-17.139-14.121-29.98a1.1,1.1,0,0,0-2.2.135c1.038,16.841,8.732,26.489,15.006,31.615a36.66,36.66,0,0,0,13.583,7.178,1.072,1.072,0,0,0,.248.028" transform="translate(124.11 191.437)" fill="#1f2930"/>
        <path id="Trazado_701067" data-name="Trazado 701067" d="M117.39,293.5c-9.134,28.087-8.288,42.109-8.288,42.109s7.184,28.774-.411,78.679c-5.7,37.465-9.16,89.659-10.529,113.345-.044.718-.083,1.4-.12,2.065-.377,6.618-.564,10.523-.564,10.523L60.96,544.186s-.3-4.263-.8-11.637c-.044-.653-.091-1.336-.139-2.042C57.086,486.729,48.4,351.146,51.334,320.82c2.29-23.636,18.214-130.593,29.025-164.621,7.7-24.243,61.91.531,61.91.531S126.531,265.419,117.39,293.5" transform="translate(59.687 171.238)" fill="#1f2930"/>
        <path id="Trazado_701068" data-name="Trazado 701068" d="M52.863,230.233a27.333,27.333,0,0,0,19.622,2.74,1.554,1.554,0,0,0-.86-2.986,24.651,24.651,0,0,1-17.833-2.808,1.553,1.553,0,0,0-1.6,2.662q.336.2.673.392" transform="translate(60.513 266.991)" fill="#475575"/>
        <path id="Trazado_701069" data-name="Trazado 701069" d="M93.141,321.113c-.044.718-.083,1.4-.12,2.065l-37.878,2.849c-.044-.653-.091-1.339-.139-2.044Z" transform="translate(64.707 377.759)" fill="#475575"/>
        <path id="Trazado_701070" data-name="Trazado 701070" d="M118.983,160.233a1.122,1.122,0,0,1,1.227,1.008c.113,1.147,11.374,114.934,16.134,159.437.862,2.568,15.163,45.5,19.344,68.515,3.756,20.661,15.524,77.258,21.107,103.954-.714.231-1.443.42-2.17.612-5.574-26.644-17.385-83.441-21.148-104.161-4.264-23.451-19.155-67.876-19.3-68.32a1.518,1.518,0,0,1-.052-.235c-4.758-44.431-16.034-158.434-16.147-159.581a1.119,1.119,0,0,1,1.01-1.23" transform="translate(138.777 188.493)" fill="#475575"/>
        <path id="Trazado_701071" data-name="Trazado 701071" d="M99.138,180.678a1.127,1.127,0,0,0,.525-2.124c-.172-.091-12.083-6.542-14.464-20.589a1.126,1.126,0,1,0-2.22.377c2.577,15.2,15.106,21.929,15.637,22.208a1.129,1.129,0,0,0,.522.128" transform="translate(97.597 184.727)" fill="#475575"/>
        <path id="Trazado_701072" data-name="Trazado 701072" d="M69.909,506.185a1.128,1.128,0,0,0,1.029-1.049c.074-1.164,7.456-116.623,9.94-142.951,2.39-25.357-1.258-61.806-1.6-65.131,8.458-25.938,31.771-129.113,32.006-130.156a1.125,1.125,0,1,0-2.2-.494c-.237,1.043-23.666,104.729-32.024,130.175a1.122,1.122,0,0,0-.05.472c.041.385,4.1,38.692,1.624,64.922-2.485,26.363-9.87,141.854-9.944,143.018a1.125,1.125,0,0,0,1.051,1.195,1.071,1.071,0,0,0,.168,0" transform="translate(80.805 194.725)" fill="#475575"/>
        <path id="Trazado_701073" data-name="Trazado 701073" d="M71.3,230.013c26.169,7,62.411,10.011,112.494,7.517-.8-28.979,4.618-60.654,4.727-61.364a164.724,164.724,0,0,1,3.426-16.227c.548-2.152,1.149-4.377,1.793-6.649.633-2.233,1.315-4.523,2.035-6.84q1.012-3.287,2.137-6.647c.472-1.43.964-2.868,1.467-4.3.294-.847.592-1.689.894-2.538.052-.146.109-.3.161-.444.231-.649.464-1.291.705-1.935.525-1.423,1.06-2.853,1.6-4.268,1.286-3.354,2.629-6.675,4.02-9.911,8.625-20.095,10.018-42.742-10.725-49.655-1.508-.507-2.995-.988-4.442-1.443-9.807-3.1-17.984-5.139-20.26-5.691l-.622-.152-43.548,3.615-4.144.34A150.5,150.5,0,0,0,107.9,65.744a46.635,46.635,0,0,0-8.843,2.729C88.738,73.05,88.67,80.572,86,94.912c-.046.246-.089.492-.137.742-.013.081-.033.165-.046.246q-.705,3.656-1.661,7.23c-.7,2.668-1.486,5.3-2.309,7.872-1.724,5.4-3.606,10.543-5.247,15.311-.8,2.309-1.539,4.531-2.176,6.647a65.375,65.375,0,0,0-1.717,6.843,23.989,23.989,0,0,0-.422,6.647,12.413,12.413,0,0,0,.383,2.1,32.051,32.051,0,0,0,1.752,4.745,46.966,46.966,0,0,0,3.756,6.649,63.989,63.989,0,0,0,6.155,7.772c.559.6.89.923.89.923-.007.044-.011.091-.015.137-.033.361-.081.736-.128,1.132-.187,1.515-.448,3.312-.784,5.345a477.243,477.243,0,0,1-13,54.765" transform="translate(83.875 69.95)" fill="#b94940"/>
        <path id="Trazado_701074" data-name="Trazado 701074" d="M72.735,96.825H186.953a30,30,0,0,1-7.374-6.647H74.911c-.8,2.309-1.539,4.531-2.176,6.647" transform="translate(85.566 106.086)" fill="#77230a"/>
        <path id="Trazado_701075" data-name="Trazado 701075" d="M71.8,103.023H195.282q1.015-3.287,2.139-6.647H72.217a23.981,23.981,0,0,0-.42,6.647" transform="translate(84.364 113.377)" fill="#77230a"/>
        <path id="Trazado_701076" data-name="Trazado 701076" d="M72.733,102.573a46.82,46.82,0,0,0,3.756,6.647H190.257c.548-2.152,1.149-4.375,1.793-6.647Z" transform="translate(85.564 120.668)" fill="#77230a"/>
        <path id="Trazado_701077" data-name="Trazado 701077" d="M78.79,126.956s-13.165,10.053-6.464,26.08c0,0,71.41,24.4,113.23,7.894,0,0,4.124-14.264-.738-25.934,0,0-64.944,13.252-106.028-8.04" transform="translate(82.848 149.352)" fill="#ba6c25"/>
        <path id="Trazado_701078" data-name="Trazado 701078" d="M110.708,139.16c19.044,0,39.084-4.039,39.319-4.087a.946.946,0,0,0-.379-1.854c-.272.057-27.438,5.528-48.338,3.663a.946.946,0,0,0-.168,1.885c3.088.276,6.314.394,9.565.394" transform="translate(117.972 156.696)" fill="#9e4f13"/>
        <path id="Trazado_701079" data-name="Trazado 701079" d="M113.156,147.2a.947.947,0,0,0,.144-1.883c-20.082-3.095-39.959-11.084-40.157-11.165a.947.947,0,0,0-.712,1.754c.2.08,20.284,8.153,40.579,11.282a1.118,1.118,0,0,0,.146.011" transform="translate(84.514 157.734)" fill="#9e4f13"/>
        <path id="Trazado_701080" data-name="Trazado 701080" d="M114.916,138.939s-30.892,9.916-47.08,26.4c0,0,6.2,22.632,22.807,26.26,0,0,23.586-40.766,31.51-43.441Z" transform="translate(79.803 163.449)" fill="#ba6c25"/>
        <path id="Trazado_701081" data-name="Trazado 701081" d="M108.619,139.517s26.633,18.53,37.282,39.034c0,0-12.556,19.823-29.5,18.428,0,0-10.61-45.887-17.4-50.767Z" transform="translate(116.463 164.129)" fill="#ba6c25"/>
        <path id="Trazado_701082" data-name="Trazado 701082" d="M87.982,148.872a27.163,27.163,0,0,1,1.258-10.989c1.36-4.018,3.922-8.314,8.677-8.605,9.06-.555,10.09,6.488,10.09,6.488s3.75-7.459,13.4-3.378,5.872,31.767-3.539,35-13.019-4.455-13.019-4.455-3.056,5.748-10.973,1.78c-3.861-1.935-5.439-10.484-5.889-15.84" transform="translate(103.38 152.047)" fill="#ba6c25"/>
        <path id="Trazado_701083" data-name="Trazado 701083" d="M106.364,89.984a9.679,9.679,0,0,1-1.208-.072,10.449,10.449,0,0,1-8.2-4.954c-4.973-8.273.873-23.644,1.125-24.3a1,1,0,1,1,1.872.723c-.057.15-5.744,15.109-1.273,22.539a8.437,8.437,0,0,0,6.714,3.994c13.08,1.571,34.12-28.191,34.328-28.491a1.005,1.005,0,0,1,1.645,1.156c-.866,1.232-20.806,29.4-35.005,29.4" transform="translate(111.712 69.409)" fill="#efebe6"/>
        <path id="Trazado_701084" data-name="Trazado 701084" d="M92.1,63.6c-1.064,9.609-6.54,24.7-14.9,34.659.631-2.385,1.19-4.8,1.656-7.232.015-.081.035-.165.05-.246.046-.25.091-.5.137-.744C81.718,75.7,81.787,68.179,92.1,63.6" transform="translate(90.828 74.822)" fill="#e38c67"/>
        <path id="Trazado_701085" data-name="Trazado 701085" d="M116.42,94.073c1.029,19.159,17.252,40.431,29.973,38.266.348-.995.7-1.983,1.056-2.977.231-.649.466-1.293.707-1.939,1.759-4.8,3.648-9.574,5.626-14.179C162.4,93.15,163.8,70.5,143.054,63.588c-1.508-.5-2.995-.984-4.44-1.441-11.572,2.381-23.381,9.863-22.195,31.926" transform="translate(136.86 73.11)" fill="#e38c67"/>
        <path id="Trazado_701086" data-name="Trazado 701086" d="M141.329,116.731a1.014,1.014,0,0,1-1.373.372c-.163-.1-16.512-9.306-36.47-5.408-10.142,1.978-18.761,1.776-25.453.281.048-.4.1-.775.128-1.132,0-.05.011-.094.015-.139,0,0-.329-.322-.888-.918,6.544,1.661,15.3,1.983,25.808-.065a58.958,58.958,0,0,1,37.859,5.639,1,1,0,0,1,.374,1.371" transform="translate(90.922 127.879)" fill="#77230a"/>
        <path id="Trazado_701087" data-name="Trazado 701087" d="M100.421,96.945c-12.736,0-15.524-13.735-15.55-13.872a1,1,0,1,1,1.972-.381c.1.518,2.522,12.244,13.579,12.244,11.6,0,36.833-17.718,37.088-17.9a1,1,0,0,1,1.158,1.641c-1.056.747-26.015,18.264-38.246,18.264" transform="translate(99.82 90.413)" fill="#77230a"/>
        <path id="Trazado_701088" data-name="Trazado 701088" d="M97.278,78.438c6.758,23.277,36.681,2.292,38.673-3.38a69.646,69.646,0,0,1,3.726-28.33L103.13,51.362q-.206,1.512-.409,3.034a135.275,135.275,0,0,1-2.507,14.421c-.575,2.353-2.061,7.187-2.936,9.622" transform="translate(114.438 54.971)" fill="#e38c67"/>
        <path id="Trazado_701089" data-name="Trazado 701089" d="M98.628,65.414c18.654-.024,34.259-15.8,34.259-15.8L101.131,51a135.106,135.106,0,0,1-2.5,14.419" transform="translate(116.027 58.371)" fill="#1f2930"/>
        <path id="Trazado_701090" data-name="Trazado 701090" d="M95.2,59.372S89.06,32.252,104.922,21s50.658-8.188,59.357,11.768-2.559,44.518-22,48.612-47.076-22-47.076-22" transform="translate(110.619 17.068)" fill="#1f2930"/>
        <path id="Trazado_701091" data-name="Trazado 701091" d="M107.44,41.184s-.747-8.912-7.946-8.555-12.569,22.824.474,25.044Z" transform="translate(108.268 38.372)" fill="#af5f48"/>
        <path id="Trazado_701092" data-name="Trazado 701092" d="M96.863,63.305a11.538,11.538,0,1,1,14.8-6.873,11.552,11.552,0,0,1-14.8,6.873M104.2,43.252a9.816,9.816,0,1,0,5.846,12.591A9.828,9.828,0,0,0,104.2,43.252" transform="translate(105.04 48.153)" fill="#e39839"/>
        <path id="Trazado_701093" data-name="Trazado 701093" d="M143.171,81.332c-5.626,8.153-31.443,13.069-39.965,6.338-5.173-4.085-9.026-10.73-9.023-23.388,0-.067,0-.135,0-.2,0-.747.013-1.48.035-2.2.035-1.308.1-2.577.2-3.785.024-.285.046-.566.074-.842q.108-1.123.255-2.159c.118-.851.252-1.654.407-2.4C97.684,40.6,100.272,26.954,113.036,22.1s30.328-2.777,37.552,10.344c0,0,5.021,11.128.522,28.4s-3.872,14.606-7.94,20.493" transform="translate(110.796 23.173)" fill="#e38c67"/>
        <path id="Trazado_701094" data-name="Trazado 701094" d="M98.035,43.053a136.847,136.847,0,0,0,17.794-.827s-.6,7.7-8.484,8.259-9.311-7.432-9.311-7.432" transform="translate(115.329 49.675)" fill="#efebe6"/>
        <path id="Trazado_701095" data-name="Trazado 701095" d="M116.108,24.44s.992,20.106,5.5,25.2S133,46.763,133,46.763s-3.874-31.384-16.891-22.323" transform="translate(136.59 26.819)" fill="#1f2930"/>
        <path id="Trazado_701096" data-name="Trazado 701096" d="M105.338,23.627S112.03,41.7,126.369,41.482s8.138-13.663,8.138-13.663-22.373-16.541-29.168-4.192" transform="translate(123.92 22.408)" fill="#1f2930"/>
        <path id="Trazado_701097" data-name="Trazado 701097" d="M121.974,25.1S110.252,43.382,97.993,36.628s11.226-21.773,19.8-18.752,4.185,7.228,4.185,7.228" transform="translate(111.195 20.563)" fill="#1f2930"/>
        <path id="Trazado_701098" data-name="Trazado 701098" d="M94.183,43.783c0-.749.013-1.48.037-2.2.035-1.308.1-2.579.2-3.785.024-.285.046-.568.074-.842.2.033.4.07.609.113,4.551.912,7.95,3.143,7.58,4.973-.353,1.778-4.118,2.538-8.5,1.745" transform="translate(110.797 43.469)" fill="#af5f48"/>
        <path id="Trazado_701099" data-name="Trazado 701099" d="M123.622,43.539c-.224,1.856-4.144,2.91-8.756,2.353s-8.166-2.516-7.94-4.372,4.144-2.91,8.754-2.353,8.166,2.516,7.942,4.372" transform="translate(125.777 45.9)" fill="#af5f48"/>
        <path id="Trazado_701100" data-name="Trazado 701100" d="M108.748,29.269a9.5,9.5,0,0,1,7.987,3.872c1.624,2.364-.507,4.187-2.932,2.018a10.364,10.364,0,0,0-5.041-2.842,1.533,1.533,0,0,1-.015-3.047" transform="translate(126.328 34.423)" fill="#1f2930"/>
        <path id="Trazado_701101" data-name="Trazado 701101" d="M106.836,29.046a9.5,9.5,0,0,0-8.875-.183c-2.52,1.367-1.454,3.959,1.693,3.13a10.372,10.372,0,0,1,5.781-.239,1.534,1.534,0,0,0,1.4-2.707" transform="translate(113.592 32.729)" fill="#1f2930"/>
        <path id="Trazado_701102" data-name="Trazado 701102" d="M120.488,38.87s5.58-6.111,12-1.432-2.2,28.639-15.568,22.809Z" transform="translate(137.547 41.968)" fill="#e38c67"/>
        <path id="Trazado_701103" data-name="Trazado 701103" d="M120.789,32.207s-8.934,20.767-3.506,19.984,10.142-13.435,10.142-13.435Z" transform="translate(135.914 37.889)" fill="#1f2930"/>
        <path id="Trazado_701104" data-name="Trazado 701104" d="M131.572,46.9c-.507.37-.853.8-1.365,1.162a9.822,9.822,0,1,1-6.185-1.029c2.209-.131,2.718-.908,2.986-1.761a11.537,11.537,0,1,0,9.411,15.411A11.714,11.714,0,0,0,131.572,46.9" transform="translate(134.163 53.158)" fill="#e39839"/>
        <path id="Trazado_701105" data-name="Trazado 701105" d="M118.789,46.443a.684.684,0,0,0,.3.918.719.719,0,0,0,.137.054.689.689,0,0,0,.781-.355,14,14,0,0,1,3.3-3.985c1.1,1.53,1.944,2.9,1.954,2.921a.668.668,0,0,0,.414.307.707.707,0,0,0,.527-.076.691.691,0,0,0,.226-.942c-.039-.063-.881-1.436-2.011-3.008a8.344,8.344,0,0,1,4.675-1.323.684.684,0,0,0,.033-1.367c-6.71-.168-10.192,6.571-10.338,6.856" transform="translate(139.657 46.568)" fill="#1f2930"/>
        <path id="Trazado_701106" data-name="Trazado 701106" d="M101.5,48.995a4.626,4.626,0,0,1-.5-.2.708.708,0,0,1,.618-1.273,4.532,4.532,0,0,0,4.481-.444c.488-.37,1.3-.007,1.127.908a5.814,5.814,0,0,1-5.722,1.01" transform="translate(118.341 55.214)" fill="#af5f48"/>
        <path id="Trazado_701107" data-name="Trazado 701107" d="M104.146,48.741a6.942,6.942,0,0,0,1.7.387.179.179,0,0,0,.12-.033.911.911,0,0,0-.226-1.717,5.135,5.135,0,0,1-3.458-2.2c3.521-2.884,7.217-11.383,7.382-11.766a.862.862,0,1,0-1.582-.683c-1.14,2.644-4.695,9.863-7.38,11.465a.859.859,0,0,0-.346,1.088,7.055,7.055,0,0,0,3.787,3.46" transform="translate(117.975 37.888)" fill="#1f2930"/>
        <path id="Trazado_701108" data-name="Trazado 701108" d="M111.966,39.457a9.488,9.488,0,1,1-9.487-9.487,9.487,9.487,0,0,1,9.487,9.487" transform="translate(109.394 35.257)" fill="#1f2930"/>
        <path id="Trazado_701109" data-name="Trazado 701109" d="M122.654,41.178a9.488,9.488,0,1,1-9.487-9.487,9.487,9.487,0,0,1,9.487,9.487" transform="translate(121.967 37.281)" fill="#1f2930"/>
        <path id="Trazado_701110" data-name="Trazado 701110" d="M108.717,38.257c-2.725-2.481-7.6-1.28-7.652-1.267l-.609-2.366c.252-.063,6.2-1.547,9.907,1.828Z" transform="translate(118.176 40.287)" fill="#1f2930"/>
        <path id="Trazado_701111" data-name="Trazado 701111" d="M112.507,39.54l-1.1-2.181c.494-.25,12.181-6.042,19.231-2.4l-1.119,2.17c-5.948-3.069-16.9,2.361-17.015,2.416" transform="translate(131.063 39.714)" fill="#1f2930"/>
        <path id="Trazado_701112" data-name="Trazado 701112" d="M156.856,73.264,158.732,76l1.8,2.668L164.088,84q3.526,5.341,6.971,10.73c4.6,7.2,9.1,14.473,13.481,21.929,2.192,3.726,4.348,7.5,6.464,11.354s4.194,7.77,6.209,11.84c2.011,4.089,3.968,8.294,5.809,12.952.233.562.459,1.173.683,1.787l.67,1.828c.113.3.222.625.329.955l.324.988.32.988.157.494.22.71a32.729,32.729,0,0,1,.847,3.582c.2,1.1.322,2.076.422,3.03a49.8,49.8,0,0,1,.224,5.082,74.139,74.139,0,0,1-.562,8.329c-.3,2.555-.694,4.958-1.121,7.3-.862,4.673-1.887,9.084-2.99,13.409-2.216,8.629-4.745,16.893-7.415,25.053s-5.5,16.177-8.44,24.139q-2.2,5.971-4.492,11.9l-2.314,5.929-2.4,6a16.647,16.647,0,0,1-31.242-11.465l.12-.353,1.92-5.687,1.9-5.8q1.88-5.808,3.674-11.644c2.39-7.774,4.658-15.566,6.738-23.331s3.974-15.518,5.474-23.083c.744-3.774,1.384-7.5,1.83-11.034.22-1.759.392-3.474.488-5.051a34.351,34.351,0,0,0,.039-4.111,7.273,7.273,0,0,0-.146-1.134c-.024-.076-.044-.133-.048-.048a2.636,2.636,0,0,0,.1.557c.007.028.03.1.026.091l-.052-.12-.1-.242-.2-.481-.194-.481c-.061-.159-.124-.32-.211-.5l-.477-1.066c-.157-.353-.311-.707-.5-1.093-1.412-2.988-3.156-6.229-5.025-9.483-1.885-3.265-3.913-6.571-6.009-9.877s-4.274-6.618-6.51-9.922c-4.459-6.608-9.128-13.187-13.9-19.712q-3.578-4.894-7.239-9.739l-3.667-4.823-1.839-2.383-1.8-2.3-.1-.135a22.521,22.521,0,1,1,35.482-27.745c.281.357.583.775.838,1.143" transform="translate(136.174 74.668)" fill="#e38c67"/>
        <path id="Trazado_701113" data-name="Trazado 701113" d="M137.326,110.7a.99.99,0,0,1-.89-.557c-4.829-9.918-16.7-29.645-16.819-29.845a.989.989,0,0,1,1.7-1.021c.12.2,12.036,20,16.9,30a.989.989,0,0,1-.888,1.423" transform="translate(140.551 92.698)" fill="#af5f48"/>
        <path id="Trazado_701114" data-name="Trazado 701114" d="M126.241,86.413a1.048,1.048,0,0,1-.27-.037l-5.441-1.539a.989.989,0,0,1,.538-1.9l5.441,1.539a.989.989,0,0,1-.268,1.941" transform="translate(140.945 97.518)" fill="#af5f48"/>
        <path id="Trazado_701115" data-name="Trazado 701115" d="M141,116.262a.988.988,0,0,1-.451-1.87c.294-.15,7.25-3.652,13.132-2.736a.989.989,0,1,1-.3,1.954c-5.247-.812-11.866,2.509-11.931,2.544a1,1,0,0,1-.448.107" transform="translate(164.705 131.174)" fill="#af5f48"/>
        <path id="Trazado_701116" data-name="Trazado 701116" d="M141.925,118.239a1.013,1.013,0,0,1-.318-.052.992.992,0,0,1-.62-1.256c1.26-3.717,5.2-7.439,5.36-7.6a.99.99,0,0,1,1.356,1.443c-.037.035-3.741,3.543-4.84,6.788a.99.99,0,0,1-.938.673" transform="translate(165.797 128.309)" fill="#af5f48"/>
        <path id="Trazado_701117" data-name="Trazado 701117" d="M144.266,152.88c-2.494.773-4.4,4.93-6.847,7.441-3.221,3.313-7.1,9.215-8.444,13.065-2.028,5.778-7.086,23.066-4.764,27.325s7.818-10.39,9-13.374a13.078,13.078,0,0,1,3.062-4.64s-10.07,34.416-7.837,37.56,9.885-15.986,11.746-20.726c0,0-6.179,26.26-4.1,27.767,4.161,3.021,11.851-25.995,11.851-25.995s-4.092,22.286-.459,22.619c3.846.355,8.168-23.525,8.168-23.525s-.575,14.784,2.335,16.517,6.5-29.366,6.479-34.178,3.841-16.608,2.76-22.735c-.736-4.161-15.048-9.563-22.948-7.121" transform="translate(145.419 179.131)" fill="#e38c67"/>
      </g>
    </g>
  </g>
</svg>
