<svg xmlns="http://www.w3.org/2000/svg" xmlns:xlink="http://www.w3.org/1999/xlink" width="67.969" height="67.969" viewBox="0 0 67.969 67.969">
  <defs>
    <clipPath id="clip-path">
      <path id="path1479" d="M33.816-682.665H0v33.815H33.816Z" transform="translate(0 682.665)"/>
    </clipPath>
  </defs>
  <g id="Grupo_1005936" data-name="Grupo 1005936" transform="translate(-687.448 -1799.291)">
    <circle id="Elipse_5223" data-name="Elipse 5223" cx="33.984" cy="33.984" r="33.984" transform="translate(687.448 1799.291)" fill="#0098e8"/>
    <path id="Trazado_701126" data-name="Trazado 701126" d="M6.975,5.053H34.02A7,7,0,0,1,41,12.028V39.073a7,7,0,0,1-6.975,6.975H6.975A7,7,0,0,1,0,39.073V12.028A7,7,0,0,1,6.975,5.053" transform="translate(700.934 1808.5)" fill="#1f4168" fill-rule="evenodd"/>
    <g id="g1473" transform="translate(704.524 1816.367)">
      <g id="g1475" transform="translate(0 0)">
        <g id="g1477" transform="translate(0 0)" clip-path="url(#clip-path)">
          <g id="g1483" transform="translate(3.655 3.147)">
            <path id="path1485" d="M-503.611-313.2l1.518-3.873a9.823,9.823,0,0,0,.6-2.4,11.458,11.458,0,0,1,11.5-10.053,11.485,11.485,0,0,1,11.331,11.539,11.437,11.437,0,0,1-4.716,9.179,2.055,2.055,0,0,0-.84,1.662v7.793h-13.2v-6.048l-3.338-.3a1.428,1.428,0,0,1-1.285-1.623l.6-4.254-1.814-.762a.669.669,0,0,1-.364-.861" transform="translate(503.657 329.518)" fill="#ffddce"/>
          </g>
          <g id="g1487" transform="translate(12.237 9.875)">
            <path id="path1489" d="M-331.337-179.973v8.126a.418.418,0,0,0,.418.418h8.127a.418.418,0,0,0,.417-.418.418.418,0,0,0,.418.418h1.477V-173.7a2.056,2.056,0,0,1,.84-1.662,11.439,11.439,0,0,0,4.716-9.179,11.356,11.356,0,0,0-1.027-4.811h-6.006a.418.418,0,0,0-.418.418v1.991a.416.416,0,0,1-.629.36,2,2,0,0,0-1.138-.29,2.012,2.012,0,0,0-1.908,1.924,2,2,0,0,0,2,2.082,2,2,0,0,0,1.035-.287.418.418,0,0,1,.638.355v1.991a.418.418,0,0,0,.418.418.418.418,0,0,0-.418.418.418.418,0,0,0-.417-.418h-1.992a.418.418,0,0,0-.355.638,2,2,0,0,1,.287,1.035,2,2,0,0,1-2.082,2,2.011,2.011,0,0,1-1.924-1.908,2,2,0,0,1,.29-1.139.416.416,0,0,0-.36-.629h-1.992a.418.418,0,0,0-.418.418" transform="translate(331.337 189.353)" fill="#eac9ba"/>
          </g>
          <g id="g1491" transform="translate(9.898 27.272)">
            <path id="path1493" d="M-52.505,0h1.994A.607.607,0,0,1-49.9.607V6.048h-2.6Z" transform="translate(52.505)" fill="#eac9ba"/>
          </g>
          <g id="g1495" transform="translate(3.655 3.147)">
            <path id="path1497" d="M-298.138-313.2l1.518-3.874a9.98,9.98,0,0,0,.607-2.416,11.458,11.458,0,0,1,11.329-10.033,11.387,11.387,0,0,1,1.318.072,11.554,11.554,0,0,0-4.595,1.529l3.817,3.817a.418.418,0,0,1,0,.59l-1.409,1.409a.417.417,0,0,1-.7-.19,2,2,0,0,0-.6-1.011,2.013,2.013,0,0,0-2.71.012,2,2,0,0,0-.056,2.889,2,2,0,0,0,.936.529.418.418,0,0,1,.2.7l-1.409,1.409a.417.417,0,0,1-.59,0l-1.409-1.409a.419.419,0,0,0-.7.2,1.989,1.989,0,0,1-.528.935,2,2,0,0,1-.881.514q-.1.324-.225.642l-1.541,3.932a.679.679,0,0,0,.37.874l1.409.592a.607.607,0,0,1,.366.645l-.548,3.855a1.448,1.448,0,0,0,.7,1.452l-1.809-.164a1.429,1.429,0,0,1-1.285-1.623l.6-4.255-1.814-.762a.669.669,0,0,1-.364-.86" transform="translate(298.185 329.524)" fill="#eac9ba"/>
          </g>
          <g id="g1499" transform="translate(3.655 3.147)">
            <path id="path1501" d="M-372.329-578.965v-6.048l-3.338-.3a1.428,1.428,0,0,1-1.285-1.623l.6-4.254-1.814-.762a.669.669,0,0,1-.364-.86l1.518-3.873a9.826,9.826,0,0,0,.6-2.4,11.458,11.458,0,0,1,11.5-10.053A11.485,11.485,0,0,1-353.577-597.6a11.437,11.437,0,0,1-4.716,9.179,2.055,2.055,0,0,0-.84,1.662v7.793" transform="translate(378.572 609.139)" fill="none" stroke="#000" stroke-linecap="round" stroke-linejoin="round" stroke-miterlimit="10" stroke-width="1"/>
          </g>
          <g id="g1503" transform="translate(5.3 0.495)">
            <path id="path1505" d="M-241.689-175.884a2,2,0,0,1,1.01-.6.417.417,0,0,0,.19-.7l-1.408-1.408a.418.418,0,0,1,0-.591l5.746-5.746a.418.418,0,0,1,.591,0l5.746,5.746a.418.418,0,0,1,0,.591l-1.408,1.408a.417.417,0,0,1-.7-.19,2,2,0,0,0-.6-1.01,2.012,2.012,0,0,0-2.71.012,2,2,0,0,0-.056,2.888,2,2,0,0,0,.935.529.418.418,0,0,1,.2.7l-1.408,1.408a.418.418,0,0,1-.591,0l-1.408-1.408a.418.418,0,0,0-.7.2,1.994,1.994,0,0,1-.529.935,2,2,0,0,1-2.888-.056,2.012,2.012,0,0,1-.012-2.71" transform="translate(242.208 185.051)" fill="#0ed2b3"/>
          </g>
          <g id="g1507" transform="translate(5.3 0.496)">
            <path id="path1509" d="M-143.011-227.883a2,2,0,0,0,2.273.475c-.029-.028-.058-.056-.085-.087a2.012,2.012,0,0,1-.012-2.709,2,2,0,0,1,1.011-.6.417.417,0,0,0,.19-.7l-1.408-1.408a.418.418,0,0,1,0-.591l5.141-5.142-.993-.993a.418.418,0,0,0-.59,0l-5.746,5.746a.418.418,0,0,0,0,.59l1.409,1.408a.417.417,0,0,1-.191.7,2,2,0,0,0-1.01.6,2.013,2.013,0,0,0,.012,2.71" transform="translate(143.541 239.76)" fill="#09b79f"/>
          </g>
          <g id="g1511" transform="translate(5.3 0.495)">
            <path id="path1513" d="M-186.142-58.32l2.917-2.917a.418.418,0,0,1,.591,0l5.746,5.746a.418.418,0,0,1,0,.591l-1.408,1.408a.417.417,0,0,1-.7-.19,2,2,0,0,0-.6-1.01,2.012,2.012,0,0,0-2.71.012,2,2,0,0,0-.056,2.888,1.994,1.994,0,0,0,.935.529.418.418,0,0,1,.2.7l-1.408,1.408a.418.418,0,0,1-.591,0l-1.408-1.408a.418.418,0,0,0-.7.2,2,2,0,0,1-.529.935,2,2,0,0,1-2.888-.056,2.012,2.012,0,0,1-.012-2.71,2,2,0,0,1,1.01-.6.417.417,0,0,0,.19-.7l-1.408-1.408a.418.418,0,0,1,0-.591l1.176-1.176" transform="translate(189.283 61.359)" fill="none" stroke="#000" stroke-linecap="round" stroke-linejoin="round" stroke-miterlimit="10" stroke-width="1"/>
          </g>
          <g id="g1515" transform="translate(17.522 7.675)">
            <path id="path1517" d="M-214.691-47.56a2,2,0,0,1,1.138.29.417.417,0,0,0,.629-.36v-1.991a.418.418,0,0,1,.418-.418h8.126a.418.418,0,0,1,.418.418v8.126a.418.418,0,0,1-.418.418h-1.991a.417.417,0,0,1-.36-.629,2,2,0,0,0,.29-1.138,2.012,2.012,0,0,0-1.925-1.908,2,2,0,0,0-2.082,2,2,2,0,0,0,.288,1.035.418.418,0,0,1-.355.638h-1.992a.418.418,0,0,1-.418-.418v-1.992a.418.418,0,0,0-.638-.355,1.994,1.994,0,0,1-1.035.288,2,2,0,0,1-2-2.082,2.012,2.012,0,0,1,1.908-1.924" transform="translate(216.601 50.039)" fill="#fe9738"/>
          </g>
          <g id="g1519" transform="translate(21.184 7.675)">
            <path id="path1521" d="M-50.433-48.339a1.885,1.885,0,0,1,.313-.041,2,2,0,0,1,1.138.291.417.417,0,0,0,.63-.36v-1.991a.418.418,0,0,1,.417-.418H-50a.418.418,0,0,0-.418.418v1.991a.4.4,0,0,1-.015.11" transform="translate(50.433 50.859)" fill="#fd7700"/>
          </g>
          <g id="g1523" transform="translate(17.522 10.151)">
            <path id="path1525" d="M-18.9-76.918a1.987,1.987,0,0,0,1.033-.287A2,2,0,0,1-18.833-79a2.008,2.008,0,0,1,.972-1.639,2,2,0,0,0-1.13-.285A2.012,2.012,0,0,0-20.9-79a2,2,0,0,0,2,2.082" transform="translate(20.9 80.926)" fill="#fd7700"/>
          </g>
          <g id="g1527" transform="translate(21.185 13.81)">
            <path id="path1529" d="M-49.56-5.923a.388.388,0,0,1,.014.108v1.992a.418.418,0,0,0,.418.418h1.992l.031,0a.418.418,0,0,1-.375-.416V-5.815a.418.418,0,0,0-.638-.355,1.993,1.993,0,0,1-1.035.288,2.035,2.035,0,0,1-.407-.041" transform="translate(49.56 6.232)" fill="#fd7700"/>
          </g>
          <g id="g1531" transform="translate(17.522 7.675)">
            <path id="path1533" d="M-214.691-47.56a2,2,0,0,1,1.138.29.417.417,0,0,0,.629-.36v-1.991a.418.418,0,0,1,.418-.418h8.126a.418.418,0,0,1,.418.418v8.126a.418.418,0,0,1-.418.418h-1.991a.417.417,0,0,1-.36-.629,2,2,0,0,0,.29-1.138,2.012,2.012,0,0,0-1.925-1.908,2,2,0,0,0-2.082,2,2,2,0,0,0,.288,1.035.418.418,0,0,1-.355.638h-1.992a.418.418,0,0,1-.418-.418v-1.992a.418.418,0,0,0-.638-.355,1.994,1.994,0,0,1-1.035.288,2,2,0,0,1-2-2.082A2.012,2.012,0,0,1-214.691-47.56Z" transform="translate(216.601 50.039)" fill="none" stroke="#000" stroke-linecap="round" stroke-linejoin="round" stroke-miterlimit="10" stroke-width="1"/>
          </g>
          <g id="g1535" transform="translate(21.199 12.959)">
            <path id="path1537" d="M-43.556-36.639a2,2,0,0,1-.29,1.138.417.417,0,0,0,.36.629h1.991a.418.418,0,0,1,.418.418v8.126a.418.418,0,0,1-.418.418h-8.126a.418.418,0,0,1-.418-.418v-1.991a.417.417,0,0,1,.629-.36,2,2,0,0,0,1.138.29,2.012,2.012,0,0,0,1.908-1.925,2,2,0,0,0-2-2.082,2,2,0,0,0-1.035.288.418.418,0,0,1-.638-.355v-1.992a.418.418,0,0,1,.418-.418h1.992a.418.418,0,0,0,.355-.638,2,2,0,0,1-.288-1.035,2,2,0,0,1,2.082-2,2.012,2.012,0,0,1,1.925,1.908" transform="translate(50.039 38.548)" fill="#fe4855"/>
          </g>
          <g id="g1539" transform="translate(21.199 22.768)">
            <path id="path1541" d="M-50.129-8.057v1.992a.418.418,0,0,0,.418.417h2.065a.417.417,0,0,1-.417-.417V-8.057a.421.421,0,0,1,.014-.11,1.893,1.893,0,0,1-.312.04,2,2,0,0,1-1.138-.29.417.417,0,0,0-.63.359" transform="translate(50.129 8.477)" fill="#fb2b3b"/>
          </g>
          <g id="g1543" transform="translate(23.903 19.113)">
            <path id="path1545" d="M-61.363-71.387a1.987,1.987,0,0,0,1.13.285,2.012,2.012,0,0,0,1.909-1.924,2,2,0,0,0-2-2.082,1.992,1.992,0,0,0-1.033.286,2,2,0,0,1,.97,1.8,2.008,2.008,0,0,1-.972,1.639" transform="translate(61.363 75.108)" fill="#fb2b3b"/>
          </g>
          <g id="g1547" transform="translate(21.199 12.959)">
            <path id="path1549" d="M-111.25-78.566v1.992a.418.418,0,0,0,.638.355,2,2,0,0,1,1.035-.287,2.03,2.03,0,0,1,.407.041.394.394,0,0,1-.014-.109v-1.992a.417.417,0,0,1,.417-.417h1.992a.418.418,0,0,0,.355-.638,2,2,0,0,1-.288-1.035,2,2,0,0,1,.969-1.717,1.975,1.975,0,0,0-.953-.286,2,2,0,0,0-2.082,2,1.993,1.993,0,0,0,.288,1.035.418.418,0,0,1-.355.638h-1.992a.418.418,0,0,0-.418.417" transform="translate(111.25 82.66)" fill="#fb2b3b"/>
          </g>
          <g id="g1551" transform="translate(21.199 12.959)">
            <path id="path1553" d="M8.962-182.991v2.684a.418.418,0,0,1-.418.418H.418A.418.418,0,0,1,0-180.306V-182.3a.417.417,0,0,1,.629-.36,2,2,0,0,0,1.138.29,2.012,2.012,0,0,0,1.908-1.925,2,2,0,0,0-2-2.082,2,2,0,0,0-1.035.288A.418.418,0,0,1,0-186.441v-1.992a.418.418,0,0,1,.418-.418H2.409a.418.418,0,0,0,.355-.638,1.994,1.994,0,0,1-.288-1.035,2,2,0,0,1,2.082-2,2.012,2.012,0,0,1,1.925,1.908,2,2,0,0,1-.29,1.139.417.417,0,0,0,.36.629H8.544a.418.418,0,0,1,.418.418v3.1" transform="translate(0 192.528)" fill="none" stroke="#000" stroke-linecap="round" stroke-linejoin="round" stroke-miterlimit="10" stroke-width="1"/>
          </g>
          <g id="g1555" transform="translate(12.238 16.636)">
            <path id="path1557" d="M-27.82-124.39a2,2,0,0,1-1.138-.29.417.417,0,0,0-.629.36v1.991a.418.418,0,0,1-.418.418h-8.126a.418.418,0,0,1-.418-.418v-8.126a.418.418,0,0,1,.418-.418h1.991a.417.417,0,0,1,.36.629,2,2,0,0,0-.29,1.138,2.012,2.012,0,0,0,1.925,1.908,2,2,0,0,0,2.082-2,2,2,0,0,0-.288-1.035.418.418,0,0,1,.355-.638h1.992a.418.418,0,0,1,.418.418v1.992a.418.418,0,0,0,.638.355,2,2,0,0,1,1.035-.288,2,2,0,0,1,2,2.082,2.012,2.012,0,0,1-1.908,1.925" transform="translate(38.549 130.873)" fill="#fee35a"/>
          </g>
          <g id="g1559" transform="translate(12.237 16.636)">
            <path id="path1561" d="M-50.143-8.007V.12a.418.418,0,0,0,.418.417h2.066A.418.418,0,0,1-48.077.12V-8.007a.418.418,0,0,1,.375-.415l-.032,0h-1.992a.418.418,0,0,0-.418.417" transform="translate(50.143 8.424)" fill="#f9c600"/>
          </g>
          <g id="g1563" transform="translate(12.238 16.636)">
            <path id="path1565" d="M-207.507-171.95h-1.831a.418.418,0,0,1-.418-.418v-8.126a.418.418,0,0,1,.418-.418h1.991a.417.417,0,0,1,.36.629,2,2,0,0,0-.29,1.139,2.012,2.012,0,0,0,1.925,1.908,2,2,0,0,0,2.082-2,2,2,0,0,0-.288-1.035.418.418,0,0,1,.355-.638h1.992a.418.418,0,0,1,.418.418v1.992a.418.418,0,0,0,.638.355,2,2,0,0,1,1.035-.288,2,2,0,0,1,2,2.082,2.012,2.012,0,0,1-1.908,1.925,2,2,0,0,1-1.138-.29.417.417,0,0,0-.629.36v1.991a.418.418,0,0,1-.418.418h-3.957" transform="translate(209.755 180.912)" fill="none" stroke="#000" stroke-linecap="round" stroke-linejoin="round" stroke-miterlimit="10" stroke-width="1"/>
          </g>
        </g>
      </g>
    </g>
  </g>
</svg>
