<svg xmlns="http://www.w3.org/2000/svg" xmlns:xlink="http://www.w3.org/1999/xlink" width="105.143" height="103.72" viewBox="0 0 105.143 103.72">
  <defs>
    <filter id="Trazado_689583" x="0" y="0" width="105.143" height="103.72" filterUnits="userSpaceOnUse">
      <feOffset dy="3" input="SourceAlpha"/>
      <feGaussianBlur stdDeviation="3" result="blur"/>
      <feFlood flood-opacity="0.161"/>
      <feComposite operator="in" in2="blur"/>
      <feComposite in="SourceGraphic"/>
    </filter>
  </defs>
  <g id="unido" transform="translate(3.5 4.044)">
    <g transform="matrix(1, 0, 0, 1, -3.5, -4.04)" filter="url(#Trazado_689583)">
      <path id="Trazado_689583-2" data-name="Trazado 689583" d="M85.267,78.836A43.66,43.66,0,0,1,61.33,96.4a43.875,43.875,0,0,0-23.346.325A43.642,43.642,0,0,1,12.819,78.751a43.347,43.347,0,0,0-7.3-22.956q-.017-.61-.017-1.223a43.572,43.572,0,1,1,87.143,0q0,.78-.027,1.553a43.344,43.344,0,0,0-7.349,22.711Z" transform="translate(3.5 -5)" fill="#0098e8"/>
    </g>
    <path id="Trazado_689584" data-name="Trazado 689584" d="M178.475,1.778v8.892a1.778,1.778,0,0,1-3.557,0V1.778a1.778,1.778,0,0,1,3.557,0ZM163.768,9.041a1.778,1.778,0,0,0-2.515,2.515l3.1,3.1a1.778,1.778,0,0,0,2.515-2.515Zm29.084-.711a1.779,1.779,0,0,0-2.515,0l-3.814,3.814a1.778,1.778,0,0,0,2.515,2.515l3.814-3.814A1.778,1.778,0,0,0,192.852,8.33Z" transform="translate(-127.625)" fill="#fcb30b"/>
    <path id="Trazado_689585" data-name="Trazado 689585" d="M63.73,109.053l-4.111,2.374a3.216,3.216,0,0,1,4.451,1.28,3.267,3.267,0,0,1-1.3,4.33l-8.29,4.786a3.216,3.216,0,0,1,4.451,1.28,3.267,3.267,0,0,1-1.3,4.33l-12.468,7.2a3.235,3.235,0,0,1-.582.264,29.836,29.836,0,0,1-9.676,2.874,29.832,29.832,0,0,0-11.384,3.787l-10.606,6.123A43.354,43.354,0,0,1,5.53,124.085l6.77-3.909a14.677,14.677,0,0,0,6.332-7.37,14.677,14.677,0,0,1,6.332-7.37L42.79,95.145a3.216,3.216,0,0,1,4.451,1.28,3.267,3.267,0,0,1-1.3,4.33l-9.682,5.59c-.769.444.839,3.229,1.608,2.785l16.646-9.61a3.267,3.267,0,0,1,4.4,1.038,3.216,3.216,0,0,1-1.117,4.494l2.785-1.608a3.216,3.216,0,0,1,4.451,1.28,3.267,3.267,0,0,1-1.3,4.329Z" transform="translate(-0.025 -77.87)" fill="#e1a595"/>
    <path id="Trazado_689586" data-name="Trazado 689586" d="M47.241,96.425a3.142,3.142,0,0,1,.192.439,3.2,3.2,0,0,0-1.909.417L27.7,107.572a14.676,14.676,0,0,0-6.332,7.37,14.677,14.677,0,0,1-6.332,7.37l-9.3,5.37q-.174-1.779-.2-3.6l6.77-3.909a14.677,14.677,0,0,0,6.332-7.37,14.677,14.677,0,0,1,6.332-7.37L42.79,95.145a3.217,3.217,0,0,1,4.451,1.28Z" transform="translate(-0.025 -77.869)" fill="#dd9683"/>
    <path id="Trazado_689587" data-name="Trazado 689587" d="M215.276,106.758l-1.114.643a.322.322,0,0,1-.439-.118l-1.287-2.228a.322.322,0,0,1,.118-.439l1.114-.643a1.608,1.608,0,0,1,1.608,2.786Z" transform="translate(-170.098 -85.305)" fill="#eac0b5"/>
    <path id="Trazado_689588" data-name="Trazado 689588" d="M212.779,164.707l-11.171-6.45a14.678,14.678,0,0,0-9.549-1.8,14.678,14.678,0,0,1-9.549-1.8l-17.825-10.291a3.216,3.216,0,0,1-1.117-4.494,3.267,3.267,0,0,1,4.4-1.038l9.682,5.59a1.608,1.608,0,0,0,1.608-2.786l-16.646-9.611a3.267,3.267,0,0,1-1.3-4.33,3.217,3.217,0,0,1,4.451-1.28l-2.785-1.608a3.216,3.216,0,0,1-1.117-4.494,3.267,3.267,0,0,1,4.4-1.038l1.333.77s1.528.494,1.3-.268a3.208,3.208,0,0,1,.359-2.622,3.267,3.267,0,0,1,4.4-1.038l8.29,4.786a3.216,3.216,0,0,1-1.117-4.494,3.267,3.267,0,0,1,4.4-1.038l12.468,7.2a3.232,3.232,0,0,1,.519.373,29.832,29.832,0,0,1,7.327,6.943,29.833,29.833,0,0,0,8.972,7.965l5.913,3.414A43.347,43.347,0,0,1,212.779,164.707Z" transform="translate(-127.802 -94.489)" fill="#d89c56"/>
    <path id="Trazado_689589" data-name="Trazado 689589" d="M214.44,163.912q-.814,1.392-1.727,2.717l-11.171-6.449a14.678,14.678,0,0,0-9.549-1.8,14.678,14.678,0,0,1-9.549-1.8L164.619,146.29A3.217,3.217,0,0,1,163.5,141.8a3.117,3.117,0,0,1,.284-.385,3.2,3.2,0,0,0,1.316,1.445l17.825,10.291a14.678,14.678,0,0,0,9.549,1.8,14.678,14.678,0,0,1,9.549,1.8Zm-33.05-20.939a1.608,1.608,0,0,0-.589-2.2l-16.713-9.649a3.215,3.215,0,0,1-1.609-2.786,3.222,3.222,0,0,0,.073,5.618l16.64,9.6A1.608,1.608,0,0,0,181.389,142.974Zm-11.013-19.357,15.249,8.8a1.608,1.608,0,0,0,1.608-2.786l-15.32-8.845a3.2,3.2,0,0,1-1.6-2.778,2.963,2.963,0,0,0-1.173,1.139,3.228,3.228,0,0,0,1.239,4.465Zm11.454-.818,7.011,4.051a1.608,1.608,0,1,0,1.608-2.786l-6.964-4.021a3.2,3.2,0,0,1-1.6-2.779,2.99,2.99,0,0,0-1.175,1.15A3.08,3.08,0,0,0,181.83,122.8Zm-18.849,3.977,19.427,11.216a1.608,1.608,0,1,0,1.608-2.786l-19.5-11.257a3.2,3.2,0,0,1-1.6-2.779,3.087,3.087,0,0,0-1.176,1.152A3.007,3.007,0,0,0,162.981,126.775Z" transform="translate(-127.735 -96.41)" fill="#c78a51"/>
    <path id="Trazado_689590" data-name="Trazado 689590" d="M175.721,148.6l-1.287,2.228a.322.322,0,0,1-.439.118l-1.114-.643a1.608,1.608,0,0,1,1.608-2.786l1.114.643A.322.322,0,0,1,175.721,148.6Zm17.141-23.9-1.114-.643a1.608,1.608,0,0,0-1.608,2.786l1.114.643a.322.322,0,0,0,.439-.118l1.287-2.228A.322.322,0,0,0,192.863,124.7ZM172.3,138.456l1.287-2.228a.322.322,0,0,0-.118-.439l-1.114-.643a1.608,1.608,0,1,0-1.608,2.786l1.114.643a.322.322,0,0,0,.439-.118Zm8.994-13.006-1.114-.643a1.608,1.608,0,0,0-1.608,2.786l1.114.643a.322.322,0,0,0,.439-.118l1.287-2.228A.322.322,0,0,0,181.29,125.45Zm-10.117,5.3,1.114.643a.322.322,0,0,0,.439-.118l1.287-2.228a.322.322,0,0,0-.118-.439l-1.114-.643a1.608,1.608,0,1,0-1.608,2.786Z" transform="translate(-135.193 -101.82)" fill="#eabe8d"/>
    <path id="Trazado_689591" data-name="Trazado 689591" d="M184.51,174.675s-.022,14.827-.063,15.033a29.834,29.834,0,0,1-2.349,9.817,29.836,29.836,0,0,0-2.412,11.752v5a43.862,43.862,0,0,1-24.123.268V210.3a14.678,14.678,0,0,0-3.216-9.169,14.678,14.678,0,0,1-3.216-9.169V171.382a3.217,3.217,0,0,1,3.334-3.214,3.267,3.267,0,0,1,3.1,3.291v11.18a1.608,1.608,0,1,0,3.216,0V163.418a3.267,3.267,0,0,1,3.1-3.291,3.216,3.216,0,0,1,3.334,3.214v-3.216a3.217,3.217,0,0,1,3.334-3.214,3.267,3.267,0,0,1,3.1,3.291v4.748a3.217,3.217,0,0,1,3.334-3.214,3.267,3.267,0,0,1,3.1,3.291V174.6a3.217,3.217,0,0,1,3.334-3.214A3.267,3.267,0,0,1,184.51,174.675Z" transform="translate(-118.086 -129.003)" fill="#a95947"/>
    <path id="Trazado_689592" data-name="Trazado 689592" d="M155.563,199.783a14.678,14.678,0,0,1,3.216,9.169v8.295q-1.631-.318-3.216-.755v-6.241a14.678,14.678,0,0,0-3.216-9.169,14.678,14.678,0,0,1-3.216-9.169V171.331a3.217,3.217,0,0,1,3.334-3.214,3.124,3.124,0,0,1,.476.053,3.2,3.2,0,0,0-.593,1.862v20.582a14.678,14.678,0,0,0,3.216,9.169Zm3.216-36.411v19.216a1.608,1.608,0,0,0,3.216,0v-19.3A3.215,3.215,0,0,1,163.6,160.5a3.163,3.163,0,0,0-1.587-.43A3.238,3.238,0,0,0,158.779,163.372Zm12.865,1.608v17.608a1.608,1.608,0,0,0,3.216,0V164.9a3.2,3.2,0,0,1,1.6-2.78,2.9,2.9,0,0,0-1.578-.436A3.043,3.043,0,0,0,171.645,164.98Zm9.671,6.345a3.189,3.189,0,0,0-3.238,3.177v8.086a1.608,1.608,0,1,0,3.216,0v-8.041a3.2,3.2,0,0,1,1.6-2.779,2.893,2.893,0,0,0-1.58-.443Zm-16.1-11.169v22.433a1.608,1.608,0,0,0,3.216,0V160.074a3.2,3.2,0,0,1,1.6-2.778,3.041,3.041,0,0,0-1.6-.449A3.141,3.141,0,0,0,165.212,160.156Z" transform="translate(-118.086 -128.952)" fill="#7d402d"/>
    <path id="Trazado_689593" data-name="Trazado 689593" d="M161.388,178.816V180.1a.322.322,0,0,1-.322.322h-2.573a.322.322,0,0,1-.322-.322v-1.287a1.608,1.608,0,1,1,3.216,0Zm27.339,1.608a1.608,1.608,0,0,0-1.608,1.608v1.287a.322.322,0,0,0,.322.322h2.573a.322.322,0,0,0,.322-.322v-1.287A1.608,1.608,0,0,0,188.727,180.425Zm-19.3-11.257a1.608,1.608,0,0,0-1.608,1.608v1.287a.322.322,0,0,0,.322.322h2.573a.322.322,0,0,0,.322-.322v-1.287A1.608,1.608,0,0,0,169.429,169.167Zm12.866,1.608a1.608,1.608,0,0,0-1.608,1.608v1.287a.322.322,0,0,0,.322.322h2.573a.322.322,0,0,0,.322-.322v-1.287A1.608,1.608,0,0,0,182.295,170.776Zm-6.433-4.825a1.608,1.608,0,0,0-1.608,1.608v1.287a.322.322,0,0,0,.322.322h2.573a.322.322,0,0,0,.322-.322v-1.287A1.608,1.608,0,0,0,175.862,165.951Z" transform="translate(-125.52 -136.438)" fill="#c68978"/>
  </g>
</svg>
