<svg id="lenguaje-de-senas" xmlns="http://www.w3.org/2000/svg" width="90.828" height="94.906" viewBox="0 0 90.828 94.906">
  <path id="Trazado_690669" data-name="Trazado 690669" d="M56.414,22a45.418,45.418,0,0,1,22.724,84.741l-.185-.107V82.81H89.381a.741.741,0,0,0,.695-1L83.659,64.592A8.939,8.939,0,0,0,75.319,58.8H37.509a8.94,8.94,0,0,0-8.341,5.793L22.751,81.81a.741.741,0,0,0,.695,1h2.822v18.318l-.185.083A45.412,45.412,0,0,1,56.414,22Z" transform="translate(-11 -17.922)" fill="#f55a76"/>
  <g id="Grupo_895340" data-name="Grupo 895340" transform="translate(11.518 0)">
    <path id="Trazado_690670" data-name="Trazado 690670" d="M385.7,350.062v23.989a45.575,45.575,0,0,1-7.721-5.589v-18.4Z" transform="translate(-374.416 -285.174)" fill="#ffbd86"/>
    <path id="Trazado_690671" data-name="Trazado 690671" d="M73.2,242.658l6.417-17.218a9.087,9.087,0,0,1,8.515-5.913H125.94a9.087,9.087,0,0,1,8.515,5.913l6.417,17.218a.927.927,0,0,1-.868,1.25H129.759v23.745a45.456,45.456,0,0,1-45.52-.043v-23.7H74.067A.927.927,0,0,1,73.2,242.658Z" transform="translate(-73.14 -178.835)" fill="#af66da"/>
    <path id="Trazado_690672" data-name="Trazado 690672" d="M73.139,219.526h2.394a9.087,9.087,0,0,1,8.515,5.913l6.417,17.218a.927.927,0,0,1-.868,1.25H83.824a.927.927,0,0,0,.868-1.25l-6.417-17.218a9.086,9.086,0,0,0-5.136-5.262v-.651Z" transform="translate(-22.732 -178.834)" fill="#9857bd"/>
    <g id="Grupo_895337" data-name="Grupo 895337" transform="translate(13.959)">
      <g id="Grupo_895325" data-name="Grupo 895325" transform="translate(2.377)">
        <g id="Grupo_895321" data-name="Grupo 895321" transform="translate(0 1.432)">
          <path id="Trazado_690673" data-name="Trazado 690673" d="M287.172,13.45V15.8a3.22,3.22,0,0,0-1.208-.236,3.118,3.118,0,0,0-.934.143,6.943,6.943,0,0,0-4.885,6.655v3.891h-1.176a4.737,4.737,0,0,0-2.575.759V19.219A11.5,11.5,0,0,1,287.889,7.724h2.284A6.969,6.969,0,0,0,287.172,13.45Z" transform="translate(-276.394 -7.724)" fill="#883f2e"/>
          <path id="Trazado_690674" data-name="Trazado 690674" d="M284.871,164.342h1.889a11.356,11.356,0,0,0,7.835,7.017v4.4a4.709,4.709,0,0,0,.386,1.871H284.15a1.854,1.854,0,0,1-1.854-1.854V163.584A4.739,4.739,0,0,0,284.871,164.342Z" transform="translate(-282.296 -134.693)" fill="#883f2e"/>
        </g>
        <g id="Grupo_895323" data-name="Grupo 895323" transform="translate(10.593 0)">
          <path id="Trazado_690675" data-name="Trazado 690675" d="M187.829,19.963h-1.176V19.52a3.267,3.267,0,0,0-3.263-3.263h-7.26a3.623,3.623,0,0,1-2.471-.969l-5.538-5.135a3.3,3.3,0,0,0-1.194-.708V7.158A7.158,7.158,0,0,1,174.085,0h4.824A11.5,11.5,0,0,1,190.4,11.495v9.226A4.737,4.737,0,0,0,187.829,19.963Z" transform="translate(-166.927 0)" fill="#a44f3e"/>
          <g id="Grupo_895322" data-name="Grupo 895322" transform="translate(10.792 30.322)">
            <path id="Trazado_690676" data-name="Trazado 690676" d="M167.313,175.76v-4.4a11.357,11.357,0,0,0,7.835-7.017h1.889a4.736,4.736,0,0,0,2.575-.759v12.194a1.854,1.854,0,0,1-1.854,1.854H166.927A4.709,4.709,0,0,0,167.313,175.76Z" transform="translate(-166.927 -163.583)" fill="#a44f3e"/>
          </g>
        </g>
        <g id="Grupo_895324" data-name="Grupo 895324" transform="translate(17.333)">
          <path id="Trazado_690677" data-name="Trazado 690677" d="M181.089,19.777h-.99V19.52a3.447,3.447,0,0,0-2.194-3.21V11.495A11.494,11.494,0,0,0,166.927.013c.138-.008.277-.013.418-.013h4.824a11.5,11.5,0,0,1,11.495,11.495v9A4.929,4.929,0,0,0,181.089,19.777Z" transform="translate(-166.927 0)" fill="#883f2e"/>
          <path id="Trazado_690678" data-name="Trazado 690678" d="M168.781,176.756v-8.634a11.475,11.475,0,0,0,1.425-2.617h1.76a4.929,4.929,0,0,0,2.575-.722v11.972a1.854,1.854,0,0,1-1.854,1.854h-5.76A1.854,1.854,0,0,0,168.781,176.756Z" transform="translate(-157.803 -134.239)" fill="#883f2e"/>
        </g>
      </g>
      <path id="Trazado_690679" data-name="Trazado 690679" d="M235.225,205.658h3.949a11.284,11.284,0,0,0,2.947-.392v4.451a4.921,4.921,0,1,1-9.843,0v-4.451A11.285,11.285,0,0,0,235.225,205.658Z" transform="translate(-217.788 -167.217)" fill="#f6a96c"/>
      <path id="Trazado_690680" data-name="Trazado 690680" d="M234.724,210.571V206.7h2.006a11.5,11.5,0,0,0,2.947-.383v4.257a4.921,4.921,0,0,1-7.4,4.252,4.918,4.918,0,0,0,2.445-4.252Z" transform="translate(-215.344 -168.071)" fill="#ea9b58"/>
      <g id="Grupo_895326" data-name="Grupo 895326" transform="translate(0 19.777)">
        <path id="Trazado_690681" data-name="Trazado 690681" d="M154.89,114.05V106.7h1.176a4.952,4.952,0,0,1,4.952,4.952v1.585a4.952,4.952,0,0,1-4.952,4.952H154.1A11.245,11.245,0,0,0,154.89,114.05Z" transform="translate(-122.194 -106.696)" fill="#ea9b58"/>
        <path id="Trazado_690682" data-name="Trazado 690682" d="M331.2,106.7h1.176v7.354a11.246,11.246,0,0,0,.786,4.135H331.2a4.952,4.952,0,0,1-4.952-4.952v-1.585A4.952,4.952,0,0,1,331.2,106.7Z" transform="translate(-326.252 -106.696)" fill="#f6a96c"/>
      </g>
      <g id="Grupo_895327" data-name="Grupo 895327" transform="translate(5.942 9.089)">
        <path id="Trazado_690683" data-name="Trazado 690683" d="M194.511,49.962a3.416,3.416,0,0,0-3.333-.776,7.162,7.162,0,0,0-5.015,6.832V67.076a11.5,11.5,0,0,0,11.495,11.495h3.949A11.5,11.5,0,0,0,213.1,67.076V59.465a3.448,3.448,0,0,0-3.448-3.448h-7.26a3.448,3.448,0,0,1-2.345-.92Z" transform="translate(-186.163 -49.034)" fill="#ffbd86"/>
      </g>
      <g id="Grupo_895328" data-name="Grupo 895328" transform="translate(16.454 16.072)">
        <path id="Trazado_690684" data-name="Trazado 690684" d="M196.75,97.685V90.022a3.474,3.474,0,0,0-2.443-3.317h4.835a3.448,3.448,0,0,1,3.448,3.448v7.61a11.5,11.5,0,0,1-11.495,11.495h-3.949c-.332,0-.659-.017-.984-.045A11.573,11.573,0,0,0,196.75,97.685Z" transform="translate(-186.162 -86.705)" fill="#f6a96c"/>
      </g>
      <g id="Grupo_895334" data-name="Grupo 895334" transform="translate(9.854 19.421)">
        <g id="Grupo_895329" data-name="Grupo 895329" transform="translate(7.598 0.797)">
          <path id="Trazado_690685" data-name="Trazado 690685" d="M243.992,116.932a1.39,1.39,0,0,1-.774-2.546l1.082-.723-1.5-2.48a1.39,1.39,0,0,1,2.379-1.439l2.187,3.616a1.39,1.39,0,0,1-.417,1.875l-2.187,1.462A1.384,1.384,0,0,1,243.992,116.932Z" transform="translate(-242.6 -109.073)" fill="#ca6e59"/>
        </g>
        <g id="Grupo_895332" data-name="Grupo 895332">
          <g id="Grupo_895330" data-name="Grupo 895330" transform="translate(0)">
            <ellipse id="Elipse_4761" data-name="Elipse 4761" cx="2.377" cy="2.377" rx="2.377" ry="2.377" fill="#ca6e59"/>
          </g>
          <g id="Grupo_895331" data-name="Grupo 895331" transform="translate(14.358)">
            <ellipse id="Elipse_4762" data-name="Elipse 4762" cx="2.377" cy="2.377" rx="2.377" ry="2.377" fill="#ca6e59"/>
          </g>
        </g>
        <g id="Grupo_895333" data-name="Grupo 895333" transform="translate(3.412 11.066)">
          <path id="Trazado_690686" data-name="Trazado 690686" d="M231.834,169.22a8.089,8.089,0,0,0,5.737-2.373,1.39,1.39,0,1,0-1.966-1.966,5.339,5.339,0,0,1-7.542,0,1.39,1.39,0,0,0-1.966,1.966A8.088,8.088,0,0,0,231.834,169.22Z" transform="translate(-225.69 -164.474)" fill="#ca6e59"/>
        </g>
      </g>
      <g id="Grupo_895336" data-name="Grupo 895336" transform="translate(7.71 15.2)">
        <g id="Grupo_895335" data-name="Grupo 895335">
          <path id="Trazado_690687" data-name="Trazado 690687" d="M275.24,84.78h6.137a1.39,1.39,0,0,0,0-2.78H275.24a1.39,1.39,0,0,0,0,2.78Z" transform="translate(-273.85 -82)" fill="#a44f3e"/>
        </g>
      </g>
    </g>
    <g id="Grupo_895338" data-name="Grupo 895338" transform="translate(20.727 53.229)">
      <path id="Trazado_690688" data-name="Trazado 690688" d="M94.986,296.978l6.154,3.553.537-.93-8.223-4.747a1.349,1.349,0,0,1-.548-1.786,1.313,1.313,0,0,1,1.813-.516l8.27,4.775.537-.93L95.3,291.649a1.349,1.349,0,0,1-.548-1.786,1.313,1.313,0,0,1,1.813-.516l8.27,4.775.537-.93-6.155-3.554a1.349,1.349,0,0,1-.548-1.786,1.313,1.313,0,0,1,1.813-.516l7.954,4.592-.589-2.2a1.7,1.7,0,0,1,1.1-2.076,1.652,1.652,0,0,1,2.072,1.154l1.522,5.681a5.893,5.893,0,0,1,1.826,4.108l14.276,8.242V299h7.535v14.018a4.543,4.543,0,0,1-6.867,3.9l-19-11.307a5.879,5.879,0,0,1-5.749-.075l-10.946-6.32a1.313,1.313,0,0,1-.411-1.9A1.351,1.351,0,0,1,94.986,296.978Z" transform="translate(-92.757 -287.16)" fill="#ffbd86"/>
    </g>
    <g id="Grupo_895339" data-name="Grupo 895339" transform="translate(57.669 65.074)">
      <path id="Trazado_690689" data-name="Trazado 690689" d="M95.358,365.08V351.063h3.885V365.08a4.543,4.543,0,0,1-6.485,4.106A4.508,4.508,0,0,0,95.358,365.08Z" transform="translate(-92.757 -351.063)" fill="#f6a96c"/>
    </g>
  </g>
</svg>
