<svg id="apoyo" xmlns="http://www.w3.org/2000/svg" width="77" height="77" viewBox="0 0 77 77">
  <path id="Trazado_691505" data-name="Trazado 691505" d="M77,38.5A38.486,38.486,0,0,1,41.622,76.876Q40.079,77,38.5,77A38.4,38.4,0,0,1,12.394,66.8q-1.341-1.235-2.561-2.6A38.5,38.5,0,1,1,76.94,36.352Q77,37.417,77,38.5Zm0,0" fill="#52b5d8"/>
  <path id="Trazado_691506" data-name="Trazado 691506" d="M87.249,62.352v34.6H47.527v-34.6a19.861,19.861,0,0,1,39.721,0Zm0,0" transform="translate(-40.38 -36.102)" fill="#55627a"/>
  <path id="Trazado_691507" data-name="Trazado 691507" d="M64,87.327c.365,1.51-2.934,8.347-2.785,9.623H47.527v-34.6a19.862,19.862,0,0,1,19.862-19.86c-7.383,0-12.215,15.509-9.312,37.645C58.6,84.149,62.937,82.933,64,87.327Zm0,0" transform="translate(-40.38 -36.102)" fill="#36435e"/>
  <path id="Trazado_691508" data-name="Trazado 691508" d="M92.915,383.016a38.525,38.525,0,0,1-50.544-12.593l1.761-2.44A5.518,5.518,0,0,1,48.6,365.7H77.411a5.519,5.519,0,0,1,4.471,2.286Zm0,0" transform="translate(-35.999 -310.698)" fill="#f76c59"/>
  <path id="Trazado_691509" data-name="Trazado 691509" d="M151.673,324.871v6.676a6.9,6.9,0,0,1-12.005,0v-6.676Zm0,0" transform="translate(-118.663 -276.014)" fill="#efa492"/>
  <path id="Trazado_691510" data-name="Trazado 691510" d="M106.937,128.89v4.434a15.627,15.627,0,0,1-13.983,15.54,15.8,15.8,0,0,1-1.643.085,15.626,15.626,0,0,1-15.628-15.625V128.89a15.627,15.627,0,0,1,31.253,0Zm0,0" transform="translate(-64.301 -96.232)" fill="#efa492"/>
  <path id="Trazado_691511" data-name="Trazado 691511" d="M125.5,129.372v4.434a15.627,15.627,0,0,1-13.983,15.54,15.627,15.627,0,0,1-13.984-15.54v-4.434a15.628,15.628,0,0,1,13.984-15.54,15.626,15.626,0,0,1,13.983,15.54Zm0,0" transform="translate(-82.867 -96.713)" fill="#ffbda9"/>
  <path id="Trazado_691512" data-name="Trazado 691512" d="M121.665,194.229a2.882,2.882,0,0,0-5.763,0Zm0,0" transform="translate(-98.472 -162.571)" fill="#efa492"/>
  <path id="Trazado_691513" data-name="Trazado 691513" d="M210.7,194.229a2.882,2.882,0,0,0-5.763,0Zm0,0" transform="translate(-174.12 -162.571)" fill="#efa492"/>
  <path id="Trazado_691514" data-name="Trazado 691514" d="M125.574,200.238a1.68,1.68,0,0,1,1.68,1.68v2.633a1.68,1.68,0,0,1-3.359,0v-2.633A1.68,1.68,0,0,1,125.574,200.238Zm0,0" transform="translate(-105.262 -170.124)" fill="#3b404d"/>
  <path id="Trazado_691515" data-name="Trazado 691515" d="M214.613,200.238a1.68,1.68,0,0,1,1.68,1.68v2.633a1.68,1.68,0,1,1-3.359,0v-2.633A1.68,1.68,0,0,1,214.613,200.238Zm0,0" transform="translate(-180.91 -170.124)" fill="#3b404d"/>
  <path id="Trazado_691516" data-name="Trazado 691516" d="M165.976,162.625l-2.41,15.026h2.41" transform="translate(-138.968 -138.168)" fill="#efa492"/>
  <path id="Trazado_691517" data-name="Trazado 691517" d="M97.526,113.325A39.416,39.416,0,0,1,72.7,104.563c0,1.551-1.262,3.415-2.951,4.938-2.289,2.066-5.36,3.5-7.125,2.657l-.438-4.673,3.652-7.741,5.479-1.382L81.461,95.8l12.561,4.966Zm0,0" transform="translate(-52.832 -81.393)" fill="#55627a"/>
  <path id="Trazado_691518" data-name="Trazado 691518" d="M71.314,102.9a53.392,53.392,0,0,0-1.566,11.139c-2.289,2.066-5.361,3.5-7.126,2.657l-.438-4.673,3.9-10.88Zm0,0" transform="translate(-52.832 -85.933)" fill="#36435e"/>
  <g id="Grupo_895585" data-name="Grupo 895585" transform="translate(15.043 37.085)">
    <path id="Trazado_691519" data-name="Trazado 691519" d="M226.36,248.014c0-.787-1.3-1.424-2.9-1.424s-2.9.637-2.9,1.424,1.3,1.424,2.9,1.424S226.36,248.8,226.36,248.014Zm0,0" transform="translate(-202.428 -246.59)" fill="#efa492"/>
    <path id="Trazado_691520" data-name="Trazado 691520" d="M105.829,248.014c0-.787-1.3-1.424-2.9-1.424s-2.9.637-2.9,1.424,1.3,1.424,2.9,1.424S105.829,248.8,105.829,248.014Zm0,0" transform="translate(-100.023 -246.59)" fill="#efa492"/>
    <path id="Trazado_691521" data-name="Trazado 691521" d="M161.422,297.231a8.36,8.36,0,0,1-3.415-.745.914.914,0,0,1-.339-.965c.07-.418.337-.665.594-.55a7.587,7.587,0,0,0,6.321,0c.257-.114.523.132.594.55a.915.915,0,0,1-.339.965A8.364,8.364,0,0,1,161.422,297.231Zm0,0" transform="translate(-148.984 -287.671)" fill="#efa492"/>
  </g>
  <path id="Trazado_691522" data-name="Trazado 691522" d="M71.535,30.964H67.9V23.28a19.609,19.609,0,0,0-39.218,0v7.685H25.055V23.28a23.24,23.24,0,1,1,46.481,0Zm0,0" transform="translate(-21.287 -0.033)" fill="#f76c59"/>
  <path id="Trazado_691523" data-name="Trazado 691523" d="M283.473,270.585H279.8v-3.631h3.672a.867.867,0,0,0,.866-.866v-3.673h3.631v3.673A4.5,4.5,0,0,1,283.473,270.585Zm0,0" transform="translate(-237.721 -222.949)" fill="#f76c59"/>
  <path id="Trazado_691524" data-name="Trazado 691524" d="M57,365.7l-6,2.437a7.427,7.427,0,0,0-4.068,4.061l-1.108,2.7a38.566,38.566,0,0,1-3.46-4.475l1.761-2.44A5.518,5.518,0,0,1,48.6,365.7Zm0,0" transform="translate(-35.999 -310.698)" fill="#e85142"/>
  <path id="Trazado_691525" data-name="Trazado 691525" d="M296.924,148.93h-3.087a3.177,3.177,0,0,0-3.177,3.177V162.82A3.177,3.177,0,0,0,293.837,166h3.087a3.177,3.177,0,0,0,3.177-3.177V152.107A3.177,3.177,0,0,0,296.924,148.93Zm0,0" transform="translate(-246.948 -126.532)" fill="#ffda73"/>
  <path id="Trazado_691526" data-name="Trazado 691526" d="M12,148.93H8.915a3.177,3.177,0,0,0-3.177,3.177V162.82A3.177,3.177,0,0,0,8.915,166H12a3.177,3.177,0,0,0,3.177-3.177V152.107A3.177,3.177,0,0,0,12,148.93Zm0,0" transform="translate(-4.875 -126.532)" fill="#ffda73"/>
  <path id="Trazado_691527" data-name="Trazado 691527" d="M300.1,215.934v3.813a3.176,3.176,0,0,1-3.178,3.177h-3.087a3.176,3.176,0,0,1-3.178-3.177v-3.813a3.176,3.176,0,0,0,3.178,3.178h3.087A3.176,3.176,0,0,0,300.1,215.934Zm0,0" transform="translate(-246.948 -183.459)" fill="#f9a54b"/>
  <path id="Trazado_691528" data-name="Trazado 691528" d="M15.18,215.934v3.813A3.176,3.176,0,0,1,12,222.924H8.916a3.176,3.176,0,0,1-3.178-3.177v-3.813a3.176,3.176,0,0,0,3.178,3.178H12A3.176,3.176,0,0,0,15.18,215.934Zm0,0" transform="translate(-4.875 -183.459)" fill="#f9a54b"/>
  <path id="Trazado_691529" data-name="Trazado 691529" d="M251.114,283.543h-1.788a3.131,3.131,0,1,0,0,6.262h1.788a3.131,3.131,0,0,0,0-6.262Zm0,0" transform="translate(-209.17 -240.901)" fill="#3b404d"/>
  <path id="Trazado_691530" data-name="Trazado 691530" d="M111.639,403.047v16.262q-1.544.122-3.122.124a38.4,38.4,0,0,1-26.106-10.2v-6.181Zm0,0" transform="translate(-70.016 -342.432)" fill="#e6e6e6"/>
  <path id="Trazado_691531" data-name="Trazado 691531" d="M104.691,434.43h22.526v2.829H104.691Zm0,0" transform="translate(-88.947 -369.096)" fill="#55627a"/>
  <path id="Trazado_691532" data-name="Trazado 691532" d="M137.449,470.84v2.829H121.925a38.212,38.212,0,0,1-5.191-2.829Zm0,0" transform="translate(-99.179 -400.03)" fill="#55627a"/>
  <path id="Trazado_691533" data-name="Trazado 691533" d="M317.858,14.568C317.858,6.522,310.165,0,300.675,0s-17.183,6.522-17.183,14.568c0,6.8,5.5,12.513,12.929,14.117v5.68l5.953-5.3C311.067,28.342,317.858,22.127,317.858,14.568Zm0,0" transform="translate(-240.858)" fill="#e6e6e6"/>
  <path id="Trazado_691534" data-name="Trazado 691534" d="M371.131,235.175a38.354,38.354,0,0,1-9.542,25.371c-8.651-.759-15.394-6.957-15.394-14.49,0-8.044,7.692-14.567,17.182-14.567a19.676,19.676,0,0,1,7.693,1.538Q371.13,234.092,371.131,235.175Zm0,0" transform="translate(-294.131 -196.675)" fill="#e6e6e6"/>
  <path id="Trazado_691535" data-name="Trazado 691535" d="M386.736,40.927c0,.65.5,1.038,1.333,1.038.515,0,1.333-.281,1.333-1.038,0-1.768.1-3.867.187-5.9s.187-4.128.187-5.9a1.541,1.541,0,0,0-1.708-1.494,1.51,1.51,0,0,0-1.681,1.494c0,1.769.089,3.868.174,5.9S386.736,39.159,386.736,40.927Zm0,0" transform="translate(-328.278 -23.484)" fill="#f76c59"/>
  <path id="Trazado_691536" data-name="Trazado 691536" d="M387.338,135.461A1.823,1.823,0,0,0,385.5,137.3a1.844,1.844,0,0,0,1.842,1.842,1.89,1.89,0,0,0,1.842-1.842A1.867,1.867,0,0,0,387.338,135.461Zm0,0" transform="translate(-327.521 -115.089)" fill="#f76c59"/>
  <path id="Trazado_691537" data-name="Trazado 691537" d="M425.411,272.6c-1.147,1.041-1.174,2-1.174,3.737,0,.427-.267.827-1.121.827-.721,0-1.041-.294-1.041-1.228,0-2.669.721-3.71,1.441-4.377,1.041-.961,2.856-2.028,2.856-4.216,0-1.708-1.174-2.7-3.069-2.7-2.535,0-2.429,1.655-3.443,1.655a1.094,1.094,0,0,1-1.094-1.094c0-1.121,1.735-2.722,4.617-2.722,3.39,0,5.338,2,5.338,4.59C428.721,270.033,426.292,271.688,425.411,272.6Zm-.694,8.14a1.6,1.6,0,0,1-1.574,1.6,1.6,1.6,0,0,1,0-3.2A1.6,1.6,0,0,1,424.717,280.735Zm0,0" transform="translate(-355.787 -223.006)" fill="#55627a"/>
</svg>
