<svg xmlns="http://www.w3.org/2000/svg" xmlns:xlink="http://www.w3.org/1999/xlink" width="85" height="79.119" viewBox="0 0 85 79.119">
  <defs>
    <filter id="Elipse_7687" x="4" y="2.119" width="77" height="77" filterUnits="userSpaceOnUse">
      <feOffset dy="3" input="SourceAlpha"/>
      <feGaussianBlur stdDeviation="3" result="blur"/>
      <feFlood flood-opacity="0.161"/>
      <feComposite operator="in" in2="blur"/>
      <feComposite in="SourceGraphic"/>
    </filter>
  </defs>
  <g id="Grupo_1005928" data-name="Grupo 1005928" transform="translate(-180 -4614)">
    <g id="Grupo_991062" data-name="Grupo 991062" transform="translate(180 4614)">
      <rect id="Rectángulo_33792" data-name="Rectángulo 33792" width="85" height="79" rx="5" fill="#4db1f0"/>
      <g id="profesor_1_" data-name="profesor (1)" transform="translate(-10.992 -14)">
        <path id="Trazado_701717" data-name="Trazado 701717" d="M176.523,55.562l-.336,3.019-.226,2.034H147.486l-.226-2.034-.336-3.019a15.648,15.648,0,0,1,1.17-7.89,15.662,15.662,0,0,0,1.246-6.945l-.177-3.519a12.577,12.577,0,1,1,25.122,0l-.177,3.519a15.663,15.663,0,0,0,1.246,6.945,15.64,15.64,0,0,1,1.17,7.89Z" transform="translate(-107.214 -0.005)" fill="#4db1f0"/>
        <path id="Trazado_701718" data-name="Trazado 701718" d="M257.2,55.557l-.336,3.019H245.456V47.389l2.034-4.068V35.186a11.2,11.2,0,0,0-8.23-10.791A12.59,12.59,0,0,1,254.966,37.2l-.177,3.519a15.662,15.662,0,0,0,1.246,6.945A15.639,15.639,0,0,1,257.2,55.557Z" transform="translate(-187.896 0)" fill="#4db1f0"/>
        <path id="Trazado_701719" data-name="Trazado 701719" d="M220.61,224.136a1.423,1.423,0,0,1-1.424-1.424V216h-8.136v6.712a1.423,1.423,0,0,1-1.424,1.424H208v6.1h14.238v-6.1Z" transform="translate(-160.61 -167.594)" fill="#4db1f0"/>
        <path id="Trazado_701720" data-name="Trazado 701720" d="M236.681,221.085a5.58,5.58,0,0,0,3.455-1.247V216H232v3.838a5.58,5.58,0,0,0,3.455,1.247Z" transform="translate(-181.559 -167.594)" fill="#4db1f0"/>
        <path id="Trazado_701721" data-name="Trazado 701721" d="M210.306,86.1v5.085a9.153,9.153,0,0,1-18.305,0V86.1a13.8,13.8,0,0,0,4.691-5.314l.394-.788.577.482a25.392,25.392,0,0,0,12.644,5.62Z" transform="translate(-146.644 -48.882)" fill="#4db1f0"/>
        <path id="Trazado_701722" data-name="Trazado 701722" d="M285.159,121.619V126.7a9.157,9.157,0,0,1-7.4,8.986,11.146,11.146,0,0,0,3.336-7.969V120.69A25.363,25.363,0,0,0,285.159,121.619Z" transform="translate(-221.498 -84.4)" fill="#4db1f0"/>
        <path id="Trazado_701723" data-name="Trazado 701723" d="M217.525,139.051a1.525,1.525,0,1,1,1.525-1.525A1.525,1.525,0,0,1,217.525,139.051Z" transform="translate(-167.593 -97.763)" fill="#4db1f0"/>
        <path id="Trazado_701724" data-name="Trazado 701724" d="M289.525,139.051a1.525,1.525,0,1,1,1.525-1.525A1.525,1.525,0,0,1,289.525,139.051Z" transform="translate(-230.44 -97.763)" fill="#4db1f0"/>
        <path id="Trazado_701725" data-name="Trazado 701725" d="M243.051,179.051A3.054,3.054,0,0,1,240,176h2.034a1.017,1.017,0,0,0,2.034,0H246.1A3.054,3.054,0,0,1,243.051,179.051Z" transform="translate(-188.542 -132.678)" fill="#4db1f0"/>
        <path id="Trazado_701726" data-name="Trazado 701726" d="M224,312h10.17v7.119H224Z" transform="translate(-174.576 -251.39)" fill="#4db1f0"/>
        <path id="Trazado_701727" data-name="Trazado 701727" d="M124.051,306.4a3.087,3.087,0,0,1-3.428-2.048l-6.717-12.6a7.92,7.92,0,0,1-1.419,7.573v8.136H94.181v-8.136a7.932,7.932,0,0,1-1.4-7.667l-6.826,12.7a3.086,3.086,0,1,1-5.859-1.937l7.467-18.586A6.1,6.1,0,0,1,93.221,280h4.011l6.1,11.187,6.1-11.187h4a6.107,6.107,0,0,1,5.67,3.848l7.382,18.566a3.087,3.087,0,0,1-2.432,3.985Z" transform="translate(-48.825 -223.458)" fill="#4db1f0"/>
        <path id="Trazado_701728" data-name="Trazado 701728" d="M74.161,393.535,74.894,384H81v9.8a3.423,3.423,0,1,1-6.835-.263Z" transform="translate(-43.775 -314.237)" fill="#4db1f0"/>
        <path id="Trazado_701729" data-name="Trazado 701729" d="M33.511,266.892a1.978,1.978,0,0,0-1.29,2.8l.931,1.861H29.508a6.1,6.1,0,0,1-2.729-.644l-1.013-.507A1.22,1.22,0,0,0,24,271.5v2.87a2.034,2.034,0,0,0,1.124,1.819l1.655.828a6.1,6.1,0,0,0,2.729.644h7.712v-6.1l-1.393-3.482A1.978,1.978,0,0,0,33.511,266.892Z" transform="translate(0 -211.964)" fill="#4db1f0"/>
        <path id="Trazado_701730" data-name="Trazado 701730" d="M80,352h6.1v4.068H80Z" transform="translate(-48.881 -286.305)" fill="#4db1f0"/>
        <path id="Trazado_701731" data-name="Trazado 701731" d="M224.165,310.1a3.087,3.087,0,0,1-3.428-2.048l-6.717-12.6a7.92,7.92,0,0,1-1.419,7.573v8.136H194.63c8.394-5.481,15.476-12.438,21.42-26.919a6.092,6.092,0,0,1,3.165,3.309l7.382,18.566a3.087,3.087,0,0,1-2.432,3.985Z" transform="translate(-148.939 -227.159)" fill="#4db1f0"/>
        <path id="Trazado_701732" data-name="Trazado 701732" d="M306.17,352.272,296,350.238V336l10.17,2.034Z" transform="translate(-237.423 -272.339)" fill="#4db1f0"/>
        <path id="Trazado_701733" data-name="Trazado 701733" d="M408,352.272l10.17-2.034V336L408,338.034Z" transform="translate(-335.185 -272.339)" fill="#4db1f0"/>
        <path id="Trazado_701734" data-name="Trazado 701734" d="M376,352h4.068v14.238H376Z" transform="translate(-307.253 -286.305)" fill="#4db1f0"/>
        <path id="Trazado_701735" data-name="Trazado 701735" d="M308.2,317.085a3.6,3.6,0,0,0-3.009-3.553L296,312v3.051l10.17,2.034H308.2a3.6,3.6,0,0,1,3.009-3.553L320.407,312v3.051l-10.17,2.034Z" transform="translate(-237.423 -251.39)" fill="#4db1f0"/>
        <path id="Trazado_701736" data-name="Trazado 701736" d="M437.252,422.007l-4.068.678a1.017,1.017,0,0,1-1.184-1V417.9a1.324,1.324,0,0,1,1.106-1.306l3.454-.576a1.324,1.324,0,0,1,1.542,1.306V421a1.017,1.017,0,0,1-.85,1Z" transform="translate(-356.134 -342.171)" fill="#4db1f0"/>
      </g>
    </g>
    <g transform="matrix(1, 0, 0, 1, 180, 4614)" filter="url(#Elipse_7687)">
      <circle id="Elipse_7687-2" data-name="Elipse 7687" cx="29.5" cy="29.5" r="29.5" transform="translate(13 8.12)" fill="#bfe5f9"/>
    </g>
    <g id="Filled_outline" data-name="Filled outline" transform="translate(176.844 4609.57)">
      <path id="Trazado_701737" data-name="Trazado 701737" d="M175.692,54.68l-.326,2.935-.22,1.977H147.467l-.22-1.977-.326-2.935a15.21,15.21,0,0,1,1.137-7.67,15.224,15.224,0,0,0,1.211-6.75l-.172-3.42a12.225,12.225,0,1,1,24.419,0l-.172,3.42a15.224,15.224,0,0,0,1.211,6.75,15.2,15.2,0,0,1,1.137,7.67Z" transform="translate(-114.662 -7.016)" fill="#8f4d2e"/>
      <path id="Trazado_701738" data-name="Trazado 701738" d="M256.7,54.674l-.326,2.935H245.283V46.735l1.977-3.954V34.873a10.885,10.885,0,0,0-8-10.489,12.238,12.238,0,0,1,15.267,12.45l-.172,3.42A15.224,15.224,0,0,0,255.566,47,15.2,15.2,0,0,1,256.7,54.674Z" transform="translate(-195.673 -7.011)" fill="#82462a"/>
      <path id="Trazado_701739" data-name="Trazado 701739" d="M220.258,223.908a1.383,1.383,0,0,1-1.384-1.384V216h-7.908v6.524a1.383,1.383,0,0,1-1.384,1.384H208v5.931h13.839v-5.931Z" transform="translate(-168.275 -175.287)" fill="#fec9a3"/>
      <path id="Trazado_701740" data-name="Trazado 701740" d="M236.55,220.943a5.424,5.424,0,0,0,3.358-1.212V216H232v3.73a5.424,5.424,0,0,0,3.358,1.212Z" transform="translate(-189.31 -175.287)" fill="#feb784"/>
      <path id="Trazado_701741" data-name="Trazado 701741" d="M209.793,85.931v4.943a8.9,8.9,0,1,1-17.793,0V85.931a13.411,13.411,0,0,0,4.56-5.165l.383-.766.561.468a24.681,24.681,0,0,0,12.29,5.463Z" transform="translate(-154.253 -56.092)" fill="#fec9a3"/>
      <path id="Trazado_701742" data-name="Trazado 701742" d="M284.952,121.593v4.943a8.9,8.9,0,0,1-7.2,8.734A10.835,10.835,0,0,0,281,127.524V120.69A24.652,24.652,0,0,0,284.952,121.593Z" transform="translate(-229.411 -91.754)" fill="#fec093"/>
      <path id="Trazado_701743" data-name="Trazado 701743" d="M224,312h9.885v6.92H224Z" transform="translate(-182.298 -259.425)" fill="#e0e0de"/>
      <path id="Trazado_701744" data-name="Trazado 701744" d="M122.817,305.661a3,3,0,0,1-3.333-1.991l-6.529-12.249a7.7,7.7,0,0,1-1.379,7.361v7.908H93.783v-7.908a7.711,7.711,0,0,1-1.364-7.452L85.783,303.67a3,3,0,1,1-5.7-1.883l7.258-18.066A5.929,5.929,0,0,1,92.85,280h3.9l5.931,10.874L108.611,280h3.884a5.936,5.936,0,0,1,5.511,3.74l7.175,18.047a3,3,0,0,1-2.364,3.874Z" transform="translate(-56.035 -231.379)" fill="#ec8c8c"/>
      <path id="Trazado_701745" data-name="Trazado 701745" d="M74.16,393.269,74.873,384H80.8v9.524a3.327,3.327,0,1,1-6.644-.255Z" transform="translate(-50.965 -322.528)" fill="#f59898"/>
      <path id="Trazado_701746" data-name="Trazado 701746" d="M33.245,266.89a1.923,1.923,0,0,0-1.254,2.725l.9,1.809H29.354A5.931,5.931,0,0,1,26.7,270.8l-.985-.492A1.186,1.186,0,0,0,24,271.367v2.79a1.977,1.977,0,0,0,1.093,1.768l1.609.8a5.931,5.931,0,0,0,2.652.626h7.5v-5.931L35.5,268.041A1.923,1.923,0,0,0,33.245,266.89Z" transform="translate(-7.012 -219.838)" fill="#fec9a3"/>
      <path id="Trazado_701747" data-name="Trazado 701747" d="M80,352h5.931v3.954H80Z" transform="translate(-56.092 -294.482)" fill="#e0e0de"/>
      <path id="Trazado_701748" data-name="Trazado 701748" d="M223.339,309.377a3,3,0,0,1-3.333-1.991l-6.529-12.249A7.7,7.7,0,0,1,212.1,302.5v7.908H194.63c8.159-5.328,15.043-12.09,20.821-26.166a5.922,5.922,0,0,1,3.077,3.216L225.7,305.5a3,3,0,0,1-2.364,3.874Z" transform="translate(-156.558 -235.095)" fill="#e07f7f"/>
      <path id="Trazado_701749" data-name="Trazado 701749" d="M305.885,351.816,296,349.839V336l9.885,1.977Z" transform="translate(-245.402 -280.459)" fill="#a36548"/>
      <path id="Trazado_701750" data-name="Trazado 701750" d="M408,351.816l9.885-1.977V336L408,337.977Z" transform="translate(-343.562 -280.459)" fill="#8f4d2e"/>
      <path id="Trazado_701751" data-name="Trazado 701751" d="M376,352h3.954v13.839H376Z" transform="translate(-315.516 -294.482)" fill="#95573a"/>
      <path id="Trazado_701752" data-name="Trazado 701752" d="M307.862,316.943a3.5,3.5,0,0,0-2.925-3.453L296,312v2.966l9.885,1.977h1.977a3.5,3.5,0,0,1,2.925-3.453L319.725,312v2.966l-9.885,1.977Z" transform="translate(-245.402 -259.425)" fill="#d4bd81"/>
      <path id="Trazado_701753" data-name="Trazado 701753" d="M437.105,421.839l-3.954.659a.989.989,0,0,1-1.151-.975v-3.674a1.287,1.287,0,0,1,1.075-1.269l3.357-.56a1.287,1.287,0,0,1,1.5,1.269v3.575a.989.989,0,0,1-.826.975Z" transform="translate(-364.597 -350.575)" fill="#fec9a3"/>
      <path id="Trazado_701757" data-name="Trazado 701757" d="M74.962,51.822a.99.99,0,0,0-.8-.221l-8.937,1.49a4.5,4.5,0,0,0-1.656.627L62.886,52A6.584,6.584,0,0,0,61.752,50.1l.258-2.337a17.123,17.123,0,0,0,.1-1.794A16.133,16.133,0,0,0,60.8,39.6a14.278,14.278,0,0,1-1.128-6.314l.168-3.422c.01-.216.021-.439.021-.66a13.214,13.214,0,1,0-26.412.661l.168,3.41c.01.255.019.5.019.733A14.092,14.092,0,0,1,32.489,39.6a16.153,16.153,0,0,0-1.211,8.17l.257,2.305a6.711,6.711,0,0,0-.783,1.132L29.4,47.837A2.912,2.912,0,1,0,24.1,50.22l.19.378H22.343a4.967,4.967,0,0,1-2.21-.522l-.985-.493A2.175,2.175,0,0,0,16,51.529v2.79a2.949,2.949,0,0,0,1.639,2.652l1.609.8a6.955,6.955,0,0,0,3.094.731h.577v2.927l-.71,9.231a4.316,4.316,0,0,0,4.3,4.646q.11,0,.218-.006c.063,0,.126.005.189.005A3.979,3.979,0,0,0,30.657,72.7l4.512-8.39a8.646,8.646,0,0,0,1.59,3.442v7.562h1.977V67.4a.989.989,0,0,0-.229-.633,6.74,6.74,0,0,1,.862-9.482L38.1,55.77a8.714,8.714,0,0,0-1.228,1.254,1.017,1.017,0,0,0-.1.124h0l-.018.031-.012.022a8.656,8.656,0,0,0-1.285,2.4l-4.628,8.605V56.2l1.4-3.5a4.738,4.738,0,0,1,1.04-1.6,5,5,0,0,1,3.545-1.494h3.308l5.65,10.359a.989.989,0,0,0,1.736,0l2.1-3.846V69.38a.989.989,0,0,0,.795.969l4.148.83v4.132h1.977V71.575l3.782.755c.025,0,.139.016.172.016h1.87l.19.354A4,4,0,0,0,66.3,75.311a3.721,3.721,0,0,0,.652-.054,4.006,4.006,0,0,0,3.094-2.581l2.629-.438a1.969,1.969,0,0,0,1.647-1.849l.2-.04a.989.989,0,0,0,.8-.969v-16.8a.989.989,0,0,0-.35-.754Zm-32.7-2.416a2.374,2.374,0,0,0,1.412-2.168V44.212a9.89,9.89,0,0,0,5.931,0v3.025A2.374,2.374,0,0,0,51.022,49.4l-1.19,2.182H43.456Zm4.378-6.715a7.917,7.917,0,0,1-7.908-7.908V30.356a14.441,14.441,0,0,0,4.278-4.9,25.606,25.606,0,0,0,11.538,5.223v4.1a7.917,7.917,0,0,1-7.908,7.908ZM60,51.12l.018.019a4.581,4.581,0,0,1,1.026,1.583l.425,1.072a4.5,4.5,0,0,0-1.774-.7L51.967,51.8l1.2-2.192h3.3A4.9,4.9,0,0,1,60,51.12Zm.578,5.409-4.5-.9-4.5-.9v-.989l7.786,1.3a2.5,2.5,0,0,1,1.9,1.49Zm4.967-1.489,7.786-1.3v.989l-4.649.93-4.345.869h-.69a2.5,2.5,0,0,1,1.9-1.489Zm-45.416.968-1.609-.8a.983.983,0,0,1-.546-.884v-2.79a.2.2,0,0,1,.286-.177l.985.493a6.955,6.955,0,0,0,3.094.731h3.542a.989.989,0,0,0,.884-1.431l-.9-1.81a.934.934,0,1,1,1.7-.765l1.283,3.207v4.752H22.343A4.967,4.967,0,0,1,20.132,56.008Zm8.718,2.5v1.977H24.9V58.507Zm-4.67,12.31.643-8.356h4.027V71a2.34,2.34,0,0,1-2.169,2.33,1.01,1.01,0,0,0-.111.006c-.02,0-.038,0-.058,0a2.338,2.338,0,0,1-2.331-2.518ZM36.775,57.149a.986.986,0,0,1,.063-.076l-.06.078Zm-3.418-8.582-.113-1.016a14.173,14.173,0,0,1,1.063-7.169,16.057,16.057,0,0,0,1.306-6.371c0-.276-.01-.547-.021-.82l-.168-3.421a11.237,11.237,0,1,1,22.461-.564c0,.174-.009.364-.019.564L57.7,33.189a16.263,16.263,0,0,0,1.284,7.19,14.168,14.168,0,0,1,1.156,5.593,15.144,15.144,0,0,1-.093,1.582l-.112,1.019a6.914,6.914,0,0,0-3.472-.94H51.982a.4.4,0,0,1-.4-.4v-3.9a9.888,9.888,0,0,0,4.943-8.555V29.839a.989.989,0,0,0-.849-.979,23.635,23.635,0,0,1-11.8-5.244l-.561-.468a.989.989,0,0,0-1.517.317l-.383.766A12.454,12.454,0,0,1,37.2,29.017a.989.989,0,0,0-.44.823v4.943A9.888,9.888,0,0,0,41.7,43.337v3.9a.4.4,0,0,1-.4.4H36.818a6.964,6.964,0,0,0-3.462.934Zm13.288,8.864-2.109-3.867h4.218Zm4.943-.684,7.908,1.582V70.152L51.587,68.57Zm9.885,1.76h1.977V70.369H61.472Zm5.136,14.8a1.767,1.767,0,0,1-.312.025,2.025,2.025,0,0,1-1.742-1l.055-.008.022,0h.008l2.032-.406a1.951,1.951,0,0,0,1,.867A2.061,2.061,0,0,1,66.608,73.31Zm5.737-3.022-3.954.659V67.273a.3.3,0,0,1,.249-.294L72,66.419a.323.323,0,0,1,.051,0,.3.3,0,0,1,.3.3v3.575Zm-.672-5.819-3.358.56a2.268,2.268,0,0,0-1.9,2.244v2.681l-.989.2V58.329l7.908-1.582v8.091a2.269,2.269,0,0,0-1.661-.369Z"/>
    </g>
  </g>
</svg>
