<svg xmlns="http://www.w3.org/2000/svg" width="72.277" height="77.44" viewBox="0 0 72.277 77.44">
  <g id="blogging" transform="translate(-17.07)">
    <path id="Trazado_694889" data-name="Trazado 694889" d="M89.346,221.28v-28.4a5.163,5.163,0,0,0-5.163-5.163H22.233a5.163,5.163,0,0,0-5.163,5.163v28.4l36.138,3.871Z" transform="translate(0 -159.329)" fill="#daebfe"/>
    <path id="Trazado_694890" data-name="Trazado 694890" d="M442.265,192.885v28.779l3.584-.384v-28.4a5.163,5.163,0,0,0-5.163-5.163H437.1A5.163,5.163,0,0,1,442.265,192.885Z" transform="translate(-356.502 -159.329)" fill="#bdd6ff"/>
    <g id="Grupo_896033" data-name="Grupo 896033" transform="translate(24.814 0)">
      <path id="Trazado_694891" data-name="Trazado 694891" d="M68.27,39.3V91.7h56.788V39.3L96.664,34.133Z" transform="translate(-68.27 -28.97)" fill="#f8f6f6"/>
      <path id="Trazado_694892" data-name="Trazado 694892" d="M102.4,103.69v6.453a1.291,1.291,0,0,0,1.291,1.291h2.581a1.291,1.291,0,0,0,1.291-1.291v-1.936a.645.645,0,0,1,.645-.645h3.872a.645.645,0,0,1,.645.645v14.2a.645.645,0,0,1-.645.645h-1.936a1.291,1.291,0,0,0-1.291,1.291v2.581a1.291,1.291,0,0,0,1.291,1.291h10.325a1.291,1.291,0,0,0,1.291-1.291V124.34a1.291,1.291,0,0,0-1.291-1.291h-1.936a.645.645,0,0,1-.645-.645v-14.2a.645.645,0,0,1,.645-.645h3.872a.645.645,0,0,1,.645.645v1.936a1.291,1.291,0,0,0,1.291,1.291h2.581a1.291,1.291,0,0,0,1.291-1.291V103.69a1.291,1.291,0,0,0-1.291-1.291H103.694a1.29,1.29,0,0,0-1.291,1.291Z" transform="translate(-97.24 -86.911)" fill="#444"/>
      <path id="Trazado_694893" data-name="Trazado 694893" d="M321.78,107.561H308.107a.907.907,0,0,1-.908-.908v-3.348a.907.907,0,0,1,.908-.908H321.78a.907.907,0,0,1,.908.908v3.348A.908.908,0,0,1,321.78,107.561Z" transform="translate(-271.062 -86.91)" fill="#ffa031"/>
      <g id="Grupo_896025" data-name="Grupo 896025" transform="translate(34.97 24.644)">
        <path id="Trazado_694894" data-name="Trazado 694894" d="M316.129,165.275H300.642a1.169,1.169,0,0,1,0-2.337h15.488a1.169,1.169,0,0,1,0,2.337Z" transform="translate(-299.473 -162.938)" fill="#444"/>
      </g>
      <g id="Grupo_896026" data-name="Grupo 896026" transform="translate(34.97 29.807)">
        <path id="Trazado_694895" data-name="Trazado 694895" d="M316.129,199.408H300.642a1.169,1.169,0,0,1,0-2.337h15.488a1.169,1.169,0,0,1,0,2.337Z" transform="translate(-299.473 -197.071)" fill="#444"/>
      </g>
      <g id="Grupo_896027" data-name="Grupo 896027" transform="translate(34.97 34.97)">
        <path id="Trazado_694896" data-name="Trazado 694896" d="M316.129,233.541H300.642a1.169,1.169,0,0,1,0-2.337h15.488a1.169,1.169,0,0,1,0,2.337Z" transform="translate(-299.473 -231.204)" fill="#444"/>
      </g>
      <g id="Grupo_896028" data-name="Grupo 896028" transform="translate(34.97 40.132)">
        <path id="Trazado_694897" data-name="Trazado 694897" d="M305.8,267.674h-5.163a1.169,1.169,0,0,1,0-2.337H305.8a1.169,1.169,0,1,1,0,2.337Z" transform="translate(-299.473 -265.337)" fill="#444"/>
      </g>
      <path id="Trazado_694898" data-name="Trazado 694898" d="M147.576,324.261a1.291,1.291,0,0,1,1.291,1.291v5.163A1.291,1.291,0,0,1,147.576,332H103.694a1.291,1.291,0,0,1-1.291-1.291v-5.163a1.291,1.291,0,0,1,1.291-1.291Z" transform="translate(-97.24 -275.216)" fill="#e2e2e2"/>
      <path id="Trazado_694899" data-name="Trazado 694899" d="M420.039,117.015h3.583V64.61l-3.583-.652Z" transform="translate(-366.834 -54.284)" fill="#e2e2e2"/>
      <path id="Trazado_694900" data-name="Trazado 694900" d="M122.565,0h-51.8A2.493,2.493,0,0,0,68.27,2.493v7.832h56.788V2.493A2.493,2.493,0,0,0,122.565,0Z" transform="translate(-68.27 0)" fill="#8ac9fe"/>
      <path id="Trazado_694901" data-name="Trazado 694901" d="M407.139,0h-3.583a2.493,2.493,0,0,1,2.493,2.493v7.832h3.583V2.493A2.493,2.493,0,0,0,407.139,0Z" transform="translate(-352.844 0)" fill="#60b7ff"/>
      <g id="Grupo_896029" data-name="Grupo 896029" transform="translate(3.994 3.994)">
        <path id="Trazado_694902" data-name="Trazado 694902" d="M97.136,28.744H95.846a1.169,1.169,0,1,1,0-2.337h1.291a1.169,1.169,0,1,1,0,2.337Z" transform="translate(-94.677 -26.407)" fill="#d83131"/>
      </g>
      <g id="Grupo_896030" data-name="Grupo 896030" transform="translate(10.447 3.994)">
        <path id="Trazado_694903" data-name="Trazado 694903" d="M139.8,28.744h-1.291a1.169,1.169,0,1,1,0-2.337H139.8a1.169,1.169,0,1,1,0,2.337Z" transform="translate(-137.343 -26.407)" fill="#fedf30"/>
      </g>
      <g id="Grupo_896031" data-name="Grupo 896031" transform="translate(16.901 3.994)">
        <path id="Trazado_694904" data-name="Trazado 694904" d="M182.468,28.744h-1.291a1.169,1.169,0,1,1,0-2.337h1.291a1.169,1.169,0,1,1,0,2.337Z" transform="translate(-180.009 -26.407)" fill="#a2e62e"/>
      </g>
      <g id="Grupo_896032" data-name="Grupo 896032" transform="translate(5.952 15.488)">
        <path id="Trazado_694905" data-name="Trazado 694905" d="M112,139.112v-1.936a.645.645,0,0,1,.645-.645h-3.584a.645.645,0,0,0-.645.645v1.936a1.291,1.291,0,0,1-.789,1.19,1.286,1.286,0,0,0,.5.1H110.7A1.291,1.291,0,0,0,112,139.112Z" transform="translate(-107.622 -131.368)" fill="#333"/>
        <path id="Trazado_694906" data-name="Trazado 694906" d="M187.271,152.019h-1.936a.645.645,0,0,1-.645-.645v-14.2a.645.645,0,0,1,.645-.645h-3.584a.645.645,0,0,0-.645.645v14.2a.645.645,0,0,0,.645.645h1.936a1.291,1.291,0,0,1,1.291,1.291v2.581a1.291,1.291,0,0,1-1.291,1.291h3.584a1.291,1.291,0,0,0,1.291-1.291v-2.581A1.291,1.291,0,0,0,187.271,152.019Z" transform="translate(-169.992 -131.368)" fill="#333"/>
        <path id="Trazado_694907" data-name="Trazado 694907" d="M244.423,102.4h-3.584a1.291,1.291,0,0,1,1.291,1.291v6.453a1.291,1.291,0,0,1-.789,1.19,1.287,1.287,0,0,0,.5.1h2.581a1.291,1.291,0,0,0,1.291-1.291v-6.453A1.291,1.291,0,0,0,244.423,102.4Z" transform="translate(-220.69 -102.398)" fill="#333"/>
      </g>
      <path id="Trazado_694908" data-name="Trazado 694908" d="M383.307,102.4h-3.584a.935.935,0,0,1,.935.935v3.293a.935.935,0,0,1-.935.935h3.584a.935.935,0,0,0,.935-.935v-3.293A.935.935,0,0,0,383.307,102.4Z" transform="translate(-332.616 -86.91)" fill="#ffa031"/>
      <path id="Trazado_694909" data-name="Trazado 694909" d="M380.954,324.261H377.37a1.291,1.291,0,0,1,1.291,1.291v5.163A1.291,1.291,0,0,1,377.37,332h3.584a1.291,1.291,0,0,0,1.291-1.291v-5.163A1.291,1.291,0,0,0,380.954,324.261Z" transform="translate(-330.619 -275.216)" fill="#d1d1d1"/>
    </g>
    <path id="Trazado_694910" data-name="Trazado 694910" d="M22.233,417.336h48.4a1.291,1.291,0,0,1,1.033.516l5.034,6.711a1.291,1.291,0,0,0,2.323-.774v-5.163a1.291,1.291,0,0,1,1.291-1.291h3.872a5.163,5.163,0,0,0,5.163-5.163v-2.58H17.071v2.58a5.162,5.162,0,0,0,5.162,5.163Z" transform="translate(-0.001 -347.642)" fill="#ed9aa9"/>
    <g id="Grupo_896034" data-name="Grupo 896034" transform="translate(75.437 61.951)">
      <path id="Trazado_694911" data-name="Trazado 694911" d="M442.265,412.173a5.163,5.163,0,0,1-5.163,5.163h3.584a5.163,5.163,0,0,0,5.163-5.163v-2.58h-3.584Z" transform="translate(-431.94 -409.593)" fill="#cb5f72"/>
      <path id="Trazado_694912" data-name="Trazado 694912" d="M402.97,462.074v4.256l1.26,1.681a1.291,1.291,0,0,0,2.323-.774v-5.163a1.291,1.291,0,0,1,1.291-1.291h-3.584A1.291,1.291,0,0,0,402.97,462.074Z" transform="translate(-402.97 -453.04)" fill="#cb5f72"/>
    </g>
  </g>
</svg>
