<svg xmlns="http://www.w3.org/2000/svg" xmlns:xlink="http://www.w3.org/1999/xlink" width="106.514" height="100.582" viewBox="0 0 106.514 100.582">
  <defs>
    <filter id="Trazado_690669" x="0" y="0" width="106.514" height="100.582" filterUnits="userSpaceOnUse">
      <feOffset dy="3" input="SourceAlpha"/>
      <feGaussianBlur stdDeviation="3" result="blur"/>
      <feFlood flood-opacity="0.161"/>
      <feComposite operator="in" in2="blur"/>
      <feComposite in="SourceGraphic"/>
    </filter>
  </defs>
  <g id="lenguaje-de-senas" transform="translate(-2 2.026)">
    <g transform="matrix(1, 0, 0, 1, 2, -2.03)" filter="url(#Trazado_690669)">
      <path id="Trazado_690669-2" data-name="Trazado 690669" d="M55.257,22a44.261,44.261,0,0,0-22.145,82.582l.181-.1V81.261H23.129a.723.723,0,0,1-.677-.975l6.253-16.779a8.712,8.712,0,0,1,8.128-5.645H73.68a8.712,8.712,0,0,1,8.128,5.645l6.253,16.779a.723.723,0,0,1-.677.975h-2.75V99.112l.181.081A44.255,44.255,0,0,0,55.257,22Z" transform="translate(-2 -16)" fill="#ffdc83"/>
    </g>
    <g id="Grupo_895340" data-name="Grupo 895340" transform="translate(22.225 0)">
      <path id="Trazado_690670" data-name="Trazado 690670" d="M377.98,350.062V373.44a44.412,44.412,0,0,0,7.524-5.446V350.062Z" transform="translate(-322.914 -286.827)" fill="#ffbd86"/>
      <path id="Trazado_690671" data-name="Trazado 690671" d="M139.146,242.069l-6.253-16.779a8.855,8.855,0,0,0-8.3-5.763H87.748a8.855,8.855,0,0,0-8.3,5.763L73.2,242.069a.9.9,0,0,0,.846,1.219h9.983v23.14a44.3,44.3,0,0,0,44.36-.042v-23.1H138.3A.9.9,0,0,0,139.146,242.069Z" transform="translate(-73.139 -179.872)" fill="#af66da"/>
      <path id="Trazado_690672" data-name="Trazado 690672" d="M90.08,219.526H87.747a8.855,8.855,0,0,0-8.3,5.763L73.2,242.068a.9.9,0,0,0,.846,1.219h5.625a.9.9,0,0,1-.846-1.219l6.253-16.779a8.854,8.854,0,0,1,5.006-5.128v-.635Z" transform="translate(-73.139 -179.871)" fill="#9857bd"/>
      <g id="Grupo_895337" data-name="Grupo 895337" transform="translate(14.626)">
        <g id="Grupo_895325" data-name="Grupo 895325" transform="translate(2.316)">
          <g id="Grupo_895321" data-name="Grupo 895321" transform="translate(19.774 1.395)">
            <path id="Trazado_690673" data-name="Trazado 690673" d="M279.319,13.3V15.6a3.138,3.138,0,0,1,1.178-.23,3.038,3.038,0,0,1,.91.139,6.766,6.766,0,0,1,4.76,6.485v3.792h1.146a4.617,4.617,0,0,1,2.509.739v-7.6a11.2,11.2,0,0,0-11.2-11.2h-2.226A6.792,6.792,0,0,1,279.319,13.3Z" transform="translate(-276.394 -7.724)" fill="#883f2e"/>
            <path id="Trazado_690674" data-name="Trazado 690674" d="M292.148,164.323h-1.841a11.066,11.066,0,0,1-7.635,6.839v4.289a4.59,4.59,0,0,1-.376,1.823h10.555a1.806,1.806,0,0,0,1.806-1.806V163.584A4.619,4.619,0,0,1,292.148,164.323Z" transform="translate(-281.23 -135.429)" fill="#883f2e"/>
          </g>
          <g id="Grupo_895323" data-name="Grupo 895323" transform="translate(0 0)">
            <path id="Trazado_690675" data-name="Trazado 690675" d="M169.436,19.454h1.146v-.431a3.184,3.184,0,0,1,3.18-3.18h7.075a3.531,3.531,0,0,0,2.408-.945l5.4-5a3.211,3.211,0,0,1,1.164-.69V6.976A6.976,6.976,0,0,0,182.83,0h-4.7a11.2,11.2,0,0,0-11.2,11.2v8.991A4.617,4.617,0,0,1,169.436,19.454Z" transform="translate(-166.927 0)" fill="#a44f3e"/>
            <g id="Grupo_895322" data-name="Grupo 895322" transform="translate(0 29.55)">
              <path id="Trazado_690676" data-name="Trazado 690676" d="M178.913,175.45v-4.29a11.067,11.067,0,0,1-7.635-6.838h-1.841a4.615,4.615,0,0,1-2.509-.739v11.884a1.806,1.806,0,0,0,1.806,1.806h10.555A4.589,4.589,0,0,1,178.913,175.45Z" transform="translate(-166.927 -163.583)" fill="#a44f3e"/>
            </g>
          </g>
          <g id="Grupo_895324" data-name="Grupo 895324">
            <path id="Trazado_690677" data-name="Trazado 690677" d="M169.436,19.274h.965v-.251A3.359,3.359,0,0,1,172.54,15.9V11.2A11.2,11.2,0,0,1,183.238.013C183.1.005,182.967,0,182.83,0h-4.7a11.2,11.2,0,0,0-11.2,11.2v8.775A4.8,4.8,0,0,1,169.436,19.274Z" transform="translate(-166.927 0)" fill="#883f2e"/>
            <path id="Trazado_690678" data-name="Trazado 690678" d="M172.54,176.451v-8.414a11.183,11.183,0,0,1-1.388-2.55h-1.715a4.8,4.8,0,0,1-2.509-.7v11.667a1.806,1.806,0,0,0,1.806,1.806h5.613A1.807,1.807,0,0,1,172.54,176.451Z" transform="translate(-166.927 -135.017)" fill="#883f2e"/>
          </g>
        </g>
        <path id="Trazado_690679" data-name="Trazado 690679" d="M239,205.648H235.15a11,11,0,0,1-2.872-.382V209.6a4.8,4.8,0,1,0,9.592,0v-4.338a11,11,0,0,1-2.872.382Z" transform="translate(-218.157 -168.187)" fill="#f6a96c"/>
        <path id="Trazado_690680" data-name="Trazado 690680" d="M237.106,210.462v-3.775h-1.955a11.207,11.207,0,0,1-2.872-.373v4.148a4.8,4.8,0,0,0,7.21,4.144,4.793,4.793,0,0,1-2.383-4.144Z" transform="translate(-218.157 -169.045)" fill="#ea9b58"/>
        <g id="Grupo_895326" data-name="Grupo 895326" transform="translate(0 19.274)">
          <path id="Trazado_690681" data-name="Trazado 690681" d="M160.076,113.862V106.7H158.93a4.826,4.826,0,0,0-4.826,4.826v1.544a4.826,4.826,0,0,0,4.826,4.826h1.912A10.959,10.959,0,0,1,160.076,113.862Z" transform="translate(-154.104 -106.696)" fill="#ea9b58"/>
          <path id="Trazado_690682" data-name="Trazado 690682" d="M328.164,106.7h-1.146v7.166a10.961,10.961,0,0,1-.766,4.03h1.912a4.826,4.826,0,0,0,4.826-4.826v-1.544A4.826,4.826,0,0,0,328.164,106.7Z" transform="translate(-295.155 -106.696)" fill="#f6a96c"/>
        </g>
        <g id="Grupo_895327" data-name="Grupo 895327" transform="translate(5.791 8.857)">
          <path id="Trazado_690683" data-name="Trazado 690683" d="M204.281,49.938a3.329,3.329,0,0,1,3.248-.757,6.979,6.979,0,0,1,4.887,6.658V66.616a11.2,11.2,0,0,1-11.2,11.2h-3.849a11.2,11.2,0,0,1-11.2-11.2V59.2a3.361,3.361,0,0,1,3.361-3.361H196.6a3.361,3.361,0,0,0,2.285-.9Z" transform="translate(-186.163 -49.034)" fill="#ffbd86"/>
        </g>
        <g id="Grupo_895328" data-name="Grupo 895328" transform="translate(5.791 15.662)">
          <path id="Trazado_690684" data-name="Trazado 690684" d="M191.853,97.405V89.938a3.385,3.385,0,0,1,2.381-3.233h-4.712a3.361,3.361,0,0,0-3.361,3.361v7.417a11.2,11.2,0,0,0,11.2,11.2h3.849c.323,0,.642-.017.958-.044A11.278,11.278,0,0,1,191.853,97.405Z" transform="translate(-186.162 -86.705)" fill="#f6a96c"/>
        </g>
        <g id="Grupo_895334" data-name="Grupo 895334" transform="translate(9.607 18.927)">
          <g id="Grupo_895329" data-name="Grupo 895329" transform="translate(6.379 0.776)">
            <path id="Trazado_690685" data-name="Trazado 690685" d="M246.085,116.731a1.355,1.355,0,0,0,.754-2.481l-1.055-.705,1.461-2.416a1.355,1.355,0,0,0-2.319-1.4l-2.131,3.524a1.355,1.355,0,0,0,.406,1.827l2.131,1.425A1.349,1.349,0,0,0,246.085,116.731Z" transform="translate(-242.6 -109.073)" fill="#ca6e59"/>
          </g>
          <g id="Grupo_895332" data-name="Grupo 895332">
            <g id="Grupo_895330" data-name="Grupo 895330" transform="translate(13.992)">
              <circle id="Elipse_4761" data-name="Elipse 4761" cx="2.317" cy="2.317" r="2.317" fill="#ca6e59"/>
            </g>
            <g id="Grupo_895331" data-name="Grupo 895331">
              <circle id="Elipse_4762" data-name="Elipse 4762" cx="2.317" cy="2.317" r="2.317" fill="#ca6e59"/>
            </g>
          </g>
          <g id="Grupo_895333" data-name="Grupo 895333" transform="translate(3.325 10.784)">
            <path id="Trazado_690686" data-name="Trazado 690686" d="M231.678,169.1a7.883,7.883,0,0,1-5.591-2.312A1.355,1.355,0,0,1,228,164.871a5.2,5.2,0,0,0,7.35,0,1.355,1.355,0,0,1,1.916,1.916A7.882,7.882,0,0,1,231.678,169.1Z" transform="translate(-225.69 -164.474)" fill="#ca6e59"/>
          </g>
        </g>
        <g id="Grupo_895336" data-name="Grupo 895336" transform="translate(21.631 14.812)">
          <g id="Grupo_895335" data-name="Grupo 895335">
            <path id="Trazado_690687" data-name="Trazado 690687" d="M281.186,84.71H275.2a1.355,1.355,0,0,1,0-2.71h5.981a1.355,1.355,0,0,1,0,2.71Z" transform="translate(-273.85 -82)" fill="#a44f3e"/>
          </g>
        </g>
      </g>
      <g id="Grupo_895338" data-name="Grupo 895338" transform="translate(3.544 51.873)">
        <path id="Trazado_690688" data-name="Trazado 690688" d="M132.906,296.728l-6,3.463-.523-.907,8.013-4.627a1.315,1.315,0,0,0,.534-1.741,1.28,1.28,0,0,0-1.767-.5l-8.06,4.653-.523-.907,8.013-4.626a1.315,1.315,0,0,0,.534-1.741,1.28,1.28,0,0,0-1.767-.5l-8.06,4.653-.523-.907,6-3.463a1.315,1.315,0,0,0,.534-1.741,1.28,1.28,0,0,0-1.767-.5l-7.752,4.475.574-2.142a1.654,1.654,0,0,0-1.073-2.023,1.61,1.61,0,0,0-2.019,1.125l-1.483,5.536a5.743,5.743,0,0,0-1.779,4L100.1,306.337V298.7H92.757v13.66a4.428,4.428,0,0,0,6.692,3.8l18.514-11.019a5.729,5.729,0,0,0,5.6-.073l10.667-6.159a1.28,1.28,0,0,0,.4-1.854A1.317,1.317,0,0,0,132.906,296.728Z" transform="translate(-92.757 -287.16)" fill="#ffbd86"/>
      </g>
      <g id="Grupo_895339" data-name="Grupo 895339" transform="translate(3.544 63.416)">
        <path id="Trazado_690689" data-name="Trazado 690689" d="M96.543,364.723v-13.66H92.757v13.66a4.427,4.427,0,0,0,6.32,4A4.393,4.393,0,0,1,96.543,364.723Z" transform="translate(-92.757 -351.063)" fill="#f6a96c"/>
      </g>
    </g>
  </g>
</svg>
