<svg xmlns="http://www.w3.org/2000/svg" width="38.323" height="38.377" viewBox="0 0 38.323 38.377">
  <g id="novato_3_" data-name="novato (3)" transform="translate(-8.803 -2.521)">
    <g id="Grupo_990837" data-name="Grupo 990837" transform="translate(32.546 2.521)">
      <path id="Trazado_699660" data-name="Trazado 699660" d="M333.18,2.074a7.084,7.084,0,0,0-11.257,8.348l-1.235,3.836a.247.247,0,0,0,.311.311l3.836-1.238A7.084,7.084,0,0,0,333.18,2.074Z" transform="translate(-320.675)" fill="#3bc3a4" fill-rule="evenodd"/>
    </g>
    <g id="Grupo_990838" data-name="Grupo 990838" transform="translate(38.739 2.521)">
      <path id="Trazado_699661" data-name="Trazado 699661" d="M399.515,0h0Zm5,12.09a7.082,7.082,0,0,0-5-12.09H399.5c-.219,0-.439.009-.658.03a7.084,7.084,0,0,1-.637,14.014A7.074,7.074,0,0,0,404.514,12.09Z" transform="translate(-398.202)" fill="#00a887" fill-rule="evenodd"/>
    </g>
    <g id="Grupo_990839" data-name="Grupo 990839" transform="translate(14.611 15.365)">
      <path id="Trazado_699662" data-name="Trazado 699662" d="M96.81,196.826v-1.969h-1.9c-4.518,0-6.937-3.8-9.787-2.043a31.545,31.545,0,0,0-3.608,2.6v1.409c0,2.743,2.58,6.188,5.731,7.357a4.963,4.963,0,0,0,3.832,0C94.23,203.015,96.81,199.569,96.81,196.826Z" transform="translate(-81.515 -192.35)" fill="#ffbc85" fill-rule="evenodd"/>
    </g>
    <g id="Grupo_990840" data-name="Grupo 990840" transform="translate(29.332 17.873)">
      <path id="Trazado_699663" data-name="Trazado 699663" d="M269.018,225.719l0-.5a1.479,1.479,0,0,0-1.456-1.477h-1.183v1.969a5.993,5.993,0,0,1-.574,2.426C267.255,228.365,269.018,227.184,269.018,225.719Z" transform="translate(-265.804 -223.746)" fill="#ea9a58" fill-rule="evenodd"/>
    </g>
    <g id="Grupo_990841" data-name="Grupo 990841" transform="translate(11.973 17.873)">
      <path id="Trazado_699664" data-name="Trazado 699664" d="M51.126,225.716v-1.969H49.944a1.479,1.479,0,0,0-1.456,1.477v.5c0,1.465,1.761,2.645,3.212,2.421A5.994,5.994,0,0,1,51.126,225.716Z" transform="translate(-48.488 -223.747)" fill="#ea9a58" fill-rule="evenodd"/>
    </g>
    <g id="Grupo_990842" data-name="Grupo 990842" transform="translate(14.609 8.732)">
      <path id="Trazado_699665" data-name="Trazado 699665" d="M96.786,115.716c0-5.612-9.039-8.411-11.868-4.738-3.695.324-3.424,5.244-3.424,5.89l0,1.591v.56a31.762,31.762,0,0,1,3.608-2.6c2.85-1.759,5.269,2.043,9.787,2.043h1.9v-2.743Z" transform="translate(-81.49 -109.319)" fill="#375e7d" fill-rule="evenodd"/>
    </g>
    <g id="Grupo_990843" data-name="Grupo 990843" transform="translate(21.037 17.856)">
      <path id="Trazado_699666" data-name="Trazado 699666" d="M166.919,231.925a9.9,9.9,0,0,0,3.34-3.972,5.992,5.992,0,0,0,.574-2.426v-1.969h-1.9c-.184,0-.366,0-.544-.016v1.985c0,2.195-1.649,4.836-3.921,6.405a8.344,8.344,0,0,1-1.81.952c-.24.089-.471.163-.7.222a4.8,4.8,0,0,0,1.22.163,5.434,5.434,0,0,0,1.917-.385A8.222,8.222,0,0,0,166.919,231.925Z" transform="translate(-161.965 -223.542)" fill="#f5a96c" fill-rule="evenodd"/>
    </g>
    <g id="Grupo_990844" data-name="Grupo 990844" transform="translate(20.839 8.731)">
      <path id="Trazado_699667" data-name="Trazado 699667" d="M166.107,118.428c.177.012.359.016.543.016h1.9V115.7c0-4.3-5.311-6.951-9.067-6.3,3.266.5,6.624,2.878,6.624,6.3v2.727Z" transform="translate(-159.483 -109.303)" fill="#2b4d66" fill-rule="evenodd"/>
    </g>
    <g id="Grupo_990845" data-name="Grupo 990845" transform="translate(8.803 28.572)">
      <path id="Trazado_699668" data-name="Trazado 699668" d="M15.215,366.672,13.5,357.7l-1.169.359c-2.589.8-3.532,3.361-3.532,5.773v5.946a.247.247,0,0,0,.247.247h4.843Z" transform="translate(-8.803 -357.696)" fill="#eb5468" fill-rule="evenodd"/>
    </g>
    <g id="Grupo_990846" data-name="Grupo 990846" transform="translate(29.901 28.572)">
      <path id="Trazado_699669" data-name="Trazado 699669" d="M278.485,363.828c0-2.412-.942-4.975-3.532-5.773l-1.169-.359-.856,8.976.467,3.35h4.843a.247.247,0,0,0,.247-.247v-5.946Z" transform="translate(-272.929 -357.696)" fill="#eb5468" fill-rule="evenodd"/>
    </g>
    <g id="Grupo_990847" data-name="Grupo 990847" transform="translate(29.906 28.572)">
      <path id="Trazado_699670" data-name="Trazado 699670" d="M278.539,363.828c0-2.412-.942-4.975-3.531-5.773l-1.169-.359-.851.868.851.823c2.09,1,2.871,3.319,2.871,5.517v5.118h1.582a.247.247,0,0,0,.247-.247v-5.946Z" transform="translate(-272.988 -357.696)" fill="#e5384f" fill-rule="evenodd"/>
    </g>
    <g id="Grupo_990848" data-name="Grupo 990848" transform="translate(10.671 28.572)">
      <path id="Trazado_699671" data-name="Trazado 699671" d="M37.028,366.672l-2-8.976-1.169.359a4.709,4.709,0,0,0-.546.2v7.558h-.625a.494.494,0,0,0-.492.495V368.5a1.523,1.523,0,0,0,1.509,1.519h1.712C34.585,370.017,37.028,366.672,37.028,366.672Z" transform="translate(-32.194 -357.696)" fill="#e5384f" fill-rule="evenodd"/>
    </g>
    <g id="Grupo_990849" data-name="Grupo 990849" transform="translate(37.597 4.675)">
      <path id="Trazado_699672" data-name="Trazado 699672" d="M386.419,36.256a.616.616,0,0,1-.617-.616v0a.617.617,0,1,1,.617.618Zm0-2.644a.617.617,0,0,1-.617-.617v-.952a2.558,2.558,0,0,1,.776-1.608c.207-.247.441-.527.441-.695v-.6a.936.936,0,0,0-1.873,0v.6a.617.617,0,1,1-1.234,0v-.6a2.171,2.171,0,1,1,4.341,0v.6a2.369,2.369,0,0,1-.73,1.487c-.24.286-.488.582-.488.815v.952A.617.617,0,0,1,386.414,33.612Z" transform="translate(-383.908 -26.966)" fill="#eff6ff"/>
    </g>
    <g id="Grupo_990850" data-name="Grupo 990850" transform="translate(13.503 25.757)">
      <path id="Trazado_699673" data-name="Trazado 699673" d="M83.877,322.449H68.667a1.024,1.024,0,0,0-1.022,1.022V335.1H84.9V323.471A1.024,1.024,0,0,0,83.877,322.449Z" transform="translate(-67.645 -322.449)" fill="#eff6ff" fill-rule="evenodd"/>
    </g>
    <g id="Grupo_990851" data-name="Grupo 990851" transform="translate(12.383 37.548)">
      <path id="Trazado_699674" data-name="Trazado 699674" d="M72,470.066H54.122a.5.5,0,0,0-.495.495V471.9a1.523,1.523,0,0,0,1.509,1.519H71.611A1.523,1.523,0,0,0,73.12,471.9v-1.337a.5.5,0,0,0-.495-.495Z" transform="translate(-53.627 -470.066)" fill="#375e7d" fill-rule="evenodd"/>
    </g>
    <g id="Grupo_990852" data-name="Grupo 990852" transform="translate(20.216 30.483)">
      <path id="Trazado_699675" data-name="Trazado 699675" d="M153.6,381.613a1.913,1.913,0,1,0,1.915,1.913A1.914,1.914,0,0,0,153.6,381.613Z" transform="translate(-151.686 -381.613)" fill="#3bc3a4" fill-rule="evenodd"/>
    </g>
    <g id="Grupo_990853" data-name="Grupo 990853" transform="translate(27.928 25.757)">
      <path id="Trazado_699676" data-name="Trazado 699676" d="M251.054,323.471a1.024,1.024,0,0,0-1.022-1.022h-1.808a1.024,1.024,0,0,1,1.019,1.022v10.77h1.81v-10.77Z" transform="translate(-248.225 -322.449)" fill="#d9eeff" fill-rule="evenodd"/>
    </g>
    <g id="Grupo_990854" data-name="Grupo 990854" transform="translate(28.072 37.548)">
      <path id="Trazado_699677" data-name="Trazado 699677" d="M253.84,470.561a.5.5,0,0,0-.495-.495h-2.3a.5.5,0,0,1,.495.495V471.9a1.523,1.523,0,0,1-1.509,1.519h2.3a1.523,1.523,0,0,0,1.509-1.519v-1.337Z" transform="translate(-250.036 -470.066)" fill="#2b4d66" fill-rule="evenodd"/>
    </g>
  </g>
</svg>
