<svg id="Icons" xmlns="http://www.w3.org/2000/svg" width="85.804" height="85.804" viewBox="0 0 85.804 85.804">
  <g id="Grupo_895580" data-name="Grupo 895580">
    <g id="Grupo_895548" data-name="Grupo 895548" transform="translate(6.129)">
      <path id="Trazado_691472" data-name="Trazado 691472" d="M11.366,25.451H32.515V19.322a9.161,9.161,0,0,0-2.775-6.57A7.591,7.591,0,0,0,30.983,8.6a7.587,7.587,0,0,0-.242-1.819,36.772,36.772,0,0,1,35.483,4.135V31.58H80.388A36.662,36.662,0,0,1,78.168,56.1H66.224v3.59l-2.537-2.537-8.668,8.666,2.537,2.539h-3.59v8a36.572,36.572,0,0,1-6.129,1.062V68.519a6.128,6.128,0,0,0-6.129-6.294V55.787a15.354,15.354,0,1,0-11.151-9.316,6.087,6.087,0,0,0-1.106,3.495V56.1a6.082,6.082,0,0,0-3.064.823,6.118,6.118,0,0,0-6.129,0,6.078,6.078,0,0,0-3.064-.823,6.282,6.282,0,0,0-1.007.083,6,6,0,0,0-3.7,2.2,36.694,36.694,0,0,1-1.117-32.929Z" transform="translate(-8 -4)" fill="#a3e72d"/>
    </g>
    <g id="Grupo_895549" data-name="Grupo 895549" transform="translate(30.644 24.515)">
      <path id="Trazado_691473" data-name="Trazado 691473" d="M28.071,35.4a6.281,6.281,0,0,0-1.007-.083,6.076,6.076,0,0,0-2.519.556,12.338,12.338,0,1,1,8.648,8.236v-2.5A6.266,6.266,0,0,0,28.071,35.4Z" transform="translate(-24 -20)" fill="#3cc8b4"/>
    </g>
    <g id="Grupo_895550" data-name="Grupo 895550" transform="translate(41.37 24.515)">
      <path id="Trazado_691474" data-name="Trazado 691474" d="M34.726,32.258A12.253,12.253,0,0,0,24,20.106a12.258,12.258,0,1,1,0,24.3A12.253,12.253,0,0,0,34.726,32.258Z" transform="translate(-24 -20)" fill="#1eaa96"/>
    </g>
    <g id="Grupo_895551" data-name="Grupo 895551" transform="translate(21.451 21.451)">
      <path id="Trazado_691475" data-name="Trazado 691475" d="M40.129,45.558a15.315,15.315,0,0,1,12.258-27.25,15.3,15.3,0,0,0-11.15,20.711,6.082,6.082,0,0,0-1.108,3.5Z" transform="translate(-34 -18)" fill="#82be1b"/>
    </g>
    <g id="Grupo_895552" data-name="Grupo 895552" transform="translate(12.258 42.902)">
      <path id="Trazado_691476" data-name="Trazado 691476" d="M32,74.9V47.486A3.18,3.18,0,0,1,34.55,44.3a3.067,3.067,0,0,1,3.579,3.023,3.064,3.064,0,1,1,6.129,0,3.064,3.064,0,1,1,6.129,0V35.065a3.067,3.067,0,0,1,3.579-3.023,3.18,3.18,0,0,1,2.55,3.187V53.451a3.067,3.067,0,0,1,3.579-3.023,3.18,3.18,0,0,1,2.55,3.187V63.17a6.122,6.122,0,0,1-1.8,4.333L57.412,70.94a3.07,3.07,0,0,0-.9,2.167v1.8Z" transform="translate(-32 -32)" fill="#f0c8a0"/>
    </g>
    <g id="Grupo_895553" data-name="Grupo 895553" transform="translate(35.241 61.709)">
      <path id="Trazado_691477" data-name="Trazado 691477" d="M32.9,64.407l3.437-3.437a6.127,6.127,0,0,0,1.794-4.333V44.274a3.3,3.3,0,0,1,1.532,2.809v9.555a6.122,6.122,0,0,1-1.8,4.333l-3.437,3.437a3.07,3.07,0,0,0-.9,2.167v1.8H32v-1.8A3.065,3.065,0,0,1,32.9,64.407Z" transform="translate(-32 -44.274)" fill="#d2aa82"/>
    </g>
    <g id="Grupo_895554" data-name="Grupo 895554" transform="translate(16.854 55.58)">
      <path id="Trazado_691478" data-name="Trazado 691478" d="M48,40.274v12h1.532V42.919A3.056,3.056,0,0,0,48,40.274Z" transform="translate(-48 -40.274)" fill="#d2aa82"/>
    </g>
    <g id="Grupo_895555" data-name="Grupo 895555" transform="translate(22.983 55.584)">
      <path id="Trazado_691479" data-name="Trazado 691479" d="M45.532,52.274V42.917A3.055,3.055,0,0,0,44,40.277v12Z" transform="translate(-44 -40.277)" fill="#d2aa82"/>
    </g>
    <g id="Grupo_895556" data-name="Grupo 895556" transform="translate(29.112 55.584)">
      <path id="Trazado_691480" data-name="Trazado 691480" d="M41.532,42.917V52.11H40V40.277A3.055,3.055,0,0,1,41.532,42.917Z" transform="translate(-40 -40.277)" fill="#d2aa82"/>
    </g>
    <g id="Grupo_895557" data-name="Grupo 895557" transform="translate(35.241 43.327)">
      <path id="Trazado_691481" data-name="Trazado 691481" d="M37.532,56.368H36V32.277a3.051,3.051,0,0,1,1.532,2.64V56.368Z" transform="translate(-36 -32.277)" fill="#d2aa82"/>
    </g>
    <g id="Grupo_895558" data-name="Grupo 895558" transform="translate(67.418 0)">
      <path id="Trazado_691482" data-name="Trazado 691482" d="M10.129,4H22.387V28.515H4V10.129Z" transform="translate(-4 -4)" fill="#f0f0f0"/>
    </g>
    <g id="Grupo_895559" data-name="Grupo 895559" transform="translate(39.838 0)">
      <path id="Trazado_691483" data-name="Trazado 691483" d="M18,4.136C19.011,4.054,20.032,4,21.064,4a36.6,36.6,0,0,1,21.451,6.913V16.5A36.67,36.67,0,0,0,18,4.136Z" transform="translate(-18 -4)" fill="#82be1b"/>
    </g>
    <g id="Grupo_895560" data-name="Grupo 895560" transform="translate(82.74 0)">
      <path id="Trazado_691484" data-name="Trazado 691484" d="M7.064,4H4V28.515H7.064Z" transform="translate(-4 -4)" fill="#d2d2d2"/>
    </g>
    <g id="Grupo_895561" data-name="Grupo 895561" transform="translate(67.418 0)">
      <path id="Trazado_691485" data-name="Trazado 691485" d="M18.129,4v6.129H12Z" transform="translate(-12 -4)" fill="#d2d2d2"/>
    </g>
    <g id="Grupo_895562" data-name="Grupo 895562" transform="translate(73.546 9.193)">
      <path id="Trazado_691486" data-name="Trazado 691486" d="M14.129,10H8v3.064h6.129Z" transform="translate(-8 -10)" fill="#d2d2d2"/>
    </g>
    <g id="Grupo_895563" data-name="Grupo 895563" transform="translate(73.546 15.322)">
      <path id="Trazado_691487" data-name="Trazado 691487" d="M14.129,14H8v3.064h6.129Z" transform="translate(-8 -14)" fill="#d2d2d2"/>
    </g>
    <g id="Grupo_895564" data-name="Grupo 895564" transform="translate(1.532 0)">
      <path id="Trazado_691488" data-name="Trazado 691488" d="M57.6,13.193A4.6,4.6,0,1,0,53,8.6,4.6,4.6,0,0,0,57.6,13.193Z" transform="translate(-53 -4)" fill="#f0c8a0"/>
    </g>
    <g id="Grupo_895565" data-name="Grupo 895565" transform="translate(1.532 0)">
      <path id="Trazado_691489" data-name="Trazado 691489" d="M62.193,8.6A4.6,4.6,0,1,0,53,8.6Z" transform="translate(-53 -4)" fill="#505050"/>
    </g>
    <g id="Grupo_895566" data-name="Grupo 895566" transform="translate(16.854 0)">
      <path id="Trazado_691490" data-name="Trazado 691490" d="M47.6,13.193A4.6,4.6,0,1,0,43,8.6,4.6,4.6,0,0,0,47.6,13.193Z" transform="translate(-43 -4)" fill="#f0c8a0"/>
    </g>
    <g id="Grupo_895567" data-name="Grupo 895567" transform="translate(16.854 0)">
      <path id="Trazado_691491" data-name="Trazado 691491" d="M52.193,8.6A4.6,4.6,0,1,0,43,8.6Z" transform="translate(-43 -4)" fill="#505050"/>
    </g>
    <g id="Grupo_895568" data-name="Grupo 895568" transform="translate(15.322 9.193)">
      <path id="Trazado_691492" data-name="Trazado 691492" d="M48.129,10a6.129,6.129,0,0,1,6.129,6.129v3.064H42V16.129A6.129,6.129,0,0,1,48.129,10Z" transform="translate(-42 -10)" fill="#0098e8"/>
    </g>
    <g id="Grupo_895569" data-name="Grupo 895569" transform="translate(0 9.193)">
      <path id="Trazado_691493" data-name="Trazado 691493" d="M58.129,10a6.129,6.129,0,0,1,6.129,6.129v3.064H52V16.129A6.129,6.129,0,0,1,58.129,10Z" transform="translate(-52 -10)" fill="#0098e8"/>
    </g>
    <g id="Grupo_895570" data-name="Grupo 895570" transform="translate(45.967 70.156)">
      <path id="Trazado_691494" data-name="Trazado 691494" d="M26,51.98a36.651,36.651,0,0,0,6.129-2.193V51.98A36.572,36.572,0,0,1,26,53.041Z" transform="translate(-26 -49.787)" fill="#82be1b"/>
    </g>
    <g id="Grupo_895571" data-name="Grupo 895571" transform="translate(70.192 27.58)">
      <path id="Trazado_691495" data-name="Trazado 691495" d="M11.354,31.193A36.744,36.744,0,0,0,10.156,22h6.169a36.882,36.882,0,0,1,1.158,9.193A36.565,36.565,0,0,1,14.1,46.515H8A36.533,36.533,0,0,0,11.354,31.193Z" transform="translate(-8 -22)" fill="#82be1b"/>
    </g>
    <g id="Grupo_895572" data-name="Grupo 895572" transform="translate(55.16 55.16)">
      <path id="Trazado_691496" data-name="Trazado 691496" d="M4,58.387V52.258H7.466A12.208,12.208,0,0,1,8.771,49.1l-2.45-2.45,4.333-4.333,2.45,2.45a12.186,12.186,0,0,1,3.153-1.305V40h6.129v3.466a12.208,12.208,0,0,1,3.153,1.305l2.45-2.45,4.333,4.333-2.45,2.45a12.208,12.208,0,0,1,1.305,3.153h3.466v6.129H31.178a12.208,12.208,0,0,1-1.305,3.153l2.45,2.45L27.99,68.323l-2.45-2.45a12.186,12.186,0,0,1-3.153,1.305v3.466H16.258V67.178A12.208,12.208,0,0,1,13.1,65.873l-2.45,2.45L6.321,63.99l2.45-2.45a12.186,12.186,0,0,1-1.305-3.153Zm15.322,3.064a6.129,6.129,0,1,0-6.129-6.129A6.135,6.135,0,0,0,19.322,61.451Z" transform="translate(-4 -40)" fill="#a3e72d"/>
    </g>
    <g id="Grupo_895573" data-name="Grupo 895573" transform="translate(70.482 55.16)">
      <path id="Trazado_691497" data-name="Trazado 691497" d="M14.471,44.771a12.186,12.186,0,0,0-3.153-1.305V40h3.064v3.466c.359.092.7.225,1.045.349Z" transform="translate(-11.318 -40)" fill="#82be1b"/>
    </g>
    <g id="Grupo_895574" data-name="Grupo 895574" transform="translate(77.618 57.481)">
      <path id="Trazado_691498" data-name="Trazado 691498" d="M10.236,51.451H7.171A12.208,12.208,0,0,0,5.866,48.3l2.45-2.45-2.8-2.8,1.532-1.532,4.333,4.333L8.93,48.3A12.208,12.208,0,0,1,10.236,51.451Z" transform="translate(-5.515 -41.515)" fill="#82be1b"/>
    </g>
    <g id="Grupo_895575" data-name="Grupo 895575" transform="translate(61.289 64.353)">
      <path id="Trazado_691499" data-name="Trazado 691499" d="M15,52.129A6.135,6.135,0,0,1,21.129,46a6.035,6.035,0,0,1,1.532.218,6.1,6.1,0,0,0,0,11.823,6.035,6.035,0,0,1-1.532.218A6.135,6.135,0,0,1,15,52.129Z" transform="translate(-15 -46)" fill="#82be1b"/>
    </g>
    <g id="Grupo_895576" data-name="Grupo 895576" transform="translate(70.482 81.033)">
      <path id="Trazado_691500" data-name="Trazado 691500" d="M14.471,56.886l.956.956c-.345.123-.685.256-1.045.349v3.466H11.318V58.191a12.208,12.208,0,0,0,3.153-1.305Z" transform="translate(-11.318 -56.886)" fill="#82be1b"/>
    </g>
    <g id="Grupo_895577" data-name="Grupo 895577" transform="translate(77.618 73.546)">
      <path id="Trazado_691501" data-name="Trazado 691501" d="M8.316,57.6l-2.45-2.45A12.208,12.208,0,0,0,7.171,52h3.064A12.208,12.208,0,0,1,8.93,55.153l2.45,2.45L7.047,61.936,5.515,60.4Z" transform="translate(-5.515 -52)" fill="#82be1b"/>
    </g>
    <g id="Grupo_895578" data-name="Grupo 895578" transform="translate(82.74 67.418)">
      <path id="Trazado_691502" data-name="Trazado 691502" d="M7.064,48H4v6.129H7.064Z" transform="translate(-4 -48)" fill="#82be1b"/>
    </g>
    <g id="Grupo_895579" data-name="Grupo 895579" transform="translate(35.241 30.644)">
      <path id="Trazado_691503" data-name="Trazado 691503" d="M42.322,27.064l-9.193,9.193L27,30.129l3.064-3.064,3.064,3.064L39.258,24Z" transform="translate(-27 -24)" fill="#f0f0f0"/>
    </g>
  </g>
</svg>
