<svg xmlns="http://www.w3.org/2000/svg" xmlns:xlink="http://www.w3.org/1999/xlink" width="418" height="734.328" viewBox="0 0 418 734.328">
  <defs>
    <filter id="Unión_1" x="1" y="0" width="416" height="83.999" filterUnits="userSpaceOnUse">
      <feOffset dy="3" input="SourceAlpha"/>
      <feGaussianBlur stdDeviation="3" result="blur"/>
      <feFlood flood-opacity="0.161"/>
      <feComposite operator="in" in2="blur"/>
      <feComposite in="SourceGraphic"/>
    </filter>
    <clipPath id="clip-path">
      <rect id="Rectángulo_345391" data-name="Rectángulo 345391" width="405" height="273" transform="translate(3741 -9256)" fill="#fff" opacity="0.5"/>
    </clipPath>
    <clipPath id="clip-path-2">
      <rect id="Rectángulo_343448" data-name="Rectángulo 343448" width="438.001" height="262.62" fill="none"/>
    </clipPath>
    <clipPath id="clip-path-3">
      <rect id="Rectángulo_343446" data-name="Rectángulo 343446" width="44.108" height="9.473" fill="none"/>
    </clipPath>
    <clipPath id="clip-path-4">
      <rect id="Rectángulo_343447" data-name="Rectángulo 343447" width="71.897" height="28.15" fill="none"/>
    </clipPath>
  </defs>
  <g id="Grupo_1005934" data-name="Grupo 1005934" transform="translate(-3751 9341.999)">
    <g id="Grupo_1005933" data-name="Grupo 1005933">
      <path id="Trazado_701889" data-name="Trazado 701889" d="M15,0H175a15,15,0,0,1,15,15V65.5a15,15,0,0,1-15,15H15a15,15,0,0,1-15-15V15A15,15,0,0,1,15,0Z" transform="translate(3751 -8929.38)" fill="#112e4c"/>
      <path id="Trazado_701890" data-name="Trazado 701890" d="M31.8,11.211A4.025,4.025,0,0,1,30.441,14.1a4.76,4.76,0,0,1-3.223,1.055,4.28,4.28,0,0,1-3.441-1.473,6.038,6.038,0,0,1-1.254-4.043v-.7A6.819,6.819,0,0,1,23.1,6.055a4.332,4.332,0,0,1,1.652-1.918,4.629,4.629,0,0,1,2.5-.668,4.637,4.637,0,0,1,3.172,1.055,4.326,4.326,0,0,1,1.391,2.961H29.469a2.376,2.376,0,0,0-.613-1.6,2.271,2.271,0,0,0-1.605-.5,1.991,1.991,0,0,0-1.754.84,4.707,4.707,0,0,0-.6,2.605V9.7a5.038,5.038,0,0,0,.559,2.7,1.954,1.954,0,0,0,1.762.852,2.314,2.314,0,0,0,1.621-.5,2.241,2.241,0,0,0,.613-1.535Zm1.039-.516a5.013,5.013,0,0,1,.484-2.242A3.546,3.546,0,0,1,34.715,6.93a4.069,4.069,0,0,1,2.113-.539,3.849,3.849,0,0,1,2.793,1.047,4.2,4.2,0,0,1,1.207,2.844l.016.578a4.418,4.418,0,0,1-1.086,3.121,4.209,4.209,0,0,1-5.832,0,4.5,4.5,0,0,1-1.09-3.187Zm2.258.16a3.16,3.16,0,0,0,.453,1.843,1.628,1.628,0,0,0,2.578.008,3.457,3.457,0,0,0,.461-2.015,3.128,3.128,0,0,0-.461-1.831,1.5,1.5,0,0,0-1.3-.649,1.474,1.474,0,0,0-1.281.646A3.516,3.516,0,0,0,35.094,10.856Zm9.219-4.309.07.977a2.951,2.951,0,0,1,2.43-1.133,2.453,2.453,0,0,1,2,.789,3.682,3.682,0,0,1,.672,2.359V15H47.227V9.581a1.47,1.47,0,0,0-.312-1.045,1.4,1.4,0,0,0-1.039-.325,1.553,1.553,0,0,0-1.43.814V15H42.188V6.547ZM53.9,4.469V6.547h1.445V8.2H53.9v4.219a1.007,1.007,0,0,0,.18.672.9.9,0,0,0,.688.2,3.6,3.6,0,0,0,.664-.055v1.711a4.648,4.648,0,0,1-1.367.2,2.156,2.156,0,0,1-2.422-2.4V8.2H50.406V6.547h1.234V4.469Zm7.453,4.2a6.134,6.134,0,0,0-.812-.062,1.654,1.654,0,0,0-1.68.867V15H56.6V6.547h2.133L58.8,7.555A2.092,2.092,0,0,1,60.68,6.391a2.366,2.366,0,0,1,.7.1ZM67.1,15a2.507,2.507,0,0,1-.227-.758,2.732,2.732,0,0,1-2.133.914,3,3,0,0,1-2.059-.719,2.312,2.312,0,0,1-.816-1.812,2.389,2.389,0,0,1,1-2.062,4.915,4.915,0,0,1,2.879-.727h1.039V9.352a1.393,1.393,0,0,0-.3-.937,1.183,1.183,0,0,0-.949-.352,1.345,1.345,0,0,0-.895.273.929.929,0,0,0-.324.75H62.055a2.268,2.268,0,0,1,.453-1.359,3,3,0,0,1,1.281-.98,4.669,4.669,0,0,1,1.859-.355,3.689,3.689,0,0,1,2.48.785,2.747,2.747,0,0,1,.918,2.207v3.664a4.041,4.041,0,0,0,.336,1.82V15Zm-1.867-1.57a1.945,1.945,0,0,0,.922-.223,1.462,1.462,0,0,0,.625-.6V11.156h-.844q-1.7,0-1.8,1.172l-.008.133a.9.9,0,0,0,.3.7A1.153,1.153,0,0,0,65.234,13.43Zm8.25-8.961V6.547H74.93V8.2H73.484v4.219a1.007,1.007,0,0,0,.18.672.9.9,0,0,0,.688.2,3.6,3.6,0,0,0,.664-.055v1.711a4.648,4.648,0,0,1-1.367.2,2.156,2.156,0,0,1-2.422-2.4V8.2H69.992V6.547h1.234V4.469ZM75.6,10.7a5.013,5.013,0,0,1,.484-2.242A3.546,3.546,0,0,1,77.48,6.93a4.069,4.069,0,0,1,2.113-.539,3.849,3.849,0,0,1,2.793,1.047,4.2,4.2,0,0,1,1.207,2.844l.016.578a4.418,4.418,0,0,1-1.086,3.121,4.209,4.209,0,0,1-5.832,0A4.5,4.5,0,0,1,75.6,10.8Zm2.258.16a3.16,3.16,0,0,0,.453,1.843,1.628,1.628,0,0,0,2.578.008,3.457,3.457,0,0,0,.461-2.015,3.128,3.128,0,0,0-.461-1.831,1.5,1.5,0,0,0-1.3-.649,1.474,1.474,0,0,0-1.281.646A3.516,3.516,0,0,0,77.859,10.856ZM92.5,13.336a1.481,1.481,0,0,0,1.016-.344,1.2,1.2,0,0,0,.406-.914h2.117a2.9,2.9,0,0,1-.469,1.574,3.093,3.093,0,0,1-1.262,1.109,3.949,3.949,0,0,1-1.77.395A3.67,3.67,0,0,1,89.68,14a4.56,4.56,0,0,1-1.047-3.184v-.148a4.508,4.508,0,0,1,1.039-3.117,3.627,3.627,0,0,1,2.852-1.164,3.555,3.555,0,0,1,2.543.9,3.2,3.2,0,0,1,.973,2.4H93.922a1.551,1.551,0,0,0-.406-1.072,1.51,1.51,0,0,0-2.223.163,3.333,3.333,0,0,0-.4,1.866v.235a3.375,3.375,0,0,0,.4,1.878A1.377,1.377,0,0,0,92.5,13.336ZM99.711,15H97.445V6.547h2.266Zm-2.4-10.641a1.112,1.112,0,0,1,.34-.836,1.465,1.465,0,0,1,1.848,0,1.105,1.105,0,0,1,.344.836A1.108,1.108,0,0,1,99.5,5.2a1.448,1.448,0,0,1-1.836,0A1.108,1.108,0,0,1,97.313,4.359Zm7.422,7.883,1.57-5.7h2.359L105.813,15h-2.156L100.8,6.547h2.359Zm7.3,2.758h-2.266V6.547h2.266Zm-2.4-10.641a1.112,1.112,0,0,1,.34-.836,1.465,1.465,0,0,1,1.848,0,1.105,1.105,0,0,1,.344.836,1.108,1.108,0,0,1-.348.844,1.448,1.448,0,0,1-1.836,0A1.108,1.108,0,0,1,109.641,4.359ZM116.281,15h-2.266V3h2.266Zm13.453-4.148a5.07,5.07,0,0,1-.887,3.129,2.843,2.843,0,0,1-2.395,1.176,2.633,2.633,0,0,1-2.07-.891V18.25h-2.258V6.547h2.094l.078.828a2.654,2.654,0,0,1,2.141-.984,2.862,2.862,0,0,1,2.43,1.156,5.207,5.207,0,0,1,.867,3.188Zm-2.258-.172a3.345,3.345,0,0,0-.418-1.826,1.36,1.36,0,0,0-1.215-.643,1.478,1.478,0,0,0-1.461.815V12.5a1.5,1.5,0,0,0,1.477.839Q127.477,13.336,127.477,10.679Zm3.3.016a5.013,5.013,0,0,1,.484-2.242A3.546,3.546,0,0,1,132.66,6.93a4.069,4.069,0,0,1,2.113-.539,3.849,3.849,0,0,1,2.793,1.047,4.2,4.2,0,0,1,1.207,2.844l.016.578A4.418,4.418,0,0,1,137.7,13.98a4.209,4.209,0,0,1-5.832,0,4.5,4.5,0,0,1-1.09-3.187Zm2.258.16a3.16,3.16,0,0,0,.453,1.843,1.628,1.628,0,0,0,2.578.008,3.457,3.457,0,0,0,.461-2.015,3.128,3.128,0,0,0-.461-1.831,1.5,1.5,0,0,0-1.3-.649,1.474,1.474,0,0,0-1.281.646A3.516,3.516,0,0,0,133.039,10.856ZM144.93,8.664a6.134,6.134,0,0,0-.812-.062,1.654,1.654,0,0,0-1.68.867V15H140.18V6.547h2.133l.063,1.008a2.092,2.092,0,0,1,1.883-1.164,2.366,2.366,0,0,1,.7.1ZM8.566,34.852A5.07,5.07,0,0,1,7.68,37.98a2.843,2.843,0,0,1-2.395,1.176,2.633,2.633,0,0,1-2.07-.891V42.25H.957v-11.7H3.051l.078.828a2.654,2.654,0,0,1,2.141-.984A2.862,2.862,0,0,1,7.7,31.547a5.207,5.207,0,0,1,.867,3.188Zm-2.258-.172a3.345,3.345,0,0,0-.418-1.826,1.36,1.36,0,0,0-1.215-.643,1.478,1.478,0,0,0-1.461.815V36.5a1.5,1.5,0,0,0,1.477.839Q6.309,37.336,6.309,34.679Zm8.406-2.015A6.134,6.134,0,0,0,13.9,32.6a1.654,1.654,0,0,0-1.68.867V39H9.965V30.547H12.1l.063,1.008a2.092,2.092,0,0,1,1.883-1.164,2.366,2.366,0,0,1,.7.1Zm4.828,6.492a4.15,4.15,0,0,1-3.027-1.141,4.054,4.054,0,0,1-1.168-3.039v-.219a5.106,5.106,0,0,1,.492-2.277,3.612,3.612,0,0,1,1.395-1.547,3.914,3.914,0,0,1,2.059-.543,3.508,3.508,0,0,1,2.73,1.094,4.444,4.444,0,0,1,1,3.1v.922H17.637a2.1,2.1,0,0,0,.66,1.328,2,2,0,0,0,1.395.5,2.437,2.437,0,0,0,2.039-.945l1.109,1.242a3.389,3.389,0,0,1-1.375,1.121A4.511,4.511,0,0,1,19.543,39.156Zm-.258-6.945a1.411,1.411,0,0,0-1.09.455,2.357,2.357,0,0,0-.535,1.3H20.8v-.181a1.681,1.681,0,0,0-.406-1.165A1.456,1.456,0,0,0,19.285,32.211Zm9.594,4.453a.727.727,0,0,0-.41-.652,4.659,4.659,0,0,0-1.316-.426q-3.016-.633-3.016-2.562a2.323,2.323,0,0,1,.934-1.879,3.766,3.766,0,0,1,2.441-.754,4.053,4.053,0,0,1,2.574.758,2.388,2.388,0,0,1,.965,1.969H28.793a1.092,1.092,0,0,0-.312-.8A1.322,1.322,0,0,0,27.5,32a1.351,1.351,0,0,0-.883.258.814.814,0,0,0-.312.656.7.7,0,0,0,.355.605,3.657,3.657,0,0,0,1.2.4,9.8,9.8,0,0,1,1.422.379,2.336,2.336,0,0,1,1.789,2.273,2.2,2.2,0,0,1-.992,1.871,4.28,4.28,0,0,1-2.562.715,4.47,4.47,0,0,1-1.887-.379,3.166,3.166,0,0,1-1.293-1.039,2.414,2.414,0,0,1-.469-1.426h2.141a1.179,1.179,0,0,0,.445.922,1.766,1.766,0,0,0,1.109.32,1.635,1.635,0,0,0,.98-.246A.766.766,0,0,0,28.879,36.664Zm6.352-8.2v2.078h1.445V32.2H35.23v4.219a1.007,1.007,0,0,0,.18.672.9.9,0,0,0,.688.2,3.6,3.6,0,0,0,.664-.055v1.711a4.648,4.648,0,0,1-1.367.2,2.156,2.156,0,0,1-2.422-2.4V32.2H31.738V30.547h1.234V28.469ZM42.832,39a2.507,2.507,0,0,1-.227-.758,2.732,2.732,0,0,1-2.133.914,3,3,0,0,1-2.059-.719,2.312,2.312,0,0,1-.816-1.812,2.389,2.389,0,0,1,1-2.062,4.915,4.915,0,0,1,2.879-.727h1.039v-.484a1.393,1.393,0,0,0-.3-.937,1.183,1.183,0,0,0-.949-.352,1.345,1.345,0,0,0-.895.273.929.929,0,0,0-.324.75H37.785a2.268,2.268,0,0,1,.453-1.359,3,3,0,0,1,1.281-.98,4.669,4.669,0,0,1,1.859-.355,3.689,3.689,0,0,1,2.48.785,2.747,2.747,0,0,1,.918,2.207v3.664a4.041,4.041,0,0,0,.336,1.82V39Zm-1.867-1.57a1.945,1.945,0,0,0,.922-.223,1.462,1.462,0,0,0,.625-.6V35.156h-.844q-1.7,0-1.8,1.172l-.008.133a.9.9,0,0,0,.3.7A1.153,1.153,0,0,0,40.965,37.43Zm9.063-.094a1.481,1.481,0,0,0,1.016-.344,1.2,1.2,0,0,0,.406-.914h2.117a2.9,2.9,0,0,1-.469,1.574,3.093,3.093,0,0,1-1.262,1.109,3.949,3.949,0,0,1-1.77.395A3.67,3.67,0,0,1,47.207,38,4.56,4.56,0,0,1,46.16,34.82v-.148A4.508,4.508,0,0,1,47.2,31.555a3.627,3.627,0,0,1,2.852-1.164,3.555,3.555,0,0,1,2.543.9,3.2,3.2,0,0,1,.973,2.4H51.449a1.551,1.551,0,0,0-.406-1.072,1.51,1.51,0,0,0-2.223.163,3.333,3.333,0,0,0-.4,1.866v.235a3.375,3.375,0,0,0,.4,1.878A1.377,1.377,0,0,0,50.027,37.336ZM57.238,39H54.973V30.547h2.266Zm-2.4-10.641a1.112,1.112,0,0,1,.34-.836,1.465,1.465,0,0,1,1.848,0,1.193,1.193,0,0,1,0,1.68,1.448,1.448,0,0,1-1.836,0A1.108,1.108,0,0,1,54.84,28.359ZM58.746,34.7a5.013,5.013,0,0,1,.484-2.242,3.546,3.546,0,0,1,1.395-1.523,4.069,4.069,0,0,1,2.113-.539,3.849,3.849,0,0,1,2.793,1.047,4.2,4.2,0,0,1,1.207,2.844l.016.578a4.418,4.418,0,0,1-1.086,3.121,4.209,4.209,0,0,1-5.832,0,4.5,4.5,0,0,1-1.09-3.187Zm2.258.16a3.16,3.16,0,0,0,.453,1.843,1.628,1.628,0,0,0,2.578.008,3.457,3.457,0,0,0,.461-2.015,3.128,3.128,0,0,0-.461-1.831,1.5,1.5,0,0,0-1.3-.649,1.474,1.474,0,0,0-1.281.646A3.516,3.516,0,0,0,61,34.856ZM63.184,27h2.461L63.48,29.422H61.645Zm7.039,3.547.07.977a2.951,2.951,0,0,1,2.43-1.133,2.453,2.453,0,0,1,2,.789,3.682,3.682,0,0,1,.672,2.359V39H73.137V33.581a1.47,1.47,0,0,0-.312-1.045,1.4,1.4,0,0,0-1.039-.325,1.553,1.553,0,0,0-1.43.814V39H68.1V30.547Zm10.516,4.164a5.094,5.094,0,0,1,.887-3.148,2.877,2.877,0,0,1,2.426-1.172,2.589,2.589,0,0,1,2.039.922V27h2.266V39H86.316l-.109-.9a2.657,2.657,0,0,1-2.172,1.055,2.869,2.869,0,0,1-2.395-1.176A5.258,5.258,0,0,1,80.738,34.711ZM83,34.872A3.355,3.355,0,0,0,83.41,36.7a1.348,1.348,0,0,0,1.2.636,1.51,1.51,0,0,0,1.477-.887V33.1a1.489,1.489,0,0,0-1.461-.887Q83,32.211,83,34.872Zm11,4.285a4.15,4.15,0,0,1-3.027-1.141A4.054,4.054,0,0,1,89.8,34.977v-.219a5.106,5.106,0,0,1,.492-2.277,3.612,3.612,0,0,1,1.395-1.547,3.914,3.914,0,0,1,2.059-.543,3.508,3.508,0,0,1,2.73,1.094,4.444,4.444,0,0,1,1,3.1v.922H92.09a2.1,2.1,0,0,0,.66,1.328,2,2,0,0,0,1.395.5,2.437,2.437,0,0,0,2.039-.945l1.109,1.242a3.389,3.389,0,0,1-1.375,1.121A4.511,4.511,0,0,1,94,39.156Zm-.258-6.945a1.411,1.411,0,0,0-1.09.455,2.357,2.357,0,0,0-.535,1.3h3.141v-.181a1.681,1.681,0,0,0-.406-1.165A1.456,1.456,0,0,0,93.738,32.211Zm13.578,4.453a.727.727,0,0,0-.41-.652,4.659,4.659,0,0,0-1.316-.426q-3.016-.633-3.016-2.562a2.323,2.323,0,0,1,.934-1.879,3.766,3.766,0,0,1,2.441-.754,4.053,4.053,0,0,1,2.574.758,2.388,2.388,0,0,1,.965,1.969H107.23a1.092,1.092,0,0,0-.312-.8,1.322,1.322,0,0,0-.977-.316,1.351,1.351,0,0,0-.883.258.814.814,0,0,0-.312.656.7.7,0,0,0,.355.605,3.657,3.657,0,0,0,1.2.4,9.8,9.8,0,0,1,1.422.379,2.336,2.336,0,0,1,1.789,2.273,2.2,2.2,0,0,1-.992,1.871,4.28,4.28,0,0,1-2.562.715,4.47,4.47,0,0,1-1.887-.379,3.166,3.166,0,0,1-1.293-1.039,2.414,2.414,0,0,1-.469-1.426h2.141a1.179,1.179,0,0,0,.445.922,1.766,1.766,0,0,0,1.109.32,1.635,1.635,0,0,0,.98-.246A.766.766,0,0,0,107.316,36.664Zm7.539,2.492a4.15,4.15,0,0,1-3.027-1.141,4.054,4.054,0,0,1-1.168-3.039v-.219a5.106,5.106,0,0,1,.492-2.277,3.612,3.612,0,0,1,1.395-1.547,3.914,3.914,0,0,1,2.059-.543,3.508,3.508,0,0,1,2.73,1.094,4.444,4.444,0,0,1,1,3.1v.922h-5.383a2.1,2.1,0,0,0,.66,1.328,2,2,0,0,0,1.395.5,2.437,2.437,0,0,0,2.039-.945l1.109,1.242a3.389,3.389,0,0,1-1.375,1.121A4.511,4.511,0,0,1,114.855,39.156Zm-.258-6.945a1.411,1.411,0,0,0-1.09.455,2.357,2.357,0,0,0-.535,1.3h3.141v-.181a1.681,1.681,0,0,0-.406-1.165A1.456,1.456,0,0,0,114.6,32.211Zm9.766.453a6.134,6.134,0,0,0-.812-.062,1.654,1.654,0,0,0-1.68.867V39h-2.258V30.547h2.133l.063,1.008a2.092,2.092,0,0,1,1.883-1.164,2.366,2.366,0,0,1,.7.1Zm4.391,3.578,1.57-5.7h2.359L129.832,39h-2.156l-2.852-8.453h2.359Zm7.3,2.758h-2.266V30.547h2.266Zm-2.4-10.641a1.112,1.112,0,0,1,.34-.836,1.465,1.465,0,0,1,1.848,0,1.193,1.193,0,0,1,0,1.68,1.448,1.448,0,0,1-1.836,0A1.109,1.109,0,0,1,133.66,28.359Zm7.773,8.977a1.481,1.481,0,0,0,1.016-.344,1.2,1.2,0,0,0,.406-.914h2.117a2.9,2.9,0,0,1-.469,1.574,3.093,3.093,0,0,1-1.262,1.109,3.949,3.949,0,0,1-1.77.395A3.67,3.67,0,0,1,138.613,38a4.56,4.56,0,0,1-1.047-3.184v-.148a4.508,4.508,0,0,1,1.039-3.117,3.627,3.627,0,0,1,2.852-1.164,3.555,3.555,0,0,1,2.543.9,3.2,3.2,0,0,1,.973,2.4h-2.117a1.551,1.551,0,0,0-.406-1.072,1.51,1.51,0,0,0-2.223.163,3.333,3.333,0,0,0-.4,1.866v.235a3.375,3.375,0,0,0,.4,1.878A1.377,1.377,0,0,0,141.434,37.336ZM148.645,39h-2.266V30.547h2.266Zm-2.4-10.641a1.112,1.112,0,0,1,.34-.836,1.465,1.465,0,0,1,1.848,0,1.193,1.193,0,0,1,0,1.68,1.448,1.448,0,0,1-1.836,0A1.109,1.109,0,0,1,146.246,28.359Zm3.906,6.336a5.013,5.013,0,0,1,.484-2.242,3.546,3.546,0,0,1,1.395-1.523,4.069,4.069,0,0,1,2.113-.539,3.849,3.849,0,0,1,2.793,1.047,4.2,4.2,0,0,1,1.207,2.844l.016.578a4.418,4.418,0,0,1-1.086,3.121,4.209,4.209,0,0,1-5.832,0,4.5,4.5,0,0,1-1.09-3.187Zm2.258.16a3.16,3.16,0,0,0,.453,1.843,1.628,1.628,0,0,0,2.578.008,3.457,3.457,0,0,0,.461-2.015,3.128,3.128,0,0,0-.461-1.831,1.5,1.5,0,0,0-1.3-.649,1.474,1.474,0,0,0-1.281.646A3.516,3.516,0,0,0,152.41,34.856Zm11.719,1.808a.727.727,0,0,0-.41-.652,4.659,4.659,0,0,0-1.316-.426q-3.016-.633-3.016-2.562a2.323,2.323,0,0,1,.934-1.879,3.766,3.766,0,0,1,2.441-.754,4.053,4.053,0,0,1,2.574.758,2.388,2.388,0,0,1,.965,1.969h-2.258a1.092,1.092,0,0,0-.312-.8,1.322,1.322,0,0,0-.977-.316,1.351,1.351,0,0,0-.883.258.814.814,0,0,0-.312.656.7.7,0,0,0,.355.605,3.657,3.657,0,0,0,1.2.4,9.8,9.8,0,0,1,1.422.379,2.336,2.336,0,0,1,1.789,2.273,2.205,2.205,0,0,1-.992,1.871,4.28,4.28,0,0,1-2.562.715,4.47,4.47,0,0,1-1.887-.379,3.166,3.166,0,0,1-1.293-1.039,2.414,2.414,0,0,1-.469-1.426h2.141a1.179,1.179,0,0,0,.445.922,1.766,1.766,0,0,0,1.109.32,1.635,1.635,0,0,0,.98-.246A.766.766,0,0,0,164.129,36.664Z" transform="translate(3763 -8919.38)" fill="#fff"/>
      <path id="Trazado_701891" data-name="Trazado 701891" d="M15,0H175a15,15,0,0,1,15,15V65.031a15,15,0,0,1-15,15H15a15,15,0,0,1-15-15V15A15,15,0,0,1,15,0Z" transform="translate(3751 -8807.702)" fill="#112e4c"/>
      <path id="Trazado_701892" data-name="Trazado 701892" d="M45.506,11.211A4.025,4.025,0,0,1,44.15,14.1a4.76,4.76,0,0,1-3.223,1.055,4.281,4.281,0,0,1-3.441-1.473,6.038,6.038,0,0,1-1.254-4.043v-.7a6.819,6.819,0,0,1,.578-2.891,4.332,4.332,0,0,1,1.652-1.918,5.164,5.164,0,0,1,5.668.387,4.326,4.326,0,0,1,1.391,2.961H43.178a2.376,2.376,0,0,0-.613-1.6,2.271,2.271,0,0,0-1.605-.5,1.991,1.991,0,0,0-1.754.84,4.707,4.707,0,0,0-.6,2.605V9.7a5.038,5.038,0,0,0,.559,2.7,1.954,1.954,0,0,0,1.762.852,2.314,2.314,0,0,0,1.621-.5,2.241,2.241,0,0,0,.613-1.535Zm1.039-.516a5.013,5.013,0,0,1,.484-2.242A3.546,3.546,0,0,1,48.424,6.93a4.069,4.069,0,0,1,2.113-.539A3.849,3.849,0,0,1,53.33,7.438a4.2,4.2,0,0,1,1.207,2.844l.016.578a4.418,4.418,0,0,1-1.086,3.121,4.209,4.209,0,0,1-5.832,0,4.5,4.5,0,0,1-1.09-3.187Zm2.258.16a3.16,3.16,0,0,0,.453,1.843,1.628,1.628,0,0,0,2.578.008,3.457,3.457,0,0,0,.461-2.015,3.128,3.128,0,0,0-.461-1.831,1.5,1.5,0,0,0-1.3-.649,1.474,1.474,0,0,0-1.281.646A3.516,3.516,0,0,0,48.8,10.856Zm9.219-4.309.07.977a2.951,2.951,0,0,1,2.43-1.133,2.453,2.453,0,0,1,2,.789,3.682,3.682,0,0,1,.672,2.359V15H60.936V9.581a1.47,1.47,0,0,0-.312-1.045,1.4,1.4,0,0,0-1.039-.325,1.553,1.553,0,0,0-1.43.814V15H55.9V6.547Zm9.586-2.078V6.547h1.445V8.2H67.607v4.219a1.007,1.007,0,0,0,.18.672.9.9,0,0,0,.688.2,3.6,3.6,0,0,0,.664-.055v1.711a4.648,4.648,0,0,1-1.367.2,2.156,2.156,0,0,1-2.422-2.4V8.2H64.115V6.547H65.35V4.469Zm7.453,4.2a6.134,6.134,0,0,0-.812-.062,1.654,1.654,0,0,0-1.68.867V15H70.311V6.547h2.133l.063,1.008a2.092,2.092,0,0,1,1.883-1.164,2.366,2.366,0,0,1,.7.1ZM80.811,15a2.507,2.507,0,0,1-.227-.758,2.732,2.732,0,0,1-2.133.914,3,3,0,0,1-2.059-.719,2.312,2.312,0,0,1-.816-1.812,2.389,2.389,0,0,1,1-2.062,4.915,4.915,0,0,1,2.879-.727H80.49V9.352a1.393,1.393,0,0,0-.3-.937,1.183,1.183,0,0,0-.949-.352,1.345,1.345,0,0,0-.895.273.929.929,0,0,0-.324.75H75.764a2.268,2.268,0,0,1,.453-1.359,3,3,0,0,1,1.281-.98,4.669,4.669,0,0,1,1.859-.355,3.689,3.689,0,0,1,2.48.785,2.747,2.747,0,0,1,.918,2.207v3.664a4.041,4.041,0,0,0,.336,1.82V15Zm-1.867-1.57a1.945,1.945,0,0,0,.922-.223,1.462,1.462,0,0,0,.625-.6V11.156h-.844q-1.7,0-1.8,1.172l-.008.133a.9.9,0,0,0,.3.7A1.153,1.153,0,0,0,78.943,13.43Zm8.25-8.961V6.547h1.445V8.2H87.193v4.219a1.007,1.007,0,0,0,.18.672.9.9,0,0,0,.688.2,3.6,3.6,0,0,0,.664-.055v1.711a4.648,4.648,0,0,1-1.367.2,2.156,2.156,0,0,1-2.422-2.4V8.2H83.7V6.547h1.234V4.469ZM89.311,10.7a5.013,5.013,0,0,1,.484-2.242A3.546,3.546,0,0,1,91.189,6.93,4.069,4.069,0,0,1,93.3,6.391,3.849,3.849,0,0,1,96.1,7.438,4.2,4.2,0,0,1,97.3,10.281l.016.578a4.418,4.418,0,0,1-1.086,3.121,4.209,4.209,0,0,1-5.832,0,4.5,4.5,0,0,1-1.09-3.187Zm2.258.16a3.16,3.16,0,0,0,.453,1.843,1.628,1.628,0,0,0,2.578.008,3.457,3.457,0,0,0,.461-2.015A3.128,3.128,0,0,0,94.6,8.86a1.5,1.5,0,0,0-1.3-.649,1.474,1.474,0,0,0-1.281.646A3.516,3.516,0,0,0,91.568,10.856ZM107.592,15a2.507,2.507,0,0,1-.227-.758,2.732,2.732,0,0,1-2.133.914,3,3,0,0,1-2.059-.719,2.312,2.312,0,0,1-.816-1.812,2.389,2.389,0,0,1,1-2.062,4.915,4.915,0,0,1,2.879-.727h1.039V9.352a1.393,1.393,0,0,0-.3-.937,1.183,1.183,0,0,0-.949-.352,1.345,1.345,0,0,0-.895.273.929.929,0,0,0-.324.75h-2.258A2.268,2.268,0,0,1,103,7.727a3,3,0,0,1,1.281-.98,4.669,4.669,0,0,1,1.859-.355,3.689,3.689,0,0,1,2.48.785,2.747,2.747,0,0,1,.918,2.207v3.664a4.041,4.041,0,0,0,.336,1.82V15Zm-1.867-1.57a1.945,1.945,0,0,0,.922-.223,1.462,1.462,0,0,0,.625-.6V11.156h-.844q-1.7,0-1.8,1.172l-.008.133a.9.9,0,0,0,.3.7A1.153,1.153,0,0,0,105.725,13.43ZM35.1,28.469v2.078h1.445V32.2H35.1v4.219a1.007,1.007,0,0,0,.18.672.9.9,0,0,0,.688.2,3.6,3.6,0,0,0,.664-.055v1.711a4.648,4.648,0,0,1-1.367.2,2.156,2.156,0,0,1-2.422-2.4V32.2H31.6V30.547h1.234V28.469Zm6.594,10.688a4.15,4.15,0,0,1-3.027-1.141,4.054,4.054,0,0,1-1.168-3.039v-.219a5.106,5.106,0,0,1,.492-2.277,3.612,3.612,0,0,1,1.395-1.547,3.914,3.914,0,0,1,2.059-.543,3.508,3.508,0,0,1,2.73,1.094,4.444,4.444,0,0,1,1,3.1v.922H39.783a2.1,2.1,0,0,0,.66,1.328,2,2,0,0,0,1.395.5,2.437,2.437,0,0,0,2.039-.945l1.109,1.242a3.389,3.389,0,0,1-1.375,1.121A4.511,4.511,0,0,1,41.689,39.156Zm-.258-6.945a1.411,1.411,0,0,0-1.09.455,2.357,2.357,0,0,0-.535,1.3h3.141v-.181a1.681,1.681,0,0,0-.406-1.165A1.456,1.456,0,0,0,41.432,32.211Zm.2-5.211H44.1l-2.164,2.422H40.1ZM51.2,32.664a6.134,6.134,0,0,0-.812-.062,1.654,1.654,0,0,0-1.68.867V39H46.447V30.547H48.58l.063,1.008a2.092,2.092,0,0,1,1.883-1.164,2.366,2.366,0,0,1,.7.1Zm3.2-2.117.07.945a2.971,2.971,0,0,1,2.43-1.1,2.255,2.255,0,0,1,2.242,1.289,2.9,2.9,0,0,1,2.539-1.289,2.521,2.521,0,0,1,2.047.8A3.681,3.681,0,0,1,64.4,33.6V39H62.135V33.6a1.616,1.616,0,0,0-.281-1.053,1.245,1.245,0,0,0-.992-.333,1.409,1.409,0,0,0-1.406.971L59.463,39H57.205V33.6a1.6,1.6,0,0,0-.289-1.065,1.257,1.257,0,0,0-.984-.329,1.463,1.463,0,0,0-1.391.8V39H52.283V30.547ZM68.518,39H66.252V30.547h2.266Zm-2.4-10.641a1.112,1.112,0,0,1,.34-.836,1.465,1.465,0,0,1,1.848,0,1.193,1.193,0,0,1,0,1.68,1.448,1.448,0,0,1-1.836,0A1.108,1.108,0,0,1,66.119,28.359Zm6.336,2.188.07.977a2.951,2.951,0,0,1,2.43-1.133,2.453,2.453,0,0,1,2,.789,3.682,3.682,0,0,1,.672,2.359V39H75.369V33.581a1.47,1.47,0,0,0-.312-1.045,1.4,1.4,0,0,0-1.039-.325,1.553,1.553,0,0,0-1.43.814V39H70.33V30.547ZM78.986,34.7a5.013,5.013,0,0,1,.484-2.242,3.546,3.546,0,0,1,1.395-1.523,4.069,4.069,0,0,1,2.113-.539,3.849,3.849,0,0,1,2.793,1.047,4.2,4.2,0,0,1,1.207,2.844l.016.578a4.418,4.418,0,0,1-1.086,3.121,4.209,4.209,0,0,1-5.832,0,4.5,4.5,0,0,1-1.09-3.187Zm2.258.16A3.16,3.16,0,0,0,81.7,36.7a1.628,1.628,0,0,0,2.578.008,3.457,3.457,0,0,0,.461-2.015,3.128,3.128,0,0,0-.461-1.831,1.5,1.5,0,0,0-1.3-.649,1.474,1.474,0,0,0-1.281.646A3.516,3.516,0,0,0,81.244,34.856ZM92.916,39V32.2H91.658V30.547h1.258v-.391A3.17,3.17,0,0,1,93.9,27.7a3.945,3.945,0,0,1,2.723-.863,9.031,9.031,0,0,1,2.563.461l-.328,1.867a10,10,0,0,0-1.187-.293,5.835,5.835,0,0,0-.906-.066q-1.578,0-1.578,1.4v.344h1.664V32.2H95.182V39Zm7.32,0H97.971V30.547h2.266Zm4.258-8.453v8.914a3.024,3.024,0,0,1-.742,2.176,2.821,2.821,0,0,1-2.141.777,4.591,4.591,0,0,1-1.117-.133V40.492a4.238,4.238,0,0,0,.711.07q1.023,0,1.023-1.086v-8.93Zm-2.445-2.187a1.112,1.112,0,0,1,.34-.836,1.47,1.47,0,0,1,1.852,0,1.2,1.2,0,0,1-.008,1.68,1.448,1.448,0,0,1-1.836,0A1.108,1.108,0,0,1,102.049,28.359Zm3.859,6.336a5.013,5.013,0,0,1,.484-2.242,3.546,3.546,0,0,1,1.395-1.523,4.069,4.069,0,0,1,2.113-.539,3.849,3.849,0,0,1,2.793,1.047,4.2,4.2,0,0,1,1.207,2.844l.016.578a4.418,4.418,0,0,1-1.086,3.121,4.209,4.209,0,0,1-5.832,0,4.5,4.5,0,0,1-1.09-3.187Zm2.258.16a3.16,3.16,0,0,0,.453,1.843,1.628,1.628,0,0,0,2.578.008,3.457,3.457,0,0,0,.461-2.015,3.128,3.128,0,0,0-.461-1.831,1.5,1.5,0,0,0-1.3-.649,1.474,1.474,0,0,0-1.281.646A3.516,3.516,0,0,0,108.166,34.856Z" transform="translate(3773 -8797.702)" fill="#fff"/>
      <path id="Trazado_701893" data-name="Trazado 701893" d="M15,0H175a15,15,0,0,1,15,15V65.031a15,15,0,0,1-15,15H15a15,15,0,0,1-15-15V15A15,15,0,0,1,15,0Z" transform="translate(3751 -8687.702)" fill="#112e4c"/>
      <path id="Trazado_701894" data-name="Trazado 701894" d="M15.518,11.211A4.025,4.025,0,0,1,14.162,14.1a4.76,4.76,0,0,1-3.223,1.055A4.28,4.28,0,0,1,7.5,13.684,6.038,6.038,0,0,1,6.244,9.641v-.7a6.819,6.819,0,0,1,.578-2.891A4.332,4.332,0,0,1,8.475,4.137a4.629,4.629,0,0,1,2.5-.668,4.637,4.637,0,0,1,3.172,1.055,4.326,4.326,0,0,1,1.391,2.961H13.189a2.376,2.376,0,0,0-.613-1.6,2.271,2.271,0,0,0-1.605-.5,1.991,1.991,0,0,0-1.754.84,4.707,4.707,0,0,0-.6,2.605V9.7a5.038,5.038,0,0,0,.559,2.7,1.954,1.954,0,0,0,1.762.852,2.314,2.314,0,0,0,1.621-.5,2.241,2.241,0,0,0,.613-1.535Zm1.039-.516a5.013,5.013,0,0,1,.484-2.242A3.546,3.546,0,0,1,18.436,6.93a4.069,4.069,0,0,1,2.113-.539,3.849,3.849,0,0,1,2.793,1.047,4.2,4.2,0,0,1,1.207,2.844l.016.578a4.418,4.418,0,0,1-1.086,3.121,3.775,3.775,0,0,1-2.914,1.176,3.793,3.793,0,0,1-2.918-1.172,4.5,4.5,0,0,1-1.09-3.187Zm2.258.16a3.16,3.16,0,0,0,.453,1.843,1.628,1.628,0,0,0,2.578.008,3.457,3.457,0,0,0,.461-2.015,3.128,3.128,0,0,0-.461-1.831,1.5,1.5,0,0,0-1.3-.649,1.474,1.474,0,0,0-1.281.646A3.516,3.516,0,0,0,18.814,10.856Zm9.219-4.309.07.977a2.951,2.951,0,0,1,2.43-1.133,2.453,2.453,0,0,1,2,.789,3.682,3.682,0,0,1,.672,2.359V15H30.947V9.581a1.47,1.47,0,0,0-.312-1.045A1.4,1.4,0,0,0,29.6,8.211a1.553,1.553,0,0,0-1.43.814V15H25.908V6.547Zm9.586-2.078V6.547h1.445V8.2H37.619v4.219a1.007,1.007,0,0,0,.18.672.9.9,0,0,0,.688.2,3.6,3.6,0,0,0,.664-.055v1.711a4.648,4.648,0,0,1-1.367.2,2.156,2.156,0,0,1-2.422-2.4V8.2H34.127V6.547h1.234V4.469Zm7.453,4.2A6.134,6.134,0,0,0,44.26,8.6a1.654,1.654,0,0,0-1.68.867V15H40.322V6.547h2.133l.063,1.008A2.092,2.092,0,0,1,44.4,6.391a2.366,2.366,0,0,1,.7.1ZM50.822,15a2.507,2.507,0,0,1-.227-.758,2.732,2.732,0,0,1-2.133.914,3,3,0,0,1-2.059-.719,2.312,2.312,0,0,1-.816-1.812,2.389,2.389,0,0,1,1-2.062,4.915,4.915,0,0,1,2.879-.727H50.5V9.352a1.393,1.393,0,0,0-.3-.937,1.183,1.183,0,0,0-.949-.352,1.345,1.345,0,0,0-.895.273.929.929,0,0,0-.324.75H45.775a2.268,2.268,0,0,1,.453-1.359,3,3,0,0,1,1.281-.98,4.669,4.669,0,0,1,1.859-.355,3.689,3.689,0,0,1,2.48.785,2.747,2.747,0,0,1,.918,2.207v3.664a4.041,4.041,0,0,0,.336,1.82V15Zm-1.867-1.57a1.945,1.945,0,0,0,.922-.223,1.462,1.462,0,0,0,.625-.6V11.156h-.844q-1.7,0-1.8,1.172l-.008.133a.9.9,0,0,0,.3.7A1.153,1.153,0,0,0,48.955,13.43Zm8.25-8.961V6.547H58.65V8.2H57.205v4.219a1.007,1.007,0,0,0,.18.672.9.9,0,0,0,.688.2,3.6,3.6,0,0,0,.664-.055v1.711a4.648,4.648,0,0,1-1.367.2,2.156,2.156,0,0,1-2.422-2.4V8.2H53.713V6.547h1.234V4.469ZM59.322,10.7a5.013,5.013,0,0,1,.484-2.242A3.546,3.546,0,0,1,61.2,6.93a4.069,4.069,0,0,1,2.113-.539,3.849,3.849,0,0,1,2.793,1.047,4.2,4.2,0,0,1,1.207,2.844l.016.578a4.418,4.418,0,0,1-1.086,3.121,4.209,4.209,0,0,1-5.832,0,4.5,4.5,0,0,1-1.09-3.187Zm2.258.16a3.16,3.16,0,0,0,.453,1.843,1.628,1.628,0,0,0,2.578.008,3.457,3.457,0,0,0,.461-2.015,3.128,3.128,0,0,0-.461-1.831,1.5,1.5,0,0,0-1.3-.649,1.474,1.474,0,0,0-1.281.646A3.516,3.516,0,0,0,61.58,10.856ZM77.6,15a2.507,2.507,0,0,1-.227-.758,2.732,2.732,0,0,1-2.133.914,3,3,0,0,1-2.059-.719,2.312,2.312,0,0,1-.816-1.812,2.389,2.389,0,0,1,1-2.062,4.915,4.915,0,0,1,2.879-.727h1.039V9.352a1.393,1.393,0,0,0-.3-.937,1.183,1.183,0,0,0-.949-.352,1.345,1.345,0,0,0-.895.273.929.929,0,0,0-.324.75H72.557a2.268,2.268,0,0,1,.453-1.359,3,3,0,0,1,1.281-.98,4.669,4.669,0,0,1,1.859-.355,3.689,3.689,0,0,1,2.48.785,2.747,2.747,0,0,1,.918,2.207v3.664a4.041,4.041,0,0,0,.336,1.82V15Zm-1.867-1.57a1.945,1.945,0,0,0,.922-.223,1.462,1.462,0,0,0,.625-.6V11.156h-.844q-1.7,0-1.8,1.172l-.008.133a.9.9,0,0,0,.3.7A1.153,1.153,0,0,0,75.736,13.43ZM87.971,4.469V6.547h1.445V8.2H87.971v4.219a1.007,1.007,0,0,0,.18.672.9.9,0,0,0,.688.2,3.6,3.6,0,0,0,.664-.055v1.711a4.648,4.648,0,0,1-1.367.2,2.156,2.156,0,0,1-2.422-2.4V8.2H84.479V6.547h1.234V4.469Zm6.594,10.688a4.15,4.15,0,0,1-3.027-1.141,4.054,4.054,0,0,1-1.168-3.039v-.219a5.106,5.106,0,0,1,.492-2.277,3.612,3.612,0,0,1,1.395-1.547,3.914,3.914,0,0,1,2.059-.543,3.508,3.508,0,0,1,2.73,1.094,4.444,4.444,0,0,1,1,3.1v.922H92.658a2.1,2.1,0,0,0,.66,1.328,2,2,0,0,0,1.395.5,2.437,2.437,0,0,0,2.039-.945l1.109,1.242a3.389,3.389,0,0,1-1.375,1.121A4.511,4.511,0,0,1,94.564,15.156Zm-.258-6.945a1.411,1.411,0,0,0-1.09.455,2.357,2.357,0,0,0-.535,1.3h3.141V9.788a1.681,1.681,0,0,0-.406-1.165A1.456,1.456,0,0,0,94.307,8.211ZM94.51,3h2.461L94.807,5.422H92.971Zm9.563,5.664a6.134,6.134,0,0,0-.812-.062,1.654,1.654,0,0,0-1.68.867V15H99.322V6.547h2.133l.063,1.008A2.092,2.092,0,0,1,103.4,6.391a2.366,2.366,0,0,1,.7.1Zm3.2-2.117.07.945a2.971,2.971,0,0,1,2.43-1.1,2.255,2.255,0,0,1,2.242,1.289,2.9,2.9,0,0,1,2.539-1.289,2.521,2.521,0,0,1,2.047.8,3.681,3.681,0,0,1,.672,2.41V15H115.01V9.6a1.616,1.616,0,0,0-.281-1.053,1.245,1.245,0,0,0-.992-.333,1.409,1.409,0,0,0-1.406.971L112.338,15H110.08V9.6a1.6,1.6,0,0,0-.289-1.065,1.257,1.257,0,0,0-.984-.329,1.463,1.463,0,0,0-1.391.8V15h-2.258V6.547ZM121.393,15h-2.266V6.547h2.266Zm-2.4-10.641a1.112,1.112,0,0,1,.34-.836,1.465,1.465,0,0,1,1.848,0,1.105,1.105,0,0,1,.344.836,1.108,1.108,0,0,1-.348.844,1.448,1.448,0,0,1-1.836,0A1.108,1.108,0,0,1,118.994,4.359Zm6.336,2.188.07.977a2.951,2.951,0,0,1,2.43-1.133,2.453,2.453,0,0,1,2,.789,3.682,3.682,0,0,1,.672,2.359V15h-2.258V9.581a1.47,1.47,0,0,0-.312-1.045,1.4,1.4,0,0,0-1.039-.325,1.553,1.553,0,0,0-1.43.814V15h-2.258V6.547Zm6.531,4.148a5.013,5.013,0,0,1,.484-2.242A3.546,3.546,0,0,1,133.74,6.93a4.069,4.069,0,0,1,2.113-.539,3.849,3.849,0,0,1,2.793,1.047,4.2,4.2,0,0,1,1.207,2.844l.016.578a4.418,4.418,0,0,1-1.086,3.121,4.209,4.209,0,0,1-5.832,0,4.5,4.5,0,0,1-1.09-3.187Zm2.258.16a3.16,3.16,0,0,0,.453,1.843,1.628,1.628,0,0,0,2.578.008,3.457,3.457,0,0,0,.461-2.015,3.128,3.128,0,0,0-.461-1.831,1.5,1.5,0,0,0-1.3-.649,1.474,1.474,0,0,0-1.281.646A3.516,3.516,0,0,0,134.119,10.856ZM40.3,39H38.033V30.547H40.3ZM37.9,28.359a1.112,1.112,0,0,1,.34-.836,1.465,1.465,0,0,1,1.848,0,1.193,1.193,0,0,1,0,1.68,1.448,1.448,0,0,1-1.836,0A1.108,1.108,0,0,1,37.9,28.359Zm6.336,2.188.07.977a2.951,2.951,0,0,1,2.43-1.133,2.453,2.453,0,0,1,2,.789,3.682,3.682,0,0,1,.672,2.359V39H47.15V33.581a1.47,1.47,0,0,0-.312-1.045,1.4,1.4,0,0,0-1.039-.325,1.553,1.553,0,0,0-1.43.814V39H42.111V30.547Zm6.531,4.164a5.094,5.094,0,0,1,.887-3.148,2.877,2.877,0,0,1,2.426-1.172,2.589,2.589,0,0,1,2.039.922V27h2.266V39H56.346l-.109-.9a2.657,2.657,0,0,1-2.172,1.055A2.869,2.869,0,0,1,51.67,37.98,5.258,5.258,0,0,1,50.768,34.711Zm2.258.161a3.355,3.355,0,0,0,.414,1.829,1.348,1.348,0,0,0,1.2.636,1.51,1.51,0,0,0,1.477-.887V33.1a1.489,1.489,0,0,0-1.461-.887Q53.025,32.211,53.025,34.872Zm11,4.285A4.15,4.15,0,0,1,61,38.016a4.054,4.054,0,0,1-1.168-3.039v-.219a5.106,5.106,0,0,1,.492-2.277,3.612,3.612,0,0,1,1.395-1.547,3.914,3.914,0,0,1,2.059-.543,3.508,3.508,0,0,1,2.73,1.094,4.444,4.444,0,0,1,1,3.1v.922H62.119a2.1,2.1,0,0,0,.66,1.328,2,2,0,0,0,1.395.5,2.437,2.437,0,0,0,2.039-.945l1.109,1.242a3.389,3.389,0,0,1-1.375,1.121A4.511,4.511,0,0,1,64.025,39.156Zm-.258-6.945a1.411,1.411,0,0,0-1.09.455,2.357,2.357,0,0,0-.535,1.3h3.141v-.181a1.681,1.681,0,0,0-.406-1.165A1.456,1.456,0,0,0,63.768,32.211ZM69.33,39V32.2H68.072V30.547H69.33v-.391a3.17,3.17,0,0,1,.98-2.457,3.945,3.945,0,0,1,2.723-.863A9.031,9.031,0,0,1,75.6,27.3l-.328,1.867a10,10,0,0,0-1.187-.293,5.835,5.835,0,0,0-.906-.066q-1.578,0-1.578,1.4v.344H73.26V32.2H71.6V39Zm7.32,0H74.385V30.547H76.65ZM80.6,30.547l.07.977a2.951,2.951,0,0,1,2.43-1.133,2.453,2.453,0,0,1,2,.789,3.682,3.682,0,0,1,.672,2.359V39H83.51V33.581a1.47,1.47,0,0,0-.312-1.045,1.4,1.4,0,0,0-1.039-.325,1.553,1.553,0,0,0-1.43.814V39H78.471V30.547ZM89.861,39H87.6V30.547h2.266Zm-2.4-10.641a1.112,1.112,0,0,1,.34-.836,1.465,1.465,0,0,1,1.848,0,1.193,1.193,0,0,1,0,1.68,1.448,1.448,0,0,1-1.836,0A1.108,1.108,0,0,1,87.463,28.359Zm3.906,6.352a5.094,5.094,0,0,1,.887-3.148,2.877,2.877,0,0,1,2.426-1.172,2.589,2.589,0,0,1,2.039.922V27h2.266V39H96.947l-.109-.9a2.657,2.657,0,0,1-2.172,1.055,2.869,2.869,0,0,1-2.395-1.176A5.258,5.258,0,0,1,91.369,34.711Zm2.258.161a3.355,3.355,0,0,0,.414,1.829,1.348,1.348,0,0,0,1.2.636,1.51,1.51,0,0,0,1.477-.887V33.1a1.489,1.489,0,0,0-1.461-.887Q93.627,32.211,93.627,34.872Zm6.758-.176a5.013,5.013,0,0,1,.484-2.242,3.546,3.546,0,0,1,1.395-1.523,4.069,4.069,0,0,1,2.113-.539,3.849,3.849,0,0,1,2.793,1.047,4.2,4.2,0,0,1,1.207,2.844l.016.578a4.418,4.418,0,0,1-1.086,3.121,4.209,4.209,0,0,1-5.832,0,4.5,4.5,0,0,1-1.09-3.187Zm2.258.16A3.16,3.16,0,0,0,103.1,36.7a1.628,1.628,0,0,0,2.578.008,3.457,3.457,0,0,0,.461-2.015,3.128,3.128,0,0,0-.461-1.831,1.5,1.5,0,0,0-1.3-.649,1.474,1.474,0,0,0-1.281.646A3.516,3.516,0,0,0,102.643,34.856Z" transform="translate(3773 -8677.702)" fill="#fff"/>
      <path id="Trazado_701895" data-name="Trazado 701895" d="M15,0H175a15,15,0,0,1,15,15V57.5a15,15,0,0,1-15,15H15a15,15,0,0,1-15-15V15A15,15,0,0,1,15,0Z" transform="translate(3979 -8929.38)" fill="#112e4c"/>
      <path id="Trazado_701896" data-name="Trazado 701896" d="M40.963,11.211A4.025,4.025,0,0,1,39.607,14.1a4.76,4.76,0,0,1-3.223,1.055,4.281,4.281,0,0,1-3.441-1.473,6.038,6.038,0,0,1-1.254-4.043v-.7a6.819,6.819,0,0,1,.578-2.891A4.332,4.332,0,0,1,33.92,4.137a5.164,5.164,0,0,1,5.668.387,4.326,4.326,0,0,1,1.391,2.961H38.635a2.376,2.376,0,0,0-.613-1.6,2.271,2.271,0,0,0-1.605-.5,1.991,1.991,0,0,0-1.754.84,4.707,4.707,0,0,0-.6,2.605V9.7a5.038,5.038,0,0,0,.559,2.7,1.954,1.954,0,0,0,1.762.852,2.314,2.314,0,0,0,1.621-.5,2.241,2.241,0,0,0,.613-1.535ZM42,10.7a5.013,5.013,0,0,1,.484-2.242A3.546,3.546,0,0,1,43.881,6.93a4.069,4.069,0,0,1,2.113-.539,3.849,3.849,0,0,1,2.793,1.047,4.2,4.2,0,0,1,1.207,2.844l.016.578a4.418,4.418,0,0,1-1.086,3.121,4.209,4.209,0,0,1-5.832,0A4.5,4.5,0,0,1,42,10.8Zm2.258.16a3.16,3.16,0,0,0,.453,1.843,1.628,1.628,0,0,0,2.578.008,3.457,3.457,0,0,0,.461-2.015,3.128,3.128,0,0,0-.461-1.831,1.5,1.5,0,0,0-1.3-.649,1.474,1.474,0,0,0-1.281.646A3.516,3.516,0,0,0,44.26,10.856Zm9.219-4.309.07.977a2.951,2.951,0,0,1,2.43-1.133,2.453,2.453,0,0,1,2,.789,3.682,3.682,0,0,1,.672,2.359V15H56.393V9.581a1.47,1.47,0,0,0-.312-1.045,1.4,1.4,0,0,0-1.039-.325,1.553,1.553,0,0,0-1.43.814V15H51.354V6.547Zm9.586-2.078V6.547H64.51V8.2H63.064v4.219a1.007,1.007,0,0,0,.18.672.9.9,0,0,0,.688.2,3.6,3.6,0,0,0,.664-.055v1.711a4.648,4.648,0,0,1-1.367.2,2.156,2.156,0,0,1-2.422-2.4V8.2H59.572V6.547h1.234V4.469Zm7.453,4.2a6.134,6.134,0,0,0-.812-.062,1.654,1.654,0,0,0-1.68.867V15H65.768V6.547H67.9l.063,1.008a2.092,2.092,0,0,1,1.883-1.164,2.366,2.366,0,0,1,.7.1ZM76.268,15a2.507,2.507,0,0,1-.227-.758,2.732,2.732,0,0,1-2.133.914,3,3,0,0,1-2.059-.719,2.312,2.312,0,0,1-.816-1.812,2.389,2.389,0,0,1,1-2.062,4.915,4.915,0,0,1,2.879-.727h1.039V9.352a1.393,1.393,0,0,0-.3-.937,1.183,1.183,0,0,0-.949-.352,1.345,1.345,0,0,0-.895.273.929.929,0,0,0-.324.75H71.221a2.268,2.268,0,0,1,.453-1.359,3,3,0,0,1,1.281-.98,4.669,4.669,0,0,1,1.859-.355,3.689,3.689,0,0,1,2.48.785,2.747,2.747,0,0,1,.918,2.207v3.664a4.041,4.041,0,0,0,.336,1.82V15ZM74.4,13.43a1.945,1.945,0,0,0,.922-.223,1.462,1.462,0,0,0,.625-.6V11.156H75.1q-1.7,0-1.8,1.172l-.008.133a.9.9,0,0,0,.3.7A1.153,1.153,0,0,0,74.4,13.43Zm8.25-8.961V6.547H84.1V8.2H82.65v4.219a1.007,1.007,0,0,0,.18.672.9.9,0,0,0,.688.2,3.6,3.6,0,0,0,.664-.055v1.711a4.648,4.648,0,0,1-1.367.2,2.156,2.156,0,0,1-2.422-2.4V8.2H79.158V6.547h1.234V4.469ZM84.768,10.7a5.013,5.013,0,0,1,.484-2.242A3.546,3.546,0,0,1,86.646,6.93a4.069,4.069,0,0,1,2.113-.539,3.849,3.849,0,0,1,2.793,1.047,4.2,4.2,0,0,1,1.207,2.844l.016.578a4.418,4.418,0,0,1-1.086,3.121,4.209,4.209,0,0,1-5.832,0,4.5,4.5,0,0,1-1.09-3.187Zm2.258.16a3.16,3.16,0,0,0,.453,1.843,1.628,1.628,0,0,0,2.578.008,3.457,3.457,0,0,0,.461-2.015,3.128,3.128,0,0,0-.461-1.831,1.5,1.5,0,0,0-1.3-.649,1.474,1.474,0,0,0-1.281.646A3.516,3.516,0,0,0,87.025,10.856ZM97.8,10.711a5.094,5.094,0,0,1,.887-3.148,2.877,2.877,0,0,1,2.426-1.172,2.589,2.589,0,0,1,2.039.922V3h2.266V15h-2.039l-.109-.9a2.657,2.657,0,0,1-2.172,1.055A2.869,2.869,0,0,1,98.7,13.98,5.258,5.258,0,0,1,97.8,10.711Zm2.258.161a3.355,3.355,0,0,0,.414,1.829,1.348,1.348,0,0,0,1.2.636,1.51,1.51,0,0,0,1.477-.887V9.1a1.489,1.489,0,0,0-1.461-.887Q100.057,8.211,100.057,10.872Zm11,4.285a4.15,4.15,0,0,1-3.027-1.141,4.054,4.054,0,0,1-1.168-3.039v-.219a5.106,5.106,0,0,1,.492-2.277,3.612,3.612,0,0,1,1.395-1.547,3.914,3.914,0,0,1,2.059-.543,3.508,3.508,0,0,1,2.73,1.094,4.444,4.444,0,0,1,1,3.1v.922H109.15a2.1,2.1,0,0,0,.66,1.328,2,2,0,0,0,1.395.5,2.437,2.437,0,0,0,2.039-.945l1.109,1.242a3.389,3.389,0,0,1-1.375,1.121A4.511,4.511,0,0,1,111.057,15.156ZM110.8,8.211a1.411,1.411,0,0,0-1.09.455,2.357,2.357,0,0,0-.535,1.3h3.141V9.788a1.681,1.681,0,0,0-.406-1.165A1.456,1.456,0,0,0,110.8,8.211ZM36.916,39a2.507,2.507,0,0,1-.227-.758,2.732,2.732,0,0,1-2.133.914,3,3,0,0,1-2.059-.719,2.312,2.312,0,0,1-.816-1.812,2.389,2.389,0,0,1,1-2.062,4.915,4.915,0,0,1,2.879-.727H36.6v-.484a1.393,1.393,0,0,0-.3-.937,1.183,1.183,0,0,0-.949-.352,1.345,1.345,0,0,0-.895.273.929.929,0,0,0-.324.75H31.869a2.268,2.268,0,0,1,.453-1.359,3,3,0,0,1,1.281-.98,4.669,4.669,0,0,1,1.859-.355,3.689,3.689,0,0,1,2.48.785,2.747,2.747,0,0,1,.918,2.207v3.664a4.041,4.041,0,0,0,.336,1.82V39Zm-1.867-1.57a1.945,1.945,0,0,0,.922-.223,1.462,1.462,0,0,0,.625-.6V35.156h-.844q-1.7,0-1.8,1.172l-.008.133a.9.9,0,0,0,.3.7A1.153,1.153,0,0,0,35.049,37.43Zm13.156-2.578a5.07,5.07,0,0,1-.887,3.129,2.843,2.843,0,0,1-2.395,1.176,2.633,2.633,0,0,1-2.07-.891V42.25H40.6v-11.7h2.094l.078.828a2.654,2.654,0,0,1,2.141-.984,2.862,2.862,0,0,1,2.43,1.156,5.207,5.207,0,0,1,.867,3.188Zm-2.258-.172a3.345,3.345,0,0,0-.418-1.826,1.36,1.36,0,0,0-1.215-.643,1.478,1.478,0,0,0-1.461.815V36.5a1.5,1.5,0,0,0,1.477.839Q45.947,37.336,45.947,34.679Zm8.406-2.015a6.134,6.134,0,0,0-.812-.062,1.654,1.654,0,0,0-1.68.867V39H49.6V30.547h2.133l.063,1.008a2.092,2.092,0,0,1,1.883-1.164,2.366,2.366,0,0,1,.7.1Zm4.828,6.492a4.15,4.15,0,0,1-3.027-1.141,4.054,4.054,0,0,1-1.168-3.039v-.219a5.106,5.106,0,0,1,.492-2.277,3.612,3.612,0,0,1,1.395-1.547,3.914,3.914,0,0,1,2.059-.543,3.508,3.508,0,0,1,2.73,1.094,4.444,4.444,0,0,1,1,3.1v.922H57.275a2.1,2.1,0,0,0,.66,1.328,2,2,0,0,0,1.395.5,2.437,2.437,0,0,0,2.039-.945l1.109,1.242A3.389,3.389,0,0,1,61.1,38.754,4.511,4.511,0,0,1,59.182,39.156Zm-.258-6.945a1.411,1.411,0,0,0-1.09.455,2.357,2.357,0,0,0-.535,1.3h3.141v-.181a1.681,1.681,0,0,0-.406-1.165A1.456,1.456,0,0,0,58.924,32.211Zm7.094-1.664.07.977a2.951,2.951,0,0,1,2.43-1.133,2.453,2.453,0,0,1,2,.789,3.682,3.682,0,0,1,.672,2.359V39H68.932V33.581a1.47,1.47,0,0,0-.312-1.045,1.4,1.4,0,0,0-1.039-.325,1.553,1.553,0,0,0-1.43.814V39H63.893V30.547Zm6.531,4.164a5.094,5.094,0,0,1,.887-3.148,2.877,2.877,0,0,1,2.426-1.172,2.589,2.589,0,0,1,2.039.922V27h2.266V39H78.127l-.109-.9a2.657,2.657,0,0,1-2.172,1.055,2.869,2.869,0,0,1-2.395-1.176A5.258,5.258,0,0,1,72.549,34.711Zm2.258.161a3.355,3.355,0,0,0,.414,1.829,1.348,1.348,0,0,0,1.2.636,1.51,1.51,0,0,0,1.477-.887V33.1a1.489,1.489,0,0,0-1.461-.887Q74.807,32.211,74.807,34.872ZM84.3,39H82.033V30.547H84.3ZM81.9,28.359a1.112,1.112,0,0,1,.34-.836,1.465,1.465,0,0,1,1.848,0,1.193,1.193,0,0,1,0,1.68,1.448,1.448,0,0,1-1.836,0A1.108,1.108,0,0,1,81.9,28.359Zm6.852,8.82h4.133V39H85.869V37.625l3.977-5.258H85.986v-1.82H92.76v1.33ZM99.2,39a2.507,2.507,0,0,1-.227-.758,2.732,2.732,0,0,1-2.133.914,3,3,0,0,1-2.059-.719,2.312,2.312,0,0,1-.816-1.812,2.389,2.389,0,0,1,1-2.062,4.915,4.915,0,0,1,2.879-.727h1.039v-.484a1.393,1.393,0,0,0-.3-.937,1.183,1.183,0,0,0-.949-.352,1.345,1.345,0,0,0-.895.273.929.929,0,0,0-.324.75H94.15a2.268,2.268,0,0,1,.453-1.359,3,3,0,0,1,1.281-.98,4.669,4.669,0,0,1,1.859-.355,3.689,3.689,0,0,1,2.48.785,2.747,2.747,0,0,1,.918,2.207v3.664a4.041,4.041,0,0,0,.336,1.82V39ZM97.33,37.43a1.945,1.945,0,0,0,.922-.223,1.462,1.462,0,0,0,.625-.6V35.156h-.844q-1.7,0-1.8,1.172l-.008.133a.9.9,0,0,0,.3.7A1.153,1.153,0,0,0,97.33,37.43Zm7.938-6.883v8.914a3.024,3.024,0,0,1-.742,2.176,2.821,2.821,0,0,1-2.141.777,4.591,4.591,0,0,1-1.117-.133V40.492a4.238,4.238,0,0,0,.711.07q1.023,0,1.023-1.086v-8.93Zm-2.445-2.187a1.112,1.112,0,0,1,.34-.836,1.47,1.47,0,0,1,1.852,0,1.2,1.2,0,0,1-.008,1.68,1.448,1.448,0,0,1-1.836,0A1.108,1.108,0,0,1,102.822,28.359Zm8.1,10.8a4.15,4.15,0,0,1-3.027-1.141,4.054,4.054,0,0,1-1.168-3.039v-.219a5.106,5.106,0,0,1,.492-2.277,3.612,3.612,0,0,1,1.395-1.547,3.914,3.914,0,0,1,2.059-.543,3.508,3.508,0,0,1,2.73,1.094,4.444,4.444,0,0,1,1,3.1v.922h-5.383a2.1,2.1,0,0,0,.66,1.328,2,2,0,0,0,1.395.5,2.437,2.437,0,0,0,2.039-.945l1.109,1.242a3.389,3.389,0,0,1-1.375,1.121A4.511,4.511,0,0,1,110.924,39.156Zm-.258-6.945a1.411,1.411,0,0,0-1.09.455,2.357,2.357,0,0,0-.535,1.3h3.141v-.181a1.681,1.681,0,0,0-.406-1.165A1.456,1.456,0,0,0,110.666,32.211Z" transform="translate(4001 -8919.38)" fill="#fff"/>
      <path id="Trazado_701899" data-name="Trazado 701899" d="M15,0H175a15,15,0,0,1,15,15V57.5a15,15,0,0,1-15,15H15a15,15,0,0,1-15-15V15A15,15,0,0,1,15,0Z" transform="translate(3979 -8807.702)" fill="#112e4c"/>
      <path id="Trazado_701900" data-name="Trazado 701900" d="M16.572,11.211A4.025,4.025,0,0,1,15.217,14.1a4.76,4.76,0,0,1-3.223,1.055,4.28,4.28,0,0,1-3.441-1.473A6.038,6.038,0,0,1,7.3,9.641v-.7a6.819,6.819,0,0,1,.578-2.891A4.332,4.332,0,0,1,9.529,4.137a4.629,4.629,0,0,1,2.5-.668A4.637,4.637,0,0,1,15.2,4.523a4.326,4.326,0,0,1,1.391,2.961H14.244a2.376,2.376,0,0,0-.613-1.6,2.271,2.271,0,0,0-1.605-.5,1.991,1.991,0,0,0-1.754.84,4.707,4.707,0,0,0-.6,2.605V9.7a5.038,5.038,0,0,0,.559,2.7,1.954,1.954,0,0,0,1.762.852,2.314,2.314,0,0,0,1.621-.5,2.241,2.241,0,0,0,.613-1.535Zm1.039-.516A5.013,5.013,0,0,1,18.1,8.453,3.546,3.546,0,0,1,19.49,6.93,4.069,4.069,0,0,1,21.6,6.391,3.849,3.849,0,0,1,24.4,7.438,4.2,4.2,0,0,1,25.6,10.281l.016.578a4.418,4.418,0,0,1-1.086,3.121,3.775,3.775,0,0,1-2.914,1.176A3.793,3.793,0,0,1,18.7,13.984a4.5,4.5,0,0,1-1.09-3.187Zm2.258.16a3.16,3.16,0,0,0,.453,1.843,1.628,1.628,0,0,0,2.578.008,3.457,3.457,0,0,0,.461-2.015A3.128,3.128,0,0,0,22.9,8.86a1.5,1.5,0,0,0-1.3-.649,1.474,1.474,0,0,0-1.281.646A3.516,3.516,0,0,0,19.869,10.856Zm9.219-4.309.07.977a2.951,2.951,0,0,1,2.43-1.133,2.453,2.453,0,0,1,2,.789,3.682,3.682,0,0,1,.672,2.359V15H32V9.581a1.47,1.47,0,0,0-.312-1.045,1.4,1.4,0,0,0-1.039-.325,1.553,1.553,0,0,0-1.43.814V15H26.963V6.547Zm9.586-2.078V6.547h1.445V8.2H38.674v4.219a1.007,1.007,0,0,0,.18.672.9.9,0,0,0,.688.2,3.6,3.6,0,0,0,.664-.055v1.711a4.648,4.648,0,0,1-1.367.2,2.156,2.156,0,0,1-2.422-2.4V8.2H35.182V6.547h1.234V4.469Zm7.453,4.2a6.134,6.134,0,0,0-.812-.062,1.654,1.654,0,0,0-1.68.867V15H41.377V6.547H43.51l.063,1.008a2.092,2.092,0,0,1,1.883-1.164,2.366,2.366,0,0,1,.7.1ZM51.877,15a2.507,2.507,0,0,1-.227-.758,2.732,2.732,0,0,1-2.133.914,3,3,0,0,1-2.059-.719,2.312,2.312,0,0,1-.816-1.812,2.389,2.389,0,0,1,1-2.062,4.915,4.915,0,0,1,2.879-.727h1.039V9.352a1.393,1.393,0,0,0-.3-.937,1.183,1.183,0,0,0-.949-.352,1.345,1.345,0,0,0-.895.273.929.929,0,0,0-.324.75H46.83a2.268,2.268,0,0,1,.453-1.359,3,3,0,0,1,1.281-.98,4.669,4.669,0,0,1,1.859-.355,3.689,3.689,0,0,1,2.48.785,2.747,2.747,0,0,1,.918,2.207v3.664a4.041,4.041,0,0,0,.336,1.82V15ZM50.01,13.43a1.945,1.945,0,0,0,.922-.223,1.462,1.462,0,0,0,.625-.6V11.156h-.844q-1.7,0-1.8,1.172l-.008.133a.9.9,0,0,0,.3.7A1.153,1.153,0,0,0,50.01,13.43Zm8.25-8.961V6.547h1.445V8.2H58.26v4.219a1.007,1.007,0,0,0,.18.672.9.9,0,0,0,.688.2,3.6,3.6,0,0,0,.664-.055v1.711a4.648,4.648,0,0,1-1.367.2A2.156,2.156,0,0,1,56,12.758V8.2H54.768V6.547H56V4.469ZM60.377,10.7a5.013,5.013,0,0,1,.484-2.242A3.546,3.546,0,0,1,62.256,6.93a4.069,4.069,0,0,1,2.113-.539,3.849,3.849,0,0,1,2.793,1.047,4.2,4.2,0,0,1,1.207,2.844l.016.578A4.418,4.418,0,0,1,67.3,13.98a4.209,4.209,0,0,1-5.832,0,4.5,4.5,0,0,1-1.09-3.187Zm2.258.16a3.16,3.16,0,0,0,.453,1.843,1.628,1.628,0,0,0,2.578.008,3.457,3.457,0,0,0,.461-2.015,3.128,3.128,0,0,0-.461-1.831,1.5,1.5,0,0,0-1.3-.649,1.474,1.474,0,0,0-1.281.646A3.516,3.516,0,0,0,62.635,10.856Zm10.773-.145a5.094,5.094,0,0,1,.887-3.148,2.877,2.877,0,0,1,2.426-1.172,2.589,2.589,0,0,1,2.039.922V3h2.266V15H78.986l-.109-.9a2.657,2.657,0,0,1-2.172,1.055,2.869,2.869,0,0,1-2.395-1.176A5.258,5.258,0,0,1,73.408,10.711Zm2.258.161A3.355,3.355,0,0,0,76.08,12.7a1.348,1.348,0,0,0,1.2.636,1.51,1.51,0,0,0,1.477-.887V9.1A1.489,1.489,0,0,0,77.3,8.211Q75.666,8.211,75.666,10.872Zm11,4.285a4.15,4.15,0,0,1-3.027-1.141,4.054,4.054,0,0,1-1.168-3.039v-.219a5.106,5.106,0,0,1,.492-2.277,3.612,3.612,0,0,1,1.395-1.547,3.914,3.914,0,0,1,2.059-.543,3.508,3.508,0,0,1,2.73,1.094,4.444,4.444,0,0,1,1,3.1v.922H84.76a2.1,2.1,0,0,0,.66,1.328,2,2,0,0,0,1.395.5,2.437,2.437,0,0,0,2.039-.945l1.109,1.242a3.389,3.389,0,0,1-1.375,1.121A4.511,4.511,0,0,1,86.666,15.156Zm-.258-6.945a1.411,1.411,0,0,0-1.09.455,2.357,2.357,0,0,0-.535,1.3h3.141V9.788a1.681,1.681,0,0,0-.406-1.165A1.456,1.456,0,0,0,86.408,8.211ZM95.057,10.7a5.013,5.013,0,0,1,.484-2.242A3.546,3.546,0,0,1,96.936,6.93a4.069,4.069,0,0,1,2.113-.539,3.849,3.849,0,0,1,2.793,1.047,4.2,4.2,0,0,1,1.207,2.844l.016.578a4.418,4.418,0,0,1-1.086,3.121,4.209,4.209,0,0,1-5.832,0,4.5,4.5,0,0,1-1.09-3.187Zm2.258.16a3.16,3.16,0,0,0,.453,1.843,1.628,1.628,0,0,0,2.578.008,3.457,3.457,0,0,0,.461-2.015,3.128,3.128,0,0,0-.461-1.831,1.5,1.5,0,0,0-1.3-.649,1.474,1.474,0,0,0-1.281.646A3.516,3.516,0,0,0,97.314,10.856Zm14.758,0a5.119,5.119,0,0,1-.867,3.168,2.872,2.872,0,0,1-2.422,1.137,2.639,2.639,0,0,1-2.2-1.055l-.1.9h-2.031V3h2.258V7.3a2.571,2.571,0,0,1,2.055-.914,2.9,2.9,0,0,1,2.426,1.137,5.126,5.126,0,0,1,.879,3.2Zm-2.258-.172a3.381,3.381,0,0,0-.406-1.877,1.372,1.372,0,0,0-1.211-.592,1.489,1.489,0,0,0-1.484.885v3.346a1.509,1.509,0,0,0,1.5.893,1.4,1.4,0,0,0,1.438-1.081A5.6,5.6,0,0,0,109.814,10.679Zm8.4-2.015A6.134,6.134,0,0,0,117.4,8.6a1.654,1.654,0,0,0-1.68.867V15h-2.258V6.547H115.6l.063,1.008a2.092,2.092,0,0,1,1.883-1.164,2.366,2.366,0,0,1,.7.1ZM123.963,15a2.507,2.507,0,0,1-.227-.758,2.732,2.732,0,0,1-2.133.914,3,3,0,0,1-2.059-.719,2.312,2.312,0,0,1-.816-1.812,2.389,2.389,0,0,1,1-2.062,4.915,4.915,0,0,1,2.879-.727h1.039V9.352a1.393,1.393,0,0,0-.3-.937,1.183,1.183,0,0,0-.949-.352,1.345,1.345,0,0,0-.895.273.929.929,0,0,0-.324.75h-2.258a2.268,2.268,0,0,1,.453-1.359,3,3,0,0,1,1.281-.98,4.669,4.669,0,0,1,1.859-.355,3.689,3.689,0,0,1,2.48.785,2.747,2.747,0,0,1,.918,2.207v3.664a4.041,4.041,0,0,0,.336,1.82V15ZM122.1,13.43a1.945,1.945,0,0,0,.922-.223,1.462,1.462,0,0,0,.625-.6V11.156H122.8q-1.7,0-1.8,1.172l-.008.133a.9.9,0,0,0,.3.7A1.153,1.153,0,0,0,122.1,13.43ZM136.525,15a2.507,2.507,0,0,1-.227-.758,2.732,2.732,0,0,1-2.133.914,3,3,0,0,1-2.059-.719,2.312,2.312,0,0,1-.816-1.812,2.389,2.389,0,0,1,1-2.062,4.915,4.915,0,0,1,2.879-.727h1.039V9.352a1.393,1.393,0,0,0-.3-.937,1.183,1.183,0,0,0-.949-.352,1.345,1.345,0,0,0-.895.273.929.929,0,0,0-.324.75h-2.258a2.268,2.268,0,0,1,.453-1.359,3,3,0,0,1,1.281-.98,4.669,4.669,0,0,1,1.859-.355,3.689,3.689,0,0,1,2.48.785,2.747,2.747,0,0,1,.918,2.207v3.664a4.041,4.041,0,0,0,.336,1.82V15Zm-1.867-1.57a1.945,1.945,0,0,0,.922-.223,1.462,1.462,0,0,0,.625-.6V11.156h-.844q-1.7,0-1.8,1.172l-.008.133a.9.9,0,0,0,.3.7A1.153,1.153,0,0,0,134.658,13.43ZM57.877,39H55.611V27h2.266Zm6.758,0a2.507,2.507,0,0,1-.227-.758,2.732,2.732,0,0,1-2.133.914,3,3,0,0,1-2.059-.719,2.312,2.312,0,0,1-.816-1.812,2.389,2.389,0,0,1,1-2.062,4.915,4.915,0,0,1,2.879-.727h1.039v-.484a1.393,1.393,0,0,0-.3-.937,1.183,1.183,0,0,0-.949-.352,1.345,1.345,0,0,0-.895.273.929.929,0,0,0-.324.75H59.588a2.268,2.268,0,0,1,.453-1.359,3,3,0,0,1,1.281-.98,4.669,4.669,0,0,1,1.859-.355,3.689,3.689,0,0,1,2.48.785,2.747,2.747,0,0,1,.918,2.207v3.664a4.041,4.041,0,0,0,.336,1.82V39Zm-1.867-1.57a1.945,1.945,0,0,0,.922-.223,1.462,1.462,0,0,0,.625-.6V35.156h-.844q-1.7,0-1.8,1.172l-.008.133a.9.9,0,0,0,.3.7A1.153,1.153,0,0,0,62.768,37.43Zm13.164-2.578a5.119,5.119,0,0,1-.867,3.168,2.872,2.872,0,0,1-2.422,1.137,2.639,2.639,0,0,1-2.2-1.055l-.1.9H68.314V27h2.258v4.3a2.571,2.571,0,0,1,2.055-.914,2.9,2.9,0,0,1,2.426,1.137,5.126,5.126,0,0,1,.879,3.2Zm-2.258-.172a3.381,3.381,0,0,0-.406-1.877,1.372,1.372,0,0,0-1.211-.592,1.489,1.489,0,0,0-1.484.885v3.346a1.509,1.509,0,0,0,1.5.893,1.4,1.4,0,0,0,1.438-1.081A5.6,5.6,0,0,0,73.674,34.679Zm3.3.016a5.013,5.013,0,0,1,.484-2.242A3.546,3.546,0,0,1,78.85,30.93a4.069,4.069,0,0,1,2.113-.539,3.849,3.849,0,0,1,2.793,1.047,4.2,4.2,0,0,1,1.207,2.844l.016.578a4.418,4.418,0,0,1-1.086,3.121,4.209,4.209,0,0,1-5.832,0,4.5,4.5,0,0,1-1.09-3.187Zm2.258.16a3.16,3.16,0,0,0,.453,1.843,1.628,1.628,0,0,0,2.578.008,3.457,3.457,0,0,0,.461-2.015,3.128,3.128,0,0,0-.461-1.831,1.5,1.5,0,0,0-1.3-.649,1.474,1.474,0,0,0-1.281.646A3.516,3.516,0,0,0,79.229,34.856Zm11.891-2.192a6.134,6.134,0,0,0-.812-.062,1.654,1.654,0,0,0-1.68.867V39H86.369V30.547H88.5l.063,1.008a2.092,2.092,0,0,1,1.883-1.164,2.366,2.366,0,0,1,.7.1Z" transform="translate(4001 -8797.702)" fill="#fff"/>
      <path id="Trazado_701897" data-name="Trazado 701897" d="M15,0H175a15,15,0,0,1,15,15V57.5a15,15,0,0,1-15,15H15a15,15,0,0,1-15-15V15A15,15,0,0,1,15,0Z" transform="translate(3979 -8687.702)" fill="#112e4c"/>
      <path id="Trazado_701898" data-name="Trazado 701898" d="M51.787,11.211A4.025,4.025,0,0,1,50.432,14.1a4.76,4.76,0,0,1-3.223,1.055,4.281,4.281,0,0,1-3.441-1.473,6.038,6.038,0,0,1-1.254-4.043v-.7a6.819,6.819,0,0,1,.578-2.891,4.332,4.332,0,0,1,1.652-1.918,5.164,5.164,0,0,1,5.668.387A4.326,4.326,0,0,1,51.8,7.484H49.459a2.376,2.376,0,0,0-.613-1.6,2.271,2.271,0,0,0-1.605-.5,1.991,1.991,0,0,0-1.754.84,4.707,4.707,0,0,0-.6,2.605V9.7a5.038,5.038,0,0,0,.559,2.7,1.954,1.954,0,0,0,1.762.852,2.314,2.314,0,0,0,1.621-.5,2.241,2.241,0,0,0,.613-1.535Zm1.039-.516a5.013,5.013,0,0,1,.484-2.242A3.546,3.546,0,0,1,54.705,6.93a4.069,4.069,0,0,1,2.113-.539,3.849,3.849,0,0,1,2.793,1.047,4.2,4.2,0,0,1,1.207,2.844l.016.578a4.418,4.418,0,0,1-1.086,3.121,4.209,4.209,0,0,1-5.832,0,4.5,4.5,0,0,1-1.09-3.187Zm2.258.16a3.16,3.16,0,0,0,.453,1.843,1.628,1.628,0,0,0,2.578.008,3.457,3.457,0,0,0,.461-2.015,3.128,3.128,0,0,0-.461-1.831,1.5,1.5,0,0,0-1.3-.649,1.474,1.474,0,0,0-1.281.646A3.516,3.516,0,0,0,55.084,10.856ZM64.3,6.547l.07.977A2.951,2.951,0,0,1,66.8,6.391a2.453,2.453,0,0,1,2,.789,3.682,3.682,0,0,1,.672,2.359V15H67.217V9.581A1.47,1.47,0,0,0,66.9,8.536a1.4,1.4,0,0,0-1.039-.325,1.553,1.553,0,0,0-1.43.814V15H62.178V6.547Zm9.586-2.078V6.547h1.445V8.2H73.889v4.219a1.007,1.007,0,0,0,.18.672.9.9,0,0,0,.688.2,3.6,3.6,0,0,0,.664-.055v1.711a4.648,4.648,0,0,1-1.367.2,2.156,2.156,0,0,1-2.422-2.4V8.2H70.4V6.547h1.234V4.469Zm7.453,4.2a6.134,6.134,0,0,0-.812-.062,1.654,1.654,0,0,0-1.68.867V15H76.592V6.547h2.133l.063,1.008A2.092,2.092,0,0,1,80.67,6.391a2.366,2.366,0,0,1,.7.1ZM87.092,15a2.507,2.507,0,0,1-.227-.758,2.732,2.732,0,0,1-2.133.914,3,3,0,0,1-2.059-.719,2.312,2.312,0,0,1-.816-1.812,2.389,2.389,0,0,1,1-2.062,4.915,4.915,0,0,1,2.879-.727h1.039V9.352a1.393,1.393,0,0,0-.3-.937,1.183,1.183,0,0,0-.949-.352,1.345,1.345,0,0,0-.895.273.929.929,0,0,0-.324.75H82.045A2.268,2.268,0,0,1,82.5,7.727a3,3,0,0,1,1.281-.98,4.669,4.669,0,0,1,1.859-.355,3.689,3.689,0,0,1,2.48.785,2.747,2.747,0,0,1,.918,2.207v3.664a4.041,4.041,0,0,0,.336,1.82V15Zm-1.867-1.57a1.945,1.945,0,0,0,.922-.223,1.462,1.462,0,0,0,.625-.6V11.156h-.844q-1.7,0-1.8,1.172l-.008.133a.9.9,0,0,0,.3.7A1.153,1.153,0,0,0,85.225,13.43Zm8.25-8.961V6.547H94.92V8.2H93.475v4.219a1.007,1.007,0,0,0,.18.672.9.9,0,0,0,.688.2,3.6,3.6,0,0,0,.664-.055v1.711a4.648,4.648,0,0,1-1.367.2,2.156,2.156,0,0,1-2.422-2.4V8.2H89.982V6.547h1.234V4.469ZM95.592,10.7a5.013,5.013,0,0,1,.484-2.242A3.546,3.546,0,0,1,97.471,6.93a4.069,4.069,0,0,1,2.113-.539,3.849,3.849,0,0,1,2.793,1.047,4.2,4.2,0,0,1,1.207,2.844l.016.578a4.418,4.418,0,0,1-1.086,3.121,4.209,4.209,0,0,1-5.832,0,4.5,4.5,0,0,1-1.09-3.187Zm2.258.16A3.16,3.16,0,0,0,98.3,12.7a1.628,1.628,0,0,0,2.578.008,3.457,3.457,0,0,0,.461-2.015,3.128,3.128,0,0,0-.461-1.831,1.5,1.5,0,0,0-1.3-.649,1.474,1.474,0,0,0-1.281.646A3.516,3.516,0,0,0,97.85,10.856ZM44.361,28.469v2.078h1.445V32.2H44.361v4.219a1.007,1.007,0,0,0,.18.672.9.9,0,0,0,.688.2,3.6,3.6,0,0,0,.664-.055v1.711a4.648,4.648,0,0,1-1.367.2,2.156,2.156,0,0,1-2.422-2.4V32.2H40.869V30.547H42.1V28.469Zm6.594,10.688a4.15,4.15,0,0,1-3.027-1.141,4.054,4.054,0,0,1-1.168-3.039v-.219a5.106,5.106,0,0,1,.492-2.277,3.612,3.612,0,0,1,1.395-1.547,3.914,3.914,0,0,1,2.059-.543,3.508,3.508,0,0,1,2.73,1.094,4.444,4.444,0,0,1,1,3.1v.922H49.049a2.1,2.1,0,0,0,.66,1.328,2,2,0,0,0,1.395.5,2.437,2.437,0,0,0,2.039-.945l1.109,1.242a3.389,3.389,0,0,1-1.375,1.121A4.511,4.511,0,0,1,50.955,39.156ZM50.7,32.211a1.411,1.411,0,0,0-1.09.455,2.357,2.357,0,0,0-.535,1.3h3.141v-.181a1.681,1.681,0,0,0-.406-1.165A1.456,1.456,0,0,0,50.7,32.211Zm7.133-1.664.07.945a2.971,2.971,0,0,1,2.43-1.1,2.255,2.255,0,0,1,2.242,1.289,2.9,2.9,0,0,1,2.539-1.289,2.521,2.521,0,0,1,2.047.8,3.681,3.681,0,0,1,.672,2.41V39H65.564V33.6a1.616,1.616,0,0,0-.281-1.053,1.245,1.245,0,0,0-.992-.333,1.409,1.409,0,0,0-1.406.971L62.893,39H60.635V33.6a1.6,1.6,0,0,0-.289-1.065,1.257,1.257,0,0,0-.984-.329,1.463,1.463,0,0,0-1.391.8V39H55.713V30.547Zm19.344,4.3a5.07,5.07,0,0,1-.887,3.129,2.843,2.843,0,0,1-2.395,1.176,2.633,2.633,0,0,1-2.07-.891V42.25H69.564v-11.7h2.094l.078.828a2.654,2.654,0,0,1,2.141-.984,2.862,2.862,0,0,1,2.43,1.156,5.207,5.207,0,0,1,.867,3.188Zm-2.258-.172a3.345,3.345,0,0,0-.418-1.826,1.36,1.36,0,0,0-1.215-.643,1.478,1.478,0,0,0-1.461.815V36.5a1.5,1.5,0,0,0,1.477.839Q74.916,37.336,74.916,34.679Zm3.3.016a5.013,5.013,0,0,1,.484-2.242A3.546,3.546,0,0,1,80.1,30.93a4.069,4.069,0,0,1,2.113-.539,3.849,3.849,0,0,1,2.793,1.047,4.2,4.2,0,0,1,1.207,2.844l.016.578a4.418,4.418,0,0,1-1.086,3.121,4.209,4.209,0,0,1-5.832,0,4.5,4.5,0,0,1-1.09-3.187Zm2.258.16a3.16,3.16,0,0,0,.453,1.843,1.628,1.628,0,0,0,2.578.008,3.457,3.457,0,0,0,.461-2.015,3.128,3.128,0,0,0-.461-1.831,1.5,1.5,0,0,0-1.3-.649,1.474,1.474,0,0,0-1.281.646A3.516,3.516,0,0,0,80.479,34.856Zm11.891-2.192a6.134,6.134,0,0,0-.812-.062,1.654,1.654,0,0,0-1.68.867V39H87.619V30.547h2.133l.063,1.008A2.092,2.092,0,0,1,91.7,30.391a2.366,2.366,0,0,1,.7.1ZM98.119,39a2.507,2.507,0,0,1-.227-.758,2.732,2.732,0,0,1-2.133.914,3,3,0,0,1-2.059-.719,2.312,2.312,0,0,1-.816-1.812,2.389,2.389,0,0,1,1-2.062,4.915,4.915,0,0,1,2.879-.727H97.8v-.484a1.393,1.393,0,0,0-.3-.937,1.183,1.183,0,0,0-.949-.352,1.345,1.345,0,0,0-.895.273.929.929,0,0,0-.324.75H93.072a2.268,2.268,0,0,1,.453-1.359,3,3,0,0,1,1.281-.98,4.669,4.669,0,0,1,1.859-.355,3.689,3.689,0,0,1,2.48.785,2.747,2.747,0,0,1,.918,2.207v3.664a4.041,4.041,0,0,0,.336,1.82V39Zm-1.867-1.57a1.945,1.945,0,0,0,.922-.223,1.462,1.462,0,0,0,.625-.6V35.156h-.844q-1.7,0-1.8,1.172l-.008.133a.9.9,0,0,0,.3.7A1.153,1.153,0,0,0,96.252,37.43Zm7.93,1.57h-2.266V27h2.266Z" transform="translate(4001 -8677.702)" fill="#fff"/>
    </g>
    <g id="Grupo_1003570" data-name="Grupo 1003570" transform="translate(3160.001 -11772)">
      <g transform="matrix(1, 0, 0, 1, 591, 2430)" filter="url(#Unión_1)">
        <path id="Unión_1-2" data-name="Unión 1" d="M-595,12786h34l-17,21Zm-159.5,0a22.5,22.5,0,0,1-22.5-22.5,22.5,22.5,0,0,1,22.5-22.5h353a22.5,22.5,0,0,1,22.5,22.5,22.5,22.5,0,0,1-22.5,22.5Z" transform="translate(787 -12735)" fill="#112e4c"/>
      </g>
    </g>
    <path id="Trazado_701888" data-name="Trazado 701888" d="M-64.846-10.661h-3.92V0H-71.4V-10.661H-75.27V-12.8h10.424ZM-60.829,0h-2.549V-9.51h2.549Zm-2.7-11.971a1.251,1.251,0,0,1,.382-.94A1.436,1.436,0,0,1-62.1-13.28a1.44,1.44,0,0,1,1.037.369,1.244,1.244,0,0,1,.387.94,1.247,1.247,0,0,1-.391.949,1.443,1.443,0,0,1-1.033.369,1.443,1.443,0,0,1-1.033-.369A1.247,1.247,0,0,1-63.527-11.971Zm13.351,7.3a5.7,5.7,0,0,1-1,3.52A3.2,3.2,0,0,1-53.868.176a2.963,2.963,0,0,1-2.329-1V3.656h-2.54V-9.51h2.355l.088.932a2.985,2.985,0,0,1,2.408-1.107,3.22,3.22,0,0,1,2.733,1.3A5.858,5.858,0,0,1-50.177-4.8Zm-2.54-.194a3.763,3.763,0,0,0-.47-2.054,1.53,1.53,0,0,0-1.367-.723,1.662,1.662,0,0,0-1.644.917v3.906a1.691,1.691,0,0,0,1.661.943Q-52.717-1.872-52.717-4.861ZM-49-4.843a5.64,5.64,0,0,1,.545-2.522,3.989,3.989,0,0,1,1.569-1.714,4.577,4.577,0,0,1,2.377-.606,4.33,4.33,0,0,1,3.142,1.178,4.727,4.727,0,0,1,1.358,3.2l.018.65a4.97,4.97,0,0,1-1.222,3.511A4.247,4.247,0,0,1-44.49.176a4.268,4.268,0,0,1-3.283-1.318A5.058,5.058,0,0,1-49-4.729Zm2.54.18a3.555,3.555,0,0,0,.51,2.073,1.682,1.682,0,0,0,1.459.717,1.686,1.686,0,0,0,1.441-.709,3.89,3.89,0,0,0,.519-2.267,3.519,3.519,0,0,0-.519-2.06,1.686,1.686,0,0,0-1.459-.731,1.658,1.658,0,0,0-1.441.726A3.955,3.955,0,0,0-46.459-4.662Zm13.184,2.035a.818.818,0,0,0-.461-.734,5.241,5.241,0,0,0-1.481-.479q-3.393-.712-3.393-2.883a2.613,2.613,0,0,1,1.05-2.114,4.237,4.237,0,0,1,2.747-.848,4.56,4.56,0,0,1,2.9.853,2.687,2.687,0,0,1,1.085,2.215h-2.54a1.229,1.229,0,0,0-.352-.9,1.488,1.488,0,0,0-1.1-.356,1.52,1.52,0,0,0-.993.29.916.916,0,0,0-.352.738.783.783,0,0,0,.4.681,4.114,4.114,0,0,0,1.349.448,11.019,11.019,0,0,1,1.6.426,2.628,2.628,0,0,1,2.013,2.558,2.481,2.481,0,0,1-1.116,2.1,4.815,4.815,0,0,1-2.883.8A5.029,5.029,0,0,1-36.927-.25a3.561,3.561,0,0,1-1.455-1.169,2.716,2.716,0,0,1-.527-1.6H-36.5A1.326,1.326,0,0,0-36-1.986a1.987,1.987,0,0,0,1.248.36,1.839,1.839,0,0,0,1.1-.277A.861.861,0,0,0-33.275-2.628Zm8.191-2.2a5.731,5.731,0,0,1,1-3.542,3.237,3.237,0,0,1,2.729-1.318,2.913,2.913,0,0,1,2.294,1.037V-13.5h2.549V0h-2.294l-.123-1.011A2.989,2.989,0,0,1-21.375.176a3.228,3.228,0,0,1-2.694-1.323A5.916,5.916,0,0,1-25.084-4.825Zm2.54.181a3.775,3.775,0,0,0,.466,2.057,1.516,1.516,0,0,0,1.354.715,1.7,1.7,0,0,0,1.661-1V-6.64a1.675,1.675,0,0,0-1.644-1Q-22.544-7.638-22.544-4.644ZM-10.169.176a4.668,4.668,0,0,1-3.406-1.283,4.561,4.561,0,0,1-1.314-3.419v-.246a5.745,5.745,0,0,1,.554-2.562,4.064,4.064,0,0,1,1.569-1.74,4.4,4.4,0,0,1,2.316-.611,3.947,3.947,0,0,1,3.072,1.23A5,5,0,0,1-6.258-4.966v1.037h-6.056a2.36,2.36,0,0,0,.743,1.494A2.245,2.245,0,0,0-10-1.872,2.742,2.742,0,0,0-7.708-2.936l1.248,1.4A3.813,3.813,0,0,1-8.007-.277,5.075,5.075,0,0,1-10.169.176Zm-.29-7.813a1.587,1.587,0,0,0-1.226.512,2.651,2.651,0,0,0-.6,1.466h3.533v-.2a1.891,1.891,0,0,0-.457-1.311A1.638,1.638,0,0,0-10.459-7.638ZM3.621-1.872a1.666,1.666,0,0,0,1.143-.387,1.355,1.355,0,0,0,.457-1.028H7.6a3.258,3.258,0,0,1-.527,1.771A3.48,3.48,0,0,1,5.656-.268,4.442,4.442,0,0,1,3.665.176a4.129,4.129,0,0,1-3.217-1.3A5.13,5.13,0,0,1-.729-4.7v-.167A5.071,5.071,0,0,1,.439-8.376a4.08,4.08,0,0,1,3.208-1.31A4,4,0,0,1,6.508-8.67,3.594,3.594,0,0,1,7.6-5.968H5.221a1.745,1.745,0,0,0-.457-1.206A1.524,1.524,0,0,0,3.6-7.638a1.53,1.53,0,0,0-1.34.647,3.749,3.749,0,0,0-.453,2.1v.264a3.8,3.8,0,0,0,.448,2.113A1.549,1.549,0,0,0,3.621-1.872ZM8.657-4.843A5.64,5.64,0,0,1,9.2-7.365a3.989,3.989,0,0,1,1.569-1.714,4.577,4.577,0,0,1,2.377-.606,4.33,4.33,0,0,1,3.142,1.178,4.727,4.727,0,0,1,1.358,3.2l.018.65a4.97,4.97,0,0,1-1.222,3.511A4.247,4.247,0,0,1,13.166.176,4.268,4.268,0,0,1,9.883-1.143,5.058,5.058,0,0,1,8.657-4.729Zm2.54.18a3.555,3.555,0,0,0,.51,2.073,1.682,1.682,0,0,0,1.459.717,1.686,1.686,0,0,0,1.441-.709,3.89,3.89,0,0,0,.519-2.267,3.519,3.519,0,0,0-.519-2.06,1.686,1.686,0,0,0-1.459-.731,1.658,1.658,0,0,0-1.441.726A3.955,3.955,0,0,0,11.2-4.662ZM21.568-9.51l.079,1.1a3.32,3.32,0,0,1,2.733-1.274,2.759,2.759,0,0,1,2.25.888,4.142,4.142,0,0,1,.756,2.654V0h-2.54V-6.1A1.654,1.654,0,0,0,24.5-7.272a1.572,1.572,0,0,0-1.169-.366,1.747,1.747,0,0,0-1.608.916V0h-2.54V-9.51Zm10.784-2.338V-9.51h1.626v1.863H32.353V-2.9a1.133,1.133,0,0,0,.2.756,1.015,1.015,0,0,0,.773.229,4.051,4.051,0,0,0,.747-.062V-.053a5.229,5.229,0,0,1-1.538.229,2.425,2.425,0,0,1-2.725-2.7V-7.646H28.424V-9.51h1.389v-2.338Zm8.385,4.72a6.9,6.9,0,0,0-.914-.07,1.86,1.86,0,0,0-1.89.976V0h-2.54V-9.51h2.4l.07,1.134a2.354,2.354,0,0,1,2.118-1.31,2.662,2.662,0,0,1,.791.114ZM47.206,0a2.821,2.821,0,0,1-.255-.853,3.073,3.073,0,0,1-2.4,1.028,3.376,3.376,0,0,1-2.316-.809,2.6,2.6,0,0,1-.918-2.039,2.687,2.687,0,0,1,1.121-2.32,5.529,5.529,0,0,1,3.239-.817h1.169v-.545a1.567,1.567,0,0,0-.338-1.055,1.331,1.331,0,0,0-1.068-.4,1.513,1.513,0,0,0-1.006.308,1.045,1.045,0,0,0-.365.844h-2.54a2.551,2.551,0,0,1,.51-1.529,3.37,3.37,0,0,1,1.441-1.1,5.253,5.253,0,0,1,2.092-.4,4.15,4.15,0,0,1,2.791.883,3.09,3.09,0,0,1,1.033,2.483V-2.2a4.546,4.546,0,0,0,.378,2.048V0Zm-2.1-1.767a2.188,2.188,0,0,0,1.037-.25,1.645,1.645,0,0,0,.7-.672V-4.324H45.9q-1.907,0-2.03,1.318l-.009.149a1.017,1.017,0,0,0,.334.782A1.3,1.3,0,0,0,45.105-1.767Zm9.281-10.081V-9.51h1.626v1.863H54.387V-2.9a1.133,1.133,0,0,0,.2.756,1.015,1.015,0,0,0,.773.229,4.051,4.051,0,0,0,.747-.062V-.053a5.229,5.229,0,0,1-1.538.229,2.425,2.425,0,0,1-2.725-2.7V-7.646H50.458V-9.51h1.389v-2.338Zm2.382,7a5.64,5.64,0,0,1,.545-2.522,3.989,3.989,0,0,1,1.569-1.714,4.577,4.577,0,0,1,2.377-.606A4.33,4.33,0,0,1,64.4-8.508a4.727,4.727,0,0,1,1.358,3.2l.018.65a4.97,4.97,0,0,1-1.222,3.511A4.247,4.247,0,0,1,61.277.176a4.268,4.268,0,0,1-3.283-1.318,5.058,5.058,0,0,1-1.226-3.586Zm2.54.18a3.555,3.555,0,0,0,.51,2.073,1.682,1.682,0,0,0,1.459.717,1.686,1.686,0,0,0,1.441-.709,3.89,3.89,0,0,0,.519-2.267,3.519,3.519,0,0,0-.519-2.06,1.686,1.686,0,0,0-1.459-.731,1.658,1.658,0,0,0-1.441.726A3.955,3.955,0,0,0,59.309-4.662ZM72.492-2.628a.818.818,0,0,0-.461-.734,5.241,5.241,0,0,0-1.481-.479q-3.393-.712-3.393-2.883a2.613,2.613,0,0,1,1.05-2.114,4.237,4.237,0,0,1,2.747-.848,4.56,4.56,0,0,1,2.9.853,2.687,2.687,0,0,1,1.085,2.215H72.4a1.229,1.229,0,0,0-.352-.9,1.488,1.488,0,0,0-1.1-.356,1.52,1.52,0,0,0-.993.29.916.916,0,0,0-.352.738.783.783,0,0,0,.4.681,4.114,4.114,0,0,0,1.349.448,11.019,11.019,0,0,1,1.6.426,2.628,2.628,0,0,1,2.013,2.558,2.481,2.481,0,0,1-1.116,2.1,4.815,4.815,0,0,1-2.883.8A5.029,5.029,0,0,1,68.84-.25a3.561,3.561,0,0,1-1.455-1.169,2.716,2.716,0,0,1-.527-1.6h2.408a1.326,1.326,0,0,0,.5,1.037,1.987,1.987,0,0,0,1.248.36,1.839,1.839,0,0,0,1.1-.277A.861.861,0,0,0,72.492-2.628Z" transform="translate(3960.001 -9306)" fill="#fff"/>
    <g id="Enmascarar_grupo_991192" data-name="Enmascarar grupo 991192" transform="translate(17)" clip-path="url(#clip-path)">
      <g id="Grupo_894307" data-name="Grupo 894307" transform="translate(3741 -9246)">
        <g id="Grupo_894306" data-name="Grupo 894306" clip-path="url(#clip-path-2)">
          <path id="Trazado_689282" data-name="Trazado 689282" d="M510.97,447.157s73.378-112.609-4.525-143.408c-19.623-7.758-26.468-116.368-113.63-62.063-34.663,21.6-84.574-4.538-132.372,9.746-43.9,13.118-44.906,50.96-39.355,64.583,6.065,14.885-18.12,32.683-42.887,44.906-38.851,19.173-10.282,86.555,26.421,86.877s306.35-.642,306.35-.642" transform="translate(-131.952 -187.271)" fill="#ebf3fa"/>
          <path id="Trazado_689283" data-name="Trazado 689283" d="M289.569,189.676l-6.384-.146c2.051,2.659,2.512,5.108,1.235,7.18-1.277,2.114-4.333,3.852-8.9,5.17A82.52,82.52,0,0,0,166.15,97.069c-1.214.523-2.428,1.067-3.6,1.633l-.011.005c-3.546-1.082-7-1.969-10.333-2.644-16.824-3.414-28.763-1.054-33.612,6.644-4.615,7.322-2.1,18.343,7.055,31.2l0,.006c-1.235,2.282-2.345,4.626-3.37,7.054-.775,1.821-1.465,3.642-2.093,5.505-17.207,1.026-26.417,4.054-29.766,9.538-3.893,6.384,1.424,14.953,18.442,23.284,2.344,1.151,4.856,2.282,7.494,3.412a80.626,80.626,0,0,0,5.924,22.44,82.478,82.478,0,0,0,151.616.775c8.394-1.737,13.92-4.459,16.118-8.059,1.528-2.491,1.34-5.254-.44-8.185m-19.7,13.5a127.139,127.139,0,0,1-20.7,1.675,303.315,303.315,0,0,1-42.439-2.859q1.93-4.2,3.779-8.624a116.754,116.754,0,0,0,13.743,3.736,69.621,69.621,0,0,0,13.722,1.526c9.607,0,16.49-2.774,19.89-8.17a14.107,14.107,0,0,0,1.367-2.827h-4.9c-.081.149-.167.3-.258.44-2.525,4.008-8.168,6.079-16.091,6.077a65.359,65.359,0,0,1-12.844-1.435,111.96,111.96,0,0,1-12.935-3.5q1.769-4.425,3.433-9.01c2.985-8.231,5.541-16.391,7.608-24.226a208.053,208.053,0,0,0,30.28,2.086q10.035,0,20.792-.81a78.1,78.1,0,0,1,1.6,15.8,77.185,77.185,0,0,1-6.05,30.122M167.839,244.054c-2.382-.864-3.591-4.282-4.186-7-.94-4.292-1.11-10.32-.491-17.433.313-3.6.816-7.423,1.493-11.424a212.114,212.114,0,0,1,28.846,9.982c-2.12,3.656-4.265,7.047-6.409,10.121-4.085,5.856-8.08,10.374-11.553,13.065-2.2,1.7-5.317,3.552-7.7,2.688m27.818-29.7a216.493,216.493,0,0,0-30.218-10.465q.541-2.785,1.186-5.664,4.268.97,8.653,1.876c8.551,1.749,17.08,3.234,25.43,4.435q-2.48,5.132-5.051,9.818M177.161,197q-4.955-1.02-9.759-2.128c1.506-6.268,3.357-12.8,5.517-19.46a190.988,190.988,0,0,0,33.462,16.5q-2.035,4.858-4.173,9.453c-8.213-1.178-16.616-2.639-25.047-4.368M149.734,112.4a51.274,51.274,0,0,0,3.036,5.341,72.5,72.5,0,0,0,18.465,18.923,90.409,90.409,0,0,0,9.716,6.049c-3.136,6.834-6.123,14.127-8.87,21.7q-.768,2.118-1.5,4.228c-16.405-10.678-30.294-22.932-39.405-34.79l0,0A77.992,77.992,0,0,1,139,122.816c1.214-1.423,2.47-2.8,3.789-4.145l.544-.544a78.435,78.435,0,0,1,6.4-5.732m70.147-11.833c2.382.864,3.591,4.283,4.186,7,.94,4.292,1.11,10.32.492,17.433A173.94,173.94,0,0,1,220,151.039q-4.2-.723-8.2-1.64a117.983,117.983,0,0,1-25.1-8.654,177.2,177.2,0,0,1,13.934-24.43c4.085-5.856,8.08-10.374,11.553-13.065,1.812-1.4,4.251-2.907,6.386-2.907a3.828,3.828,0,0,1,1.313.22m-9.362,53.025q4.093.95,8.4,1.7c-2.014,7.577-4.494,15.468-7.384,23.436q-1.671,4.607-3.454,9.058a187,187,0,0,1-33.705-16.728q.878-2.567,1.814-5.149c2.685-7.4,5.6-14.528,8.654-21.2a122.153,122.153,0,0,0,25.678,8.888m42.648-35.459A77.372,77.372,0,0,1,273.3,152.95a227.941,227.941,0,0,1-48.973-1.224,177.7,177.7,0,0,0,4.581-26.353c.759-8.724.666-19.058-2.871-24.874q1.23.472,2.448.987a77.107,77.107,0,0,1,24.68,16.641M198.261,95.374a77.794,77.794,0,0,1,15.845,1.616c-6.1,2.656-12.331,10.048-17.059,16.826a181.426,181.426,0,0,0-14.236,24.932,86.179,86.179,0,0,1-8.728-5.422A67.282,67.282,0,0,1,156.6,115.62a45.864,45.864,0,0,1-3.31-5.915,77.641,77.641,0,0,1,10.039-6.057h0q2.139-1.08,4.357-2.025c.107-.045.213-.093.32-.138l.075-.032q.472-.2.948-.391l.255-.1a77.142,77.142,0,0,1,28.971-5.589m-75.88,9.72c2.525-4.008,8.168-6.077,16.091-6.077a65.362,65.362,0,0,1,12.845,1.435q2.7.547,5.508,1.287h0a81.076,81.076,0,0,0-16.888,13.017c-1.067,1.047-2.093,2.135-3.1,3.266-1.256,1.382-2.449,2.826-3.6,4.291a83.124,83.124,0,0,0-5.108,7.306l0,.006c-7-10.4-9.106-19.21-5.751-24.532m4.29,37.734c.691-1.591,1.4-3.161,2.177-4.689l0,0c9.594,11.992,23.735,24.25,40.257,34.882-2.343,7.13-4.342,14.138-5.955,20.853a319.4,319.4,0,0,1-32.923-9.721c-2.051-.733-4.04-1.486-5.945-2.24-1.13-.439-2.24-.9-3.328-1.36-.167-1.675-.293-3.37-.335-5.066-.021-.816-.042-1.612-.042-2.428,0-.942.021-1.9.042-2.847a78.553,78.553,0,0,1,3.559-20.6c.356-1.13.733-2.24,1.151-3.349.419-1.151.858-2.3,1.34-3.433m-14,33.995c-14.841-7.243-21.624-14.234-18.588-19.2,2.449-4.019,11.366-6.74,25.015-7.745A80.194,80.194,0,0,0,116,167.3c-.126,1.758-.188,3.517-.209,5.3v.461c0,1.779.063,3.559.167,5.317-1.131-.5-2.219-1.026-3.287-1.549m11.262,8.9c2.009.754,4.061,1.507,6.175,2.24,9.719,3.368,20.613,6.5,32.267,9.275q-.635,2.832-1.172,5.581-1.429-.346-2.859-.674a173.624,173.624,0,0,0-33.805-4.539,75.906,75.906,0,0,1-3.055-12.824l2.449.942m2.742,17.563q-.266-.633-.52-1.269a179.233,179.233,0,0,1,31.383,4.424q1.438.328,2.873.681c-.729,4.249-1.266,8.31-1.6,12.126-.629,7.23-.673,15.567,1.343,21.521a78.123,78.123,0,0,1-33.482-37.483m101.817,41.342a77.94,77.94,0,0,1-53.78,2.478c5.746-3.012,11.519-9.928,15.965-16.3,2.293-3.287,4.585-6.925,6.847-10.851a219.521,219.521,0,0,1,37.368,21.618q-3.118,1.667-6.4,3.057m24.68-16.641a77.093,77.093,0,0,1-14.127,11.2,224.1,224.1,0,0,0-39.376-23.055c1.894-3.47,3.761-7.136,5.583-10.962a335.551,335.551,0,0,0,35.8,2.933c2.889.084,5.694.084,8.415.063a149.753,149.753,0,0,0,18.714-1.256,77.175,77.175,0,0,1-15.009,21.079" transform="translate(-73.74 -74.895)" fill="#adcbf9"/>
          <path id="Trazado_689284" data-name="Trazado 689284" d="M522.209,34.2,502.7,37.514l12.761-9.2.736,2.822,4.785.736Z" transform="translate(-415.556 -23.404)" fill="#456aa3"/>
          <path id="Trazado_689285" data-name="Trazado 689285" d="M502.7,33.418l16.073-8.834,15.951-1.227Z" transform="translate(-415.556 -19.308)" fill="#adcbf9"/>
          <path id="Trazado_689286" data-name="Trazado 689286" d="M515.46,4.907,502.7,14.11,512.393,0Z" transform="translate(-415.556 0)" fill="#adcbf9"/>
          <path id="Trazado_689287" data-name="Trazado 689287" d="M121.06,315.675l18.465,7.113L128.841,311.24l-1.281,2.62-4.836-.227Z" transform="translate(-100.074 -257.286)" fill="#456aa3"/>
          <path id="Trazado_689288" data-name="Trazado 689288" d="M87.406,300.571l-14-11.844-15.391-4.363Z" transform="translate(-47.955 -235.069)" fill="#adcbf9"/>
          <path id="Trazado_689289" data-name="Trazado 689289" d="M165.949,291.2l10.684,11.548L169.928,287Z" transform="translate(-137.181 -237.245)" fill="#adcbf9"/>
          <path id="Trazado_689290" data-name="Trazado 689290" d="M450.458,1222.319H88.847s39.911-26.583,58.269-16.021,49.909-2.5,59.267-16.212,22.747,19.78,34.948,11.437,17.209-43.482,33.426-35.843,9.293,50.329,20.209,27.074,32.928-36.353,38.044-8.033,61.628-5.831,117.447,37.6" transform="translate(-73.445 -962.715)" fill="#a8d29f"/>
          <rect id="Rectángulo_343444" data-name="Rectángulo 343444" width="11.717" height="9.133" transform="translate(300.89 69.636)" fill="#fff"/>
          <path id="Trazado_689291" data-name="Trazado 689291" d="M1760.493,411.143l-2.071,8.308h-15.913l3.276-12.128a7.6,7.6,0,0,1,14.709,3.82" transform="translate(-1440.442 -332.07)" fill="#a0c0ef"/>
          <path id="Trazado_689292" data-name="Trazado 689292" d="M1193.234,829.987l9.144,108.728s.958,6.591-3.944,6.6c-8.061.019-40.121,0-40.121,0s6.067-1.372,5.993-4.459c-.087-3.639-10.688-111.9-10.688-111.9Z" transform="translate(-953.638 -685.257)" fill="#d86713"/>
          <path id="Trazado_689293" data-name="Trazado 689293" d="M1183.06,933.94c-7.851.1-38.471,0-40.057,0,.6,0,5.2-.114,5.853-3.579a4.622,4.622,0,0,0,.077-.88c0-.678-.376-4.98-.98-11.535-.541-5.879-1.268-13.568-2.084-22.079-3.159-32.981-7.624-78.286-7.624-78.286l39.616,1.028,6.5,77.258,1.268,15.079,1.14,13.566.238,2.826s1.118,6.537-3.945,6.6" transform="translate(-940.929 -675.852)" fill="#ee9849"/>
          <path id="Trazado_689294" data-name="Trazado 689294" d="M847.829,493.589l-22.274,89.469-3.05,12.253-10.374,41.672H619.4l38.237-143.4Z" transform="translate(-512.024 -408.025)" fill="#f1a34f"/>
          <path id="Trazado_689295" data-name="Trazado 689295" d="M1766.905,493.588l3.087,1.029L1735.311,640.1l-4.1-3.112Z" transform="translate(-1431.1 -408.024)" fill="#ee9849"/>
          <path id="Trazado_689296" data-name="Trazado 689296" d="M816.239,1323.9H624.692l-5.289-3.112H812.135Z" transform="translate(-512.028 -1091.825)" fill="#d86713"/>
          <rect id="Rectángulo_343445" data-name="Rectángulo 343445" width="41.473" height="1.971" transform="translate(195.473 258.131)" fill="#f1a34f"/>
          <path id="Trazado_689297" data-name="Trazado 689297" d="M1227.685,1338.375l-.259,3.085-.009.113s-26.94,2.583-37.665,6.886c-.27-2.947-.589-6.35-.942-10.084Z" transform="translate(-982.728 -1106.366)" fill="#d86713"/>
          <g id="Grupo_894302" data-name="Grupo 894302" transform="translate(202.074 248.66)" opacity="0.4">
            <g id="Grupo_894301" data-name="Grupo 894301">
              <g id="Grupo_894300" data-name="Grupo 894300" clip-path="url(#clip-path-3)">
                <path id="Trazado_689298" data-name="Trazado 689298" d="M1205.748,1443.856c-7.85.1-38.471,0-40.057,0,.6,0,5.2-.114,5.853-3.579,3.154.163,20.689.723,37.911-5.848l.238,2.826s1.118,6.537-3.945,6.6" transform="translate(-1165.691 -1434.429)" fill="#d86713"/>
              </g>
            </g>
          </g>
          <g id="Grupo_894305" data-name="Grupo 894305" transform="translate(234.967 200.809)" opacity="0.4">
            <g id="Grupo_894304" data-name="Grupo 894304">
              <g id="Grupo_894303" data-name="Grupo 894303" clip-path="url(#clip-path-4)">
                <path id="Trazado_689299" data-name="Trazado 689299" d="M1427.341,1158.4l-7.008,28.15h-64.889c27.437-8.716,40.425-21.468,45.659-28.15Z" transform="translate(-1355.443 -1158.395)" fill="#d86713"/>
              </g>
            </g>
          </g>
          <path id="Trazado_689300" data-name="Trazado 689300" d="M893.145,504.524,865.658,617.873H675.974l30.8-113.349Z" transform="translate(-558.793 -417.064)" fill="#d2e4ff"/>
          <path id="Trazado_689301" data-name="Trazado 689301" d="M660.569,1158.4h2.345l-.47,1.728-2.269-.257Z" transform="translate(-545.733 -957.586)" fill="#f1a34f"/>
          <path id="Trazado_689302" data-name="Trazado 689302" d="M1930.514,493.585v1.9h-1.761l.459-1.9Z" transform="translate(-1594.401 -408.021)" fill="#f1a34f"/>
          <path id="Trazado_689303" data-name="Trazado 689303" d="M764.318,576.957H894.687l43.7-175.251H815.421a9.482,9.482,0,0,0-9.2,7.188Z" transform="translate(-631.822 -332.07)" fill="#fff"/>
          <path id="Trazado_689304" data-name="Trazado 689304" d="M1022.466,845.615h86.363a2.667,2.667,0,0,0,2.431-1.946l.182-.73a1.474,1.474,0,0,0-1.461-1.946h-86.363a2.668,2.668,0,0,0-2.432,1.946l-.182.73a1.474,1.474,0,0,0,1.461,1.946" transform="translate(-843.963 -695.206)" fill="#a0c0ef"/>
          <path id="Trazado_689305" data-name="Trazado 689305" d="M1066.789,667.846h86.363a2.668,2.668,0,0,0,2.431-1.946l.182-.73a1.474,1.474,0,0,0-1.461-1.946h-86.363a2.668,2.668,0,0,0-2.431,1.946l-.182.73a1.474,1.474,0,0,0,1.461,1.946" transform="translate(-880.602 -548.253)" fill="#a0c0ef"/>
          <path id="Trazado_689306" data-name="Trazado 689306" d="M1051.392,729.6h86.363a2.668,2.668,0,0,0,2.432-1.946l.182-.73a1.474,1.474,0,0,0-1.461-1.946h-86.363a2.668,2.668,0,0,0-2.432,1.946l-.182.73a1.474,1.474,0,0,0,1.461,1.946" transform="translate(-867.875 -599.3)" fill="#a0c0ef"/>
          <path id="Trazado_689307" data-name="Trazado 689307" d="M1036.929,787.607h86.363a2.668,2.668,0,0,0,2.431-1.946l.182-.73a1.474,1.474,0,0,0-1.461-1.946h-86.363a2.668,2.668,0,0,0-2.432,1.946l-.182.73a1.474,1.474,0,0,0,1.461,1.946" transform="translate(-855.919 -647.254)" fill="#a0c0ef"/>
          <path id="Trazado_689308" data-name="Trazado 689308" d="M992.99,963.838h86.363a2.668,2.668,0,0,0,2.432-1.946l.182-.729a1.474,1.474,0,0,0-1.461-1.947H994.143a2.668,2.668,0,0,0-2.432,1.947l-.182.729a1.474,1.474,0,0,0,1.461,1.946" transform="translate(-819.597 -792.935)" fill="#a0c0ef"/>
          <path id="Trazado_689309" data-name="Trazado 689309" d="M1007.453,905.829h86.363a2.668,2.668,0,0,0,2.432-1.947l.182-.729a1.474,1.474,0,0,0-1.461-1.946h-86.363a2.667,2.667,0,0,0-2.432,1.946l-.182.729a1.474,1.474,0,0,0,1.461,1.947" transform="translate(-831.553 -744.982)" fill="#a0c0ef"/>
          <path id="Trazado_689310" data-name="Trazado 689310" d="M948.285,1146.132h20.976a3.168,3.168,0,0,0,2.887-2.311,1.75,1.75,0,0,0-1.735-2.311H949.438a3.168,3.168,0,0,0-2.887,2.311,1.75,1.75,0,0,0,1.735,2.311" transform="translate(-782.406 -943.628)" fill="#a0c0ef"/>
          <path id="Trazado_689311" data-name="Trazado 689311" d="M1318.972,1146.132h20.976a3.168,3.168,0,0,0,2.887-2.311,1.75,1.75,0,0,0-1.735-2.311h-20.976a3.168,3.168,0,0,0-2.887,2.311,1.751,1.751,0,0,0,1.735,2.311" transform="translate(-1088.833 -943.628)" fill="#a0c0ef"/>
          <path id="Trazado_689312" data-name="Trazado 689312" d="M903.539,1240.2h-30.59a2.39,2.39,0,0,1-1.939-.882,2.532,2.532,0,0,1-.393-2.219l2.205-8.845a4.162,4.162,0,0,1,3.8-3.042h30.59a2.389,2.389,0,0,1,1.939.882,2.532,2.532,0,0,1,.393,2.219l-2.205,8.845a4.162,4.162,0,0,1-3.8,3.042m-26.914-14.742a3.9,3.9,0,0,0-3.565,2.855l-2.205,8.845a2.293,2.293,0,0,0,.349,2.009,2.149,2.149,0,0,0,1.746.787h30.59a3.9,3.9,0,0,0,3.564-2.855l2.205-8.845a2.293,2.293,0,0,0-.349-2.009,2.149,2.149,0,0,0-1.745-.787Z" transform="translate(-719.616 -1012.821)" fill="#476ba7"/>
          <path id="Trazado_689313" data-name="Trazado 689313" d="M1274.854,1240.2h-30.59a2.389,2.389,0,0,1-1.939-.882,2.531,2.531,0,0,1-.393-2.219l2.205-8.845a4.162,4.162,0,0,1,3.8-3.042h30.59a2.389,2.389,0,0,1,1.939.882,2.531,2.531,0,0,1,.393,2.219l-2.205,8.845a4.162,4.162,0,0,1-3.8,3.042m-26.914-14.742a3.9,3.9,0,0,0-3.564,2.855l-2.205,8.845a2.292,2.292,0,0,0,.349,2.009,2.149,2.149,0,0,0,1.746.787h30.59a3.9,3.9,0,0,0,3.564-2.855l2.205-8.845a2.292,2.292,0,0,0-.349-2.009,2.149,2.149,0,0,0-1.745-.787Z" transform="translate(-1026.563 -1012.821)" fill="#476ba7"/>
          <path id="Trazado_689314" data-name="Trazado 689314" d="M1108.751,477.5a8.523,8.523,0,0,1,7.7-5.764,3.949,3.949,0,0,1,3.719,1.815l-2.018,1.688A2.711,2.711,0,0,0,1115.7,474a5,5,0,0,0-4.381,3.5c-.627,1.911.172,3.5,2.083,3.5a5.609,5.609,0,0,0,3.358-1.306l1.012,1.672a7.749,7.749,0,0,1-5.191,1.895c-3.28,0-4.885-2.531-3.825-5.764" transform="translate(-916.28 -389.962)" fill="#f1a34f"/>
          <path id="Trazado_689315" data-name="Trazado 689315" d="M1174.745,477.5a8.673,8.673,0,0,1,7.829-5.764c3.439,0,5.066,2.564,4.017,5.764a8.673,8.673,0,0,1-7.83,5.764c-3.439,0-5.066-2.563-4.016-5.764m9.282,0c.627-1.91-.252-3.5-2.227-3.5a5.035,5.035,0,0,0-4.492,3.5c-.627,1.911.252,3.5,2.226,3.5a5.035,5.035,0,0,0,4.493-3.5" transform="translate(-970.84 -389.962)" fill="#f1a34f"/>
          <path id="Trazado_689316" data-name="Trazado 689316" d="M1250.284,472.841h2.261l2.971,6.862,2.251-6.862h2.42l-3.656,11.145h-2.086l-3.073-7.085-2.324,7.085h-2.42Z" transform="translate(-1030.523 -390.873)" fill="#f1a34f"/>
          <path id="Trazado_689317" data-name="Trazado 689317" d="M1334.8,475.1h-3.391l.742-2.261h9.235l-.742,2.261h-3.391l-2.914,8.884h-2.452Z" transform="translate(-1100.609 -390.873)" fill="#f1a34f"/>
          <path id="Trazado_689318" data-name="Trazado 689318" d="M1382.371,472.841h5.1a3.257,3.257,0,0,1,2.877,1.131,2.916,2.916,0,0,1,.11,2.579,5.34,5.34,0,0,1-3.522,3.455l1.417,3.981h-2.866l-1.25-3.566h-1.895l-1.17,3.566h-2.452Zm3.16,5.414a2.4,2.4,0,0,0,2.406-1.608c.345-1.051-.21-1.592-1.4-1.592H1384.1l-1.05,3.2Z" transform="translate(-1139.713 -390.873)" fill="#f1a34f"/>
          <path id="Trazado_689319" data-name="Trazado 689319" d="M1448.072,472.381h2.261l1.095,11.225h-2.563l-.2-2.5h-4.713l-1.839,2.5h-2.5Zm.428,6.56-.3-3.614-2.666,3.614Z" transform="translate(-1190.055 -390.493)" fill="#f1a34f"/>
          <path id="Trazado_689320" data-name="Trazado 689320" d="M1519.706,477.5a8.523,8.523,0,0,1,7.7-5.764,3.949,3.949,0,0,1,3.719,1.815l-2.018,1.688A2.711,2.711,0,0,0,1526.65,474a5,5,0,0,0-4.381,3.5c-.627,1.911.172,3.5,2.083,3.5a5.609,5.609,0,0,0,3.358-1.306l1.012,1.672a7.751,7.751,0,0,1-5.191,1.895c-3.28,0-4.886-2.531-3.825-5.764" transform="translate(-1255.994 -389.962)" fill="#f1a34f"/>
          <path id="Trazado_689321" data-name="Trazado 689321" d="M1596.954,475.1h-3.391l.741-2.261h9.235l-.742,2.261h-3.391l-2.914,8.884h-2.452Z" transform="translate(-1317.317 -390.873)" fill="#f1a34f"/>
          <path id="Trazado_689322" data-name="Trazado 689322" d="M1322.3,1218.2q-6.969,2.88-13.835,6.293.272-.769.488-1.539c.116-.412-.44-.687-.784-.233a7.323,7.323,0,0,1-.485.576c.116-.369-.32-.575-.694-.3-.025.018-.047.037-.071.056.181-.5-.591-.571-.878-.09l-.429.718a3.009,3.009,0,0,1-1.385.925,2.348,2.348,0,0,1-.2-.771.342.342,0,0,0-.357-.327c-.008-.252-.236-.4-.572-.252a3.147,3.147,0,0,0-1.053.777c-.229-.428-.964-.121-1.359.289l.033-.069c.186-.4-.159-.85-.625-.45a5.625,5.625,0,0,0-1.711,2.507,9.684,9.684,0,0,1-.875.862c-.152.131-.861.788-1.024.731s-.073-.462,0-.749l.076-.106c.589-.82,3.432-4.683,1.429-4.649a.717.717,0,0,0-.557.339,13.3,13.3,0,0,0-1.641,3.5c-.066.227-.157.52-.232.827l-.176.234c-.8,1.042-1.895,2.546-3.184,3.06-.119-1.633.705-3.566,1.328-5.279q.4-1.109.839-2.215a.624.624,0,0,0,.277-.144c1.393-1.172,1.961-2.91,1.33-4.078-.182-.337-.737-.03-.9.327q-1.438,3.226-2.608,6.476c-.688,1.92-1.47,3.948-1.183,5.72.03.187.249.257.452.212,1.47-.32,2.75-1.628,3.781-2.932a.613.613,0,0,0,.4.355c.684.2,1.618-.558,2.29-1.194a2.687,2.687,0,0,0,.12.646c.072.224.306.275.578.166a5.325,5.325,0,0,0,1.73-1.157,3.729,3.729,0,0,0,1.731-1.389,9.2,9.2,0,0,0,.853-.851,1.307,1.307,0,0,0,.238.435c.25.286.881.027,1.283-.157a4.249,4.249,0,0,0,1.057-.694,2.108,2.108,0,0,0,.728-.2.592.592,0,0,0,.172.18.754.754,0,0,0,.84-.08c-.066.187-.134.373-.2.56q-1,.5-2,1.02c-.439.226-.542.9-.049.861l1.832-.14a.728.728,0,0,0,.614-.462c.108-.245.211-.489.31-.734q7.165-3.591,14.462-6.607c.62-.256.414-1.054-.2-.8m-21.289,7.03a2.993,2.993,0,0,1-.151.382c-.041.087-.088.172-.136.255a3.249,3.249,0,0,1,.287-.638m-1.345,1.146a1.142,1.142,0,0,0-.016.7,4.212,4.212,0,0,1-.458.3,2.63,2.63,0,0,1,.052-.855c.212-.25.411-.508.6-.771a4.543,4.543,0,0,0-.174.627" transform="translate(-1067.386 -1006.985)" fill="#365da2"/>
          <path id="Trazado_689323" data-name="Trazado 689323" d="M926,1201.04c-1.644,3.057-2.567,6.195-3.9,9.288a24.814,24.814,0,0,1-2.414,4.437c-.694.991-2.206,3.146-3.488,2.679-.319-.116-.408-.39-.3-.764.023-.082.051-.167.08-.252a.707.707,0,0,0,.665-.078,2.384,2.384,0,0,0,.946-1.052c.192-.416.161-.849-.174-1.034a.944.944,0,0,0-1.044.293,3.486,3.486,0,0,0-.669,1.183,3.66,3.66,0,0,0-.452,1.486c.047.706.808.956,1.553.793a4.751,4.751,0,0,0,2.315-1.708,19.847,19.847,0,0,0,1.9-2.675,37.066,37.066,0,0,0,2.647-5.759,56.491,56.491,0,0,1,2.846-6.686c.193-.359-.307-.513-.5-.152m-8.9,13.881c.056.216-.153.5-.324.7a1.151,1.151,0,0,1-.195.192.686.686,0,0,1-.139.082.232.232,0,0,0-.044.011.186.186,0,0,0-.173-.1c.072-.162.148-.322.22-.474.108-.227.538-.866.655-.413" transform="translate(-756.586 -992.668)" fill="#365da2"/>
          <path id="Trazado_689324" data-name="Trazado 689324" d="M968.3,1253.283a3.664,3.664,0,0,1-1.044.434,1,1,0,0,1-.267.008,1.647,1.647,0,0,0,.516-.81c.062-.443-.427-.545-.84-.318a1.272,1.272,0,0,0-.633.956.654.654,0,0,0,.051.315,2.32,2.32,0,0,1-1.348.541,4.909,4.909,0,0,0,1.24-1.226.255.255,0,0,0,.018-.278.816.816,0,0,0-1.044-.08,2.092,2.092,0,0,0-.9,1.079,1.54,1.54,0,0,0-.115.4,3.105,3.105,0,0,1-1.325.3v-.008q.209-.193.41-.393c.2-.2.081-.405-.106-.43a.854.854,0,0,0-.852.667,12.748,12.748,0,0,1-2.1,1.521c-.186.107-.438.324-.562.186a6.571,6.571,0,0,0,.852-.753c.505-.533,1.006-1.484.408-1.813a.349.349,0,0,0-.425.1l-.788,1.047a4.6,4.6,0,0,0-.606.94,1.222,1.222,0,0,0-.086.329,5.728,5.728,0,0,1-.833.43l-.072.03q.232-.185.463-.373a1.917,1.917,0,0,0,.852-1.261,1.413,1.413,0,0,0-.549-1.055c-.075-.074-.252-.038-.361.045a5.669,5.669,0,0,0-1.868,2.4.936.936,0,0,0-.027.786q-1.122.856-2.271,1.672c-.081.058-.278.238-.358.211s-.043-.2-.044-.278a5.506,5.506,0,0,1,.036-.642,6.36,6.36,0,0,1,.35-1.437,7.77,7.77,0,0,1,.583-1.241.306.306,0,0,0,.32-.059,1.955,1.955,0,0,0,.806-1.659c-.02-.2-.343-.172-.494,0a8.057,8.057,0,0,0-2.2,5.37c.017.385.192.708.707.494a3.725,3.725,0,0,0,.669-.428q.419-.3.836-.6.782-.572,1.556-1.162a2.665,2.665,0,0,0,.921-.207,6.283,6.283,0,0,0,1.062-.507.531.531,0,0,0,.558.265,2.953,2.953,0,0,0,.931-.47c.31-.187.616-.386.914-.6s.569-.425.841-.654c.063.087.171.113.359.118a3.167,3.167,0,0,0,.785-.085,4.153,4.153,0,0,0,.847-.3.544.544,0,0,0,.139.1,1.528,1.528,0,0,0,1.147-.071,4.333,4.333,0,0,0,1.079-.607,1.056,1.056,0,0,0,.316.084,3.154,3.154,0,0,0,1.672-.515c.374-.2.25-.693-.127-.494m-11.192,2.592a4.911,4.911,0,0,1,1.191-1.479.666.666,0,0,1,.115.93,3.587,3.587,0,0,1-.617.544q-.353.282-.71.56l-.187.144c-.081-.162.117-.525.207-.7m3.214-1.508a2.355,2.355,0,0,1-.615.88c-.038.037-.077.074-.116.109.214-.336.476-.665.731-.989m5-1.134a3.783,3.783,0,0,1-.729.685c.15-.328.5-.7.729-.685m1.373-.016c.035-.057.2-.24.171-.115a.982.982,0,0,1-.232.287.441.441,0,0,1,.061-.172" transform="translate(-787.87 -1035.36)" fill="#365da2"/>
          <path id="Trazado_689325" data-name="Trazado 689325" d="M614.2,382.323s-1-14.308-19.584-8.89c-4.216,1.229-3.668,13.958,6.542,18.8Z" transform="translate(-489.496 -307.685)" fill="#2b478b"/>
          <path id="Trazado_689326" data-name="Trazado 689326" d="M673.765,539.526s7.273,1.317,9.97,4.014,9.062,10.654,5.057,37.185c0,0-.321,8-9.312,8.766s-5.716-49.965-5.716-49.965" transform="translate(-556.486 -445.998)" fill="#b64c41"/>
          <path id="Trazado_689327" data-name="Trazado 689327" d="M579.811,833.354c1.251,8.706,9.641,31.335,9.4,39.156-.193,6.163-.091,20.4.722,29.86a58.276,58.276,0,0,0,.824,6.387c.722,3.488,1.648,7.506,2.146,10.038,1.109,5.685.529,9,1.434,12.052,1,3.336,12.438,2.726,8.991.7a10.123,10.123,0,0,1-3.906-4.241c-3.214-7.2,1.292-38.25,2.634-50.221.173-1.495.295-2.685.346-3.5.448-7.394,5.523-56.651,5.523-56.651-12.326-6.855-29.352,7.712-28.111,16.417" transform="translate(-479.247 -673.85)" fill="#d9935c"/>
          <path id="Trazado_689328" data-name="Trazado 689328" d="M579.813,833.273c1.251,8.706,9.641,31.335,9.4,39.156-.193,6.163-.091,20.4.722,29.86L602.056,877c.173-1.495.295-2.685.346-3.5.448-7.394,5.65-56.67,5.65-56.67-12.327-6.855-29.479,7.73-28.239,16.436" transform="translate(-479.249 -673.768)" fill="#cb8757"/>
          <path id="Trazado_689329" data-name="Trazado 689329" d="M598.136,817.444s-10.586,48.662-11.789,55.968S575.5,915.12,577.6,923.74c1.24,5.085,3.4,6.589,3.4,6.589.508.932-7.865,2.784-8.541-.784-.859-4.531-1.039-10.889-2.3-21.67-2.166-18.562,2.13-29.125,3.171-36.882s-3.5-32.415-.978-40.842c4.407-14.747,14.223-20.793,25.775-12.708" transform="translate(-470.831 -672.756)" fill="#d9935c"/>
          <path id="Trazado_689330" data-name="Trazado 689330" d="M567.225,863.05s2.756.427,6.814.712l2.207-8.848.773,9.011c6.519.264,15.032-.061,21.307-2.655l-1.353-44.556a35.481,35.481,0,0,1-20.022-1.8s-14.218,11.1-9.726,48.138" transform="translate(-468.171 -673.646)" fill="#b64c41"/>
          <path id="Trazado_689331" data-name="Trazado 689331" d="M573.17,1427.565h-9.8c-.784-1.142-1.883-5.755-2.711-6.681-.055-.061-.116-.134-.18-.215l-.083,6.9H559.5a76.346,76.346,0,0,0-.626-9.422,4.247,4.247,0,0,1-.751-2.43c.347-.87,3.548-2.8,3.548-2.8s2.17,11.807,3.495,12.14a15.527,15.527,0,0,0,6.05.233,5.189,5.189,0,0,1,1.868,1.334v0a.9.9,0,0,1,.087.945" transform="translate(-461.337 -1167.982)" fill="#2b478b"/>
          <path id="Trazado_689332" data-name="Trazado 689332" d="M650.421,1427.637h-9.8c-.775-1.13-1.857-5.646-2.684-6.641l-.08,6.641h-.893c0-.192-.007-.518-.017-.945v0a75.6,75.6,0,0,0-.52-7.924c-.683-1.2-1.246-2.488-1.05-2.982.347-.871,3.478-2.787,3.478-2.787s2.239,11.792,3.565,12.125a18.059,18.059,0,0,0,6.338.3s2.255,1.1,1.668,2.212" transform="translate(-525.197 -1168.054)" fill="#2b478b"/>
          <path id="Trazado_689333" data-name="Trazado 689333" d="M638.723,587.717s4.311-14.736,2.953-28.926A30.824,30.824,0,0,0,629.5,537.349s-11.142.937-12.577,4.055,3.377,38.578.843,44.766c0,0,8.348,5.763,20.955,1.547" transform="translate(-509.755 -444.199)" fill="#e7f0fd"/>
          <path id="Trazado_689334" data-name="Trazado 689334" d="M653.87,503.666a.031.031,0,0,1,0-.009,17.627,17.627,0,0,1-.3-5.19v0c.048-.569.106-.907.106-.907l-.106-.033-8.952-2.727c-.13,2.843-.294,4.951-.47,6.515-.083.74-.167,1.359-.251,1.874a36.724,36.724,0,0,0,4.349,1.623c3.21.933,4.6.562,5.2,0a1.4,1.4,0,0,0,.433-1.144" transform="translate(-532.271 -409.025)" fill="#d9935c"/>
          <path id="Trazado_689335" data-name="Trazado 689335" d="M654.756,497.529v.942s-5.968.067-9.422,2.846c.176-1.564.341-3.671.471-6.514Z" transform="translate(-533.464 -409.028)" fill="#cb8757"/>
          <path id="Trazado_689336" data-name="Trazado 689336" d="M649.71,428.905s-10.844,2.178-12.1-4.6-3.5-11.055,3.375-12.732,8.7.659,9.666,2.818,1.844,13.769-.945,14.51" transform="translate(-525.947 -339.757)" fill="#d9935c"/>
          <path id="Trazado_689337" data-name="Trazado 689337" d="M628.555,399.121a15.468,15.468,0,0,0-2.064.155,9.232,9.232,0,0,0-10.558,3.193c-5.158,6.475,5.977,17.341,5.977,17.341-1.487-1.975-1.916-9,3.678-12.512,3.467-2.177,3.607-4.48,3.213-5.917l.154.045a5.674,5.674,0,0,1,4.723,5.707s1.956-8.176-5.122-8.012" transform="translate(-508.033 -329.627)" fill="#2b478b"/>
          <path id="Trazado_689338" data-name="Trazado 689338" d="M585.2,592.427a33.8,33.8,0,0,0,14.066-.885A15.294,15.294,0,0,0,603,590.006c3.936-2.421,5.848-20.341,5.166-27.124s-12.758-20.892-12.758-20.892c-2.8,2.075-3.351,7.112-5.029,13.448-4.038,15.245-5.177,36.989-5.177,36.989" transform="translate(-483.756 -448.035)" fill="#b64c41"/>
          <path id="Trazado_689339" data-name="Trazado 689339" d="M585.2,656.553a33.8,33.8,0,0,0,14.066-.885,22.315,22.315,0,0,0,3.6-8.533c2-9.885-5.9-20.615-12.489-27.572-4.038,15.245-5.177,36.989-5.177,36.989" transform="translate(-483.756 -512.162)" fill="#aa413e"/>
          <path id="Trazado_689340" data-name="Trazado 689340" d="M593.684,724.887l8.77,6.33a2.441,2.441,0,0,0,3.4-.549l9.781-13.552a2.44,2.44,0,0,0-.549-3.4l-8.77-6.33a2.441,2.441,0,0,0-3.4.549l-9.781,13.552a2.44,2.44,0,0,0,.549,3.4" transform="translate(-489.936 -584.384)" fill="#233862"/>
          <path id="Trazado_689341" data-name="Trazado 689341" d="M664.232,784.627s4.287-.433,4.817.289a2.9,2.9,0,0,1-2.36,3.8c-2.408.289-5.154-1.686-5.154-1.686Z" transform="translate(-546.857 -648.505)" fill="#da935b"/>
          <path id="Trazado_689342" data-name="Trazado 689342" d="M566.051,541.99a14.858,14.858,0,0,0-10.248,7.971c-3.305,6.865-6.865,24.536-5.975,26.189s11.569,10.552,20.341,11.7c0,0,1.907-2.415,1.78-4.577,0,0-11.823-7.373-12.84-9.407s9.026-18.942,8.9-21.866-1.956-10.005-1.956-10.005" transform="translate(-454.4 -448.035)" fill="#b64c41"/>
          <path id="Trazado_689343" data-name="Trazado 689343" d="M217.9,524.751s-14.976,15.46-15.695,21.29,7.125,14.949,7.125,14.949Z" transform="translate(-167.111 -433.785)" fill="#4a75cb"/>
          <path id="Trazado_689344" data-name="Trazado 689344" d="M329.9,1437.317s.509,8.219,2.1,8.337c.211.016,8.065.016,8.065.016l10.025-.058a3.253,3.253,0,0,0-3-2.926c-2.93-.511-7.835-2.57-9.61-6.443-1.868-4.075-7.583,1.075-7.583,1.075" transform="translate(-272.709 -1185.971)" fill="#163560"/>
          <path id="Trazado_689345" data-name="Trazado 689345" d="M201.087,1437.317s.509,8.219,2.1,8.337c.212.016,8.065.016,8.065.016l10.055-.036a3.316,3.316,0,0,0-3.026-2.949c-2.931-.511-7.835-2.57-9.611-6.443-1.868-4.075-7.583,1.075-7.583,1.075" transform="translate(-166.228 -1185.971)" fill="#163560"/>
          <path id="Trazado_689346" data-name="Trazado 689346" d="M231.762,881.578s-2.622,16.769-12.4,46.538-11.114,42.659-11.114,42.659a43.07,43.07,0,0,1-5.44.384,34.452,34.452,0,0,1-5.052-.678s-.09-32.533,4.418-47.5.973-53.966.973-53.966Z" transform="translate(-163.472 -718.368)" fill="#355493"/>
          <path id="Trazado_689347" data-name="Trazado 689347" d="M278.45,874.312a407.015,407.015,0,0,1-4,56.3c-4.372,31.028-2.89,44.2-2.89,44.2s-3.6.645-4.864.687c-1.353.045-5.608-.339-5.608-.339s-6.258-31.039-4.464-46.569-8.57-53.29-8.57-53.29Z" transform="translate(-205.054 -722.749)" fill="#415da5"/>
          <path id="Trazado_689348" data-name="Trazado 689348" d="M306.459,473.6l4.939,3.658,7.138-1.5c-.1-.651-.57-3.349-1-5.792-.026-.144-.052-.288-.076-.429-.368-2.079-.685-3.865-.685-3.865l-6.667-3.323-2.486-1.239c.007.044.193,2.308.219,2.638a21.345,21.345,0,0,1-1.383,9.855" transform="translate(-253.334 -381.174)" fill="#ffb27d"/>
          <path id="Trazado_689349" data-name="Trazado 689349" d="M314.114,510.268c-.156-.066-9.71-2.885-10.748-2.542s-1.652,2.351-1.652,2.351l15.626,3.533a7.76,7.76,0,0,0-3.226-3.341" transform="translate(-249.411 -419.687)" fill="#4a75cb"/>
          <path id="Trazado_689350" data-name="Trazado 689350" d="M222.936,585.323c1.619,7.387,28.57,8.263,35.517,1.558.79-.764.829-4.32.531-9.115-.583-9.368-2.455-23.459-2.528-30.659a57,57,0,0,0-1.15-10.262,83.338,83.338,0,0,0-3.418-12.283s-13.164-4.256-15.627-3.532c-11.867,3.486-14.945,56.906-13.326,64.293" transform="translate(-183.96 -430.64)" fill="#739af0"/>
          <path id="Trazado_689351" data-name="Trazado 689351" d="M370.194,646.91c-.583-9.368-2.455-23.459-2.528-30.659a57,57,0,0,0-1.15-10.262l-7.919-1.4s-7.742,31.623,11.6,42.318" transform="translate(-295.169 -499.785)" fill="#4a75cb"/>
          <path id="Trazado_689352" data-name="Trazado 689352" d="M388.515,767.518a1.863,1.863,0,0,0,.594,2.156,3.613,3.613,0,0,1,1.609,3.3c-.26,1.026-2.746,2.7-3.608,2.429s-2.616-1.621-2.427-2.162-1.18-4.748.921-6.367,2.911.648,2.911.648" transform="translate(-317.778 -633.45)" fill="#ffb27d"/>
          <path id="Trazado_689353" data-name="Trazado 689353" d="M352.611,530.866s7.723,1.445,13.876,10.513,10.2,15.81,9.068,19.079-11.466,14.6-13.248,14.6-4.656-1.3-4.818-4.21c0,0,7.275-10.9,5.842-12.536-.612-.7-9.444-7.868-10.705-4.629-2.086,5.359-.016-22.821-.016-22.821" transform="translate(-290.728 -438.84)" fill="#739af0"/>
          <path id="Trazado_689354" data-name="Trazado 689354" d="M316.414,469.752c1.464,2.8,6.919,5.224,9.195,6.115-.026-.144-.052-.288-.076-.429-.368-2.079-.685-3.865-.685-3.865l-6.667-3.323c-1.473-.023-2.371.35-1.767,1.5" transform="translate(-261.406 -387.077)" fill="#fca56b"/>
          <path id="Trazado_689355" data-name="Trazado 689355" d="M314.783,398.085s-11.774,1.354-12.5-5.992-2.741-12.117,4.745-13.292,9.228,1.483,10.068,3.875.735,14.867-2.309,15.409" transform="translate(-249.216 -312.898)" fill="#ffb27d"/>
          <path id="Trazado_689356" data-name="Trazado 689356" d="M296.924,362.556s-2.248,7.958-3.855,7.289-3.075-1.219-3.294,1.267,1.566,5.745-3.674,5.2-10.126-15.262-8.23-17.511c5.47-6.49,26.648-3.982,19.053,3.759" transform="translate(-229.358 -293.531)" fill="#233862"/>
          <path id="Trazado_689357" data-name="Trazado 689357" d="M1938.223,1383.346l-2.775,11.688-4.157-.024-.152-11.665Z" transform="translate(-1596.374 -1143.541)" fill="#ffb27d"/>
          <path id="Trazado_689358" data-name="Trazado 689358" d="M1717.973,1378.883l-7.9,11.19-3.078-3.952,4.752-8.777Z" transform="translate(-1411.089 -1138.58)" fill="#ffb27d"/>
          <path id="Trazado_689359" data-name="Trazado 689359" d="M1867.241,491.118a8.048,8.048,0,0,1,4.358-.833,2.037,2.037,0,0,0-.919-.436,6.757,6.757,0,0,1,2.411.629c10.375-4,12.006,11.279,11.788,14.828s3.486,4.708,8.885,7.5c10.3,5.336,11.2,12.48,11.2,12.48-.08.047-.164.1-.253.162-.511-.866-1.563-2.491-2.45-2.737a36.722,36.722,0,0,1,1.427,3.476c-3.038,2.311-8.723,7.433-12.684,11.064a5.817,5.817,0,0,0-.27-2.249l-.489,2.947c-2.12,1.949-3.582,3.32-3.582,3.32.262-2.868-12.972-18-19.876-22.537-1.681-2.474-2.278-6.845-2.323-7.19a18.871,18.871,0,0,0,1.413,6.5c-5.846-5.381-2.443-24.772,1.361-26.933" transform="translate(-1539.828 -404.906)" fill="#b64c41"/>
          <path id="Trazado_689360" data-name="Trazado 689360" d="M1888.481,609.207c-.035.015,3.333,1.764,5.867,1.072,2.383-.65,3.94-3.74,3.907-3.747-1.009-.2-1.3-1.587-1.279-7.547l-.456.09-7.671,1.519s.174,2.414.18,4.688c.005,1.91-.11,3.721-.548,3.925" transform="translate(-1561.11 -495.15)" fill="#ffb27d"/>
          <path id="Trazado_689361" data-name="Trazado 689361" d="M1890.605,601.022s.175,2.414.18,4.688c4.293-.121,6.562-4.037,7.492-6.208Z" transform="translate(-1562.866 -495.578)" fill="#d68d5d"/>
          <path id="Trazado_689362" data-name="Trazado 689362" d="M1876.03,519.523a22.557,22.557,0,0,0,2.79-6.594c.385-2.17-.72-10.213-8.8-9.055a10.98,10.98,0,0,0-4.554,1.722c-1.755,1.185-4.287,3.744-1.456,10.763l.736,2.371Z" transform="translate(-1539.828 -416.433)" fill="#b64c41"/>
          <path id="Trazado_689363" data-name="Trazado 689363" d="M1714.226,990.706l4.066.124,4.4.135a86.883,86.883,0,0,0,15.87-29.465q.2-.632.422-1.281c3.121-9.1,9.591-20.523,13-30.863.543-1.647,1.03-3.2,1.467-4.664.14-.47.276-.932.406-1.386a109.68,109.68,0,0,0,3.911-20.587l-24.621.2a458.95,458.95,0,0,1-18.923,87.789" transform="translate(-1417.063 -746.231)" fill="#80bdcc"/>
          <path id="Trazado_689364" data-name="Trazado 689364" d="M1826.252,670.044c.062,11.716-1.719,16.743-1.719,16.743A33.084,33.084,0,0,0,1847.6,688.2c.147-.046,10.374-2.38,10.374-2.38-.21-.474-2.074-8.37-2.279-8.8-2.645-5.681-4.654-8.171-4.968-9.918a37.154,37.154,0,0,1-.3-9.816,78.761,78.761,0,0,1,3.038-15.415,80.8,80.8,0,0,1-10.252-3.438c-.817,1.018-3.227,2.046-5.394,2-2.5-.055-3.275-1.11-3.184-2.3-2.66,1.48-4.774,2.887-4.774,2.887-2.26,3.926-6.845,7.739-7.177,13.762-.082,1.481,3.566,14.939,3.568,15.268" transform="translate(-1506.719 -527.507)" fill="#e7f1fd"/>
          <path id="Trazado_689365" data-name="Trazado 689365" d="M1947.778,732.685c1.076,1.523,3.14,10.782,8.273,11.945-2.645-6.6-4.654-9.492-4.968-11.52a50.051,50.051,0,0,1-.3-11.4c-1.719-3.012-3-5.077-3-5.077-.135-.487-2.731-8.514-3.563-1.339s2.361,15.689,3.563,17.393" transform="translate(-1607.071 -588.841)" fill="#5f9aa8"/>
          <path id="Trazado_689366" data-name="Trazado 689366" d="M1866.2,538.964s10.156.168,10.163-6.159,1.323-10.566-5.162-10.94-7.747,2.038-8.263,4.149.619,12.743,3.261,12.95" transform="translate(-1539.899 -431.367)" fill="#ffb27d"/>
          <path id="Trazado_689367" data-name="Trazado 689367" d="M1859.932,515.814c1.567-1.9,2.752-1.487,3.418-.916,2.195-3.28,9.132,1.463,9.132,1.463a12.086,12.086,0,0,0,3.953,7.14s-1.851,1.144-6.119.046c-3.359-.864-5.8-5.644-6.682-7.642a8.062,8.062,0,0,0-2.26,2.992c-.506,1.611-.734,4.928-1.7,4.815,0,0-2.1-5.045.259-7.9" transform="translate(-1536.586 -424.685)" fill="#b64c41"/>
          <path id="Trazado_689368" data-name="Trazado 689368" d="M1931.16,1447a11.264,11.264,0,0,0,.529,4.792s.68,3.1-2.373,3.158-3.8-.23-3.456-2.131,1-5.188,1-5.188Z" transform="translate(-1591.946 -1196.161)" fill="#ffb27d"/>
          <path id="Trazado_689369" data-name="Trazado 689369" d="M1924.558,1478.943l.01.007h6.317l.01-.007a16.3,16.3,0,0,0-.219-4.675c-3.457,3.305-5.621-.083-5.621-.083a17.655,17.655,0,0,0-.5,4.758" transform="translate(-1590.931 -1218.632)" fill="#163560"/>
          <path id="Trazado_689370" data-name="Trazado 689370" d="M1664.546,1437.546s5.629-6.392,7.357-9.571l4.186,2.144-9.356,8.786-2.189-.288Z" transform="translate(-1375.993 -1180.434)" fill="#ffb27d"/>
          <path id="Trazado_689371" data-name="Trazado 689371" d="M1644.642,1450.862h7.81a12.743,12.743,0,0,0,2.147-3.505,3.777,3.777,0,0,1,2.549-1.738v5.244h1.616l1.5-5.576c1-1.868.248-3.582-.453-5.058-.816,0-3.181.588-7.339,5.365a5.408,5.408,0,0,1-4.374,2.083.382.382,0,0,1-.061.033c-2.368,1.086-3.14,2.421-3.391,3.153" transform="translate(-1359.541 -1190.563)" fill="#163560"/>
          <path id="Trazado_689372" data-name="Trazado 689372" d="M1641.774,645.6s6.667,3.728,9.048,4.8c.847.382,2.382,1.1,3.949,1.828.947.442,1.9.892,2.734,1.282a3.436,3.436,0,0,0,4.072-.879c3.61-4.215,12.953-13.351,22.6-14.5l.033-.015,0,.011h.012l-.053.1c-.542,1.349-5.831,14.564-6,17.351-.173,2.938-.691,48.042-.691,48.042s.346,2.074-3.629,1.21-5.012-1.728-5.012-1.728,3.8-27.823,2.765-37.5a21.524,21.524,0,0,1,.4-6.237,49.559,49.559,0,0,1-12.8,5.142,58.286,58.286,0,0,1-6.6-3.615,41.421,41.421,0,0,1-5.565-4.477,81.724,81.724,0,0,1-6.325-7.28Z" transform="translate(-1356.295 -527.507)" fill="#e37970"/>
          <path id="Trazado_689373" data-name="Trazado 689373" d="M1737.683,1075.884l4.4.135a86.88,86.88,0,0,0,15.87-29.465q.2-.633.422-1.281c3.121-9.1,9.591-20.523,13-30.863.542-1.647,1.03-3.2,1.467-4.664.14-.47.277-.931.406-1.386l-3.626-2.751s-10.885,17.627-14.255,34.216c-2.927,14.409-14.651,31.748-17.686,36.059" transform="translate(-1436.453 -831.285)" fill="#5f9aa8"/>
          <path id="Trazado_689374" data-name="Trazado 689374" d="M1908.219,1019.062c-.062,8.067.346,26.613,1.4,34.292h3.9c2.155,0,3.23-.031,3.23-.031,2.635-13.35,4.51-24.4,5.876-33.915,1.12-7.811,2.115-14.508,2.881-20.273.771-5.8,1.307-10.659,1.5-14.763q.044-.97.064-1.886t.01-1.788l-21.273-2.074c.268,14.135,2.454,35.75,2.419,40.439" transform="translate(-1575.427 -808.977)" fill="#80bdcc"/>
          <path id="Trazado_689375" data-name="Trazado 689375" d="M1950.3,1080.762c2.155,0,3.23-.031,3.23-.031,2.635-13.35,4.51-24.4,5.876-33.915,1.12-7.811,2.115-14.508,2.881-20.273.771-5.8,1.307-10.659,1.5-14.763l-7.806,4.592s4.982,1.758,3.081,15.064-6.114,47.443-8.76,49.326" transform="translate(-1612.215 -836.387)" fill="#5f9aa8"/>
          <path id="Trazado_689376" data-name="Trazado 689376" d="M1909.841,704.207s1.5,5.414,6.683,4.723,12.557-3.8,12.557-3.8-2.215-7-4.97-16.2c-3.335-11.134-7.464-25.488-9.41-34.542a55.988,55.988,0,0,1-1.058-6.173l-4.391-8.349s-6.324,14.4-6.67,18.026,7.258,46.314,7.258,46.314" transform="translate(-1572.758 -528.944)" fill="#e37970"/>
          <path id="Trazado_689377" data-name="Trazado 689377" d="M1945.811,734.746c.232,5.876,1.614,17.281,13.941,23.387.033.015.066.033.1.047-3.335-11.134-7.464-25.488-9.41-34.542-2.264,3.383-4.756,7.873-4.63,11.108" transform="translate(-1608.498 -598.194)" fill="#c45446"/>
          <path id="Trazado_689378" data-name="Trazado 689378" d="M1650.823,686.06c.847.382,2.381,1.1,3.949,1.828a20.152,20.152,0,0,0-2.167,8.67,36.188,36.188,0,0,1-5.731-4.616,75.989,75.989,0,0,1-6.159-7.141l1.06-3.544s6.667,3.728,9.048,4.8" transform="translate(-1356.295 -563.161)" fill="#ffb27d"/>
          <path id="Trazado_689379" data-name="Trazado 689379" d="M1553.32,600.362h0a.41.41,0,0,0,.134.565l2.447,1.509.431-.7-2.447-1.508a.411.411,0,0,0-.565.134" transform="translate(-1284 -496.127)" fill="#163560"/>
          <path id="Trazado_689380" data-name="Trazado 689380" d="M1860.279,834.307l-.482.781-2.957-1.822-2.29,3.716,2.771,1.708a7.38,7.38,0,0,1-8,1.567c-5.373-2.208-13.008-6.73-23.24-13.77a5.283,5.283,0,0,0-4.281-2.985l-.7-.5a1.056,1.056,0,0,0-1.221,1.723c12.911,9.149,22.28,14.867,28.642,17.482a9.486,9.486,0,0,0,10.647-2.387l.063.039a2.181,2.181,0,0,0,2.368-3.663l.484-.786a1.056,1.056,0,1,0-1.8-1.108" transform="translate(-1504.026 -680.176)" fill="#163560"/>
          <path id="Trazado_689381" data-name="Trazado 689381" d="M1564.262,605.815a.647.647,0,0,0-.56.908c4,8.874,65.414,50.071,73.357,53.044q.568.212,1.108.38a7.172,7.172,0,0,0,7.287-11.824q-.393-.407-.838-.819c-6.226-5.76-70.629-42.1-80.355-41.689" transform="translate(-1292.586 -500.794)" fill="#415da5"/>
          <path id="Trazado_689382" data-name="Trazado 689382" d="M1580.742,615.072a634.262,634.262,0,0,1,57.026,28.529s-30.65-19.732-57.026-28.529" transform="translate(-1306.718 -508.448)" fill="#a0c0ef"/>
          <path id="Trazado_689383" data-name="Trazado 689383" d="M1819.026,772.158c2.5.328,4.038.756,4.345,2.545a7.593,7.593,0,0,0,1.087,2.593c2.486.133,8.4.456,13.378.77l.41,6.523a74.483,74.483,0,0,1-14.883-3.523,3.89,3.89,0,0,1-1.694-.921c-3.58-2.932-5.844-5.58-5.85-6.283s.712-2.033,3.207-1.7" transform="translate(-1501.044 -638.261)" fill="#ffb27d"/>
          <path id="Trazado_689384" data-name="Trazado 689384" d="M1938.312,639.867s10.544.747,13.079,6.393,3.341,24.425.115,29.954c0,0-4.441,1.265-12.3-.2l-.29-.055s-2.506-6.135-.259-7.345c0,0,6.625.346,5.933-1.843s-6.281-26.9-6.281-26.9" transform="translate(-1601.818 -528.945)" fill="#e37970"/>
          <path id="Trazado_689385" data-name="Trazado 689385" d="M1623.634,668.567s-5.24-5.541-3.044-6.639,5.182.82,3.933,4.309,1.289,1.053-.888,2.331" transform="translate(-1339.214 -546.926)" fill="#ffb27d"/>
          <path id="Trazado_689386" data-name="Trazado 689386" d="M395.65,1498.479H.468a.521.521,0,0,1,0-1.036H395.65a.521.521,0,0,1,0,1.036" transform="translate(6.706 -1237.859)" fill="#202f4e"/>
        </g>
      </g>
      <path id="Trazado_701716" data-name="Trazado 701716" d="M0,0H438V263.165H0Z" transform="translate(3741 -9246)" fill="none"/>
    </g>
  </g>
</svg>
