<svg xmlns="http://www.w3.org/2000/svg" xmlns:xlink="http://www.w3.org/1999/xlink" width="377.931" height="385.167" viewBox="0 0 377.931 385.167">
  <defs>
    <clipPath id="clip-path">
      <rect id="Rectángulo_344321" data-name="Rectángulo 344321" width="377.931" height="220.333" fill="none"/>
    </clipPath>
  </defs>
  <g id="Grupo_1005939" data-name="Grupo 1005939" transform="translate(8989 6587.167)">
    <g id="Grupo_1003799" data-name="Grupo 1003799" transform="translate(-9379.824 -11798.167)">
      <g id="Grupo_896227" data-name="Grupo 896227" transform="translate(390.824 5211)">
        <g id="Grupo_896226" data-name="Grupo 896226" clip-path="url(#clip-path)">
          <path id="Trazado_693634" data-name="Trazado 693634" d="M25.558,116.417c17.153-21.371,38.825-31.78,85.282-33.98s57.611,33.126,132.939,25.862,114.857-5.119,129.094,15.283,20.679,87.521-90.988,78.3-147.3-26.4-198.2-17.1S12.023,191,7.013,176.081s10.439-49.565,18.545-59.664" transform="translate(-2.674 -36.497)" fill="#bfe5f9"/>
          <path id="Trazado_693635" data-name="Trazado 693635" d="M17.419,354.639s75.861-.806,172.463,0,165.2.84,176.522,7.265,6.435,17.879-53.393,15.015-93.628-12.01-129.342-6.721-66.207-.848-94.916-.642-70,3.646-83.322-2.727.663-12.092,11.988-12.19" transform="translate(0 -157.037)" fill="#4db1f0"/>
          <path id="Trazado_693636" data-name="Trazado 693636" d="M290.857,32.021H263.289a4.748,4.748,0,0,0-4.748,4.747V55.856a4.748,4.748,0,0,0,4.748,4.748h3.32c-.876,2.491-1.883,5.884-1.027,6.266C266.55,67.3,271,63.1,273.52,60.6h17.337a4.748,4.748,0,0,0,4.748-4.748V36.768a4.748,4.748,0,0,0-4.748-4.747" transform="translate(-114.6 -14.194)" fill="#ff9400"/>
          <path id="Trazado_693637" data-name="Trazado 693637" d="M279.543,42.725a2.2,2.2,0,0,1-.681-3.343,7.04,7.04,0,0,1,6.021-2.425c3.986.159,7.443,2.9,7.294,6.651-.1,2.605-2.107,4.122-4.7,5.109-.919.362-.975,1.106-1.01,1.983a1.49,1.49,0,0,1-1.547,1.429l-1.409-.057a1.488,1.488,0,0,1-1.429-1.547l.056-1.409c.046-1.17.138-2.123,1.364-2.847,1.662-.971,3.18-.991,3.255-2.877a2.118,2.118,0,0,0-2.066-2.264,2.925,2.925,0,0,0-2.414,1.068,2.222,2.222,0,0,1-2.733.528m7.532,14.041a3.045,3.045,0,1,1-2.934-3.177,3.036,3.036,0,0,1,2.934,3.177" transform="translate(-123.386 -16.378)" fill="#fff"/>
          <path id="Trazado_693638" data-name="Trazado 693638" d="M259.431,346.133l2.11,8.324,2.813.628,4.922-.628-1.806-8.324Z" transform="translate(-114.995 -153.425)" fill="#ffa78c"/>
          <path id="Trazado_693639" data-name="Trazado 693639" d="M262.3,359.832s.405,5.513.684,6.372.821.771.821.771a49.8,49.8,0,0,0,5.13,1.235,35.532,35.532,0,0,0,7.026.752c2.454-.107,3.4-.43,3.4-1.235s-.279-2.363-3.29-4.19-4.74-3.008-4.74-3.008a3.36,3.36,0,0,0-1.617-1.343c-1.059-.376-3.531,1.128-4.163,1.289s-2.528-1.235-3.253-.645" transform="translate(-116.266 -159.185)" fill="#00557f"/>
          <path id="Trazado_693640" data-name="Trazado 693640" d="M207.4,348v6.473l4.365,1.238,2.827-1.238V348Z" transform="translate(-91.932 -154.253)" fill="#ffa78c"/>
          <path id="Trazado_693641" data-name="Trazado 693641" d="M199.456,358.429a38.472,38.472,0,0,1-5.194,4c-3.2,2.078-3.276,2.557-3.117,3.836s7.911.879,10.868.4,4.156-.719,4.156-.719l2-.639-.8-7.352a16.048,16.048,0,0,1-2.647.7c-.809.06-2.637-1.379-3.835-1.678s-1.449,1.058-1.429,1.458" transform="translate(-84.706 -158.211)" fill="#00557f"/>
          <path id="Trazado_693642" data-name="Trazado 693642" d="M287.2,102.794c-.613.106-1.507,1.268-1.982,1.945l-.287-.044c.7-1.076,2.336-2.856,1.227-2.59-.994.238-1.942,1.795-2.291,2.428l-.357-.055c.683-1.157,2.549-3.243,1.351-2.943-1.109.277-2.162,2.2-2.457,2.775l-.2-.031c.648-1.135,1.558-2.519.655-2.2-1,.351-1.816,2.2-2.051,2.789-.534.552-1.149,1.226-1.549,1.67-.348-1.377-1.241-3.07-1.673-2.962-.479.12.06,1.738.15,2.847a7.049,7.049,0,0,0,.618,2.085c-1.393,2.786-5.649,9.467-7.872,14.382l-6.11-6.369-8.949,5.274s9.932,13.026,13.863,12.426c8.744-1.335,13.136-19.954,14.071-24.442l2.766-4.707s1.952-2.425,1.083-2.275" transform="translate(-113.214 -44.993)" fill="#ffa78c"/>
          <path id="Trazado_693643" data-name="Trazado 693643" d="M226.252,104.661l-3.317,3.233-5.8-2.153a14.742,14.742,0,0,0,.045-2.752c-.04-.543-.1-1.046-.157-1.483-.14-.99-.3-1.644-.3-1.644l8.7-.414a5.8,5.8,0,0,0-.056,1.136,9.173,9.173,0,0,0,.145,1.3,16.711,16.711,0,0,0,.738,2.774" transform="translate(-96.065 -44.081)" fill="#ffa78c"/>
          <path id="Trazado_693644" data-name="Trazado 693644" d="M225.754,102.79c-.979.861-2.724,2.254-3.9,2.333a12.522,12.522,0,0,1-4.424-1.231c-.039-.542-.1-1.046-.156-1.482a7.506,7.506,0,0,0,4.458.716,10.531,10.531,0,0,0,3.882-1.639,9.155,9.155,0,0,0,.145,1.3" transform="translate(-96.306 -44.985)" fill="#d88471"/>
          <path id="Trazado_693645" data-name="Trazado 693645" d="M203.344,68.254s1.275,8.557,2.206,11.474,6.117,5.386,9.725,5.435c3.067.042,7.424-4.411,8.121-6.932s-.266-13.776-.266-13.776-13.408-10.93-19.786,3.8" transform="translate(-90.133 -26.841)" fill="#ffa78c"/>
          <path id="Trazado_693646" data-name="Trazado 693646" d="M216.193,82.41c.075.576-.129,1.077-.456,1.12s-.652-.39-.727-.967.129-1.077.456-1.119.652.39.727.965" transform="translate(-95.298 -36.1)" fill="#00557f"/>
          <path id="Trazado_693647" data-name="Trazado 693647" d="M229.54,80.587c.053.578-.169,1.072-.5,1.1s-.637-.414-.691-.992.169-1.072.5-1.1.638.414.692.992" transform="translate(-101.215 -35.281)" fill="#00557f"/>
          <path id="Trazado_693648" data-name="Trazado 693648" d="M203.187,82.547s-2.087-1.993-3.273-1.233-.57,3.7,1.043,5.218,2.847.759,2.847.759Z" transform="translate(-88.339 -35.966)" fill="#ffa78c"/>
          <path id="Trazado_693649" data-name="Trazado 693649" d="M238.325,77.809s1.581-2.414,2.908-1.944,1.394,3.475.168,5.319-2.6,1.385-2.6,1.385Z" transform="translate(-105.639 -33.601)" fill="#ffa78c"/>
          <path id="Trazado_693650" data-name="Trazado 693650" d="M202.36,69.937l.807,2.98s1.915-.7,1.189-7.169c0,0,3.9-.594,5.085-2.443a16.748,16.748,0,0,0,5.151.459,8.174,8.174,0,0,0,3.5-1.714s.132,4.725,2.179,5.433c0,0-.015,2.988,1.082,3.3,0,0,.223-4.149,1.915-4.625,0,0,1.229-3.911.833-5.165a2.526,2.526,0,0,0-1.651-1.584s-.524-6.767-11.028-5.283c-10.125,1.431-11.534,6.8-11.842,7.726-.439,1.317.22,2.621.352,4.249a10.312,10.312,0,0,0,.726,2.976Z" transform="translate(-88.399 -23.898)" fill="#00557f"/>
          <path id="Trazado_693651" data-name="Trazado 693651" d="M244.68,279.4H233.253l-13.665-70.239-1.437.083L215.319,279.4H203.567l-.33-38.053-.09-10.309-.341-39.06h29.848l5.314,38.619L239.4,241Z" transform="translate(-89.895 -85.097)" fill="#ffd07f"/>
          <path id="Trazado_693652" data-name="Trazado 693652" d="M193.312,179.329c1.2.3,1.558-.269,1.288-.6s-2.611-1.475-3.181-2.123l-1.9-2.162a17.234,17.234,0,0,0,2.322,0c1.166-.09,2.01-.81.3-.989-1.246-.131-3.058-.389-3.95-.519l-.308-.35L182.27,160.44l5.545-16.461-8.867-4.408s-6.233,17.034-6.872,20.869,12.786,17.58,12.786,17.58l.007-.013a17.726,17.726,0,0,0,1.911,3.269A4.344,4.344,0,0,0,189.07,183h0a3.419,3.419,0,0,0,.8.34c1.2.3,1.558-.269,1.289-.6a11.557,11.557,0,0,0-1.577-1l.121-.3a7.139,7.139,0,0,0,2.116,1.213c1.2.3,1.558-.269,1.288-.6-.237-.29-2.069-1.208-2.9-1.866l.183-.454a8.026,8.026,0,0,0,2.387,1.422c1.2.3,1.558-.269,1.289-.6s-2.562-1.451-3.161-2.1l.174-.432a7.527,7.527,0,0,0,2.238,1.306" transform="translate(-76.264 -61.866)" fill="#ffa78c"/>
          <path id="Trazado_693653" data-name="Trazado 693653" d="M206.557,106.712l-13.867,6.44,4.343,28.088,1.291,12.945H228.17l.6-13.9V109.011l-13.5-2.121s-1.246,2.719-3.883,3.073-4.831-3.25-4.831-3.25" transform="translate(-85.411 -47.301)" fill="#00557f"/>
          <path id="Trazado_693654" data-name="Trazado 693654" d="M187.25,118.281s-5.394,8.761-6.832,12.751c0,0,5.588,3.35,11.1,3.51,0,0,.482-12.066-4.272-16.261" transform="translate(-79.971 -52.429)" fill="#00557f"/>
          <path id="Trazado_693655" data-name="Trazado 693655" d="M256.555,110.839s6.876,6.308,9.845,9.337a58.008,58.008,0,0,1-9.829,7.951s-2.592-11.494-.017-17.288" transform="translate(-113.214 -49.13)" fill="#00557f"/>
          <path id="Trazado_693656" data-name="Trazado 693656" d="M211.436,77.428s2.239,0,3.187-.977" transform="translate(-93.72 -33.887)" fill="none" stroke="#00557f" stroke-linecap="round" stroke-linejoin="round" stroke-width="1"/>
          <path id="Trazado_693657" data-name="Trazado 693657" d="M230.554,75.156a5.115,5.115,0,0,0-2.634,0" transform="translate(-101.027 -33.23)" fill="none" stroke="#00557f" stroke-linecap="round" stroke-linejoin="round" stroke-width="1"/>
          <path id="Trazado_693658" data-name="Trazado 693658" d="M221.978,81.141a9.563,9.563,0,0,1,.213,2.614.8.8,0,0,0-.556,1.02,1.092,1.092,0,0,0,.98.892" transform="translate(-98.229 -35.966)" fill="none" stroke="#bf6d60" stroke-linecap="round" stroke-linejoin="round" stroke-width="1"/>
          <path id="Trazado_693659" data-name="Trazado 693659" d="M220.658,93.183s2.507-.807,3.781,0-2.974,1.36-3.781,1.36-.765-.935,0-1.36" transform="translate(-97.546 -41.145)" fill="#fff"/>
          <path id="Trazado_693660" data-name="Trazado 693660" d="M241.894,79.408a5.6,5.6,0,0,0-1.593,3" transform="translate(-106.515 -35.198)" fill="none" stroke="#bf6d60" stroke-linecap="round" stroke-linejoin="round" stroke-width="1"/>
          <path id="Trazado_693661" data-name="Trazado 693661" d="M242.187,82.97a3.229,3.229,0,0,0-.65-1.493" transform="translate(-107.063 -36.115)" fill="none" stroke="#bf6d60" stroke-linecap="round" stroke-linejoin="round" stroke-width="1"/>
          <path id="Trazado_693662" data-name="Trazado 693662" d="M201.324,84.044a5.812,5.812,0,0,1,2.167,2.91" transform="translate(-89.238 -37.253)" fill="none" stroke="#bf6d60" stroke-linecap="round" stroke-linejoin="round" stroke-width="1"/>
          <path id="Trazado_693663" data-name="Trazado 693663" d="M202.583,87.346a3.78,3.78,0,0,1,.382-1.533" transform="translate(-89.796 -38.037)" fill="none" stroke="#bf6d60" stroke-linecap="round" stroke-linejoin="round" stroke-width="1"/>
          <path id="Trazado_693664" data-name="Trazado 693664" d="M196.23,123.131s-.2,8.837.507,13.4" transform="translate(-86.969 -54.579)" fill="none" stroke="#004560" stroke-linecap="round" stroke-linejoin="round" stroke-width="1"/>
          <path id="Trazado_693665" data-name="Trazado 693665" d="M255.6,118.926s1.482,8.622.983,12.462" transform="translate(-113.298 -52.715)" fill="none" stroke="#004560" stroke-linecap="round" stroke-linejoin="round" stroke-width="1"/>
          <path id="Trazado_693666" data-name="Trazado 693666" d="M216.726,112.037a7.291,7.291,0,0,0,5.268,1.758c3.2-.24,4.258-1.758,4.258-1.758" transform="translate(-96.065 -49.661)" fill="none" stroke="#004560" stroke-linecap="round" stroke-linejoin="round" stroke-width="1"/>
          <path id="Trazado_693667" data-name="Trazado 693667" d="M186.9,177.171s-1.678-.08-3.2,0" transform="translate(-81.427 -78.516)" fill="none" stroke="#bf6d60" stroke-linecap="round" stroke-linejoin="round" stroke-width="1"/>
          <path id="Trazado_693668" data-name="Trazado 693668" d="M281.312,139.91s-1.126,2.868-1.445,4.063" transform="translate(-124.053 -62.016)" fill="none" stroke="#bf6d60" stroke-linecap="round" stroke-linejoin="round" stroke-width="1"/>
          <line id="Línea_167" data-name="Línea 167" x2="0.885" y2="1.392" transform="translate(166.037 61.543)" fill="none" stroke="#bf6d60" stroke-linecap="round" stroke-linejoin="round" stroke-width="1"/>
          <path id="Trazado_693669" data-name="Trazado 693669" d="M302.114,106.712s2.937.1,3.916.732" transform="translate(-133.914 -47.301)" fill="none" stroke="#bf6d60" stroke-linecap="round" stroke-linejoin="round" stroke-width="1"/>
          <line id="Línea_168" data-name="Línea 168" x2="27.449" transform="translate(113.782 108.683)" fill="none" stroke="#bf6d60" stroke-linecap="round" stroke-linejoin="round" stroke-width="1"/>
          <path id="Trazado_693670" data-name="Trazado 693670" d="M227.81,195.212s-2.038,11.014,1.558,12.879V197.849" transform="translate(-100.723 -86.529)" fill="none" stroke="#bf6d60" stroke-linecap="round" stroke-linejoin="round" stroke-width="1"/>
          <path id="Trazado_693671" data-name="Trazado 693671" d="M217.934,214.8s3.435,2.149,5.178,3.356" transform="translate(-96.601 -95.213)" fill="none" stroke="#bf6d60" stroke-linecap="round" stroke-linejoin="round" stroke-width="1"/>
          <path id="Trazado_693672" data-name="Trazado 693672" d="M235.373,216.442a67.314,67.314,0,0,0,5.034-5.514" transform="translate(-104.331 -93.495)" fill="none" stroke="#bf6d60" stroke-linecap="round" stroke-linejoin="round" stroke-width="1"/>
          <path id="Trazado_693673" data-name="Trazado 693673" d="M206.427,343.764a44.165,44.165,0,0,0,8.534,0" transform="translate(-91.5 -152.376)" fill="none" stroke="#bf6d60" stroke-linecap="round" stroke-linejoin="round" stroke-width="1"/>
          <path id="Trazado_693674" data-name="Trazado 693674" d="M267.494,343.764s-5.274.373-8.87.4" transform="translate(-114.637 -152.376)" fill="none" stroke="#bf6d60" stroke-linecap="round" stroke-linejoin="round" stroke-width="1"/>
          <path id="Trazado_693675" data-name="Trazado 693675" d="M192.1,370.691s1.738.539,6.413.3a50.422,50.422,0,0,0,9.3-1.5" transform="translate(-85.149 -163.78)" fill="none" stroke="#00415b" stroke-linecap="round" stroke-linejoin="round" stroke-width="1"/>
          <path id="Trazado_693676" data-name="Trazado 693676" d="M264.868,370.246a76.306,76.306,0,0,0,9.709,2.157,13,13,0,0,0,5.513-.419" transform="translate(-117.404 -164.114)" fill="none" stroke="#00415b" stroke-linecap="round" stroke-linejoin="round" stroke-width="1"/>
          <path id="Trazado_693677" data-name="Trazado 693677" d="M200.8,364a4.793,4.793,0,0,1,2.8,1.159" transform="translate(-89.008 -161.345)" fill="none" stroke="#00415b" stroke-linecap="round" stroke-linejoin="round" stroke-width="1"/>
          <path id="Trazado_693678" data-name="Trazado 693678" d="M202.382,362.648a4.792,4.792,0,0,1,2.795,1.159" transform="translate(-89.707 -160.746)" fill="none" stroke="#00415b" stroke-linecap="round" stroke-linejoin="round" stroke-width="1"/>
          <path id="Trazado_693679" data-name="Trazado 693679" d="M203.96,361.3a4.79,4.79,0,0,1,2.794,1.159" transform="translate(-90.407 -160.147)" fill="none" stroke="#00415b" stroke-linecap="round" stroke-linejoin="round" stroke-width="1"/>
          <path id="Trazado_693680" data-name="Trazado 693680" d="M279.881,364.59a4.791,4.791,0,0,0-2.795,1.159" transform="translate(-122.82 -161.607)" fill="none" stroke="#00415b" stroke-linecap="round" stroke-linejoin="round" stroke-width="1"/>
          <path id="Trazado_693681" data-name="Trazado 693681" d="M278.3,363.239a4.793,4.793,0,0,0-2.8,1.159" transform="translate(-122.121 -161.008)" fill="none" stroke="#00415b" stroke-linecap="round" stroke-linejoin="round" stroke-width="1"/>
          <path id="Trazado_693682" data-name="Trazado 693682" d="M276.725,361.888a4.793,4.793,0,0,0-2.8,1.159" transform="translate(-121.421 -160.409)" fill="none" stroke="#00415b" stroke-linecap="round" stroke-linejoin="round" stroke-width="1"/>
          <line id="Línea_169" data-name="Línea 169" x1="2.098" y2="1.079" transform="translate(131.102 35.926)" fill="none" stroke="#004560" stroke-linecap="round" stroke-linejoin="round" stroke-width="1"/>
          <path id="Trazado_693683" data-name="Trazado 693683" d="M221.555,67.328s-2.182,3.967-9.162,1.924c0,0-3,2.779-6.3,2.424" transform="translate(-91.352 -29.844)" fill="none" stroke="#004560" stroke-linecap="round" stroke-linejoin="round" stroke-width="1"/>
          <path id="Trazado_693684" data-name="Trazado 693684" d="M235.127,73.962s-1.851-.769-2.179-5.433" transform="translate(-103.256 -30.376)" fill="none" stroke="#004560" stroke-linecap="round" stroke-linejoin="round" stroke-width="1"/>
          <path id="Trazado_693685" data-name="Trazado 693685" d="M201.651,67.328a4.98,4.98,0,0,0-.338,2.033" transform="translate(-89.227 -29.844)" fill="none" stroke="#004560" stroke-linecap="round" stroke-linejoin="round" stroke-width="1"/>
          <path id="Trazado_693686" data-name="Trazado 693686" d="M204.07,71.26a8.456,8.456,0,0,0-.287,1.2" transform="translate(-90.328 -31.586)" fill="none" stroke="#004560" stroke-linecap="round" stroke-linejoin="round" stroke-width="1"/>
          <line id="Línea_170" data-name="Línea 170" x2="0.469" y2="0.911" transform="translate(132.686 38.763)" fill="none" stroke="#004560" stroke-linecap="round" stroke-linejoin="round" stroke-width="1"/>
          <path id="Trazado_693687" data-name="Trazado 693687" d="M236.163,59.362s.839.639.919,1.159" transform="translate(-104.681 -26.313)" fill="none" stroke="#004560" stroke-linecap="round" stroke-linejoin="round" stroke-width="1"/>
          <path id="Trazado_693688" data-name="Trazado 693688" d="M233.507,61.443a3.693,3.693,0,0,1,.778.679" transform="translate(-103.503 -27.235)" fill="none" stroke="#004560" stroke-linecap="round" stroke-linejoin="round" stroke-width="1"/>
          <line id="Línea_171" data-name="Línea 171" y1="0.949" x2="0.939" transform="translate(121.533 37.204)" fill="none" stroke="#004560" stroke-linecap="round" stroke-linejoin="round" stroke-width="1"/>
          <path id="Trazado_693689" data-name="Trazado 693689" d="M210.5,266.775c0,3.177-2.181,5.756-4.872,5.756a4.21,4.21,0,0,1-2.12-.576l-.09-10.309a4.275,4.275,0,0,1,2.21-.621c2.691,0,4.872,2.573,4.872,5.75" transform="translate(-90.167 -115.701)" fill="#f2bd70"/>
          <path id="Trazado_693690" data-name="Trazado 693690" d="M262.553,271.607a4.291,4.291,0,0,1-2.64.923c-2.691,0-4.872-2.579-4.872-5.756s2.181-5.751,4.872-5.751a4.128,4.128,0,0,1,1.208.179Z" transform="translate(-113.048 -115.701)" fill="#f2bd70"/>
          <path id="Trazado_693691" data-name="Trazado 693691" d="M411.746,5.359a2.006,2.006,0,0,1-.69-3.026A6.4,6.4,0,0,1,416.48,0c3.627.06,6.828,2.484,6.772,5.894-.04,2.37-1.829,3.791-4.167,4.745-.828.349-.864,1.026-.877,1.824A1.354,1.354,0,0,1,416.83,13.8l-1.282-.021a1.355,1.355,0,0,1-1.332-1.377l.021-1.282A2.617,2.617,0,0,1,415.419,8.5c1.491-.918,2.871-.968,2.9-2.685A1.926,1.926,0,0,0,416.392,3.8a2.662,2.662,0,0,0-2.172,1.022,2.022,2.022,0,0,1-2.474.539m7.144,12.608a2.77,2.77,0,1,1-2.735-2.828,2.762,2.762,0,0,1,2.735,2.828" transform="translate(-182.015 0)" fill="#ff9400"/>
          <path id="Trazado_693692" data-name="Trazado 693692" d="M449.474,25.172a2.005,2.005,0,0,1,.642-3.036,6.4,6.4,0,0,1,5.9.157c3.268,1.576,5.158,5.118,3.677,8.191-1.029,2.135-3.25,2.675-5.772,2.56-.9-.03-1.214.569-1.561,1.288a1.355,1.355,0,0,1-1.808.632l-1.155-.557a1.354,1.354,0,0,1-.632-1.808l.557-1.155c.462-.959.884-1.722,2.169-1.881,1.739-.209,3.012.325,3.758-1.222a1.927,1.927,0,0,0-.9-2.637,2.662,2.662,0,0,0-2.4.017,2.021,2.021,0,0,1-2.472-.548m1.2,14.442a2.77,2.77,0,1,1-1.3-3.714,2.761,2.761,0,0,1,1.3,3.714" transform="translate(-197.431 -9.528)" fill="#ff9400"/>
          <path id="Trazado_693693" data-name="Trazado 693693" d="M368.889,21.92a2.005,2.005,0,0,1-2.39-1.979,6.4,6.4,0,0,1,2.881-5.154c2.914-2.162,6.929-2.19,8.961.55,1.412,1.9.859,4.121-.415,6.3-.444.782-.06,1.34.416,1.981a1.355,1.355,0,0,1-.281,1.9l-1.029.764a1.355,1.355,0,0,1-1.9-.281l-.764-1.029a2.618,2.618,0,0,1-.658-2.795c.623-1.637,1.687-2.516.664-3.9a1.927,1.927,0,0,0-2.755-.425,2.66,2.66,0,0,0-1.1,2.134,2.022,2.022,0,0,1-1.634,1.935m13.346,5.646a2.77,2.77,0,1,1-3.892-.576,2.761,2.761,0,0,1,3.892.576" transform="translate(-162.453 -5.859)" fill="#ff9400"/>
          <path id="Trazado_693694" data-name="Trazado 693694" d="M369.593,343.327l-.56,8.228-7.94,6.577,1.524,2.245,14.919-2.647,1.2-13.858Z" transform="translate(-160.057 -152.182)" fill="#ffa78c"/>
          <path id="Trazado_693695" data-name="Trazado 693695" d="M362.824,362.139a10.043,10.043,0,0,0,6.566,2.715,30.152,30.152,0,0,0,5.325-1.211,14.911,14.911,0,0,1-.381,4.873c-.318.964-14.517,3.008-16.683,2.927s-2.727-.321-3.208-1-.882-1.845,1.122-3.128,7.259-5.173,7.259-5.173" transform="translate(-156.935 -160.52)" fill="#00557f"/>
          <path id="Trazado_693696" data-name="Trazado 693696" d="M436.855,342.353l.56,8.228,7.94,6.577-1.524,2.246-14.919-2.647-1.2-13.858Z" transform="translate(-189.585 -151.75)" fill="#ffa78c"/>
          <path id="Trazado_693697" data-name="Trazado 693697" d="M441.179,361.165a10.043,10.043,0,0,1-6.566,2.715,30.15,30.15,0,0,1-5.325-1.211,14.91,14.91,0,0,0,.381,4.873c.318.964,14.517,3.008,16.683,2.927s2.727-.321,3.209-1,.882-1.845-1.123-3.128-7.259-5.173-7.259-5.173" transform="translate(-190.261 -160.089)" fill="#00557f"/>
          <path id="Trazado_693698" data-name="Trazado 693698" d="M376.934,183.327l-4.893,89.624h13.073l7.909-75.249,1.756.341,6.857,74.909,12.488-.553-4.269-89.071Z" transform="translate(-164.91 -81.261)" fill="#00557f"/>
          <path id="Trazado_693699" data-name="Trazado 693699" d="M411.562,133.1V98.818a77.557,77.557,0,0,0-18.523-2.452s-10.027-.527-12.554,0L378.392,133.1l-2.5,14.954s14.339,2.494,17.708,2.253l2.406-3.489,2.045,3.505s9.264-.191,15.52-2.269Z" transform="translate(-166.616 -42.611)" fill="#ffd07f"/>
          <path id="Trazado_693700" data-name="Trazado 693700" d="M414.3,96.071a15.024,15.024,0,0,0,.062,1.864l-3.97,2.263-5-3.492a14.407,14.407,0,0,0,.724-2.616c.033-.185.067-.365.1-.539.056-.326.1-.634.124-.915.085-.758.112-1.324.118-1.544.006-.067.006-.1.006-.1l.584.124,7.821,1.639a5.686,5.686,0,0,0-.331,1.067,8.287,8.287,0,0,0-.185,1.28c-.028.337-.045.663-.045.972" transform="translate(-179.69 -40.332)" fill="#ffa78c"/>
          <path id="Trazado_693701" data-name="Trazado 693701" d="M362.1,113.606s7.686-16.508,12.271-17.075c5.894-.728,1.524,14.162,1.524,14.162l-7.3,12.937Z" transform="translate(-160.504 -42.777)" fill="#ffd07f"/>
          <path id="Trazado_693702" data-name="Trazado 693702" d="M448.772,117.168s-7.686-15.841-12.271-16.407c-5.894-.728-1.524,14.161-1.524,14.161l7.3,11.87Z" transform="translate(-192.115 -44.651)" fill="#ffd07f"/>
          <path id="Trazado_693703" data-name="Trazado 693703" d="M350.658,124.083c-.845-1.538-12.733-10.818-15.613-13.054l-.788-1.088a6.523,6.523,0,0,0-2.687-2.165,34.483,34.483,0,0,0-4.571-1.2c-.882-.039,0,1.115.681,1.38s1.965.686,1.965.686l-5.253,2.345s-3,1.154-3.269,1.936.963.3,2.076-.151c.825-.334,1.714-.734,2.12-.919l.091.085c-.365.144-2.971,1.19-3.223,1.917-.271.782.963.3,2.076-.15.8-.324,1.655-.708,2.076-.9l.169.158c-.575.23-2.9,1.2-3.14,1.884-.271.782.963.3,2.075-.151.754-.305,1.554-.663,2-.864l.139.131c-.842.354-2.622,1.161-2.828,1.755-.271.782.963.3,2.075-.15.6-.245,1.235-.523,1.694-.727,0,0,1.006-.316,2.192-.807.489.747,10.923,16.6,15.857,16.6,5.053,0,5.053-4.8,4.09-6.551" transform="translate(-142.323 -47.238)" fill="#ffa78c"/>
          <path id="Trazado_693704" data-name="Trazado 693704" d="M475.592,113.528c-.271-.782-3.269-1.935-3.269-1.935l-5.253-2.346s1.283-.422,1.965-.686,1.564-1.42.682-1.38a34.688,34.688,0,0,0-4.572,1.2,6.528,6.528,0,0,0-2.687,2.166l-.551.761c-2.161,2.572-12.1,14.454-12.606,16.159-.572,1.914.439,6.606,5.378,5.542,4.14-.892,9.781-14.057,11.5-18.3,1.108.45,2.017.734,2.017.734.458.2,1.09.482,1.694.727,1.113.451,2.346.933,2.076.15-.206-.595-1.986-1.4-2.828-1.756l.139-.13c.444.2,1.243.557,2,.863,1.113.452,2.346.933,2.075.15-.237-.685-2.565-1.654-3.14-1.884l.169-.158c.421.192,1.277.575,2.076.9,1.113.451,2.346.932,2.076.15-.252-.727-2.858-1.774-3.223-1.917l.091-.085c.406.185,1.294.585,2.12.919,1.113.451,2.346.933,2.076.15" transform="translate(-199.092 -47.508)" fill="#ffa78c"/>
          <path id="Trazado_693705" data-name="Trazado 693705" d="M384.428,101.6a27.219,27.219,0,0,1-.184,13.95" transform="translate(-170.319 -45.037)" fill="none" stroke="#bf6d60" stroke-linecap="round" stroke-linejoin="round" stroke-width="1"/>
          <path id="Trazado_693706" data-name="Trazado 693706" d="M438.857,105.924s-2.169,7.8-1.085,12.925" transform="translate(-193.911 -46.951)" fill="none" stroke="#bf6d60" stroke-linecap="round" stroke-linejoin="round" stroke-width="1"/>
          <path id="Trazado_693707" data-name="Trazado 693707" d="M383.279,162.326l1.522.842-.984,1.564" transform="translate(-169.891 -71.952)" fill="none" stroke="#bf6d60" stroke-linecap="round" stroke-linejoin="round" stroke-width="1"/>
          <line id="Línea_172" data-name="Línea 172" x1="1.586" y2="1.203" transform="translate(242.667 91.577)" fill="none" stroke="#bf6d60" stroke-linecap="round" stroke-linejoin="round" stroke-width="1"/>
          <line id="Línea_173" data-name="Línea 173" x1="1.308" y2="44.344" transform="translate(229.389 59.866)" fill="none" stroke="#bf6d60" stroke-linecap="round" stroke-linejoin="round" stroke-width="1"/>
          <path id="Trazado_693708" data-name="Trazado 693708" d="M415.511,92.833a5.628,5.628,0,0,0-.331,1.067,8.349,8.349,0,0,0-.185,1.28c-.028.337-.045.663-.045.972a7.1,7.1,0,0,1-4.172-.477,16.269,16.269,0,0,1-3.919-2.044c.056-.326.1-.634.124-.915.084-.758.112-1.325.118-1.544l.59.022Z" transform="translate(-180.343 -40.412)" fill="#d88471"/>
          <path id="Trazado_693709" data-name="Trazado 693709" d="M400.32,58.858s-.906,8.486-.74,11.5,4.5,6.66,7.937,7.6c2.918.8,8.184-2.369,9.474-4.6s3.164-13.22,3.164-13.22-10.091-13.763-19.835-1.282" transform="translate(-177.107 -23.77)" fill="#ffa78c"/>
          <path id="Trazado_693710" data-name="Trazado 693710" d="M398.319,70.991s-1.5-2.42-2.819-1.99-1.461,3.392-.3,5.242,2.53,1.431,2.53,1.431Z" transform="translate(-174.826 -30.562)" fill="#ffa78c"/>
          <path id="Trazado_693711" data-name="Trazado 693711" d="M432.5,75.445s2.108-1.913,3.259-1.135.469,3.663-1.16,5.12-2.826.677-2.826.677Z" transform="translate(-191.386 -32.856)" fill="#ffa78c"/>
          <path id="Trazado_693712" data-name="Trazado 693712" d="M404.079,44.58c-4.09.842-4.03,3.248-6.256,3.79a4.274,4.274,0,0,0-3.486,3.368c-.3,1.444.178,1.444.6,1.444h.662s.052,1.406-.061,3.128.753,1.985.753,1.985a4.521,4.521,0,0,1,1.954,3.068,1.577,1.577,0,0,0,1.143-1.2,48.965,48.965,0,0,0,.361-4.993,10.229,10.229,0,0,0,4.391-1.263,3.418,3.418,0,0,0,2.226.6c1.564,0,6.135-1.5,7.4-.722a5.307,5.307,0,0,0,1.865,2.466s-.561,4.09-.491,5.113a2.9,2.9,0,0,0,.6,1.622s.972-1.963,2.6-2.123a12.527,12.527,0,0,0,1.684-4.191,1.139,1.139,0,0,0,1.083-1.323c-.12-1.263-.6-1.684-.9-2.947s-1.323-2.587-2.045-2.647c0,0,.661-1.023-2.587-3.249a14.883,14.883,0,0,0-11.49-1.925" transform="translate(-174.75 -19.594)" fill="#00557f"/>
          <path id="Trazado_693713" data-name="Trazado 693713" d="M404.961,93.94a8.89,8.89,0,0,0,.9,3.783,19.676,19.676,0,0,0,3.152,3.783,8.6,8.6,0,0,0-3.072-.691,7.2,7.2,0,0,0-2.687.691L402.3,95.36Z" transform="translate(-178.32 -41.639)" fill="#fffbdc"/>
          <path id="Trazado_693714" data-name="Trazado 693714" d="M418.505,96.074s-.945,4.662-4.137,6.377a10.33,10.33,0,0,1,3.224,0,4.372,4.372,0,0,1,1.925,1.073,41.678,41.678,0,0,0,1.611-6.262Z" transform="translate(-183.671 -42.585)" fill="#fffbdc"/>
          <path id="Trazado_693715" data-name="Trazado 693715" d="M396.532,71.639a5.886,5.886,0,0,1,1.685,3.128" transform="translate(-175.765 -31.754)" fill="none" stroke="#bf6d60" stroke-linecap="round" stroke-linejoin="round" stroke-width="1"/>
          <path id="Trazado_693716" data-name="Trazado 693716" d="M397.4,75.772s.07-1.123.657-1.323" transform="translate(-176.149 -33)" fill="none" stroke="#bf6d60" stroke-linecap="round" stroke-linejoin="round" stroke-width="1"/>
          <path id="Trazado_693717" data-name="Trazado 693717" d="M435.861,76.826a5.7,5.7,0,0,0-2.443,2.807" transform="translate(-192.115 -34.054)" fill="none" stroke="#bf6d60" stroke-linecap="round" stroke-linejoin="round" stroke-width="1"/>
          <path id="Trazado_693718" data-name="Trazado 693718" d="M435.612,80.509a1.18,1.18,0,0,0,0-1.163" transform="translate(-193.088 -35.171)" fill="none" stroke="#bf6d60" stroke-linecap="round" stroke-linejoin="round" stroke-width="1"/>
          <path id="Trazado_693719" data-name="Trazado 693719" d="M410.481,73.088c-.072.568-.393,1-.715.954s-.524-.535-.452-1.1.393-1,.715-.954.524.535.452,1.1" transform="translate(-181.425 -31.906)" fill="#00557f"/>
          <path id="Trazado_693720" data-name="Trazado 693720" d="M407.215,67.685s2.137.56,3.285-.136" transform="translate(-180.501 -29.942)" fill="none" stroke="#00557f" stroke-linecap="round" stroke-linejoin="round" stroke-width="1"/>
          <path id="Trazado_693721" data-name="Trazado 693721" d="M422.716,73.956c-.01.573.245,1.042.57,1.047s.6-.454.607-1.026-.245-1.042-.57-1.048-.6.454-.607,1.027" transform="translate(-187.371 -32.326)" fill="#00557f"/>
          <path id="Trazado_693722" data-name="Trazado 693722" d="M425.2,68.784s-2.2.246-3.231-.609" transform="translate(-187.039 -30.219)" fill="none" stroke="#00557f" stroke-linecap="round" stroke-linejoin="round" stroke-width="1"/>
          <path id="Trazado_693723" data-name="Trazado 693723" d="M415.838,73.3a9.417,9.417,0,0,1-.451,2.548.791.791,0,0,0-.784.835,1.077,1.077,0,0,0,.712,1.1" transform="translate(-183.774 -32.492)" fill="none" stroke="#bf6d60" stroke-linecap="round" stroke-linejoin="round" stroke-width="1"/>
          <path id="Trazado_693724" data-name="Trazado 693724" d="M413.893,85.744a4.213,4.213,0,0,1,2.318-.722,1.948,1.948,0,0,1,1.327.722" transform="translate(-183.461 -37.678)" fill="none" stroke="#bf6d60" stroke-linecap="round" stroke-linejoin="round" stroke-width="1"/>
          <line id="Línea_174" data-name="Línea 174" x2="1.824" y2="0.941" transform="translate(187.321 61.401)" fill="none" stroke="#bf6d60" stroke-linecap="round" stroke-linejoin="round" stroke-width="1"/>
          <line id="Línea_175" data-name="Línea 175" x2="2.687" y2="2.406" transform="translate(182.75 64.347)" fill="none" stroke="#bf6d60" stroke-linecap="round" stroke-linejoin="round" stroke-width="1"/>
          <path id="Trazado_693725" data-name="Trazado 693725" d="M338.374,119.3s2.182-.8,2.383-.842" transform="translate(-149.986 -52.508)" fill="none" stroke="#bf6d60" stroke-linecap="round" stroke-linejoin="round" stroke-width="1"/>
          <line id="Línea_176" data-name="Línea 176" x1="1.606" y1="0.533" transform="translate(265.482 66.673)" fill="none" stroke="#bf6d60" stroke-linecap="round" stroke-linejoin="round" stroke-width="1"/>
          <line id="Línea_177" data-name="Línea 177" x1="2.767" y2="2.608" transform="translate(269.813 64.598)" fill="none" stroke="#bf6d60" stroke-linecap="round" stroke-linejoin="round" stroke-width="1"/>
          <path id="Trazado_693726" data-name="Trazado 693726" d="M479.984,110.9a9.569,9.569,0,0,1-1.694,1.445" transform="translate(-212.005 -49.155)" fill="none" stroke="#bf6d60" stroke-linecap="round" stroke-linejoin="round" stroke-width="1"/>
          <line id="Línea_178" data-name="Línea 178" x2="13.1" transform="translate(207.474 188.184)" fill="none" stroke="#004560" stroke-linecap="round" stroke-linejoin="round" stroke-width="1"/>
          <line id="Línea_179" data-name="Línea 179" y1="0.614" x2="12.863" transform="translate(236.353 186.981)" fill="none" stroke="#004560" stroke-linecap="round" stroke-linejoin="round" stroke-width="1"/>
          <path id="Trazado_693727" data-name="Trazado 693727" d="M386.091,199.35s-2.418,32.483-3.134,35.892,0,4.692,0,4.692a36.174,36.174,0,0,0-.318,3.85c.083.642-1.52,28.713-1.52,28.713" transform="translate(-168.933 -88.363)" fill="none" stroke="#004560" stroke-linecap="round" stroke-linejoin="round" stroke-width="1"/>
          <path id="Trazado_693728" data-name="Trazado 693728" d="M428.946,199.35s2.727,38.5,3.048,40.423a9.279,9.279,0,0,1,0,3.308,17.7,17.7,0,0,0,.143,2.628c.179,1.122,1.943,26.788,1.943,26.788" transform="translate(-190.133 -88.363)" fill="none" stroke="#004560" stroke-linecap="round" stroke-linejoin="round" stroke-width="1"/>
          <line id="Línea_180" data-name="Línea 180" x1="3.658" y1="3.449" transform="translate(224.457 112.992)" fill="none" stroke="#004560" stroke-linecap="round" stroke-linejoin="round" stroke-width="1"/>
          <line id="Línea_181" data-name="Línea 181" y1="1.704" x2="2.927" transform="translate(229.87 115.077)" fill="none" stroke="#004560" stroke-linecap="round" stroke-linejoin="round" stroke-width="1"/>
          <path id="Trazado_693729" data-name="Trazado 693729" d="M390.18,122.853l7.539.714s-.08,8.429-4.492,8.429-3.048-9.143-3.048-9.143" transform="translate(-172.861 -54.455)" fill="#f2bd70"/>
          <line id="Línea_182" data-name="Línea 182" x1="1.744" y2="1.002" transform="translate(241.303 30.641)" fill="none" stroke="#004560" stroke-linecap="round" stroke-linejoin="round" stroke-width="1"/>
          <path id="Trazado_693730" data-name="Trazado 693730" d="M401.43,62.49s4.091.561,5.9-1.123c0,0,1.48,1.183,4.209.311a9.685,9.685,0,0,1,5.416-.431s.922,2.446,2.687,2.687,2.045-.361,2.045-.361" transform="translate(-177.936 -27.057)" fill="none" stroke="#004560" stroke-linecap="round" stroke-linejoin="round" stroke-width="1"/>
          <line id="Línea_183" data-name="Línea 183" x1="0.481" y2="0.561" transform="translate(244.749 36.115)" fill="none" stroke="#004560" stroke-linecap="round" stroke-linejoin="round" stroke-width="1"/>
          <path id="Trazado_693731" data-name="Trazado 693731" d="M398.577,60.27a3.315,3.315,0,0,1,.826-1.524" transform="translate(-176.672 -26.04)" fill="none" stroke="#004560" stroke-linecap="round" stroke-linejoin="round" stroke-width="1"/>
          <path id="Trazado_693732" data-name="Trazado 693732" d="M434,51.945a2.508,2.508,0,0,0-1.237-1.123" transform="translate(-191.825 -22.527)" fill="none" stroke="#004560" stroke-linecap="round" stroke-linejoin="round" stroke-width="1"/>
          <path id="Trazado_693733" data-name="Trazado 693733" d="M404.312,50.3a21.464,21.464,0,0,0,2.045-1.925" transform="translate(-179.214 -21.442)" fill="none" stroke="#004560" stroke-linecap="round" stroke-linejoin="round" stroke-width="1"/>
          <path id="Trazado_693734" data-name="Trazado 693734" d="M412.451,58.54a3.671,3.671,0,0,1,1.444-1.163" transform="translate(-182.821 -25.433)" fill="none" stroke="#004560" stroke-linecap="round" stroke-linejoin="round" stroke-width="1"/>
          <path id="Trazado_693735" data-name="Trazado 693735" d="M50.218,30.21a2.032,2.032,0,0,1-1.7-2.645,6.491,6.491,0,0,1,4.364-4.1c3.478-1.2,7.366.009,8.49,3.278.781,2.272-.434,4.245-2.333,5.961-.669.619-.469,1.275-.206,2.041a1.373,1.373,0,0,1-.852,1.745l-1.229.422A1.373,1.373,0,0,1,55,36.064l-.423-1.229a2.653,2.653,0,0,1,.222-2.9c1.1-1.39,2.4-1.914,1.836-3.56a1.953,1.953,0,0,0-2.532-1.255,2.7,2.7,0,0,0-1.717,1.725,2.048,2.048,0,0,1-2.172,1.367m11.163,9.548a2.807,2.807,0,1,1-3.583-1.75,2.8,2.8,0,0,1,3.583,1.75" transform="translate(-21.459 -10.203)" fill="#ff9400"/>
          <path id="Trazado_693736" data-name="Trazado 693736" d="M87.59,321.859c-.339-2.064-1.373-8.294-2.628-15.191-1.538-8.458-5.638-19.158-5.638-19.158l-9.048,7.112,10.895,29.441a9.421,9.421,0,0,1-1.4,2.916c-1.025,1.218-1.41,1.712-1.41,1.712a17.449,17.449,0,0,0,4.037.723c1.666,0,6.023-3.844,6.215-4.549a8.95,8.95,0,0,0-1.024-3.006" transform="translate(-31.15 -127.441)" fill="#d88471"/>
          <path id="Trazado_693737" data-name="Trazado 693737" d="M82.272,355.784a21.389,21.389,0,0,1-2.555,2.274c-1.922,1.538-2.627,2.563-2.627,3.2s7.5.873,9.1.436,6.279-5.178,6.792-6.2-1.9-4.375-1.9-4.375a30.474,30.474,0,0,1-1.556,2.9c-.641.961-3.018,2.021-4.449,2.5-3.255,1.088-2.8-.738-2.8-.738" transform="translate(-34.171 -155.637)" fill="#004560"/>
          <path id="Trazado_693738" data-name="Trazado 693738" d="M59.777,192.372s-.755,10.409-.587,24.512,4.554,28.455,4.554,28.455L74.971,241.9l-.839-49.528Z" transform="translate(-26.225 -85.27)" fill="#004560"/>
          <path id="Trazado_693739" data-name="Trazado 693739" d="M64.95,124.822s-5.205,9.822-6.674,13.6S60.9,147,60.9,147l3.04-2.873s1.679-16.034,1.007-19.308" transform="translate(-25.69 -55.328)" fill="#d88471"/>
          <path id="Trazado_693740" data-name="Trazado 693740" d="M65.972,119.695s8.983-4.953,16.453-6.212,9.906,3.106,9.906,3.106L87.11,145.55,89.729,157.3H60.264L63.79,140.6s-.42-14.355,2.182-20.9" transform="translate(-26.712 -50.201)" fill="#ffd07f"/>
          <path id="Trazado_693741" data-name="Trazado 693741" d="M68.07,75.875s0,9.738.439,12.482S72.072,93.42,75.2,94.4s8.564-2.8,9.529-4.971,1.655-12.882,1.655-12.882-14.2-7.672-18.312-.667" transform="translate(-30.172 -32.325)" fill="#ffa78c"/>
          <path id="Trazado_693742" data-name="Trazado 693742" d="M82.5,106.077a19.714,19.714,0,0,1-.141,6.331l8.714-3.021.206-7.971Z" transform="translate(-36.505 -44.953)" fill="#ffa78c"/>
          <path id="Trazado_693743" data-name="Trazado 693743" d="M97.475,87.921s1.549-2.993,3.472-1.98.983,4.934-.268,6.266-3.113.1-3.113.1Z" transform="translate(-43.206 -38.001)" fill="#ffa78c"/>
          <path id="Trazado_693744" data-name="Trazado 693744" d="M82.828,109.626a14.9,14.9,0,0,0,6.265-2.692s-2.746,4.94-6.218,5.544Z" transform="translate(-36.714 -47.399)" fill="#d88471"/>
          <path id="Trazado_693745" data-name="Trazado 693745" d="M71.47,68.545A14.8,14.8,0,0,0,75.713,73.4,11.722,11.722,0,0,0,81.2,76.006s-.98,2.943.666,3.953c0,0,.653-5.686,2.91-5.358s1.322,6.982-2.1,6.912a8.592,8.592,0,0,0-.445,4.712s6.928-5.049,7.857-12-3.894-9.02-3.894-9.02-1.711-3.4-7.463-4.448S70,62.991,70,62.991a5.256,5.256,0,0,0-5.386,1.96,5.658,5.658,0,0,0-1.191,5.829,5.152,5.152,0,0,0-1.157,4.482,4.637,4.637,0,0,0,3.283,2.991s.473-6.822,1.559-8.681,4.361-1.028,4.361-1.028" transform="translate(-27.53 -26.839)" fill="#00557f"/>
          <path id="Trazado_693746" data-name="Trazado 693746" d="M76.161,89.119a5.962,5.962,0,0,1-.6,3.19c-.782,1.217.891,1.78.891,1.78" transform="translate(-33.4 -39.503)" fill="none" stroke="#bf6d60" stroke-linecap="round" stroke-linejoin="round" stroke-width="1"/>
          <path id="Trazado_693747" data-name="Trazado 693747" d="M69.55,84.381a1.787,1.787,0,0,1,2.458-.357" transform="translate(-30.828 -37.077)" fill="none" stroke="#00557f" stroke-linecap="round" stroke-linejoin="round" stroke-width="1"/>
          <path id="Trazado_693748" data-name="Trazado 693748" d="M81.866,85.018a8.13,8.13,0,0,0,2.88.818" transform="translate(-36.288 -37.685)" fill="none" stroke="#00557f" stroke-linecap="round" stroke-linejoin="round" stroke-width="1"/>
          <path id="Trazado_693749" data-name="Trazado 693749" d="M101.4,88.911a3.841,3.841,0,0,0-1.906,3.124" transform="translate(-44.1 -39.41)" fill="none" stroke="#bf6d60" stroke-linecap="round" stroke-linejoin="round" stroke-width="1"/>
          <path id="Trazado_693750" data-name="Trazado 693750" d="M90.941,119.793s2.6.336,3.358,5.541-4.289,18.547-6.044,21.406c-2.938,4.785-29.045.84-29.045.84l1.427-5.792,20.986-2.6s2.686-11.669,4.281-15.95,5.037-3.442,5.037-3.442" transform="translate(-26.245 -53.069)" fill="#ffa78c"/>
          <path id="Trazado_693751" data-name="Trazado 693751" d="M101.122,92.769a1.288,1.288,0,0,0-.524-1.225" transform="translate(-44.591 -40.577)" fill="none" stroke="#bf6d60" stroke-linecap="round" stroke-linejoin="round" stroke-width="1"/>
          <path id="Trazado_693752" data-name="Trazado 693752" d="M84.073,90.15c-.027.545-.3.975-.61.959s-.538-.47-.511-1.016.3-.975.61-.959.538.47.511,1.016" transform="translate(-36.769 -39.509)" fill="#00557f"/>
          <path id="Trazado_693753" data-name="Trazado 693753" d="M72.715,89.581c-.027.546-.3.975-.61.959s-.538-.47-.511-1.016.3-.975.61-.959.538.47.511,1.016" transform="translate(-31.734 -39.257)" fill="#00557f"/>
          <path id="Trazado_693754" data-name="Trazado 693754" d="M77.051,102.394a2.827,2.827,0,0,1,2.457.414" transform="translate(-34.153 -45.336)" fill="none" stroke="#bf6d60" stroke-linecap="round" stroke-linejoin="round" stroke-width="1"/>
          <path id="Trazado_693755" data-name="Trazado 693755" d="M108.116,65.2a4.313,4.313,0,1,1-4.313-4.313,4.313,4.313,0,0,1,4.313,4.313" transform="translate(-44.1 -26.99)" fill="#00557f"/>
          <path id="Trazado_693756" data-name="Trazado 693756" d="M60.522,113.145s2.088-2.645,2.923-2.9,3.693,1.223,3.9,1.661-.3,1.235-.3,1.235-.126,1.511-.63,1.763l-.5.252s-.8,2.267-2.182,2.644c0,0-.294,2.645-1.973,3.022L58.53,118.1a17.4,17.4,0,0,1,1.992-4.953" transform="translate(-25.944 -48.856)" fill="#ffa78c"/>
          <path id="Trazado_693757" data-name="Trazado 693757" d="M66.22,109.677a9.593,9.593,0,0,1,2.182-2.035,5.262,5.262,0,0,1,3.777.5c.273.378-.273.63-1.259.546s-1.322-.12-1.322-.12l-.714,1.292Z" transform="translate(-29.352 -47.634)" fill="#ffa78c"/>
          <path id="Trazado_693758" data-name="Trazado 693758" d="M53.75,124.37s-6.114,16.706-6,21.071,2.91,5.037,4.589,4.925,3.96-2.578,4.925-5.6,0-18.468,0-18.468Z" transform="translate(-21.164 -55.128)" fill="#ffa78c"/>
          <path id="Trazado_693759" data-name="Trazado 693759" d="M100.02,156.185a12.846,12.846,0,0,1,2.351,3.358" transform="translate(-44.334 -69.23)" fill="none" stroke="#bf6d60" stroke-linecap="round" stroke-linejoin="round" stroke-width="1"/>
          <path id="Trazado_693760" data-name="Trazado 693760" d="M61.722,129.185a1.59,1.59,0,0,0,1.775-.106" transform="translate(-27.359 -57.215)" fill="none" stroke="#bf6d60" stroke-linecap="round" stroke-linejoin="round" stroke-width="1"/>
          <path id="Trazado_693761" data-name="Trazado 693761" d="M67.595,122.383a.681.681,0,0,1-.322-.853l.428-.979" transform="translate(-29.804 -53.435)" fill="none" stroke="#bf6d60" stroke-linecap="round" stroke-linejoin="round" stroke-width="1"/>
          <path id="Trazado_693762" data-name="Trazado 693762" d="M68.758,117.384s1.455.336,1.693.951" transform="translate(-30.477 -52.031)" fill="none" stroke="#bf6d60" stroke-linecap="round" stroke-linejoin="round" stroke-width="1"/>
          <path id="Trazado_693763" data-name="Trazado 693763" d="M70.065,114.265a3.109,3.109,0,0,1,2.1.672" transform="translate(-31.057 -50.647)" fill="none" stroke="#bf6d60" stroke-linecap="round" stroke-linejoin="round" stroke-width="1"/>
          <path id="Trazado_693764" data-name="Trazado 693764" d="M66.709,306.281l-11.695.6L50.976,334.2c-1.251.577-2.622,2.183-5.531,3.313-2.287.889-1.724,1.272-2.206,2.177a2.368,2.368,0,0,0,0,1.929H58.566a.988.988,0,0,0,.978-.98c.012-1.552.03-4.591.007-6.331.307-1.232,1.535-6.073,3.3-11.991,2.05-6.872,3.858-16.035,3.858-16.035" transform="translate(-19.071 -135.761)" fill="#ffa78c"/>
          <path id="Trazado_693765" data-name="Trazado 693765" d="M46.26,359.6s1.067,1.588,5.572,1.308S57.4,359.6,57.4,359.6s.57,5.339.322,5.869-5.65.226-6.394.211-10.706.463-11.945,0-1.586-1.358-1.19-1.974,6.354-3.27,8.064-4.106" transform="translate(-16.862 -159.396)" fill="#00557f"/>
          <path id="Trazado_693766" data-name="Trazado 693766" d="M76.325,118.774s-.553,1.58,4.552,1.636,12.27-5.2,12.27-5.2l-4.365-.337-9.107,2.352Z" transform="translate(-33.824 -50.916)" fill="#ffa78c"/>
          <path id="Trazado_693767" data-name="Trazado 693767" d="M102.279,94.521s.392,6.013,3.582,7.8a4.46,4.46,0,0,1,3.918,3.19c.84,3.022-2.519,5.093-2.519,5.093s-.279,3.638-4.757,4.087-6.6-5.486-6.6-8.731,3.917-10.347,6.38-11.442" transform="translate(-42.508 -41.897)" fill="#00557f"/>
          <path id="Trazado_693768" data-name="Trazado 693768" d="M90.571,192.372s.9,8.681-3.074,22.245S76.1,256.393,76.1,256.393H62.178l7.415-55.7-.9-8.319Z" transform="translate(-27.561 -85.27)" fill="#00557f"/>
          <line id="Línea_184" data-name="Línea 184" x1="5.738" y2="4.254" transform="translate(42.032 111.167)" fill="none" stroke="#004560" stroke-linecap="round" stroke-linejoin="round" stroke-width="1"/>
          <path id="Trazado_693769" data-name="Trazado 693769" d="M97.84,193.871a120.353,120.353,0,0,1-2.877,21.05c-2.4,9.349-11.027,39.675-11.027,39.675" transform="translate(-37.205 -85.935)" fill="none" stroke="#004560" stroke-linecap="round" stroke-linejoin="round" stroke-width="1"/>
          <path id="Trazado_693770" data-name="Trazado 693770" d="M62.767,302.942s11.254.3,14.247,0" transform="translate(-27.822 -134.281)" fill="none" stroke="#004560" stroke-linecap="round" stroke-linejoin="round" stroke-width="1"/>
          <path id="Trazado_693771" data-name="Trazado 693771" d="M75.352,124.37s.064,1.171,3.9,1.411a20.635,20.635,0,0,0,7.539-1.159" transform="translate(-33.4 -55.128)" fill="none" stroke="#bf6d60" stroke-linecap="round" stroke-linejoin="round" stroke-width="1"/>
          <path id="Trazado_693772" data-name="Trazado 693772" d="M78.072,71.693a13.72,13.72,0,0,0,10.2,9.253" transform="translate(-34.606 -31.778)" fill="none" stroke="#004560" stroke-linecap="round" stroke-linejoin="round" stroke-width="1"/>
          <line id="Línea_185" data-name="Línea 185" x2="1.231" y2="0.844" transform="translate(42.473 36.152)" fill="none" stroke="#004560" stroke-linecap="round" stroke-linejoin="round" stroke-width="1"/>
          <path id="Trazado_693773" data-name="Trazado 693773" d="M64.474,78.925a7.5,7.5,0,0,0,1.37.885" transform="translate(-28.579 -34.984)" fill="none" stroke="#004560" stroke-linecap="round" stroke-linejoin="round" stroke-width="1"/>
          <path id="Trazado_693774" data-name="Trazado 693774" d="M101.2,64.935s3.705,2.351,5.057,5.134" transform="translate(-44.858 -28.783)" fill="none" stroke="#004560" stroke-linecap="round" stroke-linejoin="round" stroke-width="1"/>
          <path id="Trazado_693775" data-name="Trazado 693775" d="M99.491,74.943a2.024,2.024,0,0,1,.819,1.233" transform="translate(-44.1 -33.219)" fill="none" stroke="#004560" stroke-linecap="round" stroke-linejoin="round" stroke-width="1"/>
          <line id="Línea_186" data-name="Línea 186" x2="0.929" y2="0.716" transform="translate(54.269 37.707)" fill="none" stroke="#004560" stroke-linecap="round" stroke-linejoin="round" stroke-width="1"/>
          <path id="Trazado_693776" data-name="Trazado 693776" d="M106.554,97.014a18.191,18.191,0,0,0,1.481,5.374" transform="translate(-47.231 -43.002)" fill="none" stroke="#004560" stroke-linecap="round" stroke-linejoin="round" stroke-width="1"/>
          <line id="Línea_187" data-name="Línea 187" y1="0.801" x2="0.9" transform="translate(54.695 58.585)" fill="none" stroke="#004560" stroke-linecap="round" stroke-linejoin="round" stroke-width="1"/>
          <line id="Línea_188" data-name="Línea 188" y2="1.102" transform="translate(58.379 55.841)" fill="none" stroke="#004560" stroke-linecap="round" stroke-linejoin="round" stroke-width="1"/>
          <path id="Trazado_693777" data-name="Trazado 693777" d="M113.429,117.384a5.313,5.313,0,0,1,1.6,3.358" transform="translate(-50.278 -52.031)" fill="none" stroke="#004560" stroke-linecap="round" stroke-linejoin="round" stroke-width="1"/>
          <path id="Trazado_693778" data-name="Trazado 693778" d="M110.072,124.37a2.665,2.665,0,0,1,0,1.194" transform="translate(-48.79 -55.128)" fill="none" stroke="#004560" stroke-linecap="round" stroke-linejoin="round" stroke-width="1"/>
          <path id="Trazado_693779" data-name="Trazado 693779" d="M100.6,115.474a8.1,8.1,0,0,0,.7,2.742" transform="translate(-44.591 -51.185)" fill="none" stroke="#004560" stroke-linecap="round" stroke-linejoin="round" stroke-width="1"/>
          <path id="Trazado_693780" data-name="Trazado 693780" d="M107.5,111.287a5.228,5.228,0,0,1,.954,1.1" transform="translate(-47.65 -49.329)" fill="none" stroke="#004560" stroke-linecap="round" stroke-linejoin="round" stroke-width="1"/>
          <path id="Trazado_693781" data-name="Trazado 693781" d="M84.516,70.086A3.6,3.6,0,0,0,85.521,72" transform="translate(-37.462 -31.066)" fill="none" stroke="#004560" stroke-linecap="round" stroke-linejoin="round" stroke-width="1"/>
          <path id="Trazado_693782" data-name="Trazado 693782" d="M92.964,81.228a4.947,4.947,0,0,0,1.134.926" transform="translate(-41.207 -36.005)" fill="none" stroke="#004560" stroke-linecap="round" stroke-linejoin="round" stroke-width="1"/>
          <path id="Trazado_693783" data-name="Trazado 693783" d="M62.178,190.214s12.712.08,15.93,0,10.535.136,10.535.136" transform="translate(-27.561 -84.306)" fill="none" stroke="#bf6d60" stroke-linecap="round" stroke-linejoin="round" stroke-width="1"/>
          <path id="Trazado_693784" data-name="Trazado 693784" d="M119.4,55.922a2.656,2.656,0,0,1-.043-4.109,8.48,8.48,0,0,1,7.675-1.495c4.678,1.1,8.141,5.133,7.109,9.531-.717,3.056-3.432,4.393-6.726,4.97-1.17.219-1.406,1.085-1.647,2.114a1.8,1.8,0,0,1-2.156,1.337l-1.653-.388a1.793,1.793,0,0,1-1.337-2.156l.387-1.653c.322-1.372.647-2.48,2.263-3.056,2.188-.77,3.987-.447,4.506-2.661a2.552,2.552,0,0,0-1.926-3.15,3.525,3.525,0,0,0-3.1.713,2.677,2.677,0,0,1-3.353,0m5.7,18.325a3.668,3.668,0,1,1-2.745-4.428,3.657,3.657,0,0,1,2.745,4.428" transform="translate(-52.244 -22.168)" fill="#ff9400"/>
          <path id="Trazado_693785" data-name="Trazado 693785" d="M537.953,70.948s-2.02,9.581-.842,14.97,5.052,4.715,5.641,4.546,1.093-1.745,1.093-1.745a2.7,2.7,0,0,0,2.439,1.324,8.65,8.65,0,0,0,3.456-1.169s5.31,1.253,8.422.58,3.556-2.021,3.556-2.021a3.774,3.774,0,0,0,3.941-1.01c2.1-1.852-.85-9.322-1.985-12.281s-25.721-3.194-25.721-3.194" transform="translate(-237.914 -31.448)" fill="#00557f"/>
          <path id="Trazado_693786" data-name="Trazado 693786" d="M557.367,352.252l.674,7.746,6.231-.926V352Z" transform="translate(-247.056 -156.026)" fill="#ffa78c"/>
          <path id="Trazado_693787" data-name="Trazado 693787" d="M602.887,352l1.768,6.988H610.3L609.623,352Z" transform="translate(-267.234 -156.026)" fill="#ffa78c"/>
          <path id="Trazado_693788" data-name="Trazado 693788" d="M563.727,363.039s4.968,6.315,7.325,7.746,1.263,2.779.337,3.116-3.6.119-8.672,0c-.451-.011-3.878-.345-5.666-.6a1.063,1.063,0,0,1-.9-1.224l1.279-7.921,5.39-.954Z" transform="translate(-246.512 -160.919)" fill="#00557f"/>
          <path id="Trazado_693789" data-name="Trazado 693789" d="M604.681,361.374,603.9,371a.72.72,0,0,0,.649.777c2.162.207,8.593.816,9.419.816.994,0,6.078,0,7.183-.631s.773-1.768,0-2.526a49.791,49.791,0,0,0-5.084-3.157l-5.5-5.143Z" transform="translate(-267.68 -160.076)" fill="#00557f"/>
          <path id="Trazado_693790" data-name="Trazado 693790" d="M566.614,112.472s-4.141-4.514-14.085-4.514c-7.576,0-14.084,5.363-14.084,5.363l5.431,25.388-2.619,11.752h29.466l-2.812-13.321s3.015-17.588-1.3-24.669" transform="translate(-238.67 -47.853)" fill="#ffd07f"/>
          <path id="Trazado_693791" data-name="Trazado 693791" d="M567.6,64.743s1.761,9.578,1.822,12.356-2.591,5.623-5.489,7.147-8.929-1.21-10.27-3.169-3.953-12.371-3.953-12.371S562.286,58.6,567.6,64.743" transform="translate(-243.661 -27.819)" fill="#ffa78c"/>
          <path id="Trazado_693792" data-name="Trazado 693792" d="M565.7,97.6a19.714,19.714,0,0,0,1.282,6.2l-9.116-1.4-1.642-7.8Z" transform="translate(-246.548 -41.934)" fill="#ffa78c"/>
          <path id="Trazado_693793" data-name="Trazado 693793" d="M551.4,81.53s-2.064-2.663-3.773-1.321-.076,5.03,1.4,6.114,3.081-.459,3.081-.459Z" transform="translate(-242.416 -35.386)" fill="#ffa78c"/>
          <path id="Trazado_693794" data-name="Trazado 693794" d="M568.091,100.774a14.9,14.9,0,0,1-6.648-1.516s3.593,4.363,7.116,4.33Z" transform="translate(-248.863 -43.997)" fill="#d88471"/>
          <path id="Trazado_693795" data-name="Trazado 693795" d="M558.662,58.753s.482,3.386-4.271,5.629c-3.543,1.671-4.443,3.475-4.443,3.475s.926,3.4-1.782,4.38c0,0-1.669-5.474-3.829-4.744s-.04,7.105,3.318,6.418a8.594,8.594,0,0,1,1.288,4.554s-7.726-3.715-9.894-10.383,2.2-9.574,2.2-9.574,1.07-3.649,6.537-5.723,11.643-.816,14.633,1.577a5.658,5.658,0,0,1,2.225,5.517,5.154,5.154,0,0,1,1.948,4.2,4.639,4.639,0,0,1-2.689,3.535s-1.7-6.625-3.1-8.257-2.142-.6-2.142-.6" transform="translate(-238.669 -22.933)" fill="#00557f"/>
          <path id="Trazado_693796" data-name="Trazado 693796" d="M575.217,78.616a5.963,5.963,0,0,0,1.167,3.028c.989,1.056-.554,1.912-.554,1.912" transform="translate(-254.969 -34.847)" fill="none" stroke="#bf6d60" stroke-linecap="round" stroke-linejoin="round" stroke-width="1"/>
          <path id="Trazado_693797" data-name="Trazado 693797" d="M579.628,72.835a1.787,1.787,0,0,0-2.482.093" transform="translate(-255.824 -32.07)" fill="none" stroke="#00557f" stroke-linecap="round" stroke-linejoin="round" stroke-width="1"/>
          <path id="Trazado_693798" data-name="Trazado 693798" d="M567.362,75.5a8.125,8.125,0,0,1-2.685,1.325" transform="translate(-250.297 -33.464)" fill="none" stroke="#00557f" stroke-linecap="round" stroke-linejoin="round" stroke-width="1"/>
          <path id="Trazado_693799" data-name="Trazado 693799" d="M549.5,83.125a3.84,3.84,0,0,1,2.439,2.728" transform="translate(-243.569 -36.846)" fill="none" stroke="#bf6d60" stroke-linecap="round" stroke-linejoin="round" stroke-width="1"/>
          <path id="Trazado_693800" data-name="Trazado 693800" d="M551.672,86.6a1.288,1.288,0,0,1,.295-1.3" transform="translate(-244.503 -37.808)" fill="none" stroke="#bf6d60" stroke-linecap="round" stroke-linejoin="round" stroke-width="1"/>
          <path id="Trazado_693801" data-name="Trazado 693801" d="M567.485,81.022c.125.532.471.9.773.833s.444-.56.319-1.091-.472-.9-.773-.834-.444.56-.319,1.091" transform="translate(-251.521 -35.426)" fill="#00557f"/>
          <path id="Trazado_693802" data-name="Trazado 693802" d="M578.555,78.412c.125.531.471.9.773.833s.444-.56.319-1.091-.472-.9-.773-.834-.444.56-.319,1.091" transform="translate(-256.428 -34.269)" fill="#00557f"/>
          <path id="Trazado_693803" data-name="Trazado 693803" d="M575.525,91.788a2.828,2.828,0,0,0-2.342.851" transform="translate(-254.067 -40.675)" fill="none" stroke="#bf6d60" stroke-linecap="round" stroke-linejoin="round" stroke-width="1"/>
          <path id="Trazado_693804" data-name="Trazado 693804" d="M606.523,88.274c-1.3-4.168-9.556-19.715-9.556-19.715a17.407,17.407,0,0,0-2.818-4.534,15.368,15.368,0,0,0-3.256-2.317A7.09,7.09,0,0,0,589,60.581a5.264,5.264,0,0,0-3.634,1.15c-.2.419.378.573,1.334.32s1.282-.347,1.282-.347l.735.912a5.163,5.163,0,0,0-1.507,1.373c-.13.467.5,1.165.5,1.165s.385,1.466.925,1.628l.54.161s1.177,2.094,2.607,2.227c0,0,.65,2.218,2.132,2.584.322,2.75,1.579,13.009,2.774,16.646l-5.191,1.064c.3,2.074,2.728,10.022,2.728,10.022,2.393-.344,14.123-5.338,12.29-11.212" transform="translate(-259.451 -26.828)" fill="#ffa78c"/>
          <path id="Trazado_693805" data-name="Trazado 693805" d="M579.733,244.577s-1.549-42.753-8.727-60.275H541.541s-3.021,8.242-2.365,25.418c.528,13.8,3.966,29.068,5.3,34.533-.144,5.395-.113,20.477,3.948,34.024h8.588l-.505-31.931,2.471-39.9,7.514,35.752-.034-.006s1.164,21.992,7.984,36.087h7.578Z" transform="translate(-238.952 -81.693)" fill="#00557f"/>
          <path id="Trazado_693806" data-name="Trazado 693806" d="M602.529,80.334a1.589,1.589,0,0,1-1.767.2" transform="translate(-266.292 -35.609)" fill="none" stroke="#bf6d60" stroke-linecap="round" stroke-linejoin="round" stroke-width="1"/>
          <path id="Trazado_693807" data-name="Trazado 693807" d="M546.688,185.852s-3.545,14.313-2.366,28.29a248.3,248.3,0,0,0,4.125,27.617" transform="translate(-241.168 -82.38)" fill="none" stroke="#004560" stroke-linecap="round" stroke-linejoin="round" stroke-width="1"/>
          <path id="Trazado_693808" data-name="Trazado 693808" d="M596.6,74.631a.681.681,0,0,0,.169-.9l-.591-.89" transform="translate(-264.258 -32.289)" fill="none" stroke="#bf6d60" stroke-linecap="round" stroke-linejoin="round" stroke-width="1"/>
          <path id="Trazado_693809" data-name="Trazado 693809" d="M593.754,69.844s-1.375.582-1.5,1.23" transform="translate(-262.519 -30.959)" fill="none" stroke="#bf6d60" stroke-linecap="round" stroke-linejoin="round" stroke-width="1"/>
          <path id="Trazado_693810" data-name="Trazado 693810" d="M591.571,67a3.1,3.1,0,0,0-1.951,1.025" transform="translate(-261.353 -29.698)" fill="none" stroke="#bf6d60" stroke-linecap="round" stroke-linejoin="round" stroke-width="1"/>
          <path id="Trazado_693811" data-name="Trazado 693811" d="M579.571,110.514l10.082.344,2.6,10.787s-4.119,2.408-7.609,2.324c-5.2-.125-5.073-13.455-5.073-13.455" transform="translate(-256.898 -48.986)" fill="#ffd07f"/>
          <path id="Trazado_693812" data-name="Trazado 693812" d="M539.644,168.865s.73.266,1.362.431,1.362.2,1.063-.5-1.993-1.562-3.72-1.3-2.292.423-2.292.423l-3.079.336-9.209-12.948,3.214-8.43-8.262-5.9a93.055,93.055,0,0,0-4.782,13.67c-1.727,6.908,15.056,17.713,15.056,17.713a6.541,6.541,0,0,0,3.188,1.683,13.482,13.482,0,0,0,4.166.063c.011,0,.021,0,.031,0l.152-.025c.164-.023.257-.039.257-.039v0l2.007-.331s.73.266,1.362.432,1.361.2,1.063-.5a3.634,3.634,0,0,0-3.049-1.343l1.045-.173s.731.266,1.362.432,1.362.2,1.063-.5-1.935-1.526-3.63-1.3l1.5-.248s.731.266,1.362.432,1.362.2,1.063-.5-1.993-1.562-3.72-1.3c-.617.1-1.081.176-1.428.241v-.056Z" transform="translate(-227.751 -62.49)" fill="#ffa78c"/>
          <path id="Trazado_693813" data-name="Trazado 693813" d="M530.929,117.487a29.425,29.425,0,0,0-9.442,13.493l9.89,6.315s4.315-6.168,5.707-10.756-3.217-10.1-6.154-9.052" transform="translate(-231.152 -52.019)" fill="#ffd07f"/>
          <path id="Trazado_693814" data-name="Trazado 693814" d="M548.506,109.615a18.367,18.367,0,0,0,9.673,2.13c6.037-.168,7.622-2.709,7.622-2.709l-2.726-1.006-8.8-.85Z" transform="translate(-243.129 -47.508)" fill="#ffa78c"/>
          <path id="Trazado_693815" data-name="Trazado 693815" d="M544.478,137.859a27.922,27.922,0,0,0,2.242-8.72" transform="translate(-241.343 -57.242)" fill="none" stroke="#bf6d60" stroke-linecap="round" stroke-linejoin="round" stroke-width="1"/>
          <path id="Trazado_693816" data-name="Trazado 693816" d="M588.682,118.37s2.956,6.292,2.738,8.733" transform="translate(-260.937 -52.468)" fill="none" stroke="#bf6d60" stroke-linecap="round" stroke-linejoin="round" stroke-width="1"/>
          <line id="Línea_189" data-name="Línea 189" x1="6.649" y2="1.515" transform="translate(320.248 88.317)" fill="none" stroke="#bf6d60" stroke-linecap="round" stroke-linejoin="round" stroke-width="1"/>
          <path id="Trazado_693817" data-name="Trazado 693817" d="M551.573,163.168l1.284.734-1.284.6" transform="translate(-244.488 -72.325)" fill="none" stroke="#bf6d60" stroke-linecap="round" stroke-linejoin="round" stroke-width="1"/>
          <path id="Trazado_693818" data-name="Trazado 693818" d="M549.959,113.975s6.913,2.363,11.745,1.092,5.874-2.875,5.874-2.875" transform="translate(-243.773 -49.73)" fill="none" stroke="#bf6d60" stroke-linecap="round" stroke-linejoin="round" stroke-width="1"/>
          <path id="Trazado_693819" data-name="Trazado 693819" d="M528.226,166.726a9.1,9.1,0,0,1-4.356,1.555" transform="translate(-232.208 -73.902)" fill="none" stroke="#bf6d60" stroke-linecap="round" stroke-linejoin="round" stroke-width="1"/>
          <path id="Trazado_693820" data-name="Trazado 693820" d="M605.744,110.594a30.536,30.536,0,0,0,4.935,1.612" transform="translate(-268.5 -49.021)" fill="none" stroke="#bf6d60" stroke-linecap="round" stroke-linejoin="round" stroke-width="1"/>
          <path id="Trazado_693821" data-name="Trazado 693821" d="M560.392,292.47a4.975,4.975,0,0,0,4.883,0" transform="translate(-248.397 -129.639)" fill="none" stroke="#004560" stroke-linecap="round" stroke-linejoin="round" stroke-width="1"/>
          <path id="Trazado_693822" data-name="Trazado 693822" d="M606.325,290.154s-3.2.421-4.8-1.01" transform="translate(-266.63 -128.164)" fill="none" stroke="#004560" stroke-linecap="round" stroke-linejoin="round" stroke-width="1"/>
          <line id="Línea_190" data-name="Línea 190" x2="2.814" y2="1.01" transform="translate(327.536 160.502)" fill="none" stroke="#004560" stroke-linecap="round" stroke-linejoin="round" stroke-width="1"/>
          <line id="Línea_191" data-name="Línea 191" x2="1.759" y2="1.618" transform="translate(305.52 162.559)" fill="none" stroke="#004560" stroke-linecap="round" stroke-linejoin="round" stroke-width="1"/>
          <path id="Trazado_693823" data-name="Trazado 693823" d="M574.811,214.638s.644-6.459,2.5-8.817a9.183,9.183,0,0,1,4.378-3.031" transform="translate(-254.789 -89.888)" fill="none" stroke="#004560" stroke-linecap="round" stroke-linejoin="round" stroke-width="1"/>
          <path id="Trazado_693824" data-name="Trazado 693824" d="M556.357,378.074s3.467.459,8.266.753a44.684,44.684,0,0,0,7.241,0" transform="translate(-246.609 -167.584)" fill="none" stroke="#004560" stroke-linecap="round" stroke-linejoin="round" stroke-width="1"/>
          <path id="Trazado_693825" data-name="Trazado 693825" d="M604.4,377.688s8.209.725,11.325.657a28.973,28.973,0,0,0,5.557-.657" transform="translate(-267.904 -167.413)" fill="none" stroke="#004560" stroke-linecap="round" stroke-linejoin="round" stroke-width="1"/>
          <path id="Trazado_693826" data-name="Trazado 693826" d="M556.5,329.373s-5.978-21.039-4.715-29.8" transform="translate(-244.504 -132.79)" fill="none" stroke="#004560" stroke-linecap="round" stroke-linejoin="round" stroke-width="1"/>
          <path id="Trazado_693827" data-name="Trazado 693827" d="M577.639,213.431s7.2,36.848,7.346,40.553" transform="translate(-256.042 -94.605)" fill="none" stroke="#004560" stroke-linecap="round" stroke-linejoin="round" stroke-width="1"/>
          <path id="Trazado_693828" data-name="Trazado 693828" d="M593.36,293.613s.842,23.339,6.946,33.116" transform="translate(-263.01 -130.146)" fill="none" stroke="#004560" stroke-linecap="round" stroke-linejoin="round" stroke-width="1"/>
          <path id="Trazado_693829" data-name="Trazado 693829" d="M543.485,63.826a25.992,25.992,0,0,1,4.192,0" transform="translate(-240.903 -28.251)" fill="none" stroke="#004560" stroke-linecap="round" stroke-linejoin="round" stroke-width="1"/>
          <path id="Trazado_693830" data-name="Trazado 693830" d="M566.066,62.07a4.948,4.948,0,0,1-.926,4.943c-2.02,2.425-6.315,2.235-7.451,5.424,0,0,.69,4.1-1.782,4.38" transform="translate(-246.409 -27.513)" fill="none" stroke="#004560" stroke-linecap="round" stroke-linejoin="round" stroke-width="1"/>
          <path id="Trazado_693831" data-name="Trazado 693831" d="M557.216,76.722a8.1,8.1,0,0,1,.59-2.932" transform="translate(-246.989 -32.708)" fill="none" stroke="#004560" stroke-linecap="round" stroke-linejoin="round" stroke-width="1"/>
          <line id="Línea_192" data-name="Línea 192" x2="1.31" y2="0.579" transform="translate(324.666 36.367)" fill="none" stroke="#004560" stroke-linecap="round" stroke-linejoin="round" stroke-width="1"/>
          <path id="Trazado_693832" data-name="Trazado 693832" d="M540.652,84.036a16.2,16.2,0,0,0,0,3.389" transform="translate(-239.605 -37.249)" fill="none" stroke="#004560" stroke-linecap="round" stroke-linejoin="round" stroke-width="1"/>
          <path id="Trazado_693833" data-name="Trazado 693833" d="M544.845,95.515a11.013,11.013,0,0,0,0,2.083" transform="translate(-241.481 -42.338)" fill="none" stroke="#004560" stroke-linecap="round" stroke-linejoin="round" stroke-width="1"/>
          <line id="Línea_193" data-name="Línea 193" y2="1.228" transform="translate(307.464 53.831)" fill="none" stroke="#004560" stroke-linecap="round" stroke-linejoin="round" stroke-width="1"/>
          <path id="Trazado_693834" data-name="Trazado 693834" d="M575.217,55.643a7.714,7.714,0,0,1,2.86,1.642" transform="translate(-254.969 -24.664)" fill="none" stroke="#004560" stroke-linecap="round" stroke-linejoin="round" stroke-width="1"/>
          <line id="Línea_194" data-name="Línea 194" x2="0.119" y2="1.298" transform="translate(325.76 52.533)" fill="none" stroke="#004560" stroke-linecap="round" stroke-linejoin="round" stroke-width="1"/>
          <path id="Trazado_693835" data-name="Trazado 693835" d="M544.615,69.844a5.893,5.893,0,0,0-.294,2.576" transform="translate(-241.251 -30.959)" fill="none" stroke="#004560" stroke-linecap="round" stroke-linejoin="round" stroke-width="1"/>
          <path id="Trazado_693836" data-name="Trazado 693836" d="M564.263,61.39a3.873,3.873,0,0,1-.519,1.726" transform="translate(-249.883 -27.212)" fill="none" stroke="#004560" stroke-linecap="round" stroke-linejoin="round" stroke-width="1"/>
          <path id="Trazado_693837" data-name="Trazado 693837" d="M550.335,57.5a8.378,8.378,0,0,1,3.293-1.852" transform="translate(-243.939 -24.664)" fill="none" stroke="#004560" stroke-linecap="round" stroke-linejoin="round" stroke-width="1"/>
          <path id="Trazado_693838" data-name="Trazado 693838" d="M612.361,6.417H590.006a4.677,4.677,0,0,0-4.677,4.677V28.262a4.677,4.677,0,0,0,4.677,4.677h7.366l-.755,3.249a1.056,1.056,0,0,0,1.606,1.122l6.681-4.37h7.457a4.677,4.677,0,0,0,4.677-4.677V11.094a4.677,4.677,0,0,0-4.677-4.677" transform="translate(-259.451 -2.844)" fill="#ff9400"/>
          <path id="Trazado_693839" data-name="Trazado 693839" d="M603.938,16.416a2.033,2.033,0,0,1-.72-3.062,6.489,6.489,0,0,1,5.481-2.4c3.678.035,6.94,2.47,6.906,5.927-.023,2.4-1.828,3.856-4.191,4.839-.837.36-.869,1.046-.876,1.855a1.373,1.373,0,0,1-1.386,1.36l-1.3-.012a1.374,1.374,0,0,1-1.359-1.387l.012-1.3a2.652,2.652,0,0,1,1.179-2.661c1.5-.941,2.9-1,2.92-2.743a1.953,1.953,0,0,0-1.966-2.029,2.7,2.7,0,0,0-2.195,1.052,2.05,2.05,0,0,1-2.5.563m7.331,12.729a2.807,2.807,0,1,1-2.792-2.847,2.8,2.8,0,0,1,2.792,2.847" transform="translate(-267.193 -4.854)" fill="#fff"/>
        </g>
      </g>
    </g>
    <path id="Trazado_701938" data-name="Trazado 701938" d="M23.5,0h116a23.5,23.5,0,0,1,0,47H23.5a23.5,23.5,0,0,1,0-47Z" transform="translate(-8881 -6249)" fill="#112e4c"/>
    <path id="Trazado_701939" data-name="Trazado 701939" d="M13.067,10.654a5.151,5.151,0,0,1-.257,1.786,3.47,3.47,0,0,1-.917,1.3,9.675,9.675,0,0,0-.9.914,2.384,2.384,0,0,0-.357.607,1.833,1.833,0,0,0-.12.674A1.142,1.142,0,0,0,11.8,17.237a1.381,1.381,0,0,0,1.017-.374,1.464,1.464,0,0,0,.394-1.048h2.4A3.2,3.2,0,0,1,14.586,18.3a3.987,3.987,0,0,1-2.748.893,4.081,4.081,0,0,1-2.748-.843,3,3,0,0,1-.979-2.405,3.7,3.7,0,0,1,1.27-2.592l.805-.773a2.129,2.129,0,0,0,.577-.781,3.424,3.424,0,0,0,.178-1.147Zm.3-2.536a1.189,1.189,0,0,1-.382.91,1.481,1.481,0,0,1-1.926,0,1.189,1.189,0,0,1-.382-.91,1.208,1.208,0,0,1,.369-.91,1.347,1.347,0,0,1,.975-.356A1.347,1.347,0,0,1,13,7.208,1.208,1.208,0,0,1,13.366,8.118ZM23.9,13.51H19.533L18.7,16H16.055l4.5-12.086h2.308L27.386,16H24.738Zm-3.694-2.017h3.021L21.708,6.969Zm12.011-.066a5.369,5.369,0,0,1,.942-3.345,3.08,3.08,0,0,1,2.586-1.229,2.758,2.758,0,0,1,2.3,1.1l.158-.938H40.31V19.453H37.9V15.228a2.765,2.765,0,0,1-2.175.938,3.057,3.057,0,0,1-2.557-1.245A5.632,5.632,0,0,1,32.217,11.426Zm2.4.17a3.522,3.522,0,0,0,.452,1.962,1.448,1.448,0,0,0,1.274.673,1.613,1.613,0,0,0,1.561-.881V9.635a1.6,1.6,0,0,0-1.544-.848,1.466,1.466,0,0,0-1.287.673A3.889,3.889,0,0,0,34.616,11.6Zm12.958,3.49a3.008,3.008,0,0,1-2.457,1.079,2.837,2.837,0,0,1-2.2-.83,3.543,3.543,0,0,1-.776-2.432V7.019h2.4v5.809q0,1.4,1.278,1.4a1.732,1.732,0,0,0,1.677-.848V7.019H49.9V16H47.64ZM54.239,16H51.832V7.019h2.407ZM51.69,4.694a1.181,1.181,0,0,1,.361-.888,1.556,1.556,0,0,1,1.963,0,1.175,1.175,0,0,1,.365.888,1.178,1.178,0,0,1-.369.9,1.539,1.539,0,0,1-1.951,0A1.178,1.178,0,0,1,51.69,4.694Zm8.658,11.472a4.409,4.409,0,0,1-3.217-1.212,4.308,4.308,0,0,1-1.241-3.229v-.232a5.426,5.426,0,0,1,.523-2.42A3.838,3.838,0,0,1,57.9,7.429a4.159,4.159,0,0,1,2.187-.577,3.727,3.727,0,0,1,2.9,1.162,4.722,4.722,0,0,1,1.058,3.3v.979H58.323a2.229,2.229,0,0,0,.7,1.411,2.12,2.12,0,0,0,1.482.531,2.589,2.589,0,0,0,2.167-1l1.179,1.32a3.6,3.6,0,0,1-1.461,1.191A4.793,4.793,0,0,1,60.348,16.166Zm-.274-7.379a1.5,1.5,0,0,0-1.158.484,2.5,2.5,0,0,0-.569,1.384h3.337v-.192a1.786,1.786,0,0,0-.432-1.238A1.547,1.547,0,0,0,60.074,8.787ZM60.29,3.25H62.9l-2.3,2.573H58.655Zm7.321,3.769.075,1.038a3.136,3.136,0,0,1,2.582-1.2,2.606,2.606,0,0,1,2.125.838,3.912,3.912,0,0,1,.714,2.507V16h-2.4V10.243a1.562,1.562,0,0,0-.332-1.111,1.484,1.484,0,0,0-1.1-.345,1.65,1.65,0,0,0-1.519.865V16h-2.4V7.019ZM76.883,12.3a4.994,4.994,0,0,1,.282-1.853A3.8,3.8,0,0,1,78.2,9.086,5.284,5.284,0,0,0,79.2,8a1.709,1.709,0,0,0,.249-.886q0-1.405-1.295-1.405a1.312,1.312,0,0,0-.984.379,1.487,1.487,0,0,0-.386,1.044H74.376A3.2,3.2,0,0,1,75.4,4.645,4.735,4.735,0,0,1,80.884,4.6a3.03,3.03,0,0,1,.971,2.405,2.928,2.928,0,0,1-.315,1.334,5.494,5.494,0,0,1-1.1,1.392l-.672.64a2.279,2.279,0,0,0-.722,1.421l-.033.507Zm-.241,2.544a1.208,1.208,0,0,1,.378-.914,1.479,1.479,0,0,1,1.934,0,1.29,1.29,0,0,1,.008,1.816,1.515,1.515,0,0,1-1.951,0A1.2,1.2,0,0,1,76.643,14.842Z" transform="translate(-8864 -6235)" fill="#fff"/>
    <path id="Trazado_701940" data-name="Trazado 701940" d="M23.5,0h116a23.5,23.5,0,0,1,0,47H23.5a23.5,23.5,0,0,1,0-47Z" transform="translate(-8789 -6322)" fill="#112e4c"/>
    <path id="Trazado_701941" data-name="Trazado 701941" d="M12.465,10.654a5.151,5.151,0,0,1-.257,1.786,3.47,3.47,0,0,1-.917,1.3,9.675,9.675,0,0,0-.9.914,2.384,2.384,0,0,0-.357.607,1.833,1.833,0,0,0-.12.674A1.142,1.142,0,0,0,11.2,17.237a1.381,1.381,0,0,0,1.017-.374,1.464,1.464,0,0,0,.394-1.048h2.4A3.2,3.2,0,0,1,13.984,18.3a3.987,3.987,0,0,1-2.748.893,4.081,4.081,0,0,1-2.748-.843,3,3,0,0,1-.979-2.405,3.7,3.7,0,0,1,1.27-2.592l.805-.773a2.129,2.129,0,0,0,.577-.781,3.424,3.424,0,0,0,.178-1.147Zm.3-2.536a1.189,1.189,0,0,1-.382.91,1.481,1.481,0,0,1-1.926,0,1.189,1.189,0,0,1-.382-.91,1.208,1.208,0,0,1,.369-.91,1.347,1.347,0,0,1,.975-.356,1.347,1.347,0,0,1,.975.356A1.208,1.208,0,0,1,12.764,8.118Zm6.2,3.623V16h-2.49V3.914h4.715a5.455,5.455,0,0,1,2.395.5,3.67,3.67,0,0,1,1.59,1.415,3.946,3.946,0,0,1,.556,2.088,3.47,3.47,0,0,1-1.216,2.8,5.065,5.065,0,0,1-3.366,1.025Zm0-2.017h2.225A2.187,2.187,0,0,0,22.7,9.26a1.691,1.691,0,0,0,.519-1.328A1.994,1.994,0,0,0,22.692,6.5a1.953,1.953,0,0,0-1.444-.564H18.965Zm7.836,1.7a5.327,5.327,0,0,1,.515-2.382A3.768,3.768,0,0,1,28.8,7.425a4.323,4.323,0,0,1,2.245-.573A4.09,4.09,0,0,1,34.01,7.965a4.464,4.464,0,0,1,1.282,3.021l.017.614a4.694,4.694,0,0,1-1.154,3.316,4.011,4.011,0,0,1-3.1,1.249,4.031,4.031,0,0,1-3.1-1.245A4.777,4.777,0,0,1,26.8,11.534Zm2.4.17a3.357,3.357,0,0,0,.481,1.958,1.73,1.73,0,0,0,2.739.008,3.674,3.674,0,0,0,.49-2.141,3.324,3.324,0,0,0-.49-1.945,1.592,1.592,0,0,0-1.378-.69,1.566,1.566,0,0,0-1.361.686A3.735,3.735,0,0,0,29.2,11.6ZM41.833,9.268A6.517,6.517,0,0,0,40.97,9.2a1.757,1.757,0,0,0-1.785.921V16h-2.4V7.019h2.266l.066,1.071a2.223,2.223,0,0,1,2-1.237,2.514,2.514,0,0,1,.747.108Zm5.014,2.158a5.369,5.369,0,0,1,.942-3.345,3.08,3.08,0,0,1,2.586-1.229,2.758,2.758,0,0,1,2.3,1.1l.158-.938H54.94V19.453H52.533V15.228a2.765,2.765,0,0,1-2.175.938A3.057,3.057,0,0,1,47.8,14.921,5.632,5.632,0,0,1,46.847,11.426Zm2.4.17a3.522,3.522,0,0,0,.452,1.962,1.448,1.448,0,0,0,1.274.673,1.613,1.613,0,0,0,1.561-.881V9.635a1.6,1.6,0,0,0-1.544-.848A1.466,1.466,0,0,0,49.7,9.46,3.889,3.889,0,0,0,49.246,11.6ZM62.2,15.087a3.008,3.008,0,0,1-2.457,1.079,2.837,2.837,0,0,1-2.2-.83,3.543,3.543,0,0,1-.776-2.432V7.019h2.4v5.809q0,1.4,1.278,1.4a1.732,1.732,0,0,0,1.677-.848V7.019h2.407V16H62.27Zm8.268,1.079a4.409,4.409,0,0,1-3.217-1.212,4.308,4.308,0,0,1-1.241-3.229v-.232a5.426,5.426,0,0,1,.523-2.42,3.838,3.838,0,0,1,1.482-1.644,4.159,4.159,0,0,1,2.187-.577,3.727,3.727,0,0,1,2.9,1.162,4.722,4.722,0,0,1,1.058,3.3v.979H68.446a2.229,2.229,0,0,0,.7,1.411,2.12,2.12,0,0,0,1.482.531,2.589,2.589,0,0,0,2.167-1l1.179,1.32a3.6,3.6,0,0,1-1.461,1.191A4.793,4.793,0,0,1,70.471,16.166ZM70.2,8.787a1.5,1.5,0,0,0-1.158.484,2.5,2.5,0,0,0-.569,1.384h3.337v-.192a1.786,1.786,0,0,0-.432-1.238A1.547,1.547,0,0,0,70.2,8.787Zm.216-5.537h2.615l-2.3,2.573H68.778ZM77.485,12.3a4.994,4.994,0,0,1,.282-1.853A3.8,3.8,0,0,1,78.8,9.086,5.284,5.284,0,0,0,79.8,8a1.709,1.709,0,0,0,.249-.886q0-1.405-1.295-1.405a1.312,1.312,0,0,0-.984.379,1.487,1.487,0,0,0-.386,1.044H74.978A3.2,3.2,0,0,1,76,4.645,4.735,4.735,0,0,1,81.486,4.6a3.03,3.03,0,0,1,.971,2.405,2.928,2.928,0,0,1-.315,1.334,5.494,5.494,0,0,1-1.1,1.392l-.672.64a2.279,2.279,0,0,0-.722,1.421l-.033.507Zm-.241,2.544a1.208,1.208,0,0,1,.378-.914,1.479,1.479,0,0,1,1.934,0,1.29,1.29,0,0,1,.008,1.816,1.515,1.515,0,0,1-1.951,0A1.2,1.2,0,0,1,77.244,14.842Z" transform="translate(-8772 -6308)" fill="#fff"/>
    <path id="Trazado_701942" data-name="Trazado 701942" d="M23.5,0h116a23.5,23.5,0,0,1,0,47H23.5a23.5,23.5,0,0,1,0-47Z" transform="translate(-8974 -6322)" fill="#112e4c"/>
    <path id="Trazado_701943" data-name="Trazado 701943" d="M26.85,10.654a5.151,5.151,0,0,1-.257,1.786,3.47,3.47,0,0,1-.917,1.3,9.675,9.675,0,0,0-.9.914,2.384,2.384,0,0,0-.357.607,1.833,1.833,0,0,0-.12.674,1.142,1.142,0,0,0,1.278,1.305,1.381,1.381,0,0,0,1.017-.374,1.464,1.464,0,0,0,.394-1.048h2.4A3.2,3.2,0,0,1,28.369,18.3a3.987,3.987,0,0,1-2.748.893,4.081,4.081,0,0,1-2.748-.843,3,3,0,0,1-.979-2.405,3.7,3.7,0,0,1,1.27-2.592l.805-.773a2.129,2.129,0,0,0,.577-.781,3.424,3.424,0,0,0,.178-1.147Zm.3-2.536a1.189,1.189,0,0,1-.382.91,1.481,1.481,0,0,1-1.926,0,1.189,1.189,0,0,1-.382-.91,1.208,1.208,0,0,1,.369-.91,1.515,1.515,0,0,1,1.951,0A1.208,1.208,0,0,1,27.149,8.118Zm13.622,2.113a7.282,7.282,0,0,1-.548,2.943,5.052,5.052,0,0,1-1.519,2l2.009,1.577-1.585,1.4-2.573-2.067a5.447,5.447,0,0,1-.913.075,5.028,5.028,0,0,1-2.681-.722,4.8,4.8,0,0,1-1.826-2.063,7.087,7.087,0,0,1-.656-3.084V9.7a7.258,7.258,0,0,1,.643-3.142,4.79,4.79,0,0,1,1.818-2.083,5.327,5.327,0,0,1,5.371,0,4.79,4.79,0,0,1,1.818,2.083,7.237,7.237,0,0,1,.643,3.134Zm-2.523-.548a5.086,5.086,0,0,0-.681-2.889,2.4,2.4,0,0,0-3.876-.012A5.028,5.028,0,0,0,33,9.642v.589a5.15,5.15,0,0,0,.681,2.872,2.383,2.383,0,0,0,3.885.037,5.12,5.12,0,0,0,.681-2.868Zm9.571,5.4a3.008,3.008,0,0,1-2.457,1.079,2.837,2.837,0,0,1-2.2-.83,3.543,3.543,0,0,1-.776-2.432V7.019h2.4v5.809q0,1.4,1.278,1.4a1.732,1.732,0,0,0,1.677-.848V7.019h2.407V16H47.885Zm8.268,1.079a4.409,4.409,0,0,1-3.217-1.212,4.308,4.308,0,0,1-1.241-3.229v-.232a5.426,5.426,0,0,1,.523-2.42,3.838,3.838,0,0,1,1.482-1.644,4.159,4.159,0,0,1,2.187-.577,3.727,3.727,0,0,1,2.9,1.162,4.722,4.722,0,0,1,1.058,3.3v.979H54.06a2.229,2.229,0,0,0,.7,1.411,2.12,2.12,0,0,0,1.482.531,2.589,2.589,0,0,0,2.167-1l1.179,1.32a3.6,3.6,0,0,1-1.461,1.191A4.793,4.793,0,0,1,56.086,16.166Zm-.274-7.379a1.5,1.5,0,0,0-1.158.484,2.5,2.5,0,0,0-.569,1.384h3.337v-.192a1.786,1.786,0,0,0-.432-1.238A1.547,1.547,0,0,0,55.812,8.787Zm.216-5.537h2.615l-2.3,2.573H54.392ZM63.1,12.3a4.994,4.994,0,0,1,.282-1.853,3.8,3.8,0,0,1,1.033-1.358,5.284,5.284,0,0,0,1-1.089,1.709,1.709,0,0,0,.249-.886q0-1.405-1.295-1.405a1.312,1.312,0,0,0-.984.379A1.487,1.487,0,0,0,63,7.13H60.593a3.2,3.2,0,0,1,1.025-2.484A4.735,4.735,0,0,1,67.1,4.6a3.03,3.03,0,0,1,.971,2.405,2.928,2.928,0,0,1-.315,1.334,5.494,5.494,0,0,1-1.1,1.392l-.672.64a2.279,2.279,0,0,0-.722,1.421l-.033.507Zm-.241,2.544a1.208,1.208,0,0,1,.378-.914,1.479,1.479,0,0,1,1.934,0,1.29,1.29,0,0,1,.008,1.816,1.515,1.515,0,0,1-1.951,0A1.2,1.2,0,0,1,62.859,14.842Z" transform="translate(-8918 -6308)" fill="#fff"/>
  </g>
</svg>
