<svg xmlns="http://www.w3.org/2000/svg" xmlns:xlink="http://www.w3.org/1999/xlink" width="882" height="477.578" viewBox="0 0 882 477.578">
  <defs>
    <clipPath id="clip-path">
      <rect id="Rectángulo_344321" data-name="Rectángulo 344321" width="819.176" height="477.578" fill="none"/>
    </clipPath>
  </defs>
  <g id="Grupo_1005938" data-name="Grupo 1005938" transform="translate(-350 -5130)">
    <g id="Grupo_896227" data-name="Grupo 896227" transform="translate(390.824 5130)">
      <g id="Grupo_896226" data-name="Grupo 896226" clip-path="url(#clip-path)">
        <path id="Trazado_693634" data-name="Trazado 693634" d="M48.353,156.2c37.18-46.321,84.153-68.884,184.851-73.653s124.874,71.8,288.15,56.056,248.955-11.1,279.815,33.126,44.823,189.7-197.219,169.715-319.284-57.226-429.611-37.055S19.016,317.865,8.156,285.528,30.782,178.1,48.353,156.2" transform="translate(1.247 17.024)" fill="#bfe5f9"/>
        <path id="Trazado_693635" data-name="Trazado 693635" d="M37.756,355.057s164.432-1.746,373.819,0,358.074,1.82,382.616,15.747,13.948,38.753-115.731,32.546-202.94-26.032-280.352-14.568S254.6,386.943,192.374,387.39s-151.73,7.9-180.6-5.911,1.436-26.21,25.984-26.422" transform="translate(0 73.25)" fill="#4db1f0"/>
        <path id="Trazado_693636" data-name="Trazado 693636" d="M328.586,32.021H268.832a10.291,10.291,0,0,0-10.291,10.29V83.684a10.291,10.291,0,0,0,10.291,10.291h7.2c-1.9,5.4-4.081,12.754-2.226,13.582,2.1.936,11.733-8.164,17.2-13.582h37.578a10.291,10.291,0,0,0,10.291-10.291V42.311a10.291,10.291,0,0,0-10.291-10.29" transform="translate(53.455 6.621)" fill="#ff9400"/>
        <path id="Trazado_693637" data-name="Trazado 693637" d="M280.92,49.469a4.777,4.777,0,0,1-1.477-7.245c2.278-2.741,6.285-5.526,13.051-5.257,8.64.344,16.133,6.3,15.81,14.416-.224,5.646-4.568,8.934-10.191,11.074-1.992.786-2.114,2.4-2.19,4.3a3.229,3.229,0,0,1-3.354,3.1l-3.053-.123a3.226,3.226,0,0,1-3.1-3.352l.122-3.053c.1-2.535.3-4.6,2.957-6.171,3.6-2.1,6.893-2.148,7.056-6.237a4.59,4.59,0,0,0-4.477-4.908,6.34,6.34,0,0,0-5.233,2.316,4.816,4.816,0,0,1-5.924,1.145M297.245,79.9a6.6,6.6,0,1,1-6.36-6.887,6.581,6.581,0,0,1,6.36,6.887" transform="translate(57.554 7.639)" fill="#fff"/>
        <path id="Trazado_693638" data-name="Trazado 693638" d="M259.431,346.133,264,364.176l6.1,1.36,10.669-1.36-3.914-18.043Z" transform="translate(53.639 71.566)" fill="#ffa78c"/>
        <path id="Trazado_693639" data-name="Trazado 693639" d="M262.3,360.655s.879,11.949,1.483,13.813,1.78,1.671,1.78,1.671a107.968,107.968,0,0,0,11.12,2.678c4.472.7,9.911,1.863,15.229,1.63s7.373-.932,7.373-2.678-.6-5.123-7.131-9.081-10.274-6.52-10.274-6.52a7.284,7.284,0,0,0-3.506-2.911c-2.3-.815-7.654,2.445-9.024,2.795s-5.48-2.678-7.051-1.4" transform="translate(54.232 74.252)" fill="#00557f"/>
        <path id="Trazado_693640" data-name="Trazado 693640" d="M207.4,348v14.03l9.461,2.684,6.128-2.684V348Z" transform="translate(42.882 71.951)" fill="#ffa78c"/>
        <path id="Trazado_693641" data-name="Trazado 693641" d="M209.214,360.181a83.387,83.387,0,0,1-11.258,8.66c-6.928,4.5-7.1,5.543-6.755,8.315s17.147,1.905,23.556.866,9.007-1.559,9.007-1.559l4.33-1.385-1.733-15.935a34.786,34.786,0,0,1-5.737,1.516c-1.753.129-5.715-2.988-8.313-3.637s-3.14,2.294-3.1,3.16" transform="translate(39.511 73.798)" fill="#00557f"/>
        <path id="Trazado_693642" data-name="Trazado 693642" d="M324.3,104.3c-1.329.229-3.267,2.748-4.3,4.215l-.622-.1c1.518-2.333,5.062-6.189,2.659-5.614-2.155.516-4.209,3.891-4.966,5.263l-.775-.118c1.479-2.508,5.526-7.029,2.929-6.38-2.4.6-4.687,4.764-5.326,6.014l-.443-.068c1.4-2.459,3.376-5.459,1.419-4.773-2.175.761-3.936,4.779-4.445,6.045-1.157,1.2-2.491,2.658-3.358,3.62-.754-2.986-2.69-6.655-3.626-6.42-1.039.259.129,3.766.325,6.17a15.279,15.279,0,0,0,1.339,4.519c-3.019,6.039-12.245,20.52-17.064,31.174l-13.244-13.805-19.4,11.432s21.529,28.233,30.048,26.934c18.953-2.893,28.472-43.25,30.5-52.979l6-10.2s4.231-5.255,2.347-4.931" transform="translate(52.809 20.987)" fill="#ffa78c"/>
        <path id="Trazado_693643" data-name="Trazado 693643" d="M237.374,110.748l-7.19,7.008-12.561-4.668a31.949,31.949,0,0,0,.1-5.965c-.086-1.177-.206-2.268-.34-3.214-.3-2.146-.654-3.564-.654-3.564l18.853-.9a12.564,12.564,0,0,0-.121,2.462,19.884,19.884,0,0,0,.315,2.825,36.224,36.224,0,0,0,1.6,6.013" transform="translate(44.81 20.562)" fill="#ffa78c"/>
        <path id="Trazado_693644" data-name="Trazado 693644" d="M235.661,104.312c-2.121,1.867-5.9,4.886-8.463,5.056s-7.032-1.564-9.59-2.668c-.084-1.175-.206-2.268-.339-3.212a16.269,16.269,0,0,0,9.663,1.552,22.827,22.827,0,0,0,8.415-3.553,19.844,19.844,0,0,0,.315,2.825" transform="translate(44.922 20.983)" fill="#d88471"/>
        <path id="Trazado_693645" data-name="Trazado 693645" d="M203.344,77.245s2.763,18.547,4.782,24.87,13.259,11.674,21.08,11.782c6.648.092,16.092-9.56,17.6-15.025s-.577-29.86-.577-29.86-29.062-23.691-42.887,8.234" transform="translate(42.043 12.52)" fill="#ffa78c"/>
        <path id="Trazado_693646" data-name="Trazado 693646" d="M217.592,83.541c.162,1.249-.28,2.335-.988,2.428s-1.413-.846-1.575-2.095.28-2.335.988-2.426,1.413.845,1.575,2.093" transform="translate(44.452 16.839)" fill="#00557f"/>
        <path id="Trazado_693647" data-name="Trazado 693647" d="M230.936,81.747c.116,1.253-.366,2.323-1.076,2.389s-1.382-.9-1.5-2.149.366-2.323,1.075-2.389,1.383.9,1.5,2.149" transform="translate(47.212 16.457)" fill="#00557f"/>
        <path id="Trazado_693648" data-name="Trazado 693648" d="M207.73,84.188s-4.524-4.319-7.095-2.673-1.234,8.02,2.261,11.31,6.17,1.646,6.17,1.646Z" transform="translate(41.206 16.777)" fill="#ffa78c"/>
        <path id="Trazado_693649" data-name="Trazado 693649" d="M238.325,80.149s3.426-5.232,6.3-4.213,3.022,7.531.363,11.528-5.636,3-5.636,3Z" transform="translate(49.276 15.673)" fill="#ffa78c"/>
        <path id="Trazado_693650" data-name="Trazado 693650" d="M205.781,88.645l1.749,6.46s4.151-1.511,2.576-15.538c0,0,8.445-1.288,11.021-5.3,0,0,7.014,1.7,11.165.994a17.717,17.717,0,0,0,7.586-3.714s.286,10.242,4.723,11.777c0,0-.033,6.477,2.346,7.155,0,0,.484-8.993,4.15-10.026,0,0,2.665-8.476,1.805-11.2a5.476,5.476,0,0,0-3.578-3.434s-1.137-14.668-23.9-11.451c-21.947,3.1-25,14.743-25.669,16.746-.951,2.854.478,5.681.764,9.21a22.351,22.351,0,0,0,1.574,6.451Z" transform="translate(41.234 11.147)" fill="#00557f"/>
        <path id="Trazado_693651" data-name="Trazado 693651" d="M293.569,381.472H268.8l-29.62-152.245-3.116.181-6.135,152.064H204.455l-.714-82.482-.194-22.346-.74-84.664h64.7l11.519,83.707,3.1,22.551Z" transform="translate(41.932 39.694)" fill="#ffd07f"/>
        <path id="Trazado_693652" data-name="Trazado 693652" d="M218.132,225.747c2.6.649,3.378-.584,2.792-1.3s-5.658-3.2-6.894-4.6l-4.12-4.686a37.352,37.352,0,0,0,5.033,0c2.527-.2,4.358-1.755.655-2.143-2.7-.285-6.629-.842-8.562-1.125l-.667-.759L194.2,184.805l12.019-35.68L187,139.571s-13.511,36.921-14.9,45.234,27.713,38.106,27.713,38.106l.014-.028a38.42,38.42,0,0,0,4.142,7.086c2.728,3.376,4.965,3.745,4.965,3.745v0a7.411,7.411,0,0,0,1.726.736c2.6.65,3.378-.584,2.794-1.3a25.048,25.048,0,0,0-3.419-2.171l.262-.653a15.473,15.473,0,0,0,4.586,2.628c2.6.649,3.378-.584,2.792-1.3-.513-.628-4.486-2.617-6.285-4.045l.4-.984a17.4,17.4,0,0,0,5.175,3.082c2.6.649,3.378-.584,2.794-1.3s-5.552-3.146-6.851-4.558l.376-.936a16.315,16.315,0,0,0,4.85,2.831" transform="translate(35.574 28.857)" fill="#ffa78c"/>
        <path id="Trazado_693653" data-name="Trazado 693653" d="M222.748,106.712l-30.058,13.96,9.413,60.881,2.8,28.06h64.692l1.3-30.138v-67.78l-29.255-4.6s-2.7,5.894-8.417,6.66-10.472-7.045-10.472-7.045" transform="translate(39.84 22.064)" fill="#00557f"/>
        <path id="Trazado_693654" data-name="Trazado 693654" d="M195.227,118.281s-11.691,18.99-14.809,27.638c0,0,12.112,7.262,24.07,7.609,0,0,1.045-26.154-9.261-35.247" transform="translate(37.303 24.456)" fill="#00557f"/>
        <path id="Trazado_693655" data-name="Trazado 693655" d="M257.887,110.839s14.9,13.674,21.34,20.239a125.732,125.732,0,0,1-21.3,17.234s-5.619-24.914-.036-37.472" transform="translate(52.809 22.917)" fill="#00557f"/>
        <path id="Trazado_693656" data-name="Trazado 693656" d="M211.436,78.569s4.854,0,6.908-2.118" transform="translate(43.716 15.807)" fill="none" stroke="#00557f" stroke-linecap="round" stroke-linejoin="round" stroke-width="1"/>
        <path id="Trazado_693657" data-name="Trazado 693657" d="M233.629,75.376s-3.591-.921-5.709,0" transform="translate(47.124 15.5)" fill="none" stroke="#00557f" stroke-linecap="round" stroke-linejoin="round" stroke-width="1"/>
        <path id="Trazado_693658" data-name="Trazado 693658" d="M222.409,81.141s.921,4.931.461,5.667a1.739,1.739,0,0,0-1.2,2.211,2.368,2.368,0,0,0,2.125,1.933" transform="translate(45.819 16.777)" fill="none" stroke="#bf6d60" stroke-linecap="round" stroke-linejoin="round" stroke-width="1"/>
        <path id="Trazado_693659" data-name="Trazado 693659" d="M221.346,93.6s5.434-1.75,8.2,0-6.447,2.947-8.2,2.947-1.658-2.026,0-2.947" transform="translate(45.501 19.192)" fill="#fff"/>
        <path id="Trazado_693660" data-name="Trazado 693660" d="M243.755,79.408A12.138,12.138,0,0,0,240.3,85.9" transform="translate(49.684 16.418)" fill="none" stroke="#bf6d60" stroke-linecap="round" stroke-linejoin="round" stroke-width="1"/>
        <path id="Trazado_693661" data-name="Trazado 693661" d="M242.946,84.712s-.4-2.327-1.409-3.235" transform="translate(49.94 16.846)" fill="none" stroke="#bf6d60" stroke-linecap="round" stroke-linejoin="round" stroke-width="1"/>
        <path id="Trazado_693662" data-name="Trazado 693662" d="M201.324,84.044a12.6,12.6,0,0,1,4.7,6.308" transform="translate(41.625 17.377)" fill="none" stroke="#bf6d60" stroke-linecap="round" stroke-linejoin="round" stroke-width="1"/>
        <path id="Trazado_693663" data-name="Trazado 693663" d="M202.583,89.135a8.194,8.194,0,0,1,.829-3.322" transform="translate(41.886 17.742)" fill="none" stroke="#bf6d60" stroke-linecap="round" stroke-linejoin="round" stroke-width="1"/>
        <path id="Trazado_693664" data-name="Trazado 693664" d="M196.261,123.131s-.431,19.154,1.1,29.055" transform="translate(40.567 25.458)" fill="none" stroke="#004560" stroke-linecap="round" stroke-linejoin="round" stroke-width="1"/>
        <path id="Trazado_693665" data-name="Trazado 693665" d="M255.6,118.926s3.212,18.689,2.13,27.011" transform="translate(52.848 24.589)" fill="none" stroke="#004560" stroke-linecap="round" stroke-linejoin="round" stroke-width="1"/>
        <path id="Trazado_693666" data-name="Trazado 693666" d="M216.726,112.037a15.8,15.8,0,0,0,11.418,3.811c6.928-.52,9.229-3.811,9.229-3.811" transform="translate(44.81 23.165)" fill="none" stroke="#004560" stroke-linecap="round" stroke-linejoin="round" stroke-width="1"/>
        <path id="Trazado_693667" data-name="Trazado 693667" d="M190.631,177.212s-3.637-.174-6.928,0" transform="translate(37.982 36.624)" fill="none" stroke="#bf6d60" stroke-linecap="round" stroke-linejoin="round" stroke-width="1"/>
        <path id="Trazado_693668" data-name="Trazado 693668" d="M283,139.91s-2.44,6.216-3.133,8.807" transform="translate(57.865 28.927)" fill="none" stroke="#bf6d60" stroke-linecap="round" stroke-linejoin="round" stroke-width="1"/>
        <line id="Línea_167" data-name="Línea 167" x2="1.918" y2="3.018" transform="translate(359.89 133.395)" fill="none" stroke="#bf6d60" stroke-linecap="round" stroke-linejoin="round" stroke-width="1"/>
        <path id="Trazado_693669" data-name="Trazado 693669" d="M302.114,106.712s6.366.214,8.487,1.587" transform="translate(62.464 22.064)" fill="none" stroke="#bf6d60" stroke-linecap="round" stroke-linejoin="round" stroke-width="1"/>
        <line id="Línea_168" data-name="Línea 168" x2="59.496" transform="translate(246.626 235.573)" fill="none" stroke="#bf6d60" stroke-linecap="round" stroke-linejoin="round" stroke-width="1"/>
        <path id="Trazado_693670" data-name="Trazado 693670" d="M228.482,195.212s-4.417,23.873,3.378,27.915v-22.2" transform="translate(46.983 40.362)" fill="none" stroke="#bf6d60" stroke-linecap="round" stroke-linejoin="round" stroke-width="1"/>
        <path id="Trazado_693671" data-name="Trazado 693671" d="M217.934,214.8s7.446,4.658,11.224,7.274" transform="translate(45.06 44.412)" fill="none" stroke="#bf6d60" stroke-linecap="round" stroke-linejoin="round" stroke-width="1"/>
        <path id="Trazado_693672" data-name="Trazado 693672" d="M235.373,222.88s9.093-9.093,10.911-11.952" transform="translate(48.665 43.611)" fill="none" stroke="#bf6d60" stroke-linecap="round" stroke-linejoin="round" stroke-width="1"/>
        <path id="Trazado_693673" data-name="Trazado 693673" d="M206.427,343.764a95.727,95.727,0,0,0,18.5,0" transform="translate(42.68 71.076)" fill="none" stroke="#bf6d60" stroke-linecap="round" stroke-linejoin="round" stroke-width="1"/>
        <path id="Trazado_693674" data-name="Trazado 693674" d="M277.85,343.764s-11.432.809-19.226.866" transform="translate(53.472 71.076)" fill="none" stroke="#bf6d60" stroke-linecap="round" stroke-linejoin="round" stroke-width="1"/>
        <path id="Trazado_693675" data-name="Trazado 693675" d="M192.1,372.09s3.767,1.169,13.9.649a109.3,109.3,0,0,0,20.156-3.247" transform="translate(39.718 76.395)" fill="none" stroke="#00415b" stroke-linecap="round" stroke-linejoin="round" stroke-width="1"/>
        <path id="Trazado_693676" data-name="Trazado 693676" d="M264.868,370.246s13.51,3.9,21.045,4.676,11.951-.909,11.951-.909" transform="translate(54.763 76.551)" fill="none" stroke="#00415b" stroke-linecap="round" stroke-linejoin="round" stroke-width="1"/>
        <path id="Trazado_693677" data-name="Trazado 693677" d="M200.8,364a10.389,10.389,0,0,1,6.059,2.512" transform="translate(41.518 75.26)" fill="none" stroke="#00415b" stroke-linecap="round" stroke-linejoin="round" stroke-width="1"/>
        <path id="Trazado_693678" data-name="Trazado 693678" d="M202.382,362.648a10.387,10.387,0,0,1,6.058,2.512" transform="translate(41.844 74.98)" fill="none" stroke="#00415b" stroke-linecap="round" stroke-linejoin="round" stroke-width="1"/>
        <path id="Trazado_693679" data-name="Trazado 693679" d="M203.96,361.3a10.382,10.382,0,0,1,6.057,2.512" transform="translate(42.17 74.701)" fill="none" stroke="#00415b" stroke-linecap="round" stroke-linejoin="round" stroke-width="1"/>
        <path id="Trazado_693680" data-name="Trazado 693680" d="M283.144,364.59a10.384,10.384,0,0,0-6.058,2.512" transform="translate(57.29 75.382)" fill="none" stroke="#00415b" stroke-linecap="round" stroke-linejoin="round" stroke-width="1"/>
        <path id="Trazado_693681" data-name="Trazado 693681" d="M281.567,363.239a10.389,10.389,0,0,0-6.059,2.512" transform="translate(56.963 75.102)" fill="none" stroke="#00415b" stroke-linecap="round" stroke-linejoin="round" stroke-width="1"/>
        <path id="Trazado_693682" data-name="Trazado 693682" d="M279.989,361.888a10.389,10.389,0,0,0-6.059,2.512" transform="translate(56.637 74.823)" fill="none" stroke="#00415b" stroke-linecap="round" stroke-linejoin="round" stroke-width="1"/>
        <line id="Línea_169" data-name="Línea 169" x1="4.547" y2="2.339" transform="translate(284.168 77.871)" fill="none" stroke="#004560" stroke-linecap="round" stroke-linejoin="round" stroke-width="1"/>
        <path id="Trazado_693683" data-name="Trazado 693683" d="M239.608,67.328s-4.73,8.6-19.858,4.169c0,0-6.5,6.023-13.657,5.254" transform="translate(42.611 13.921)" fill="none" stroke="#004560" stroke-linecap="round" stroke-linejoin="round" stroke-width="1"/>
        <path id="Trazado_693684" data-name="Trazado 693684" d="M237.671,80.3s-4.012-1.667-4.723-11.776" transform="translate(48.164 14.169)" fill="none" stroke="#004560" stroke-linecap="round" stroke-linejoin="round" stroke-width="1"/>
        <path id="Trazado_693685" data-name="Trazado 693685" d="M202.062,67.328a10.794,10.794,0,0,0-.732,4.407" transform="translate(41.62 13.921)" fill="none" stroke="#004560" stroke-linecap="round" stroke-linejoin="round" stroke-width="1"/>
        <path id="Trazado_693686" data-name="Trazado 693686" d="M204.406,71.26a18.326,18.326,0,0,0-.623,2.592" transform="translate(42.134 14.734)" fill="none" stroke="#004560" stroke-linecap="round" stroke-linejoin="round" stroke-width="1"/>
        <line id="Línea_170" data-name="Línea 170" x2="1.017" y2="1.974" transform="translate(287.601 84.019)" fill="none" stroke="#004560" stroke-linecap="round" stroke-linejoin="round" stroke-width="1"/>
        <path id="Trazado_693687" data-name="Trazado 693687" d="M236.163,59.362s1.819,1.385,1.992,2.511" transform="translate(48.828 12.274)" fill="none" stroke="#004560" stroke-linecap="round" stroke-linejoin="round" stroke-width="1"/>
        <path id="Trazado_693688" data-name="Trazado 693688" d="M233.507,61.443a8,8,0,0,1,1.687,1.472" transform="translate(48.279 12.704)" fill="none" stroke="#004560" stroke-linecap="round" stroke-linejoin="round" stroke-width="1"/>
        <line id="Línea_171" data-name="Línea 171" y1="2.056" x2="2.035" transform="translate(263.427 80.641)" fill="none" stroke="#004560" stroke-linecap="round" stroke-linejoin="round" stroke-width="1"/>
        <path id="Trazado_693689" data-name="Trazado 693689" d="M218.769,273.488c0,6.887-4.728,12.475-10.56,12.475a9.126,9.126,0,0,1-4.6-1.249l-.194-22.344a9.265,9.265,0,0,1,4.79-1.346c5.832,0,10.56,5.576,10.56,12.463" transform="translate(42.058 53.969)" fill="#f2bd70"/>
        <path id="Trazado_693690" data-name="Trazado 693690" d="M271.324,283.963a9.3,9.3,0,0,1-5.722,2c-5.832,0-10.56-5.59-10.56-12.475s4.728-12.465,10.56-12.465a8.949,8.949,0,0,1,2.619.389Z" transform="translate(52.732 53.969)" fill="#f2bd70"/>
        <path id="Trazado_693691" data-name="Trazado 693691" d="M413.047,11.616a4.347,4.347,0,0,1-1.5-6.559C413.566,2.518,417.15-.1,423.309,0c7.862.13,14.8,5.385,14.678,12.776-.086,5.137-3.965,8.218-9.033,10.284-1.8.757-1.873,2.223-1.9,3.953a2.935,2.935,0,0,1-2.984,2.887l-2.778-.046a2.936,2.936,0,0,1-2.887-2.986l.046-2.778c.039-2.306.175-4.192,2.56-5.673,3.232-1.99,6.222-2.1,6.284-5.819a4.176,4.176,0,0,0-4.174-4.37,5.769,5.769,0,0,0-4.709,2.216,4.382,4.382,0,0,1-5.363,1.168m15.485,27.328a6,6,0,1,1-5.928-6.129,5.987,5.987,0,0,1,5.928,6.129" transform="translate(84.901 0)" fill="#ff9400"/>
        <path id="Trazado_693692" data-name="Trazado 693692" d="M454.218,29.464a4.347,4.347,0,0,1,1.393-6.58c2.893-1.461,7.244-2.335,12.793.34,7.084,3.415,11.181,11.094,7.969,17.754-2.231,4.627-7.045,5.8-12.512,5.549-1.948-.065-2.632,1.233-3.384,2.792a2.937,2.937,0,0,1-3.92,1.37l-2.5-1.208a2.935,2.935,0,0,1-1.37-3.92l1.207-2.5c1-2.078,1.916-3.733,4.7-4.078,3.769-.453,6.529.7,8.146-2.649a4.176,4.176,0,0,0-1.959-5.716,5.769,5.769,0,0,0-5.2.037,4.382,4.382,0,0,1-5.358-1.189m2.6,31.3a6,6,0,1,1-2.812-8.05,5.985,5.985,0,0,1,2.812,8.05" transform="translate(92.092 4.445)" fill="#ff9400"/>
        <path id="Trazado_693693" data-name="Trazado 693693" d="M371.68,32.079a4.347,4.347,0,0,1-5.181-4.29c.051-3.24,1.3-7.5,6.244-11.171,6.316-4.686,15.019-4.746,19.424,1.191,3.062,4.126,1.862,8.932-.9,13.657-.962,1.694-.13,2.9.9,4.294a2.937,2.937,0,0,1-.608,4.108l-2.231,1.656a2.936,2.936,0,0,1-4.108-.608l-1.656-2.231c-1.375-1.852-2.415-3.432-1.426-6.058,1.35-3.548,3.656-5.455,1.438-8.444a4.177,4.177,0,0,0-5.972-.922,5.766,5.766,0,0,0-2.385,4.625,4.382,4.382,0,0,1-3.542,4.193m28.928,12.239a6,6,0,1,1-8.435-1.249,5.985,5.985,0,0,1,8.435,1.249" transform="translate(75.776 2.733)" fill="#ff9400"/>
        <path id="Trazado_693694" data-name="Trazado 693694" d="M379.517,343.327,378.3,361.161l-17.211,14.257,3.3,4.867,32.336-5.737,2.607-30.037Z" transform="translate(74.659 70.986)" fill="#ffa78c"/>
        <path id="Trazado_693695" data-name="Trazado 693695" d="M373.067,362.139a21.768,21.768,0,0,0,14.231,5.884c2.809.074,11.541-2.625,11.541-2.625s.565,6.345-.825,10.562c-.689,2.09-31.466,6.519-36.16,6.345s-5.911-.7-6.953-2.173-1.913-4,2.433-6.78,15.734-11.213,15.734-11.213" transform="translate(73.203 74.875)" fill="#00557f"/>
        <path id="Trazado_693696" data-name="Trazado 693696" d="M447.533,342.353l1.213,17.833,17.211,14.255-3.3,4.868-32.336-5.737-2.608-30.039Z" transform="translate(88.432 70.784)" fill="#ffa78c"/>
        <path id="Trazado_693697" data-name="Trazado 693697" d="M455.122,361.165a21.768,21.768,0,0,1-14.231,5.884c-2.809.074-11.542-2.625-11.542-2.625s-.565,6.345.826,10.562c.69,2.09,31.466,6.519,36.16,6.345s5.911-.7,6.955-2.173,1.911-4-2.434-6.78-15.734-11.213-15.734-11.213" transform="translate(88.748 74.674)" fill="#00557f"/>
        <path id="Trazado_693698" data-name="Trazado 693698" d="M382.647,183.327,372.042,377.59h28.337l17.143-163.105,3.806.739L436.192,377.59l27.068-1.2-9.253-193.063Z" transform="translate(76.922 37.904)" fill="#00557f"/>
        <path id="Trazado_693699" data-name="Trazado 693699" d="M453.209,176.267V101.953a168.107,168.107,0,0,0-40.149-5.315s-21.735-1.142-27.211,0l-4.536,79.628-5.422,32.412s31.08,5.405,38.382,4.884L419.489,206l4.432,7.6s20.079-.415,33.64-4.919Z" transform="translate(77.718 19.876)" fill="#ffd07f"/>
        <path id="Trazado_693700" data-name="Trazado 693700" d="M424.7,102a32.567,32.567,0,0,0,.134,4.04l-8.6,4.9-10.843-7.57a31.239,31.239,0,0,0,1.57-5.671c.072-.4.146-.79.206-1.168.122-.706.208-1.374.268-1.984.183-1.642.244-2.871.256-3.346.012-.146.012-.218.012-.218l1.266.268,16.951,3.553a12.314,12.314,0,0,0-.718,2.312,17.957,17.957,0,0,0-.4,2.774c-.062.731-.1,1.436-.1,2.106" transform="translate(83.817 18.813)" fill="#ffa78c"/>
        <path id="Trazado_693701" data-name="Trazado 693701" d="M362.1,133.572s16.659-35.782,26.6-37.01c12.776-1.577,3.3,30.7,3.3,30.7L376.184,155.3Z" transform="translate(74.867 19.953)" fill="#ffd07f"/>
        <path id="Trazado_693702" data-name="Trazado 693702" d="M466.7,136.354s-16.659-34.336-26.6-35.563c-12.776-1.578-3.3,30.7-3.3,30.7l15.821,25.729Z" transform="translate(89.612 20.828)" fill="#ffd07f"/>
        <path id="Trazado_693703" data-name="Trazado 693703" d="M385.186,144.53c-1.832-3.333-27.6-23.449-33.842-28.295l-1.709-2.358s-2.695-3.739-5.825-4.693c-1.525-.467-8-2.526-9.909-2.61s0,2.417,1.477,2.992,4.26,1.488,4.26,1.488l-11.387,5.083s-6.5,2.5-7.085,4.2,2.086.65,4.5-.327c1.788-.724,3.716-1.592,4.594-1.992l.2.183c-.79.311-6.44,2.579-6.986,4.155-.586,1.7,2.086.654,4.5-.325,1.734-.7,3.586-1.534,4.5-1.949l.367.343c-1.247.5-6.292,2.6-6.806,4.084-.586,1.7,2.086.65,4.5-.327,1.634-.661,3.368-1.436,4.33-1.872l.3.284c-1.826.766-5.683,2.517-6.129,3.8-.586,1.694,2.086.653,4.5-.325,1.308-.531,2.678-1.133,3.672-1.576,0,0,2.181-.684,4.751-1.749,1.06,1.619,23.677,35.984,34.371,35.984,10.953,0,10.953-10.4,8.866-14.2" transform="translate(66.387 22.034)" fill="#ffa78c"/>
        <path id="Trazado_693704" data-name="Trazado 693704" d="M506.455,120.939c-.586-1.7-7.085-4.193-7.085-4.193l-11.386-5.084s2.78-.915,4.259-1.488,3.39-3.077,1.478-2.992-8.383,2.143-9.91,2.609c-3.129.956-5.824,4.694-5.824,4.694l-1.195,1.648c-4.685,5.574-26.219,31.329-27.325,35.026-1.241,4.148.951,14.319,11.657,12.013,8.973-1.933,21.2-30.469,24.928-39.664,2.4.976,4.371,1.592,4.371,1.592.993.444,2.363,1.045,3.671,1.575,2.412.977,5.085,2.021,4.5.326-.446-1.289-4.3-3.04-6.13-3.806l.3-.281c.962.436,2.695,1.208,4.329,1.87,2.412.979,5.085,2.021,4.5.326-.513-1.484-5.56-3.584-6.806-4.084l.367-.343c.914.416,2.767,1.247,4.5,1.95,2.412.977,5.085,2.02,4.5.326-.545-1.576-6.194-3.845-6.986-4.156l.2-.183c.88.4,2.806,1.267,4.594,1.992,2.412.977,5.085,2.021,4.5.326" transform="translate(92.867 22.16)" fill="#ffa78c"/>
        <path id="Trazado_693705" data-name="Trazado 693705" d="M384.643,101.6s4.156,13.277-.4,30.238" transform="translate(79.445 21.007)" fill="none" stroke="#bf6d60" stroke-linecap="round" stroke-linejoin="round" stroke-width="1"/>
        <path id="Trazado_693706" data-name="Trazado 693706" d="M440.478,105.924s-4.7,16.913-2.351,28.015" transform="translate(90.45 21.901)" fill="none" stroke="#bf6d60" stroke-linecap="round" stroke-linejoin="round" stroke-width="1"/>
        <path id="Trazado_693707" data-name="Trazado 693707" d="M383.279,162.326l3.3,1.826-2.134,3.39" transform="translate(79.246 33.562)" fill="none" stroke="#bf6d60" stroke-linecap="round" stroke-linejoin="round" stroke-width="1"/>
        <line id="Línea_172" data-name="Línea 172" x1="3.437" y2="2.608" transform="translate(525.987 198.496)" fill="none" stroke="#bf6d60" stroke-linecap="round" stroke-linejoin="round" stroke-width="1"/>
        <line id="Línea_173" data-name="Línea 173" x1="2.835" y2="96.117" transform="translate(497.207 129.76)" fill="none" stroke="#bf6d60" stroke-linecap="round" stroke-linejoin="round" stroke-width="1"/>
        <path id="Trazado_693708" data-name="Trazado 693708" d="M425.612,94.773a12.2,12.2,0,0,0-.718,2.312,18.084,18.084,0,0,0-.4,2.774c-.06.73-.1,1.436-.1,2.106a15.4,15.4,0,0,1-9.042-1.034,35.265,35.265,0,0,1-8.494-4.43c.122-.706.208-1.374.268-1.984.182-1.642.244-2.872.256-3.346l1.278.048Z" transform="translate(84.121 18.85)" fill="#d88471"/>
        <path id="Trazado_693709" data-name="Trazado 693709" d="M401.207,64.968s-1.963,18.395-1.6,24.933,9.763,14.436,17.2,16.479c6.326,1.738,17.738-5.135,20.535-9.98S444.2,67.746,444.2,67.746s-21.872-29.831-42.993-2.778" transform="translate(82.612 11.087)" fill="#ffa78c"/>
        <path id="Trazado_693710" data-name="Trazado 693710" d="M402.881,73.374s-3.249-5.246-6.111-4.313-3.168,7.352-.647,11.362,5.484,3.1,5.484,3.1Z" transform="translate(81.548 14.256)" fill="#ffa78c"/>
        <path id="Trazado_693711" data-name="Trazado 693711" d="M433.349,76.988s4.57-4.146,7.064-2.459,1.016,7.94-2.515,11.1-6.125,1.467-6.125,1.467Z" transform="translate(89.272 15.326)" fill="#ffa78c"/>
        <path id="Trazado_693712" data-name="Trazado 693712" d="M415.564,45.02c-8.866,1.826-8.736,7.04-13.56,8.214s-6.9,4.172-7.557,7.3.386,3.13,1.3,3.13h1.435s.113,3.047-.132,6.78,1.633,4.3,1.633,4.3,4.1,2.739,4.234,6.65a3.419,3.419,0,0,0,2.478-2.608c.522-2.217.783-10.822.783-10.822s5.737-.261,9.518-2.738c0,0,1.435,1.3,4.825,1.3s13.3-3.261,16.037-1.565a11.5,11.5,0,0,0,4.043,5.346s-1.216,8.866-1.064,11.083a6.275,6.275,0,0,0,1.3,3.516s2.107-4.255,5.627-4.6c0,0,3.129-4.912,3.65-9.084a2.47,2.47,0,0,0,2.347-2.868c-.261-2.738-1.3-3.65-1.956-6.389s-2.868-5.607-4.432-5.737c0,0,1.434-2.217-5.607-7.041s-16.038-6-24.9-4.172" transform="translate(81.512 9.139)" fill="#00557f"/>
        <path id="Trazado_693713" data-name="Trazado 693713" d="M408.074,93.94a19.27,19.27,0,0,0,1.957,8.2c1.825,3.484,6.833,8.2,6.833,8.2a18.637,18.637,0,0,0-6.659-1.5,15.6,15.6,0,0,0-5.824,1.5L402.3,97.017Z" transform="translate(83.178 19.423)" fill="#fffbdc"/>
        <path id="Trazado_693714" data-name="Trazado 693714" d="M423.335,96.074s-2.048,10.105-8.967,13.822c0,0,4.38-.675,6.988,0a9.475,9.475,0,0,1,4.172,2.327s3.42-10.455,3.492-13.572Z" transform="translate(85.674 19.864)" fill="#fffbdc"/>
        <path id="Trazado_693715" data-name="Trazado 693715" d="M396.532,71.639a12.757,12.757,0,0,1,3.653,6.78" transform="translate(81.986 14.812)" fill="none" stroke="#bf6d60" stroke-linecap="round" stroke-linejoin="round" stroke-width="1"/>
        <path id="Trazado_693716" data-name="Trazado 693716" d="M397.4,77.317s.152-2.434,1.424-2.868" transform="translate(82.165 15.393)" fill="none" stroke="#bf6d60" stroke-linecap="round" stroke-linejoin="round" stroke-width="1"/>
        <path id="Trazado_693717" data-name="Trazado 693717" d="M438.713,76.826s-3.99,2.173-5.3,6.084" transform="translate(89.612 15.884)" fill="none" stroke="#bf6d60" stroke-linecap="round" stroke-linejoin="round" stroke-width="1"/>
        <path id="Trazado_693718" data-name="Trazado 693718" d="M435.612,81.867a2.557,2.557,0,0,0,0-2.521" transform="translate(90.066 16.405)" fill="none" stroke="#bf6d60" stroke-linecap="round" stroke-linejoin="round" stroke-width="1"/>
        <path id="Trazado_693719" data-name="Trazado 693719" d="M411.861,74.38c-.157,1.232-.851,2.158-1.549,2.068s-1.137-1.16-.98-2.392.851-2.158,1.549-2.068,1.137,1.16.98,2.392" transform="translate(84.626 14.883)" fill="#00557f"/>
        <path id="Trazado_693720" data-name="Trazado 693720" d="M407.215,67.843s4.633,1.214,7.121-.294" transform="translate(84.195 13.966)" fill="none" stroke="#00557f" stroke-linecap="round" stroke-linejoin="round" stroke-width="1"/>
        <path id="Trazado_693721" data-name="Trazado 693721" d="M422.716,75.154c-.022,1.242.531,2.258,1.235,2.27s1.294-.984,1.315-2.224-.531-2.258-1.234-2.271-1.294.984-1.315,2.225" transform="translate(87.4 15.079)" fill="#00557f"/>
        <path id="Trazado_693722" data-name="Trazado 693722" d="M428.97,69.5s-4.759.532-7-1.32" transform="translate(87.245 14.096)" fill="none" stroke="#00557f" stroke-linecap="round" stroke-linejoin="round" stroke-width="1"/>
        <path id="Trazado_693723" data-name="Trazado 693723" d="M417.283,73.3s-.354,4.936-.977,5.523a1.714,1.714,0,0,0-1.7,1.809,2.334,2.334,0,0,0,1.543,2.376" transform="translate(85.722 15.156)" fill="none" stroke="#bf6d60" stroke-linecap="round" stroke-linejoin="round" stroke-width="1"/>
        <path id="Trazado_693724" data-name="Trazado 693724" d="M413.893,86.609s2.919-1.913,5.024-1.565a4.221,4.221,0,0,1,2.876,1.565" transform="translate(85.576 17.575)" fill="none" stroke="#bf6d60" stroke-linecap="round" stroke-linejoin="round" stroke-width="1"/>
        <line id="Línea_174" data-name="Línea 174" x2="3.955" y2="2.041" transform="translate(406.024 133.088)" fill="none" stroke="#bf6d60" stroke-linecap="round" stroke-linejoin="round" stroke-width="1"/>
        <line id="Línea_175" data-name="Línea 175" x2="5.824" y2="5.216" transform="translate(396.115 139.475)" fill="none" stroke="#bf6d60" stroke-linecap="round" stroke-linejoin="round" stroke-width="1"/>
        <path id="Trazado_693725" data-name="Trazado 693725" d="M338.374,120.286s4.729-1.739,5.165-1.826" transform="translate(69.961 24.493)" fill="none" stroke="#bf6d60" stroke-linecap="round" stroke-linejoin="round" stroke-width="1"/>
        <line id="Línea_176" data-name="Línea 176" x1="3.482" y1="1.155" transform="translate(575.439 144.516)" fill="none" stroke="#bf6d60" stroke-linecap="round" stroke-linejoin="round" stroke-width="1"/>
        <line id="Línea_177" data-name="Línea 177" x1="5.998" y2="5.652" transform="translate(584.826 140.018)" fill="none" stroke="#bf6d60" stroke-linecap="round" stroke-linejoin="round" stroke-width="1"/>
        <path id="Trazado_693726" data-name="Trazado 693726" d="M481.961,110.9a20.741,20.741,0,0,1-3.671,3.132" transform="translate(98.89 22.928)" fill="none" stroke="#bf6d60" stroke-linecap="round" stroke-linejoin="round" stroke-width="1"/>
        <line id="Línea_178" data-name="Línea 178" x2="28.395" transform="translate(449.705 407.895)" fill="none" stroke="#004560" stroke-linecap="round" stroke-linejoin="round" stroke-width="1"/>
        <line id="Línea_179" data-name="Línea 179" y1="1.331" x2="27.881" transform="translate(512.302 405.287)" fill="none" stroke="#004560" stroke-linecap="round" stroke-linejoin="round" stroke-width="1"/>
        <path id="Trazado_693727" data-name="Trazado 693727" d="M391.9,199.35s-5.241,70.407-6.793,77.8,0,10.171,0,10.171-.87,6.955-.69,8.345-3.3,62.237-3.3,62.237" transform="translate(78.799 41.217)" fill="none" stroke="#004560" stroke-linecap="round" stroke-linejoin="round" stroke-width="1"/>
        <path id="Trazado_693728" data-name="Trazado 693728" d="M428.946,199.35s5.911,83.446,6.606,87.619a20.112,20.112,0,0,1,0,7.169,38.355,38.355,0,0,0,.309,5.7c.387,2.433,4.212,58.064,4.212,58.064" transform="translate(88.688 41.217)" fill="none" stroke="#004560" stroke-linecap="round" stroke-linejoin="round" stroke-width="1"/>
        <line id="Línea_180" data-name="Línea 180" x1="7.928" y1="7.476" transform="translate(486.516 244.913)" fill="none" stroke="#004560" stroke-linecap="round" stroke-linejoin="round" stroke-width="1"/>
        <line id="Línea_181" data-name="Línea 181" y1="3.694" x2="6.345" transform="translate(498.25 249.433)" fill="none" stroke="#004560" stroke-linecap="round" stroke-linejoin="round" stroke-width="1"/>
        <path id="Trazado_693729" data-name="Trazado 693729" d="M390.412,122.853l16.342,1.548s-.174,18.27-9.736,18.27-6.606-19.819-6.606-19.819" transform="translate(80.631 25.401)" fill="#f2bd70"/>
        <line id="Línea_182" data-name="Línea 182" x1="3.781" y2="2.171" transform="translate(523.031 66.415)" fill="none" stroke="#004560" stroke-linecap="round" stroke-linejoin="round" stroke-width="1"/>
        <path id="Trazado_693730" data-name="Trazado 693730" d="M401.43,64.182s8.867,1.216,12.778-2.434c0,0,3.208,2.564,9.123.673s10.869-1.455,11.739-.934c0,0,2,5.3,5.824,5.824s4.432-.782,4.432-.782" transform="translate(82.999 12.621)" fill="none" stroke="#004560" stroke-linecap="round" stroke-linejoin="round" stroke-width="1"/>
        <line id="Línea_183" data-name="Línea 183" x1="1.043" y2="1.216" transform="translate(530.499 78.28)" fill="none" stroke="#004560" stroke-linecap="round" stroke-linejoin="round" stroke-width="1"/>
        <path id="Trazado_693731" data-name="Trazado 693731" d="M398.577,62.049a7.185,7.185,0,0,1,1.791-3.3" transform="translate(82.409 12.146)" fill="none" stroke="#004560" stroke-linecap="round" stroke-linejoin="round" stroke-width="1"/>
        <path id="Trazado_693732" data-name="Trazado 693732" d="M435.444,53.256a5.435,5.435,0,0,0-2.68-2.434" transform="translate(89.477 10.508)" fill="none" stroke="#004560" stroke-linecap="round" stroke-linejoin="round" stroke-width="1"/>
        <path id="Trazado_693733" data-name="Trazado 693733" d="M404.312,52.546s4.172-3.564,4.432-4.172" transform="translate(83.595 10.002)" fill="none" stroke="#004560" stroke-linecap="round" stroke-linejoin="round" stroke-width="1"/>
        <path id="Trazado_693734" data-name="Trazado 693734" d="M412.451,59.9a7.956,7.956,0,0,1,3.129-2.521" transform="translate(85.277 11.863)" fill="none" stroke="#004560" stroke-linecap="round" stroke-linejoin="round" stroke-width="1"/>
        <path id="Trazado_693735" data-name="Trazado 693735" d="M52.327,38.607a4.405,4.405,0,0,1-3.69-5.732c1.043-3.116,3.554-6.85,9.459-8.878,7.539-2.591,15.965.019,18.4,7.105,1.693,4.925-.94,9.2-5.056,12.921-1.449,1.341-1.016,2.765-.447,4.424a2.976,2.976,0,0,1-1.848,3.782l-2.663.915A2.976,2.976,0,0,1,62.7,51.3l-.916-2.665c-.759-2.211-1.28-4.055.48-6.29,2.392-3.013,5.2-4.149,3.979-7.717A4.233,4.233,0,0,0,60.756,31.9a5.845,5.845,0,0,0-3.722,3.739,4.439,4.439,0,0,1-4.708,2.964m24.2,20.7a6.085,6.085,0,1,1-7.767-3.794A6.067,6.067,0,0,1,76.523,59.3" transform="translate(10.01 4.759)" fill="#ff9400"/>
        <path id="Trazado_693736" data-name="Trazado 693736" d="M107.8,361.962c-.735-4.475-2.977-17.977-5.7-32.926C98.776,310.7,89.888,287.51,89.888,287.51L70.276,302.926l23.615,63.815a20.422,20.422,0,0,1-3.031,6.32c-2.222,2.639-3.056,3.711-3.056,3.711a37.82,37.82,0,0,0,8.75,1.566c3.611,0,13.055-8.333,13.471-9.86.233-.851-1.044-3.942-2.22-6.515" transform="translate(14.53 59.445)" fill="#d88471"/>
        <path id="Trazado_693737" data-name="Trazado 693737" d="M88.323,361.229a46.354,46.354,0,0,1-5.538,4.93c-4.167,3.334-5.695,5.556-5.695,6.945s16.249,1.892,19.722.946,13.61-11.224,14.721-13.446-4.127-9.483-4.127-9.483a66.057,66.057,0,0,1-3.373,6.288c-1.389,2.083-6.542,4.381-9.644,5.418-7.056,2.359-6.066-1.6-6.066-1.6" transform="translate(15.939 72.597)" fill="#004560"/>
        <path id="Trazado_693738" data-name="Trazado 693738" d="M60.491,192.372s-1.638,22.563-1.273,53.131,9.871,61.677,9.871,61.677l24.335-7.454L91.606,192.372Z" transform="translate(12.233 39.774)" fill="#004560"/>
        <path id="Trazado_693739" data-name="Trazado 693739" d="M73.114,124.822S61.832,146.11,58.648,154.3s5.692,18.6,5.692,18.6l6.59-6.227s3.638-34.755,2.183-41.85" transform="translate(11.983 25.808)" fill="#d88471"/>
        <path id="Trazado_693740" data-name="Trazado 693740" d="M72.637,127.214s19.47-10.735,35.663-13.465,21.471,6.732,21.471,6.732l-11.317,62.776,5.677,25.473H60.264l7.642-36.209s-.91-31.115,4.73-45.308" transform="translate(12.46 23.416)" fill="#ffd07f"/>
        <path id="Trazado_693741" data-name="Trazado 693741" d="M68.07,79.318s-.006,21.107.952,27.054,7.722,10.974,14.5,13.09,18.562-6.074,20.655-10.775,3.586-27.923,3.586-27.923S76.989,64.135,68.07,79.318" transform="translate(14.074 15.078)" fill="#ffa78c"/>
        <path id="Trazado_693742" data-name="Trazado 693742" d="M82.664,111.519a42.73,42.73,0,0,1-.307,13.722l18.887-6.549.446-17.277Z" transform="translate(17.028 20.968)" fill="#ffa78c"/>
        <path id="Trazado_693743" data-name="Trazado 693743" d="M97.475,90.477s3.357-6.486,7.525-4.292,2.131,10.694-.582,13.581-6.747.226-6.747.226Z" transform="translate(20.154 17.726)" fill="#ffa78c"/>
        <path id="Trazado_693744" data-name="Trazado 693744" d="M82.828,112.769s8.453-1.408,13.58-5.835c0,0-5.952,10.708-13.477,12.017Z" transform="translate(17.125 22.109)" fill="#d88471"/>
        <path id="Trazado_693745" data-name="Trazado 693745" d="M82.4,77.88s2.474,5.334,9.2,10.523,11.888,5.649,11.888,5.649-2.124,6.379,1.444,8.568c0,0,1.416-12.325,6.308-11.613s2.865,15.133-4.56,14.982a18.623,18.623,0,0,0-.964,10.213s15.016-10.943,17.03-26.008S114.3,70.643,114.3,70.643,110.592,63.285,98.125,61s-18.905,4.84-18.905,4.84-6.234-2.024-11.674,4.249a12.264,12.264,0,0,0-2.582,12.634s-4.04,4.451-2.509,9.716,7.115,6.484,7.115,6.484,1.025-14.788,3.379-18.816S82.4,77.88,82.4,77.88" transform="translate(12.841 12.519)" fill="#00557f"/>
        <path id="Trazado_693746" data-name="Trazado 693746" d="M77.107,89.119s.393,4.273-1.3,6.914,1.931,3.859,1.931,3.859" transform="translate(15.58 18.426)" fill="none" stroke="#bf6d60" stroke-linecap="round" stroke-linejoin="round" stroke-width="1"/>
        <path id="Trazado_693747" data-name="Trazado 693747" d="M69.55,85.237s2.488-2.986,5.328-.774" transform="translate(14.38 17.295)" fill="none" stroke="#00557f" stroke-linecap="round" stroke-linejoin="round" stroke-width="1"/>
        <path id="Trazado_693748" data-name="Trazado 693748" d="M81.866,85.018a17.622,17.622,0,0,0,6.243,1.774" transform="translate(16.926 17.578)" fill="none" stroke="#00557f" stroke-linecap="round" stroke-linejoin="round" stroke-width="1"/>
        <path id="Trazado_693749" data-name="Trazado 693749" d="M103.622,88.911s-3.555,1.638-4.132,6.771" transform="translate(20.57 18.383)" fill="none" stroke="#bf6d60" stroke-linecap="round" stroke-linejoin="round" stroke-width="1"/>
        <path id="Trazado_693750" data-name="Trazado 693750" d="M127.988,119.871s5.64.728,7.278,12.01-9.3,40.2-13.1,46.4c-6.368,10.371-62.957,1.82-62.957,1.82L62.3,167.544l45.489-5.64s5.823-25.292,9.28-34.572,10.918-7.46,10.918-7.46" transform="translate(12.242 24.754)" fill="#ffa78c"/>
        <path id="Trazado_693751" data-name="Trazado 693751" d="M101.735,94.2a2.791,2.791,0,0,0-1.137-2.656" transform="translate(20.799 18.927)" fill="none" stroke="#bf6d60" stroke-linecap="round" stroke-linejoin="round" stroke-width="1"/>
        <path id="Trazado_693752" data-name="Trazado 693752" d="M85.384,91.336c-.059,1.181-.65,2.113-1.321,2.079s-1.166-1.019-1.107-2.2.65-2.113,1.321-2.079,1.166,1.02,1.107,2.2" transform="translate(17.151 18.429)" fill="#00557f"/>
        <path id="Trazado_693753" data-name="Trazado 693753" d="M74.026,90.767c-.059,1.183-.65,2.113-1.321,2.079s-1.166-1.019-1.107-2.2.65-2.113,1.321-2.079,1.166,1.02,1.107,2.2" transform="translate(14.802 18.312)" fill="#00557f"/>
        <path id="Trazado_693754" data-name="Trazado 693754" d="M77.051,102.529s2.261-.967,5.325.9" transform="translate(15.931 21.147)" fill="none" stroke="#bf6d60" stroke-linecap="round" stroke-linejoin="round" stroke-width="1"/>
        <path id="Trazado_693755" data-name="Trazado 693755" d="M118.188,70.24a9.349,9.349,0,1,1-9.349-9.349,9.349,9.349,0,0,1,9.349,9.349" transform="translate(20.57 12.59)" fill="#00557f"/>
        <path id="Trazado_693756" data-name="Trazado 693756" d="M62.848,116.56s4.525-5.732,6.335-6.278,8,2.65,8.456,3.6S77,116.56,77,116.56s-.274,3.275-1.365,3.821l-1.092.547s-1.728,4.913-4.73,5.731c0,0-.637,5.732-4.277,6.55L58.53,127.3a37.708,37.708,0,0,1,4.318-10.735" transform="translate(12.102 22.789)" fill="#ffa78c"/>
        <path id="Trazado_693757" data-name="Trazado 693757" d="M66.22,112.262s2.684-3.366,4.73-4.412,7.6.273,8.188,1.091-.591,1.365-2.728,1.183-2.866-.261-2.866-.261L72,112.663Z" transform="translate(13.691 22.219)" fill="#ffa78c"/>
        <path id="Trazado_693758" data-name="Trazado 693758" d="M60.76,124.37s-13.253,36.21-13.01,45.671,6.308,10.918,9.947,10.675,8.584-5.587,10.675-12.13,0-40.031,0-40.031Z" transform="translate(9.872 25.714)" fill="#ffa78c"/>
        <path id="Trazado_693759" data-name="Trazado 693759" d="M100.02,156.185a27.844,27.844,0,0,1,5.095,7.278" transform="translate(20.68 32.292)" fill="none" stroke="#bf6d60" stroke-linecap="round" stroke-linejoin="round" stroke-width="1"/>
        <path id="Trazado_693760" data-name="Trazado 693760" d="M61.722,129.31a3.446,3.446,0,0,0,3.848-.231" transform="translate(12.761 26.688)" fill="none" stroke="#bf6d60" stroke-linecap="round" stroke-linejoin="round" stroke-width="1"/>
        <path id="Trazado_693761" data-name="Trazado 693761" d="M68.012,124.523a1.476,1.476,0,0,1-.7-1.85l.928-2.123" transform="translate(13.902 24.925)" fill="none" stroke="#bf6d60" stroke-linecap="round" stroke-linejoin="round" stroke-width="1"/>
        <path id="Trazado_693762" data-name="Trazado 693762" d="M68.758,117.384s3.153.728,3.67,2.062" transform="translate(14.216 24.27)" fill="none" stroke="#bf6d60" stroke-linecap="round" stroke-linejoin="round" stroke-width="1"/>
        <path id="Trazado_693763" data-name="Trazado 693763" d="M70.065,114.268a6.738,6.738,0,0,1,4.549,1.457" transform="translate(14.486 23.625)" fill="none" stroke="#bf6d60" stroke-linecap="round" stroke-linejoin="round" stroke-width="1"/>
        <path id="Trazado_693764" data-name="Trazado 693764" d="M94.362,306.281l-25.349,1.307L60.26,366.8c-2.712,1.251-5.684,4.732-11.989,7.181-4.957,1.927-3.737,2.757-4.782,4.718a5.133,5.133,0,0,0,0,4.18H76.712a2.142,2.142,0,0,0,2.119-2.125c.025-3.363.065-9.952.016-13.722.666-2.669,3.327-13.163,7.152-25.99,4.443-14.9,8.363-34.757,8.363-34.757" transform="translate(8.896 63.326)" fill="#ffa78c"/>
        <path id="Trazado_693765" data-name="Trazado 693765" d="M55.857,359.6s2.312,3.442,12.077,2.835S80.007,359.6,80.007,359.6s1.236,11.572.7,12.722-12.247.49-13.858.457-23.2,1-25.891,0-3.438-2.944-2.579-4.279,13.773-7.087,17.479-8.9" transform="translate(7.865 74.35)" fill="#00557f"/>
        <path id="Trazado_693766" data-name="Trazado 693766" d="M76.346,123.335s-1.2,3.425,9.868,3.545S112.808,115.6,112.808,115.6l-9.461-.731-19.739,5.1Z" transform="translate(15.777 23.75)" fill="#ffa78c"/>
        <path id="Trazado_693767" data-name="Trazado 693767" d="M109.727,94.521s.85,13.034,7.763,16.915c0,0,6.672.364,8.492,6.914s-5.459,11.038-5.459,11.038-.606,7.885-10.311,8.858S95.9,126.355,95.9,119.321s8.491-22.428,13.828-24.8" transform="translate(19.828 19.543)" fill="#00557f"/>
        <path id="Trazado_693768" data-name="Trazado 693768" d="M123.721,192.372s1.96,18.816-6.664,48.216-24.7,90.55-24.7,90.55H62.178L78.25,210.4l-1.96-18.031Z" transform="translate(12.856 39.774)" fill="#00557f"/>
        <line id="Línea_184" data-name="Línea 184" x1="12.437" y2="9.221" transform="translate(91.106 240.957)" fill="none" stroke="#004560" stroke-linecap="round" stroke-linejoin="round" stroke-width="1"/>
        <path id="Trazado_693769" data-name="Trazado 693769" d="M114.074,193.871s-1.039,25.361-6.235,45.626-23.9,86-23.9,86" transform="translate(17.354 40.084)" fill="none" stroke="#004560" stroke-linecap="round" stroke-linejoin="round" stroke-width="1"/>
        <path id="Trazado_693770" data-name="Trazado 693770" d="M62.767,302.942s24.393.649,30.881,0" transform="translate(12.978 62.636)" fill="none" stroke="#004560" stroke-linecap="round" stroke-linejoin="round" stroke-width="1"/>
        <path id="Trazado_693771" data-name="Trazado 693771" d="M75.352,124.37s.139,2.539,8.453,3.058a44.727,44.727,0,0,0,16.342-2.511" transform="translate(15.58 25.714)" fill="none" stroke="#bf6d60" stroke-linecap="round" stroke-linejoin="round" stroke-width="1"/>
        <path id="Trazado_693772" data-name="Trazado 693772" d="M78.072,71.693a29.739,29.739,0,0,0,22.113,20.056" transform="translate(16.142 14.823)" fill="none" stroke="#004560" stroke-linecap="round" stroke-linejoin="round" stroke-width="1"/>
        <line id="Línea_185" data-name="Línea 185" x2="2.668" y2="1.829" transform="translate(92.062 78.361)" fill="none" stroke="#004560" stroke-linecap="round" stroke-linejoin="round" stroke-width="1"/>
        <path id="Trazado_693773" data-name="Trazado 693773" d="M64.474,78.925a16.26,16.26,0,0,0,2.969,1.919" transform="translate(13.33 16.318)" fill="none" stroke="#004560" stroke-linecap="round" stroke-linejoin="round" stroke-width="1"/>
        <path id="Trazado_693774" data-name="Trazado 693774" d="M101.2,64.935s8.031,5.095,10.961,11.129" transform="translate(20.924 13.426)" fill="none" stroke="#004560" stroke-linecap="round" stroke-linejoin="round" stroke-width="1"/>
        <path id="Trazado_693775" data-name="Trazado 693775" d="M99.491,74.943a4.387,4.387,0,0,1,1.775,2.672" transform="translate(20.571 15.495)" fill="none" stroke="#004560" stroke-linecap="round" stroke-linejoin="round" stroke-width="1"/>
        <line id="Línea_186" data-name="Línea 186" x2="2.013" y2="1.552" transform="translate(117.629 81.732)" fill="none" stroke="#004560" stroke-linecap="round" stroke-linejoin="round" stroke-width="1"/>
        <path id="Trazado_693776" data-name="Trazado 693776" d="M106.554,97.014s.969,7.868,3.21,11.649" transform="translate(22.031 20.058)" fill="none" stroke="#004560" stroke-linecap="round" stroke-linejoin="round" stroke-width="1"/>
        <line id="Línea_187" data-name="Línea 187" y1="1.737" x2="1.95" transform="translate(118.554 126.985)" fill="none" stroke="#004560" stroke-linecap="round" stroke-linejoin="round" stroke-width="1"/>
        <line id="Línea_188" data-name="Línea 188" y2="2.388" transform="translate(126.537 121.038)" fill="none" stroke="#004560" stroke-linecap="round" stroke-linejoin="round" stroke-width="1"/>
        <path id="Trazado_693777" data-name="Trazado 693777" d="M113.429,117.384a11.515,11.515,0,0,1,3.471,7.278" transform="translate(23.452 24.27)" fill="none" stroke="#004560" stroke-linecap="round" stroke-linejoin="round" stroke-width="1"/>
        <path id="Trazado_693778" data-name="Trazado 693778" d="M110.072,124.37a5.776,5.776,0,0,1,0,2.587" transform="translate(22.758 25.714)" fill="none" stroke="#004560" stroke-linecap="round" stroke-linejoin="round" stroke-width="1"/>
        <path id="Trazado_693779" data-name="Trazado 693779" d="M100.6,115.474a17.557,17.557,0,0,0,1.519,5.943" transform="translate(20.799 23.875)" fill="none" stroke="#004560" stroke-linecap="round" stroke-linejoin="round" stroke-width="1"/>
        <path id="Trazado_693780" data-name="Trazado 693780" d="M107.5,111.287a11.331,11.331,0,0,1,2.068,2.375" transform="translate(22.226 23.009)" fill="none" stroke="#004560" stroke-linecap="round" stroke-linejoin="round" stroke-width="1"/>
        <path id="Trazado_693781" data-name="Trazado 693781" d="M84.516,70.086s.628,3.1,2.179,4.138" transform="translate(17.474 14.491)" fill="none" stroke="#004560" stroke-linecap="round" stroke-linejoin="round" stroke-width="1"/>
        <path id="Trazado_693782" data-name="Trazado 693782" d="M92.964,81.228a10.722,10.722,0,0,0,2.457,2.008" transform="translate(19.221 16.795)" fill="none" stroke="#004560" stroke-linecap="round" stroke-linejoin="round" stroke-width="1"/>
        <path id="Trazado_693783" data-name="Trazado 693783" d="M62.178,190.235s27.553.173,34.529,0,22.835.294,22.835.294" transform="translate(12.856 39.325)" fill="none" stroke="#bf6d60" stroke-linecap="round" stroke-linejoin="round" stroke-width="1"/>
        <path id="Trazado_693784" data-name="Trazado 693784" d="M121.189,62.822a5.756,5.756,0,0,1-.094-8.907c3.32-2.721,8.693-5.1,16.636-3.24,10.14,2.377,17.645,11.126,15.409,20.658-1.553,6.624-7.44,9.523-14.579,10.773-2.537.475-3.048,2.352-3.571,4.582a3.89,3.89,0,0,1-4.674,2.9l-3.583-.841a3.886,3.886,0,0,1-2.9-4.673l.84-3.583c.7-2.975,1.4-5.376,4.905-6.624,4.743-1.669,8.643-.968,9.768-5.767a5.531,5.531,0,0,0-4.175-6.828,7.64,7.64,0,0,0-6.717,1.546,5.8,5.8,0,0,1-7.268,0m12.366,39.719a7.95,7.95,0,1,1-5.951-9.6,7.926,7.926,0,0,1,5.951,9.6" transform="translate(24.369 10.34)" fill="#ff9400"/>
        <path id="Trazado_693785" data-name="Trazado 693785" d="M539.367,70.948s-4.379,20.767-1.825,32.447,10.95,10.22,12.227,9.854,2.369-3.783,2.369-3.783a5.841,5.841,0,0,0,5.287,2.871,18.748,18.748,0,0,0,7.492-2.534s11.509,2.716,18.256,1.257,7.708-4.381,7.708-4.381,3.992,1.825,8.541-2.19-1.842-20.2-4.3-26.619-55.751-6.923-55.751-6.923" transform="translate(110.976 14.669)" fill="#00557f"/>
        <path id="Trazado_693786" data-name="Trazado 693786" d="M557.367,352.547l1.46,16.79,13.5-2.007V352Z" transform="translate(115.24 72.779)" fill="#ffa78c"/>
        <path id="Trazado_693787" data-name="Trazado 693787" d="M602.888,352l3.833,15.147h12.227L617.488,352Z" transform="translate(124.652 72.779)" fill="#ffa78c"/>
        <path id="Trazado_693788" data-name="Trazado 693788" d="M572.586,363.039s10.768,13.687,15.877,16.79,2.737,6.023.73,6.753-7.8.257-18.8,0c-.977-.023-8.405-.748-12.281-1.3a2.3,2.3,0,0,1-1.945-2.654l2.773-17.17,11.683-2.068Z" transform="translate(114.986 75.061)" fill="#00557f"/>
        <path id="Trazado_693789" data-name="Trazado 693789" d="M605.6,361.651l-1.7,20.867a1.561,1.561,0,0,0,1.407,1.683c4.687.449,18.625,1.769,20.415,1.769,2.155,0,13.174,0,15.57-1.368s1.676-3.833,0-5.475-11.019-6.844-11.019-6.844l-11.929-11.147Z" transform="translate(124.86 74.668)" fill="#00557f"/>
        <path id="Trazado_693790" data-name="Trazado 693790" d="M599.5,117.741s-8.976-9.783-30.529-9.783c-16.422,0-30.527,11.625-30.527,11.625l11.772,55.029-5.677,25.473h63.868l-6.094-28.874s6.535-38.123-2.813-53.47" transform="translate(111.328 22.321)" fill="#ffd07f"/>
        <path id="Trazado_693791" data-name="Trazado 693791" d="M588.485,67.057s3.817,20.76,3.95,26.782-5.615,12.188-11.9,15.492-19.354-2.622-22.261-6.869-8.569-26.815-8.569-26.815,27.264-21.912,38.778-8.59" transform="translate(113.656 12.976)" fill="#ffa78c"/>
        <path id="Trazado_693792" data-name="Trazado 693792" d="M576.758,101.106a42.729,42.729,0,0,0,2.779,13.441l-19.758-3.03L556.22,94.6Z" transform="translate(115.003 19.56)" fill="#ffa78c"/>
        <path id="Trazado_693793" data-name="Trazado 693793" d="M556.658,83.514s-4.474-5.773-8.177-2.862-.164,10.9,3.024,13.251,6.678-1,6.678-1Z" transform="translate(113.075 16.506)" fill="#ffa78c"/>
        <path id="Trazado_693794" data-name="Trazado 693794" d="M575.853,102.544s-8.568.141-14.41-3.286c0,0,7.787,9.456,15.425,9.385Z" transform="translate(116.083 20.522)" fill="#d88471"/>
        <path id="Trazado_693795" data-name="Trazado 693795" d="M582.266,66.944s1.045,7.34-9.257,12.2c-7.68,3.623-9.631,7.533-9.631,7.533s2.007,7.368-3.862,9.495c0,0-3.617-11.866-8.3-10.283s-.086,15.4,7.191,13.912a18.626,18.626,0,0,1,2.792,9.871s-16.746-8.051-21.445-22.506,4.771-20.753,4.771-20.753,2.319-7.909,14.168-12.405,25.236-1.769,31.719,3.419a12.263,12.263,0,0,1,4.822,11.959s4.776,3.648,4.223,9.1-5.829,7.662-5.829,7.662-3.678-14.359-6.72-17.9-4.642-1.311-4.642-1.311" transform="translate(111.328 10.697)" fill="#00557f"/>
        <path id="Trazado_693796" data-name="Trazado 693796" d="M575.217,78.616s.385,4.274,2.529,6.564-1.2,4.144-1.2,4.144" transform="translate(118.93 16.254)" fill="none" stroke="#bf6d60" stroke-linecap="round" stroke-linejoin="round" stroke-width="1"/>
        <path id="Trazado_693797" data-name="Trazado 693797" d="M582.526,73.4s-2.987-2.487-5.38.2" transform="translate(119.329 14.959)" fill="none" stroke="#00557f" stroke-linecap="round" stroke-linejoin="round" stroke-width="1"/>
        <path id="Trazado_693798" data-name="Trazado 693798" d="M570.5,75.5a17.611,17.611,0,0,1-5.819,2.872" transform="translate(116.751 15.609)" fill="none" stroke="#00557f" stroke-linecap="round" stroke-linejoin="round" stroke-width="1"/>
        <path id="Trazado_693799" data-name="Trazado 693799" d="M549.5,83.125s3.793.969,5.286,5.913" transform="translate(113.613 17.187)" fill="none" stroke="#bf6d60" stroke-linecap="round" stroke-linejoin="round" stroke-width="1"/>
        <path id="Trazado_693800" data-name="Trazado 693800" d="M551.748,88.115a2.792,2.792,0,0,1,.638-2.818" transform="translate(114.049 17.636)" fill="none" stroke="#bf6d60" stroke-linecap="round" stroke-linejoin="round" stroke-width="1"/>
        <path id="Trazado_693801" data-name="Trazado 693801" d="M567.538,82.306c.271,1.152,1.021,1.961,1.675,1.807s.963-1.213.691-2.364-1.022-1.961-1.675-1.808-.963,1.213-.691,2.365" transform="translate(117.322 16.525)" fill="#00557f"/>
        <path id="Trazado_693802" data-name="Trazado 693802" d="M578.608,79.7c.271,1.151,1.021,1.961,1.675,1.807s.963-1.213.691-2.364-1.022-1.961-1.675-1.808-.963,1.213-.691,2.365" transform="translate(119.611 15.985)" fill="#00557f"/>
        <path id="Trazado_693803" data-name="Trazado 693803" d="M578.259,91.816s-2.4-.542-5.076,1.845" transform="translate(118.51 18.973)" fill="none" stroke="#bf6d60" stroke-linecap="round" stroke-linejoin="round" stroke-width="1"/>
        <path id="Trazado_693804" data-name="Trazado 693804" d="M631.267,120.672c-2.819-9.035-20.713-42.732-20.713-42.732a37.727,37.727,0,0,0-6.109-9.828s-4.985-4.444-7.058-5.023a15.363,15.363,0,0,0-4.093-2.441c-2.2-.676-7.435,1.583-7.877,2.492s.819,1.242,2.893.693,2.778-.753,2.778-.753l1.593,1.977c-1.662,1.155-3.127,2.469-3.267,2.977-.281,1.012,1.093,2.526,1.093,2.526s.835,3.179,2,3.529l1.171.349s2.552,4.54,5.65,4.827c0,0,1.41,4.808,4.621,5.6.7,5.961,3.423,28.2,6.013,36.081l-11.251,2.306c.658,4.5,5.912,21.723,5.912,21.723,5.188-.746,30.612-11.57,26.639-24.3" transform="translate(121.021 12.514)" fill="#ffa78c"/>
        <path id="Trazado_693805" data-name="Trazado 693805" d="M627.193,314.95s-3.358-92.668-18.916-130.648H544.411s-6.549,17.865-5.126,55.095c1.144,29.92,8.6,63.006,11.48,74.85-.312,11.693-.245,44.385,8.558,73.747h18.615l-1.1-69.211,5.356-86.49,16.286,77.494-.075-.013s2.523,47.668,17.3,78.22H632.14Z" transform="translate(111.459 38.106)" fill="#00557f"/>
        <path id="Trazado_693806" data-name="Trazado 693806" d="M604.592,80.334a3.445,3.445,0,0,1-3.83.438" transform="translate(124.212 16.61)" fill="none" stroke="#bf6d60" stroke-linecap="round" stroke-linejoin="round" stroke-width="1"/>
        <path id="Trazado_693807" data-name="Trazado 693807" d="M549.731,185.852s-7.683,31.025-5.129,61.319a538.186,538.186,0,0,0,8.941,59.86" transform="translate(112.493 38.426)" fill="none" stroke="#004560" stroke-linecap="round" stroke-linejoin="round" stroke-width="1"/>
        <path id="Trazado_693808" data-name="Trazado 693808" d="M597.09,76.716a1.476,1.476,0,0,0,.367-1.943l-1.282-1.93" transform="translate(123.264 15.061)" fill="none" stroke="#bf6d60" stroke-linecap="round" stroke-linejoin="round" stroke-width="1"/>
        <path id="Trazado_693809" data-name="Trazado 693809" d="M595.508,69.844s-2.981,1.262-3.257,2.666" transform="translate(122.452 14.441)" fill="none" stroke="#bf6d60" stroke-linecap="round" stroke-linejoin="round" stroke-width="1"/>
        <path id="Trazado_693810" data-name="Trazado 693810" d="M593.849,67a6.729,6.729,0,0,0-4.229,2.222" transform="translate(121.908 13.853)" fill="none" stroke="#bf6d60" stroke-linecap="round" stroke-linejoin="round" stroke-width="1"/>
        <path id="Trazado_693811" data-name="Trazado 693811" d="M579.571,110.514l21.853.745,5.634,23.381s-8.929,5.22-16.493,5.038c-11.266-.272-10.995-29.164-10.995-29.164" transform="translate(119.831 22.85)" fill="#ffd07f"/>
        <path id="Trazado_693812" data-name="Trazado 693812" d="M569.8,201.42s1.583.576,2.952.935,2.952.432,2.3-1.079-4.319-3.386-8.064-2.808-4.967.916-4.968.917l-6.673.728-19.961-28.064,6.967-18.273-17.908-12.8a201.691,201.691,0,0,0-10.366,29.63C510.34,185.583,546.718,209,546.718,209a14.178,14.178,0,0,0,6.911,3.648,29.222,29.222,0,0,0,9.029.136c.023,0,.045.006.068,0l.329-.054c.355-.049.556-.084.556-.084v-.008l4.35-.718s1.583.577,2.952.936,2.951.432,2.3-1.08c-.564-1.314-3.414-2.9-6.608-2.911l2.264-.374s1.584.576,2.952.936,2.952.432,2.3-1.08c-.636-1.486-4.194-3.308-7.868-2.823l3.253-.537s1.585.576,2.952.936,2.952.431,2.3-1.08-4.319-3.386-8.062-2.808c-1.338.208-2.342.381-3.1.523v-.121Z" transform="translate(106.235 29.149)" fill="#ffa78c"/>
        <path id="Trazado_693813" data-name="Trazado 693813" d="M541.952,117.64s-14.716,10.905-20.465,29.247l21.436,13.687s9.354-13.37,12.369-23.315-6.973-21.9-13.34-19.619" transform="translate(107.821 24.264)" fill="#ffd07f"/>
        <path id="Trazado_693814" data-name="Trazado 693814" d="M548.506,112.457s7.883,4.981,20.967,4.617,16.521-5.871,16.521-5.871l-5.908-2.181-19.078-1.843Z" transform="translate(113.408 22.16)" fill="#ffa78c"/>
        <path id="Trazado_693815" data-name="Trazado 693815" d="M544.478,148.04a60.525,60.525,0,0,0,4.861-18.9" transform="translate(112.575 26.7)" fill="none" stroke="#bf6d60" stroke-linecap="round" stroke-linejoin="round" stroke-width="1"/>
        <path id="Trazado_693816" data-name="Trazado 693816" d="M588.682,118.37s6.408,13.638,5.935,18.929" transform="translate(121.715 24.474)" fill="none" stroke="#bf6d60" stroke-linecap="round" stroke-linejoin="round" stroke-width="1"/>
        <line id="Línea_189" data-name="Línea 189" x1="14.412" y2="3.285" transform="translate(694.147 191.429)" fill="none" stroke="#bf6d60" stroke-linecap="round" stroke-linejoin="round" stroke-width="1"/>
        <path id="Trazado_693817" data-name="Trazado 693817" d="M551.573,163.168l2.784,1.592-2.784,1.3" transform="translate(114.042 33.736)" fill="none" stroke="#bf6d60" stroke-linecap="round" stroke-linejoin="round" stroke-width="1"/>
        <path id="Trazado_693818" data-name="Trazado 693818" d="M549.959,116.057s14.983,5.123,25.457,2.366,12.731-6.232,12.731-6.232" transform="translate(113.708 23.197)" fill="none" stroke="#bf6d60" stroke-linecap="round" stroke-linejoin="round" stroke-width="1"/>
        <path id="Trazado_693819" data-name="Trazado 693819" d="M533.312,166.726a19.718,19.718,0,0,1-9.443,3.37" transform="translate(108.314 34.472)" fill="none" stroke="#bf6d60" stroke-linecap="round" stroke-linejoin="round" stroke-width="1"/>
        <path id="Trazado_693820" data-name="Trazado 693820" d="M605.744,110.594a66.186,66.186,0,0,0,10.7,3.494" transform="translate(125.242 22.866)" fill="none" stroke="#bf6d60" stroke-linecap="round" stroke-linejoin="round" stroke-width="1"/>
        <path id="Trazado_693821" data-name="Trazado 693821" d="M560.392,292.47a10.782,10.782,0,0,0,10.584,0" transform="translate(115.865 60.47)" fill="none" stroke="#004560" stroke-linecap="round" stroke-linejoin="round" stroke-width="1"/>
        <path id="Trazado_693822" data-name="Trazado 693822" d="M611.928,291.333s-6.935.912-10.4-2.19" transform="translate(124.37 59.783)" fill="none" stroke="#004560" stroke-linecap="round" stroke-linejoin="round" stroke-width="1"/>
        <line id="Línea_190" data-name="Línea 190" x2="6.099" y2="2.19" transform="translate(709.943 347.893)" fill="none" stroke="#004560" stroke-linecap="round" stroke-linejoin="round" stroke-width="1"/>
        <line id="Línea_191" data-name="Línea 191" x2="3.813" y2="3.508" transform="translate(662.223 352.352)" fill="none" stroke="#004560" stroke-linecap="round" stroke-linejoin="round" stroke-width="1"/>
        <path id="Trazado_693823" data-name="Trazado 693823" d="M574.811,228.471s1.4-14,5.411-19.11a19.9,19.9,0,0,1,9.49-6.571" transform="translate(118.847 41.928)" fill="none" stroke="#004560" stroke-linecap="round" stroke-linejoin="round" stroke-width="1"/>
        <path id="Trazado_693824" data-name="Trazado 693824" d="M556.357,378.074s7.514.994,17.917,1.633a96.853,96.853,0,0,0,15.7,0" transform="translate(115.031 78.17)" fill="none" stroke="#004560" stroke-linecap="round" stroke-linejoin="round" stroke-width="1"/>
        <path id="Trazado_693825" data-name="Trazado 693825" d="M604.4,377.688s17.794,1.571,24.547,1.424a62.794,62.794,0,0,0,12.045-1.424" transform="translate(124.964 78.09)" fill="none" stroke="#004560" stroke-linecap="round" stroke-linejoin="round" stroke-width="1"/>
        <path id="Trazado_693826" data-name="Trazado 693826" d="M562.208,364.16s-12.957-45.6-10.22-64.582" transform="translate(114.049 61.94)" fill="none" stroke="#004560" stroke-linecap="round" stroke-linejoin="round" stroke-width="1"/>
        <path id="Trazado_693827" data-name="Trazado 693827" d="M577.639,213.431s15.611,79.869,15.922,87.9" transform="translate(119.431 44.128)" fill="none" stroke="#004560" stroke-linecap="round" stroke-linejoin="round" stroke-width="1"/>
        <path id="Trazado_693828" data-name="Trazado 693828" d="M593.36,293.613s1.825,50.587,15.057,71.78" transform="translate(122.682 60.707)" fill="none" stroke="#004560" stroke-linecap="round" stroke-linejoin="round" stroke-width="1"/>
        <path id="Trazado_693829" data-name="Trazado 693829" d="M543.485,63.932a56.341,56.341,0,0,1,9.087,0" transform="translate(112.37 13.178)" fill="none" stroke="#004560" stroke-linecap="round" stroke-linejoin="round" stroke-width="1"/>
        <path id="Trazado_693830" data-name="Trazado 693830" d="M577.927,62.07a10.725,10.725,0,0,1-2.008,10.714c-4.379,5.255-13.687,4.844-16.15,11.756,0,0,1.5,8.884-3.862,9.495" transform="translate(114.938 12.833)" fill="none" stroke="#004560" stroke-linecap="round" stroke-linejoin="round" stroke-width="1"/>
        <path id="Trazado_693831" data-name="Trazado 693831" d="M557.216,80.146s.092-4.256,1.278-6.356" transform="translate(115.209 15.257)" fill="none" stroke="#004560" stroke-linecap="round" stroke-linejoin="round" stroke-width="1"/>
        <line id="Línea_192" data-name="Línea 192" x2="2.839" y2="1.255" transform="translate(703.723 78.827)" fill="none" stroke="#004560" stroke-linecap="round" stroke-linejoin="round" stroke-width="1"/>
        <path id="Trazado_693832" data-name="Trazado 693832" d="M540.762,84.036a35.117,35.117,0,0,0,0,7.346" transform="translate(111.764 17.375)" fill="none" stroke="#004560" stroke-linecap="round" stroke-linejoin="round" stroke-width="1"/>
        <path id="Trazado_693833" data-name="Trazado 693833" d="M544.911,95.515a23.877,23.877,0,0,0,0,4.516" transform="translate(112.639 19.748)" fill="none" stroke="#004560" stroke-linecap="round" stroke-linejoin="round" stroke-width="1"/>
        <line id="Línea_193" data-name="Línea 193" y2="2.662" transform="translate(666.436 116.68)" fill="none" stroke="#004560" stroke-linecap="round" stroke-linejoin="round" stroke-width="1"/>
        <path id="Trazado_693834" data-name="Trazado 693834" d="M575.217,55.643s4.283,1.368,6.2,3.559" transform="translate(118.93 11.505)" fill="none" stroke="#004560" stroke-linecap="round" stroke-linejoin="round" stroke-width="1"/>
        <line id="Línea_194" data-name="Línea 194" x2="0.258" y2="2.813" transform="translate(706.093 113.867)" fill="none" stroke="#004560" stroke-linecap="round" stroke-linejoin="round" stroke-width="1"/>
        <path id="Trazado_693835" data-name="Trazado 693835" d="M545.018,69.844a12.775,12.775,0,0,0-.638,5.584" transform="translate(112.532 14.441)" fill="none" stroke="#004560" stroke-linecap="round" stroke-linejoin="round" stroke-width="1"/>
        <path id="Trazado_693836" data-name="Trazado 693836" d="M564.87,61.39a8.394,8.394,0,0,1-1.126,3.741" transform="translate(116.558 12.693)" fill="none" stroke="#004560" stroke-linecap="round" stroke-linejoin="round" stroke-width="1"/>
        <path id="Trazado_693837" data-name="Trazado 693837" d="M550.335,59.658a18.16,18.16,0,0,1,7.138-4.015" transform="translate(113.786 11.505)" fill="none" stroke="#004560" stroke-linecap="round" stroke-linejoin="round" stroke-width="1"/>
        <path id="Trazado_693838" data-name="Trazado 693838" d="M643.921,6.417H595.467a10.138,10.138,0,0,0-10.138,10.138V53.767A10.138,10.138,0,0,0,595.467,63.9h15.965L609.8,70.946a2.288,2.288,0,0,0,3.48,2.432L627.759,63.9h16.162a10.138,10.138,0,0,0,10.138-10.138V16.555A10.138,10.138,0,0,0,643.921,6.417" transform="translate(121.021 1.327)" fill="#ff9400"/>
        <path id="Trazado_693839" data-name="Trazado 693839" d="M605.271,22.8a4.407,4.407,0,0,1-1.562-6.637c2.023-2.587,5.637-5.267,11.881-5.206,7.972.076,15.042,5.353,14.97,12.846-.051,5.208-3.962,8.358-9.083,10.488-1.815.78-1.883,2.267-1.9,4.021a2.976,2.976,0,0,1-3,2.947l-2.817-.027a2.978,2.978,0,0,1-2.947-3.006l.027-2.817c.023-2.337.148-4.249,2.555-5.767,3.262-2.041,6.292-2.171,6.328-5.944a4.232,4.232,0,0,0-4.262-4.4,5.844,5.844,0,0,0-4.757,2.28,4.442,4.442,0,0,1-5.428,1.221m15.889,27.591a6.085,6.085,0,1,1-6.052-6.171,6.067,6.067,0,0,1,6.052,6.171" transform="translate(124.633 2.264)" fill="#fff"/>
      </g>
    </g>
    <path id="Trazado_701932" data-name="Trazado 701932" d="M23.5,0h116a23.5,23.5,0,0,1,0,47H23.5a23.5,23.5,0,0,1,0-47Z" transform="translate(350 5308)" fill="#112e4c"/>
    <path id="Trazado_701933" data-name="Trazado 701933" d="M12.465,10.654a5.151,5.151,0,0,1-.257,1.786,3.47,3.47,0,0,1-.917,1.3,9.675,9.675,0,0,0-.9.914,2.384,2.384,0,0,0-.357.607,1.833,1.833,0,0,0-.12.674A1.142,1.142,0,0,0,11.2,17.237a1.381,1.381,0,0,0,1.017-.374,1.464,1.464,0,0,0,.394-1.048h2.4A3.2,3.2,0,0,1,13.984,18.3a3.987,3.987,0,0,1-2.748.893,4.081,4.081,0,0,1-2.748-.843,3,3,0,0,1-.979-2.405,3.7,3.7,0,0,1,1.27-2.592l.805-.773a2.129,2.129,0,0,0,.577-.781,3.424,3.424,0,0,0,.178-1.147Zm.3-2.536a1.189,1.189,0,0,1-.382.91,1.481,1.481,0,0,1-1.926,0,1.189,1.189,0,0,1-.382-.91,1.208,1.208,0,0,1,.369-.91,1.347,1.347,0,0,1,.975-.356,1.347,1.347,0,0,1,.975.356A1.208,1.208,0,0,1,12.764,8.118Zm6.2,3.623V16h-2.49V3.914h4.715a5.455,5.455,0,0,1,2.395.5,3.67,3.67,0,0,1,1.59,1.415,3.946,3.946,0,0,1,.556,2.088,3.47,3.47,0,0,1-1.216,2.8,5.065,5.065,0,0,1-3.366,1.025Zm0-2.017h2.225A2.187,2.187,0,0,0,22.7,9.26a1.691,1.691,0,0,0,.519-1.328A1.994,1.994,0,0,0,22.692,6.5a1.953,1.953,0,0,0-1.444-.564H18.965Zm7.836,1.7a5.327,5.327,0,0,1,.515-2.382A3.768,3.768,0,0,1,28.8,7.425a4.323,4.323,0,0,1,2.245-.573A4.09,4.09,0,0,1,34.01,7.965a4.464,4.464,0,0,1,1.282,3.021l.017.614a4.694,4.694,0,0,1-1.154,3.316,4.011,4.011,0,0,1-3.1,1.249,4.031,4.031,0,0,1-3.1-1.245A4.777,4.777,0,0,1,26.8,11.534Zm2.4.17a3.357,3.357,0,0,0,.481,1.958,1.73,1.73,0,0,0,2.739.008,3.674,3.674,0,0,0,.49-2.141,3.324,3.324,0,0,0-.49-1.945,1.592,1.592,0,0,0-1.378-.69,1.566,1.566,0,0,0-1.361.686A3.735,3.735,0,0,0,29.2,11.6ZM41.833,9.268A6.517,6.517,0,0,0,40.97,9.2a1.757,1.757,0,0,0-1.785.921V16h-2.4V7.019h2.266l.066,1.071a2.223,2.223,0,0,1,2-1.237,2.514,2.514,0,0,1,.747.108Zm5.014,2.158a5.369,5.369,0,0,1,.942-3.345,3.08,3.08,0,0,1,2.586-1.229,2.758,2.758,0,0,1,2.3,1.1l.158-.938H54.94V19.453H52.533V15.228a2.765,2.765,0,0,1-2.175.938A3.057,3.057,0,0,1,47.8,14.921,5.632,5.632,0,0,1,46.847,11.426Zm2.4.17a3.522,3.522,0,0,0,.452,1.962,1.448,1.448,0,0,0,1.274.673,1.613,1.613,0,0,0,1.561-.881V9.635a1.6,1.6,0,0,0-1.544-.848A1.466,1.466,0,0,0,49.7,9.46,3.889,3.889,0,0,0,49.246,11.6ZM62.2,15.087a3.008,3.008,0,0,1-2.457,1.079,2.837,2.837,0,0,1-2.2-.83,3.543,3.543,0,0,1-.776-2.432V7.019h2.4v5.809q0,1.4,1.278,1.4a1.732,1.732,0,0,0,1.677-.848V7.019h2.407V16H62.27Zm8.268,1.079a4.409,4.409,0,0,1-3.217-1.212,4.308,4.308,0,0,1-1.241-3.229v-.232a5.426,5.426,0,0,1,.523-2.42,3.838,3.838,0,0,1,1.482-1.644,4.159,4.159,0,0,1,2.187-.577,3.727,3.727,0,0,1,2.9,1.162,4.722,4.722,0,0,1,1.058,3.3v.979H68.446a2.229,2.229,0,0,0,.7,1.411,2.12,2.12,0,0,0,1.482.531,2.589,2.589,0,0,0,2.167-1l1.179,1.32a3.6,3.6,0,0,1-1.461,1.191A4.793,4.793,0,0,1,70.471,16.166ZM70.2,8.787a1.5,1.5,0,0,0-1.158.484,2.5,2.5,0,0,0-.569,1.384h3.337v-.192a1.786,1.786,0,0,0-.432-1.238A1.547,1.547,0,0,0,70.2,8.787Zm.216-5.537h2.615l-2.3,2.573H68.778ZM77.485,12.3a4.994,4.994,0,0,1,.282-1.853A3.8,3.8,0,0,1,78.8,9.086,5.284,5.284,0,0,0,79.8,8a1.709,1.709,0,0,0,.249-.886q0-1.405-1.295-1.405a1.312,1.312,0,0,0-.984.379,1.487,1.487,0,0,0-.386,1.044H74.978A3.2,3.2,0,0,1,76,4.645,4.735,4.735,0,0,1,81.486,4.6a3.03,3.03,0,0,1,.971,2.405,2.928,2.928,0,0,1-.315,1.334,5.494,5.494,0,0,1-1.1,1.392l-.672.64a2.279,2.279,0,0,0-.722,1.421l-.033.507Zm-.241,2.544a1.208,1.208,0,0,1,.378-.914,1.479,1.479,0,0,1,1.934,0,1.29,1.29,0,0,1,.008,1.816,1.515,1.515,0,0,1-1.951,0A1.2,1.2,0,0,1,77.244,14.842Z" transform="translate(367 5322)" fill="#fff"/>
    <path id="Trazado_701934" data-name="Trazado 701934" d="M23.5,0h116a23.5,23.5,0,0,1,0,47H23.5a23.5,23.5,0,0,1,0-47Z" transform="translate(719 5331)" fill="#112e4c"/>
    <path id="Trazado_701935" data-name="Trazado 701935" d="M13.067,10.654a5.151,5.151,0,0,1-.257,1.786,3.47,3.47,0,0,1-.917,1.3,9.675,9.675,0,0,0-.9.914,2.384,2.384,0,0,0-.357.607,1.833,1.833,0,0,0-.12.674A1.142,1.142,0,0,0,11.8,17.237a1.381,1.381,0,0,0,1.017-.374,1.464,1.464,0,0,0,.394-1.048h2.4A3.2,3.2,0,0,1,14.586,18.3a3.987,3.987,0,0,1-2.748.893,4.081,4.081,0,0,1-2.748-.843,3,3,0,0,1-.979-2.405,3.7,3.7,0,0,1,1.27-2.592l.805-.773a2.129,2.129,0,0,0,.577-.781,3.424,3.424,0,0,0,.178-1.147Zm.3-2.536a1.189,1.189,0,0,1-.382.91,1.481,1.481,0,0,1-1.926,0,1.189,1.189,0,0,1-.382-.91,1.208,1.208,0,0,1,.369-.91,1.347,1.347,0,0,1,.975-.356A1.347,1.347,0,0,1,13,7.208,1.208,1.208,0,0,1,13.366,8.118ZM23.9,13.51H19.533L18.7,16H16.055l4.5-12.086h2.308L27.386,16H24.738Zm-3.694-2.017h3.021L21.708,6.969Zm12.011-.066a5.369,5.369,0,0,1,.942-3.345,3.08,3.08,0,0,1,2.586-1.229,2.758,2.758,0,0,1,2.3,1.1l.158-.938H40.31V19.453H37.9V15.228a2.765,2.765,0,0,1-2.175.938,3.057,3.057,0,0,1-2.557-1.245A5.632,5.632,0,0,1,32.217,11.426Zm2.4.17a3.522,3.522,0,0,0,.452,1.962,1.448,1.448,0,0,0,1.274.673,1.613,1.613,0,0,0,1.561-.881V9.635a1.6,1.6,0,0,0-1.544-.848,1.466,1.466,0,0,0-1.287.673A3.889,3.889,0,0,0,34.616,11.6Zm12.958,3.49a3.008,3.008,0,0,1-2.457,1.079,2.837,2.837,0,0,1-2.2-.83,3.543,3.543,0,0,1-.776-2.432V7.019h2.4v5.809q0,1.4,1.278,1.4a1.732,1.732,0,0,0,1.677-.848V7.019H49.9V16H47.64ZM54.239,16H51.832V7.019h2.407ZM51.69,4.694a1.181,1.181,0,0,1,.361-.888,1.556,1.556,0,0,1,1.963,0,1.175,1.175,0,0,1,.365.888,1.178,1.178,0,0,1-.369.9,1.539,1.539,0,0,1-1.951,0A1.178,1.178,0,0,1,51.69,4.694Zm8.658,11.472a4.409,4.409,0,0,1-3.217-1.212,4.308,4.308,0,0,1-1.241-3.229v-.232a5.426,5.426,0,0,1,.523-2.42A3.838,3.838,0,0,1,57.9,7.429a4.159,4.159,0,0,1,2.187-.577,3.727,3.727,0,0,1,2.9,1.162,4.722,4.722,0,0,1,1.058,3.3v.979H58.323a2.229,2.229,0,0,0,.7,1.411,2.12,2.12,0,0,0,1.482.531,2.589,2.589,0,0,0,2.167-1l1.179,1.32a3.6,3.6,0,0,1-1.461,1.191A4.793,4.793,0,0,1,60.348,16.166Zm-.274-7.379a1.5,1.5,0,0,0-1.158.484,2.5,2.5,0,0,0-.569,1.384h3.337v-.192a1.786,1.786,0,0,0-.432-1.238A1.547,1.547,0,0,0,60.074,8.787ZM60.29,3.25H62.9l-2.3,2.573H58.655Zm7.321,3.769.075,1.038a3.136,3.136,0,0,1,2.582-1.2,2.606,2.606,0,0,1,2.125.838,3.912,3.912,0,0,1,.714,2.507V16h-2.4V10.243a1.562,1.562,0,0,0-.332-1.111,1.484,1.484,0,0,0-1.1-.345,1.65,1.65,0,0,0-1.519.865V16h-2.4V7.019ZM76.883,12.3a4.994,4.994,0,0,1,.282-1.853A3.8,3.8,0,0,1,78.2,9.086,5.284,5.284,0,0,0,79.2,8a1.709,1.709,0,0,0,.249-.886q0-1.405-1.295-1.405a1.312,1.312,0,0,0-.984.379,1.487,1.487,0,0,0-.386,1.044H74.376A3.2,3.2,0,0,1,75.4,4.645,4.735,4.735,0,0,1,80.884,4.6a3.03,3.03,0,0,1,.971,2.405,2.928,2.928,0,0,1-.315,1.334,5.494,5.494,0,0,1-1.1,1.392l-.672.64a2.279,2.279,0,0,0-.722,1.421l-.033.507Zm-.241,2.544a1.208,1.208,0,0,1,.378-.914,1.479,1.479,0,0,1,1.934,0,1.29,1.29,0,0,1,.008,1.816,1.515,1.515,0,0,1-1.951,0A1.2,1.2,0,0,1,76.643,14.842Z" transform="translate(736 5345)" fill="#fff"/>
    <path id="Trazado_701936" data-name="Trazado 701936" d="M23.5,0h116a23.5,23.5,0,0,1,0,47H23.5a23.5,23.5,0,0,1,0-47Z" transform="translate(1069 5297)" fill="#112e4c"/>
    <path id="Trazado_701937" data-name="Trazado 701937" d="M26.85,10.654a5.151,5.151,0,0,1-.257,1.786,3.47,3.47,0,0,1-.917,1.3,9.675,9.675,0,0,0-.9.914,2.384,2.384,0,0,0-.357.607,1.833,1.833,0,0,0-.12.674,1.142,1.142,0,0,0,1.278,1.305,1.381,1.381,0,0,0,1.017-.374,1.464,1.464,0,0,0,.394-1.048h2.4A3.2,3.2,0,0,1,28.369,18.3a3.987,3.987,0,0,1-2.748.893,4.081,4.081,0,0,1-2.748-.843,3,3,0,0,1-.979-2.405,3.7,3.7,0,0,1,1.27-2.592l.805-.773a2.129,2.129,0,0,0,.577-.781,3.424,3.424,0,0,0,.178-1.147Zm.3-2.536a1.189,1.189,0,0,1-.382.91,1.481,1.481,0,0,1-1.926,0,1.189,1.189,0,0,1-.382-.91,1.208,1.208,0,0,1,.369-.91,1.515,1.515,0,0,1,1.951,0A1.208,1.208,0,0,1,27.149,8.118Zm13.622,2.113a7.282,7.282,0,0,1-.548,2.943,5.052,5.052,0,0,1-1.519,2l2.009,1.577-1.585,1.4-2.573-2.067a5.447,5.447,0,0,1-.913.075,5.028,5.028,0,0,1-2.681-.722,4.8,4.8,0,0,1-1.826-2.063,7.087,7.087,0,0,1-.656-3.084V9.7a7.258,7.258,0,0,1,.643-3.142,4.79,4.79,0,0,1,1.818-2.083,5.327,5.327,0,0,1,5.371,0,4.79,4.79,0,0,1,1.818,2.083,7.237,7.237,0,0,1,.643,3.134Zm-2.523-.548a5.086,5.086,0,0,0-.681-2.889,2.4,2.4,0,0,0-3.876-.012A5.028,5.028,0,0,0,33,9.642v.589a5.15,5.15,0,0,0,.681,2.872,2.383,2.383,0,0,0,3.885.037,5.12,5.12,0,0,0,.681-2.868Zm9.571,5.4a3.008,3.008,0,0,1-2.457,1.079,2.837,2.837,0,0,1-2.2-.83,3.543,3.543,0,0,1-.776-2.432V7.019h2.4v5.809q0,1.4,1.278,1.4a1.732,1.732,0,0,0,1.677-.848V7.019h2.407V16H47.885Zm8.268,1.079a4.409,4.409,0,0,1-3.217-1.212,4.308,4.308,0,0,1-1.241-3.229v-.232a5.426,5.426,0,0,1,.523-2.42,3.838,3.838,0,0,1,1.482-1.644,4.159,4.159,0,0,1,2.187-.577,3.727,3.727,0,0,1,2.9,1.162,4.722,4.722,0,0,1,1.058,3.3v.979H54.06a2.229,2.229,0,0,0,.7,1.411,2.12,2.12,0,0,0,1.482.531,2.589,2.589,0,0,0,2.167-1l1.179,1.32a3.6,3.6,0,0,1-1.461,1.191A4.793,4.793,0,0,1,56.086,16.166Zm-.274-7.379a1.5,1.5,0,0,0-1.158.484,2.5,2.5,0,0,0-.569,1.384h3.337v-.192a1.786,1.786,0,0,0-.432-1.238A1.547,1.547,0,0,0,55.812,8.787Zm.216-5.537h2.615l-2.3,2.573H54.392ZM63.1,12.3a4.994,4.994,0,0,1,.282-1.853,3.8,3.8,0,0,1,1.033-1.358,5.284,5.284,0,0,0,1-1.089,1.709,1.709,0,0,0,.249-.886q0-1.405-1.295-1.405a1.312,1.312,0,0,0-.984.379A1.487,1.487,0,0,0,63,7.13H60.593a3.2,3.2,0,0,1,1.025-2.484A4.735,4.735,0,0,1,67.1,4.6a3.03,3.03,0,0,1,.971,2.405,2.928,2.928,0,0,1-.315,1.334,5.494,5.494,0,0,1-1.1,1.392l-.672.64a2.279,2.279,0,0,0-.722,1.421l-.033.507Zm-.241,2.544a1.208,1.208,0,0,1,.378-.914,1.479,1.479,0,0,1,1.934,0,1.29,1.29,0,0,1,.008,1.816,1.515,1.515,0,0,1-1.951,0A1.2,1.2,0,0,1,62.859,14.842Z" transform="translate(1125 5311)" fill="#fff"/>
  </g>
</svg>
