<svg xmlns="http://www.w3.org/2000/svg" xmlns:xlink="http://www.w3.org/1999/xlink" width="295" height="279" viewBox="0 0 295 279">
  <defs>
    <clipPath id="clip-path">
      <rect id="Rectángulo_33768" data-name="Rectángulo 33768" width="272.387" height="213.637" fill="none" stroke="#707070" stroke-width="1"/>
    </clipPath>
    <clipPath id="clip-path-2">
      <rect id="Rectángulo_33845" data-name="Rectángulo 33845" width="272.387" height="186.811" transform="translate(0 0)" fill="none"/>
    </clipPath>
    <clipPath id="clip-path-3">
      <rect id="Rectángulo_33841" data-name="Rectángulo 33841" width="235.063" height="192.275" fill="none"/>
    </clipPath>
    <clipPath id="clip-path-4">
      <rect id="Rectángulo_344431" data-name="Rectángulo 344431" width="164.806" height="235.001" fill="#ffa031" opacity="0.53"/>
    </clipPath>
    <clipPath id="clip-path-5">
      <rect id="Rectángulo_344430" data-name="Rectángulo 344430" width="200.668" height="241.867" fill="none"/>
    </clipPath>
    <clipPath id="clip-path-6">
      <rect id="portrait-woman-teaching-sign-language" width="295" height="279" rx="17" transform="translate(1125 782)" fill="#eeedeb"/>
    </clipPath>
    <clipPath id="clip-path-7">
      <rect id="Rectángulo_33768-2" data-name="Rectángulo 33768" width="100.349" height="78.705" fill="none" stroke="#707070" stroke-width="1"/>
    </clipPath>
    <clipPath id="clip-path-8">
      <rect id="Rectángulo_33845-2" data-name="Rectángulo 33845" width="100.349" height="68.822" fill="none"/>
    </clipPath>
    <clipPath id="clip-path-9">
      <rect id="Rectángulo_33841-2" data-name="Rectángulo 33841" width="86.599" height="70.835" fill="none"/>
    </clipPath>
  </defs>
  <g id="Grupo_990712" data-name="Grupo 990712" transform="translate(-1125 -782)">
    <rect id="portrait-woman-teaching-sign-language-2" data-name="portrait-woman-teaching-sign-language" width="295" height="279" rx="17" transform="translate(1125 782)" fill="#eeedeb"/>
    <g id="Grupo_990645" data-name="Grupo 990645" transform="translate(515 -292)">
      <g id="Grupo_990643" data-name="Grupo 990643" transform="translate(621 1118)">
        <g id="Grupo_951800" data-name="Grupo 951800" transform="translate(0 5.341)">
          <g id="Grupo_951798" data-name="Grupo 951798" transform="translate(0.381 12.68)">
            <g id="Grupo_80327" data-name="Grupo 80327" transform="translate(0 0)" clip-path="url(#clip-path-2)">
              <path id="Trazado_113636" data-name="Trazado 113636" d="M163.615,230.825a81.807,81.807,0,1,1-81.807-81.807,81.807,81.807,0,0,1,81.807,81.807" transform="translate(0 -125.822)" fill="#4db1f0"/>
              <path id="Sustracción_2" data-name="Sustracción 2" d="M59.277,118.557a59.763,59.763,0,0,1-11.946-1.2,58.959,58.959,0,0,1-21.2-8.92A59.44,59.44,0,0,1,4.658,82.351,58.924,58.924,0,0,1,1.2,71.225a59.86,59.86,0,0,1,0-23.893,58.963,58.963,0,0,1,8.919-21.2A59.442,59.442,0,0,1,36.2,4.658,58.975,58.975,0,0,1,47.331,1.2a59.858,59.858,0,0,1,23.893,0,58.962,58.962,0,0,1,21.2,8.919A59.448,59.448,0,0,1,113.9,36.2a58.948,58.948,0,0,1,3.454,11.127,59.859,59.859,0,0,1,0,23.893,58.976,58.976,0,0,1-8.919,21.2A59.457,59.457,0,0,1,82.351,113.9a59,59,0,0,1-11.127,3.454A59.764,59.764,0,0,1,59.277,118.557Zm0-106.868a47.59,47.59,0,1,0,47.59,47.59A47.643,47.643,0,0,0,59.277,11.689Z" transform="translate(153.831 68.254)" fill="#ffa031" stroke="rgba(0,0,0,0)" stroke-miterlimit="10" stroke-width="1"/>
              <path id="Trazado_113639" data-name="Trazado 113639" d="M609.119,662.391a28.927,28.927,0,1,1-28.927-28.927,28.927,28.927,0,0,1,28.927,28.927" transform="translate(-465.454 -534.858)" fill="#fff"/>
              <path id="Trazado_113640" data-name="Trazado 113640" d="M1470.581,263.47a1.828,1.828,0,1,1-1.828-1.828,1.828,1.828,0,0,1,1.828,1.828" transform="translate(-1238.581 -220.915)" fill="#f9e8dc"/>
              <path id="Trazado_113641" data-name="Trazado 113641" d="M1522.255,263.47a1.828,1.828,0,1,1-1.828-1.828,1.828,1.828,0,0,1,1.828,1.828" transform="translate(-1282.212 -220.915)" fill="#f9e8dc"/>
              <path id="Trazado_113642" data-name="Trazado 113642" d="M1573.931,263.47a1.828,1.828,0,1,1-1.828-1.828,1.828,1.828,0,0,1,1.828,1.828" transform="translate(-1325.843 -220.915)" fill="#f9e8dc"/>
              <path id="Trazado_113643" data-name="Trazado 113643" d="M1625.606,263.47a1.828,1.828,0,1,1-1.828-1.828,1.828,1.828,0,0,1,1.828,1.828" transform="translate(-1369.474 -220.915)" fill="#f9e8dc"/>
              <path id="Trazado_113644" data-name="Trazado 113644" d="M1677.28,263.47a1.828,1.828,0,1,1-1.828-1.828,1.828,1.828,0,0,1,1.828,1.828" transform="translate(-1413.105 -220.915)" fill="#f9e8dc"/>
              <path id="Trazado_113645" data-name="Trazado 113645" d="M1470.581,312.8a1.828,1.828,0,1,1-1.828-1.828,1.828,1.828,0,0,1,1.828,1.828" transform="translate(-1238.581 -262.563)" fill="#f9e8dc"/>
              <path id="Trazado_113646" data-name="Trazado 113646" d="M1522.255,312.8a1.828,1.828,0,1,1-1.828-1.828,1.828,1.828,0,0,1,1.828,1.828" transform="translate(-1282.212 -262.563)" fill="#f9e8dc"/>
              <path id="Trazado_113647" data-name="Trazado 113647" d="M1573.931,312.8a1.828,1.828,0,1,1-1.828-1.828,1.828,1.828,0,0,1,1.828,1.828" transform="translate(-1325.843 -262.563)" fill="#f9e8dc"/>
              <path id="Trazado_113648" data-name="Trazado 113648" d="M1625.606,312.8a1.828,1.828,0,1,1-1.828-1.828,1.828,1.828,0,0,1,1.828,1.828" transform="translate(-1369.474 -262.563)" fill="#f9e8dc"/>
              <path id="Trazado_113649" data-name="Trazado 113649" d="M1677.28,312.8a1.828,1.828,0,1,1-1.828-1.828,1.828,1.828,0,0,1,1.828,1.828" transform="translate(-1413.105 -262.563)" fill="#f9e8dc"/>
              <path id="Trazado_113650" data-name="Trazado 113650" d="M1470.581,362.122a1.828,1.828,0,1,1-1.828-1.828,1.828,1.828,0,0,1,1.828,1.828" transform="translate(-1238.581 -304.21)" fill="#f9e8dc"/>
              <path id="Trazado_113651" data-name="Trazado 113651" d="M1522.255,362.122a1.828,1.828,0,1,1-1.828-1.828,1.828,1.828,0,0,1,1.828,1.828" transform="translate(-1282.212 -304.21)" fill="#f9e8dc"/>
              <path id="Trazado_113652" data-name="Trazado 113652" d="M1573.931,362.122a1.828,1.828,0,1,1-1.828-1.828,1.828,1.828,0,0,1,1.828,1.828" transform="translate(-1325.843 -304.21)" fill="#f9e8dc"/>
              <path id="Trazado_113653" data-name="Trazado 113653" d="M1625.606,362.122a1.828,1.828,0,1,1-1.828-1.828,1.828,1.828,0,0,1,1.828,1.828" transform="translate(-1369.474 -304.21)" fill="#f9e8dc"/>
              <path id="Trazado_113654" data-name="Trazado 113654" d="M1677.28,362.122a1.828,1.828,0,1,1-1.828-1.828,1.828,1.828,0,0,1,1.828,1.828" transform="translate(-1413.105 -304.21)" fill="#f9e8dc"/>
              <path id="Trazado_113655" data-name="Trazado 113655" d="M1470.581,411.449a1.828,1.828,0,1,1-1.828-1.828,1.828,1.828,0,0,1,1.828,1.828" transform="translate(-1238.581 -345.859)" fill="#f9e8dc"/>
              <path id="Trazado_113656" data-name="Trazado 113656" d="M1522.255,411.449a1.828,1.828,0,1,1-1.828-1.828,1.828,1.828,0,0,1,1.828,1.828" transform="translate(-1282.212 -345.859)" fill="#f9e8dc"/>
              <path id="Trazado_113657" data-name="Trazado 113657" d="M1573.931,411.449a1.828,1.828,0,1,1-1.828-1.828,1.828,1.828,0,0,1,1.828,1.828" transform="translate(-1325.843 -345.859)" fill="#f9e8dc"/>
              <path id="Trazado_113658" data-name="Trazado 113658" d="M1625.606,411.449a1.828,1.828,0,1,1-1.828-1.828,1.828,1.828,0,0,1,1.828,1.828" transform="translate(-1369.474 -345.859)" fill="#f9e8dc"/>
              <path id="Trazado_113659" data-name="Trazado 113659" d="M1677.28,411.449a1.828,1.828,0,1,1-1.828-1.828,1.828,1.828,0,0,1,1.828,1.828" transform="translate(-1413.105 -345.859)" fill="#f9e8dc"/>
              <path id="Trazado_113660" data-name="Trazado 113660" d="M1470.581,460.775a1.828,1.828,0,1,1-1.828-1.828,1.828,1.828,0,0,1,1.828,1.828" transform="translate(-1238.581 -387.507)" fill="#f9e8dc"/>
              <path id="Trazado_113661" data-name="Trazado 113661" d="M1522.255,460.775a1.828,1.828,0,1,1-1.828-1.828,1.828,1.828,0,0,1,1.828,1.828" transform="translate(-1282.212 -387.507)" fill="#f9e8dc"/>
              <path id="Trazado_113662" data-name="Trazado 113662" d="M1573.931,460.775a1.828,1.828,0,1,1-1.828-1.828,1.828,1.828,0,0,1,1.828,1.828" transform="translate(-1325.843 -387.507)" fill="#f9e8dc"/>
              <path id="Trazado_113663" data-name="Trazado 113663" d="M1625.606,460.775a1.828,1.828,0,1,1-1.828-1.828,1.828,1.828,0,0,1,1.828,1.828" transform="translate(-1369.474 -387.507)" fill="#f9e8dc"/>
              <path id="Trazado_113664" data-name="Trazado 113664" d="M1677.28,460.775a1.828,1.828,0,1,1-1.828-1.828,1.828,1.828,0,0,1,1.828,1.828" transform="translate(-1413.105 -387.507)" fill="#f9e8dc"/>
              <path id="Trazado_113665" data-name="Trazado 113665" d="M127.132,379.956a1.828,1.828,0,1,1-1.828-1.828,1.828,1.828,0,0,1,1.828,1.828" transform="translate(-104.256 -319.268)" fill="#fff"/>
              <path id="Trazado_113666" data-name="Trazado 113666" d="M178.807,379.956a1.828,1.828,0,1,1-1.828-1.828,1.828,1.828,0,0,1,1.828,1.828" transform="translate(-147.887 -319.268)" fill="#fff"/>
              <path id="Trazado_113667" data-name="Trazado 113667" d="M230.482,379.956a1.828,1.828,0,1,1-1.828-1.828,1.828,1.828,0,0,1,1.828,1.828" transform="translate(-191.518 -319.268)" fill="#fff"/>
              <path id="Trazado_113668" data-name="Trazado 113668" d="M282.158,379.956a1.828,1.828,0,1,1-1.828-1.828,1.828,1.828,0,0,1,1.828,1.828" transform="translate(-235.149 -319.268)" fill="#fff"/>
              <path id="Trazado_113669" data-name="Trazado 113669" d="M333.832,379.956A1.828,1.828,0,1,1,332,378.128a1.828,1.828,0,0,1,1.828,1.828" transform="translate(-278.78 -319.268)" fill="#fff"/>
              <path id="Trazado_113670" data-name="Trazado 113670" d="M127.132,429.282a1.828,1.828,0,1,1-1.828-1.828,1.828,1.828,0,0,1,1.828,1.828" transform="translate(-104.256 -360.916)" fill="#fff"/>
              <path id="Trazado_113671" data-name="Trazado 113671" d="M178.807,429.282a1.828,1.828,0,1,1-1.828-1.828,1.828,1.828,0,0,1,1.828,1.828" transform="translate(-147.887 -360.916)" fill="#fff"/>
              <path id="Trazado_113672" data-name="Trazado 113672" d="M230.482,429.282a1.828,1.828,0,1,1-1.828-1.828,1.828,1.828,0,0,1,1.828,1.828" transform="translate(-191.518 -360.916)" fill="#fff"/>
              <path id="Trazado_113673" data-name="Trazado 113673" d="M282.158,429.282a1.828,1.828,0,1,1-1.828-1.828,1.828,1.828,0,0,1,1.828,1.828" transform="translate(-235.149 -360.916)" fill="#fff"/>
              <path id="Trazado_113674" data-name="Trazado 113674" d="M333.832,429.282A1.828,1.828,0,1,1,332,427.454a1.828,1.828,0,0,1,1.828,1.828" transform="translate(-278.78 -360.916)" fill="#fff"/>
              <path id="Trazado_113675" data-name="Trazado 113675" d="M127.132,478.609a1.828,1.828,0,1,1-1.828-1.828,1.828,1.828,0,0,1,1.828,1.828" transform="translate(-104.256 -402.565)" fill="#fff"/>
              <path id="Trazado_113676" data-name="Trazado 113676" d="M178.807,478.609a1.828,1.828,0,1,1-1.828-1.828,1.828,1.828,0,0,1,1.828,1.828" transform="translate(-147.887 -402.565)" fill="#fff"/>
              <path id="Trazado_113677" data-name="Trazado 113677" d="M230.482,478.609a1.828,1.828,0,1,1-1.828-1.828,1.828,1.828,0,0,1,1.828,1.828" transform="translate(-191.518 -402.565)" fill="#fff"/>
              <path id="Trazado_113678" data-name="Trazado 113678" d="M282.158,478.609a1.828,1.828,0,1,1-1.828-1.828,1.828,1.828,0,0,1,1.828,1.828" transform="translate(-235.149 -402.565)" fill="#fff"/>
              <path id="Trazado_113679" data-name="Trazado 113679" d="M333.832,478.609A1.828,1.828,0,1,1,332,476.781a1.828,1.828,0,0,1,1.828,1.828" transform="translate(-278.78 -402.565)" fill="#fff"/>
              <path id="Trazado_113680" data-name="Trazado 113680" d="M127.132,527.935a1.828,1.828,0,1,1-1.828-1.828,1.828,1.828,0,0,1,1.828,1.828" transform="translate(-104.256 -444.213)" fill="#fff"/>
              <path id="Trazado_113681" data-name="Trazado 113681" d="M178.807,527.935a1.828,1.828,0,1,1-1.828-1.828,1.828,1.828,0,0,1,1.828,1.828" transform="translate(-147.887 -444.213)" fill="#fff"/>
              <path id="Trazado_113682" data-name="Trazado 113682" d="M230.482,527.935a1.828,1.828,0,1,1-1.828-1.828,1.828,1.828,0,0,1,1.828,1.828" transform="translate(-191.518 -444.213)" fill="#fff"/>
              <path id="Trazado_113683" data-name="Trazado 113683" d="M282.158,527.935a1.828,1.828,0,1,1-1.828-1.828,1.828,1.828,0,0,1,1.828,1.828" transform="translate(-235.149 -444.213)" fill="#fff"/>
              <path id="Trazado_113684" data-name="Trazado 113684" d="M333.832,527.935A1.828,1.828,0,1,1,332,526.107a1.828,1.828,0,0,1,1.828,1.828" transform="translate(-278.78 -444.213)" fill="#fff"/>
              <path id="Trazado_113685" data-name="Trazado 113685" d="M127.132,577.261a1.828,1.828,0,1,1-1.828-1.828,1.828,1.828,0,0,1,1.828,1.828" transform="translate(-104.256 -485.861)" fill="#fff"/>
              <path id="Trazado_113686" data-name="Trazado 113686" d="M178.807,577.261a1.828,1.828,0,1,1-1.828-1.828,1.828,1.828,0,0,1,1.828,1.828" transform="translate(-147.887 -485.861)" fill="#fff"/>
              <path id="Trazado_113687" data-name="Trazado 113687" d="M230.482,577.261a1.828,1.828,0,1,1-1.828-1.828,1.828,1.828,0,0,1,1.828,1.828" transform="translate(-191.518 -485.861)" fill="#fff"/>
              <path id="Trazado_113688" data-name="Trazado 113688" d="M282.158,577.261a1.828,1.828,0,1,1-1.828-1.828,1.828,1.828,0,0,1,1.828,1.828" transform="translate(-235.149 -485.861)" fill="#fff"/>
              <path id="Trazado_113689" data-name="Trazado 113689" d="M333.832,577.261A1.828,1.828,0,1,1,332,575.433a1.828,1.828,0,0,1,1.828,1.828" transform="translate(-278.78 -485.861)" fill="#fff"/>
              <rect id="Rectángulo_33843" data-name="Rectángulo 33843" width="32.115" height="7.512" transform="translate(134.684 30.051)" fill="#f9e8dc"/>
              <rect id="Rectángulo_33844" data-name="Rectángulo 33844" width="32.447" height="13.801" transform="translate(15.069 10.202)" fill="#f9e8dc"/>
              <path id="Trazado_113690" data-name="Trazado 113690" d="M176.185,0h21.333a3.671,3.671,0,0,1,3.671,3.671v7.318a3.671,3.671,0,0,1-3.671,3.671H176.185a3.671,3.671,0,0,1-3.671-3.671V3.673A3.671,3.671,0,0,1,176.185,0" transform="translate(-145.66 -0.002)" fill="#eb9ba8"/>
              <path id="Trazado_113691" data-name="Trazado 113691" d="M209.24,37.418a1.783,1.783,0,1,1-1.783-1.783,1.783,1.783,0,0,1,1.783,1.783" transform="translate(-173.658 -30.088)" fill="#fff"/>
              <path id="Trazado_113692" data-name="Trazado 113692" d="M256.732,37.418a1.783,1.783,0,1,1-1.783-1.783,1.783,1.783,0,0,1,1.783,1.783" transform="translate(-213.757 -30.088)" fill="#fff"/>
              <path id="Trazado_113693" data-name="Trazado 113693" d="M304.224,37.418a1.783,1.783,0,1,1-1.783-1.783,1.783,1.783,0,0,1,1.783,1.783" transform="translate(-253.856 -30.088)" fill="#fff"/>
            </g>
          </g>
          <g id="Grupo_951799" data-name="Grupo 951799" transform="translate(28.948 28.904)" opacity="0.251">
            <g id="Grupo_80323" data-name="Grupo 80323" transform="translate(0 0)" clip-path="url(#clip-path-3)">
              <path id="Trazado_113615" data-name="Trazado 113615" d="M150.2,189.248c-2.22-.169-4.486-.265-6.806-.248-12.276.091-24.283,3.394-36.636,3.267-26.172-.27-53.108-2.983-75.727-19.745C-19.079,135.384-2.652,55.832,38.89,23.173,60.965,5.819,88.459.513,114.8.022c33.911-.632,77.406,10.094,101.7,38.641,16.927,19.889,21.136,66.229,17.179,92.485-3.15,20.9-14.971,40.609-29.9,52.082-18.623,14.307-34.413,7.472-53.577,6.018" transform="translate(0 0.004)" fill="#f1c6bd"/>
            </g>
          </g>
        </g>
        <g id="Enmascarar_grupo_95" data-name="Enmascarar grupo 95" transform="translate(54.172 0)" clip-path="url(#clip-path-4)">
          <g id="Grupo_951832" data-name="Grupo 951832" transform="translate(0 3.052)">
            <g id="Grupo_951831" data-name="Grupo 951831" clip-path="url(#clip-path-5)">
              <path id="Trazado_696624" data-name="Trazado 696624" d="M338.341,319.546A37.1,37.1,0,0,1,360.36,349.9l14.8,66.364c-9.283,5.045-25.729-11.678-29.617-21.5-7.746-19.574-16.868-51.263-7.2-75.212" transform="translate(-222.436 -212.704)" fill="#d67913"/>
              <path id="Trazado_696625" data-name="Trazado 696625" d="M67.235,319.546A37.1,37.1,0,0,0,45.216,349.9l-14.8,66.364c9.283,5.045,25.729-11.678,29.617-21.5,7.746-19.574,16.868-51.263,7.2-75.212" transform="translate(-20.247 -212.704)" fill="#d67913"/>
              <path id="Trazado_696626" data-name="Trazado 696626" d="M142.186,437.071c18.6,0,35.645-2.169,48.947-5.778q-5.507-64.893-14.35-129.439a72.352,72.352,0,0,0-64-2.181l-4.827,2.181-1.894,14.6c-6.406,36.57-11.3,76.9-14.666,114.327,13.552,3.917,31.326,6.294,50.793,6.294" transform="translate(-60.835 -195.204)" fill="#f9a21b"/>
              <path id="Trazado_696628" data-name="Trazado 696628" d="M224.407,288.593c0,3.991-9,7.226-20.113,7.226s-20.113-3.235-20.113-7.226,9-7.226,20.113-7.226,20.113,3.235,20.113,7.226" transform="translate(-122.599 -187.291)" fill="#ffca7b"/>
              <path id="Trazado_696629" data-name="Trazado 696629" d="M225.156,212.854q-9.331.508-18.953.408a147.53,147.53,0,0,1-3.55,27.139q-.158.653-.323,1.292a61.006,61.006,0,0,0,28.947.12c-1.721-7.754-3.351-17.2-4.87-28.908-.416-.014-.834-.032-1.252-.05" transform="translate(-134.68 -141.685)" fill="#fcba89"/>
              <path id="Trazado_696630" data-name="Trazado 696630" d="M229.43,212.854q-9.332.508-18.953.408a174.448,174.448,0,0,1-1.726,17.744c7.362.826,15.221.021,21.709-2.86a18.238,18.238,0,0,0,2.268-1.2c-.7-4.26-1.383-8.92-2.046-14.037-.416-.014-.834-.032-1.251-.05" transform="translate(-138.954 -141.685)" fill="#f2ae7a"/>
              <path id="Trazado_696631" data-name="Trazado 696631" d="M145.36,160.91c-.068-.1-.136-.2-.2-.3-.791-1.252-7.107-10.841-12.6-6.853-4.981,3.617-3.761,13.271,5.237,15.871a6.488,6.488,0,0,0,8.314-5.85,4.627,4.627,0,0,0-.752-2.871" transform="translate(-86.305 -101.707)" fill="#fcba89"/>
              <path id="Trazado_696632" data-name="Trazado 696632" d="M148.644,182.048a2.337,2.337,0,0,0,2.193-3.328c-1.287-2.749-3.857-6.364-7.843-3.859-4.817,3.028.951,7.049,5.649,7.187" transform="translate(-93.975 -115.834)" fill="#f2ae7a"/>
              <path id="Trazado_696633" data-name="Trazado 696633" d="M143.712,178.371l1.022-.4a5.236,5.236,0,0,1,7.1,4.277c.019.171.022.27.022.27a8.891,8.891,0,0,0-.962-1.334c-1.813-1.224-4.4.451-4.4.451.4-1.725,1.329-2.206,2.059-2.3a9.029,9.029,0,0,0-4.846-.97" transform="translate(-95.661 -118.229)" fill="#12263f"/>
              <path id="Trazado_696634" data-name="Trazado 696634" d="M321.207,156.308c.064-.1.129-.2.19-.3.745-1.279,6.714-11.089,12.345-7.3,5.107,3.437,4.233,13.128-4.665,16.049a6.489,6.489,0,0,1-8.519-5.549,4.629,4.629,0,0,1,.649-2.9" transform="translate(-213.366 -98.408)" fill="#fcba89"/>
              <path id="Trazado_696635" data-name="Trazado 696635" d="M331.416,177.457a2.337,2.337,0,0,1-2.311-3.248c1.188-2.793,3.627-6.5,7.7-4.137,4.922,2.854-.7,7.079-5.388,7.385" transform="translate(-218.941 -112.707)" fill="#f2ae7a"/>
              <path id="Trazado_696636" data-name="Trazado 696636" d="M339.615,173.5l-1.036-.36a5.235,5.235,0,0,0-6.946,4.528c-.013.172-.012.271-.012.271a8.918,8.918,0,0,1,.913-1.368c1.768-1.288,4.412.293,4.412.293-.465-1.71-1.408-2.157-2.14-2.222a9.029,9.029,0,0,1,4.808-1.143" transform="translate(-220.743 -115.053)" fill="#12263f"/>
              <path id="Trazado_696637" data-name="Trazado 696637" d="M220.651,86.316c.434,6.018,1.072,27.9-11.744,35.312-14.918,8.629-36.612,3.257-39.709-9.993-1.374-5.878-3.121-15.245-2.983-23.57,1.3-22.312,22.238-28.607,32.246-27.487,16.425,1.839,24.354,15.759,22.19,25.737" transform="translate(-110.634 -40.242)" fill="#fcba89"/>
              <path id="Trazado_696638" data-name="Trazado 696638" d="M175.953,80.167c-2.077-4.832-8.488-3.367-11.96-1.123a15.624,15.624,0,0,0-2.219,1.747c-.011,8.468-.562,16.981.7,25.3a8.9,8.9,0,0,1,.242,1.263.721.721,0,0,0,.306.52l.512,2.092a.71.71,0,0,0,1.359,0,46.273,46.273,0,0,0,1.9-9.751c.064-.779.033-1.581.133-2.353a2.977,2.977,0,0,1,1.559-2.59,20.338,20.338,0,0,0,2.987-2.285c3.114-2.964,6.372-8.411,4.477-12.821" transform="translate(-107.598 -51.222)" fill="#06060d"/>
              <path id="Trazado_696639" data-name="Trazado 696639" d="M294.761,80.167c2.077-4.832,8.488-3.367,11.96-1.123a15.621,15.621,0,0,1,2.219,1.747c.011,8.468.562,16.981-.7,25.3a8.9,8.9,0,0,0-.242,1.263.721.721,0,0,1-.306.52l-.512,2.092a.71.71,0,0,1-1.358,0,46.272,46.272,0,0,1-1.9-9.751c-.065-.779-.033-1.581-.133-2.353a2.977,2.977,0,0,0-1.559-2.59,20.336,20.336,0,0,1-2.987-2.285c-3.115-2.964-6.372-8.411-4.477-12.821" transform="translate(-195.833 -51.222)" fill="#06060d"/>
              <path id="Trazado_696640" data-name="Trazado 696640" d="M293.969,200.741a12.906,12.906,0,0,0-14.326,16.272,29.812,29.812,0,0,0,4.449-2.1c5.21-3.013,8.2-8.417,9.877-14.174" transform="translate(-185.82 -133.529)" fill="#f2ae7a"/>
              <path id="Trazado_696641" data-name="Trazado 696641" d="M173.98,207.76l-.116.009c.146.669.29,1.308.431,1.909,1.392,5.957,6.545,10.32,13.149,12.536A12.9,12.9,0,0,0,173.98,207.76" transform="translate(-115.732 -138.283)" fill="#f2ae7a"/>
              <path id="Trazado_696642" data-name="Trazado 696642" d="M245.053,163.384l-1.548-.049.279-8.8a1.062,1.062,0,0,0-2.122-.067l-.311,9.817a.986.986,0,0,0,.889,1.043,1.082,1.082,0,0,0,.447.106l2.3.073a1.062,1.062,0,0,0,.067-2.122" transform="translate(-160.654 -102.161)" fill="#12263f"/>
              <path id="Trazado_696643" data-name="Trazado 696643" d="M279.274,108.667c-3.164-2.386-8.288-3.914-11.307-.4-2.192,2.551-1.359,6.605,1.821,7.539,3.123,1.745,7.4,2.5,10.621,1.186a3.9,3.9,0,0,0,2.551-3.305c.069-2.1-2.185-3.889-3.685-5.021" transform="translate(-177.555 -70.69)" fill="#1b1a2e"/>
              <path id="Trazado_696644" data-name="Trazado 696644" d="M190.737,111.04a3.9,3.9,0,0,0,2.336,3.461c3.135,1.516,7.447,1.032,10.675-.511,3.233-.731,4.321-4.724,2.3-7.409-2.791-3.7-8-2.5-11.31-.318-1.568,1.034-3.932,2.676-4,4.777" transform="translate(-126.962 -69.364)" fill="#1b1a2e"/>
              <path id="Trazado_696645" data-name="Trazado 696645" d="M204.132,151.888a5.729,5.729,0,0,0-10.193.555c-.549,1.231,1.272,2.307,1.825,1.066a3.619,3.619,0,0,1,6.544-.555c.711,1.156,2.539.1,1.824-1.066" transform="translate(-129.027 -99.207)" fill="#12263f"/>
              <path id="Trazado_696646" data-name="Trazado 696646" d="M270.352,151.888a5.729,5.729,0,0,1,10.193.555c.549,1.231-1.271,2.307-1.824,1.066a3.619,3.619,0,0,0-6.544-.555c-.711,1.156-2.539.1-1.824-1.066" transform="translate(-179.85 -99.207)" fill="#12263f"/>
              <path id="Trazado_696647" data-name="Trazado 696647" d="M200.653,23.9c3.946-3.037,3.384-8.585-1.372-10.8a6.193,6.193,0,0,0-2.52-7.693,6.915,6.915,0,0,0-7.309.359,7.954,7.954,0,0,0-8.17-5.133c-1.639.1-3.831.655-4.88,1.84a2.022,2.022,0,0,0-.2.272A11.966,11.966,0,0,0,167.389.06a11.165,11.165,0,0,0-8.342,4.973,10.255,10.255,0,0,0-7.5-2.492,6.346,6.346,0,0,0-5.3,3.636,3.491,3.491,0,0,0-3.369,1.143,3.112,3.112,0,0,0-.364.521c-2.838-1.495-6.925-2.729-9.434-.123-2.266,2.354-.443,5.527,1.365,7.751a7.087,7.087,0,0,0-6.15,4.251c-.907,2.545.536,5.4,3.085,6.8a17.483,17.483,0,0,0,2.19.765c1.251.495.972,1.363,1.157,2.347a4.97,4.97,0,0,0,2.152,3.12,6.287,6.287,0,0,0,7.524-.586,6.2,6.2,0,0,0,6.081,1.934,5.573,5.573,0,0,0,1.774-.719c.31-.193.742-.677,1.078-.739a2.018,2.018,0,0,1,1.735.766,5.607,5.607,0,0,0,3.884,1.384,10.75,10.75,0,0,0,4.843-1.409c1.044-.539,2.175-1.5,3.434-.958.875.377,1.566,1.03,2.455,1.411,2.084.893,5.3.56,5.952-1.478a8.629,8.629,0,0,0,5,1.9,4.415,4.415,0,0,0,3.546-1.629,5.4,5.4,0,0,0,4.107,1.649A3,3,0,0,0,190.72,32.7a4.69,4.69,0,0,0,4.135.936,2.3,2.3,0,0,0,1.7-2.088,5.467,5.467,0,0,0,5.357-2.541,4.133,4.133,0,0,0-1.264-5.108" transform="translate(-85.213 0)" fill="#1b1a2e"/>
              <path id="Trazado_696648" data-name="Trazado 696648" d="M26.881,466.834a53.9,53.9,0,0,1-7.164-1.393c-2.255-.632-5.743-1.653-9.01-2.747-3.586-1.2-7.516,1.52-8.259,5.867-1.855,10.855-4.165,28.82-.523,35.811,6.457,12.393,19.692,11.23,26.63-3.466,3-6.363,5.644-17.4,5.338-25.2-.18-4.6-3.215-8.39-7.012-8.871" transform="translate(0 -307.801)" fill="#f9a21b"/>
              <path id="Trazado_696649" data-name="Trazado 696649" d="M43.305,425.837l.9,13.633s-10.143,12.881-20.234,1.207l4.606-17.009Z" transform="translate(-15.954 -282.013)" fill="#fcba89"/>
              <path id="Trazado_696650" data-name="Trazado 696650" d="M12.7,461.467c-.178-.977.611-1.987.722-2.952a27.872,27.872,0,0,0-.112-3.448c-.013-1.852.977-5.044,2.79-5.86.019-.009,2.326-.421,2.345-.428-.342,1.913-1.57,4.283-.876,5.373,3.534,5.549,13.148,6.568,16.434,1.219a1.461,1.461,0,0,0,.567-1.171A7.64,7.64,0,0,0,35,452.316c.016,0,.033,0,.05.006,1.416-.921,4.1,3.393,3.677,4.8-.322,1.078-1.189,1.664-.819,2.881a6.535,6.535,0,0,1,.48,2.377A5.711,5.711,0,0,1,36,466.4c-3.43,2.521-8.634,1.284-12.215.582a32.491,32.491,0,0,1-6.533-1.875c-1.374-.588-4.22-1.841-4.546-3.636" transform="translate(-8.439 -298.728)" fill="#ffca7b"/>
              <path id="Trazado_696651" data-name="Trazado 696651" d="M60.66,331.614c-1.321-3.1-4.644-8.343-8.731-7.287a3.15,3.15,0,0,0-2.228,4.148c.3,1.068.829,2.07,1.147,3.138a20.237,20.237,0,0,1,.76,3.9,20.575,20.575,0,0,1-.853,8.086c-.81,2.566-2.4,4.9-1.885,7.691a.807.807,0,0,0,1.475.229.879.879,0,0,0,.221-.044,27.248,27.248,0,0,0,6.282-3.668c1.731-1.174,3.728-2.291,4.784-4.172,2.01-3.581.522-8.515-.972-12.02" transform="translate(-32.462 -215.795)" fill="#f2ae7a"/>
              <path id="Trazado_696652" data-name="Trazado 696652" d="M91.458,375.984a2.4,2.4,0,0,0-1.274-2.111,4.8,4.8,0,0,0,2.089-2.205c1.268-3.031-1.977-4.964-4.563-5.406a4.739,4.739,0,0,0-1.58-3.912c-1.976-1.847-4.954-1.885-7.5-1.946a77.89,77.89,0,0,0-18,1.666c-5.786,1.226-12.009,2.906-17.006,6.173a16.553,16.553,0,0,0-2.648,2.155c-2.913,4.463-4.5,10.242-2.373,15.274,2.079,4.914,7.082,7.61,12.016,8.88a1.141,1.141,0,0,1,.285.118,37.445,37.445,0,0,0,13.252-1.426c3.119-.862,6.2-1.873,9.256-2.946a45.794,45.794,0,0,0,8.667-3.628c1.921-1.17,3.889-3.236,3.166-5.68l-.005-.015a23.1,23.1,0,0,0,3.771-1.751c1.205-.712,2.463-1.7,2.445-3.238" transform="translate(-25.046 -239.885)" fill="#fcba89"/>
              <path id="Trazado_696653" data-name="Trazado 696653" d="M112.74,380.99q13.343-2.074,26.8-3.24a8.307,8.307,0,0,0-2.352-.784,4.626,4.626,0,0,0,.015-.5q-12.343,1.138-24.6,3.04c-.947.147-.821,1.637.132,1.488" transform="translate(-74.525 -250.59)" fill="#d9905b"/>
              <path id="Trazado_696654" data-name="Trazado 696654" d="M123.981,403.646q11.434-3.892,23.086-7.084l0,0a4.875,4.875,0,0,0,2.037-2.1q-12.88,3.443-25.506,7.739c-.907.309-.526,1.754.387,1.443" transform="translate(-81.924 -262.573)" fill="#d9905b"/>
              <path id="Trazado_696655" data-name="Trazado 696655" d="M143.827,416.412s0-.01-.005-.015a23.062,23.062,0,0,0,3.771-1.751,7.643,7.643,0,0,0,1.429-1.047q-11.653,4.986-22.971,10.7c-.855.432-.276,1.81.584,1.375q8.571-4.332,17.341-8.243a3.63,3.63,0,0,0-.148-1.023" transform="translate(-83.625 -275.31)" fill="#d9905b"/>
              <path id="Trazado_696656" data-name="Trazado 696656" d="M89.706,401.326a4.961,4.961,0,0,0-.255-4.46c-.954-1.624-3.9-2.984-3.272-5.131.48-1.64.752-2.725-.01-4.382-.642-1.4-4.062-5.03-1.381-6.028,1.354-.5.356-2.513-.984-2.014a3.645,3.645,0,0,0-2.217,3.884c.244,2.319,2.452,3.728,2.844,5.93.2,1.141-.615,2.016-.657,3.128a4.3,4.3,0,0,0,.765,2.434c1.279,2.013,4.188,3.112,3.039,5.938-.543,1.335,1.588,2.036,2.129.7" transform="translate(-54.292 -252.434)" fill="#d9905b"/>
              <path id="Trazado_696657" data-name="Trazado 696657" d="M392.78,466.834a53.9,53.9,0,0,0,7.164-1.393c2.255-.632,5.743-1.653,9.01-2.747,3.586-1.2,7.516,1.52,8.259,5.867,1.855,10.855,4.165,28.82.523,35.811-6.457,12.393-19.692,11.23-26.63-3.466-3-6.363-5.644-17.4-5.338-25.2.18-4.6,3.215-8.39,7.012-8.871" transform="translate(-256.768 -307.801)" fill="#f9a21b"/>
              <path id="Trazado_696658" data-name="Trazado 696658" d="M403.6,425.837l-.9,13.633s10.143,12.881,20.234,1.207l-4.606-17.009Z" transform="translate(-268.056 -282.013)" fill="#fcba89"/>
              <path id="Trazado_696659" data-name="Trazado 696659" d="M422.54,461.467c.177-.977-.612-1.987-.723-2.952a27.887,27.887,0,0,1,.112-3.448c.014-1.852-.977-5.044-2.79-5.86-.019-.009-2.326-.421-2.345-.428.342,1.913,1.57,4.283.876,5.373-3.535,5.549-13.148,6.568-16.434,1.219a1.459,1.459,0,0,1-.567-1.171,7.627,7.627,0,0,1-.423-1.885c-.017,0-.034,0-.05.006-1.416-.921-4.1,3.393-3.677,4.8.322,1.078,1.189,1.664.819,2.881a6.535,6.535,0,0,0-.481,2.377,5.711,5.711,0,0,0,2.389,4.017c3.43,2.521,8.634,1.284,12.214.582a32.485,32.485,0,0,0,6.533-1.875c1.374-.588,4.221-1.841,4.547-3.636" transform="translate(-263.912 -298.728)" fill="#ffca7b"/>
              <path id="Trazado_696660" data-name="Trazado 696660" d="M398,343.634c1.056,1.881,3.054,3,4.784,4.172a27.247,27.247,0,0,0,6.281,3.668.88.88,0,0,0,.221.044.807.807,0,0,0,1.475-.229c.519-2.8-1.075-5.125-1.885-7.691a20.576,20.576,0,0,1-.853-8.086,20.236,20.236,0,0,1,.76-3.9c.318-1.068.844-2.07,1.147-3.138a3.15,3.15,0,0,0-2.228-4.148c-4.087-1.056-7.41,4.186-8.731,7.287-1.494,3.505-2.982,8.44-.972,12.02" transform="translate(-264.281 -215.795)" fill="#f2ae7a"/>
              <path id="Trazado_696661" data-name="Trazado 696661" d="M286.369,375.984a2.4,2.4,0,0,1,1.274-2.111,4.8,4.8,0,0,1-2.089-2.205c-1.268-3.031,1.977-4.964,4.563-5.406a4.739,4.739,0,0,1,1.58-3.912c1.976-1.847,4.954-1.885,7.5-1.946a77.889,77.889,0,0,1,18,1.666c5.786,1.226,12.009,2.906,17.006,6.173a16.553,16.553,0,0,1,2.648,2.155c2.913,4.463,4.5,10.242,2.373,15.274-2.079,4.914-7.082,7.61-12.016,8.88a1.143,1.143,0,0,0-.285.118,37.444,37.444,0,0,1-13.252-1.426c-3.119-.862-6.2-1.873-9.256-2.946a45.8,45.8,0,0,1-8.667-3.628c-1.921-1.17-3.889-3.236-3.166-5.68l.005-.015a23.094,23.094,0,0,1-3.771-1.751c-1.205-.712-2.463-1.7-2.445-3.238" transform="translate(-189.889 -239.885)" fill="#fcba89"/>
              <path id="Trazado_696662" data-name="Trazado 696662" d="M319.531,380.99q-13.344-2.074-26.8-3.24a8.309,8.309,0,0,1,2.353-.784,4.543,4.543,0,0,1-.015-.5q12.343,1.138,24.6,3.04c.947.147.821,1.637-.131,1.488" transform="translate(-194.854 -250.59)" fill="#d9905b"/>
              <path id="Trazado_696663" data-name="Trazado 696663" d="M311.394,403.646q-11.434-3.892-23.087-7.084l0,0a4.875,4.875,0,0,1-2.037-2.1q12.88,3.443,25.506,7.739c.907.309.526,1.754-.387,1.443" transform="translate(-190.558 -262.573)" fill="#d9905b"/>
              <path id="Trazado_696664" data-name="Trazado 696664" d="M296.789,416.412s0-.01.005-.015a23.049,23.049,0,0,1-3.771-1.751A7.644,7.644,0,0,1,291.6,413.6q11.653,4.986,22.971,10.7c.855.432.276,1.81-.584,1.375q-8.571-4.332-17.341-8.243a3.627,3.627,0,0,1,.148-1.023" transform="translate(-194.099 -275.31)" fill="#d9905b"/>
              <path id="Trazado_696665" data-name="Trazado 696665" d="M380.454,401.326a4.961,4.961,0,0,1,.255-4.46c.954-1.624,3.9-2.984,3.272-5.131-.479-1.64-.752-2.725.01-4.382.642-1.4,4.062-5.03,1.381-6.028-1.354-.5-.356-2.513.984-2.014a3.645,3.645,0,0,1,2.217,3.884c-.244,2.319-2.452,3.728-2.844,5.93-.2,1.141.615,2.016.657,3.128a4.3,4.3,0,0,1-.765,2.434c-1.279,2.013-4.188,3.112-3.039,5.938.543,1.335-1.588,2.036-2.129.7" transform="translate(-252.975 -252.434)" fill="#d9905b"/>
              <path id="Trazado_696667" data-name="Trazado 696667" d="M240.86,204.755a7.883,7.883,0,0,1-11.2,1.328c-1-.8-2.427.612-1.419,1.419a9.934,9.934,0,0,0,14.349-1.735c.788-1.021-.954-2.021-1.732-1.012" transform="translate(-151.699 -136.015)" fill="#12263f"/>
            </g>
          </g>
        </g>
      </g>
    </g>
    <g id="Enmascarar_grupo_927331" data-name="Enmascarar grupo 927331" clip-path="url(#clip-path-6)">
      <g id="Grupo_990708" data-name="Grupo 990708" transform="translate(1330.099 761.481)">
        <g id="Grupo_951800-2" data-name="Grupo 951800" transform="translate(0 0)">
          <g id="Grupo_951798-2" data-name="Grupo 951798" transform="translate(0.141 7.99)">
            <g id="Grupo_80327-2" data-name="Grupo 80327" clip-path="url(#clip-path-8)">
              <path id="Trazado_113636-2" data-name="Trazado 113636" d="M60.277,179.156a30.138,30.138,0,1,0-30.138,30.138,30.138,30.138,0,0,0,30.138-30.138" transform="translate(0 -149.018)" fill="#4db1f0"/>
              <path id="Sustracción_2-2" data-name="Sustracción 2" d="M21.838,0a22.017,22.017,0,0,0-4.4.444A21.721,21.721,0,0,0,9.628,3.73a21.9,21.9,0,0,0-7.912,9.608,21.708,21.708,0,0,0-1.273,4.1,22.053,22.053,0,0,0,0,8.8A21.722,21.722,0,0,0,3.73,34.049a21.9,21.9,0,0,0,9.608,7.912,21.726,21.726,0,0,0,4.1,1.273,22.052,22.052,0,0,0,8.8,0,21.722,21.722,0,0,0,7.809-3.286,21.9,21.9,0,0,0,7.912-9.608,21.717,21.717,0,0,0,1.273-4.1,22.053,22.053,0,0,0,0-8.8,21.727,21.727,0,0,0-3.286-7.809,21.9,21.9,0,0,0-9.608-7.912,21.736,21.736,0,0,0-4.1-1.273A22.017,22.017,0,0,0,21.838,0Zm0,39.371A17.532,17.532,0,1,1,39.37,21.839,17.552,17.552,0,0,1,21.838,39.371Z" transform="translate(56.672 0)" fill="#ffa031" stroke="rgba(0,0,0,0)" stroke-miterlimit="10" stroke-width="1"/>
              <path id="Trazado_113639-2" data-name="Trazado 113639" d="M572.579,644.121a10.657,10.657,0,1,0-10.657,10.657,10.657,10.657,0,0,0,10.657-10.657" transform="translate(-519.652 -622.282)" fill="#fff"/>
              <path id="Trazado_113640-2" data-name="Trazado 113640" d="M1468.271,262.315a.673.673,0,1,0-.673.673.673.673,0,0,0,.673-.673" transform="translate(-1382.801 -209.171)" fill="#f9e8dc"/>
              <path id="Trazado_113641-2" data-name="Trazado 113641" d="M1519.946,262.315a.674.674,0,1,0-.673.673.673.673,0,0,0,.673-.673" transform="translate(-1431.513 -209.171)" fill="#f9e8dc"/>
              <path id="Trazado_113642-2" data-name="Trazado 113642" d="M1571.621,262.315a.673.673,0,1,0-.673.673.673.673,0,0,0,.673-.673" transform="translate(-1480.224 -209.171)" fill="#f9e8dc"/>
              <path id="Trazado_113643-2" data-name="Trazado 113643" d="M1623.3,262.315a.674.674,0,1,0-.674.673.673.673,0,0,0,.674-.673" transform="translate(-1528.936 -209.171)" fill="#f9e8dc"/>
              <path id="Trazado_113644-2" data-name="Trazado 113644" d="M1674.971,262.315a.674.674,0,1,0-.673.673.673.673,0,0,0,.673-.673" transform="translate(-1577.647 -209.171)" fill="#f9e8dc"/>
              <path id="Trazado_113645-2" data-name="Trazado 113645" d="M1468.271,311.641a.673.673,0,1,0-.673.673.673.673,0,0,0,.673-.673" transform="translate(-1382.801 -261.326)" fill="#f9e8dc"/>
              <path id="Trazado_113646-2" data-name="Trazado 113646" d="M1519.946,311.641a.674.674,0,1,0-.673.673.673.673,0,0,0,.673-.673" transform="translate(-1431.513 -261.326)" fill="#f9e8dc"/>
              <path id="Trazado_113647-2" data-name="Trazado 113647" d="M1571.621,311.641a.673.673,0,1,0-.673.673.673.673,0,0,0,.673-.673" transform="translate(-1480.224 -261.326)" fill="#f9e8dc"/>
              <path id="Trazado_113648-2" data-name="Trazado 113648" d="M1623.3,311.641a.674.674,0,1,0-.674.673.674.674,0,0,0,.674-.673" transform="translate(-1528.936 -261.326)" fill="#f9e8dc"/>
              <path id="Trazado_113649-2" data-name="Trazado 113649" d="M1674.971,311.641a.674.674,0,1,0-.673.673.673.673,0,0,0,.673-.673" transform="translate(-1577.647 -261.326)" fill="#f9e8dc"/>
              <path id="Trazado_113650-2" data-name="Trazado 113650" d="M1468.271,360.967a.673.673,0,1,0-.673.673.673.673,0,0,0,.673-.673" transform="translate(-1382.801 -313.48)" fill="#f9e8dc"/>
              <path id="Trazado_113651-2" data-name="Trazado 113651" d="M1519.946,360.967a.674.674,0,1,0-.673.673.673.673,0,0,0,.673-.673" transform="translate(-1431.513 -313.48)" fill="#f9e8dc"/>
              <path id="Trazado_113652-2" data-name="Trazado 113652" d="M1571.621,360.967a.673.673,0,1,0-.673.673.673.673,0,0,0,.673-.673" transform="translate(-1480.224 -313.48)" fill="#f9e8dc"/>
              <path id="Trazado_113653-2" data-name="Trazado 113653" d="M1623.3,360.967a.674.674,0,1,0-.674.673.674.674,0,0,0,.674-.673" transform="translate(-1528.936 -313.48)" fill="#f9e8dc"/>
              <path id="Trazado_113654-2" data-name="Trazado 113654" d="M1674.971,360.967a.674.674,0,1,0-.673.673.673.673,0,0,0,.673-.673" transform="translate(-1577.647 -313.48)" fill="#f9e8dc"/>
              <path id="Trazado_113655-2" data-name="Trazado 113655" d="M1468.271,410.295a.673.673,0,1,0-.673.673.673.673,0,0,0,.673-.673" transform="translate(-1382.801 -365.636)" fill="#f9e8dc"/>
              <path id="Trazado_113656-2" data-name="Trazado 113656" d="M1519.946,410.295a.674.674,0,1,0-.673.673.673.673,0,0,0,.673-.673" transform="translate(-1431.513 -365.636)" fill="#f9e8dc"/>
              <path id="Trazado_113657-2" data-name="Trazado 113657" d="M1571.621,410.295a.673.673,0,1,0-.673.673.673.673,0,0,0,.673-.673" transform="translate(-1480.224 -365.636)" fill="#f9e8dc"/>
              <path id="Trazado_113658-2" data-name="Trazado 113658" d="M1623.3,410.295a.674.674,0,1,0-.674.673.673.673,0,0,0,.674-.673" transform="translate(-1528.936 -365.636)" fill="#f9e8dc"/>
              <path id="Trazado_113659-2" data-name="Trazado 113659" d="M1674.971,410.295a.674.674,0,1,0-.673.673.673.673,0,0,0,.673-.673" transform="translate(-1577.647 -365.636)" fill="#f9e8dc"/>
              <path id="Trazado_113660-2" data-name="Trazado 113660" d="M1468.271,459.62a.673.673,0,1,0-.673.673.673.673,0,0,0,.673-.673" transform="translate(-1382.801 -417.791)" fill="#f9e8dc"/>
              <path id="Trazado_113661-2" data-name="Trazado 113661" d="M1519.946,459.62a.674.674,0,1,0-.673.673.673.673,0,0,0,.673-.673" transform="translate(-1431.513 -417.791)" fill="#f9e8dc"/>
              <path id="Trazado_113662-2" data-name="Trazado 113662" d="M1571.621,459.62a.673.673,0,1,0-.673.673.673.673,0,0,0,.673-.673" transform="translate(-1480.224 -417.791)" fill="#f9e8dc"/>
              <path id="Trazado_113663-2" data-name="Trazado 113663" d="M1623.3,459.62a.674.674,0,1,0-.674.673.674.674,0,0,0,.674-.673" transform="translate(-1528.936 -417.791)" fill="#f9e8dc"/>
              <path id="Trazado_113664-2" data-name="Trazado 113664" d="M1674.971,459.62a.674.674,0,1,0-.673.673.673.673,0,0,0,.673-.673" transform="translate(-1577.647 -417.791)" fill="#f9e8dc"/>
              <path id="Trazado_113665-2" data-name="Trazado 113665" d="M124.823,378.8a.674.674,0,1,0-.673.673.673.673,0,0,0,.673-.673" transform="translate(-116.395 -332.337)" fill="#fff"/>
              <path id="Trazado_113666-2" data-name="Trazado 113666" d="M176.5,378.8a.673.673,0,1,0-.673.673.673.673,0,0,0,.673-.673" transform="translate(-165.107 -332.337)" fill="#fff"/>
              <path id="Trazado_113667-2" data-name="Trazado 113667" d="M228.173,378.8a.674.674,0,1,0-.673.673.673.673,0,0,0,.673-.673" transform="translate(-213.818 -332.337)" fill="#fff"/>
              <path id="Trazado_113668-2" data-name="Trazado 113668" d="M279.848,378.8a.674.674,0,1,0-.674.673.674.674,0,0,0,.674-.673" transform="translate(-262.53 -332.337)" fill="#fff"/>
              <path id="Trazado_113669-2" data-name="Trazado 113669" d="M331.523,378.8a.674.674,0,1,0-.673.673.674.674,0,0,0,.673-.673" transform="translate(-311.242 -332.337)" fill="#fff"/>
              <path id="Trazado_113670-2" data-name="Trazado 113670" d="M124.823,428.128a.674.674,0,1,0-.673.673.674.674,0,0,0,.673-.673" transform="translate(-116.395 -384.492)" fill="#fff"/>
              <path id="Trazado_113671-2" data-name="Trazado 113671" d="M176.5,428.128a.673.673,0,1,0-.673.673.674.674,0,0,0,.673-.673" transform="translate(-165.107 -384.492)" fill="#fff"/>
              <path id="Trazado_113672-2" data-name="Trazado 113672" d="M228.173,428.128a.674.674,0,1,0-.673.673.674.674,0,0,0,.673-.673" transform="translate(-213.818 -384.492)" fill="#fff"/>
              <path id="Trazado_113673-2" data-name="Trazado 113673" d="M279.848,428.128a.674.674,0,1,0-.674.673.674.674,0,0,0,.674-.673" transform="translate(-262.53 -384.492)" fill="#fff"/>
              <path id="Trazado_113674-2" data-name="Trazado 113674" d="M331.523,428.128a.674.674,0,1,0-.673.673.674.674,0,0,0,.673-.673" transform="translate(-311.242 -384.492)" fill="#fff"/>
              <path id="Trazado_113675-2" data-name="Trazado 113675" d="M124.823,477.455a.674.674,0,1,0-.673.673.673.673,0,0,0,.673-.673" transform="translate(-116.395 -436.647)" fill="#fff"/>
              <path id="Trazado_113676-2" data-name="Trazado 113676" d="M176.5,477.455a.673.673,0,1,0-.673.673.673.673,0,0,0,.673-.673" transform="translate(-165.107 -436.647)" fill="#fff"/>
              <path id="Trazado_113677-2" data-name="Trazado 113677" d="M228.173,477.455a.674.674,0,1,0-.673.673.673.673,0,0,0,.673-.673" transform="translate(-213.818 -436.647)" fill="#fff"/>
              <path id="Trazado_113678-2" data-name="Trazado 113678" d="M279.848,477.455a.674.674,0,1,0-.674.673.674.674,0,0,0,.674-.673" transform="translate(-262.53 -436.647)" fill="#fff"/>
              <path id="Trazado_113679-2" data-name="Trazado 113679" d="M331.523,477.455a.674.674,0,1,0-.673.673.673.673,0,0,0,.673-.673" transform="translate(-311.242 -436.647)" fill="#fff"/>
              <path id="Trazado_113680-2" data-name="Trazado 113680" d="M124.823,526.781a.674.674,0,1,0-.673.673.674.674,0,0,0,.673-.673" transform="translate(-116.395 -488.802)" fill="#fff"/>
              <path id="Trazado_113681-2" data-name="Trazado 113681" d="M176.5,526.781a.673.673,0,1,0-.673.673.674.674,0,0,0,.673-.673" transform="translate(-165.107 -488.802)" fill="#fff"/>
              <path id="Trazado_113682-2" data-name="Trazado 113682" d="M228.173,526.781a.674.674,0,1,0-.673.673.674.674,0,0,0,.673-.673" transform="translate(-213.818 -488.802)" fill="#fff"/>
              <path id="Trazado_113683-2" data-name="Trazado 113683" d="M279.848,526.781a.674.674,0,1,0-.674.673.674.674,0,0,0,.674-.673" transform="translate(-262.53 -488.802)" fill="#fff"/>
              <path id="Trazado_113684-2" data-name="Trazado 113684" d="M331.523,526.781a.674.674,0,1,0-.673.673.674.674,0,0,0,.673-.673" transform="translate(-311.242 -488.802)" fill="#fff"/>
              <path id="Trazado_113685-2" data-name="Trazado 113685" d="M124.823,576.107a.674.674,0,1,0-.673.674.673.673,0,0,0,.673-.674" transform="translate(-116.395 -540.957)" fill="#fff"/>
              <path id="Trazado_113686-2" data-name="Trazado 113686" d="M176.5,576.107a.673.673,0,1,0-.673.674.673.673,0,0,0,.673-.674" transform="translate(-165.107 -540.957)" fill="#fff"/>
              <path id="Trazado_113687-2" data-name="Trazado 113687" d="M228.173,576.107a.674.674,0,1,0-.673.674.673.673,0,0,0,.673-.674" transform="translate(-213.818 -540.957)" fill="#fff"/>
              <path id="Trazado_113688-2" data-name="Trazado 113688" d="M279.848,576.107a.674.674,0,1,0-.674.674.674.674,0,0,0,.674-.674" transform="translate(-262.53 -540.957)" fill="#fff"/>
              <path id="Trazado_113689-2" data-name="Trazado 113689" d="M331.523,576.107a.674.674,0,1,0-.673.674.673.673,0,0,0,.673-.674" transform="translate(-311.242 -540.957)" fill="#fff"/>
              <rect id="Rectángulo_33843-2" data-name="Rectángulo 33843" width="11.831" height="2.768" transform="translate(49.618 54.984)" fill="#f9e8dc"/>
              <rect id="Rectángulo_33844-2" data-name="Rectángulo 33844" width="11.954" height="5.084" transform="translate(5.552 59.979)" fill="#f9e8dc"/>
              <path id="Trazado_113690-2" data-name="Trazado 113690" d="M173.866,5.4h7.859a1.353,1.353,0,0,0,1.353-1.353v-2.7A1.353,1.353,0,0,0,181.726,0h-7.859a1.352,1.352,0,0,0-1.352,1.352v2.7A1.352,1.352,0,0,0,173.866,5.4" transform="translate(-162.621 63.419)" fill="#eb9ba8"/>
              <path id="Trazado_113691-2" data-name="Trazado 113691" d="M206.987,36.292a.657.657,0,1,0-.657.657.657.657,0,0,0,.657-.657" transform="translate(-193.878 29.83)" fill="#fff"/>
              <path id="Trazado_113692-2" data-name="Trazado 113692" d="M254.479,36.292a.657.657,0,1,0-.657.657.657.657,0,0,0,.657-.657" transform="translate(-238.647 29.83)" fill="#fff"/>
              <path id="Trazado_113693-2" data-name="Trazado 113693" d="M301.971,36.292a.657.657,0,1,0-.657.657.657.657,0,0,0,.657-.657" transform="translate(-283.415 29.83)" fill="#fff"/>
            </g>
          </g>
          <g id="Grupo_951799-2" data-name="Grupo 951799" transform="translate(10.665 0)" opacity="0.251">
            <g id="Grupo_80323-2" data-name="Grupo 80323" clip-path="url(#clip-path-9)">
              <path id="Trazado_113615-2" data-name="Trazado 113615" d="M55.335,1.109c-.818.062-1.653.1-2.507.091-4.523-.034-8.946-1.25-13.5-1.2-9.642.1-19.565,1.1-27.9,7.274C-7.029,20.953-.977,50.261,14.327,62.292c8.132,6.393,18.262,8.348,27.966,8.529,12.493.233,28.517-3.719,37.468-14.236,6.236-7.327,7.787-24.4,6.329-34.072A30.707,30.707,0,0,0,75.074,3.326C68.213-1.944,62.4.574,55.335,1.109" transform="translate(0 0.004)" fill="#f1c6bd"/>
            </g>
          </g>
        </g>
      </g>
    </g>
  </g>
</svg>
