<svg xmlns="http://www.w3.org/2000/svg" xmlns:xlink="http://www.w3.org/1999/xlink" width="369" height="660" viewBox="0 0 369 660">
  <defs>
    <clipPath id="clip-path">
      <rect id="Rectángulo_33768" data-name="Rectángulo 33768" width="349.51" height="274.126" fill="none" stroke="#707070" stroke-width="1"/>
    </clipPath>
    <clipPath id="clip-path-2">
      <rect id="Rectángulo_33845" data-name="Rectángulo 33845" width="349.51" height="239.704" transform="translate(0 0)" fill="none"/>
    </clipPath>
    <clipPath id="clip-path-3">
      <rect id="Rectángulo_33841" data-name="Rectángulo 33841" width="301.619" height="246.715" fill="none"/>
    </clipPath>
    <clipPath id="clip-path-4">
      <rect id="Rectángulo_344652" data-name="Rectángulo 344652" width="359" height="271" transform="translate(-0.161 0.099)" fill="#ffa031" opacity="0.38"/>
    </clipPath>
    <clipPath id="clip-path-5">
      <rect id="Rectángulo_344722" data-name="Rectángulo 344722" width="365" height="307" transform="translate(0.424 -0.029)" fill="#ffa031" opacity="0.46"/>
    </clipPath>
    <clipPath id="clip-path-6">
      <rect id="Rectángulo_344721" data-name="Rectángulo 344721" width="495" height="496" transform="translate(0.228 -0.245)" fill="none"/>
    </clipPath>
    <filter id="Trazado_699647" x="15.624" y="230.363" width="78.838" height="41.15" filterUnits="userSpaceOnUse">
      <feOffset dy="3" input="SourceAlpha"/>
      <feGaussianBlur stdDeviation="3" result="blur"/>
      <feFlood flood-opacity="0.161"/>
      <feComposite operator="in" in2="blur"/>
      <feComposite in="SourceGraphic"/>
    </filter>
    <filter id="Trazado_697642" x="243.548" y="-108.094" width="50.766" height="50.767" filterUnits="userSpaceOnUse">
      <feOffset dy="3" input="SourceAlpha"/>
      <feGaussianBlur stdDeviation="3" result="blur-2"/>
      <feFlood flood-opacity="0.161"/>
      <feComposite operator="in" in2="blur-2"/>
      <feComposite in="SourceGraphic"/>
    </filter>
    <filter id="Trazado_699648" x="-0.209" y="71.624" width="44.836" height="44.836" filterUnits="userSpaceOnUse">
      <feOffset dy="3" input="SourceAlpha"/>
      <feGaussianBlur stdDeviation="3" result="blur-3"/>
      <feFlood flood-opacity="0.161"/>
      <feComposite operator="in" in2="blur-3"/>
      <feComposite in="SourceGraphic"/>
    </filter>
    <filter id="Rectángulo_345159" x="227.893" y="34.169" width="44.836" height="44.836" filterUnits="userSpaceOnUse">
      <feOffset dy="3" input="SourceAlpha"/>
      <feGaussianBlur stdDeviation="3" result="blur-4"/>
      <feFlood flood-opacity="0.161"/>
      <feComposite operator="in" in2="blur-4"/>
      <feComposite in="SourceGraphic"/>
    </filter>
    <filter id="Rectángulo_345160" x="326.665" y="159.897" width="44.836" height="44.836" filterUnits="userSpaceOnUse">
      <feOffset dy="3" input="SourceAlpha"/>
      <feGaussianBlur stdDeviation="3" result="blur-5"/>
      <feFlood flood-opacity="0.161"/>
      <feComposite operator="in" in2="blur-5"/>
      <feComposite in="SourceGraphic"/>
    </filter>
    <filter id="Rectángulo_344711" x="11.774" y="-62.565" width="36.501" height="36.501" filterUnits="userSpaceOnUse">
      <feOffset dy="3" input="SourceAlpha"/>
      <feGaussianBlur stdDeviation="3" result="blur-6"/>
      <feFlood flood-opacity="0.161"/>
      <feComposite operator="in" in2="blur-6"/>
      <feComposite in="SourceGraphic"/>
    </filter>
    <filter id="Rectángulo_344712" x="212.805" y="-116.551" width="34.916" height="34.916" filterUnits="userSpaceOnUse">
      <feOffset dy="3" input="SourceAlpha"/>
      <feGaussianBlur stdDeviation="3" result="blur-7"/>
      <feFlood flood-opacity="0.161"/>
      <feComposite operator="in" in2="blur-7"/>
      <feComposite in="SourceGraphic"/>
    </filter>
    <clipPath id="clip-path-9">
      <rect id="Rectángulo_344718" data-name="Rectángulo 344718" width="0.176" height="3.747" fill="none"/>
    </clipPath>
    <clipPath id="clip-path-11">
      <rect id="Rectángulo_344730" data-name="Rectángulo 344730" width="262.77" height="288.659" fill="none"/>
    </clipPath>
    <clipPath id="clip-path-13">
      <rect id="Rectángulo_344723" data-name="Rectángulo 344723" width="24.573" height="52.128" fill="none"/>
    </clipPath>
    <clipPath id="clip-path-14">
      <rect id="Rectángulo_344724" data-name="Rectángulo 344724" width="33.737" height="59.585" fill="none"/>
    </clipPath>
    <clipPath id="clip-path-15">
      <rect id="Rectángulo_344725" data-name="Rectángulo 344725" width="24.548" height="39.848" fill="none"/>
    </clipPath>
    <clipPath id="clip-path-16">
      <rect id="Rectángulo_344726" data-name="Rectángulo 344726" width="25.42" height="45.795" fill="none"/>
    </clipPath>
    <clipPath id="clip-path-17">
      <rect id="Rectángulo_344727" data-name="Rectángulo 344727" width="37.498" height="16.618" fill="none"/>
    </clipPath>
    <clipPath id="clip-path-18">
      <rect id="Rectángulo_344728" data-name="Rectángulo 344728" width="35.625" height="17.695" fill="none"/>
    </clipPath>
  </defs>
  <g id="Grupo_1005937" data-name="Grupo 1005937" transform="translate(6653 7871)">
    <path id="Trazado_701920" data-name="Trazado 701920" d="M19.5,0h219a19.5,19.5,0,0,1,0,39H19.5a19.5,19.5,0,0,1,0-39Z" transform="translate(-6598 -7520)" fill="#112e4c"/>
    <path id="Trazado_701921" data-name="Trazado 701921" d="M38,17V4.2h4.122a6.064,6.064,0,0,1,3.05.769,5.406,5.406,0,0,1,2.114,2.171,6.554,6.554,0,0,1,.769,3.142v.589a6.592,6.592,0,0,1-.743,3.151,5.429,5.429,0,0,1-2.092,2.18,5.93,5.93,0,0,1-3.01.8ZM41.088,6.585v8.042H42.16a2.4,2.4,0,0,0,2.039-.945,4.63,4.63,0,0,0,.712-2.808V10.32A4.592,4.592,0,0,0,44.2,7.525a2.442,2.442,0,0,0-2.074-.94ZM52.628,17H49.657V7.49h2.971ZM49.481,5.029a1.334,1.334,0,0,1,.457-1.043,1.934,1.934,0,0,1,2.373,0,1.334,1.334,0,0,1,.457,1.043,1.334,1.334,0,0,1-.457,1.043,1.934,1.934,0,0,1-2.373,0A1.334,1.334,0,0,1,49.481,5.029Zm9.949,9.3a.684.684,0,0,0-.4-.606,6.016,6.016,0,0,0-1.5-.475A6.853,6.853,0,0,1,55.7,12.6a3.062,3.062,0,0,1-1.1-.971,2.319,2.319,0,0,1-.378-1.31,2.628,2.628,0,0,1,1.081-2.158,4.453,4.453,0,0,1,2.83-.848,4.934,4.934,0,0,1,3.023.853A2.666,2.666,0,0,1,62.3,10.408H59.334q0-1.143-1.2-1.143a1.194,1.194,0,0,0-.782.259.8.8,0,0,0-.316.646.737.737,0,0,0,.387.642,3.654,3.654,0,0,0,1.235.4,10.671,10.671,0,0,1,1.49.378,2.706,2.706,0,0,1,2.145,2.646,2.491,2.491,0,0,1-1.156,2.118,5.068,5.068,0,0,1-2.993.817,5.172,5.172,0,0,1-2.18-.439,3.645,3.645,0,0,1-1.494-1.2,2.707,2.707,0,0,1-.536-1.591H56.7a1.145,1.145,0,0,0,.439.962,1.808,1.808,0,0,0,1.081.3,1.422,1.422,0,0,0,.91-.246A.787.787,0,0,0,59.431,14.328ZM72.5,12.315a5.735,5.735,0,0,1-1,3.538,3.2,3.2,0,0,1-2.694,1.323,2.742,2.742,0,0,1-2.153-.958v4.438H63.693V7.49h2.769l.088.879a2.742,2.742,0,0,1,2.241-1.055,3.224,3.224,0,0,1,2.733,1.3,5.805,5.805,0,0,1,.976,3.564Zm-2.962-.185q0-2.531-1.477-2.531a1.394,1.394,0,0,0-1.406.756V14.1a1.439,1.439,0,0,0,1.424.791q1.415,0,1.459-2.443Zm3.894.026a5.613,5.613,0,0,1,.554-2.536,3.96,3.96,0,0,1,1.591-1.709,4.791,4.791,0,0,1,2.435-.6,4.373,4.373,0,0,1,3.366,1.323,5.076,5.076,0,0,1,1.23,3.6v.105a4.925,4.925,0,0,1-1.235,3.529,4.384,4.384,0,0,1-3.344,1.305,4.434,4.434,0,0,1-3.261-1.217,4.761,4.761,0,0,1-1.327-3.3Zm2.962.185a3.538,3.538,0,0,0,.413,1.934,1.376,1.376,0,0,0,1.222.615q1.582,0,1.617-2.435v-.3q0-2.558-1.635-2.558-1.485,0-1.608,2.206ZM86.633,7.49l.1,1.116a3.225,3.225,0,0,1,2.716-1.292,2.713,2.713,0,0,1,2.219.888,4.226,4.226,0,0,1,.76,2.672V17H89.454V11a1.6,1.6,0,0,0-.29-1.059A1.342,1.342,0,0,0,88.109,9.6a1.413,1.413,0,0,0-1.292.686V17H83.855V7.49ZM97.188,17H94.218V7.49h2.971ZM94.042,5.029A1.334,1.334,0,0,1,94.5,3.986a1.934,1.934,0,0,1,2.373,0,1.334,1.334,0,0,1,.457,1.043,1.334,1.334,0,0,1-.457,1.043,1.934,1.934,0,0,1-2.373,0A1.334,1.334,0,0,1,94.042,5.029Zm13.8,7.295a5.8,5.8,0,0,1-.967,3.595,3.238,3.238,0,0,1-2.725,1.257,2.81,2.81,0,0,1-2.338-1.151l-.123.976H99.034V3.5H102V8.255a2.711,2.711,0,0,1,2.136-.94,3.239,3.239,0,0,1,2.742,1.274,5.826,5.826,0,0,1,.967,3.586Zm-2.971-.189a3.866,3.866,0,0,0-.365-1.952,1.229,1.229,0,0,0-1.121-.584,1.418,1.418,0,0,0-1.389.763v3.773a1.426,1.426,0,0,0,1.406.755,1.258,1.258,0,0,0,1.327-1.018A7.309,7.309,0,0,0,104.87,12.135Zm7.4,4.865H109.3V7.49h2.971ZM109.124,5.029a1.334,1.334,0,0,1,.457-1.043,1.934,1.934,0,0,1,2.373,0,1.334,1.334,0,0,1,.457,1.043,1.334,1.334,0,0,1-.457,1.043,1.934,1.934,0,0,1-2.373,0A1.334,1.334,0,0,1,109.124,5.029ZM117.219,17h-2.971V3.5h2.971Zm4.948,0H119.2V7.49h2.971ZM119.021,5.029a1.334,1.334,0,0,1,.457-1.043,1.934,1.934,0,0,1,2.373,0,1.334,1.334,0,0,1,.457,1.043,1.334,1.334,0,0,1-.457,1.043,1.934,1.934,0,0,1-2.373,0A1.334,1.334,0,0,1,119.021,5.029Zm4.6,7.146a5.809,5.809,0,0,1,.976-3.56,3.211,3.211,0,0,1,2.725-1.3,2.731,2.731,0,0,1,2.145,1V3.5h2.971V17H129.77l-.149-1.02a2.8,2.8,0,0,1-2.32,1.2,3.205,3.205,0,0,1-2.689-1.3A5.993,5.993,0,0,1,123.617,12.175Zm2.962.185q0,2.531,1.477,2.531a1.458,1.458,0,0,0,1.406-.826V10.443a1.419,1.419,0,0,0-1.389-.844q-1.371,0-1.485,2.215ZM139.473,17a3.344,3.344,0,0,1-.281-.853,2.754,2.754,0,0,1-2.285,1.028,3.374,3.374,0,0,1-2.285-.813,2.588,2.588,0,0,1-.94-2.043,2.66,2.66,0,0,1,1.143-2.338,5.821,5.821,0,0,1,3.322-.791h.914v-.5q0-1.316-1.134-1.316a.927.927,0,0,0-1.055,1.042h-2.962a2.655,2.655,0,0,1,1.173-2.239,4.931,4.931,0,0,1,2.993-.86,4.323,4.323,0,0,1,2.874.888,3.086,3.086,0,0,1,1.081,2.435v4.21a4.311,4.311,0,0,0,.4,2V17Zm-1.854-1.934a1.652,1.652,0,0,0,.918-.237,1.487,1.487,0,0,0,.523-.536V12.772H138.2q-1.547,0-1.547,1.389a.848.848,0,0,0,.272.655A.986.986,0,0,0,137.618,15.066Zm5.678-2.892a5.809,5.809,0,0,1,.976-3.56A3.211,3.211,0,0,1,147,7.314a2.731,2.731,0,0,1,2.145,1V3.5h2.971V17h-2.663l-.149-1.02a2.8,2.8,0,0,1-2.32,1.2,3.205,3.205,0,0,1-2.689-1.3A5.993,5.993,0,0,1,143.3,12.175Zm2.962.185q0,2.531,1.477,2.531a1.458,1.458,0,0,0,1.406-.826V10.443a1.419,1.419,0,0,0-1.389-.844q-1.371,0-1.485,2.215Z" transform="translate(-6564 -7511)" fill="#fff"/>
    <path id="Trazado_701922" data-name="Trazado 701922" d="M19.5,0h219a19.5,19.5,0,0,1,0,39H19.5a19.5,19.5,0,0,1,0-39Z" transform="translate(-6598 -7466)" fill="#112e4c"/>
    <path id="Trazado_701923" data-name="Trazado 701923" d="M67.938,12.474h-1.67V17H63.184V4.2H68.22a5.621,5.621,0,0,1,3.56,1.01,3.421,3.421,0,0,1,1.283,2.853,4.155,4.155,0,0,1-.541,2.213A3.837,3.837,0,0,1,70.83,11.7L73.5,16.868V17H70.2ZM66.269,10.1H68.22a1.751,1.751,0,0,0,1.323-.463,1.788,1.788,0,0,0,.444-1.291,1.809,1.809,0,0,0-.448-1.3,1.735,1.735,0,0,0-1.318-.471H66.269ZM80.146,17a3.344,3.344,0,0,1-.281-.853,2.754,2.754,0,0,1-2.285,1.028,3.374,3.374,0,0,1-2.285-.813,2.588,2.588,0,0,1-.94-2.043A2.66,2.66,0,0,1,75.5,11.981a5.821,5.821,0,0,1,3.322-.791h.914v-.5q0-1.316-1.134-1.316a.927.927,0,0,0-1.055,1.042H74.583a2.655,2.655,0,0,1,1.173-2.239,4.931,4.931,0,0,1,2.993-.86,4.323,4.323,0,0,1,2.874.888A3.086,3.086,0,0,1,82.7,10.637v4.21a4.311,4.311,0,0,0,.4,2V17Zm-1.854-1.934a1.652,1.652,0,0,0,.918-.237,1.487,1.487,0,0,0,.523-.536V12.772h-.861q-1.547,0-1.547,1.389a.848.848,0,0,0,.272.655A.986.986,0,0,0,78.292,15.066Zm14.88-2.751a5.735,5.735,0,0,1-1,3.538,3.2,3.2,0,0,1-2.694,1.323,2.742,2.742,0,0,1-2.153-.958v4.438H84.365V7.49h2.769l.088.879a2.742,2.742,0,0,1,2.241-1.055,3.224,3.224,0,0,1,2.733,1.3,5.805,5.805,0,0,1,.976,3.564Zm-2.962-.185q0-2.531-1.477-2.531a1.394,1.394,0,0,0-1.406.756V14.1a1.439,1.439,0,0,0,1.424.791q1.415,0,1.459-2.443ZM97.6,17H94.631V7.49H97.6ZM94.455,5.029a1.334,1.334,0,0,1,.457-1.043,1.934,1.934,0,0,1,2.373,0,1.334,1.334,0,0,1,.457,1.043,1.334,1.334,0,0,1-.457,1.043,1.934,1.934,0,0,1-2.373,0A1.334,1.334,0,0,1,94.455,5.029Zm4.6,7.146a5.809,5.809,0,0,1,.976-3.56,3.211,3.211,0,0,1,2.725-1.3,2.731,2.731,0,0,1,2.145,1V3.5h2.971V17H105.2l-.149-1.02a2.8,2.8,0,0,1-2.32,1.2,3.205,3.205,0,0,1-2.689-1.3A5.993,5.993,0,0,1,99.052,12.175Zm2.962.185q0,2.531,1.477,2.531a1.458,1.458,0,0,0,1.406-.826V10.443a1.419,1.419,0,0,0-1.389-.844q-1.371,0-1.485,2.215Zm12.138,4.816a4.889,4.889,0,0,1-3.542-1.305,4.507,4.507,0,0,1-1.354-3.4v-.246a5.84,5.84,0,0,1,.541-2.575,3.955,3.955,0,0,1,1.578-1.727,4.763,4.763,0,0,1,2.461-.611A4.117,4.117,0,0,1,117,8.558a4.887,4.887,0,0,1,1.16,3.467v1.151h-5.889a2.135,2.135,0,0,0,.694,1.257,2.066,2.066,0,0,0,1.389.457,2.662,2.662,0,0,0,2.2-.984l1.354,1.6a3.784,3.784,0,0,1-1.569,1.217A5.3,5.3,0,0,1,114.151,17.176ZM113.817,9.6q-1.3,0-1.547,1.723h2.988v-.229a1.467,1.467,0,0,0-.36-1.1A1.434,1.434,0,0,0,113.817,9.6Zm9.026,5.115h4.333V17H119.1V15.348l4.219-5.572h-4.034V7.49h7.8v1.6Z" transform="translate(-6564 -7457)" fill="#fff"/>
    <path id="Trazado_701924" data-name="Trazado 701924" d="M19.5,0h219a19.5,19.5,0,0,1,0,39H19.5a19.5,19.5,0,0,1,0-39Z" transform="translate(-6598 -7412)" fill="#112e4c"/>
    <path id="Trazado_701925" data-name="Trazado 701925" d="M64.462,11.9H59.488V17H56.4V4.2h8.561V6.585H59.488V9.529h4.975ZM69.235,17H66.264V7.49h2.971ZM66.088,5.029a1.334,1.334,0,0,1,.457-1.043,1.934,1.934,0,0,1,2.373,0,1.334,1.334,0,0,1,.457,1.043,1.334,1.334,0,0,1-.457,1.043,1.934,1.934,0,0,1-2.373,0A1.334,1.334,0,0,1,66.088,5.029ZM76.416,17a3.344,3.344,0,0,1-.281-.853,2.754,2.754,0,0,1-2.285,1.028,3.374,3.374,0,0,1-2.285-.813,2.588,2.588,0,0,1-.94-2.043,2.66,2.66,0,0,1,1.143-2.338,5.821,5.821,0,0,1,3.322-.791H76v-.5q0-1.316-1.134-1.316a.927.927,0,0,0-1.055,1.042H70.852a2.655,2.655,0,0,1,1.173-2.239,4.931,4.931,0,0,1,2.993-.86,4.323,4.323,0,0,1,2.874.888,3.086,3.086,0,0,1,1.081,2.435v4.21a4.311,4.311,0,0,0,.4,2V17Zm-1.854-1.934a1.652,1.652,0,0,0,.918-.237A1.487,1.487,0,0,0,76,14.293V12.772h-.861q-1.547,0-1.547,1.389a.848.848,0,0,0,.272.655A.986.986,0,0,0,74.561,15.066Zm14.88-2.742a5.8,5.8,0,0,1-.967,3.595,3.238,3.238,0,0,1-2.725,1.257,2.81,2.81,0,0,1-2.338-1.151L83.289,17H80.634V3.5H83.6V8.255a2.711,2.711,0,0,1,2.136-.94,3.239,3.239,0,0,1,2.742,1.274,5.826,5.826,0,0,1,.967,3.586Zm-2.971-.189a3.866,3.866,0,0,0-.365-1.952A1.229,1.229,0,0,0,84.985,9.6a1.418,1.418,0,0,0-1.389.763v3.773A1.426,1.426,0,0,0,85,14.891a1.258,1.258,0,0,0,1.327-1.018A7.309,7.309,0,0,0,86.47,12.135ZM93.871,17H90.9V7.49h2.971ZM90.724,5.029a1.334,1.334,0,0,1,.457-1.043,1.934,1.934,0,0,1,2.373,0,1.334,1.334,0,0,1,.457,1.043,1.334,1.334,0,0,1-.457,1.043,1.934,1.934,0,0,1-2.373,0A1.334,1.334,0,0,1,90.724,5.029ZM98.819,17H95.848V3.5h2.971Zm4.948,0H100.8V7.49h2.971ZM100.621,5.029a1.334,1.334,0,0,1,.457-1.043,1.934,1.934,0,0,1,2.373,0,1.334,1.334,0,0,1,.457,1.043,1.334,1.334,0,0,1-.457,1.043,1.934,1.934,0,0,1-2.373,0A1.334,1.334,0,0,1,100.621,5.029Zm4.6,7.146a5.809,5.809,0,0,1,.976-3.56,3.211,3.211,0,0,1,2.725-1.3,2.731,2.731,0,0,1,2.145,1V3.5h2.971V17H111.37l-.149-1.02a2.8,2.8,0,0,1-2.32,1.2,3.205,3.205,0,0,1-2.689-1.3A5.993,5.993,0,0,1,105.217,12.175Zm2.962.185q0,2.531,1.477,2.531a1.458,1.458,0,0,0,1.406-.826V10.443a1.419,1.419,0,0,0-1.389-.844q-1.371,0-1.485,2.215ZM121.073,17a3.344,3.344,0,0,1-.281-.853,2.754,2.754,0,0,1-2.285,1.028,3.374,3.374,0,0,1-2.285-.813,2.588,2.588,0,0,1-.94-2.043,2.66,2.66,0,0,1,1.143-2.338,5.821,5.821,0,0,1,3.322-.791h.914v-.5q0-1.316-1.134-1.316a.927.927,0,0,0-1.055,1.042h-2.962a2.655,2.655,0,0,1,1.173-2.239,4.931,4.931,0,0,1,2.993-.86,4.323,4.323,0,0,1,2.874.888,3.086,3.086,0,0,1,1.081,2.435v4.21a4.311,4.311,0,0,0,.4,2V17Zm-1.854-1.934a1.652,1.652,0,0,0,.918-.237,1.487,1.487,0,0,0,.523-.536V12.772H119.8q-1.547,0-1.547,1.389a.848.848,0,0,0,.272.655A.986.986,0,0,0,119.218,15.066Zm5.678-2.892a5.809,5.809,0,0,1,.976-3.56,3.211,3.211,0,0,1,2.725-1.3,2.731,2.731,0,0,1,2.145,1V3.5h2.971V17h-2.663l-.149-1.02a2.8,2.8,0,0,1-2.32,1.2,3.205,3.205,0,0,1-2.689-1.3A5.993,5.993,0,0,1,124.9,12.175Zm2.962.185q0,2.531,1.477,2.531a1.458,1.458,0,0,0,1.406-.826V10.443a1.419,1.419,0,0,0-1.389-.844q-1.371,0-1.485,2.215Z" transform="translate(-6564 -7403)" fill="#fff"/>
    <path id="Trazado_701926" data-name="Trazado 701926" d="M19.5,0h219a19.5,19.5,0,0,1,0,39H19.5a19.5,19.5,0,0,1,0-39Z" transform="translate(-6598 -7358)" fill="#112e4c"/>
    <path id="Trazado_701927" data-name="Trazado 701927" d="M82.739,12.667a4.673,4.673,0,0,1-.721,2.36,4.35,4.35,0,0,1-1.85,1.586,6.3,6.3,0,0,1-2.72.563,5.025,5.025,0,0,1-3.973-1.644,6.786,6.786,0,0,1-1.45-4.641v-.633a7.746,7.746,0,0,1,.655-3.292,4.961,4.961,0,0,1,1.885-2.18,5.26,5.26,0,0,1,2.848-.769,5.516,5.516,0,0,1,3.744,1.226,4.844,4.844,0,0,1,1.608,3.379H79.689A2.292,2.292,0,0,0,79.1,6.945a2.422,2.422,0,0,0-1.687-.51,1.843,1.843,0,0,0-1.687.861,5.536,5.536,0,0,0-.562,2.751v.905a6.126,6.126,0,0,0,.514,2.927,1.882,1.882,0,0,0,1.771.879,2.369,2.369,0,0,0,1.626-.5,2.126,2.126,0,0,0,.6-1.591Zm.949-.51a5.613,5.613,0,0,1,.554-2.536,3.96,3.96,0,0,1,1.591-1.709,4.791,4.791,0,0,1,2.435-.6,4.373,4.373,0,0,1,3.366,1.323,5.076,5.076,0,0,1,1.23,3.6v.105a4.925,4.925,0,0,1-1.235,3.529,4.384,4.384,0,0,1-3.344,1.305,4.434,4.434,0,0,1-3.261-1.217,4.761,4.761,0,0,1-1.327-3.3Zm2.962.185a3.538,3.538,0,0,0,.413,1.934,1.376,1.376,0,0,0,1.222.615q1.582,0,1.617-2.435v-.3Q89.9,9.6,88.268,9.6q-1.485,0-1.608,2.206Zm12.5,1.986a.684.684,0,0,0-.4-.606,6.016,6.016,0,0,0-1.5-.475,6.853,6.853,0,0,1-1.828-.646,3.062,3.062,0,0,1-1.1-.971,2.319,2.319,0,0,1-.378-1.31,2.628,2.628,0,0,1,1.081-2.158,4.453,4.453,0,0,1,2.83-.848,4.934,4.934,0,0,1,3.023.853,2.666,2.666,0,0,1,1.143,2.241H99.052q0-1.143-1.2-1.143a1.194,1.194,0,0,0-.782.259.8.8,0,0,0-.316.646.737.737,0,0,0,.387.642,3.654,3.654,0,0,0,1.235.4,10.671,10.671,0,0,1,1.49.378A2.706,2.706,0,0,1,102,14.24a2.491,2.491,0,0,1-1.156,2.118,5.068,5.068,0,0,1-2.993.817,5.172,5.172,0,0,1-2.18-.439,3.645,3.645,0,0,1-1.494-1.2,2.707,2.707,0,0,1-.536-1.591h2.769a1.145,1.145,0,0,0,.439.962,1.808,1.808,0,0,0,1.081.3,1.422,1.422,0,0,0,.91-.246A.787.787,0,0,0,99.148,14.328Zm7.69-9.2V7.49H108.4V9.547h-1.564V13.9a1.111,1.111,0,0,0,.193.747,1.037,1.037,0,0,0,.765.211,4.345,4.345,0,0,0,.738-.053v2.118a5.466,5.466,0,0,1-1.67.255,3.1,3.1,0,0,1-2.259-.721,2.954,2.954,0,0,1-.729-2.188V9.547h-1.213V7.49h1.213V5.126Zm2.092,7.031a5.613,5.613,0,0,1,.554-2.536,3.96,3.96,0,0,1,1.591-1.709,4.791,4.791,0,0,1,2.435-.6,4.373,4.373,0,0,1,3.366,1.323,5.076,5.076,0,0,1,1.23,3.6v.105a4.925,4.925,0,0,1-1.235,3.529,4.384,4.384,0,0,1-3.344,1.305,4.434,4.434,0,0,1-3.261-1.217,4.761,4.761,0,0,1-1.327-3.3Zm2.962.185a3.538,3.538,0,0,0,.413,1.934,1.376,1.376,0,0,0,1.222.615q1.582,0,1.617-2.435v-.3q0-2.558-1.635-2.558-1.485,0-1.608,2.206Z" transform="translate(-6563 -7349)" fill="#fff"/>
    <path id="Trazado_701928" data-name="Trazado 701928" d="M19.5,0h219a19.5,19.5,0,0,1,0,39H19.5a19.5,19.5,0,0,1,0-39Z" transform="translate(-6598 -7304)" fill="#112e4c"/>
    <path id="Trazado_701929" data-name="Trazado 701929" d="M69.217,13.6a1.268,1.268,0,0,0-.479-1.055,5.954,5.954,0,0,0-1.683-.782,16.147,16.147,0,0,1-1.969-.782Q62.6,9.758,62.6,7.622a3.011,3.011,0,0,1,.62-1.876A4.008,4.008,0,0,1,64.972,4.48a6.823,6.823,0,0,1,2.549-.453A5.969,5.969,0,0,1,70,4.52a3.917,3.917,0,0,1,1.7,1.4A3.661,3.661,0,0,1,72.3,8H69.226a1.547,1.547,0,0,0-.479-1.213,1.867,1.867,0,0,0-1.3-.431,2.106,2.106,0,0,0-1.305.365,1.074,1.074,0,0,0,.048,1.819,6.65,6.65,0,0,0,1.854.826,11.36,11.36,0,0,1,2.18.918,3.663,3.663,0,0,1,2.074,3.3,3.125,3.125,0,0,1-1.266,2.637,5.629,5.629,0,0,1-3.472.958,6.888,6.888,0,0,1-2.817-.558,4.247,4.247,0,0,1-1.9-1.529,3.985,3.985,0,0,1-.637-2.237h3.094a1.963,1.963,0,0,0,.532,1.516,2.513,2.513,0,0,0,1.727.488,1.985,1.985,0,0,0,1.208-.33A1.088,1.088,0,0,0,69.217,13.6Zm9.132,3.577a4.889,4.889,0,0,1-3.542-1.305,4.507,4.507,0,0,1-1.354-3.4v-.246a5.84,5.84,0,0,1,.541-2.575,3.955,3.955,0,0,1,1.578-1.727,4.763,4.763,0,0,1,2.461-.611A4.117,4.117,0,0,1,81.2,8.558a4.887,4.887,0,0,1,1.16,3.467v1.151H76.468a2.135,2.135,0,0,0,.694,1.257,2.066,2.066,0,0,0,1.389.457,2.662,2.662,0,0,0,2.2-.984l1.354,1.6a3.784,3.784,0,0,1-1.569,1.217A5.3,5.3,0,0,1,78.349,17.176ZM78.015,9.6q-1.3,0-1.547,1.723h2.988v-.229a1.467,1.467,0,0,0-.36-1.1A1.434,1.434,0,0,0,78.015,9.6Zm11.285.571-.976-.07a1.752,1.752,0,0,0-1.793.879V17H83.57V7.49h2.777l.1,1.222a2.294,2.294,0,0,1,2.083-1.4,2.888,2.888,0,0,1,.826.105Zm5.019,3.3,1.5-5.985h3.12L95.839,17H92.816l-3.1-9.51h3.129ZM102.95,17H99.979V7.49h2.971ZM99.8,5.029a1.334,1.334,0,0,1,.457-1.043,1.934,1.934,0,0,1,2.373,0,1.334,1.334,0,0,1,.457,1.043,1.334,1.334,0,0,1-.457,1.043,1.934,1.934,0,0,1-2.373,0A1.334,1.334,0,0,1,99.8,5.029Zm8.991,9.861a1.317,1.317,0,0,0,.967-.338,1.241,1.241,0,0,0,.334-.945h2.777a3.288,3.288,0,0,1-1.121,2.566,4.168,4.168,0,0,1-2.887,1,4.22,4.22,0,0,1-3.27-1.3,5.125,5.125,0,0,1-1.2-3.6v-.123a5.792,5.792,0,0,1,.532-2.544,3.872,3.872,0,0,1,1.534-1.7,4.573,4.573,0,0,1,2.373-.593,4.116,4.116,0,0,1,2.944,1.028,3.647,3.647,0,0,1,1.09,2.786H110.1a1.626,1.626,0,0,0-.36-1.134,1.244,1.244,0,0,0-.967-.4q-1.151,0-1.345,1.468a10.357,10.357,0,0,0-.062,1.283,4.068,4.068,0,0,0,.343,1.986A1.187,1.187,0,0,0,108.794,14.891ZM117.25,17h-2.971V7.49h2.971ZM114.1,5.029a1.334,1.334,0,0,1,.457-1.043,1.934,1.934,0,0,1,2.373,0,1.334,1.334,0,0,1,.457,1.043,1.334,1.334,0,0,1-.457,1.043,1.934,1.934,0,0,1-2.373,0A1.334,1.334,0,0,1,114.1,5.029Zm4.6,7.128a5.613,5.613,0,0,1,.554-2.536,3.96,3.96,0,0,1,1.591-1.709,4.791,4.791,0,0,1,2.435-.6,4.373,4.373,0,0,1,3.366,1.323,5.076,5.076,0,0,1,1.23,3.6v.105a4.925,4.925,0,0,1-1.235,3.529,4.384,4.384,0,0,1-3.344,1.305,4.434,4.434,0,0,1-3.261-1.217,4.761,4.761,0,0,1-1.327-3.3Zm2.962.185a3.538,3.538,0,0,0,.413,1.934,1.376,1.376,0,0,0,1.222.615q1.582,0,1.617-2.435v-.3q0-2.558-1.635-2.558-1.485,0-1.608,2.206Z" transform="translate(-6563 -7295)" fill="#fff"/>
    <path id="Trazado_701930" data-name="Trazado 701930" d="M19.5,0h219a19.5,19.5,0,0,1,0,39H19.5a19.5,19.5,0,0,1,0-39Z" transform="translate(-6598 -7250)" fill="#112e4c"/>
    <path id="Trazado_701931" data-name="Trazado 701931" d="M75.787,12.667a4.673,4.673,0,0,1-.721,2.36,4.35,4.35,0,0,1-1.85,1.586,6.3,6.3,0,0,1-2.72.563,5.025,5.025,0,0,1-3.973-1.644,6.786,6.786,0,0,1-1.45-4.641v-.633a7.746,7.746,0,0,1,.655-3.292,4.961,4.961,0,0,1,1.885-2.18,5.26,5.26,0,0,1,2.848-.769,5.516,5.516,0,0,1,3.744,1.226,4.844,4.844,0,0,1,1.608,3.379H72.737a2.292,2.292,0,0,0-.589-1.679,2.422,2.422,0,0,0-1.687-.51,1.843,1.843,0,0,0-1.687.861,5.536,5.536,0,0,0-.562,2.751v.905a6.126,6.126,0,0,0,.514,2.927,1.882,1.882,0,0,0,1.771.879,2.369,2.369,0,0,0,1.626-.5,2.126,2.126,0,0,0,.6-1.591ZM82.467,17a3.344,3.344,0,0,1-.281-.853A2.754,2.754,0,0,1,79.9,17.176a3.374,3.374,0,0,1-2.285-.813,2.588,2.588,0,0,1-.94-2.043,2.66,2.66,0,0,1,1.143-2.338,5.821,5.821,0,0,1,3.322-.791h.914v-.5q0-1.316-1.134-1.316a.927.927,0,0,0-1.055,1.042H76.9a2.655,2.655,0,0,1,1.173-2.239,4.931,4.931,0,0,1,2.993-.86,4.323,4.323,0,0,1,2.874.888,3.086,3.086,0,0,1,1.081,2.435v4.21a4.311,4.311,0,0,0,.4,2V17Zm-1.854-1.934a1.652,1.652,0,0,0,.918-.237,1.487,1.487,0,0,0,.523-.536V12.772h-.861q-1.547,0-1.547,1.389a.848.848,0,0,0,.272.655A.986.986,0,0,0,80.612,15.066ZM89.788,17H86.817V3.5h2.971Zm4.948,0H91.766V7.49h2.971ZM91.59,5.029a1.334,1.334,0,0,1,.457-1.043,1.934,1.934,0,0,1,2.373,0,1.334,1.334,0,0,1,.457,1.043,1.334,1.334,0,0,1-.457,1.043,1.934,1.934,0,0,1-2.373,0A1.334,1.334,0,0,1,91.59,5.029Zm4.6,7.146a5.809,5.809,0,0,1,.976-3.56,3.211,3.211,0,0,1,2.725-1.3,2.731,2.731,0,0,1,2.145,1V3.5H105V17h-2.663l-.149-1.02a2.8,2.8,0,0,1-2.32,1.2,3.205,3.205,0,0,1-2.689-1.3A5.993,5.993,0,0,1,96.187,12.175Zm2.962.185q0,2.531,1.477,2.531a1.458,1.458,0,0,0,1.406-.826V10.443a1.419,1.419,0,0,0-1.389-.844q-1.371,0-1.485,2.215ZM112.042,17a3.344,3.344,0,0,1-.281-.853,2.754,2.754,0,0,1-2.285,1.028,3.374,3.374,0,0,1-2.285-.813,2.588,2.588,0,0,1-.94-2.043,2.66,2.66,0,0,1,1.143-2.338,5.821,5.821,0,0,1,3.322-.791h.914v-.5q0-1.316-1.134-1.316a.927.927,0,0,0-1.055,1.042h-2.962a2.655,2.655,0,0,1,1.173-2.239,4.931,4.931,0,0,1,2.993-.86,4.323,4.323,0,0,1,2.874.888,3.086,3.086,0,0,1,1.081,2.435v4.21a4.311,4.311,0,0,0,.4,2V17Zm-1.854-1.934a1.652,1.652,0,0,0,.918-.237,1.487,1.487,0,0,0,.523-.536V12.772h-.861q-1.547,0-1.547,1.389a.848.848,0,0,0,.272.655A.986.986,0,0,0,110.188,15.066Zm5.678-2.892a5.809,5.809,0,0,1,.976-3.56,3.211,3.211,0,0,1,2.725-1.3,2.731,2.731,0,0,1,2.145,1V3.5h2.971V17h-2.663l-.149-1.02a2.8,2.8,0,0,1-2.32,1.2,3.205,3.205,0,0,1-2.689-1.3A5.993,5.993,0,0,1,115.865,12.175Zm2.962.185q0,2.531,1.477,2.531a1.458,1.458,0,0,0,1.406-.826V10.443a1.419,1.419,0,0,0-1.389-.844q-1.371,0-1.485,2.215Z" transform="translate(-6563 -7241)" fill="#fff"/>
    <g id="Grupo_998893" data-name="Grupo 998893">
      <g id="Grupo_998885" data-name="Grupo 998885" transform="translate(-7265 -8976.19)">
        <g id="Grupo_990643" data-name="Grupo 990643" transform="translate(621 1118)">
          <g id="Grupo_951800" data-name="Grupo 951800" transform="translate(0 6.853)">
            <g id="Grupo_951798" data-name="Grupo 951798" transform="translate(0.489 16.27)">
              <g id="Grupo_80327" data-name="Grupo 80327" transform="translate(0 0)" clip-path="url(#clip-path-2)">
                <path id="Trazado_113636" data-name="Trazado 113636" d="M209.94,253.988a104.97,104.97,0,1,1-104.97-104.97,104.97,104.97,0,0,1,104.97,104.97" transform="translate(0 -119.254)" fill="#4db1f0"/>
                <path id="Sustracción_2" data-name="Sustracción 2" d="M76.061,152.125a76.683,76.683,0,0,1-15.329-1.545,75.653,75.653,0,0,1-27.2-11.446A76.27,76.27,0,0,1,5.977,105.668,75.607,75.607,0,0,1,1.545,91.392a76.808,76.808,0,0,1,0-30.659,75.658,75.658,0,0,1,11.445-27.2A76.272,76.272,0,0,1,46.455,5.977,75.673,75.673,0,0,1,60.732,1.545a76.806,76.806,0,0,1,30.658,0,75.656,75.656,0,0,1,27.2,11.445,76.28,76.28,0,0,1,27.557,33.466,75.64,75.64,0,0,1,4.432,14.278,76.808,76.808,0,0,1,0,30.659,75.674,75.674,0,0,1-11.445,27.2,76.291,76.291,0,0,1-33.465,27.558A75.7,75.7,0,0,1,91.39,150.58,76.685,76.685,0,0,1,76.061,152.125ZM76.061,15a61.064,61.064,0,1,0,61.065,61.064A61.133,61.133,0,0,0,76.061,15Z" transform="translate(197.387 87.579)" fill="#ffa031" stroke="rgba(0,0,0,0)" stroke-miterlimit="10" stroke-width="1"/>
                <path id="Trazado_113639" data-name="Trazado 113639" d="M625.5,670.581a37.117,37.117,0,1,1-37.117-37.117A37.117,37.117,0,0,1,625.5,670.581" transform="translate(-441.158 -506.939)" fill="#fff"/>
                <path id="Trazado_113640" data-name="Trazado 113640" d="M1471.616,263.988a2.346,2.346,0,1,1-2.346-2.346,2.346,2.346,0,0,1,2.346,2.346" transform="translate(-1173.927 -209.383)" fill="#f9e8dc"/>
                <path id="Trazado_113641" data-name="Trazado 113641" d="M1523.291,263.988a2.346,2.346,0,1,1-2.346-2.346,2.346,2.346,0,0,1,2.346,2.346" transform="translate(-1215.281 -209.383)" fill="#f9e8dc"/>
                <path id="Trazado_113642" data-name="Trazado 113642" d="M1574.966,263.988a2.346,2.346,0,1,1-2.346-2.346,2.346,2.346,0,0,1,2.346,2.346" transform="translate(-1256.635 -209.383)" fill="#f9e8dc"/>
                <path id="Trazado_113643" data-name="Trazado 113643" d="M1626.641,263.988a2.346,2.346,0,1,1-2.346-2.346,2.346,2.346,0,0,1,2.346,2.346" transform="translate(-1297.989 -209.383)" fill="#f9e8dc"/>
                <path id="Trazado_113644" data-name="Trazado 113644" d="M1678.316,263.988a2.346,2.346,0,1,1-2.346-2.346,2.346,2.346,0,0,1,2.346,2.346" transform="translate(-1339.342 -209.383)" fill="#f9e8dc"/>
                <path id="Trazado_113645" data-name="Trazado 113645" d="M1471.616,313.314a2.346,2.346,0,1,1-2.346-2.346,2.346,2.346,0,0,1,2.346,2.346" transform="translate(-1173.927 -248.857)" fill="#f9e8dc"/>
                <path id="Trazado_113646" data-name="Trazado 113646" d="M1523.291,313.314a2.346,2.346,0,1,1-2.346-2.346,2.346,2.346,0,0,1,2.346,2.346" transform="translate(-1215.281 -248.857)" fill="#f9e8dc"/>
                <path id="Trazado_113647" data-name="Trazado 113647" d="M1574.966,313.314a2.346,2.346,0,1,1-2.346-2.346,2.346,2.346,0,0,1,2.346,2.346" transform="translate(-1256.635 -248.857)" fill="#f9e8dc"/>
                <path id="Trazado_113648" data-name="Trazado 113648" d="M1626.641,313.314a2.346,2.346,0,1,1-2.346-2.346,2.346,2.346,0,0,1,2.346,2.346" transform="translate(-1297.989 -248.857)" fill="#f9e8dc"/>
                <path id="Trazado_113649" data-name="Trazado 113649" d="M1678.316,313.314a2.346,2.346,0,1,1-2.346-2.346,2.346,2.346,0,0,1,2.346,2.346" transform="translate(-1339.342 -248.857)" fill="#f9e8dc"/>
                <path id="Trazado_113650" data-name="Trazado 113650" d="M1471.616,362.64a2.346,2.346,0,1,1-2.346-2.346,2.346,2.346,0,0,1,2.346,2.346" transform="translate(-1173.927 -288.331)" fill="#f9e8dc"/>
                <path id="Trazado_113651" data-name="Trazado 113651" d="M1523.291,362.64a2.346,2.346,0,1,1-2.346-2.346,2.346,2.346,0,0,1,2.346,2.346" transform="translate(-1215.281 -288.331)" fill="#f9e8dc"/>
                <path id="Trazado_113652" data-name="Trazado 113652" d="M1574.966,362.64a2.346,2.346,0,1,1-2.346-2.346,2.346,2.346,0,0,1,2.346,2.346" transform="translate(-1256.635 -288.331)" fill="#f9e8dc"/>
                <path id="Trazado_113653" data-name="Trazado 113653" d="M1626.641,362.64a2.346,2.346,0,1,1-2.346-2.346,2.346,2.346,0,0,1,2.346,2.346" transform="translate(-1297.989 -288.331)" fill="#f9e8dc"/>
                <path id="Trazado_113654" data-name="Trazado 113654" d="M1678.316,362.64a2.346,2.346,0,1,1-2.346-2.346,2.346,2.346,0,0,1,2.346,2.346" transform="translate(-1339.342 -288.331)" fill="#f9e8dc"/>
                <path id="Trazado_113655" data-name="Trazado 113655" d="M1471.616,411.967a2.346,2.346,0,1,1-2.346-2.346,2.346,2.346,0,0,1,2.346,2.346" transform="translate(-1173.927 -327.806)" fill="#f9e8dc"/>
                <path id="Trazado_113656" data-name="Trazado 113656" d="M1523.291,411.967a2.346,2.346,0,1,1-2.346-2.346,2.346,2.346,0,0,1,2.346,2.346" transform="translate(-1215.281 -327.806)" fill="#f9e8dc"/>
                <path id="Trazado_113657" data-name="Trazado 113657" d="M1574.966,411.967a2.346,2.346,0,1,1-2.346-2.346,2.346,2.346,0,0,1,2.346,2.346" transform="translate(-1256.635 -327.806)" fill="#f9e8dc"/>
                <path id="Trazado_113658" data-name="Trazado 113658" d="M1626.641,411.967a2.346,2.346,0,1,1-2.346-2.346,2.346,2.346,0,0,1,2.346,2.346" transform="translate(-1297.989 -327.806)" fill="#f9e8dc"/>
                <path id="Trazado_113659" data-name="Trazado 113659" d="M1678.316,411.967a2.346,2.346,0,1,1-2.346-2.346,2.346,2.346,0,0,1,2.346,2.346" transform="translate(-1339.342 -327.806)" fill="#f9e8dc"/>
                <path id="Trazado_113660" data-name="Trazado 113660" d="M1471.616,461.293a2.346,2.346,0,1,1-2.346-2.346,2.346,2.346,0,0,1,2.346,2.346" transform="translate(-1173.927 -367.279)" fill="#f9e8dc"/>
                <path id="Trazado_113661" data-name="Trazado 113661" d="M1523.291,461.293a2.346,2.346,0,1,1-2.346-2.346,2.346,2.346,0,0,1,2.346,2.346" transform="translate(-1215.281 -367.279)" fill="#f9e8dc"/>
                <path id="Trazado_113662" data-name="Trazado 113662" d="M1574.966,461.293a2.346,2.346,0,1,1-2.346-2.346,2.346,2.346,0,0,1,2.346,2.346" transform="translate(-1256.635 -367.279)" fill="#f9e8dc"/>
                <path id="Trazado_113663" data-name="Trazado 113663" d="M1626.641,461.293a2.346,2.346,0,1,1-2.346-2.346,2.346,2.346,0,0,1,2.346,2.346" transform="translate(-1297.989 -367.279)" fill="#f9e8dc"/>
                <path id="Trazado_113664" data-name="Trazado 113664" d="M1678.316,461.293a2.346,2.346,0,1,1-2.346-2.346,2.346,2.346,0,0,1,2.346,2.346" transform="translate(-1339.342 -367.279)" fill="#f9e8dc"/>
                <path id="Trazado_113665" data-name="Trazado 113665" d="M128.168,380.474a2.346,2.346,0,1,1-2.346-2.346,2.346,2.346,0,0,1,2.346,2.346" transform="translate(-98.813 -302.603)" fill="#fff"/>
                <path id="Trazado_113666" data-name="Trazado 113666" d="M179.843,380.474a2.346,2.346,0,1,1-2.346-2.346,2.346,2.346,0,0,1,2.346,2.346" transform="translate(-140.167 -302.603)" fill="#fff"/>
                <path id="Trazado_113667" data-name="Trazado 113667" d="M231.518,380.474a2.346,2.346,0,1,1-2.346-2.346,2.346,2.346,0,0,1,2.346,2.346" transform="translate(-181.521 -302.603)" fill="#fff"/>
                <path id="Trazado_113668" data-name="Trazado 113668" d="M283.193,380.474a2.346,2.346,0,1,1-2.346-2.346,2.346,2.346,0,0,1,2.346,2.346" transform="translate(-222.875 -302.603)" fill="#fff"/>
                <path id="Trazado_113669" data-name="Trazado 113669" d="M334.868,380.474a2.346,2.346,0,1,1-2.346-2.346,2.346,2.346,0,0,1,2.346,2.346" transform="translate(-264.228 -302.603)" fill="#fff"/>
                <path id="Trazado_113670" data-name="Trazado 113670" d="M128.168,429.8a2.346,2.346,0,1,1-2.346-2.346,2.346,2.346,0,0,1,2.346,2.346" transform="translate(-98.813 -342.077)" fill="#fff"/>
                <path id="Trazado_113671" data-name="Trazado 113671" d="M179.843,429.8a2.346,2.346,0,1,1-2.346-2.346,2.346,2.346,0,0,1,2.346,2.346" transform="translate(-140.167 -342.077)" fill="#fff"/>
                <path id="Trazado_113672" data-name="Trazado 113672" d="M231.518,429.8a2.346,2.346,0,1,1-2.346-2.346,2.346,2.346,0,0,1,2.346,2.346" transform="translate(-181.521 -342.077)" fill="#fff"/>
                <path id="Trazado_113673" data-name="Trazado 113673" d="M283.193,429.8a2.346,2.346,0,1,1-2.346-2.346,2.346,2.346,0,0,1,2.346,2.346" transform="translate(-222.875 -342.077)" fill="#fff"/>
                <path id="Trazado_113674" data-name="Trazado 113674" d="M334.868,429.8a2.346,2.346,0,1,1-2.346-2.346,2.346,2.346,0,0,1,2.346,2.346" transform="translate(-264.228 -342.077)" fill="#fff"/>
                <path id="Trazado_113675" data-name="Trazado 113675" d="M128.168,479.126a2.346,2.346,0,1,1-2.346-2.345,2.346,2.346,0,0,1,2.346,2.345" transform="translate(-98.813 -381.551)" fill="#fff"/>
                <path id="Trazado_113676" data-name="Trazado 113676" d="M179.843,479.126a2.346,2.346,0,1,1-2.346-2.345,2.346,2.346,0,0,1,2.346,2.345" transform="translate(-140.167 -381.551)" fill="#fff"/>
                <path id="Trazado_113677" data-name="Trazado 113677" d="M231.518,479.126a2.346,2.346,0,1,1-2.346-2.345,2.346,2.346,0,0,1,2.346,2.345" transform="translate(-181.521 -381.551)" fill="#fff"/>
                <path id="Trazado_113678" data-name="Trazado 113678" d="M283.193,479.126a2.346,2.346,0,1,1-2.346-2.345,2.346,2.346,0,0,1,2.346,2.345" transform="translate(-222.875 -381.551)" fill="#fff"/>
                <path id="Trazado_113679" data-name="Trazado 113679" d="M334.868,479.126a2.346,2.346,0,1,1-2.346-2.345,2.346,2.346,0,0,1,2.346,2.345" transform="translate(-264.228 -381.551)" fill="#fff"/>
                <path id="Trazado_113680" data-name="Trazado 113680" d="M128.168,528.453a2.346,2.346,0,1,1-2.346-2.346,2.346,2.346,0,0,1,2.346,2.346" transform="translate(-98.813 -421.025)" fill="#fff"/>
                <path id="Trazado_113681" data-name="Trazado 113681" d="M179.843,528.453a2.346,2.346,0,1,1-2.346-2.346,2.346,2.346,0,0,1,2.346,2.346" transform="translate(-140.167 -421.025)" fill="#fff"/>
                <path id="Trazado_113682" data-name="Trazado 113682" d="M231.518,528.453a2.346,2.346,0,1,1-2.346-2.346,2.346,2.346,0,0,1,2.346,2.346" transform="translate(-181.521 -421.025)" fill="#fff"/>
                <path id="Trazado_113683" data-name="Trazado 113683" d="M283.193,528.453a2.346,2.346,0,1,1-2.346-2.346,2.346,2.346,0,0,1,2.346,2.346" transform="translate(-222.875 -421.025)" fill="#fff"/>
                <path id="Trazado_113684" data-name="Trazado 113684" d="M334.868,528.453a2.346,2.346,0,1,1-2.346-2.346,2.346,2.346,0,0,1,2.346,2.346" transform="translate(-264.228 -421.025)" fill="#fff"/>
                <path id="Trazado_113685" data-name="Trazado 113685" d="M128.168,577.779a2.346,2.346,0,1,1-2.346-2.346,2.346,2.346,0,0,1,2.346,2.346" transform="translate(-98.813 -460.499)" fill="#fff"/>
                <path id="Trazado_113686" data-name="Trazado 113686" d="M179.843,577.779a2.346,2.346,0,1,1-2.346-2.346,2.346,2.346,0,0,1,2.346,2.346" transform="translate(-140.167 -460.499)" fill="#fff"/>
                <path id="Trazado_113687" data-name="Trazado 113687" d="M231.518,577.779a2.346,2.346,0,1,1-2.346-2.346,2.346,2.346,0,0,1,2.346,2.346" transform="translate(-181.521 -460.499)" fill="#fff"/>
                <path id="Trazado_113688" data-name="Trazado 113688" d="M283.193,577.779a2.346,2.346,0,1,1-2.346-2.346,2.346,2.346,0,0,1,2.346,2.346" transform="translate(-222.875 -460.499)" fill="#fff"/>
                <path id="Trazado_113689" data-name="Trazado 113689" d="M334.868,577.779a2.346,2.346,0,1,1-2.346-2.346,2.346,2.346,0,0,1,2.346,2.346" transform="translate(-264.228 -460.499)" fill="#fff"/>
                <rect id="Rectángulo_33843" data-name="Rectángulo 33843" width="41.208" height="9.639" transform="translate(172.819 38.56)" fill="#f9e8dc"/>
                <rect id="Rectángulo_33844" data-name="Rectángulo 33844" width="41.634" height="17.708" transform="translate(19.336 13.091)" fill="#f9e8dc"/>
                <path id="Trazado_113690" data-name="Trazado 113690" d="M177.225,0H204.6a4.711,4.711,0,0,1,4.711,4.711V14.1a4.711,4.711,0,0,1-4.711,4.711H177.225a4.711,4.711,0,0,1-4.711-4.711V4.713A4.711,4.711,0,0,1,177.225,0" transform="translate(-138.057 -0.002)" fill="#eb9ba8"/>
                <path id="Trazado_113691" data-name="Trazado 113691" d="M210.249,37.923a2.288,2.288,0,1,1-2.288-2.288,2.288,2.288,0,0,1,2.288,2.288" transform="translate(-164.593 -28.518)" fill="#fff"/>
                <path id="Trazado_113692" data-name="Trazado 113692" d="M257.741,37.923a2.288,2.288,0,1,1-2.288-2.288,2.288,2.288,0,0,1,2.288,2.288" transform="translate(-202.599 -28.518)" fill="#fff"/>
                <path id="Trazado_113693" data-name="Trazado 113693" d="M305.233,37.923a2.288,2.288,0,1,1-2.288-2.288,2.288,2.288,0,0,1,2.288,2.288" transform="translate(-240.605 -28.518)" fill="#fff"/>
              </g>
            </g>
            <g id="Grupo_951799" data-name="Grupo 951799" transform="translate(37.145 37.088)" opacity="0.251">
              <g id="Grupo_80323" data-name="Grupo 80323" transform="translate(0 0)" clip-path="url(#clip-path-3)">
                <path id="Trazado_113615" data-name="Trazado 113615" d="M192.731,242.833c-2.849-.216-5.756-.34-8.733-.318-15.752.117-31.159,4.355-47.009,4.192-33.582-.347-68.144-3.827-97.168-25.336C-24.481,173.718-3.4,71.642,49.9,29.735,78.226,7.468,113.506.659,147.307.029c43.512-.811,99.323,12.952,130.5,49.582,21.72,25.521,27.121,84.98,22.044,118.672-4.041,26.818-19.21,52.107-38.371,66.828-23.9,18.358-44.157,9.588-68.747,7.722" transform="translate(0 0.004)" fill="#f1c6bd"/>
              </g>
            </g>
          </g>
        </g>
      </g>
      <g id="Grupo_998892" data-name="Grupo 998892" transform="translate(-587.424 231.551)">
        <g id="Grupo_990807" data-name="Grupo 990807" transform="translate(-6066 -8102.522)">
          <g id="Enmascarar_grupo_116" data-name="Enmascarar grupo 116" transform="translate(0 0)" clip-path="url(#clip-path-5)">
            <g id="Grupo_952243" data-name="Grupo 952243" transform="translate(-68.804 -140.783)">
              <g id="Grupo_952242" data-name="Grupo 952242" transform="translate(0 0)" clip-path="url(#clip-path-6)">
                <g id="Grupo_952234" data-name="Grupo 952234" transform="translate(0)">
                  <g id="Grupo_952233" data-name="Grupo 952233" clip-path="url(#clip-path-6)">
                    <path id="Trazado_697626" data-name="Trazado 697626" d="M1261.188,1236.569a91.118,91.118,0,0,1,28.715,19.363,139.028,139.028,0,0,1,20.621,25.687,77.517,77.517,0,0,1-49.336-45.05" transform="translate(-977.28 -958.17)" fill="#2f3e45"/>
                    <path id="Trazado_697627" data-name="Trazado 697627" d="M1341.694,1449.787a52.243,52.243,0,0,1,22.413,6.207,52.622,52.622,0,0,1-45.308-2.139,52.237,52.237,0,0,1,22.895-4.068" transform="translate(-1021.915 -1123.316)" fill="#f0f2f5"/>
                    <path id="Trazado_697628" data-name="Trazado 697628" d="M1510.887,1264.1a52.569,52.569,0,0,1-10.59,44.105,52.628,52.628,0,0,1,10.59-44.105" transform="translate(-1161.63 -979.497)" fill="#2f3e45"/>
                    <path id="Trazado_697629" data-name="Trazado 697629" d="M1395.45,1624.236c-9.357-5.2-11.065-11.04-6.6-17.826a52.282,52.282,0,0,1,16.753-16.129,46.491,46.491,0,0,1-8.162,21.777c-3.735,5.252-4.336,9.128-1.988,12.178" transform="translate(-1074.361 -1232.211)" fill="#f0f2f5"/>
                    <rect id="Rectángulo_344691" data-name="Rectángulo 344691" width="56.214" height="26.965" transform="translate(149.177 419.219)" fill="#fff"/>
                    <path id="Trazado_697635" data-name="Trazado 697635" d="M0,0H70.865V26.965H0Z" transform="translate(78.312 419.219)" fill="#112e4c"/>
                    <rect id="Rectángulo_344692" data-name="Rectángulo 344692" width="58.023" height="2.215" transform="translate(149.177 419.219)" fill="#f0f2f5"/>
                    <rect id="Rectángulo_344693" data-name="Rectángulo 344693" width="26.02" height="0.554" transform="translate(180.234 426.416)" fill="#f0f2f5"/>
                    <rect id="Rectángulo_344694" data-name="Rectángulo 344694" width="58.023" height="2.215" transform="translate(149.177 443.969)" fill="#f0f2f5"/>
                    <rect id="Rectángulo_344695" data-name="Rectángulo 344695" width="5.225" height="26.965" transform="translate(85.453 419.219)" fill="#fff"/>
                    <rect id="Rectángulo_344696" data-name="Rectángulo 344696" width="1.306" height="26.965" transform="translate(139.663 419.219)" fill="#fff"/>
                    <rect id="Rectángulo_344697" data-name="Rectángulo 344697" width="1.306" height="26.965" transform="translate(135.276 419.219)" fill="#fff"/>
                    <path id="Trazado_697636" data-name="Trazado 697636" d="M871.9,1906.007h-5.868l-5.455-9.835h5.868Z" transform="translate(-666.907 -1469.203)" fill="#f0f2f5"/>
                    <rect id="Rectángulo_344698" data-name="Rectángulo 344698" width="48.26" height="23.15" transform="translate(154.69 377.117)" fill="#fff"/>
                    <g transform="matrix(1, 0, 0, 1, 69.23, 140.75)" filter="url(#Trazado_699647)">
                      <path id="Trazado_699647-2" data-name="Trazado 699647" d="M0,0H60.838V23.15H0Z" transform="translate(24.62 236.36)" fill="#112e4c"/>
                    </g>
                    <rect id="Rectángulo_344700" data-name="Rectángulo 344700" width="49.813" height="1.902" transform="translate(154.69 377.117)" fill="#f0f2f5"/>
                    <rect id="Rectángulo_344701" data-name="Rectángulo 344701" width="22.338" height="0.475" transform="translate(181.352 383.295)" fill="#f0f2f5"/>
                    <rect id="Rectángulo_344702" data-name="Rectángulo 344702" width="49.813" height="1.902" transform="translate(154.69 398.365)" fill="#f0f2f5"/>
                    <rect id="Rectángulo_344703" data-name="Rectángulo 344703" width="4.486" height="16.496" transform="translate(99.983 380.444)" fill="#fff"/>
                    <rect id="Rectángulo_344704" data-name="Rectángulo 344704" width="30.064" height="16.496" transform="translate(115.089 380.444)" fill="#fff"/>
                    <path id="Trazado_697637" data-name="Trazado 697637" d="M866.823,1712.829h-5.037l-4.683-8.443h5.038Z" transform="translate(-664.212 -1320.615)" fill="#f0f2f5"/>
                    <path id="Trazado_697638" data-name="Trazado 697638" d="M541.614,1796.575H463.376a9.386,9.386,0,0,1-9.386-9.386v-.18a9.386,9.386,0,0,1,9.386-9.386h78.238Z" transform="translate(-351.897 -1377.356)" fill="#112e4c"/>
                    <path id="Trazado_697639" data-name="Trazado 697639" d="M714.625,1800.374h-31.59a7.919,7.919,0,0,1,0-15.838h31.59Z" transform="translate(-523.216 -1382.712)" fill="#fff"/>
                    <rect id="Rectángulo_344705" data-name="Rectángulo 344705" width="40.781" height="1.557" transform="translate(151.9 400.267)" fill="#f0f2f5"/>
                    <rect id="Rectángulo_344706" data-name="Rectángulo 344706" width="18.288" height="0.389" transform="translate(173.728 405.325)" fill="#f0f2f5"/>
                    <rect id="Rectángulo_344707" data-name="Rectángulo 344707" width="40.781" height="1.557" transform="translate(151.9 417.662)" fill="#f0f2f5"/>
                    <path id="Trazado_697640" data-name="Trazado 697640" d="M509.742,1804.273H476.024a6.322,6.322,0,0,1,0-12.644h33.715a8.02,8.02,0,0,0-.828.722,7.918,7.918,0,0,0,.832,11.922" transform="translate(-364.071 -1388.207)" fill="#fff"/>
                    <path id="Trazado_697641" data-name="Trazado 697641" d="M614.927,1801.951a.419.419,0,0,1-.253-.085,9,9,0,0,1-.945-13.556,9.113,9.113,0,0,1,.941-.82.421.421,0,0,1,.509.671,8.337,8.337,0,0,0-.855.745,8.162,8.162,0,0,0,.858,12.289.42.42,0,0,1-.254.756" transform="translate(-473.612 -1384.934)" fill="#f0f2f5"/>
                    <g transform="matrix(1, 0, 0, 1, 69.23, 140.75)" filter="url(#Trazado_697642)">
                      <path id="Trazado_697642-2" data-name="Trazado 697642" d="M1462.077,188.592a16.383,16.383,0,1,1-16.383-16.383,16.383,16.383,0,0,1,16.383,16.383" transform="translate(-1176.76 -274.3)" fill="#fff"/>
                    </g>
                    <path id="Trazado_697643" data-name="Trazado 697643" d="M1466.074,229.5l-6.929-6.4,2.253-2.44,4.594,4.242,10.184-10.106,2.339,2.357Z" transform="translate(-1130.649 -166.541)" fill="#f0f2f5"/>
                    <rect id="Rectángulo_344708" data-name="Rectángulo 344708" width="8.546" height="8.546" transform="translate(389.422 53.28) rotate(-22.387)" fill="#f0f2f5"/>
                    <g transform="matrix(1, 0, 0, 1, 69.23, 140.75)" filter="url(#Trazado_699648)">
                      <path id="Trazado_699648-2" data-name="Trazado 699648" d="M0,0H20.812V20.812H0Z" transform="translate(8.79 97.08) rotate(-69.24)" fill="#fff"/>
                    </g>
                    <g transform="matrix(1, 0, 0, 1, 69.23, 140.75)" filter="url(#Rectángulo_345159)">
                      <rect id="Rectángulo_345159-2" data-name="Rectángulo 345159" width="20.812" height="20.812" transform="translate(236.89 59.63) rotate(-69.24)" fill="#e4e5e6"/>
                    </g>
                    <g transform="matrix(1, 0, 0, 1, 69.23, 140.75)" filter="url(#Rectángulo_345160)">
                      <rect id="Rectángulo_345160-2" data-name="Rectángulo 345160" width="20.812" height="20.812" transform="translate(335.66 185.36) rotate(-69.24)" fill="#fff"/>
                    </g>
                    <rect id="Rectángulo_344710" data-name="Rectángulo 344710" width="20.812" height="20.812" transform="matrix(0.354, -0.935, 0.935, 0.354, 412.88, 106.969)" fill="#f0f2f5"/>
                    <g transform="matrix(1, 0, 0, 1, 69.23, 140.75)" filter="url(#Rectángulo_344711)">
                      <rect id="Rectángulo_344711-2" data-name="Rectángulo 344711" width="13.118" height="13.118" transform="translate(20.77 -48) rotate(-40.78)" fill="#f0f2f5"/>
                    </g>
                    <g transform="matrix(1, 0, 0, 1, 69.23, 140.75)" filter="url(#Rectángulo_344712)">
                      <rect id="Rectángulo_344712-2" data-name="Rectángulo 344712" width="13.118" height="13.118" transform="matrix(0.35, -0.94, 0.94, 0.35, 221.8, -98.28)" fill="#fff"/>
                    </g>
                    <rect id="Rectángulo_344713" data-name="Rectángulo 344713" width="13.118" height="13.118" transform="matrix(0.354, -0.935, 0.935, 0.354, 431.942, 224.163)" fill="#f0f2f5"/>
                    <rect id="Rectángulo_344714" data-name="Rectángulo 344714" width="7.305" height="7.305" transform="translate(206.814 40.197) rotate(-12.141)" fill="#f0f2f5"/>
                    <rect id="Rectángulo_344715" data-name="Rectángulo 344715" width="7.305" height="7.305" transform="translate(47.697 228.994) rotate(-12.141)" fill="#f0f2f5"/>
                    <g id="Grupo_990810" data-name="Grupo 990810" transform="translate(290.131 210.724)">
                      <path id="Trazado_697630" data-name="Trazado 697630" d="M1498.027,1074.128c-.215-.062-.431-.122-.648-.177l-1.109-.291c-.371-.093-.744-.178-1.115-.267l-.558-.132-.561-.12-1.122-.237q-2.251-.443-4.525-.759a80.929,80.929,0,0,0-9.147-.663,64.169,64.169,0,0,0-9.061.443c.068-.09.135-.182.2-.273q3.065-4.055,6.33-7.953t6.726-7.622q1.722-1.87,3.5-3.683c1.187-1.208,2.389-2.4,3.63-3.559-1.248,1.146-2.459,2.334-3.654,3.535s-2.374,2.42-3.53,3.659q-3.471,3.716-6.747,7.609t-6.351,7.943q-.855,1.128-1.7,2.266a26.844,26.844,0,0,0-.535-3.033q-.368-1.538-.865-3.042c-.339-1-.7-1.988-1.11-2.96s-.846-1.932-1.34-2.862c.22.478.436.958.639,1.444s.407.971.6,1.459c.385.979.75,1.965,1.077,2.964.342.994.627,2.006.894,3.023l.19.765c.061.256.109.514.166.771.118.487.187.983.282,1.475-1.453,1.967-2.873,3.958-4.241,5.986-.482.7-.944,1.408-1.408,2.117s-.937,1.413-1.381,2.135l-1.353,2.154-1.311,2.179c-.217.364-.439.725-.652,1.092l-.63,1.1-.631,1.1c-.209.368-.424.734-.622,1.109l-1.212,2.235-.3.559-.29.566-.579,1.132c-.789,1.5-1.5,3.039-2.24,4.566-.361.766-.7,1.545-1.047,2.317l-.52,1.16c-.172.387-.328.781-.492,1.173l-.969,2.35-.9,2.377-.45,1.189-.414,1.2-.526,1.534h-.1q.093-3.127.215-6.252.313-8.031.811-16.054t1.182-16.03q.411-4.769.9-9.53a14.653,14.653,0,0,0,3.149,1.59c7.062,2.44,14.683-.444,14.683-.444a31.463,31.463,0,0,0-17.042-8.537l.348-3.066.489-3.989c.036-.305.077-.61.115-.915a46,46,0,0,0,13.577,9.985,52.3,52.3,0,0,0-9.485-21.233,16.763,16.763,0,0,0-2.17-2.408l.208-1.344.312-1.985.334-1.981.334-1.981c.112-.66.219-1.322.343-1.98l.72-3.953c.116-.66.247-1.317.377-1.974l.389-1.971.388-1.971c.13-.657.276-1.311.415-1.966l.075-.351a46.525,46.525,0,0,0,19.832-12.108c4.455-4.656,8.149-5.975,11.586-4.243-6.864-8.213-12.924-8.79-18.75-3.131a52.28,52.28,0,0,0-12.645,19.373l.742-3.468q1.066-4.774,2.279-9.513l.04.025-.025-.086c.514-2.012,1.042-4.02,1.6-6.021a139.032,139.032,0,0,0,17.3-28.03,91.129,91.129,0,0,0,8.635-33.539,77.512,77.512,0,0,0-25.939,61.569c-.559,1.984-1.091,3.976-1.611,5.971a93.929,93.929,0,0,0-8.992-19.945,60.908,60.908,0,0,0-15.33-17.348,51.809,51.809,0,0,0,24.3,37.389q-1.231,4.739-2.323,9.513l-.848,3.929c-.139.656-.286,1.309-.417,1.966l-.392,1.971-.391,1.971c-.131.657-.262,1.314-.38,1.973l-.726,3.953q-.817,4.592-1.533,9.2c-4.463-3.95-9.884-3.333-16.744,2.654,3.665-1.173,7.107.708,10.779,6a43.508,43.508,0,0,0,4.025,4.964q-.519,4.031-.977,8.07a31.105,31.105,0,0,0-8.474-.133,33.176,33.176,0,0,0,7.7,7.461q-.481,4.8-.891,9.6-.671,8.01-1.159,16.035c-.447,7.431-.788,14.869-.975,22.311h-.2l-.108-1.9-.039-.692-.02-.345-.032-.345-.127-1.38-.127-1.38-.063-.69-.085-.687-.342-2.75-.043-.344-.054-.342-.107-.685-.214-1.369-.214-1.369-.252-1.363c-.172-.908-.329-1.818-.512-2.723l-.574-2.712a187.5,187.5,0,0,0-6.1-21.3q-1.841-5.228-3.917-10.37t-4.39-10.178c-2.038-4.452-4.188-8.855-6.488-13.178a52.566,52.566,0,0,0,22.138-39.518,52.618,52.618,0,0,0-22.184,39.433q-1.735-3.257-3.589-6.448c.931,1.6,1.817,3.216,2.69,4.844.3.562.6,1.128.892,1.693,0,.012,0,.024,0,.036h0l.016-.011q.834,1.6,1.647,3.2,2.5,4.943,4.793,9.99,1.74,3.831,3.354,7.716a65.674,65.674,0,0,0-8.642-2.773,83.278,83.278,0,0,0-9-1.755q-2.274-.294-4.562-.465l-1.144-.07-.572-.033-.573-.021c-.382-.013-.763-.031-1.146-.04l-1.146-.016c-.382-.009-.764,0-1.146,0s-.764,0-1.146.017c-.763.031-1.528.045-2.289.1-1.526.088-3.045.267-4.559.464a52.572,52.572,0,0,0-45.123,4.617c-.322,0,13.1,7.237,23.067,6.278,12.455-1.2,22.056-10.9,22.056-10.9,1.517-.173,3.037-.33,4.563-.394.762-.052,1.525-.064,2.288-.091.381-.011.763-.006,1.144-.011s.763-.007,1.145,0l1.144.022c.381.011.762.031,1.144.046l.572.024.572.036,1.142.076q2.282.183,4.551.488a83.15,83.15,0,0,1,8.993,1.705c1.481.367,2.954.772,4.413,1.224,1.433.439,2.857.909,4.252,1.459q.512,1.23,1.011,2.465,2.072,5.138,3.892,10.372a187.358,187.358,0,0,1,6.142,21.276l.58,2.708c.185.9.344,1.814.517,2.721l.254,1.361.217,1.368.218,1.368.108.684.054.342.045.343.359,2.747.09.687.068.689.135,1.379.135,1.378.034.345.023.345.044.691.12,1.894s-21.1-2.4-28.134,0,0,9.6,0,9.6v46.775h56.379v-56.378h-27.884l.536-1.528.422-1.2.458-1.186.918-2.37.985-2.343c.166-.39.322-.784.5-1.17l.522-1.158c.351-.771.689-1.548,1.052-2.313.741-1.523,1.458-3.059,2.25-4.557l.581-1.13.291-.565.3-.558,1.216-2.231c.2-.374.414-.739.624-1.107l.633-1.1.633-1.1c.212-.366.436-.726.653-1.09l1.315-2.174,1.356-2.149c.446-.721.922-1.421,1.385-2.13s.928-1.417,1.412-2.113c1.826-2.718,3.743-5.374,5.711-7.991,1.488-.173,2.983-.259,4.479-.312,1.526-.059,3.054-.068,4.581-.037,1.591.031,3.18.115,4.765.243a32.378,32.378,0,0,1,2.472,2.523c.587.666,1.158,1.346,1.7,2.049a26.3,26.3,0,0,0-11.9,19.224,26.278,26.278,0,0,0,11.95-19.161q.281.365.551.739c.187.241.361.493.536.743s.357.5.521.754l.5.768c.085.127.165.257.243.388l.238.392c.645,1.039,1.205,2.126,1.76,3.218l-.385-.833c-.13-.278-.254-.558-.4-.827l-.428-.813c-.139-.273-.3-.532-.453-.8a34.025,34.025,0,0,0-2.017-3.074,34.412,34.412,0,0,0-2.336-2.839c-.414-.452-.843-.89-1.28-1.32-.41-.388-.826-.771-1.263-1.129q2.183.177,4.355.465,2.269.307,4.52.734l1.122.231.561.116.558.129c.372.087.745.17,1.115.26l1.109.286c.2.049.4.1.6.159a26.273,26.273,0,0,0,21.734,6.216,26.308,26.308,0,0,0-21.659-6.289" transform="translate(-1350.97 -936.11)" fill="#455a64"/>
                      <path id="Trazado_697631" data-name="Trazado 697631" d="M1799.625,1112.249a77.514,77.514,0,0,0,35.213,56.777,139.026,139.026,0,0,0-12.853-30.329,91.116,91.116,0,0,0-22.361-26.447" transform="translate(-1767.178 -1072.575)" fill="#455a64"/>
                      <path id="Trazado_697632" data-name="Trazado 697632" d="M1816.315,1363.455a52.569,52.569,0,0,0-43.015-14.39,52.627,52.627,0,0,0,43.015,14.39" transform="translate(-1742.726 -1255.735)" fill="#2f3e45"/>
                      <path id="Trazado_697633" data-name="Trazado 697633" d="M1805.176,1483.628a26.142,26.142,0,0,0-5.553-10.13c.714-.528,1.448-1.027,2.195-1.508a31.975,31.975,0,0,1,3.185-1.816c-.564.238-1.109.519-1.652.8s-1.07.6-1.591.922a34.412,34.412,0,0,0-3.021,2.1,33.931,33.931,0,0,0-2.778,2.408c-.218.216-.446.421-.654.646l-.633.666c-.214.219-.41.455-.61.687l-.6.7c.831-.9,1.666-1.793,2.569-2.618l.336-.312c.11-.105.223-.209.339-.308l.691-.6c.228-.2.471-.389.706-.584s.473-.387.719-.569.484-.377.731-.561a26.278,26.278,0,0,0,6.285,21.69,26.144,26.144,0,0,0-.665-11.607" transform="translate(-1737.157 -1349.88)" fill="#2f3e45"/>
                      <path id="Trazado_697634" data-name="Trazado 697634" d="M1855.938,1539.709c-1.429-3.574.2-7.14,5.228-11.177a46.5,46.5,0,0,0,13.781-18.734,52.282,52.282,0,0,0-20.51,10.961c-6.14,5.316-6.088,11.4,1.5,18.95" transform="translate(-1818.639 -1380.58)" fill="#2f3e45"/>
                      <path id="Trazado_699646" data-name="Trazado 699646" d="M0,0H60.663V56.775H0Z" transform="translate(63.395 177.651)" fill="#112e4c"/>
                    </g>
                  </g>
                </g>
                <g id="Grupo_952239" data-name="Grupo 952239" transform="translate(0)">
                  <g id="Grupo_952238" data-name="Grupo 952238" clip-path="url(#clip-path-6)">
                    <path id="Trazado_697644" data-name="Trazado 697644" d="M1345.863,964.039c.716.652,1.38,1.347,2.026,2.057.328.351.637.717.955,1.076l.926,1.1q.914,1.11,1.766,2.27c.569.773,1.12,1.56,1.619,2.391-.716-.652-1.381-1.347-2.027-2.056s-1.275-1.434-1.88-2.177l-.9-1.123c-.29-.382-.588-.757-.868-1.147-.569-.773-1.12-1.56-1.62-2.39" transform="translate(-1042.883 -747.025)" fill="#fff"/>
                    <path id="Trazado_697645" data-name="Trazado 697645" d="M1158.924,1202.763c-.652.716-1.347,1.38-2.057,2.026-.351.328-.717.637-1.076.955l-1.1.926q-1.109.914-2.27,1.766c-.772.569-1.56,1.12-2.39,1.619.652-.717,1.346-1.381,2.056-2.027s1.434-1.274,2.176-1.88l1.123-.9c.382-.29.757-.589,1.147-.868.773-.57,1.56-1.121,2.39-1.62" transform="translate(-891.161 -931.978)" fill="#fff"/>
                    <path id="Trazado_697646" data-name="Trazado 697646" d="M1531.831,1122.728c-.652.716-1.348,1.38-2.057,2.026-.35.328-.717.637-1.076.955l-1.1.926q-1.11.914-2.27,1.766c-.772.57-1.56,1.12-2.391,1.619.652-.716,1.347-1.381,2.056-2.027s1.434-1.275,2.177-1.881l1.123-.9c.382-.29.757-.588,1.147-.868.772-.569,1.56-1.12,2.39-1.62" transform="translate(-1180.073 -869.971)" fill="#fff"/>
                    <path id="Trazado_697647" data-name="Trazado 697647" d="M1047.289,1648.153c.716.652,1.38,1.347,2.026,2.056.328.351.637.717.955,1.076l.926,1.1q.914,1.109,1.767,2.27c.569.772,1.12,1.56,1.619,2.391-.717-.652-1.381-1.347-2.027-2.057s-1.274-1.433-1.88-2.176l-.9-1.123c-.29-.382-.589-.757-.868-1.147-.57-.772-1.121-1.56-1.62-2.39" transform="translate(-811.56 -1277.048)" fill="#fff"/>
                    <path id="Trazado_697648" data-name="Trazado 697648" d="M800.8,1833.39c-.652.716-1.347,1.38-2.057,2.026-.351.328-.717.637-1.076.955l-1.1.926q-1.11.914-2.27,1.766c-.772.57-1.56,1.12-2.39,1.619.652-.716,1.347-1.381,2.056-2.027s1.434-1.274,2.177-1.88l1.123-.9c.382-.29.757-.589,1.147-.868.772-.57,1.56-1.121,2.39-1.62" transform="translate(-613.701 -1420.562)" fill="#fff"/>
                    <path id="Trazado_697649" data-name="Trazado 697649" d="M1120.516,1921.558c.095-.964.254-1.912.436-2.854.085-.472.193-.939.291-1.409l.328-1.4c.228-.931.485-1.855.763-2.773s.58-1.831.947-2.728c-.094.964-.253,1.912-.435,2.854s-.387,1.879-.62,2.808l-.364,1.391c-.133.46-.255.924-.4,1.381-.279.919-.58,1.832-.946,2.728" transform="translate(-868.293 -1480.221)" fill="#fff"/>
                    <path id="Trazado_697650" data-name="Trazado 697650" d="M771.165,1594.792c.931-.267,1.871-.468,2.814-.646.471-.094.945-.166,1.417-.248l1.422-.211c.949-.131,1.9-.233,2.859-.312s1.916-.136,2.884-.125c-.931.268-1.871.47-2.814.647s-1.889.333-2.839.459l-1.427.175c-.477.046-.953.1-1.432.137-.956.08-1.916.136-2.885.126" transform="translate(-597.631 -1234.509)" fill="#fff"/>
                    <path id="Trazado_697651" data-name="Trazado 697651" d="M1433.47,1319.307c-.724-.644-1.4-1.331-2.051-2.032-.332-.347-.646-.71-.968-1.064l-.939-1.089q-.927-1.1-1.793-2.249c-.579-.765-1.139-1.547-1.648-2.371.724.643,1.4,1.33,2.051,2.032s1.291,1.419,1.906,2.154l.91,1.113c.295.379.6.75.882,1.136.578.766,1.139,1.547,1.649,2.37" transform="translate(-1105.025 -1015.45)" fill="#fff"/>
                    <g id="Grupo_952237" data-name="Grupo 952237" transform="translate(304.131 274.431)" opacity="0.4" style="mix-blend-mode: multiply;isolation: isolate">
                      <g id="Grupo_952236" data-name="Grupo 952236">
                        <g id="Grupo_952235" data-name="Grupo 952235" clip-path="url(#clip-path-9)">
                          <path id="Trazado_697652" data-name="Trazado 697652" d="M1350.966,1222.7c.051-1.223.109-2.47.176-3.747,0,0-.113,1.376-.176,3.747" transform="translate(-1350.967 -1218.952)" fill="#a65b3c"/>
                        </g>
                      </g>
                    </g>
                    <path id="Trazado_697653" data-name="Trazado 697653" d="M1407.922,1538.682a11.33,11.33,0,0,1,1.739-.032c.58.028,1.16.08,1.737.161a22.7,22.7,0,0,1,3.408.755,27.426,27.426,0,0,1,3.275,1.221,31.546,31.546,0,0,1,3.1,1.619c1.005.591,1.961,1.26,2.9,1.947.457.36.927.705,1.367,1.086l.669.56.646.586a39.691,39.691,0,0,1,4.706,5.122,55.322,55.322,0,0,0-4.939-4.859,39.366,39.366,0,0,0-5.58-4.055,31.364,31.364,0,0,0-6.247-2.892,25.62,25.62,0,0,0-3.338-.872,17.121,17.121,0,0,0-3.44-.346" transform="translate(-1090.964 -1192.196)" fill="#ff9b6c"/>
                  </g>
                </g>
                <path id="Trazado_697654" data-name="Trazado 697654" d="M0,0H380.636V.676H0Z" transform="translate(57.284 445.846)" fill="#14122c"/>
              </g>
            </g>
          </g>
          <g id="Grupo_952265" data-name="Grupo 952265" transform="translate(49.588 15.886)">
            <g id="Grupo_952264" data-name="Grupo 952264" clip-path="url(#clip-path-11)">
              <g id="Grupo_952263" data-name="Grupo 952263">
                <g id="Grupo_952262" data-name="Grupo 952262" clip-path="url(#clip-path-11)">
                  <path id="Trazado_697655" data-name="Trazado 697655" d="M198.12,128.39A42.264,42.264,0,0,1,218.026,154.1c5.175,18.534,21.019,66.8,21.019,66.8s9.054,10.651,10.024,18.539-.97,26.967-3.88,30.524a8.2,8.2,0,0,1-7.061,2.968l-38.11-3.615L185.011,168.841Z" transform="translate(13.447 9.332)" fill="#455a64"/>
                  <path id="Trazado_697656" data-name="Trazado 697656" d="M82.052,127.664S54.8,136.211,48.011,143.648l22.313,103.8L69.968,280.2H199.16c0-1.617,1.158-108.743,1.158-108.743l7.761-42.037-45.918-8.084-9.055-7.115-51.092,2.587-7.761,7.761Z" transform="translate(3.49 8.302)" fill="#455a64"/>
                  <g id="Grupo_952246" data-name="Grupo 952246" transform="translate(73.549 223.955)" opacity="0.3">
                    <g id="Grupo_952245" data-name="Grupo 952245">
                      <g id="Grupo_952244" data-name="Grupo 952244" clip-path="url(#clip-path-13)">
                        <path id="Trazado_697657" data-name="Trazado 697657" d="M90.908,210.844c-.4-.881-.968-1.832-1.914-2.027-1.556-.321-2.6,1.519-3.126,3.017A136.47,136.47,0,0,1,68.9,244.97l-.331,15.938c7.531-6.339,14.959-13.126,19.759-21.72s6.638-19.375,2.584-28.345" transform="translate(-68.565 -208.78)"/>
                      </g>
                    </g>
                  </g>
                  <path id="Trazado_697658" data-name="Trazado 697658" d="M51.5,141.654s-8.978,12.24-12.707,20.23-34.622,75.1-36.486,82.028-6.658,28.763,7.457,33.823H38.794l29.137-58.918,1.49-68.385Z" transform="translate(0 10.296)" fill="#455a64"/>
                  <path id="Trazado_697659" data-name="Trazado 697659" d="M40.294,229.156c-.039.044-.647-.571-1.983-1.331a22.269,22.269,0,0,0-6.093-2.207,29.191,29.191,0,0,0-4.442-.624,17.656,17.656,0,0,0-5.091.331,18.983,18.983,0,0,0-9.773,6.135,26.494,26.494,0,0,0-5.534,10.288,51.246,51.246,0,0,0-1.745,9.5c-.271,2.745-.373,4.982-.469,6.524-.045.722-.083,1.311-.112,1.779a2.619,2.619,0,0,1-.076.619,2.645,2.645,0,0,1-.036-.623c0-.469,0-1.058.006-1.782.029-1.547.071-3.788.293-6.552A49.094,49.094,0,0,1,6.884,241.6a26.572,26.572,0,0,1,5.609-10.512,19.291,19.291,0,0,1,10.079-6.267,17.9,17.9,0,0,1,5.235-.292,28.59,28.59,0,0,1,4.5.7,20.963,20.963,0,0,1,6.115,2.4,10.42,10.42,0,0,1,1.441,1.067,2.657,2.657,0,0,1,.432.451" transform="translate(0.359 16.315)" fill="#263238"/>
                  <path id="Trazado_697660" data-name="Trazado 697660" d="M25.065,217.918a3.35,3.35,0,0,1,.976-.157,16.564,16.564,0,0,1,2.692-.038,22.265,22.265,0,0,1,3.959.586,25.553,25.553,0,0,1,4.623,1.639A25.556,25.556,0,0,1,41.5,222.51a22.165,22.165,0,0,1,2.947,2.71,16.58,16.58,0,0,1,1.666,2.115,3.327,3.327,0,0,1,.492.857c-.086.06-.873-1.1-2.445-2.7a25.392,25.392,0,0,0-2.968-2.569,27.885,27.885,0,0,0-4.117-2.469,27.734,27.734,0,0,0-4.508-1.644,25.384,25.384,0,0,0-3.865-.691c-2.231-.216-3.631-.094-3.637-.2" transform="translate(1.822 15.823)" fill="#263238"/>
                  <path id="Trazado_697661" data-name="Trazado 697661" d="M51.8,214.968a6.264,6.264,0,0,1-1.343-.1c-.856-.111-2.1-.236-3.636-.35a61.97,61.97,0,0,0-23.744,2.84c-1.466.473-2.645.888-3.451,1.2a6.21,6.21,0,0,1-1.281.416,6.24,6.24,0,0,1,1.2-.617c.784-.372,1.947-.846,3.407-1.371a54.893,54.893,0,0,1,23.906-2.86c1.543.165,2.785.351,3.634.528a6.253,6.253,0,0,1,1.31.317" transform="translate(1.333 15.543)" fill="#263238"/>
                  <path id="Trazado_697662" data-name="Trazado 697662" d="M129.194,164.168a1.881,1.881,0,0,1-.3-.35l-.792-1.061-2.918-4.043-10.111-14.266.451-.064c-1.564,4.594-3.29,9.662-5.107,15l-.115.338-.293-.188c-.19-.123-.4-.255-.6-.388a30.969,30.969,0,0,1-6.32-5.337,37.63,37.63,0,0,1-4.513-6.241,52.07,52.07,0,0,1-4.967-12.007A81.125,81.125,0,0,1,91.73,127q-.254-1.461-.407-2.34c-.048-.267-.1-.463-.136-.6a.678.678,0,0,1-.068-.2c.118-.05.433,1.075.824,3.1.417,2.02,1,4.952,2.047,8.482A53.253,53.253,0,0,0,99.021,147.3a37.621,37.621,0,0,0,4.474,6.133,30.72,30.72,0,0,0,6.214,5.233l.591.381-.408.149c1.832-5.328,3.573-10.391,5.152-14.98l.164-.478.286.415,9.945,14.383c1.176,1.731,2.117,3.119,2.8,4.126.3.452.536.817.726,1.107a1.887,1.887,0,0,1,.227.4" transform="translate(6.623 9.003)" fill="#263238"/>
                  <g id="Grupo_952249" data-name="Grupo 952249" transform="translate(169.17 222.723)" opacity="0.3">
                    <g id="Grupo_952248" data-name="Grupo 952248">
                      <g id="Grupo_952247" data-name="Grupo 952247" clip-path="url(#clip-path-14)">
                        <path id="Trazado_697663" data-name="Trazado 697663" d="M157.988,207.631a58.684,58.684,0,0,0,7.465,34.811c6.011,10.454,14.819,19.773,25.794,24.775.355-10.653-.158-23.2.2-33.855Z" transform="translate(-157.707 -207.631)"/>
                      </g>
                    </g>
                  </g>
                  <path id="Trazado_697664" data-name="Trazado 697664" d="M157,196.28s-4.693,1.3-1.174,10.917,4.693,9.032,7.039,18.026,5.085,17.2,9.191,22.285,19.357,15.447,19.357,15.447l13.687-12.9s-2.256-9.618-1.715-16.149,1.91-22.566,1.715-25.3-3.129-9.386-3.129-9.386v-4.547l-7.039-21.653s-3.91-1.76-5.279,4.5l-2.347-6.641s-3.715-.593-4.692,7.033.782,18.184.782,18.184l-1.956,13.3-2.933,8.995-2.542.39s-3.826-1.045-5.921-8.246-7.765-15.8-13.045-14.24" transform="translate(11.231 12.419)" fill="#ffbe9d"/>
                  <path id="Trazado_697665" data-name="Trazado 697665" d="M198.437,228.109a2.1,2.1,0,0,1-.063-.493c-.026-.372-.059-.846-.1-1.432-.071-1.312-.168-3.126-.29-5.385-.21-4.669-.5-11.167-.846-18.751l.062.158a2.745,2.745,0,0,0-2.771-.722,4.044,4.044,0,0,0-2.537,1.86c-1.195,1.923-1.26,4.43-1.635,6.85-.742,5.48-1.449,10.7-2.093,15.454-.326,2.376-.669,4.637-1.133,6.728a43.926,43.926,0,0,1-1.7,5.7,48.094,48.094,0,0,0-1.473,4.644,14.264,14.264,0,0,0-.442,3.62,11.327,11.327,0,0,0,.542,3.067,4.365,4.365,0,0,1-.328-.749,8.47,8.47,0,0,1-.43-2.308,13.837,13.837,0,0,1,.355-3.7,45.025,45.025,0,0,1,1.4-4.7,44.905,44.905,0,0,0,1.618-5.672c.439-2.076.764-4.324,1.075-6.7.631-4.757,1.323-9.978,2.05-15.459.172-1.223.3-2.43.517-3.633a9.534,9.534,0,0,1,1.207-3.437,4.591,4.591,0,0,1,2.879-2.09,3.268,3.268,0,0,1,3.293.909l.058.071,0,.087c.261,7.588.484,14.088.645,18.759.058,2.261.105,4.077.139,5.391.005.588.011,1.062.015,1.435a2.176,2.176,0,0,1-.025.5" transform="translate(13.315 14.599)" fill="#eb996e"/>
                  <path id="Trazado_697666" data-name="Trazado 697666" d="M190.62,204.557a5.541,5.541,0,0,1-.577-1.224,31.179,31.179,0,0,1-1.146-3.5,35.364,35.364,0,0,1-.984-5.388,15.742,15.742,0,0,1-.058-3.265,6.977,6.977,0,0,1,1.18-3.352,4.789,4.789,0,0,1,2.5-1.878l.21-.061.107.189c1.982,3.5,3.7,6.584,4.915,8.8l1.4,2.624a4.494,4.494,0,0,1,.448.985A4.567,4.567,0,0,1,198,197.6l-1.546-2.543c-1.3-2.172-3.076-5.224-5.079-8.71l.316.128a4.267,4.267,0,0,0-2.2,1.673,6.513,6.513,0,0,0-1.093,3.089,15.7,15.7,0,0,0,.027,3.156,39.668,39.668,0,0,0,.854,5.342c.345,1.5.712,2.7.968,3.527a7.189,7.189,0,0,1,.372,1.3" transform="translate(13.65 13.511)" fill="#eb996e"/>
                  <path id="Trazado_697667" data-name="Trazado 697667" d="M187.417,207.077a5.4,5.4,0,0,1-.127-1.246c-.038-.923-.084-2.06-.138-3.4-.092-2.875-.181-6.845-.245-11.232a96.443,96.443,0,0,1,.174-11.254,17.226,17.226,0,0,1,.734-3.349,4.191,4.191,0,0,1,.5-1.153,31.625,31.625,0,0,0-.843,4.544c-.272,2.84-.041,6.816-.007,11.2.063,4.386.09,8.358.08,11.234-.015,1.344-.029,2.482-.039,3.406a5.426,5.426,0,0,1-.091,1.25" transform="translate(13.58 12.752)" fill="#eb996e"/>
                  <path id="Trazado_697668" data-name="Trazado 697668" d="M176.59,240.044c-.079-.065.778-1.074,1.836-2.9a24.168,24.168,0,0,0,1.592-3.338,23.885,23.885,0,0,0,1.6-8.859,24.05,24.05,0,0,0-.324-3.685c-.353-2.082-.8-3.326-.706-3.36a2.966,2.966,0,0,1,.389.846,15.563,15.563,0,0,1,.7,2.44,20.977,20.977,0,0,1,.452,3.748,22.244,22.244,0,0,1-1.636,9.058,21.034,21.034,0,0,1-1.732,3.354,15.522,15.522,0,0,1-1.514,2.039c-.4.448-.632.682-.661.658" transform="translate(12.835 15.838)" fill="#eb996e"/>
                  <path id="Trazado_697669" data-name="Trazado 697669" d="M199.72,232.273,211.6,236.4s11.342-5.865,19.162,0,14.614,21.326,12.464,27.583c0,0-5.4,6.664-9.5,7.642s-20.069-2.89-26.71-4.288c-6.659-1.4-18.093-8.842-18.093-8.842Z" transform="translate(13.731 16.883)" fill="#ffbe9d"/>
                  <path id="Trazado_697670" data-name="Trazado 697670" d="M200.393,250.4a3.9,3.9,0,0,1-.127-1.051c-.047-.8-.1-1.759-.17-2.869-.125-2.424-.29-5.775-.339-9.483a94.373,94.373,0,0,1,.275-9.5c.1-1.212.237-2.19.358-2.861a3.863,3.863,0,0,1,.247-1.031c.087.014-.1,1.5-.211,3.92s-.165,5.764-.109,9.463c.068,3.625.128,6.9.175,9.477.014,1.214.011,2.2-.009,2.877a3.881,3.881,0,0,1-.09,1.057" transform="translate(14.518 16.253)" fill="#eb996e"/>
                  <path id="Trazado_697671" data-name="Trazado 697671" d="M239.053,236.255a37.552,37.552,0,0,0-3.95-3.561,21.728,21.728,0,0,0-24.078-1.327,37.486,37.486,0,0,0-4.316,3.105,5.927,5.927,0,0,1,.978-1.06,19.28,19.28,0,0,1,3.137-2.385,21.35,21.35,0,0,1,24.517,1.35,19.28,19.28,0,0,1,2.854,2.715,5.946,5.946,0,0,1,.857,1.162" transform="translate(15.024 16.557)" fill="#263238"/>
                  <path id="Trazado_697672" data-name="Trazado 697672" d="M237.77,226.755a23.325,23.325,0,0,0-4.942-2.726,21.872,21.872,0,0,0-13.372-.4,31.143,31.143,0,0,0-6.916,2.878,32.907,32.907,0,0,0-5.008,3.539c-1.333,1.138-2.352,2.13-3.052,2.822a8.806,8.806,0,0,1-1.118,1.047,7.5,7.5,0,0,1,.96-1.2,37.441,37.441,0,0,1,2.949-2.969,30.767,30.767,0,0,1,5.012-3.687,30.082,30.082,0,0,1,7.023-2.97,21.445,21.445,0,0,1,13.666.572,15.693,15.693,0,0,1,3.656,2.063,10,10,0,0,1,.87.739c.191.177.285.276.272.291" transform="translate(14.781 16.154)" fill="#263238"/>
                  <path id="Trazado_697673" data-name="Trazado 697673" d="M238.021,218.576c-.03.11-2.107-.525-5.555-.991a44.6,44.6,0,0,0-6.089-.386,44.215,44.215,0,0,0-14.649,2.578,44.706,44.706,0,0,0-5.591,2.441c-3.083,1.617-4.817,2.922-4.883,2.829a7.81,7.81,0,0,1,1.189-.951,16.858,16.858,0,0,1,1.475-1.007c.592-.367,1.251-.816,2.032-1.218a40.306,40.306,0,0,1,5.6-2.578,41.942,41.942,0,0,1,14.823-2.609,40.374,40.374,0,0,1,6.145.509c.872.111,1.643.309,2.326.451a16.558,16.558,0,0,1,1.73.445,7.867,7.867,0,0,1,1.443.487" transform="translate(14.628 15.75)" fill="#263238"/>
                  <path id="Trazado_697674" data-name="Trazado 697674" d="M152.675,120.524a9.919,9.919,0,0,1,.823,3.158,30.811,30.811,0,0,1-.451,9.213,54.89,54.89,0,0,1-1.535,6.422,48.725,48.725,0,0,1-3.119,7.134c-2.558,4.933-5.777,10.313-9.506,16.049l-.436.67v-.8c-.006-3.791-.012-7.771-.018-11.9l.417.2-10.018,8.086.087-.127a105.5,105.5,0,0,0-4.456,24.08c-.979,13.055-.19,25.541.427,36.868.528,11.344.872,21.558,1.226,30.135s.65,15.516.909,20.309c.141,2.375.25,4.228.326,5.517.041.61.073,1.087.1,1.434.018.323.014.49.014.49s-.033-.163-.071-.485c-.036-.346-.086-.822-.15-1.431-.119-1.258-.272-3.116-.431-5.513-.325-4.791-.7-11.729-1.087-20.3s-.839-18.791-1.346-30.126c-.644-11.318-1.452-23.831-.469-36.936a105.269,105.269,0,0,1,4.5-24.2l.024-.077.063-.05,10.035-8.066.418-.337v.536c-.006,4.132-.013,8.112-.018,11.9l-.437-.132c7.368-11.428,13.362-21.358,14.285-29.393a31.747,31.747,0,0,0,.578-9.147,15.49,15.49,0,0,0-.44-2.377c-.168-.521-.238-.8-.238-.8" transform="translate(8.973 8.76)" fill="#263238"/>
                  <path id="Trazado_697675" data-name="Trazado 697675" d="M132.984,249.52l-.383-.013a3.023,3.023,0,1,0,.383.013" transform="translate(9.424 18.135)" fill="#fff"/>
                  <path id="Trazado_697676" data-name="Trazado 697676" d="M132.984,210.979l-.383-.013a3.023,3.023,0,1,0,.383.013" transform="translate(9.424 15.334)" fill="#fff"/>
                  <path id="Trazado_697677" data-name="Trazado 697677" d="M132.583,176.907a3.026,3.026,0,0,0,.4-6.036l-.383-.013a3.026,3.026,0,0,0-.018,6.049" transform="translate(9.424 12.419)" fill="#fff"/>
                  <path id="Trazado_697678" data-name="Trazado 697678" d="M90.161,80.842c-3.761-4.163-7.556-8.372-10.3-13.268S75.488,56.965,76.4,51.429c.53-3.237,1.906-6.322,2.125-9.6.3-4.505-1.593-9.212,0-13.435,2.5-6.6,11.38-7.619,16.766-12.178,4.194-3.551,6.237-9.315,10.85-12.3,4.031-2.609,9.21-2.552,13.963-1.879s9.537,1.872,14.3,1.233c3.392-.456,6.586-1.828,9.909-2.651s7.028-1.039,9.988.68,4.621,5.92,2.681,8.739C162.492,7.5,169.5,11.8,171,17.679s-1.511,12.235-6.184,16.114-10.715,5.682-16.681,6.807c-16.894,3.184-35.217,1.387-49.775-7.756" transform="translate(5.534 0)" fill="#263238"/>
                  <path id="Trazado_697679" data-name="Trazado 697679" d="M148.78,136.736c-.825-6.394-1.5-11.73-1.541-12.393,0,0,21.37-4.8,20.192-26.41-.57-10.443-3.493-31.854-6.361-51.2A40.308,40.308,0,0,0,118.5,12.459l-2.083.139C94.04,15.413,83.931,35.989,87.363,58.277l12.072,74.735s5.152,16.532,16.172,19.394l13.907,19.866,2.3-8.551,10.366-9.025a40.839,40.839,0,0,0,5.11-7.607,16.65,16.65,0,0,0,1.491-10.352" transform="translate(6.302 0.899)" fill="#ffbe9d"/>
                  <path id="Trazado_697680" data-name="Trazado 697680" d="M145.095,116.877s-13.571,2.023-28.683-6.116c0,0,7.693,15.093,29.106,11.707Z" transform="translate(8.461 8.051)" fill="#eb996e"/>
                  <path id="Trazado_697681" data-name="Trazado 697681" d="M149.973,61.894a3.089,3.089,0,0,1-2.764,3.309,2.956,2.956,0,0,1-3.365-2.567,3.093,3.093,0,0,1,2.762-3.311,2.957,2.957,0,0,1,3.367,2.569" transform="translate(10.454 4.31)" fill="#263238"/>
                  <path id="Trazado_697682" data-name="Trazado 697682" d="M153.195,54.771c-.355.427-2.806-1.146-6.125-.914-3.317.182-5.637,2.052-6.023,1.67-.19-.168.151-.919,1.16-1.762A8.47,8.47,0,0,1,147,51.93a8.135,8.135,0,0,1,4.909,1.229c1.073.714,1.466,1.418,1.29,1.611" transform="translate(10.248 3.773)" fill="#263238"/>
                  <path id="Trazado_697683" data-name="Trazado 697683" d="M120.755,63.983a3.091,3.091,0,0,1-2.765,3.309,2.956,2.956,0,0,1-3.365-2.567,3.093,3.093,0,0,1,2.763-3.311,2.959,2.959,0,0,1,3.367,2.569" transform="translate(8.33 4.462)" fill="#263238"/>
                  <path id="Trazado_697684" data-name="Trazado 697684" d="M122.83,57.381c-.356.428-2.81-1.145-6.125-.914-3.317.183-5.638,2.053-6.025,1.67-.188-.167.149-.919,1.162-1.761a8.471,8.471,0,0,1,4.79-1.835,8.147,8.147,0,0,1,4.909,1.229c1.069.714,1.465,1.419,1.29,1.611" transform="translate(8.041 3.963)" fill="#263238"/>
                  <path id="Trazado_697685" data-name="Trazado 697685" d="M134.993,81.241c-.028-.188,2.01-.682,5.324-1.332.841-.145,1.632-.367,1.736-.955a4.314,4.314,0,0,0-.734-2.473q-1.4-3-2.936-6.285c-4.094-8.952-7.118-16.336-6.757-16.5s3.974,6.963,8.068,15.915q1.485,3.315,2.835,6.33a4.919,4.919,0,0,1,.662,3.3,2.129,2.129,0,0,1-1.31,1.332,5.764,5.764,0,0,1-1.426.3c-3.351.407-5.436.561-5.462.373" transform="translate(9.565 3.903)" fill="#263238"/>
                  <path id="Trazado_697686" data-name="Trazado 697686" d="M123.01,45.154c-.267.924-3.608.718-7.469,1.448-3.877.651-6.939,2-7.51,1.227-.256-.372.235-1.258,1.445-2.216a13.228,13.228,0,0,1,11.411-2.037c1.467.479,2.234,1.14,2.123,1.578" transform="translate(7.847 3.13)" fill="#263238"/>
                  <path id="Trazado_697687" data-name="Trazado 697687" d="M151.4,45.909c-.533.793-2.872.163-5.622.31-2.756.05-5.042.846-5.63.093-.26-.366.056-1.146,1.024-1.928a8.153,8.153,0,0,1,9.067-.325c1.022.71,1.393,1.464,1.161,1.849" transform="translate(10.18 3.114)" fill="#263238"/>
                  <path id="Trazado_697688" data-name="Trazado 697688" d="M90.892,69.987c-.379-.135-15.128-3.4-13.669,11.334s17.421,9.928,17.4,9.5-3.735-20.837-3.735-20.837" transform="translate(5.606 5.058)" fill="#ffbe9d"/>
                  <path id="Trazado_697689" data-name="Trazado 697689" d="M87.842,85.648c-.07-.041-.239.2-.653.447a2.575,2.575,0,0,1-1.914.228c-1.612-.417-3.168-2.757-3.5-5.4a8.533,8.533,0,0,1,.355-3.746,2.977,2.977,0,0,1,1.735-2.16,1.313,1.313,0,0,1,1.584.554c.238.393.174.7.254.713.045.032.292-.278.113-.875a1.648,1.648,0,0,0-.67-.865,1.948,1.948,0,0,0-1.457-.235,3.626,3.626,0,0,0-2.454,2.549,8.765,8.765,0,0,0-.483,4.194c.388,2.958,2.183,5.585,4.373,5.99a2.762,2.762,0,0,0,2.307-.622c.421-.41.466-.747.412-.768" transform="translate(5.864 5.397)" fill="#eb996e"/>
                  <path id="Trazado_697690" data-name="Trazado 697690" d="M160.146,26.869c-1.012,5.863-12.9,11.235-22.762,10.948-9.089-.265-13.578-4.775-20.183-7.98-4.18-2.028-4.18-2.028-9.853-1.107-4.586.746-6.966,6.157-9.542,10.025,4.905,10.693,2.923,23.128.844,34.708a5.877,5.877,0,0,1-1.491,3.519c-1.656,1.46-4.34.586-5.969-.905-2.607-2.387-3.793-5.927-4.648-9.356a60.853,60.853,0,0,1-1.459-23.952,41.431,41.431,0,0,1,9.964-21.625A39.255,39.255,0,0,1,121.823,8.925a48.206,48.206,0,0,1,28.56,8.108c3.9,2.557,7.556,5.722,9.762,9.835" transform="translate(6.14 0.645)" fill="#263238"/>
                  <path id="Trazado_697691" data-name="Trazado 697691" d="M137.585,86.592l-7.509-3.5a2.521,2.521,0,0,0-1.364-.344,2.181,2.181,0,0,0-1.3.882,6.983,6.983,0,0,0-.831,7.672,5.864,5.864,0,0,0,7.045,2.591c2.66-1.1,3.953-4.192,4.161-7.065Z" transform="translate(9.143 6.014)" fill="#eb996e"/>
                  <path id="Trazado_697692" data-name="Trazado 697692" d="M133.922,94.487c.021.064-.348.281-1.1.438a6.5,6.5,0,0,1-3.23-.238,6.734,6.734,0,0,1-3.729-3.1,6.925,6.925,0,0,1-.457-5.921,7.247,7.247,0,0,1,1.742-2.626,6.723,6.723,0,0,1,1.218-.92,1.819,1.819,0,0,1,1.738-.107,10.778,10.778,0,0,1,1.169.664l1.024.629,1.828,1.143c2.227,1.413,3.565,2.355,3.487,2.488s-1.557-.566-3.885-1.805l-1.9-1.025-1.051-.579a11.632,11.632,0,0,0-1.062-.559.791.791,0,0,0-.821.078,5.882,5.882,0,0,0-.988.782,6.385,6.385,0,0,0-1.46,2.239,6.065,6.065,0,0,0,.318,5.028,6.2,6.2,0,0,0,3.1,2.852,7.346,7.346,0,0,0,2.907.545c.715-.017,1.121-.087,1.145-.005" transform="translate(9.082 5.949)" fill="#263238"/>
                  <path id="Trazado_697693" data-name="Trazado 697693" d="M133.21,63.12a26.57,26.57,0,0,0-.587-3.73,15.326,15.326,0,0,0-5.608-8.34,15.141,15.141,0,0,0-14.34-2.136,15.18,15.18,0,0,0-7.014,5.275,15.05,15.05,0,0,0,0,17.859,15.156,15.156,0,0,0,7.015,5.275,15.251,15.251,0,0,0,19.948-10.476,26.547,26.547,0,0,0,.587-3.729.832.832,0,0,1,.016.25c0,.2-.005.44-.01.734a7.07,7.07,0,0,1-.093,1.191,10.877,10.877,0,0,1-.289,1.607,14.538,14.538,0,0,1-1.664,4.152,15.534,15.534,0,0,1-10.461,7.4,15.638,15.638,0,0,1-8.209-.648,15.624,15.624,0,0,1-7.281-5.436,15.548,15.548,0,0,1,0-18.507,15.635,15.635,0,0,1,7.28-5.435,15.634,15.634,0,0,1,8.208-.648,15.528,15.528,0,0,1,10.461,7.4,14.525,14.525,0,0,1,1.665,4.152,10.877,10.877,0,0,1,.289,1.607,7.082,7.082,0,0,1,.093,1.192c0,.294.008.535.01.734a.832.832,0,0,1-.016.25" transform="translate(7.426 3.454)" fill="#263238"/>
                  <path id="Trazado_697694" data-name="Trazado 697694" d="M167.4,61.748a26.535,26.535,0,0,0-.574-3.633,14.941,14.941,0,0,0-5.465-8.123A14.743,14.743,0,0,0,147.4,47.912a14.758,14.758,0,0,0-6.832,5.138,14.656,14.656,0,0,0,0,17.394,14.78,14.78,0,0,0,6.833,5.139,14.86,14.86,0,0,0,19.433-10.2,26.535,26.535,0,0,0,.574-3.633,6.1,6.1,0,0,1,.007.959,6.9,6.9,0,0,1-.09,1.161,10.554,10.554,0,0,1-.281,1.566A15.087,15.087,0,0,1,155.223,76.7a15.237,15.237,0,0,1-8-.632,15.24,15.24,0,0,1-7.1-5.3,15.16,15.16,0,0,1,0-18.043,15.244,15.244,0,0,1,7.1-5.3,15.233,15.233,0,0,1,8-.632,15.091,15.091,0,0,1,11.817,11.264,10.567,10.567,0,0,1,.281,1.567,6.9,6.9,0,0,1,.09,1.161,6.1,6.1,0,0,1-.007.959" transform="translate(9.968 3.382)" fill="#263238"/>
                  <path id="Trazado_697695" data-name="Trazado 697695" d="M137.914,57.669c-.06.062-.415-.236-1.067-.545a6.146,6.146,0,0,0-2.7-.593,6.068,6.068,0,0,0-2.678.687c-.639.334-.98.648-1.044.588-.051-.041.2-.47.838-.925a5.3,5.3,0,0,1,5.779-.1c.656.428.925.845.874.889" transform="translate(9.479 4.068)" fill="#263238"/>
                  <path id="Trazado_697696" data-name="Trazado 697696" d="M104.226,60.026A66.335,66.335,0,0,1,97.5,65.393a66.388,66.388,0,0,1-7.056,4.92,66.272,66.272,0,0,1,6.723-5.368,66.335,66.335,0,0,1,7.056-4.919" transform="translate(6.574 4.363)" fill="#263238"/>
                  <g id="Grupo_952252" data-name="Grupo 952252" transform="translate(97.868 134.204)" opacity="0.3">
                    <g id="Grupo_952251" data-name="Grupo 952251">
                      <g id="Grupo_952250" data-name="Grupo 952250" clip-path="url(#clip-path-15)">
                        <path id="Trazado_697697" data-name="Trazado 697697" d="M91.475,125.11c-1.492,14.559,4.043,29.924,15.719,38.745.916.693,2.066,1.378,3.146.989a3.465,3.465,0,0,0,1.629-1.681,28.441,28.441,0,0,0,3.481-18.705c-1.849,4.869-3.436,9.648-5.3,14.741-10.174-6.178-16.516-19.312-18.673-34.089" transform="translate(-91.236 -125.11)"/>
                      </g>
                    </g>
                  </g>
                  <g id="Grupo_952255" data-name="Grupo 952255" transform="translate(137.635 132.871)" opacity="0.3">
                    <g id="Grupo_952254" data-name="Grupo 952254">
                      <g id="Grupo_952253" data-name="Grupo 952253" clip-path="url(#clip-path-16)">
                        <path id="Trazado_697698" data-name="Trazado 697698" d="M128.309,158.3l8.566-3.129,1.419,14.491s9.245-16.851,13.072-24.539,1.858-21.256,1.858-21.256,1.369,11.818-7.9,26.893l-6.993,11.366v-11.9Z" transform="translate(-128.309 -123.868)"/>
                      </g>
                    </g>
                  </g>
                  <g id="Grupo_952258" data-name="Grupo 952258" transform="translate(7.747 239.175)" opacity="0.3">
                    <g id="Grupo_952257" data-name="Grupo 952257">
                      <g id="Grupo_952256" data-name="Grupo 952256" clip-path="url(#clip-path-17)">
                        <path id="Trazado_697699" data-name="Trazado 697699" d="M37.438,224.747a22.9,22.9,0,0,0-12.414-1.558,23.94,23.94,0,0,0-12.356,4.676c-3.473,2.8-5.829,7.218-5.395,11.66l.429.061c2.988-8.091,8.935-13.979,16.6-14.69s15.151,2.7,20.414,8.321c-.512-4.194-3.46-6.666-7.281-8.47" transform="translate(-7.222 -222.969)"/>
                      </g>
                    </g>
                  </g>
                  <g id="Grupo_952261" data-name="Grupo 952261" transform="translate(222.919 243.176)" opacity="0.3">
                    <g id="Grupo_952260" data-name="Grupo 952260">
                      <g id="Grupo_952259" data-name="Grupo 952259" clip-path="url(#clip-path-18)">
                        <path id="Trazado_697700" data-name="Trazado 697700" d="M239.526,232.749a19.628,19.628,0,0,0-11.066-5.7,24.869,24.869,0,0,0-20.646,5.976l1.635-1.327a26.045,26.045,0,0,1,13.749-3.735A19.9,19.9,0,0,1,236.3,233.2c3.2,3.052,5.127,7.172,6.964,11.2a14.033,14.033,0,0,0-3.742-11.645" transform="translate(-207.814 -226.699)"/>
                      </g>
                    </g>
                  </g>
                  <path id="Trazado_697701" data-name="Trazado 697701" d="M185.888,171.582a5.223,5.223,0,0,1,.384-1.171l1.219-3.118c1.038-2.628,2.462-6.261,3.965-10.3s2.8-7.721,3.732-10.389l1.116-3.156a5.232,5.232,0,0,1,.474-1.137,5.256,5.256,0,0,1-.267,1.2c-.206.765-.529,1.863-.948,3.214-.837,2.7-2.078,6.411-3.583,10.461s-2.991,7.663-4.123,10.257c-.566,1.3-1.039,2.338-1.383,3.052a5.275,5.275,0,0,1-.585,1.086" transform="translate(13.511 10.344)" fill="#263238"/>
                  <path id="Trazado_697702" data-name="Trazado 697702" d="M60.135,172.133c-.151.031-1.317-5.074-2.6-11.4s-2.208-11.482-2.056-11.513,1.316,5.073,2.6,11.4,2.208,11.481,2.056,11.512" transform="translate(4.031 10.846)" fill="#263238"/>
                  <path id="Trazado_697703" data-name="Trazado 697703" d="M58.2,234.8c.339.172-3.93-33.427-3.93-33.427s2.695-25.5,4.209-26.677l.039-9s4.171-2.526,5.289,1.552c0,0,3.7-3.211,4.344,4.432s.782,15.453.782,15.453l8.23,20.579,1.355.684s1.768-16.121,2.8-18.494,1.733-8.142,5.635-7.276,4.226,4.093,3.525,9.354-1.575,10.689-1.25,14.085,1.869,10.875,1.395,16.814-3.728,12.208-7.142,16.608-9.937,13.5-13.483,16.24C68.753,256.692,58.2,234.8,58.2,234.8" transform="translate(3.944 11.988)" fill="#ffbe9d"/>
                  <path id="Trazado_697704" data-name="Trazado 697704" d="M62.054,206.767a7.035,7.035,0,0,1,.023-1.438c.071-1.032.161-2.341.268-3.9.251-3.294.636-7.84,1.1-12.858.237-2.5.462-4.886.669-7.072a12.614,12.614,0,0,0,.038-3.034,4.307,4.307,0,0,0-1.025-2.318,4.621,4.621,0,0,0-3.36-1.475,8.849,8.849,0,0,0-1.4.179c-.008-.017.106-.077.334-.176a3.679,3.679,0,0,1,1.06-.221,4.723,4.723,0,0,1,3.657,1.423,4.672,4.672,0,0,1,1.194,2.515,12.667,12.667,0,0,1,.017,3.152c-.193,2.187-.4,4.573-.625,7.078-.46,5.018-.907,9.558-1.259,12.842-.178,1.556-.327,2.86-.445,3.887a7.133,7.133,0,0,1-.239,1.418" transform="translate(4.242 12.679)" fill="#eb996e"/>
                  <path id="Trazado_697705" data-name="Trazado 697705" d="M66.248,191.767a11.612,11.612,0,0,0-1.457,2.653,44.808,44.808,0,0,0-1.369,7.251c-.443,2.873-.875,5.469-1.215,7.343a16.9,16.9,0,0,1-.665,3.016,16.937,16.937,0,0,1,.275-3.076c.24-1.89.61-4.495,1.054-7.367.464-2.854.764-5.508,1.551-7.31a6.959,6.959,0,0,1,1.19-1.96c.36-.407.618-.57.636-.549" transform="translate(4.471 13.938)" fill="#eb996e"/>
                  <path id="Trazado_697706" data-name="Trazado 697706" d="M63.11,166.683a4.151,4.151,0,0,1,.286,1.057c.15.687.337,1.686.541,2.926.411,2.479.859,5.924,1.143,9.75s.343,7.3.3,9.814c-.02,1.256-.058,2.272-.106,2.973a4.107,4.107,0,0,1-.128,1.088,35.746,35.746,0,0,1-.162-4.059c-.059-2.5-.183-5.963-.463-9.774s-.668-7.249-.977-9.736a35.692,35.692,0,0,1-.437-4.039" transform="translate(4.586 12.115)" fill="#eb996e"/>
                  <path id="Trazado_697707" data-name="Trazado 697707" d="M85.576,196.152a3,3,0,0,1-2.772.235c-1.575-.47-2.307-1.681-2.169-1.741a15.685,15.685,0,0,0,2.332,1.207,15.619,15.619,0,0,0,2.609.3" transform="translate(5.86 14.147)" fill="#eb996e"/>
                  <path id="Trazado_697708" data-name="Trazado 697708" d="M61.8,226.171,40.06,235.308H27.106s-12.812,4-14.784,16.009S10.069,269.51,15.7,270.994s21.543,1.651,29.428-.966,28.539-19.283,28.539-19.283l1.991-12.057Z" transform="translate(0.802 16.439)" fill="#ffbe9d"/>
                  <path id="Trazado_697709" data-name="Trazado 697709" d="M63.552,239.881c-.028.026-.246-.176-.618-.567a13.38,13.38,0,0,1-1.413-1.8,24.563,24.563,0,0,1-3.036-6.877,40.689,40.689,0,0,1-1.34-7.389,13.827,13.827,0,0,1-.085-3.107,22.328,22.328,0,0,1,.476,3.061,55.319,55.319,0,0,0,1.485,7.28,28.736,28.736,0,0,0,2.834,6.819c.977,1.624,1.773,2.5,1.7,2.574" transform="translate(4.144 16.001)" fill="#eb996e"/>
                  <path id="Trazado_697710" data-name="Trazado 697710" d="M72.6,244.116a22.432,22.432,0,0,0,1.239-4.661,15.016,15.016,0,0,0-2.921-10.91c-1.32-1.851-2.806-3.463-4.057-5.022a23.267,23.267,0,0,1-2.939-4.443,11.651,11.651,0,0,1-1.09-3.429,3.953,3.953,0,0,1-.038-1.317,14.892,14.892,0,0,0,1.479,4.567,24.932,24.932,0,0,0,2.985,4.3c1.26,1.527,2.763,3.132,4.115,5.024a15.661,15.661,0,0,1,2.712,5.948,15.16,15.16,0,0,1,.145,5.34,13.778,13.778,0,0,1-1,3.454,7.793,7.793,0,0,1-.439.872c-.112.193-.178.29-.2.281" transform="translate(4.562 15.579)" fill="#eb996e"/>
                  <path id="Trazado_697711" data-name="Trazado 697711" d="M41.372,194.618a108.55,108.55,0,0,1-5.3-9.639,108.275,108.275,0,0,1-4.8-9.9,108.455,108.455,0,0,1,5.3,9.64,108.518,108.518,0,0,1,4.8,9.9" transform="translate(2.272 12.726)" fill="#fff"/>
                  <path id="Trazado_697712" data-name="Trazado 697712" d="M73.467,157.879a67.49,67.49,0,0,1,3.275-8.037,67.458,67.458,0,0,1,3.784-7.81,67.494,67.494,0,0,1-3.275,8.038,67.6,67.6,0,0,1-3.784,7.809" transform="translate(5.339 10.323)" fill="#fff"/>
                  <path id="Trazado_697713" data-name="Trazado 697713" d="M106.2,181.259a49,49,0,0,1-4.927-5.514,49.1,49.1,0,0,1-4.5-5.871,49.017,49.017,0,0,1,4.928,5.515,49,49,0,0,1,4.5,5.87" transform="translate(7.034 12.347)" fill="#fff"/>
                  <path id="Trazado_697714" data-name="Trazado 697714" d="M98.18,213.8a40.577,40.577,0,0,1,3.713-5.6,40.5,40.5,0,0,1,4.166-5.269,40.5,40.5,0,0,1-3.714,5.6A40.585,40.585,0,0,1,98.18,213.8" transform="translate(7.136 14.75)" fill="#fff"/>
                  <path id="Trazado_697715" data-name="Trazado 697715" d="M88.69,260.123a10.4,10.4,0,0,1-1.259-2.155c-.7-1.369-1.618-3.29-2.537-5.451s-1.667-4.153-2.164-5.61a10.413,10.413,0,0,1-.677-2.4,11.876,11.876,0,0,1,1.046,2.262l2.309,5.532c.884,2.046,1.685,3.9,2.379,5.5a11.851,11.851,0,0,1,.9,2.323" transform="translate(5.963 17.772)" fill="#fff"/>
                  <path id="Trazado_697716" data-name="Trazado 697716" d="M117.356,239.678a38.988,38.988,0,0,1-6.512-.976,39.022,39.022,0,0,1-6.406-1.524,38.989,38.989,0,0,1,6.512.976,39.081,39.081,0,0,1,6.406,1.524" transform="translate(7.591 17.237)" fill="#fff"/>
                  <path id="Trazado_697717" data-name="Trazado 697717" d="M138.384,197.457a79.776,79.776,0,0,1,6.21-7.108,79.754,79.754,0,0,1,6.62-6.728A80.042,80.042,0,0,1,145,190.729a80.04,80.04,0,0,1-6.618,6.728" transform="translate(10.058 13.346)" fill="#fff"/>
                  <path id="Trazado_697718" data-name="Trazado 697718" d="M161.44,255.09c-.119.1-3.588-3.916-7.747-8.965s-7.436-9.223-7.317-9.321,3.587,3.915,7.748,8.965,7.435,9.223,7.316,9.321" transform="translate(10.639 17.212)" fill="#fff"/>
                  <path id="Trazado_697719" data-name="Trazado 697719" d="M24.483,229.415c.079.153-3.09,1.761-6.543,4.412-3.47,2.63-5.857,5.262-5.985,5.145a8.091,8.091,0,0,1,1.46-1.821,34.7,34.7,0,0,1,8.925-6.809,8.122,8.122,0,0,1,2.143-.926" transform="translate(0.869 16.674)" fill="#fff"/>
                  <path id="Trazado_697720" data-name="Trazado 697720" d="M32.247,207.318a22.3,22.3,0,0,1-2.52,4.293,22.387,22.387,0,0,1-2.984,3.984,22.308,22.308,0,0,1,2.52-4.293,22.317,22.317,0,0,1,2.984-3.984" transform="translate(1.943 15.069)" fill="#fff"/>
                  <path id="Trazado_697721" data-name="Trazado 697721" d="M50.587,229.639a14.18,14.18,0,0,1-2.083-9.168c.166,0,.222,2.117.8,4.638.564,2.524,1.429,4.458,1.279,4.53" transform="translate(3.515 16.025)" fill="#fff"/>
                  <path id="Trazado_697722" data-name="Trazado 697722" d="M53.753,160.1a16.19,16.19,0,0,1-4.132.87,16.185,16.185,0,0,1-4.212.316,16.08,16.08,0,0,1,4.133-.87,16.176,16.176,0,0,1,4.211-.316" transform="translate(3.301 11.632)" fill="#fff"/>
                  <path id="Trazado_697723" data-name="Trazado 697723" d="M67.641,135.371a16.759,16.759,0,0,1-3.618,2.325,16.813,16.813,0,0,1-3.888,1.835,16.693,16.693,0,0,1,3.618-2.325,16.642,16.642,0,0,1,3.888-1.835" transform="translate(4.371 9.838)" fill="#fff"/>
                  <path id="Trazado_697724" data-name="Trazado 697724" d="M106.871,146.512a37.6,37.6,0,0,1-4.137-4.972,37.682,37.682,0,0,1-3.694-5.311,37.469,37.469,0,0,1,4.138,4.972,37.656,37.656,0,0,1,3.693,5.311" transform="translate(7.198 9.902)" fill="#fff"/>
                  <path id="Trazado_697725" data-name="Trazado 697725" d="M156.553,171.387a26.276,26.276,0,0,1-6.49-10.431c.152-.065,1.307,2.436,3.1,5.306,1.78,2.876,3.514,5.018,3.389,5.125" transform="translate(10.906 11.699)" fill="#fff"/>
                  <path id="Trazado_697726" data-name="Trazado 697726" d="M175.444,176.942a32.157,32.157,0,0,1-2.211,5.549,32.052,32.052,0,0,1-2.72,5.317,32.157,32.157,0,0,1,2.211-5.549,32.114,32.114,0,0,1,2.72-5.317" transform="translate(12.393 12.861)" fill="#fff"/>
                  <path id="Trazado_697727" data-name="Trazado 697727" d="M178.471,151.86a59.34,59.34,0,0,1-5.419-6.076,59.434,59.434,0,0,1-4.99-6.434,59.612,59.612,0,0,1,5.419,6.077,59.559,59.559,0,0,1,4.99,6.433" transform="translate(12.215 10.128)" fill="#fff"/>
                  <path id="Trazado_697728" data-name="Trazado 697728" d="M148.786,130.655a24.546,24.546,0,0,1-.485-5.2,24.684,24.684,0,0,1,.074-5.221,24.565,24.565,0,0,1,.485,5.2,24.6,24.6,0,0,1-.074,5.22" transform="translate(10.774 8.739)" fill="#fff"/>
                  <path id="Trazado_697729" data-name="Trazado 697729" d="M173.309,128.639a40.7,40.7,0,0,1-6.623,1.167,40.743,40.743,0,0,1-6.7.615,40.6,40.6,0,0,1,6.624-1.168,40.641,40.641,0,0,1,6.7-.614" transform="translate(11.629 9.347)" fill="#fff"/>
                  <path id="Trazado_697730" data-name="Trazado 697730" d="M210.173,157.052a65.856,65.856,0,0,1-3.985-7.6,66.052,66.052,0,0,1-3.483-7.84,66.037,66.037,0,0,1,3.986,7.6,66.1,66.1,0,0,1,3.482,7.839" transform="translate(14.733 10.293)" fill="#fff"/>
                  <path id="Trazado_697731" data-name="Trazado 697731" d="M203.4,180.475a34.326,34.326,0,0,1,.934-6.106,34.287,34.287,0,0,1,1.482-6,34.336,34.336,0,0,1-.934,6.106,34.321,34.321,0,0,1-1.482,6" transform="translate(14.781 12.238)" fill="#fff"/>
                  <path id="Trazado_697732" data-name="Trazado 697732" d="M221.071,199.43a69.767,69.767,0,0,1-3.18-8.243,69.769,69.769,0,0,1-2.654-8.427A70.23,70.23,0,0,1,218.417,191a69.953,69.953,0,0,1,2.654,8.427" transform="translate(15.644 13.284)" fill="#fff"/>
                  <path id="Trazado_697733" data-name="Trazado 697733" d="M218.947,209.572a18.853,18.853,0,0,1-10-5.418c.109-.129,2.086,1.506,4.85,2.991,2.751,1.5,5.2,2.265,5.152,2.427" transform="translate(15.187 14.838)" fill="#fff"/>
                  <path id="Trazado_697734" data-name="Trazado 697734" d="M240.635,234.579a30.333,30.333,0,0,1-3.337-7.5,30.228,30.228,0,0,1,3.337,7.5" transform="translate(17.247 16.505)" fill="#fff"/>
                  <path id="Trazado_697735" data-name="Trazado 697735" d="M109.729,269.4a41.65,41.65,0,0,1-1.112-9.564,41.65,41.65,0,0,1,1.112,9.564" transform="translate(7.89 18.886)" fill="#fff"/>
                  <path id="Trazado_697736" data-name="Trazado 697736" d="M177.58,267.653a39.464,39.464,0,0,1,1.95-9.174,39.434,39.434,0,0,1-1.95,9.174" transform="translate(12.905 18.787)" fill="#fff"/>
                </g>
              </g>
            </g>
          </g>
        </g>
      </g>
    </g>
  </g>
</svg>
