<svg xmlns="http://www.w3.org/2000/svg" xmlns:xlink="http://www.w3.org/1999/xlink" width="1194" height="396" viewBox="0 0 1194 396">
  <defs>
    <clipPath id="clip-path">
      <rect id="Rectángulo_344316" data-name="Rectángulo 344316" width="11.824" height="11.824" fill="none"/>
    </clipPath>
    <clipPath id="clip-path-7">
      <rect id="Rectángulo_33768" data-name="Rectángulo 33768" width="425.048" height="333.371" fill="none" stroke="#707070" stroke-width="1"/>
    </clipPath>
    <clipPath id="clip-path-8">
      <rect id="Rectángulo_33845" data-name="Rectángulo 33845" width="425.048" height="291.51" transform="translate(0 0)" fill="none"/>
    </clipPath>
    <clipPath id="clip-path-9">
      <rect id="Rectángulo_33841" data-name="Rectángulo 33841" width="366.806" height="300.036" fill="none"/>
    </clipPath>
    <clipPath id="clip-path-10">
      <rect id="Rectángulo_344652" data-name="Rectángulo 344652" width="462" height="348" transform="translate(-0.461 -0.154)" fill="#ffa031" opacity="0.38"/>
    </clipPath>
    <clipPath id="clip-path-11">
      <rect id="Rectángulo_344722" data-name="Rectángulo 344722" width="469" height="396" transform="translate(0 0.077)" fill="#ffa031" opacity="0.46"/>
    </clipPath>
    <clipPath id="clip-path-12">
      <rect id="Rectángulo_344721" data-name="Rectángulo 344721" width="636" height="637" transform="translate(0.462 -0.154)" fill="none"/>
    </clipPath>
    <filter id="Trazado_699647" x="360.206" y="298.526" width="96.225" height="47.766" filterUnits="userSpaceOnUse">
      <feOffset dy="3" input="SourceAlpha"/>
      <feGaussianBlur stdDeviation="3" result="blur"/>
      <feFlood flood-opacity="0.161"/>
      <feComposite operator="in" in2="blur"/>
      <feComposite in="SourceGraphic"/>
    </filter>
    <filter id="Trazado_697642" x="653.268" y="-136.657" width="60.13" height="60.131" filterUnits="userSpaceOnUse">
      <feOffset dy="3" input="SourceAlpha"/>
      <feGaussianBlur stdDeviation="3" result="blur-2"/>
      <feFlood flood-opacity="0.161"/>
      <feComposite operator="in" in2="blur-2"/>
      <feComposite in="SourceGraphic"/>
    </filter>
    <filter id="Trazado_699648" x="339.848" y="94.421" width="52.506" height="52.506" filterUnits="userSpaceOnUse">
      <feOffset dy="3" input="SourceAlpha"/>
      <feGaussianBlur stdDeviation="3" result="blur-3"/>
      <feFlood flood-opacity="0.161"/>
      <feComposite operator="in" in2="blur-3"/>
      <feComposite in="SourceGraphic"/>
    </filter>
    <filter id="Rectángulo_345159" x="633.138" y="46.264" width="52.506" height="52.506" filterUnits="userSpaceOnUse">
      <feOffset dy="3" input="SourceAlpha"/>
      <feGaussianBlur stdDeviation="3" result="blur-4"/>
      <feFlood flood-opacity="0.161"/>
      <feComposite operator="in" in2="blur-4"/>
      <feComposite in="SourceGraphic"/>
    </filter>
    <filter id="Rectángulo_345160" x="760.138" y="207.922" width="52.506" height="52.506" filterUnits="userSpaceOnUse">
      <feOffset dy="3" input="SourceAlpha"/>
      <feGaussianBlur stdDeviation="3" result="blur-5"/>
      <feFlood flood-opacity="0.161"/>
      <feComposite operator="in" in2="blur-5"/>
      <feComposite in="SourceGraphic"/>
    </filter>
    <filter id="Rectángulo_344711" x="355.256" y="-78.117" width="41.789" height="41.789" filterUnits="userSpaceOnUse">
      <feOffset dy="3" input="SourceAlpha"/>
      <feGaussianBlur stdDeviation="3" result="blur-6"/>
      <feFlood flood-opacity="0.161"/>
      <feComposite operator="in" in2="blur-6"/>
      <feComposite in="SourceGraphic"/>
    </filter>
    <filter id="Rectángulo_344712" x="613.739" y="-147.531" width="39.75" height="39.75" filterUnits="userSpaceOnUse">
      <feOffset dy="3" input="SourceAlpha"/>
      <feGaussianBlur stdDeviation="3" result="blur-7"/>
      <feFlood flood-opacity="0.161"/>
      <feComposite operator="in" in2="blur-7"/>
      <feComposite in="SourceGraphic"/>
    </filter>
    <clipPath id="clip-path-15">
      <rect id="Rectángulo_344718" data-name="Rectángulo 344718" width="0.226" height="4.818" fill="none"/>
    </clipPath>
    <clipPath id="clip-path-17">
      <rect id="Rectángulo_344730" data-name="Rectángulo 344730" width="337.866" height="371.154" fill="none"/>
    </clipPath>
    <clipPath id="clip-path-19">
      <rect id="Rectángulo_344723" data-name="Rectángulo 344723" width="31.595" height="67.026" fill="none"/>
    </clipPath>
    <clipPath id="clip-path-20">
      <rect id="Rectángulo_344724" data-name="Rectángulo 344724" width="43.379" height="76.614" fill="none"/>
    </clipPath>
    <clipPath id="clip-path-21">
      <rect id="Rectángulo_344725" data-name="Rectángulo 344725" width="31.564" height="51.236" fill="none"/>
    </clipPath>
    <clipPath id="clip-path-22">
      <rect id="Rectángulo_344726" data-name="Rectángulo 344726" width="32.685" height="58.883" fill="none"/>
    </clipPath>
    <clipPath id="clip-path-23">
      <rect id="Rectángulo_344727" data-name="Rectángulo 344727" width="48.214" height="21.367" fill="none"/>
    </clipPath>
    <clipPath id="clip-path-24">
      <rect id="Rectángulo_344728" data-name="Rectángulo 344728" width="45.806" height="22.752" fill="none"/>
    </clipPath>
  </defs>
  <g id="Grupo_1005936" data-name="Grupo 1005936" transform="translate(-226 -3777)">
    <path id="Trazado_701908" data-name="Trazado 701908" d="M19.5,0h183a19.5,19.5,0,0,1,0,39H19.5a19.5,19.5,0,0,1,0-39Z" transform="translate(226 3856)" fill="#112e4c"/>
    <path id="Trazado_701909" data-name="Trazado 701909" d="M19.5,17V4.2h4.122a6.064,6.064,0,0,1,3.05.769,5.406,5.406,0,0,1,2.114,2.171,6.554,6.554,0,0,1,.769,3.142v.589a6.592,6.592,0,0,1-.743,3.151,5.429,5.429,0,0,1-2.092,2.18,5.93,5.93,0,0,1-3.01.8ZM22.588,6.585v8.042H23.66a2.4,2.4,0,0,0,2.039-.945,4.63,4.63,0,0,0,.712-2.808V10.32A4.592,4.592,0,0,0,25.7,7.525a2.442,2.442,0,0,0-2.074-.94ZM34.128,17H31.157V7.49h2.971ZM30.981,5.029a1.334,1.334,0,0,1,.457-1.043,1.934,1.934,0,0,1,2.373,0,1.334,1.334,0,0,1,.457,1.043,1.334,1.334,0,0,1-.457,1.043,1.934,1.934,0,0,1-2.373,0A1.334,1.334,0,0,1,30.981,5.029Zm9.949,9.3a.684.684,0,0,0-.4-.606,6.016,6.016,0,0,0-1.5-.475A6.853,6.853,0,0,1,37.2,12.6a3.062,3.062,0,0,1-1.1-.971,2.319,2.319,0,0,1-.378-1.31,2.628,2.628,0,0,1,1.081-2.158,4.453,4.453,0,0,1,2.83-.848,4.934,4.934,0,0,1,3.023.853A2.666,2.666,0,0,1,43.8,10.408H40.834q0-1.143-1.2-1.143a1.194,1.194,0,0,0-.782.259.8.8,0,0,0-.316.646.737.737,0,0,0,.387.642,3.654,3.654,0,0,0,1.235.4,10.671,10.671,0,0,1,1.49.378,2.706,2.706,0,0,1,2.145,2.646,2.491,2.491,0,0,1-1.156,2.118,5.068,5.068,0,0,1-2.993.817,5.172,5.172,0,0,1-2.18-.439,3.645,3.645,0,0,1-1.494-1.2,2.707,2.707,0,0,1-.536-1.591H38.2a1.145,1.145,0,0,0,.439.962,1.808,1.808,0,0,0,1.081.3,1.422,1.422,0,0,0,.91-.246A.787.787,0,0,0,40.931,14.328ZM54,12.315a5.735,5.735,0,0,1-1,3.538,3.2,3.2,0,0,1-2.694,1.323,2.742,2.742,0,0,1-2.153-.958v4.438H45.193V7.49h2.769l.088.879a2.742,2.742,0,0,1,2.241-1.055,3.224,3.224,0,0,1,2.733,1.3A5.805,5.805,0,0,1,54,12.175Zm-2.962-.185q0-2.531-1.477-2.531a1.394,1.394,0,0,0-1.406.756V14.1a1.439,1.439,0,0,0,1.424.791q1.415,0,1.459-2.443Zm3.894.026a5.613,5.613,0,0,1,.554-2.536,3.96,3.96,0,0,1,1.591-1.709,4.791,4.791,0,0,1,2.435-.6,4.373,4.373,0,0,1,3.366,1.323,5.076,5.076,0,0,1,1.23,3.6v.105a4.925,4.925,0,0,1-1.235,3.529,4.384,4.384,0,0,1-3.344,1.305,4.434,4.434,0,0,1-3.261-1.217,4.761,4.761,0,0,1-1.327-3.3Zm2.962.185a3.538,3.538,0,0,0,.413,1.934,1.376,1.376,0,0,0,1.222.615q1.582,0,1.617-2.435v-.3q0-2.558-1.635-2.558-1.485,0-1.608,2.206ZM68.133,7.49l.1,1.116a3.225,3.225,0,0,1,2.716-1.292,2.713,2.713,0,0,1,2.219.888,4.226,4.226,0,0,1,.76,2.672V17H70.954V11a1.6,1.6,0,0,0-.29-1.059A1.342,1.342,0,0,0,69.609,9.6a1.413,1.413,0,0,0-1.292.686V17H65.355V7.49ZM78.688,17H75.718V7.49h2.971ZM75.542,5.029A1.334,1.334,0,0,1,76,3.986a1.934,1.934,0,0,1,2.373,0,1.334,1.334,0,0,1,.457,1.043,1.334,1.334,0,0,1-.457,1.043,1.934,1.934,0,0,1-2.373,0A1.334,1.334,0,0,1,75.542,5.029Zm13.8,7.295a5.8,5.8,0,0,1-.967,3.595,3.238,3.238,0,0,1-2.725,1.257,2.81,2.81,0,0,1-2.338-1.151L83.188,17H80.534V3.5H83.5V8.255a2.711,2.711,0,0,1,2.136-.94,3.239,3.239,0,0,1,2.742,1.274,5.826,5.826,0,0,1,.967,3.586Zm-2.971-.189a3.866,3.866,0,0,0-.365-1.952A1.229,1.229,0,0,0,84.885,9.6a1.418,1.418,0,0,0-1.389.763v3.773a1.426,1.426,0,0,0,1.406.755,1.258,1.258,0,0,0,1.327-1.018A7.309,7.309,0,0,0,86.37,12.135ZM93.771,17H90.8V7.49h2.971ZM90.624,5.029a1.334,1.334,0,0,1,.457-1.043,1.934,1.934,0,0,1,2.373,0,1.334,1.334,0,0,1,.457,1.043,1.334,1.334,0,0,1-.457,1.043,1.934,1.934,0,0,1-2.373,0A1.334,1.334,0,0,1,90.624,5.029ZM98.719,17H95.748V3.5h2.971Zm4.948,0H100.7V7.49h2.971ZM100.521,5.029a1.334,1.334,0,0,1,.457-1.043,1.934,1.934,0,0,1,2.373,0,1.334,1.334,0,0,1,.457,1.043,1.334,1.334,0,0,1-.457,1.043,1.934,1.934,0,0,1-2.373,0A1.334,1.334,0,0,1,100.521,5.029Zm4.6,7.146a5.809,5.809,0,0,1,.976-3.56,3.211,3.211,0,0,1,2.725-1.3,2.731,2.731,0,0,1,2.145,1V3.5h2.971V17H111.27l-.149-1.02a2.8,2.8,0,0,1-2.32,1.2,3.205,3.205,0,0,1-2.689-1.3A5.993,5.993,0,0,1,105.117,12.175Zm2.962.185q0,2.531,1.477,2.531a1.458,1.458,0,0,0,1.406-.826V10.443a1.419,1.419,0,0,0-1.389-.844q-1.371,0-1.485,2.215ZM120.973,17a3.344,3.344,0,0,1-.281-.853,2.754,2.754,0,0,1-2.285,1.028,3.374,3.374,0,0,1-2.285-.813,2.588,2.588,0,0,1-.94-2.043,2.66,2.66,0,0,1,1.143-2.338,5.821,5.821,0,0,1,3.322-.791h.914v-.5q0-1.316-1.134-1.316a.927.927,0,0,0-1.055,1.042h-2.962a2.655,2.655,0,0,1,1.173-2.239,4.931,4.931,0,0,1,2.993-.86,4.323,4.323,0,0,1,2.874.888,3.086,3.086,0,0,1,1.081,2.435v4.21a4.311,4.311,0,0,0,.4,2V17Zm-1.854-1.934a1.652,1.652,0,0,0,.918-.237,1.487,1.487,0,0,0,.523-.536V12.772H119.7q-1.547,0-1.547,1.389a.848.848,0,0,0,.272.655A.986.986,0,0,0,119.118,15.066Zm5.678-2.892a5.809,5.809,0,0,1,.976-3.56,3.211,3.211,0,0,1,2.725-1.3,2.731,2.731,0,0,1,2.145,1V3.5h2.971V17h-2.663l-.149-1.02a2.8,2.8,0,0,1-2.32,1.2,3.205,3.205,0,0,1-2.689-1.3A5.993,5.993,0,0,1,124.8,12.175Zm2.962.185q0,2.531,1.477,2.531a1.458,1.458,0,0,0,1.406-.826V10.443a1.419,1.419,0,0,0-1.389-.844q-1.371,0-1.485,2.215Z" transform="translate(260 3865)" fill="#fff"/>
    <path id="Trazado_701910" data-name="Trazado 701910" d="M19.5,0h183a19.5,19.5,0,0,1,0,39H19.5a19.5,19.5,0,0,1,0-39Z" transform="translate(226 3991)" fill="#112e4c"/>
    <path id="Trazado_701911" data-name="Trazado 701911" d="M49.438,12.474h-1.67V17H44.684V4.2H49.72a5.621,5.621,0,0,1,3.56,1.01,3.421,3.421,0,0,1,1.283,2.853,4.155,4.155,0,0,1-.541,2.213A3.837,3.837,0,0,1,52.33,11.7L55,16.868V17H51.7ZM47.769,10.1H49.72a1.751,1.751,0,0,0,1.323-.463,1.788,1.788,0,0,0,.444-1.291,1.809,1.809,0,0,0-.448-1.3,1.735,1.735,0,0,0-1.318-.471H47.769ZM61.646,17a3.344,3.344,0,0,1-.281-.853,2.754,2.754,0,0,1-2.285,1.028,3.374,3.374,0,0,1-2.285-.813,2.588,2.588,0,0,1-.94-2.043A2.66,2.66,0,0,1,57,11.981a5.821,5.821,0,0,1,3.322-.791h.914v-.5q0-1.316-1.134-1.316a.927.927,0,0,0-1.055,1.042H56.083a2.655,2.655,0,0,1,1.173-2.239,4.931,4.931,0,0,1,2.993-.86,4.323,4.323,0,0,1,2.874.888A3.086,3.086,0,0,1,64.2,10.637v4.21a4.311,4.311,0,0,0,.4,2V17Zm-1.854-1.934a1.652,1.652,0,0,0,.918-.237,1.487,1.487,0,0,0,.523-.536V12.772h-.861q-1.547,0-1.547,1.389a.848.848,0,0,0,.272.655A.986.986,0,0,0,59.792,15.066Zm14.88-2.751a5.735,5.735,0,0,1-1,3.538,3.2,3.2,0,0,1-2.694,1.323,2.742,2.742,0,0,1-2.153-.958v4.438H65.865V7.49h2.769l.088.879a2.742,2.742,0,0,1,2.241-1.055,3.224,3.224,0,0,1,2.733,1.3,5.805,5.805,0,0,1,.976,3.564Zm-2.962-.185q0-2.531-1.477-2.531a1.394,1.394,0,0,0-1.406.756V14.1a1.439,1.439,0,0,0,1.424.791q1.415,0,1.459-2.443ZM79.1,17H76.131V7.49H79.1ZM75.955,5.029a1.334,1.334,0,0,1,.457-1.043,1.934,1.934,0,0,1,2.373,0,1.334,1.334,0,0,1,.457,1.043,1.334,1.334,0,0,1-.457,1.043,1.934,1.934,0,0,1-2.373,0A1.334,1.334,0,0,1,75.955,5.029Zm4.6,7.146a5.809,5.809,0,0,1,.976-3.56,3.211,3.211,0,0,1,2.725-1.3,2.731,2.731,0,0,1,2.145,1V3.5h2.971V17H86.7l-.149-1.02a2.8,2.8,0,0,1-2.32,1.2,3.205,3.205,0,0,1-2.689-1.3A5.993,5.993,0,0,1,80.552,12.175Zm2.962.185q0,2.531,1.477,2.531a1.458,1.458,0,0,0,1.406-.826V10.443A1.419,1.419,0,0,0,85.008,9.6q-1.371,0-1.485,2.215Zm12.138,4.816a4.889,4.889,0,0,1-3.542-1.305,4.507,4.507,0,0,1-1.354-3.4v-.246A5.84,5.84,0,0,1,91.3,9.652a3.955,3.955,0,0,1,1.578-1.727,4.763,4.763,0,0,1,2.461-.611A4.117,4.117,0,0,1,98.5,8.558a4.887,4.887,0,0,1,1.16,3.467v1.151H93.771a2.135,2.135,0,0,0,.694,1.257,2.066,2.066,0,0,0,1.389.457,2.662,2.662,0,0,0,2.2-.984l1.354,1.6a3.784,3.784,0,0,1-1.569,1.217A5.3,5.3,0,0,1,95.651,17.176ZM95.317,9.6q-1.3,0-1.547,1.723h2.988v-.229a1.467,1.467,0,0,0-.36-1.1A1.434,1.434,0,0,0,95.317,9.6Zm9.026,5.115h4.333V17H100.6V15.348l4.219-5.572h-4.034V7.49h7.8v1.6Z" transform="translate(260 4000)" fill="#fff"/>
    <path id="Trazado_701912" data-name="Trazado 701912" d="M19.5,0h183a19.5,19.5,0,0,1,0,39H19.5a19.5,19.5,0,0,1,0-39Z" transform="translate(226 4118)" fill="#112e4c"/>
    <path id="Trazado_701913" data-name="Trazado 701913" d="M45.962,11.9H40.988V17H37.9V4.2h8.561V6.585H40.988V9.529h4.975ZM50.735,17H47.764V7.49h2.971ZM47.588,5.029a1.334,1.334,0,0,1,.457-1.043,1.934,1.934,0,0,1,2.373,0,1.334,1.334,0,0,1,.457,1.043,1.334,1.334,0,0,1-.457,1.043,1.934,1.934,0,0,1-2.373,0A1.334,1.334,0,0,1,47.588,5.029ZM57.916,17a3.344,3.344,0,0,1-.281-.853,2.754,2.754,0,0,1-2.285,1.028,3.374,3.374,0,0,1-2.285-.813,2.588,2.588,0,0,1-.94-2.043,2.66,2.66,0,0,1,1.143-2.338,5.821,5.821,0,0,1,3.322-.791H57.5v-.5q0-1.316-1.134-1.316a.927.927,0,0,0-1.055,1.042H52.352a2.655,2.655,0,0,1,1.173-2.239,4.931,4.931,0,0,1,2.993-.86,4.323,4.323,0,0,1,2.874.888,3.086,3.086,0,0,1,1.081,2.435v4.21a4.311,4.311,0,0,0,.4,2V17Zm-1.854-1.934a1.652,1.652,0,0,0,.918-.237,1.487,1.487,0,0,0,.523-.536V12.772h-.861q-1.547,0-1.547,1.389a.848.848,0,0,0,.272.655A.986.986,0,0,0,56.061,15.066Zm14.88-2.742a5.8,5.8,0,0,1-.967,3.595,3.238,3.238,0,0,1-2.725,1.257,2.81,2.81,0,0,1-2.338-1.151L64.789,17H62.134V3.5H65.1V8.255a2.711,2.711,0,0,1,2.136-.94,3.239,3.239,0,0,1,2.742,1.274,5.826,5.826,0,0,1,.967,3.586Zm-2.971-.189a3.866,3.866,0,0,0-.365-1.952A1.229,1.229,0,0,0,66.485,9.6a1.418,1.418,0,0,0-1.389.763v3.773a1.426,1.426,0,0,0,1.406.755,1.258,1.258,0,0,0,1.327-1.018A7.309,7.309,0,0,0,67.97,12.135ZM75.371,17H72.4V7.49h2.971ZM72.224,5.029a1.334,1.334,0,0,1,.457-1.043,1.934,1.934,0,0,1,2.373,0,1.334,1.334,0,0,1,.457,1.043,1.334,1.334,0,0,1-.457,1.043,1.934,1.934,0,0,1-2.373,0A1.334,1.334,0,0,1,72.224,5.029ZM80.319,17H77.348V3.5h2.971Zm4.948,0H82.3V7.49h2.971ZM82.121,5.029a1.334,1.334,0,0,1,.457-1.043,1.934,1.934,0,0,1,2.373,0,1.334,1.334,0,0,1,.457,1.043,1.334,1.334,0,0,1-.457,1.043,1.934,1.934,0,0,1-2.373,0A1.334,1.334,0,0,1,82.121,5.029Zm4.6,7.146a5.809,5.809,0,0,1,.976-3.56,3.211,3.211,0,0,1,2.725-1.3,2.731,2.731,0,0,1,2.145,1V3.5h2.971V17H92.87l-.149-1.02a2.8,2.8,0,0,1-2.32,1.2,3.205,3.205,0,0,1-2.689-1.3A5.993,5.993,0,0,1,86.717,12.175Zm2.962.185q0,2.531,1.477,2.531a1.458,1.458,0,0,0,1.406-.826V10.443A1.419,1.419,0,0,0,91.173,9.6q-1.371,0-1.485,2.215ZM102.573,17a3.344,3.344,0,0,1-.281-.853,2.754,2.754,0,0,1-2.285,1.028,3.374,3.374,0,0,1-2.285-.813,2.588,2.588,0,0,1-.94-2.043,2.66,2.66,0,0,1,1.143-2.338,5.821,5.821,0,0,1,3.322-.791h.914v-.5q0-1.316-1.134-1.316a.927.927,0,0,0-1.055,1.042H97.009a2.655,2.655,0,0,1,1.173-2.239,4.931,4.931,0,0,1,2.993-.86,4.323,4.323,0,0,1,2.874.888,3.086,3.086,0,0,1,1.081,2.435v4.21a4.311,4.311,0,0,0,.4,2V17Zm-1.854-1.934a1.652,1.652,0,0,0,.918-.237,1.487,1.487,0,0,0,.523-.536V12.772H101.3q-1.547,0-1.547,1.389a.848.848,0,0,0,.272.655A.986.986,0,0,0,100.718,15.066Zm5.678-2.892a5.809,5.809,0,0,1,.976-3.56,3.211,3.211,0,0,1,2.725-1.3,2.731,2.731,0,0,1,2.145,1V3.5h2.971V17h-2.663l-.149-1.02a2.8,2.8,0,0,1-2.32,1.2,3.205,3.205,0,0,1-2.689-1.3A5.993,5.993,0,0,1,106.4,12.175Zm2.962.185q0,2.531,1.477,2.531a1.458,1.458,0,0,0,1.406-.826V10.443a1.419,1.419,0,0,0-1.389-.844q-1.371,0-1.485,2.215Z" transform="translate(260 4127)" fill="#fff"/>
    <g id="Grupo_896210" data-name="Grupo 896210" transform="translate(459.332 3876.75)" opacity="0.5" style="mix-blend-mode: multiply;isolation: isolate">
      <g id="Grupo_896209" data-name="Grupo 896209" transform="translate(0)">
        <g id="Grupo_896208" data-name="Grupo 896208" clip-path="url(#clip-path)">
          <path id="Trazado_693630" data-name="Trazado 693630" d="M180.489,72.165a5.912,5.912,0,1,1-5.912-5.912,5.912,5.912,0,0,1,5.912,5.912" transform="translate(-168.665 -66.253)" fill="#939393"/>
        </g>
      </g>
    </g>
    <path id="Trazado_693631" data-name="Trazado 693631" d="M177.489,68.165a5.912,5.912,0,1,1-5.912-5.912,5.912,5.912,0,0,1,5.912,5.912" transform="translate(296.667 3810.497)" fill="#fda544"/>
    <path id="Trazado_696473" data-name="Trazado 696473" d="M0,0H21.682V76.459H246.089" transform="translate(468.465 3878.663)" fill="none" stroke="#150d36" stroke-width="2"/>
    <g id="Grupo_896210-2" data-name="Grupo 896210" transform="translate(462.389 4133.176)" opacity="0.5" style="mix-blend-mode: multiply;isolation: isolate">
      <g id="Grupo_896209-2" data-name="Grupo 896209" transform="translate(0)">
        <g id="Grupo_896208-2" data-name="Grupo 896208" clip-path="url(#clip-path)">
          <path id="Trazado_693630-2" data-name="Trazado 693630" d="M180.489,72.165a5.912,5.912,0,1,0-5.912,5.912,5.912,5.912,0,0,0,5.912-5.912" transform="translate(-168.665 -66.253)" fill="#939393"/>
        </g>
      </g>
    </g>
    <path id="Trazado_693631-2" data-name="Trazado 693631" d="M177.489,68.165a5.912,5.912,0,1,0-5.912,5.912,5.912,5.912,0,0,0,5.912-5.912" transform="translate(299.725 4074.924)" fill="#fda544"/>
    <path id="Trazado_696473-2" data-name="Trazado 696473" d="M0,102.434H21.682V0H166.089" transform="translate(471.522 4040.654)" fill="none" stroke="#150d36" stroke-width="2"/>
    <g id="Grupo_896210-3" data-name="Grupo 896210" transform="translate(459.332 4004.916)" opacity="0.5" style="mix-blend-mode: multiply;isolation: isolate">
      <g id="Grupo_896209-3" data-name="Grupo 896209">
        <g id="Grupo_896208-3" data-name="Grupo 896208" clip-path="url(#clip-path)">
          <path id="Trazado_693630-3" data-name="Trazado 693630" d="M180.489,72.165a5.912,5.912,0,1,0-5.912,5.912,5.912,5.912,0,0,0,5.912-5.912" transform="translate(-168.665 -66.253)" fill="#939393"/>
        </g>
      </g>
    </g>
    <path id="Trazado_693631-3" data-name="Trazado 693631" d="M177.489,68.165a5.912,5.912,0,1,0-5.912,5.912,5.912,5.912,0,0,0,5.912-5.912" transform="translate(296.667 3946.664)" fill="#fda544"/>
    <path id="Trazado_696473-3" data-name="Trazado 696473" d="M0,31.053H21.682V0H196.089" transform="translate(468.465 3983.775)" fill="none" stroke="#150d36" stroke-width="2"/>
    <path id="Trazado_701914" data-name="Trazado 701914" d="M19.5,0h183a19.5,19.5,0,0,1,0,39H19.5a19.5,19.5,0,0,1,0-39Z" transform="translate(1198 3856)" fill="#112e4c"/>
    <path id="Trazado_701915" data-name="Trazado 701915" d="M64.239,12.667a4.673,4.673,0,0,1-.721,2.36,4.35,4.35,0,0,1-1.85,1.586,6.3,6.3,0,0,1-2.72.563,5.025,5.025,0,0,1-3.973-1.644,6.786,6.786,0,0,1-1.45-4.641v-.633a7.746,7.746,0,0,1,.655-3.292,4.961,4.961,0,0,1,1.885-2.18,5.26,5.26,0,0,1,2.848-.769,5.516,5.516,0,0,1,3.744,1.226,4.844,4.844,0,0,1,1.608,3.379H61.189A2.292,2.292,0,0,0,60.6,6.945a2.422,2.422,0,0,0-1.687-.51,1.843,1.843,0,0,0-1.687.861,5.536,5.536,0,0,0-.562,2.751v.905a6.126,6.126,0,0,0,.514,2.927,1.882,1.882,0,0,0,1.771.879,2.369,2.369,0,0,0,1.626-.5,2.126,2.126,0,0,0,.6-1.591Zm.949-.51a5.613,5.613,0,0,1,.554-2.536,3.96,3.96,0,0,1,1.591-1.709,4.791,4.791,0,0,1,2.435-.6,4.373,4.373,0,0,1,3.366,1.323,5.076,5.076,0,0,1,1.23,3.6v.105a4.925,4.925,0,0,1-1.235,3.529,4.384,4.384,0,0,1-3.344,1.305,4.434,4.434,0,0,1-3.261-1.217,4.761,4.761,0,0,1-1.327-3.3Zm2.962.185a3.538,3.538,0,0,0,.413,1.934,1.376,1.376,0,0,0,1.222.615q1.582,0,1.617-2.435v-.3Q71.4,9.6,69.768,9.6q-1.485,0-1.608,2.206Zm12.5,1.986a.684.684,0,0,0-.4-.606,6.016,6.016,0,0,0-1.5-.475,6.853,6.853,0,0,1-1.828-.646,3.062,3.062,0,0,1-1.1-.971,2.319,2.319,0,0,1-.378-1.31,2.628,2.628,0,0,1,1.081-2.158,4.453,4.453,0,0,1,2.83-.848,4.934,4.934,0,0,1,3.023.853,2.666,2.666,0,0,1,1.143,2.241H80.552q0-1.143-1.2-1.143a1.194,1.194,0,0,0-.782.259.8.8,0,0,0-.316.646.737.737,0,0,0,.387.642,3.654,3.654,0,0,0,1.235.4,10.671,10.671,0,0,1,1.49.378A2.706,2.706,0,0,1,83.5,14.24a2.491,2.491,0,0,1-1.156,2.118,5.068,5.068,0,0,1-2.993.817,5.172,5.172,0,0,1-2.18-.439,3.645,3.645,0,0,1-1.494-1.2,2.707,2.707,0,0,1-.536-1.591h2.769a1.145,1.145,0,0,0,.439.962,1.808,1.808,0,0,0,1.081.3,1.422,1.422,0,0,0,.91-.246A.787.787,0,0,0,80.648,14.328Zm7.69-9.2V7.49H89.9V9.547H88.339V13.9a1.111,1.111,0,0,0,.193.747,1.037,1.037,0,0,0,.765.211,4.345,4.345,0,0,0,.738-.053v2.118a5.466,5.466,0,0,1-1.67.255,3.1,3.1,0,0,1-2.259-.721,2.954,2.954,0,0,1-.729-2.188V9.547H84.164V7.49h1.213V5.126Zm2.092,7.031a5.613,5.613,0,0,1,.554-2.536,3.96,3.96,0,0,1,1.591-1.709,4.791,4.791,0,0,1,2.435-.6,4.373,4.373,0,0,1,3.366,1.323,5.076,5.076,0,0,1,1.23,3.6v.105a4.925,4.925,0,0,1-1.235,3.529,4.384,4.384,0,0,1-3.344,1.305,4.434,4.434,0,0,1-3.261-1.217,4.761,4.761,0,0,1-1.327-3.3Zm2.962.185a3.538,3.538,0,0,0,.413,1.934,1.376,1.376,0,0,0,1.222.615q1.582,0,1.617-2.435v-.3q0-2.558-1.635-2.558-1.485,0-1.608,2.206Z" transform="translate(1233 3865)" fill="#fff"/>
    <path id="Trazado_701916" data-name="Trazado 701916" d="M19.5,0h183a19.5,19.5,0,0,1,0,39H19.5a19.5,19.5,0,0,1,0-39Z" transform="translate(1198 3991)" fill="#112e4c"/>
    <path id="Trazado_701917" data-name="Trazado 701917" d="M50.717,13.6a1.268,1.268,0,0,0-.479-1.055,5.954,5.954,0,0,0-1.683-.782,16.147,16.147,0,0,1-1.969-.782Q44.1,9.758,44.1,7.622a3.011,3.011,0,0,1,.62-1.876A4.008,4.008,0,0,1,46.472,4.48a6.823,6.823,0,0,1,2.549-.453A5.969,5.969,0,0,1,51.5,4.52a3.917,3.917,0,0,1,1.7,1.4A3.661,3.661,0,0,1,53.8,8H50.726a1.547,1.547,0,0,0-.479-1.213,1.867,1.867,0,0,0-1.3-.431,2.106,2.106,0,0,0-1.305.365,1.074,1.074,0,0,0,.048,1.819,6.65,6.65,0,0,0,1.854.826,11.36,11.36,0,0,1,2.18.918,3.663,3.663,0,0,1,2.074,3.3,3.125,3.125,0,0,1-1.266,2.637,5.629,5.629,0,0,1-3.472.958,6.888,6.888,0,0,1-2.817-.558,4.247,4.247,0,0,1-1.9-1.529,3.985,3.985,0,0,1-.637-2.237h3.094a1.963,1.963,0,0,0,.532,1.516,2.513,2.513,0,0,0,1.727.488,1.985,1.985,0,0,0,1.208-.33A1.088,1.088,0,0,0,50.717,13.6Zm9.132,3.577a4.889,4.889,0,0,1-3.542-1.305,4.507,4.507,0,0,1-1.354-3.4v-.246a5.84,5.84,0,0,1,.541-2.575,3.955,3.955,0,0,1,1.578-1.727,4.763,4.763,0,0,1,2.461-.611A4.117,4.117,0,0,1,62.7,8.558a4.887,4.887,0,0,1,1.16,3.467v1.151H57.968a2.135,2.135,0,0,0,.694,1.257,2.066,2.066,0,0,0,1.389.457,2.662,2.662,0,0,0,2.2-.984l1.354,1.6a3.784,3.784,0,0,1-1.569,1.217A5.3,5.3,0,0,1,59.849,17.176ZM59.515,9.6q-1.3,0-1.547,1.723h2.988v-.229a1.467,1.467,0,0,0-.36-1.1A1.434,1.434,0,0,0,59.515,9.6Zm11.285.571-.976-.07a1.752,1.752,0,0,0-1.793.879V17H65.07V7.49h2.777l.1,1.222a2.294,2.294,0,0,1,2.083-1.4,2.888,2.888,0,0,1,.826.105Zm5.019,3.3,1.5-5.985h3.12L77.339,17H74.316l-3.1-9.51h3.129ZM84.45,17H81.479V7.49H84.45ZM81.3,5.029a1.334,1.334,0,0,1,.457-1.043,1.934,1.934,0,0,1,2.373,0,1.334,1.334,0,0,1,.457,1.043,1.334,1.334,0,0,1-.457,1.043,1.934,1.934,0,0,1-2.373,0A1.334,1.334,0,0,1,81.3,5.029Zm8.991,9.861a1.317,1.317,0,0,0,.967-.338,1.241,1.241,0,0,0,.334-.945h2.777a3.288,3.288,0,0,1-1.121,2.566,4.168,4.168,0,0,1-2.887,1,4.22,4.22,0,0,1-3.27-1.3,5.125,5.125,0,0,1-1.2-3.6v-.123A5.792,5.792,0,0,1,86.432,9.6a3.872,3.872,0,0,1,1.534-1.7,4.573,4.573,0,0,1,2.373-.593,4.116,4.116,0,0,1,2.944,1.028,3.647,3.647,0,0,1,1.09,2.786H91.6A1.626,1.626,0,0,0,91.235,10a1.244,1.244,0,0,0-.967-.4q-1.151,0-1.345,1.468a10.357,10.357,0,0,0-.062,1.283,4.068,4.068,0,0,0,.343,1.986A1.187,1.187,0,0,0,90.294,14.891ZM98.75,17H95.779V7.49H98.75ZM95.6,5.029a1.334,1.334,0,0,1,.457-1.043,1.934,1.934,0,0,1,2.373,0,1.334,1.334,0,0,1,.457,1.043,1.334,1.334,0,0,1-.457,1.043,1.934,1.934,0,0,1-2.373,0A1.334,1.334,0,0,1,95.6,5.029Zm4.6,7.128a5.613,5.613,0,0,1,.554-2.536,3.96,3.96,0,0,1,1.591-1.709,4.791,4.791,0,0,1,2.435-.6,4.373,4.373,0,0,1,3.366,1.323,5.076,5.076,0,0,1,1.23,3.6v.105a4.925,4.925,0,0,1-1.235,3.529,4.384,4.384,0,0,1-3.344,1.305,4.434,4.434,0,0,1-3.261-1.217,4.761,4.761,0,0,1-1.327-3.3Zm2.962.185a3.538,3.538,0,0,0,.413,1.934,1.376,1.376,0,0,0,1.222.615q1.582,0,1.617-2.435v-.3q0-2.558-1.635-2.558-1.485,0-1.608,2.206Z" transform="translate(1233 4000)" fill="#fff"/>
    <path id="Trazado_701918" data-name="Trazado 701918" d="M19.5,0h183a19.5,19.5,0,0,1,0,39H19.5a19.5,19.5,0,0,1,0-39Z" transform="translate(1198 4118)" fill="#112e4c"/>
    <path id="Trazado_701919" data-name="Trazado 701919" d="M57.287,12.667a4.673,4.673,0,0,1-.721,2.36,4.35,4.35,0,0,1-1.85,1.586,6.3,6.3,0,0,1-2.72.563,5.025,5.025,0,0,1-3.973-1.644,6.786,6.786,0,0,1-1.45-4.641v-.633a7.746,7.746,0,0,1,.655-3.292,4.961,4.961,0,0,1,1.885-2.18,5.26,5.26,0,0,1,2.848-.769,5.516,5.516,0,0,1,3.744,1.226,4.844,4.844,0,0,1,1.608,3.379H54.237a2.292,2.292,0,0,0-.589-1.679,2.422,2.422,0,0,0-1.687-.51,1.843,1.843,0,0,0-1.687.861,5.536,5.536,0,0,0-.562,2.751v.905a6.126,6.126,0,0,0,.514,2.927A1.882,1.882,0,0,0,52,14.759a2.369,2.369,0,0,0,1.626-.5,2.126,2.126,0,0,0,.6-1.591ZM63.967,17a3.344,3.344,0,0,1-.281-.853A2.754,2.754,0,0,1,61.4,17.176a3.374,3.374,0,0,1-2.285-.813,2.588,2.588,0,0,1-.94-2.043,2.66,2.66,0,0,1,1.143-2.338,5.821,5.821,0,0,1,3.322-.791h.914v-.5q0-1.316-1.134-1.316a.927.927,0,0,0-1.055,1.042H58.4a2.655,2.655,0,0,1,1.173-2.239,4.931,4.931,0,0,1,2.993-.86,4.323,4.323,0,0,1,2.874.888,3.086,3.086,0,0,1,1.081,2.435v4.21a4.311,4.311,0,0,0,.4,2V17Zm-1.854-1.934a1.652,1.652,0,0,0,.918-.237,1.487,1.487,0,0,0,.523-.536V12.772h-.861q-1.547,0-1.547,1.389a.848.848,0,0,0,.272.655A.986.986,0,0,0,62.112,15.066ZM71.288,17H68.317V3.5h2.971Zm4.948,0H73.266V7.49h2.971ZM73.09,5.029a1.334,1.334,0,0,1,.457-1.043,1.934,1.934,0,0,1,2.373,0,1.334,1.334,0,0,1,.457,1.043,1.334,1.334,0,0,1-.457,1.043,1.934,1.934,0,0,1-2.373,0A1.334,1.334,0,0,1,73.09,5.029Zm4.6,7.146a5.809,5.809,0,0,1,.976-3.56,3.211,3.211,0,0,1,2.725-1.3,2.731,2.731,0,0,1,2.145,1V3.5H86.5V17H83.839l-.149-1.02a2.8,2.8,0,0,1-2.32,1.2,3.205,3.205,0,0,1-2.689-1.3A5.993,5.993,0,0,1,77.687,12.175Zm2.962.185q0,2.531,1.477,2.531a1.458,1.458,0,0,0,1.406-.826V10.443A1.419,1.419,0,0,0,82.143,9.6q-1.371,0-1.485,2.215ZM93.542,17a3.344,3.344,0,0,1-.281-.853,2.754,2.754,0,0,1-2.285,1.028,3.374,3.374,0,0,1-2.285-.813,2.588,2.588,0,0,1-.94-2.043,2.66,2.66,0,0,1,1.143-2.338,5.821,5.821,0,0,1,3.322-.791h.914v-.5q0-1.316-1.134-1.316a.927.927,0,0,0-1.055,1.042H87.979a2.655,2.655,0,0,1,1.173-2.239,4.931,4.931,0,0,1,2.993-.86,4.323,4.323,0,0,1,2.874.888A3.086,3.086,0,0,1,96.1,10.637v4.21a4.311,4.311,0,0,0,.4,2V17Zm-1.854-1.934a1.652,1.652,0,0,0,.918-.237,1.487,1.487,0,0,0,.523-.536V12.772h-.861q-1.547,0-1.547,1.389a.848.848,0,0,0,.272.655A.986.986,0,0,0,91.688,15.066Zm5.678-2.892a5.809,5.809,0,0,1,.976-3.56,3.211,3.211,0,0,1,2.725-1.3,2.731,2.731,0,0,1,2.145,1V3.5h2.971V17h-2.663l-.149-1.02a2.8,2.8,0,0,1-2.32,1.2,3.205,3.205,0,0,1-2.689-1.3A5.993,5.993,0,0,1,97.365,12.175Zm2.962.185q0,2.531,1.477,2.531a1.458,1.458,0,0,0,1.406-.826V10.443a1.419,1.419,0,0,0-1.389-.844q-1.371,0-1.485,2.215Z" transform="translate(1233 4127)" fill="#fff"/>
    <g id="Grupo_896210-4" data-name="Grupo 896210" transform="translate(1174.844 3876.75)" opacity="0.5" style="mix-blend-mode: multiply;isolation: isolate">
      <g id="Grupo_896209-4" data-name="Grupo 896209" transform="translate(0)">
        <g id="Grupo_896208-4" data-name="Grupo 896208" clip-path="url(#clip-path)">
          <path id="Trazado_693630-4" data-name="Trazado 693630" d="M168.665,72.165a5.912,5.912,0,1,0,5.912-5.912,5.912,5.912,0,0,0-5.912,5.912" transform="translate(-168.665 -66.253)" fill="#939393"/>
        </g>
      </g>
    </g>
    <path id="Trazado_693631-4" data-name="Trazado 693631" d="M165.665,68.165a5.912,5.912,0,1,0,5.912-5.912,5.912,5.912,0,0,0-5.912,5.912" transform="translate(1006.179 3810.497)" fill="#fda544"/>
    <path id="Trazado_696473-4" data-name="Trazado 696473" d="M246.089,0H224.407V76.459H0" transform="translate(931.446 3878.663)" fill="none" stroke="#150d36" stroke-width="2"/>
    <g id="Grupo_896210-5" data-name="Grupo 896210" transform="translate(1171.787 4133.176)" opacity="0.5" style="mix-blend-mode: multiply;isolation: isolate">
      <g id="Grupo_896209-5" data-name="Grupo 896209" transform="translate(0)">
        <g id="Grupo_896208-5" data-name="Grupo 896208" clip-path="url(#clip-path)">
          <path id="Trazado_693630-5" data-name="Trazado 693630" d="M168.665,72.165a5.912,5.912,0,1,1,5.912,5.912,5.912,5.912,0,0,1-5.912-5.912" transform="translate(-168.665 -66.253)" fill="#939393"/>
        </g>
      </g>
    </g>
    <path id="Trazado_693631-5" data-name="Trazado 693631" d="M165.665,68.165a5.912,5.912,0,1,1,5.912,5.912,5.912,5.912,0,0,1-5.912-5.912" transform="translate(1003.122 4074.924)" fill="#fda544"/>
    <path id="Trazado_696473-5" data-name="Trazado 696473" d="M166.089,102.434H144.407V0H0" transform="translate(1008.389 4040.654)" fill="none" stroke="#150d36" stroke-width="2"/>
    <g id="Grupo_896210-6" data-name="Grupo 896210" transform="translate(1174.844 4004.916)" opacity="0.5" style="mix-blend-mode: multiply;isolation: isolate">
      <g id="Grupo_896209-6" data-name="Grupo 896209">
        <g id="Grupo_896208-6" data-name="Grupo 896208" clip-path="url(#clip-path)">
          <path id="Trazado_693630-6" data-name="Trazado 693630" d="M168.665,72.165a5.912,5.912,0,1,1,5.912,5.912,5.912,5.912,0,0,1-5.912-5.912" transform="translate(-168.665 -66.253)" fill="#939393"/>
        </g>
      </g>
    </g>
    <path id="Trazado_693631-6" data-name="Trazado 693631" d="M165.665,68.165a5.912,5.912,0,1,1,5.912,5.912,5.912,5.912,0,0,1-5.912-5.912" transform="translate(1006.179 3946.664)" fill="#fda544"/>
    <path id="Trazado_696473-6" data-name="Trazado 696473" d="M196.089,31.053H174.407V0H0" transform="translate(981.446 3983.775)" fill="none" stroke="#150d36" stroke-width="2"/>
    <g id="Grupo_951798" data-name="Grupo 951798" transform="translate(587.774 3822.216)">
      <g id="Grupo_80327" data-name="Grupo 80327" transform="translate(0 0)" clip-path="url(#clip-path-8)">
        <path id="Trazado_113636" data-name="Trazado 113636" d="M255.313,276.675A127.657,127.657,0,1,1,127.657,149.018,127.657,127.657,0,0,1,255.313,276.675" transform="translate(0 -112.822)" fill="#fcc419"/>
        <path id="Sustracción_2" data-name="Sustracción 2" d="M92.5,185a93.256,93.256,0,0,1-18.642-1.879A92,92,0,0,1,40.782,169.2a92.754,92.754,0,0,1-33.513-40.7,91.948,91.948,0,0,1-5.39-17.362,93.408,93.408,0,0,1,0-37.285A92.009,92.009,0,0,1,15.8,40.783a92.756,92.756,0,0,1,40.7-33.513,92.027,92.027,0,0,1,17.363-5.39,93.406,93.406,0,0,1,37.284,0A92.007,92.007,0,0,1,144.218,15.8a92.766,92.766,0,0,1,33.513,40.7,91.987,91.987,0,0,1,5.39,17.363,93.408,93.408,0,0,1,0,37.285A92.028,92.028,0,0,1,169.2,144.22a92.78,92.78,0,0,1-40.7,33.513,92.067,92.067,0,0,1-17.364,5.39A93.259,93.259,0,0,1,92.5,185Zm0-166.763A74.262,74.262,0,1,0,166.761,92.5,74.345,74.345,0,0,0,92.5,18.24Z" transform="translate(240.046 106.507)" fill="#ffa031" stroke="rgba(0,0,0,0)" stroke-miterlimit="10" stroke-width="1"/>
        <path id="Trazado_113639" data-name="Trazado 113639" d="M641.543,678.6A45.139,45.139,0,1,1,596.4,633.464,45.139,45.139,0,0,1,641.543,678.6" transform="translate(-417.361 -479.594)" fill="#fff"/>
        <path id="Trazado_113640" data-name="Trazado 113640" d="M1472.63,264.495a2.853,2.853,0,1,1-2.853-2.853,2.852,2.852,0,0,1,2.853,2.853" transform="translate(-1110.604 -198.089)" fill="#f9e8dc"/>
        <path id="Trazado_113641" data-name="Trazado 113641" d="M1524.3,264.495a2.853,2.853,0,1,1-2.853-2.853,2.853,2.853,0,0,1,2.853,2.853" transform="translate(-1149.727 -198.089)" fill="#f9e8dc"/>
        <path id="Trazado_113642" data-name="Trazado 113642" d="M1575.98,264.495a2.853,2.853,0,1,1-2.853-2.853,2.853,2.853,0,0,1,2.853,2.853" transform="translate(-1188.85 -198.089)" fill="#f9e8dc"/>
        <path id="Trazado_113643" data-name="Trazado 113643" d="M1627.655,264.495a2.853,2.853,0,1,1-2.853-2.853,2.853,2.853,0,0,1,2.853,2.853" transform="translate(-1227.973 -198.089)" fill="#f9e8dc"/>
        <path id="Trazado_113644" data-name="Trazado 113644" d="M1679.33,264.495a2.853,2.853,0,1,1-2.853-2.853,2.853,2.853,0,0,1,2.853,2.853" transform="translate(-1267.096 -198.089)" fill="#f9e8dc"/>
        <path id="Trazado_113645" data-name="Trazado 113645" d="M1472.63,313.821a2.853,2.853,0,1,1-2.853-2.853,2.853,2.853,0,0,1,2.853,2.853" transform="translate(-1110.604 -235.433)" fill="#f9e8dc"/>
        <path id="Trazado_113646" data-name="Trazado 113646" d="M1524.3,313.821a2.853,2.853,0,1,1-2.853-2.853,2.853,2.853,0,0,1,2.853,2.853" transform="translate(-1149.727 -235.433)" fill="#f9e8dc"/>
        <path id="Trazado_113647" data-name="Trazado 113647" d="M1575.98,313.821a2.853,2.853,0,1,1-2.853-2.853,2.853,2.853,0,0,1,2.853,2.853" transform="translate(-1188.85 -235.433)" fill="#f9e8dc"/>
        <path id="Trazado_113648" data-name="Trazado 113648" d="M1627.655,313.821a2.853,2.853,0,1,1-2.853-2.853,2.853,2.853,0,0,1,2.853,2.853" transform="translate(-1227.973 -235.433)" fill="#f9e8dc"/>
        <path id="Trazado_113649" data-name="Trazado 113649" d="M1679.33,313.821a2.853,2.853,0,1,1-2.853-2.853,2.853,2.853,0,0,1,2.853,2.853" transform="translate(-1267.096 -235.433)" fill="#f9e8dc"/>
        <path id="Trazado_113650" data-name="Trazado 113650" d="M1472.63,363.147a2.853,2.853,0,1,1-2.853-2.853,2.852,2.852,0,0,1,2.853,2.853" transform="translate(-1110.604 -272.778)" fill="#f9e8dc"/>
        <path id="Trazado_113651" data-name="Trazado 113651" d="M1524.3,363.147a2.853,2.853,0,1,1-2.853-2.853,2.853,2.853,0,0,1,2.853,2.853" transform="translate(-1149.727 -272.778)" fill="#f9e8dc"/>
        <path id="Trazado_113652" data-name="Trazado 113652" d="M1575.98,363.147a2.853,2.853,0,1,1-2.853-2.853,2.853,2.853,0,0,1,2.853,2.853" transform="translate(-1188.85 -272.778)" fill="#f9e8dc"/>
        <path id="Trazado_113653" data-name="Trazado 113653" d="M1627.655,363.147a2.853,2.853,0,1,1-2.853-2.853,2.853,2.853,0,0,1,2.853,2.853" transform="translate(-1227.973 -272.778)" fill="#f9e8dc"/>
        <path id="Trazado_113654" data-name="Trazado 113654" d="M1679.33,363.147a2.853,2.853,0,1,1-2.853-2.853,2.853,2.853,0,0,1,2.853,2.853" transform="translate(-1267.096 -272.778)" fill="#f9e8dc"/>
        <path id="Trazado_113655" data-name="Trazado 113655" d="M1472.63,412.474a2.853,2.853,0,1,1-2.853-2.853,2.852,2.852,0,0,1,2.853,2.853" transform="translate(-1110.604 -310.123)" fill="#f9e8dc"/>
        <path id="Trazado_113656" data-name="Trazado 113656" d="M1524.3,412.474a2.853,2.853,0,1,1-2.853-2.853,2.853,2.853,0,0,1,2.853,2.853" transform="translate(-1149.727 -310.123)" fill="#f9e8dc"/>
        <path id="Trazado_113657" data-name="Trazado 113657" d="M1575.98,412.474a2.853,2.853,0,1,1-2.853-2.853,2.853,2.853,0,0,1,2.853,2.853" transform="translate(-1188.85 -310.123)" fill="#f9e8dc"/>
        <path id="Trazado_113658" data-name="Trazado 113658" d="M1627.655,412.474a2.853,2.853,0,1,1-2.853-2.853,2.853,2.853,0,0,1,2.853,2.853" transform="translate(-1227.973 -310.123)" fill="#f9e8dc"/>
        <path id="Trazado_113659" data-name="Trazado 113659" d="M1679.33,412.474a2.853,2.853,0,1,1-2.853-2.853,2.853,2.853,0,0,1,2.853,2.853" transform="translate(-1267.096 -310.123)" fill="#f9e8dc"/>
        <path id="Trazado_113660" data-name="Trazado 113660" d="M1472.63,461.8a2.853,2.853,0,1,1-2.853-2.853,2.852,2.852,0,0,1,2.853,2.853" transform="translate(-1110.604 -347.468)" fill="#f9e8dc"/>
        <path id="Trazado_113661" data-name="Trazado 113661" d="M1524.3,461.8a2.853,2.853,0,1,1-2.853-2.853,2.853,2.853,0,0,1,2.853,2.853" transform="translate(-1149.727 -347.468)" fill="#f9e8dc"/>
        <path id="Trazado_113662" data-name="Trazado 113662" d="M1575.98,461.8a2.853,2.853,0,1,1-2.853-2.853,2.853,2.853,0,0,1,2.853,2.853" transform="translate(-1188.85 -347.468)" fill="#f9e8dc"/>
        <path id="Trazado_113663" data-name="Trazado 113663" d="M1627.655,461.8a2.853,2.853,0,1,1-2.853-2.853,2.853,2.853,0,0,1,2.853,2.853" transform="translate(-1227.973 -347.468)" fill="#f9e8dc"/>
        <path id="Trazado_113664" data-name="Trazado 113664" d="M1679.33,461.8a2.853,2.853,0,1,1-2.853-2.853,2.853,2.853,0,0,1,2.853,2.853" transform="translate(-1267.096 -347.468)" fill="#f9e8dc"/>
        <path id="Trazado_113665" data-name="Trazado 113665" d="M129.182,380.981a2.853,2.853,0,1,1-2.853-2.853,2.853,2.853,0,0,1,2.853,2.853" transform="translate(-93.483 -286.28)" fill="#fff"/>
        <path id="Trazado_113666" data-name="Trazado 113666" d="M180.857,380.981A2.853,2.853,0,1,1,178,378.128a2.853,2.853,0,0,1,2.853,2.853" transform="translate(-132.606 -286.28)" fill="#fff"/>
        <path id="Trazado_113667" data-name="Trazado 113667" d="M232.532,380.981a2.853,2.853,0,1,1-2.853-2.853,2.853,2.853,0,0,1,2.853,2.853" transform="translate(-171.729 -286.28)" fill="#fff"/>
        <path id="Trazado_113668" data-name="Trazado 113668" d="M284.207,380.981a2.853,2.853,0,1,1-2.853-2.853,2.853,2.853,0,0,1,2.853,2.853" transform="translate(-210.852 -286.28)" fill="#fff"/>
        <path id="Trazado_113669" data-name="Trazado 113669" d="M335.882,380.981a2.853,2.853,0,1,1-2.853-2.853,2.853,2.853,0,0,1,2.853,2.853" transform="translate(-249.975 -286.28)" fill="#fff"/>
        <path id="Trazado_113670" data-name="Trazado 113670" d="M129.182,430.307a2.853,2.853,0,1,1-2.853-2.853,2.853,2.853,0,0,1,2.853,2.853" transform="translate(-93.483 -323.625)" fill="#fff"/>
        <path id="Trazado_113671" data-name="Trazado 113671" d="M180.857,430.307A2.853,2.853,0,1,1,178,427.454a2.853,2.853,0,0,1,2.853,2.853" transform="translate(-132.606 -323.625)" fill="#fff"/>
        <path id="Trazado_113672" data-name="Trazado 113672" d="M232.532,430.307a2.853,2.853,0,1,1-2.853-2.853,2.853,2.853,0,0,1,2.853,2.853" transform="translate(-171.729 -323.625)" fill="#fff"/>
        <path id="Trazado_113673" data-name="Trazado 113673" d="M284.207,430.307a2.853,2.853,0,1,1-2.853-2.853,2.853,2.853,0,0,1,2.853,2.853" transform="translate(-210.852 -323.625)" fill="#fff"/>
        <path id="Trazado_113674" data-name="Trazado 113674" d="M335.882,430.307a2.853,2.853,0,1,1-2.853-2.853,2.853,2.853,0,0,1,2.853,2.853" transform="translate(-249.975 -323.625)" fill="#fff"/>
        <path id="Trazado_113675" data-name="Trazado 113675" d="M129.182,479.633a2.853,2.853,0,1,1-2.853-2.852,2.853,2.853,0,0,1,2.853,2.852" transform="translate(-93.483 -360.97)" fill="#fff"/>
        <path id="Trazado_113676" data-name="Trazado 113676" d="M180.857,479.633A2.853,2.853,0,1,1,178,476.781a2.853,2.853,0,0,1,2.853,2.852" transform="translate(-132.606 -360.97)" fill="#fff"/>
        <path id="Trazado_113677" data-name="Trazado 113677" d="M232.532,479.633a2.853,2.853,0,1,1-2.853-2.852,2.853,2.853,0,0,1,2.853,2.852" transform="translate(-171.729 -360.97)" fill="#fff"/>
        <path id="Trazado_113678" data-name="Trazado 113678" d="M284.207,479.633a2.853,2.853,0,1,1-2.853-2.852,2.853,2.853,0,0,1,2.853,2.852" transform="translate(-210.852 -360.97)" fill="#fff"/>
        <path id="Trazado_113679" data-name="Trazado 113679" d="M335.882,479.633a2.853,2.853,0,1,1-2.853-2.852,2.853,2.853,0,0,1,2.853,2.852" transform="translate(-249.975 -360.97)" fill="#fff"/>
        <path id="Trazado_113680" data-name="Trazado 113680" d="M129.182,528.96a2.853,2.853,0,1,1-2.853-2.853,2.853,2.853,0,0,1,2.853,2.853" transform="translate(-93.483 -398.315)" fill="#fff"/>
        <path id="Trazado_113681" data-name="Trazado 113681" d="M180.857,528.96A2.853,2.853,0,1,1,178,526.107a2.853,2.853,0,0,1,2.853,2.853" transform="translate(-132.606 -398.315)" fill="#fff"/>
        <path id="Trazado_113682" data-name="Trazado 113682" d="M232.532,528.96a2.853,2.853,0,1,1-2.853-2.853,2.853,2.853,0,0,1,2.853,2.853" transform="translate(-171.729 -398.315)" fill="#fff"/>
        <path id="Trazado_113683" data-name="Trazado 113683" d="M284.207,528.96a2.853,2.853,0,1,1-2.853-2.853,2.853,2.853,0,0,1,2.853,2.853" transform="translate(-210.852 -398.315)" fill="#fff"/>
        <path id="Trazado_113684" data-name="Trazado 113684" d="M335.882,528.96a2.853,2.853,0,1,1-2.853-2.853,2.853,2.853,0,0,1,2.853,2.853" transform="translate(-249.975 -398.315)" fill="#fff"/>
        <path id="Trazado_113685" data-name="Trazado 113685" d="M129.182,578.286a2.853,2.853,0,1,1-2.853-2.853,2.853,2.853,0,0,1,2.853,2.853" transform="translate(-93.483 -435.659)" fill="#fff"/>
        <path id="Trazado_113686" data-name="Trazado 113686" d="M180.857,578.286A2.853,2.853,0,1,1,178,575.433a2.853,2.853,0,0,1,2.853,2.853" transform="translate(-132.606 -435.659)" fill="#fff"/>
        <path id="Trazado_113687" data-name="Trazado 113687" d="M232.532,578.286a2.853,2.853,0,1,1-2.853-2.853,2.853,2.853,0,0,1,2.853,2.853" transform="translate(-171.729 -435.659)" fill="#fff"/>
        <path id="Trazado_113688" data-name="Trazado 113688" d="M284.207,578.286a2.853,2.853,0,1,1-2.853-2.853,2.853,2.853,0,0,1,2.853,2.853" transform="translate(-210.852 -435.659)" fill="#fff"/>
        <path id="Trazado_113689" data-name="Trazado 113689" d="M335.882,578.286a2.853,2.853,0,1,1-2.853-2.853,2.853,2.853,0,0,1,2.853,2.853" transform="translate(-249.975 -435.659)" fill="#fff"/>
        <rect id="Rectángulo_33843" data-name="Rectángulo 33843" width="50.114" height="11.722" transform="translate(210.169 46.894)" fill="#f9e8dc"/>
        <rect id="Rectángulo_33844" data-name="Rectángulo 33844" width="50.632" height="21.536" transform="translate(23.515 15.92)" fill="#f9e8dc"/>
        <path id="Trazado_113690" data-name="Trazado 113690" d="M178.243,0h33.289a5.729,5.729,0,0,1,5.729,5.729V17.15a5.729,5.729,0,0,1-5.729,5.729H178.243a5.729,5.729,0,0,1-5.729-5.729V5.731A5.729,5.729,0,0,1,178.243,0" transform="translate(-130.61 -0.002)" fill="#eb9ba8"/>
        <path id="Trazado_113691" data-name="Trazado 113691" d="M211.238,38.418a2.783,2.783,0,1,1-2.783-2.783,2.783,2.783,0,0,1,2.783,2.783" transform="translate(-155.714 -26.98)" fill="#fff"/>
        <path id="Trazado_113692" data-name="Trazado 113692" d="M258.73,38.418a2.783,2.783,0,1,1-2.783-2.783,2.783,2.783,0,0,1,2.783,2.783" transform="translate(-191.671 -26.98)" fill="#fff"/>
        <path id="Trazado_113693" data-name="Trazado 113693" d="M306.222,38.418a2.783,2.783,0,1,1-2.783-2.783,2.783,2.783,0,0,1,2.783,2.783" transform="translate(-227.627 -26.98)" fill="#fff"/>
      </g>
    </g>
    <g id="Grupo_951799" data-name="Grupo 951799" transform="translate(632.351 3847.533)" opacity="0.251">
      <g id="Grupo_80323" data-name="Grupo 80323" transform="translate(0 0)" clip-path="url(#clip-path-9)">
        <path id="Trazado_113615" data-name="Trazado 113615" d="M234.385,295.315c-3.465-.263-7-.413-10.621-.386-19.157.142-37.893,5.3-57.168,5.1-40.84-.422-82.872-4.655-118.169-30.812-78.2-57.952-52.565-182.089,12.26-233.052C95.133,9.083,138.037.8,179.144.037c52.916-.986,120.789,15.752,158.7,60.3,26.414,31.037,32.982,103.347,26.808,144.319-4.915,32.614-23.362,63.369-46.664,81.271-29.061,22.326-53.7,11.66-83.6,9.391" transform="translate(0 0.004)" fill="#f1c6bd"/>
      </g>
    </g>
    <g id="Enmascarar_grupo_116" data-name="Enmascarar grupo 116" transform="translate(563 3776.923)" clip-path="url(#clip-path-11)">
      <g id="Grupo_952243" data-name="Grupo 952243" transform="translate(-88.462 -180.769)">
        <g id="Grupo_952242" data-name="Grupo 952242" transform="translate(0 0)" clip-path="url(#clip-path-12)">
          <g id="Grupo_952234" data-name="Grupo 952234">
            <g id="Grupo_952233" data-name="Grupo 952233" clip-path="url(#clip-path-12)">
              <path id="Trazado_697626" data-name="Trazado 697626" d="M1261.188,1236.569s18.883,7.067,36.921,24.9a178.763,178.763,0,0,1,26.515,33.028,99.67,99.67,0,0,1-63.436-57.924" transform="translate(-896.148 -878.128)" fill="#2f3e45"/>
              <path id="Trazado_697627" data-name="Trazado 697627" d="M1348.237,1449.8a67.174,67.174,0,0,1,28.818,7.981,67.661,67.661,0,0,1-58.256-2.75,67.167,67.167,0,0,1,29.438-5.231" transform="translate(-937.075 -1029.552)" fill="#f0f2f5"/>
              <path id="Trazado_697628" data-name="Trazado 697628" d="M1514.246,1264.1a67.6,67.6,0,0,1-13.616,56.71,67.668,67.668,0,0,1,13.616-56.71" transform="translate(-1065.182 -897.682)" fill="#2f3e45"/>
              <path id="Trazado_697629" data-name="Trazado 697629" d="M1398.01,1633.94c-12.032-6.682-14.227-14.195-8.49-22.92a67.224,67.224,0,0,1,21.541-20.738,59.781,59.781,0,0,1-10.495,28c-4.8,6.753-5.575,11.737-2.556,15.658" transform="translate(-985.163 -1129.4)" fill="#f0f2f5"/>
              <rect id="Rectángulo_344691" data-name="Rectángulo 344691" width="72.279" height="34.671" transform="translate(191.805 539.506)" fill="#fff"/>
              <path id="Trazado_697635" data-name="Trazado 697635" d="M0,0H91.118V34.671H0Z" transform="translate(100.687 539.506)" fill="#112e4c"/>
              <rect id="Rectángulo_344692" data-name="Rectángulo 344692" width="74.605" height="2.849" transform="translate(191.805 539.506)" fill="#f0f2f5"/>
              <rect id="Rectángulo_344693" data-name="Rectángulo 344693" width="33.456" height="0.712" transform="translate(231.737 548.759)" fill="#f0f2f5"/>
              <rect id="Rectángulo_344694" data-name="Rectángulo 344694" width="74.605" height="2.849" transform="translate(191.805 571.329)" fill="#f0f2f5"/>
              <rect id="Rectángulo_344695" data-name="Rectángulo 344695" width="6.719" height="34.672" transform="translate(109.869 539.506)" fill="#fff"/>
              <rect id="Rectángulo_344696" data-name="Rectángulo 344696" width="1.68" height="34.671" transform="translate(179.571 539.506)" fill="#fff"/>
              <rect id="Rectángulo_344697" data-name="Rectángulo 344697" width="1.68" height="34.671" transform="translate(173.93 539.506)" fill="#fff"/>
              <path id="Trazado_697636" data-name="Trazado 697636" d="M875.139,1908.818h-7.544l-7.013-12.645h7.545Z" transform="translate(-611.563 -1346.701)" fill="#f0f2f5"/>
              <rect id="Rectángulo_344698" data-name="Rectángulo 344698" width="62.052" height="29.766" transform="translate(198.893 485.372)" fill="#fff"/>
              <g transform="matrix(1, 0, 0, 1, -248.54, 180.85)" filter="url(#Trazado_699647)">
                <path id="Trazado_699647-2" data-name="Trazado 699647" d="M0,0H78.225V29.766H0Z" transform="translate(369.21 304.53)" fill="#112e4c"/>
              </g>
              <rect id="Rectángulo_344700" data-name="Rectángulo 344700" width="64.049" height="2.445" transform="translate(198.893 485.372)" fill="#f0f2f5"/>
              <rect id="Rectángulo_344701" data-name="Rectángulo 344701" width="28.722" height="0.611" transform="translate(233.175 493.316)" fill="#f0f2f5"/>
              <rect id="Rectángulo_344702" data-name="Rectángulo 344702" width="64.049" height="2.445" transform="translate(198.893 512.692)" fill="#f0f2f5"/>
              <rect id="Rectángulo_344703" data-name="Rectángulo 344703" width="5.768" height="21.21" transform="translate(128.551 489.65)" fill="#fff"/>
              <rect id="Rectángulo_344704" data-name="Rectángulo 344704" width="38.656" height="21.21" transform="translate(147.975 489.65)" fill="#fff"/>
              <path id="Trazado_697637" data-name="Trazado 697637" d="M869.6,1715.241h-6.477l-6.021-10.856h6.477Z" transform="translate(-609.092 -1210.458)" fill="#f0f2f5"/>
              <path id="Trazado_697638" data-name="Trazado 697638" d="M566.656,1801.992h-100.6a12.068,12.068,0,0,1-12.068-12.069v-.232a12.068,12.068,0,0,1,12.068-12.068h100.6Z" transform="translate(-322.725 -1262.485)" fill="#112e4c"/>
              <path id="Trazado_697639" data-name="Trazado 697639" d="M725.916,1804.9H685.3a10.182,10.182,0,0,1,0-20.364h40.618Z" transform="translate(-479.81 -1267.396)" fill="#fff"/>
              <rect id="Rectángulo_344705" data-name="Rectángulo 344705" width="52.435" height="2.002" transform="translate(195.306 515.137)" fill="#f0f2f5"/>
              <rect id="Rectángulo_344706" data-name="Rectángulo 344706" width="23.514" height="0.5" transform="translate(223.371 521.641)" fill="#f0f2f5"/>
              <rect id="Rectángulo_344707" data-name="Rectángulo 344707" width="52.435" height="2.002" transform="translate(195.306 537.504)" fill="#f0f2f5"/>
              <path id="Trazado_697640" data-name="Trazado 697640" d="M521.185,1807.886H477.831a8.129,8.129,0,0,1,0-16.257h43.35a10.34,10.34,0,0,0-1.065.929,10.18,10.18,0,0,0,1.069,15.329" transform="translate(-333.887 -1272.435)" fill="#fff"/>
              <path id="Trazado_697641" data-name="Trazado 697641" d="M616.024,1806.108a.539.539,0,0,1-.326-.109,11.576,11.576,0,0,1-1.215-17.43,11.739,11.739,0,0,1,1.21-1.055.541.541,0,0,1,.654.862,10.749,10.749,0,0,0-1.1.958,10.495,10.495,0,0,0,1.1,15.8.541.541,0,0,1-.327.972" transform="translate(-434.328 -1269.434)" fill="#f0f2f5"/>
              <g transform="matrix(1, 0, 0, 1, -248.54, 180.85)" filter="url(#Trazado_697642)">
                <path id="Trazado_697642-2" data-name="Trazado 697642" d="M1471.441,193.274a21.065,21.065,0,1,1-21.065-21.065,21.065,21.065,0,0,1,21.065,21.065" transform="translate(-767.04 -302.87)" fill="#fff"/>
              </g>
              <path id="Trazado_697643" data-name="Trazado 697643" d="M1468.054,233.7l-8.909-8.226,2.9-3.137,5.906,5.454,13.095-12.994,3.008,3.031Z" transform="translate(-1036.775 -152.271)" fill="#f0f2f5"/>
              <rect id="Rectángulo_344708" data-name="Rectángulo 344708" width="10.988" height="10.988" transform="translate(500.708 68.987) rotate(-22.387)" fill="#f0f2f5"/>
              <g transform="matrix(1, 0, 0, 1, -248.54, 180.85)" filter="url(#Trazado_699648)">
                <path id="Trazado_699648-2" data-name="Trazado 699648" d="M0,0H26.759V26.759H0Z" transform="translate(348.85 125.44) rotate(-69.24)" fill="#fff"/>
              </g>
              <g transform="matrix(1, 0, 0, 1, -248.54, 180.85)" filter="url(#Rectángulo_345159)">
                <rect id="Rectángulo_345159-2" data-name="Rectángulo 345159" width="26.759" height="26.759" transform="translate(642.14 77.29) rotate(-69.24)" fill="#e4e5e6"/>
              </g>
              <g transform="matrix(1, 0, 0, 1, -248.54, 180.85)" filter="url(#Rectángulo_345160)">
                <rect id="Rectángulo_345160-2" data-name="Rectángulo 345160" width="26.759" height="26.759" transform="translate(769.14 238.94) rotate(-69.24)" fill="#fff"/>
              </g>
              <rect id="Rectángulo_344710" data-name="Rectángulo 344710" width="26.759" height="26.759" transform="matrix(0.354, -0.935, 0.935, 0.354, 530.871, 138.02)" fill="#f0f2f5"/>
              <g transform="matrix(1, 0, 0, 1, -248.54, 180.85)" filter="url(#Rectángulo_344711)">
                <rect id="Rectángulo_344711-2" data-name="Rectángulo 344711" width="16.867" height="16.867" transform="translate(364.26 -61.1) rotate(-40.78)" fill="#f0f2f5"/>
              </g>
              <g transform="matrix(1, 0, 0, 1, -248.54, 180.85)" filter="url(#Rectángulo_344712)">
                <rect id="Rectángulo_344712-2" data-name="Rectángulo 344712" width="16.867" height="16.867" transform="matrix(0.35, -0.94, 0.94, 0.35, 622.74, -125.76)" fill="#fff"/>
              </g>
              <rect id="Rectángulo_344713" data-name="Rectángulo 344713" width="16.867" height="16.867" transform="matrix(0.354, -0.935, 0.935, 0.354, 555.379, 288.705)" fill="#f0f2f5"/>
              <rect id="Rectángulo_344714" data-name="Rectángulo 344714" width="9.393" height="9.393" transform="translate(265.913 52.165) rotate(-12.141)" fill="#f0f2f5"/>
              <rect id="Rectángulo_344715" data-name="Rectángulo 344715" width="9.393" height="9.393" transform="translate(61.323 294.917) rotate(-12.141)" fill="#f0f2f5"/>
              <g id="Grupo_990810" data-name="Grupo 990810" transform="translate(373.041 271.425)">
                <path id="Trazado_697630" data-name="Trazado 697630" d="M1540.054,1113.572c-.277-.079-.554-.157-.833-.227l-1.426-.375c-.477-.119-.956-.229-1.434-.343l-.718-.17-.721-.154-1.443-.3q-2.895-.57-5.818-.976a104.077,104.077,0,0,0-11.76-.853,82.5,82.5,0,0,0-11.65.569c.087-.116.173-.234.261-.35q3.94-5.213,8.138-10.226t8.648-9.8q2.213-2.4,4.505-4.735c1.526-1.554,3.072-3.091,4.667-4.576-1.6,1.474-3.161,3-4.7,4.545s-3.052,3.112-4.539,4.705q-4.463,4.778-8.675,9.783t-8.167,10.212q-1.1,1.45-2.179,2.914a34.5,34.5,0,0,0-.688-3.9q-.474-1.978-1.112-3.911c-.436-1.284-.9-2.557-1.428-3.806s-1.088-2.483-1.723-3.68c.283.615.561,1.232.822,1.856s.523,1.248.772,1.876c.5,1.258.964,2.527,1.384,3.811.44,1.278.806,2.58,1.149,3.887l.245.984c.078.329.141.661.214.991.152.626.241,1.264.363,1.9-1.869,2.529-3.694,5.089-5.453,7.7-.62.9-1.213,1.811-1.81,2.723s-1.2,1.817-1.776,2.746l-1.739,2.769-1.685,2.8c-.279.468-.565.932-.838,1.4l-.811,1.419-.811,1.42c-.269.474-.545.944-.8,1.426l-1.558,2.875-.388.719-.373.728-.745,1.455c-1.014,1.93-1.932,3.908-2.881,5.87-.464.986-.9,1.986-1.346,2.979l-.668,1.492c-.221.5-.422,1-.632,1.508l-1.247,3.022-1.16,3.057-.578,1.529-.532,1.545-.677,1.972h-.13q.119-4.02.276-8.039.4-10.326,1.043-20.642t1.52-20.611q.528-6.131,1.155-12.254a18.836,18.836,0,0,0,4.049,2.045c9.081,3.137,18.88-.572,18.88-.572a40.462,40.462,0,0,0-21.912-10.977l.447-3.942.628-5.129c.047-.393.1-.784.148-1.176a59.143,59.143,0,0,0,17.457,12.839,67.242,67.242,0,0,0-12.2-27.3,21.562,21.562,0,0,0-2.79-3.1l.268-1.728.4-2.552.429-2.547.429-2.547c.144-.849.282-1.7.441-2.545l.926-5.083c.15-.848.317-1.693.485-2.538l.5-2.534.5-2.535c.167-.845.355-1.685.533-2.528l.1-.451a59.822,59.822,0,0,0,25.5-15.568c5.729-5.987,10.478-7.683,14.9-5.456-8.826-10.56-16.618-11.3-24.108-4.026a67.221,67.221,0,0,0-16.259,24.909l.954-4.459q1.37-6.138,2.931-12.231l.052.032-.032-.11c.661-2.587,1.339-5.169,2.052-7.742a178.762,178.762,0,0,0,22.248-36.04c10.764-22.966,11.1-43.124,11.1-43.124a99.663,99.663,0,0,0-33.352,79.165c-.719,2.551-1.4,5.112-2.071,7.677a120.777,120.777,0,0,0-11.562-25.645A78.315,78.315,0,0,0,1459.925,975a66.615,66.615,0,0,0,31.24,48.074q-1.582,6.093-2.986,12.232l-1.09,5.052c-.178.843-.368,1.683-.536,2.528l-.5,2.535-.5,2.534c-.168.845-.337,1.689-.489,2.537l-.934,5.083q-1.05,5.9-1.971,11.831c-5.739-5.079-12.708-4.285-21.529,3.413,4.713-1.508,9.139.91,13.86,7.72a55.954,55.954,0,0,0,5.175,6.383q-.667,5.184-1.257,10.376a39.986,39.986,0,0,0-10.9-.171,42.661,42.661,0,0,0,9.9,9.593q-.618,6.17-1.146,12.348-.863,10.3-1.49,20.617c-.575,9.555-1.014,19.119-1.254,28.688h-.263l-.139-2.437-.051-.889-.026-.444-.041-.444-.163-1.774-.163-1.774-.082-.887-.11-.884-.439-3.536-.055-.442-.069-.44-.138-.88-.275-1.76-.276-1.76-.323-1.752c-.221-1.167-.423-2.338-.658-3.5l-.739-3.487a241.07,241.07,0,0,0-7.843-27.39q-2.366-6.723-5.036-13.333t-5.644-13.087c-2.621-5.724-5.385-11.386-8.342-16.944a67.59,67.59,0,0,0,28.465-50.812,67.655,67.655,0,0,0-28.523,50.7q-2.231-4.188-4.614-8.291c1.2,2.052,2.336,4.135,3.458,6.228.387.723.767,1.45,1.147,2.177,0,.015,0,.031,0,.047h0l.021-.015q1.073,2.051,2.118,4.115,3.216,6.356,6.163,12.844,2.237,4.926,4.313,9.922a84.414,84.414,0,0,0-11.112-3.566,107.1,107.1,0,0,0-11.567-2.256q-2.924-.378-5.865-.6l-1.471-.09-.736-.043-.736-.028c-.491-.017-.982-.04-1.473-.052l-1.474-.021c-.491-.012-.982,0-1.474,0s-.982.005-1.473.022c-.982.04-1.964.057-2.944.133-1.962.113-3.915.344-5.862.6a67.6,67.6,0,0,0-58.019,5.937c-.415,0,16.842,9.306,29.659,8.072,16.015-1.542,28.359-14.009,28.359-14.009,1.951-.223,3.9-.424,5.866-.507.979-.067,1.961-.082,2.942-.116.49-.014.981-.008,1.471-.014s.981-.009,1.472.005l1.471.028c.49.014.98.04,1.47.059l.735.031.735.047,1.468.1q2.935.235,5.852.627a106.933,106.933,0,0,1,11.563,2.193c1.9.472,3.8.992,5.674,1.574,1.842.564,3.674,1.169,5.467,1.876q.658,1.581,1.3,3.17,2.664,6.606,5,13.336a240.929,240.929,0,0,1,7.9,27.356l.746,3.482c.238,1.164.443,2.333.665,3.5l.327,1.75.279,1.759.28,1.759.139.879.07.44.058.441.461,3.531.115.883.088.886.174,1.773.174,1.772.043.443.029.444.056.889.155,2.436s-27.131-3.087-36.175,0,0,12.348,0,12.348v60.143h72.491v-72.491h-35.853l.689-1.965.542-1.542.588-1.524,1.181-3.047,1.266-3.012c.214-.5.414-1.008.637-1.5l.671-1.49c.452-.991.886-1.99,1.353-2.974.953-1.959,1.875-3.933,2.893-5.86l.747-1.453.374-.726.391-.718,1.563-2.869c.256-.481.532-.95.8-1.423l.814-1.417.814-1.417c.273-.471.56-.934.84-1.4l1.691-2.8,1.744-2.763c.573-.927,1.186-1.827,1.781-2.739s1.193-1.822,1.816-2.717c2.347-3.495,4.813-6.91,7.344-10.274,1.913-.222,3.836-.333,5.759-.4,1.963-.076,3.927-.087,5.89-.048,2.045.04,4.088.148,6.127.312a41.639,41.639,0,0,1,3.179,3.244c.755.857,1.489,1.731,2.188,2.634a33.818,33.818,0,0,0-15.3,24.719,33.789,33.789,0,0,0,15.365-24.637q.362.469.708.95c.24.311.464.634.689.955s.459.638.67.969l.642.987c.11.163.213.331.312.5l.306.5c.829,1.336,1.55,2.734,2.263,4.137l-.494-1.072c-.167-.357-.327-.717-.514-1.064l-.55-1.046c-.179-.351-.39-.685-.583-1.028a43.757,43.757,0,0,0-2.594-3.952,44.286,44.286,0,0,0-3-3.651c-.532-.582-1.084-1.145-1.646-1.7-.528-.5-1.062-.992-1.624-1.452q2.807.227,5.6.6,2.918.394,5.812.944l1.442.3.721.15.718.166c.478.112.957.219,1.434.335l1.426.367c.258.063.513.133.769.2a33.781,33.781,0,0,0,27.945,7.992,33.826,33.826,0,0,0-27.849-8.086" transform="translate(-1350.97 -936.11)" fill="#455a64"/>
                <path id="Trazado_697631" data-name="Trazado 697631" d="M1799.625,1112.249a99.666,99.666,0,0,0,45.277,73,178.755,178.755,0,0,0-16.526-39c-12.5-22.066-28.751-34.005-28.751-34.005" transform="translate(-1757.905 -1061.237)" fill="#455a64"/>
                <path id="Trazado_697632" data-name="Trazado 697632" d="M1828.609,1367.683a67.593,67.593,0,0,0-55.309-18.5,67.667,67.667,0,0,0,55.309,18.5" transform="translate(-1733.988 -1229.179)" fill="#2f3e45"/>
                <path id="Trazado_697633" data-name="Trazado 697633" d="M1808.522,1487.473a33.613,33.613,0,0,0-7.141-13.026c.917-.679,1.862-1.321,2.822-1.939a41.148,41.148,0,0,1,4.1-2.335c-.726.306-1.427.667-2.125,1.031s-1.376.77-2.046,1.185a44.2,44.2,0,0,0-3.884,2.7,43.64,43.64,0,0,0-3.572,3.1c-.28.278-.573.541-.841.831l-.814.856c-.275.282-.527.585-.785.883l-.767.9c1.068-1.156,2.142-2.306,3.3-3.366l.432-.4c.142-.135.286-.268.436-.4l.888-.775c.293-.262.606-.5.908-.751s.608-.5.924-.732.623-.485.94-.721a33.788,33.788,0,0,0,8.081,27.889,33.613,33.613,0,0,0-.855-14.924" transform="translate(-1721.065 -1315.502)" fill="#2f3e45"/>
                <path id="Trazado_697634" data-name="Trazado 697634" d="M1857.629,1548.257c-1.837-4.595.262-9.18,6.721-14.371a59.79,59.79,0,0,0,17.719-24.088,67.228,67.228,0,0,0-26.372,14.093c-7.9,6.835-7.828,14.662,1.931,24.366" transform="translate(-1809.67 -1343.651)" fill="#2f3e45"/>
                <path id="Trazado_699646" data-name="Trazado 699646" d="M0,0H78V73H0Z" transform="translate(81.512 228.422)" fill="#112e4c"/>
              </g>
            </g>
          </g>
          <g id="Grupo_952239" data-name="Grupo 952239">
            <g id="Grupo_952238" data-name="Grupo 952238" clip-path="url(#clip-path-12)">
              <path id="Trazado_697644" data-name="Trazado 697644" d="M1345.863,964.039c.921.839,1.775,1.732,2.605,2.644.422.451.819.922,1.228,1.383l1.191,1.414q1.175,1.427,2.271,2.919c.732.994,1.44,2.006,2.082,3.074-.921-.839-1.775-1.731-2.606-2.644s-1.639-1.844-2.418-2.8l-1.154-1.444c-.373-.491-.757-.973-1.116-1.475-.732-.994-1.441-2.006-2.083-3.073" transform="translate(-956.3 -684.526)" fill="#fff"/>
              <path id="Trazado_697645" data-name="Trazado 697645" d="M1161.466,1202.763c-.838.92-1.731,1.775-2.645,2.605-.451.422-.922.82-1.383,1.228l-1.414,1.191q-1.426,1.176-2.919,2.271c-.993.732-2.006,1.44-3.073,2.082.838-.921,1.731-1.776,2.644-2.606s1.844-1.639,2.8-2.418l1.444-1.154c.491-.373.974-.757,1.475-1.116.994-.732,2.006-1.441,3.073-2.083" transform="translate(-817.185 -854.112)" fill="#fff"/>
              <path id="Trazado_697646" data-name="Trazado 697646" d="M1534.372,1122.728c-.839.92-1.732,1.774-2.645,2.605-.451.422-.922.819-1.383,1.228l-1.414,1.191q-1.427,1.175-2.919,2.271c-.993.732-2.006,1.44-3.073,2.082.838-.921,1.731-1.775,2.643-2.606s1.844-1.639,2.8-2.418l1.445-1.154c.491-.373.973-.757,1.475-1.116.993-.732,2.006-1.441,3.073-2.083" transform="translate(-1082.092 -797.256)" fill="#fff"/>
              <path id="Trazado_697647" data-name="Trazado 697647" d="M1047.289,1648.153c.92.838,1.775,1.732,2.605,2.644.422.451.819.922,1.228,1.383l1.19,1.414q1.175,1.427,2.271,2.919c.732.993,1.44,2.006,2.082,3.074-.921-.838-1.776-1.731-2.606-2.644s-1.638-1.843-2.418-2.8l-1.153-1.445c-.373-.491-.757-.973-1.116-1.475-.732-.993-1.441-2.006-2.083-3.073" transform="translate(-744.197 -1170.511)" fill="#fff"/>
              <path id="Trazado_697648" data-name="Trazado 697648" d="M803.341,1833.39c-.839.92-1.732,1.774-2.645,2.605-.451.422-.922.819-1.383,1.228l-1.414,1.191q-1.427,1.174-2.919,2.271c-.993.732-2.006,1.44-3.074,2.082.838-.921,1.731-1.776,2.643-2.606s1.844-1.638,2.8-2.418l1.444-1.154c.491-.373.974-.757,1.475-1.116.993-.732,2.005-1.441,3.073-2.083" transform="translate(-562.777 -1302.102)" fill="#fff"/>
              <path id="Trazado_697649" data-name="Trazado 697649" d="M1120.516,1924.748c.122-1.24.326-2.458.561-3.67.109-.607.249-1.208.374-1.811l.421-1.8c.294-1.2.624-2.385.981-3.565s.746-2.354,1.218-3.507c-.121,1.24-.325,2.459-.56,3.67s-.5,2.416-.8,3.611l-.467,1.789c-.171.592-.328,1.188-.514,1.776-.359,1.181-.746,2.355-1.217,3.508" transform="translate(-796.217 -1356.804)" fill="#fff"/>
              <path id="Trazado_697650" data-name="Trazado 697650" d="M771.165,1595.233c1.2-.343,2.406-.6,3.618-.831.605-.122,1.215-.213,1.822-.319l1.829-.272c1.221-.168,2.446-.3,3.676-.4s2.463-.175,3.709-.161c-1.2.344-2.405.6-3.618.832s-2.429.428-3.651.591l-1.835.224c-.614.06-1.225.133-1.841.176-1.23.1-2.464.174-3.709.162" transform="translate(-548.042 -1131.507)" fill="#fff"/>
              <path id="Trazado_697651" data-name="Trazado 697651" d="M1435.584,1321.823c-.931-.828-1.8-1.711-2.637-2.613-.427-.446-.83-.912-1.244-1.369l-1.208-1.4q-1.192-1.412-2.305-2.892c-.744-.984-1.464-1.989-2.119-3.048.931.827,1.8,1.71,2.638,2.612s1.66,1.824,2.451,2.769l1.171,1.43c.379.487.768.964,1.134,1.461.743.985,1.464,1.989,2.12,3.048" transform="translate(-1013.28 -930.648)" fill="#fff"/>
              <g id="Grupo_952237" data-name="Grupo 952237" transform="translate(391.042 353.34)" opacity="0.4" style="mix-blend-mode: multiply;isolation: isolate">
                <g id="Grupo_952236" data-name="Grupo 952236">
                  <g id="Grupo_952235" data-name="Grupo 952235" clip-path="url(#clip-path-15)">
                    <path id="Trazado_697652" data-name="Trazado 697652" d="M1350.966,1223.77c.066-1.573.141-3.176.226-4.818,0,0-.145,1.769-.226,4.818" transform="translate(-1350.967 -1218.952)" fill="#a65b3c"/>
                  </g>
                </g>
              </g>
              <path id="Trazado_697653" data-name="Trazado 697653" d="M1407.922,1538.7a14.516,14.516,0,0,1,2.236-.041c.746.036,1.492.1,2.233.207a29.208,29.208,0,0,1,4.382.971,35.312,35.312,0,0,1,4.21,1.57,40.566,40.566,0,0,1,3.984,2.081c1.292.76,2.521,1.62,3.729,2.5.588.463,1.192.907,1.758,1.4l.861.72.831.754a51.011,51.011,0,0,1,6.051,6.586,71.121,71.121,0,0,0-6.351-6.248,50.623,50.623,0,0,0-7.175-5.214,40.325,40.325,0,0,0-8.033-3.718,32.937,32.937,0,0,0-4.292-1.121,22.028,22.028,0,0,0-4.424-.445" transform="translate(-1000.387 -1092.709)" fill="#ff9b6c"/>
            </g>
          </g>
          <path id="Trazado_697654" data-name="Trazado 697654" d="M0,0H489.416V.869H0Z" transform="translate(73.649 573.743)" fill="#14122c"/>
        </g>
      </g>
    </g>
    <g id="Grupo_952265" data-name="Grupo 952265" transform="translate(626.759 3798.077)">
      <g id="Grupo_952264" data-name="Grupo 952264" clip-path="url(#clip-path-17)">
        <g id="Grupo_952263" data-name="Grupo 952263">
          <g id="Grupo_952262" data-name="Grupo 952262" clip-path="url(#clip-path-17)">
            <path id="Trazado_697655" data-name="Trazado 697655" d="M201.867,128.39s18.943,9.23,25.595,33.062,27.026,85.9,27.026,85.9,11.642,13.694,12.889,23.837-1.247,34.674-4.989,39.248a10.543,10.543,0,0,1-9.08,3.816l-49-4.648-19.3-129.2Z" transform="translate(70.164 48.691)" fill="#455a64"/>
            <path id="Trazado_697656" data-name="Trazado 697656" d="M91.78,131.506S56.743,142.5,48.011,152.058L76.7,285.524l-.458,42.111H242.356c0-2.079,1.49-139.821,1.49-139.821l9.979-54.051L194.783,123.37l-11.642-9.149-65.693,3.327-9.979,9.979Z" transform="translate(18.208 43.318)" fill="#455a64"/>
            <g id="Grupo_952246" data-name="Grupo 952246" transform="translate(94.568 287.958)" opacity="0.3">
              <g id="Grupo_952245" data-name="Grupo 952245">
                <g id="Grupo_952244" data-name="Grupo 952244" clip-path="url(#clip-path-19)">
                  <path id="Trazado_697657" data-name="Trazado 697657" d="M97.293,211.434c-.512-1.132-1.244-2.356-2.461-2.607-2-.412-3.339,1.953-4.019,3.88a175.47,175.47,0,0,1-21.822,42.606l-.426,20.493c9.684-8.15,19.234-16.878,25.406-27.927s8.535-24.912,3.323-36.445" transform="translate(-68.565 -208.78)"/>
                </g>
              </g>
            </g>
            <path id="Trazado_697658" data-name="Trazado 697658" d="M66.219,141.654S54.674,157.393,49.88,167.665,5.364,264.233,2.967,273.136s-8.561,36.983,9.588,43.489H49.88l37.464-75.756L89.26,152.94Z" transform="translate(0 53.721)" fill="#455a64"/>
            <path id="Trazado_697659" data-name="Trazado 697659" d="M50.4,230.5c-.05.057-.832-.734-2.55-1.712a28.632,28.632,0,0,0-7.834-2.837,37.53,37.53,0,0,0-5.711-.8,22.7,22.7,0,0,0-6.546.426A24.408,24.408,0,0,0,15.19,233.46a34.065,34.065,0,0,0-7.116,13.228A65.891,65.891,0,0,0,5.83,258.9c-.349,3.529-.48,6.405-.6,8.389-.058.928-.106,1.685-.143,2.287a3.367,3.367,0,0,1-.1.8,3.4,3.4,0,0,1-.047-.8c0-.6.006-1.36.008-2.291.037-1.989.091-4.87.377-8.424A63.125,63.125,0,0,1,7.44,246.5a34.166,34.166,0,0,1,7.212-13.517,24.8,24.8,0,0,1,12.959-8.058,23.02,23.02,0,0,1,6.731-.375,36.767,36.767,0,0,1,5.785.9,26.953,26.953,0,0,1,7.863,3.092,13.4,13.4,0,0,1,1.852,1.372,3.415,3.415,0,0,1,.556.579" transform="translate(1.873 85.126)" fill="#263238"/>
            <path id="Trazado_697660" data-name="Trazado 697660" d="M25.065,217.983a4.308,4.308,0,0,1,1.255-.2,21.3,21.3,0,0,1,3.462-.048,28.63,28.63,0,0,1,5.091.753,32.857,32.857,0,0,1,5.945,2.107,32.861,32.861,0,0,1,5.38,3.294,28.5,28.5,0,0,1,3.789,3.484,21.318,21.318,0,0,1,2.142,2.72,4.277,4.277,0,0,1,.633,1.1c-.11.077-1.123-1.418-3.143-3.473a32.649,32.649,0,0,0-3.816-3.3,35.851,35.851,0,0,0-5.294-3.175,35.66,35.66,0,0,0-5.8-2.114,32.638,32.638,0,0,0-4.969-.888c-2.869-.277-4.669-.121-4.677-.257" transform="translate(9.506 82.557)" fill="#263238"/>
            <path id="Trazado_697661" data-name="Trazado 697661" d="M61.36,215.291a8.055,8.055,0,0,1-1.727-.131c-1.1-.142-2.7-.3-4.676-.45a79.68,79.68,0,0,0-30.53,3.652c-1.885.608-3.4,1.142-4.437,1.539a7.986,7.986,0,0,1-1.647.535,8.02,8.02,0,0,1,1.541-.793c1.008-.479,2.5-1.088,4.38-1.763A70.58,70.58,0,0,1,55,214.2c1.983.212,3.581.451,4.673.679a8.039,8.039,0,0,1,1.684.408" transform="translate(6.957 81.097)" fill="#263238"/>
            <path id="Trazado_697662" data-name="Trazado 697662" d="M140.075,175.685a2.42,2.42,0,0,1-.381-.45l-1.018-1.364-3.752-5.2-13-18.343.579-.083c-2.011,5.907-4.23,12.423-6.567,19.28l-.148.434-.377-.241c-.244-.159-.509-.328-.775-.5a39.819,39.819,0,0,1-8.127-6.862,48.384,48.384,0,0,1-5.8-8.024A66.951,66.951,0,0,1,94.323,138.9a104.31,104.31,0,0,1-2.418-11q-.327-1.879-.523-3.008c-.062-.343-.132-.6-.175-.77a.871.871,0,0,1-.087-.255c.152-.065.557,1.382,1.059,3.982.537,2.6,1.285,6.367,2.632,10.906A68.472,68.472,0,0,0,101.28,154a48.371,48.371,0,0,0,5.753,7.885,39.5,39.5,0,0,0,7.99,6.728l.76.49-.524.192c2.356-6.851,4.594-13.361,6.624-19.261l.211-.615.368.534c5.2,7.517,9.617,13.908,12.787,18.493,1.512,2.226,2.723,4.011,3.6,5.3.382.581.69,1.051.934,1.423a2.426,2.426,0,0,1,.292.51" transform="translate(34.556 46.976)" fill="#263238"/>
            <g id="Grupo_952249" data-name="Grupo 952249" transform="translate(217.516 286.374)" opacity="0.3">
              <g id="Grupo_952248" data-name="Grupo 952248">
                <g id="Grupo_952247" data-name="Grupo 952247" clip-path="url(#clip-path-20)">
                  <path id="Trazado_697663" data-name="Trazado 697663" d="M158.068,207.631a75.455,75.455,0,0,0,9.6,44.759c7.729,13.442,19.054,25.424,33.165,31.855.457-13.7-.2-29.832.254-43.53Z" transform="translate(-157.707 -207.631)"/>
                </g>
              </g>
            </g>
            <path id="Trazado_697664" data-name="Trazado 697664" d="M157.714,203.545s-6.034,1.674-1.509,14.037,6.034,11.613,9.051,23.178,6.538,22.117,11.817,28.654,24.888,19.861,24.888,19.861l17.6-16.592s-2.9-12.366-2.205-20.765,2.456-29.015,2.205-32.534-4.023-12.068-4.023-12.068v-5.847l-9.051-27.841s-5.027-2.263-6.787,5.782l-3.018-8.539s-4.776-.763-6.033,9.042,1.005,23.381,1.005,23.381l-2.514,17.1-3.771,11.565-3.269.5s-4.92-1.343-7.613-10.6-9.984-20.32-16.773-18.309" transform="translate(58.601 64.796)" fill="#ffbe9d"/>
            <path id="Trazado_697665" data-name="Trazado 697665" d="M202.8,235.9a2.7,2.7,0,0,1-.081-.634c-.033-.479-.076-1.088-.127-1.841-.091-1.687-.217-4.019-.372-6.924-.27-6-.648-14.358-1.088-24.109l.08.2a3.53,3.53,0,0,0-3.563-.928,5.2,5.2,0,0,0-3.262,2.392c-1.536,2.473-1.621,5.7-2.1,8.808-.954,7.047-1.863,13.757-2.691,19.871-.419,3.055-.861,5.962-1.457,8.651a56.479,56.479,0,0,1-2.182,7.333,61.833,61.833,0,0,0-1.894,5.971,18.339,18.339,0,0,0-.568,4.655,14.562,14.562,0,0,0,.7,3.943,5.613,5.613,0,0,1-.422-.963,10.891,10.891,0,0,1-.553-2.968,17.792,17.792,0,0,1,.457-4.757,57.889,57.889,0,0,1,1.8-6.047,57.738,57.738,0,0,0,2.08-7.293c.564-2.669.982-5.56,1.382-8.613.811-6.117,1.7-12.83,2.636-19.878.221-1.572.392-3.124.665-4.672a12.258,12.258,0,0,1,1.552-4.419,5.9,5.9,0,0,1,3.7-2.687,4.2,4.2,0,0,1,4.234,1.168l.074.091,0,.112c.335,9.757.622,18.114.829,24.12.074,2.908.135,5.243.179,6.932.007.756.014,1.366.019,1.845a2.8,2.8,0,0,1-.032.639" transform="translate(69.473 76.17)" fill="#eb996e"/>
            <path id="Trazado_697666" data-name="Trazado 697666" d="M191.427,209.894a7.123,7.123,0,0,1-.742-1.574,40.093,40.093,0,0,1-1.473-4.506,45.471,45.471,0,0,1-1.265-6.928,20.242,20.242,0,0,1-.074-4.2,8.972,8.972,0,0,1,1.517-4.31,6.158,6.158,0,0,1,3.218-2.415l.27-.079.138.243c2.549,4.5,4.763,8.466,6.32,11.321l1.8,3.374a5.781,5.781,0,0,1,.577,1.266,5.871,5.871,0,0,1-.8-1.141l-1.988-3.27c-1.666-2.793-3.956-6.717-6.531-11.2l.407.164a5.486,5.486,0,0,0-2.832,2.152,8.375,8.375,0,0,0-1.405,3.972,20.192,20.192,0,0,0,.034,4.058,51.006,51.006,0,0,0,1.1,6.869c.444,1.934.916,3.473,1.244,4.535a9.245,9.245,0,0,1,.479,1.668" transform="translate(71.219 70.495)" fill="#eb996e"/>
            <path id="Trazado_697667" data-name="Trazado 697667" d="M187.582,216.118a6.941,6.941,0,0,1-.163-1.6c-.048-1.186-.108-2.648-.178-4.376-.119-3.7-.233-8.8-.314-14.442-.043-5.634-.262-10.757.223-14.47a22.15,22.15,0,0,1,.943-4.306,5.389,5.389,0,0,1,.645-1.483,40.663,40.663,0,0,0-1.084,5.842c-.35,3.652-.052,8.764-.01,14.406.081,5.64.116,10.747.1,14.445-.019,1.728-.037,3.192-.05,4.379a6.977,6.977,0,0,1-.117,1.607" transform="translate(70.858 66.534)" fill="#eb996e"/>
            <path id="Trazado_697668" data-name="Trazado 697668" d="M176.592,246.373c-.1-.084,1-1.381,2.361-3.731A31.075,31.075,0,0,0,181,238.35a30.711,30.711,0,0,0,2.056-11.391,30.923,30.923,0,0,0-.416-4.738c-.454-2.677-1.033-4.277-.908-4.32a3.814,3.814,0,0,1,.5,1.088,20.009,20.009,0,0,1,.9,3.138,26.971,26.971,0,0,1,.581,4.819,28.6,28.6,0,0,1-2.1,11.646,27.047,27.047,0,0,1-2.228,4.313,19.96,19.96,0,0,1-1.946,2.622c-.512.577-.812.877-.85.846" transform="translate(66.969 82.637)" fill="#eb996e"/>
            <path id="Trazado_697669" data-name="Trazado 697669" d="M202.807,232.273l15.272,5.3s14.583-7.542,24.639,0,18.791,27.421,16.025,35.466c0,0-6.94,8.568-12.22,9.826s-25.8-3.716-34.343-5.513c-8.562-1.8-23.264-11.369-23.264-11.369Z" transform="translate(71.645 88.088)" fill="#ffbe9d"/>
            <path id="Trazado_697670" data-name="Trazado 697670" d="M200.579,258.06a5.012,5.012,0,0,1-.163-1.352c-.061-1.034-.134-2.262-.218-3.689-.161-3.117-.372-7.426-.436-12.193a121.353,121.353,0,0,1,.353-12.213c.134-1.559.3-2.816.461-3.678a4.965,4.965,0,0,1,.317-1.325c.112.018-.125,1.931-.272,5.04s-.212,7.411-.141,12.168c.087,4.66.164,8.875.225,12.186.018,1.561.014,2.826-.011,3.7a4.991,4.991,0,0,1-.116,1.359" transform="translate(75.751 84.802)" fill="#eb996e"/>
            <path id="Trazado_697671" data-name="Trazado 697671" d="M248.3,238.673a48.279,48.279,0,0,0-5.078-4.579,27.938,27.938,0,0,0-30.959-1.706,48.2,48.2,0,0,0-5.55,3.993,7.621,7.621,0,0,1,1.258-1.363A24.789,24.789,0,0,1,212,231.952a27.451,27.451,0,0,1,31.524,1.736,24.789,24.789,0,0,1,3.67,3.491,7.644,7.644,0,0,1,1.1,1.494" transform="translate(78.393 86.39)" fill="#263238"/>
            <path id="Trazado_697672" data-name="Trazado 697672" d="M247.6,228.042a29.991,29.991,0,0,0-6.354-3.5,28.123,28.123,0,0,0-17.194-.516,40.045,40.045,0,0,0-8.892,3.7,42.313,42.313,0,0,0-6.44,4.55c-1.714,1.463-3.025,2.739-3.924,3.629a11.323,11.323,0,0,1-1.437,1.346,9.642,9.642,0,0,1,1.234-1.539,48.144,48.144,0,0,1,3.792-3.818,39.564,39.564,0,0,1,6.444-4.741,38.68,38.68,0,0,1,9.03-3.819,27.574,27.574,0,0,1,17.572.735,20.177,20.177,0,0,1,4.7,2.652,12.845,12.845,0,0,1,1.119.95c.246.228.367.354.35.374" transform="translate(77.123 84.287)" fill="#263238"/>
            <path id="Trazado_697673" data-name="Trazado 697673" d="M248.529,219.117c-.039.142-2.709-.674-7.143-1.274a57.349,57.349,0,0,0-7.829-.5,56.851,56.851,0,0,0-18.835,3.314,57.488,57.488,0,0,0-7.189,3.139c-3.964,2.079-6.194,3.757-6.278,3.637a10.04,10.04,0,0,1,1.528-1.223,21.681,21.681,0,0,1,1.9-1.3c.761-.472,1.608-1.05,2.612-1.565a51.822,51.822,0,0,1,7.205-3.314,53.929,53.929,0,0,1,19.06-3.354,51.907,51.907,0,0,1,7.9.655c1.121.142,2.113.4,2.99.579a21.286,21.286,0,0,1,2.225.572,10.115,10.115,0,0,1,1.855.626" transform="translate(76.324 82.176)" fill="#263238"/>
            <path id="Trazado_697674" data-name="Trazado 697674" d="M161.028,120.524a12.753,12.753,0,0,1,1.058,4.061,39.616,39.616,0,0,1-.579,11.846,70.577,70.577,0,0,1-1.974,8.258,62.647,62.647,0,0,1-4.011,9.173c-3.29,6.343-7.429,13.26-12.223,20.636l-.56.862v-1.03c-.008-4.874-.015-9.991-.023-15.3l.537.257-12.881,10.4.112-.163a135.65,135.65,0,0,0-5.729,30.961c-1.259,16.785-.244,32.84.549,47.4.679,14.585,1.121,27.719,1.576,38.747.437,11.028.836,19.951,1.168,26.113.181,3.054.321,5.437.419,7.093.052.785.094,1.4.123,1.844.023.415.018.63.018.63s-.043-.21-.091-.623c-.047-.445-.11-1.057-.193-1.84-.153-1.618-.35-4.007-.554-7.088-.418-6.16-.894-15.081-1.4-26.108s-1.079-24.162-1.731-38.736c-.828-14.552-1.867-30.641-.6-47.492a135.355,135.355,0,0,1,5.786-31.12l.03-.1.081-.065,12.9-10.371.538-.433v.69c-.008,5.313-.017,10.43-.023,15.3l-.561-.17c9.474-14.694,17.181-27.462,18.367-37.793a40.82,40.82,0,0,0,.743-11.761,19.915,19.915,0,0,0-.565-3.056c-.217-.67-.306-1.026-.306-1.026" transform="translate(46.817 45.708)" fill="#263238"/>
            <path id="Trazado_697675" data-name="Trazado 697675" d="M133.934,249.524l-.492-.017a3.887,3.887,0,1,0,.492.017" transform="translate(49.173 94.624)" fill="#fff"/>
            <path id="Trazado_697676" data-name="Trazado 697676" d="M133.934,210.983l-.492-.017a3.887,3.887,0,1,0,.492.017" transform="translate(49.173 80.007)" fill="#fff"/>
            <path id="Trazado_697677" data-name="Trazado 697677" d="M133.418,178.636a3.891,3.891,0,0,0,.516-7.761l-.492-.017a3.891,3.891,0,0,0-.023,7.778" transform="translate(49.173 64.797)" fill="#fff"/>
            <path id="Trazado_697678" data-name="Trazado 697678" d="M94.167,103.945c-4.836-5.353-9.715-10.765-13.239-17.06S75.3,73.244,76.468,66.126C77.15,61.964,78.919,58,79.2,53.789c.386-5.793-2.048-11.845.006-17.275,3.21-8.485,14.632-9.8,21.558-15.659,5.393-4.565,8.019-11.977,13.951-15.816,5.183-3.354,11.842-3.281,17.954-2.416s12.263,2.407,18.381,1.585c4.361-.586,8.469-2.35,12.741-3.408s9.037-1.336,12.842.874,5.942,7.612,3.447,11.237c7.089-3.269,16.1,2.256,18.035,9.82s-1.943,15.732-7.951,20.719-13.777,7.306-21.449,8.753c-21.722,4.094-45.282,1.783-64-9.972" transform="translate(28.877 0)" fill="#263238"/>
            <path id="Trazado_697679" data-name="Trazado 697679" d="M166.519,172.279c-1.061-8.222-1.928-15.082-1.982-15.934,0,0,27.477-6.175,25.963-33.957-.732-13.427-4.491-40.958-8.179-65.827a51.828,51.828,0,0,0-54.738-44.075l-2.678.179C96.135,16.284,83.137,42.739,87.551,71.4l15.522,96.093s6.624,21.257,20.793,24.937l17.882,25.544,2.954-11,13.329-11.6a52.511,52.511,0,0,0,6.571-9.782c2.872-5.291,2.267-10.731,1.917-13.311" transform="translate(32.883 4.691)" fill="#ffbe9d"/>
            <path id="Trazado_697680" data-name="Trazado 697680" d="M153.292,118.625s-17.449,2.6-36.88-7.864c0,0,9.892,19.406,37.424,15.053Z" transform="translate(44.148 42.005)" fill="#eb996e"/>
            <path id="Trazado_697681" data-name="Trazado 697681" d="M151.729,62.635a3.972,3.972,0,0,1-3.554,4.255,3.8,3.8,0,0,1-4.327-3.3,3.976,3.976,0,0,1,3.552-4.258,3.8,3.8,0,0,1,4.329,3.3" transform="translate(54.546 22.489)" fill="#263238"/>
            <path id="Trazado_697682" data-name="Trazado 697682" d="M156.681,55.587c-.457.549-3.608-1.473-7.875-1.175-4.265.234-7.248,2.638-7.744,2.147-.244-.217.195-1.182,1.491-2.266a10.891,10.891,0,0,1,6.158-2.358,10.459,10.459,0,0,1,6.311,1.581c1.379.919,1.885,1.823,1.659,2.072" transform="translate(53.472 19.688)" fill="#263238"/>
            <path id="Trazado_697683" data-name="Trazado 697683" d="M122.512,64.724a3.974,3.974,0,0,1-3.556,4.255,3.8,3.8,0,0,1-4.327-3.3,3.976,3.976,0,0,1,3.553-4.258,3.8,3.8,0,0,1,4.329,3.3" transform="translate(43.465 23.282)" fill="#263238"/>
            <path id="Trazado_697684" data-name="Trazado 697684" d="M126.316,58.2c-.458.55-3.614-1.472-7.875-1.175-4.265.236-7.249,2.64-7.747,2.147-.241-.215.192-1.182,1.494-2.265a10.891,10.891,0,0,1,6.158-2.36,10.475,10.475,0,0,1,6.311,1.581c1.375.919,1.884,1.825,1.659,2.072" transform="translate(41.956 20.678)" fill="#263238"/>
            <path id="Trazado_697685" data-name="Trazado 697685" d="M135.964,89.113c-.036-.241,2.585-.877,6.845-1.713,1.081-.186,2.1-.472,2.232-1.228.2-.8-.33-1.947-.943-3.179q-1.8-3.852-3.775-8.081c-5.265-11.51-9.153-21-8.688-21.213s5.11,8.953,10.373,20.464q1.91,4.262,3.645,8.139c.494,1.211,1.3,2.567.851,4.237a2.738,2.738,0,0,1-1.684,1.713,7.411,7.411,0,0,1-1.833.381c-4.309.523-6.99.721-7.023.48" transform="translate(49.907 20.364)" fill="#263238"/>
            <path id="Trazado_697686" data-name="Trazado 697686" d="M127.31,45.751c-.343,1.188-4.64.923-9.6,1.862-4.985.837-8.922,2.572-9.656,1.578-.33-.479.3-1.618,1.858-2.85a17.008,17.008,0,0,1,14.672-2.619c1.887.617,2.873,1.466,2.73,2.029" transform="translate(40.945 16.332)" fill="#263238"/>
            <path id="Trazado_697687" data-name="Trazado 697687" d="M154.641,46.786c-.686,1.019-3.692.21-7.229.4-3.543.065-6.482,1.088-7.24.12-.334-.47.072-1.473,1.317-2.479a10.483,10.483,0,0,1,11.659-.418c1.314.913,1.792,1.883,1.492,2.378" transform="translate(53.117 16.246)" fill="#263238"/>
            <path id="Trazado_697688" data-name="Trazado 697688" d="M94.828,70.1c-.487-.174-19.451-4.365-17.576,14.573s22.4,12.765,22.378,12.219-4.8-26.792-4.8-26.792" transform="translate(29.248 26.391)" fill="#ffbe9d"/>
            <path id="Trazado_697689" data-name="Trazado 697689" d="M89.89,88.9c-.09-.052-.308.263-.84.575a3.311,3.311,0,0,1-2.461.294c-2.073-.537-4.073-3.545-4.5-6.949a10.971,10.971,0,0,1,.457-4.816,3.828,3.828,0,0,1,2.23-2.778,1.689,1.689,0,0,1,2.037.712c.306.5.223.894.327.917.058.041.375-.357.145-1.125a2.119,2.119,0,0,0-.862-1.112,2.5,2.5,0,0,0-1.873-.3c-1.45.246-2.632,1.72-3.156,3.277a11.27,11.27,0,0,0-.621,5.393c.5,3.8,2.807,7.182,5.623,7.7a3.551,3.551,0,0,0,2.967-.8c.541-.527.6-.96.53-.988" transform="translate(30.597 28.162)" fill="#eb996e"/>
            <path id="Trazado_697690" data-name="Trazado 697690" d="M181.77,32.013c-1.3,7.539-16.591,14.446-29.268,14.077-11.686-.341-17.458-6.139-25.95-10.26-5.375-2.608-5.375-2.608-12.668-1.423-5.9.959-8.957,7.917-12.268,12.89,6.307,13.748,3.758,29.738,1.085,44.627-.3,1.645-.662,3.421-1.917,4.525-2.13,1.877-5.58.753-7.675-1.164-3.352-3.069-4.877-7.62-5.976-12.03a78.244,78.244,0,0,1-1.876-30.8c1.589-10.231,5.822-20.169,12.812-27.806C106.8,15.107,119.575,9.605,132.5,8.941s25.9,3.335,36.722,10.426c5.02,3.288,9.715,7.357,12.552,12.646" transform="translate(32.039 3.364)" fill="#263238"/>
            <path id="Trazado_697691" data-name="Trazado 697691" d="M140.956,87.695l-9.655-4.5a3.241,3.241,0,0,0-1.754-.443,2.8,2.8,0,0,0-1.67,1.134,8.979,8.979,0,0,0-1.069,9.864,7.539,7.539,0,0,0,9.059,3.331c3.421-1.416,5.083-5.39,5.35-9.084Z" transform="translate(47.705 31.377)" fill="#eb996e"/>
            <path id="Trazado_697692" data-name="Trazado 697692" d="M136.487,98.1c.028.083-.447.361-1.412.563a8.352,8.352,0,0,1-4.153-.306,8.659,8.659,0,0,1-4.794-3.983,8.9,8.9,0,0,1-.588-7.613,9.318,9.318,0,0,1,2.24-3.376,8.644,8.644,0,0,1,1.565-1.183,2.339,2.339,0,0,1,2.234-.138,13.859,13.859,0,0,1,1.5.854l1.317.808,2.35,1.47c2.863,1.816,4.583,3.027,4.484,3.2s-2-.728-5-2.321L133.8,84.753l-1.352-.745a14.96,14.96,0,0,0-1.365-.719,1.018,1.018,0,0,0-1.055.1,7.563,7.563,0,0,0-1.27,1.005,8.209,8.209,0,0,0-1.877,2.878,7.8,7.8,0,0,0,.408,6.465,7.97,7.97,0,0,0,3.989,3.667,9.445,9.445,0,0,0,3.738.7c.92-.022,1.441-.112,1.472-.007" transform="translate(47.385 31.038)" fill="#263238"/>
            <path id="Trazado_697693" data-name="Trazado 697693" d="M142.081,67.58a34.167,34.167,0,0,0-.754-4.8,19.7,19.7,0,0,0-7.211-10.724,19.468,19.468,0,0,0-18.438-2.746A19.518,19.518,0,0,0,106.66,56.1a19.351,19.351,0,0,0,0,22.963,19.487,19.487,0,0,0,9.02,6.783,19.61,19.61,0,0,0,25.648-13.47,34.137,34.137,0,0,0,.754-4.794,1.07,1.07,0,0,1,.021.321c0,.255-.007.566-.012.943a9.087,9.087,0,0,1-.12,1.531,13.986,13.986,0,0,1-.371,2.066,18.693,18.693,0,0,1-2.139,5.339,19.973,19.973,0,0,1-13.45,9.52,20.107,20.107,0,0,1-10.555-.833,20.088,20.088,0,0,1-9.362-6.99,19.992,19.992,0,0,1,0-23.8,20.1,20.1,0,0,1,9.361-6.989,20.1,20.1,0,0,1,10.554-.833,19.966,19.966,0,0,1,13.45,9.518,18.676,18.676,0,0,1,2.141,5.339,13.986,13.986,0,0,1,.371,2.066,9.1,9.1,0,0,1,.12,1.532c.006.378.01.688.012.943a1.07,1.07,0,0,1-.021.321" transform="translate(38.746 18.02)" fill="#263238"/>
            <path id="Trazado_697694" data-name="Trazado 697694" d="M176.049,66.1a34.119,34.119,0,0,0-.738-4.671,19.211,19.211,0,0,0-7.027-10.445,18.957,18.957,0,0,0-17.959-2.673,18.976,18.976,0,0,0-8.784,6.607,18.844,18.844,0,0,0,0,22.364,19,19,0,0,0,8.786,6.608,19.107,19.107,0,0,0,24.986-13.118,34.119,34.119,0,0,0,.738-4.671,7.852,7.852,0,0,1,.01,1.233,8.868,8.868,0,0,1-.116,1.492,13.568,13.568,0,0,1-.361,2.014,19.4,19.4,0,0,1-15.192,14.485,19.592,19.592,0,0,1-10.291-.812,19.6,19.6,0,0,1-9.126-6.813,19.493,19.493,0,0,1,0-23.2,19.6,19.6,0,0,1,9.125-6.811,19.587,19.587,0,0,1,10.289-.812,19.4,19.4,0,0,1,15.194,14.483,13.584,13.584,0,0,1,.361,2.015,8.868,8.868,0,0,1,.116,1.492,7.852,7.852,0,0,1-.01,1.233" transform="translate(52.012 17.648)" fill="#263238"/>
            <path id="Trazado_697695" data-name="Trazado 697695" d="M140.057,58.154c-.077.08-.534-.3-1.372-.7a7.9,7.9,0,0,0-3.473-.763,7.8,7.8,0,0,0-3.444.883c-.822.429-1.261.833-1.342.756-.066-.052.254-.6,1.077-1.189a6.814,6.814,0,0,1,7.43-.13c.844.55,1.189,1.087,1.124,1.143" transform="translate(49.46 21.227)" fill="#263238"/>
            <path id="Trazado_697696" data-name="Trazado 697696" d="M108.164,60.028c.119.159-3.752,3.249-8.644,6.9s-8.954,6.485-9.073,6.327,3.75-3.248,8.644-6.9,8.954-6.484,9.073-6.325" transform="translate(34.301 22.763)" fill="#263238"/>
            <g id="Grupo_952252" data-name="Grupo 952252" transform="translate(125.837 172.557)" opacity="0.3">
              <g id="Grupo_952251" data-name="Grupo 952251">
                <g id="Grupo_952250" data-name="Grupo 952250" clip-path="url(#clip-path-21)">
                  <path id="Trazado_697697" data-name="Trazado 697697" d="M91.543,125.11c-1.919,18.719,5.2,38.475,20.211,49.818,1.178.891,2.656,1.772,4.045,1.272a4.455,4.455,0,0,0,2.1-2.161,36.569,36.569,0,0,0,4.476-24.051c-2.378,6.26-4.418,12.4-6.818,18.954C102.471,161,94.317,144.11,91.543,125.11" transform="translate(-91.236 -125.11)"/>
                </g>
              </g>
            </g>
            <g id="Grupo_952255" data-name="Grupo 952255" transform="translate(176.969 170.844)" opacity="0.3">
              <g id="Grupo_952254" data-name="Grupo 952254">
                <g id="Grupo_952253" data-name="Grupo 952253" clip-path="url(#clip-path-22)">
                  <path id="Trazado_697698" data-name="Trazado 697698" d="M128.309,168.142l11.015-4.023,1.825,18.632s11.888-21.667,16.807-31.552,2.389-27.331,2.389-27.331,1.76,15.2-10.153,34.579L141.2,173.061v-15.3Z" transform="translate(-128.309 -123.868)"/>
                </g>
              </g>
            </g>
            <g id="Grupo_952258" data-name="Grupo 952258" transform="translate(9.961 307.528)" opacity="0.3">
              <g id="Grupo_952257" data-name="Grupo 952257">
                <g id="Grupo_952256" data-name="Grupo 952256" clip-path="url(#clip-path-23)">
                  <path id="Trazado_697699" data-name="Trazado 697699" d="M46.074,225.255c-4.913-2.32-10.565-2.632-15.962-2-5.7.663-11.422,2.408-15.887,6.012s-7.495,9.281-6.936,14.992l.552.079c3.843-10.4,11.489-17.974,21.348-18.889s19.48,3.472,26.248,10.7c-.658-5.393-4.449-8.571-9.362-10.89" transform="translate(-7.222 -222.969)"/>
                </g>
              </g>
            </g>
            <g id="Grupo_952261" data-name="Grupo 952261" transform="translate(286.626 312.672)" opacity="0.3">
              <g id="Grupo_952260" data-name="Grupo 952260">
                <g id="Grupo_952259" data-name="Grupo 952259" clip-path="url(#clip-path-24)">
                  <path id="Trazado_697700" data-name="Trazado 697700" d="M248.589,234.478a25.237,25.237,0,0,0-14.228-7.331,31.976,31.976,0,0,0-26.546,7.684l2.1-1.706a33.488,33.488,0,0,1,17.678-4.8,25.584,25.584,0,0,1,16.852,6.732c4.117,3.924,6.593,9.222,8.954,14.4a18.043,18.043,0,0,0-4.811-14.973" transform="translate(-207.814 -226.698)"/>
                </g>
              </g>
            </g>
            <path id="Trazado_697701" data-name="Trazado 697701" d="M185.89,179.948a6.715,6.715,0,0,1,.494-1.506l1.567-4.009c1.335-3.379,3.165-8.051,5.1-13.243s3.6-9.928,4.8-13.358l1.434-4.058a6.729,6.729,0,0,1,.61-1.462,6.756,6.756,0,0,1-.343,1.546c-.265.983-.68,2.4-1.219,4.132-1.076,3.476-2.672,8.244-4.607,13.45s-3.845,9.853-5.3,13.188c-.728,1.666-1.337,3.007-1.778,3.924a6.784,6.784,0,0,1-.752,1.4" transform="translate(70.495 53.97)" fill="#263238"/>
            <path id="Trazado_697702" data-name="Trazado 697702" d="M61.471,178.681c-.194.04-1.694-6.524-3.347-14.659s-2.838-14.763-2.644-14.8,1.692,6.522,3.347,14.66,2.839,14.762,2.644,14.8" transform="translate(21.032 56.59)" fill="#263238"/>
            <path id="Trazado_697703" data-name="Trazado 697703" d="M59.321,254.769c.436.221-5.054-42.98-5.054-42.98s3.465-32.783,5.412-34.3l.05-11.566s5.362-3.248,6.8,2c0,0,4.754-4.128,5.586,5.7s1.005,19.869,1.005,19.869L83.7,219.947l1.742.88s2.273-20.729,3.6-23.779,2.229-10.468,7.245-9.355,5.434,5.263,4.532,12.027-2.025,13.744-1.607,18.111,2.4,13.983,1.793,21.62-4.793,15.7-9.183,21.355-12.777,17.356-17.336,20.882c-1.593,1.23-15.165-26.917-15.165-26.917" transform="translate(20.58 62.548)" fill="#ffbe9d"/>
            <path id="Trazado_697704" data-name="Trazado 697704" d="M63.109,216.006a9.045,9.045,0,0,1,.029-1.85c.091-1.327.207-3.009.345-5.018.323-4.236.818-10.081,1.41-16.533.3-3.218.594-6.282.861-9.093a16.219,16.219,0,0,0,.048-3.9,5.538,5.538,0,0,0-1.319-2.981,5.942,5.942,0,0,0-4.32-1.9,11.38,11.38,0,0,0-1.8.23c-.01-.022.137-.1.429-.226a4.732,4.732,0,0,1,1.363-.284,6.073,6.073,0,0,1,4.7,1.83,6.007,6.007,0,0,1,1.535,3.234,16.287,16.287,0,0,1,.022,4.052c-.248,2.812-.52,5.88-.8,9.1-.592,6.452-1.167,12.289-1.619,16.512-.229,2-.421,3.677-.572,5a9.171,9.171,0,0,1-.308,1.823" transform="translate(22.133 66.156)" fill="#eb996e"/>
            <path id="Trazado_697705" data-name="Trazado 697705" d="M67.6,191.768a14.93,14.93,0,0,0-1.873,3.411c-.854,2.252-1.16,5.636-1.76,9.324-.57,3.694-1.125,7.031-1.563,9.441a21.725,21.725,0,0,1-.855,3.878,21.78,21.78,0,0,1,.353-3.956c.309-2.43.785-5.779,1.356-9.473.6-3.67.982-7.082,1.994-9.4a8.948,8.948,0,0,1,1.53-2.52c.463-.523.794-.732.818-.706" transform="translate(23.331 72.726)" fill="#eb996e"/>
            <path id="Trazado_697706" data-name="Trazado 697706" d="M63.115,166.683a5.337,5.337,0,0,1,.368,1.358c.193.883.433,2.168.7,3.763.528,3.187,1.1,7.618,1.47,12.536s.441,9.388.389,12.619c-.026,1.615-.074,2.921-.137,3.823a5.281,5.281,0,0,1-.164,1.4,45.963,45.963,0,0,1-.208-5.219c-.076-3.221-.236-7.667-.6-12.568s-.859-9.321-1.256-12.518a45.89,45.89,0,0,1-.561-5.193" transform="translate(23.927 63.213)" fill="#eb996e"/>
            <path id="Trazado_697707" data-name="Trazado 697707" d="M86.993,196.585c.1.163-1.546.931-3.564.3-2.025-.6-2.967-2.161-2.789-2.239.159-.138,1.219,1.032,3,1.552,1.767.561,3.3.182,3.354.385" transform="translate(30.574 73.815)" fill="#eb996e"/>
            <path id="Trazado_697708" data-name="Trazado 697708" d="M76.309,226.171,48.354,237.919H31.7S15.224,243.06,12.689,258.5s-2.9,23.392,4.345,25.3,27.7,2.123,37.838-1.243,36.695-24.793,36.695-24.793l2.56-15.5Z" transform="translate(4.186 85.774)" fill="#ffbe9d"/>
            <path id="Trazado_697709" data-name="Trazado 697709" d="M65.421,245.521c-.036.033-.316-.226-.794-.73a17.207,17.207,0,0,1-1.816-2.309,31.583,31.583,0,0,1-3.9-8.842,52.318,52.318,0,0,1-1.723-9.5,17.778,17.778,0,0,1-.109-3.994,28.711,28.711,0,0,1,.612,3.936,71.127,71.127,0,0,0,1.909,9.361,36.948,36.948,0,0,0,3.644,8.768c1.257,2.088,2.28,3.221,2.181,3.31" transform="translate(21.622 83.489)" fill="#eb996e"/>
            <path id="Trazado_697710" data-name="Trazado 697710" d="M75.411,252.628A28.844,28.844,0,0,0,77,246.635a19.308,19.308,0,0,0-3.756-14.028c-1.7-2.381-3.608-4.452-5.216-6.458a29.917,29.917,0,0,1-3.779-5.713,14.981,14.981,0,0,1-1.4-4.409,5.083,5.083,0,0,1-.048-1.694,19.148,19.148,0,0,0,1.9,5.873,32.058,32.058,0,0,0,3.838,5.524c1.621,1.964,3.553,4.027,5.291,6.46a20.137,20.137,0,0,1,3.487,7.648,19.493,19.493,0,0,1,.186,6.866,17.715,17.715,0,0,1-1.281,4.441,10.018,10.018,0,0,1-.564,1.121c-.143.248-.229.372-.251.361" transform="translate(23.802 81.284)" fill="#eb996e"/>
            <path id="Trazado_697711" data-name="Trazado 697711" d="M44.26,200.2c-.177.091-3.226-5.459-6.812-12.394s-6.351-12.634-6.175-12.725,3.226,5.458,6.813,12.4,6.35,12.632,6.173,12.723" transform="translate(11.857 66.398)" fill="#fff"/>
            <path id="Trazado_697712" data-name="Trazado 697712" d="M73.469,162.408c-.181-.081,1.7-4.707,4.211-10.333s4.685-10.124,4.866-10.042-1.7,4.706-4.211,10.335-4.685,10.122-4.866,10.041" transform="translate(27.858 53.864)" fill="#fff"/>
            <path id="Trazado_697713" data-name="Trazado 697713" d="M108.9,184.513c-.153.127-2.99-3.048-6.335-7.089s-5.936-7.422-5.783-7.549,2.989,3.047,6.336,7.091,5.935,7.42,5.782,7.547" transform="translate(36.701 64.423)" fill="#fff"/>
            <path id="Trazado_697714" data-name="Trazado 697714" d="M98.182,216.9c-.161-.116,1.978-3.338,4.774-7.194s5.2-6.891,5.357-6.775-1.976,3.338-4.775,7.2-5.2,6.889-5.356,6.773" transform="translate(37.232 76.959)" fill="#fff"/>
            <path id="Trazado_697715" data-name="Trazado 697715" d="M90.591,264.587a13.365,13.365,0,0,1-1.619-2.771c-.906-1.76-2.08-4.23-3.262-7.009s-2.143-5.34-2.782-7.213a13.389,13.389,0,0,1-.87-3.09,15.272,15.272,0,0,1,1.345,2.909c.866,2.074,1.866,4.469,2.969,7.113,1.136,2.63,2.167,5.011,3.059,7.074a15.236,15.236,0,0,1,1.16,2.987" transform="translate(31.114 92.726)" fill="#fff"/>
            <path id="Trazado_697716" data-name="Trazado 697716" d="M121.048,240.4c-.037.194-3.787-.367-8.373-1.255s-8.275-1.766-8.237-1.96,3.786.367,8.373,1.255,8.274,1.765,8.237,1.96" transform="translate(39.607 89.937)" fill="#fff"/>
            <path id="Trazado_697717" data-name="Trazado 697717" d="M138.385,201.411c-.145-.135,3.429-4.227,7.984-9.139s8.365-8.786,8.511-8.651-3.429,4.226-7.986,9.139-8.365,8.786-8.51,8.651" transform="translate(52.48 69.636)" fill="#fff"/>
            <path id="Trazado_697718" data-name="Trazado 697718" d="M165.746,260.317c-.153.126-4.614-5.036-9.961-11.528s-9.561-11.859-9.408-11.984,4.612,5.034,9.962,11.528,9.56,11.859,9.406,11.984" transform="translate(55.511 89.806)" fill="#fff"/>
            <path id="Trazado_697719" data-name="Trazado 697719" d="M28.064,229.418c.1.2-3.974,2.265-8.413,5.673-4.462,3.382-7.531,6.765-7.695,6.615a10.4,10.4,0,0,1,1.877-2.342,44.618,44.618,0,0,1,11.475-8.755,10.444,10.444,0,0,1,2.756-1.19" transform="translate(4.533 87.001)" fill="#fff"/>
            <path id="Trazado_697720" data-name="Trazado 697720" d="M33.822,207.319c.166.11-1.285,2.582-3.24,5.52s-3.673,5.233-3.837,5.122,1.284-2.581,3.24-5.52,3.672-5.231,3.837-5.122" transform="translate(10.138 78.623)" fill="#fff"/>
            <path id="Trazado_697721" data-name="Trazado 697721" d="M51.225,232.259c-.157.092-1.594-2.32-2.345-5.666-.77-3.342-.516-6.139-.334-6.122.214,0,.285,2.723,1.034,5.964.725,3.245,1.837,5.732,1.644,5.825" transform="translate(18.339 83.612)" fill="#fff"/>
            <path id="Trazado_697722" data-name="Trazado 697722" d="M56.138,160.118c.028.2-2.352.7-5.313,1.119s-5.387.6-5.416.407,2.352-.7,5.314-1.119,5.387-.6,5.415-.407" transform="translate(17.221 60.694)" fill="#fff"/>
            <path id="Trazado_697723" data-name="Trazado 697723" d="M69.787,135.375c.1.174-1.987,1.512-4.652,2.989s-4.9,2.532-5,2.36,1.986-1.512,4.652-2.989,4.9-2.534,5-2.36" transform="translate(22.805 51.333)" fill="#fff"/>
            <path id="Trazado_697724" data-name="Trazado 697724" d="M109.111,149.451c-.157.12-2.541-2.742-5.32-6.393s-4.907-6.709-4.75-6.829,2.541,2.742,5.321,6.393,4.906,6.709,4.749,6.829" transform="translate(37.558 51.663)" fill="#fff"/>
            <path id="Trazado_697725" data-name="Trazado 697725" d="M158.411,174.368c-.134.126-2.641-2.455-4.967-6.211-2.343-3.747-3.55-7.136-3.378-7.2.2-.084,1.68,3.132,3.987,6.822,2.288,3.7,4.518,6.452,4.357,6.59" transform="translate(56.905 61.041)" fill="#fff"/>
            <path id="Trazado_697726" data-name="Trazado 697726" d="M176.857,176.942c.181.081-1.092,3.276-2.843,7.135s-3.317,6.92-3.5,6.837,1.092-3.276,2.843-7.135,3.317-6.92,3.5-6.837" transform="translate(64.661 67.104)" fill="#fff"/>
            <path id="Trazado_697727" data-name="Trazado 697727" d="M181.447,155.436c-.153.127-3.273-3.371-6.968-7.812s-6.569-8.146-6.416-8.273,3.272,3.371,6.968,7.813,6.568,8.144,6.416,8.271" transform="translate(63.734 52.847)" fill="#fff"/>
            <path id="Trazado_697728" data-name="Trazado 697728" d="M148.944,133.633c-.2.008-.477-2.985-.623-6.684s-.1-6.7.1-6.713.477,2.985.623,6.685.1,6.7-.1,6.711" transform="translate(56.217 45.599)" fill="#fff"/>
            <path id="Trazado_697729" data-name="Trazado 697729" d="M177.115,128.651c.026.2-3.787.869-8.515,1.5s-8.586.986-8.612.79,3.786-.869,8.517-1.5,8.584-.986,8.611-.789" transform="translate(60.674 48.769)" fill="#fff"/>
            <path id="Trazado_697730" data-name="Trazado 697730" d="M212.309,161.464c-.179.087-2.473-4.287-5.124-9.766s-4.656-9.994-4.478-10.081,2.473,4.287,5.125,9.768,4.655,9.993,4.477,10.08" transform="translate(76.871 53.707)" fill="#fff"/>
            <path id="Trazado_697731" data-name="Trazado 697731" d="M203.4,183.934c-.194-.039.343-3.554,1.2-7.851s1.712-7.749,1.906-7.71-.343,3.553-1.2,7.851-1.712,7.749-1.906,7.71" transform="translate(77.124 63.854)" fill="#fff"/>
            <path id="Trazado_697732" data-name="Trazado 697732" d="M222.742,204.194c-.188.066-2.019-4.68-4.089-10.6s-3.6-10.769-3.412-10.835,2.018,4.678,4.089,10.6,3.6,10.769,3.412,10.835" transform="translate(81.622 69.31)" fill="#fff"/>
            <path id="Trazado_697733" data-name="Trazado 697733" d="M221.806,211.122c-.035.177-3.342-.513-6.967-2.49-3.638-1.959-6.022-4.35-5.893-4.477.141-.165,2.683,1.936,6.236,3.845,3.538,1.931,6.687,2.913,6.625,3.121" transform="translate(79.24 77.421)" fill="#fff"/>
            <path id="Trazado_697734" data-name="Trazado 697734" d="M241.595,236.723c-.181.081-1.288-2.014-2.473-4.676s-2-4.887-1.818-4.968,1.288,2.012,2.474,4.676,2,4.887,1.816,4.968" transform="translate(89.986 86.118)" fill="#fff"/>
            <path id="Trazado_697735" data-name="Trazado 697735" d="M110.065,272.129c-.2.023-.677-2.711-1.072-6.107s-.556-6.167-.359-6.19.677,2.712,1.072,6.107.556,6.167.359,6.19" transform="translate(41.167 98.539)" fill="#fff"/>
            <path id="Trazado_697736" data-name="Trazado 697736" d="M177.59,270.274c-.194-.041.21-2.716.9-5.972s1.412-5.865,1.605-5.823-.21,2.716-.9,5.974-1.411,5.863-1.605,5.822" transform="translate(67.331 98.026)" fill="#fff"/>
          </g>
        </g>
      </g>
    </g>
  </g>
</svg>
