<svg xmlns="http://www.w3.org/2000/svg" xmlns:xlink="http://www.w3.org/1999/xlink" width="142.623" height="142.623" viewBox="0 0 142.623 142.623">
  <defs>
    <filter id="Trazado_700688" x="0" y="0" width="142.623" height="142.623" filterUnits="userSpaceOnUse">
      <feOffset dy="3" input="SourceAlpha"/>
      <feGaussianBlur stdDeviation="3" result="blur"/>
      <feFlood flood-opacity="0.161"/>
      <feComposite operator="in" in2="blur"/>
      <feComposite in="SourceGraphic"/>
    </filter>
  </defs>
  <g id="Grupo_991071" data-name="Grupo 991071" transform="translate(9 6)">
    <g transform="matrix(1, 0, 0, 1, -9, -6)" filter="url(#Trazado_700688)">
      <path id="Trazado_700688-2" data-name="Trazado 700688" d="M62.311,0A62.311,62.311,0,1,1,0,62.311,62.311,62.311,0,0,1,62.311,0Z" transform="translate(9 6)" fill="#0098e8"/>
    </g>
    <g id="XMLID_116_" transform="translate(12.185 12.09)">
      <path id="XMLID_2_" d="M32.183,9.37,60.942,58.646,32.183,107.922a22.781,22.781,0,0,1-22.2-22.605L6.253,42.124A33.633,33.633,0,0,1,32.183,9.37Z" transform="translate(-5.612 -7.523)" fill="#ffdecf"/>
      <path id="XMLID_227_" d="M389,192.59h8.148v5.915H389Z" transform="translate(-312.892 -154.617)" fill="#300253"/>
      <path id="XMLID_226_" d="M392.8,260.971h7.4v5.915h-7.4Z" transform="translate(-315.944 -209.515)" fill="#300253"/>
      <path id="XMLID_219_" d="M292.878,59.225a51.765,51.765,0,0,0-15.429-18.242l-3.929,1.226,6.709,40v10.6a9.095,9.095,0,0,0,18.19,0V82.466a51.763,51.763,0,0,0-5.54-23.241Z" transform="translate(-220.181 -32.902)" fill="#606075"/>
      <g id="Grupo_896570" data-name="Grupo 896570" transform="translate(12.728 0.96)">
        <path id="XMLID_3_" d="M169.3,62.315c-2.917,3.189-8.537,10.742-8.317,18.648.006.213.01.428.01.643a22.71,22.71,0,0,1-23.033,22.707q-.1,0-.191-.006V5.755a33.7,33.7,0,0,1,41.385,32.77c0,9.291-4.04,17.439-9.853,23.79Z" transform="translate(-123.92 -4.867)" fill="#ffbeaa"/>
        <path id="XMLID_4_" d="M95.67,322.678l1.991,2.7-1.991,3.283c-.137,0-.275-.01-.414-.02a10.758,10.758,0,0,1-9.924-9.846l5.954-.46A4.751,4.751,0,0,0,95.67,322.678Z" transform="translate(-81.826 -256.524)" fill="#ffbeaa"/>
        <path id="XMLID_5_" d="M73.524,101.608a8.49,8.49,0,0,0,1.029,4.34A14.707,14.707,0,0,1,81.4,99.627l1.991,3.4L81.4,106.708a8.447,8.447,0,0,0-2.622,5.646l-.37,6.858-4.762-4.949c-3.45-3.583-6.09-6.791-6.09-12.655A20.979,20.979,0,0,1,81.4,81.9l1.991,3.684L81.4,88.433a14.973,14.973,0,0,0-7.872,13.175Z" transform="translate(-67.552 -66.715)" fill="#ffbeaa"/>
      </g>
      <path id="XMLID_6_" d="M158.071,179.88a14.405,14.405,0,0,1-7.876,12.874,2.434,2.434,0,0,0-1.372,2.208c0,.074,0,.149,0,.225a10.755,10.755,0,0,1-3.408,7.838,10.6,10.6,0,0,1-7.3,2.881c-.12,0-.239,0-.358-.008V199.92a4.742,4.742,0,0,0,5.09-4.732c0-.032,0-.066,0-.1a8.365,8.365,0,0,1,4.623-7.651,8.481,8.481,0,1,0-9.711-13.681v-7.081a14.139,14.139,0,0,1,5.293-1.244,14.456,14.456,0,0,1,15.015,14.447Z" transform="translate(-111.192 -132.806)" fill="#ffa68d"/>
      <path id="XMLID_7_" d="M158.92,81.044l-4.011,4.425a14.958,14.958,0,0,0-17.145-2.078V76.863a20.951,20.951,0,0,1,21.156,4.181Z" transform="translate(-111.193 -60.714)" fill="#ffa68d"/>
      <path id="XMLID_458_" d="M29.572,5.16l1.972,2.934L29.572,11.31A29.154,29.154,0,0,0,8.916,39.146V57.8H10.48v5.915H3V39.144A35.017,35.017,0,0,1,29.572,5.16Z" transform="translate(-3.001 -4.143)" fill="#392e6e"/>
      <path id="XMLID_461_" d="M181.225,35.018c0,8.847-3.494,17.355-10.111,24.6l-3.257,3.916-4.547-3.784,3.393-4.072c3.926-4.292,8.607-11.361,8.607-20.665a29.1,29.1,0,0,0-37.549-27.85V1.017A35.3,35.3,0,0,1,146.208,0h0A35.057,35.057,0,0,1,181.225,35.018Z" transform="translate(-111.19 0)" fill="#300253"/>
      <path id="XMLID_239_" d="M43.707,240.537a10.281,10.281,0,1,0,10.281,10.281,10.292,10.292,0,0,0-10.281-10.281Z" transform="translate(-27.427 -193.11)" fill="#300253"/>
      <path id="XMLID_216_" d="M414.76,47.511h-5.915a16.571,16.571,0,0,0-16.552-16.552V25.044A22.493,22.493,0,0,1,414.76,47.511Z" transform="translate(-315.536 -20.106)" fill="#fff"/>
      <path id="XMLID_212_" d="M402.815,96.147H396.9a4.613,4.613,0,0,0-4.607-4.607V85.625A10.534,10.534,0,0,1,402.815,96.147Z" transform="translate(-315.535 -68.742)" fill="#fff"/>
    </g>
  </g>
</svg>
