<svg xmlns="http://www.w3.org/2000/svg" xmlns:xlink="http://www.w3.org/1999/xlink" width="137.302" height="129.307" viewBox="0 0 137.302 129.307">
  <defs>
    <filter id="Trazado_695376" x="0" y="0" width="137.302" height="129.307" filterUnits="userSpaceOnUse">
      <feOffset dy="3" input="SourceAlpha"/>
      <feGaussianBlur stdDeviation="3" result="blur"/>
      <feFlood flood-opacity="0.161"/>
      <feComposite operator="in" in2="blur"/>
      <feComposite in="SourceGraphic"/>
    </filter>
  </defs>
  <g id="lenguaje-de-senas" transform="translate(9 0.644)">
    <g transform="matrix(1, 0, 0, 1, -9, -0.64)" filter="url(#Trazado_695376)">
      <path id="Trazado_695376-2" data-name="Trazado 695376" d="M70.651,22A59.657,59.657,0,0,0,40.8,133.307l.243-.14V101.874h-13.7a.974.974,0,0,1-.913-1.314l8.429-22.616A11.742,11.742,0,0,1,45.82,70.336H95.483a11.742,11.742,0,0,1,10.956,7.609l8.429,22.616a.974.974,0,0,1-.913,1.314h-3.707v24.06l.243.109A59.648,59.648,0,0,0,70.651,22Z" transform="translate(-2 -16)" fill="#0098e8"/>
    </g>
    <g id="Grupo_896592" data-name="Grupo 896592" transform="translate(15.129 0)">
      <path id="Trazado_695377" data-name="Trazado 695377" d="M377.98,350.062v31.51a59.865,59.865,0,0,0,10.141-7.34V350.062Z" transform="translate(-303.759 -264.831)" fill="#ffbd86"/>
      <path id="Trazado_695378" data-name="Trazado 695378" d="M162.105,249.91l-8.429-22.616a11.935,11.935,0,0,0-11.184-7.767H92.83a11.935,11.935,0,0,0-11.184,7.767L73.217,249.91a1.217,1.217,0,0,0,1.141,1.642H87.813v31.189a59.707,59.707,0,0,0,59.79-.056V251.553h13.361a1.218,1.218,0,0,0,1.141-1.642Z" transform="translate(-73.139 -166.078)" fill="#af66da"/>
      <path id="Trazado_695379" data-name="Trazado 695379" d="M95.974,219.526H92.829a11.935,11.935,0,0,0-11.184,7.767l-8.429,22.616a1.217,1.217,0,0,0,1.141,1.643h7.582a1.217,1.217,0,0,1-1.141-1.643l8.429-22.616a11.934,11.934,0,0,1,6.747-6.912v-.855Z" transform="translate(-73.139 -166.077)" fill="#9857bd"/>
      <g id="Grupo_896589" data-name="Grupo 896589" transform="translate(19.713 0)">
        <g id="Grupo_896577" data-name="Grupo 896577" transform="translate(3.122)">
          <g id="Grupo_896573" data-name="Grupo 896573" transform="translate(26.652 1.881)">
            <path id="Trazado_695380" data-name="Trazado 695380" d="M280.336,15.246v3.09a4.229,4.229,0,0,1,1.587-.31,4.1,4.1,0,0,1,1.227.187,9.12,9.12,0,0,1,6.416,8.741v5.111h1.544a6.223,6.223,0,0,1,3.382,1V22.823a15.1,15.1,0,0,0-15.1-15.1h-3a9.154,9.154,0,0,1,3.942,7.522Z" transform="translate(-276.394 -7.724)" fill="#883f2e"/>
            <path id="Trazado_695381" data-name="Trazado 695381" d="M295.575,164.58h-2.481A14.916,14.916,0,0,1,282.8,173.8v5.781a6.186,6.186,0,0,1-.507,2.457h14.227a2.435,2.435,0,0,0,2.435-2.435V163.584a6.224,6.224,0,0,1-3.382,1Z" transform="translate(-280.859 -125.636)" fill="#883f2e"/>
          </g>
          <g id="Grupo_896575" data-name="Grupo 896575" transform="translate(0 0)">
            <path id="Trazado_695382" data-name="Trazado 695382" d="M170.309,26.221h1.544V25.64a4.291,4.291,0,0,1,4.286-4.286h9.536a4.759,4.759,0,0,0,3.246-1.273l7.274-6.745a4.328,4.328,0,0,1,1.569-.93v-3a9.4,9.4,0,0,0-9.4-9.4h-6.337a15.1,15.1,0,0,0-15.1,15.1V27.217a6.223,6.223,0,0,1,3.382-1Z" transform="translate(-166.927 0)" fill="#a44f3e"/>
            <g id="Grupo_896574" data-name="Grupo 896574" transform="translate(0 39.828)">
              <path id="Trazado_695383" data-name="Trazado 695383" d="M183.082,179.578V173.8a14.917,14.917,0,0,1-10.291-9.216h-2.481a6.221,6.221,0,0,1-3.382-1V179.6a2.435,2.435,0,0,0,2.435,2.435h14.227A6.184,6.184,0,0,1,183.082,179.578Z" transform="translate(-166.927 -163.583)" fill="#a44f3e"/>
            </g>
          </g>
          <g id="Grupo_896576" data-name="Grupo 896576">
            <path id="Trazado_695384" data-name="Trazado 695384" d="M170.309,25.978h1.3V25.64a4.528,4.528,0,0,1,2.882-4.216V15.1A15.1,15.1,0,0,1,188.911.017c-.182-.01-.364-.017-.549-.017h-6.337a15.1,15.1,0,0,0-15.1,15.1V26.926A6.475,6.475,0,0,1,170.309,25.978Z" transform="translate(-166.927 0)" fill="#883f2e"/>
            <path id="Trazado_695385" data-name="Trazado 695385" d="M174.492,180.509V169.169a15.072,15.072,0,0,1-1.871-3.437h-2.312a6.474,6.474,0,0,1-3.382-.948v15.725a2.435,2.435,0,0,0,2.435,2.435h7.565A2.435,2.435,0,0,1,174.492,180.509Z" transform="translate(-166.927 -124.663)" fill="#883f2e"/>
          </g>
        </g>
        <path id="Trazado_695386" data-name="Trazado 695386" d="M241.336,205.781h-5.187a14.821,14.821,0,0,1-3.871-.515v5.846a6.464,6.464,0,0,0,12.928,0v-5.846A14.822,14.822,0,0,1,241.336,205.781Z" transform="translate(-213.245 -155.289)" fill="#f6a96c"/>
        <path id="Trazado_695387" data-name="Trazado 695387" d="M238.785,211.905v-5.088h-2.635a15.105,15.105,0,0,1-3.871-.5v5.591A6.463,6.463,0,0,0,242,217.49a6.46,6.46,0,0,1-3.211-5.585Z" transform="translate(-213.245 -156.082)" fill="#ea9b58"/>
        <g id="Grupo_896578" data-name="Grupo 896578" transform="translate(0 25.978)">
          <path id="Trazado_695388" data-name="Trazado 695388" d="M162.153,116.355V106.7h-1.544a6.5,6.5,0,0,0-6.5,6.5v2.081a6.5,6.5,0,0,0,6.5,6.5h2.577a14.77,14.77,0,0,1-1.033-5.431Z" transform="translate(-154.104 -106.696)" fill="#ea9b58"/>
          <path id="Trazado_695389" data-name="Trazado 695389" d="M328.829,106.7h-1.544v9.659a14.773,14.773,0,0,1-1.033,5.432h2.577a6.5,6.5,0,0,0,6.5-6.5V113.2A6.5,6.5,0,0,0,328.829,106.7Z" transform="translate(-284.338 -106.696)" fill="#f6a96c"/>
        </g>
        <g id="Grupo_896579" data-name="Grupo 896579" transform="translate(7.806 11.938)">
          <path id="Trazado_695390" data-name="Trazado 695390" d="M210.583,50.252a4.486,4.486,0,0,1,4.378-1.02,9.407,9.407,0,0,1,6.587,8.973V72.732a15.1,15.1,0,0,1-15.1,15.1h-5.187a15.1,15.1,0,0,1-15.1-15.1v-10a4.529,4.529,0,0,1,4.53-4.53h9.537A4.53,4.53,0,0,0,203.309,57Z" transform="translate(-186.163 -49.034)" fill="#ffbd86"/>
        </g>
        <g id="Grupo_896580" data-name="Grupo 896580" transform="translate(7.805 21.11)">
          <path id="Trazado_695391" data-name="Trazado 695391" d="M193.833,101.127V91.062a4.563,4.563,0,0,1,3.209-4.357h-6.351a4.53,4.53,0,0,0-4.53,4.53v10a15.1,15.1,0,0,0,15.1,15.1h5.187c.436,0,.866-.023,1.292-.059A15.2,15.2,0,0,1,193.833,101.127Z" transform="translate(-186.162 -86.705)" fill="#f6a96c"/>
        </g>
        <g id="Grupo_896586" data-name="Grupo 896586" transform="translate(12.948 25.51)">
          <g id="Grupo_896581" data-name="Grupo 896581" transform="translate(8.598 1.046)">
            <path id="Trazado_695392" data-name="Trazado 695392" d="M247.3,119.4a1.826,1.826,0,0,0,1.017-3.344l-1.422-.95,1.969-3.257a1.826,1.826,0,0,0-3.125-1.89l-2.872,4.75a1.826,1.826,0,0,0,.548,2.463l2.873,1.92a1.819,1.819,0,0,0,1.013.308Z" transform="translate(-242.6 -109.073)" fill="#ca6e59"/>
          </g>
          <g id="Grupo_896584" data-name="Grupo 896584">
            <g id="Grupo_896582" data-name="Grupo 896582" transform="translate(18.859)">
              <ellipse id="Elipse_4781" data-name="Elipse 4781" cx="3.122" cy="3.122" rx="3.122" ry="3.122" fill="#ca6e59"/>
            </g>
            <g id="Grupo_896583" data-name="Grupo 896583">
              <ellipse id="Elipse_4782" data-name="Elipse 4782" cx="3.122" cy="3.122" rx="3.122" ry="3.122" fill="#ca6e59"/>
            </g>
          </g>
          <g id="Grupo_896585" data-name="Grupo 896585" transform="translate(4.481 14.535)">
            <path id="Trazado_695393" data-name="Trazado 695393" d="M233.761,170.708a10.625,10.625,0,0,1-7.536-3.116,1.826,1.826,0,1,1,2.583-2.583,7.012,7.012,0,0,0,9.906,0,1.826,1.826,0,0,1,2.583,2.583A10.623,10.623,0,0,1,233.761,170.708Z" transform="translate(-225.69 -164.474)" fill="#ca6e59"/>
          </g>
        </g>
        <g id="Grupo_896588" data-name="Grupo 896588" transform="translate(29.155 19.965)">
          <g id="Grupo_896587" data-name="Grupo 896587">
            <path id="Trazado_695394" data-name="Trazado 695394" d="M283.737,85.652h-8.061a1.826,1.826,0,1,1,0-3.652h8.061a1.826,1.826,0,1,1,0,3.652Z" transform="translate(-273.85 -82)" fill="#a44f3e"/>
          </g>
        </g>
      </g>
      <g id="Grupo_896590" data-name="Grupo 896590" transform="translate(4.777 69.916)">
        <path id="Trazado_695395" data-name="Trazado 695395" d="M146.871,300.056l-8.083,4.667-.706-1.222,10.8-6.236a1.772,1.772,0,0,0,.719-2.346,1.725,1.725,0,0,0-2.382-.677l-10.863,6.272-.706-1.222,10.8-6.236a1.772,1.772,0,0,0,.719-2.346,1.725,1.725,0,0,0-2.382-.677L133.927,296.3l-.706-1.222,8.085-4.668a1.772,1.772,0,0,0,.719-2.346,1.725,1.725,0,0,0-2.382-.677L129.2,293.423l.774-2.887a2.23,2.23,0,0,0-1.446-2.727,2.17,2.17,0,0,0-2.722,1.516l-2,7.462a7.74,7.74,0,0,0-2.4,5.4l-18.751,10.826v-10.29h-9.9V321.13a5.968,5.968,0,0,0,9.02,5.128l24.954-14.852a7.722,7.722,0,0,0,7.552-.1l14.378-8.3a1.725,1.725,0,0,0,.54-2.5,1.775,1.775,0,0,0-2.328-.451Z" transform="translate(-92.757 -287.16)" fill="#ffbd86"/>
      </g>
      <g id="Grupo_896591" data-name="Grupo 896591" transform="translate(4.777 85.475)">
        <path id="Trazado_695396" data-name="Trazado 695396" d="M97.859,369.475V351.063h-5.1v18.412a5.967,5.967,0,0,0,8.518,5.393A5.921,5.921,0,0,1,97.859,369.475Z" transform="translate(-92.757 -351.063)" fill="#f6a96c"/>
      </g>
    </g>
  </g>
</svg>
