<svg xmlns="http://www.w3.org/2000/svg" xmlns:xlink="http://www.w3.org/1999/xlink" width="142.623" height="142.623" viewBox="0 0 142.623 142.623">
  <defs>
    <filter id="Trazado_700689" x="0" y="0" width="142.623" height="142.623" filterUnits="userSpaceOnUse">
      <feOffset dy="3" input="SourceAlpha"/>
      <feGaussianBlur stdDeviation="3" result="blur"/>
      <feFlood flood-opacity="0.161"/>
      <feComposite operator="in" in2="blur"/>
      <feComposite in="SourceGraphic"/>
    </filter>
  </defs>
  <g id="Grupo_896598" data-name="Grupo 896598" transform="translate(9 6)">
    <g transform="matrix(1, 0, 0, 1, -9, -6)" filter="url(#Trazado_700689)">
      <path id="Trazado_700689-2" data-name="Trazado 700689" d="M62.311,0A62.311,62.311,0,1,1,0,62.311,62.311,62.311,0,0,1,62.311,0Z" transform="translate(9 6)" fill="#0098e8"/>
    </g>
    <g id="sordo-2" transform="translate(0 0)">
      <path id="Trazado_695408" data-name="Trazado 695408" d="M59.635,22a59.633,59.633,0,0,0-44.243,99.618L68.55,140.6A59.638,59.638,0,0,0,59.635,22Z" transform="translate(0 -16.642)" fill="#0098e8"/>
      <path id="Trazado_695409" data-name="Trazado 695409" d="M219.833,34.219c-.35,2.4.627,4.786,2.9,7.1l.363,21.944c-.915.351-3.952,1.723-4.9,4.74-.791,2.518.1,5.482,2.634,8.812,3.853,5.054,6.131,14.313,7.363,21.191,1.294,7.219,1.736,13.393,1.769,13.869a9.133,9.133,0,0,0,2.27,6.744c1.852,1.925,4.689,2.811,8.44,2.636a5.079,5.079,0,0,0,1.337,3.909c1.031.943,2.576,1.218,4.6.82,8-11.227,15.248-24.493,15.248-45.507,0-30.8-15.572-49.592-36.147-53.738-1.257.761-5.3,3.49-5.878,7.475Z" transform="translate(-164.877 -20.234)" fill="#ffc7ab"/>
      <path id="Trazado_695410" data-name="Trazado 695410" d="M114.949,118.147c-11.774.785-10.742-8.987-10.742-8.987S102.545,83.772,95,73.874,97.344,60.8,97.344,60.8l-.369-22.352c-8.177-8.177,3.125-14.3,3.153-14.317a45.753,45.753,0,0,0-13.112-.844c-21.8,1.664-35.8,16.566-35.8,34.725a48.274,48.274,0,0,0,6.929,24.928A15.35,15.35,0,0,1,55.973,101.8l-.117.115a3.7,3.7,0,0,0-.48,4.727c3.543,5.243,2.129,10.117.036,13.527-.462.753-.883,1.527-1.268,2.317a60,60,0,0,0,8.251,7.562L96.409,142.1h0c.657.021,1.316.036,1.978.036a60.093,60.093,0,0,0,8.916-.664c3.935-6.247,8.858-12.09,13.5-18.644-6.733,1.567-5.85-4.678-5.85-4.678Z" transform="translate(-38.753 -17.51)" fill="#ffaa7b"/>
      <path id="Trazado_695411" data-name="Trazado 695411" d="M222.618,85.714a54.089,54.089,0,0,1,5.663,14.06A6.946,6.946,0,0,1,222,108.391a7.606,7.606,0,0,0-3.8,4.232c-.66,2.1-.147,4.517,1.516,7.195,7.176,5.03,11.918,11.614,13.51,18.883a21.875,21.875,0,0,1-3.2,17.574c-.021.029-.044.056-.066.085l.01.135a9.133,9.133,0,0,0,2.27,6.744c1.852,1.925,4.689,2.811,8.44,2.636,0,.046,0,.1,0,.147,4.557-6,8.833-13.447,10.7-21.8,4.85-21.637-1.718-54.669-28.76-58.511Z" transform="translate(-164.879 -64.851)" fill="#ffaa7b"/>
      <g id="Grupo_896594" data-name="Grupo 896594" transform="translate(29.217 20.863)">
        <path id="Trazado_695412" data-name="Trazado 695412" d="M141.786,147.827a44.943,44.943,0,0,1,4.7,3.023c-6.42-9.266,2.929-12.271,2.929-12.271h0a6.775,6.775,0,0,1-5.336-.692,56.958,56.958,0,0,0-11.257-5.02c-4.677-1.488-6.429-4.556-7.07-6.92a31.1,31.1,0,0,0-5.711,18.1C126.715,143.266,134.554,143.774,141.786,147.827Z" transform="translate(-120.037 -116.154)" fill="#fc9460"/>
        <path id="Trazado_695413" data-name="Trazado 695413" d="M172.728,374.661s-.014-.212-.045-.6c-.087.127-.175.253-.266.377-2.658,3.655-6.642,5.745-11.839,6.213a10.29,10.29,0,0,0-9.284,10.133c-.124,6.1-2.838,9.812-8.066,11.043-.493.116-.974.2-1.443.271a59.336,59.336,0,0,0,23.145,5.5c.063-.107.125-.215.185-.321a80.414,80.414,0,0,1,11.908-16,84.2,84.2,0,0,0,6.446-7.627C171.7,384.433,172.728,374.661,172.728,374.661Z" transform="translate(-136.491 -303.875)" fill="#fc9460"/>
        <path id="Trazado_695414" data-name="Trazado 695414" d="M237.709,86.586l-.013-.794c-.162-.025-.321-.055-.484-.078Q237.464,86.146,237.709,86.586Z" transform="translate(-208.691 -85.714)" fill="#fc9460"/>
      </g>
      <path id="Trazado_695415" data-name="Trazado 695415" d="M124.622,201.554c-7.2-4.033-14.97-4.661-21.937-3.838a27.208,27.208,0,0,0,1.27,8.551,18.523,18.523,0,0,0,17.126,12.689l.711.021a5.965,5.965,0,1,1-3.036,11.2c-4.926-2.656-12.142-5.224-15.555,0-5.456,8.355,4.6,10.571,2.9,17.9-.6,2.589-3.257,6.241-6.439,9.882a16.479,16.479,0,0,0-2.558,3.923,59.617,59.617,0,0,0,11.5,6.841c.3-.053.6-.113.91-.186,6.454-1.519,8.262-6.521,8.362-11.408a9.911,9.911,0,0,1,8.935-9.759c4.281-.385,8.923-1.98,12.115-6.369C146.1,231.136,144.3,212.582,124.622,201.554Z" transform="translate(-73.467 -149.353)" fill="#f4804d"/>
      <path id="Trazado_695416" data-name="Trazado 695416" d="M142.394,95.013c.734,2.419,2.59,5.431,7.223,6.9A56.556,56.556,0,0,1,160.8,106.9a7.282,7.282,0,0,0,10.711-8.1,54.867,54.867,0,0,0-5.551-13.894c-.288-.045-.574-.091-.867-.13-10.037-1.313-17.871,3.292-22.7,10.231Z" transform="translate(-107.735 -63.977)" fill="#f4804d"/>
      <path id="Trazado_695417" data-name="Trazado 695417" d="M338.989,11.548c1.2,1.661,3.411,2.5,6.586,2.5,8.757,0,20.961,22.115,21.947,23.929a4.864,4.864,0,0,0,.946,4.037,5.324,5.324,0,0,0,3.982,1.5A25.189,25.189,0,0,0,338.2,6.579a6.336,6.336,0,0,0,.793,4.969Z" transform="translate(-255.738 0)" fill="#e9efff"/>
      <path id="Trazado_695418" data-name="Trazado 695418" d="M342.945,57.014s-12.92-24.238-22.332-24.238-6.886-7.546-6.886-7.546a25.189,25.189,0,1,0,34.134,37.018c-6.217.045-4.916-5.234-4.916-5.234Z" transform="translate(-230.777 -19.089)" fill="#bec8f7"/>
      <g id="Grupo_896595" data-name="Grupo 896595" transform="translate(85.45 11.207)">
        <path id="Trazado_695419" data-name="Trazado 695419" d="M371.758,72.761,352.312,53.315a4.26,4.26,0,0,1,6.024-6.024l19.446,19.446a4.26,4.26,0,0,1-6.024,6.024Z" transform="translate(-351.064 -46.044)" fill="#ffa031"/>
      </g>
      <g id="Grupo_896596" data-name="Grupo 896596" transform="translate(85.45 11.207)">
        <path id="Trazado_695420" data-name="Trazado 695420" d="M352.312,72.762a4.259,4.259,0,0,1,0-6.024l19.446-19.446a4.26,4.26,0,0,1,6.024,6.024L358.335,72.762A4.26,4.26,0,0,1,352.312,72.762Z" transform="translate(-351.064 -46.045)" fill="#ffa031"/>
      </g>
      <g id="Grupo_896597" data-name="Grupo 896597" transform="translate(0 50.354)">
        <path id="Trazado_695421" data-name="Trazado 695421" d="M408.929,246.891a60.319,60.319,0,0,0-.35-6.469c-5.342,1.906-11.256,5.886-12.612,14.205-1.695,10.4-7.429,20.855-11.207,26.863a12.456,12.456,0,0,0,.034,13.321A59.544,59.544,0,0,0,408.929,246.891Z" transform="translate(-289.66 -232.257)" fill="#4db1f0"/>
        <path id="Trazado_695422" data-name="Trazado 695422" d="M1.651,235.5c19.084-1.29,5.409-21.676.16-28.627a60.056,60.056,0,0,0-.16,28.627Z" transform="translate(0 -206.876)" fill="#4db1f0"/>
      </g>
    </g>
  </g>
</svg>
