<svg xmlns="http://www.w3.org/2000/svg" xmlns:xlink="http://www.w3.org/1999/xlink" width="142.623" height="142.623" viewBox="0 0 142.623 142.623">
  <defs>
    <filter id="Trazado_700687" x="0" y="0" width="142.623" height="142.623" filterUnits="userSpaceOnUse">
      <feOffset dy="3" input="SourceAlpha"/>
      <feGaussianBlur stdDeviation="3" result="blur"/>
      <feFlood flood-opacity="0.161"/>
      <feComposite operator="in" in2="blur"/>
      <feComposite in="SourceGraphic"/>
    </filter>
  </defs>
  <g id="Grupo_991072" data-name="Grupo 991072" transform="translate(9 6)">
    <g transform="matrix(1, 0, 0, 1, -9, -6)" filter="url(#Trazado_700687)">
      <path id="Trazado_700687-2" data-name="Trazado 700687" d="M62.311,0A62.311,62.311,0,1,1,0,62.311,62.311,62.311,0,0,1,62.311,0Z" transform="translate(9 6)" fill="#0098e8"/>
    </g>
    <g id="sordo" transform="translate(22.754 16.125)">
      <path id="Trazado_695397" data-name="Trazado 695397" d="M84.713,70.706V64.651a10.7,10.7,0,0,0-7.138-10.088L58.98,48A22.706,22.706,0,0,1,46.3,52.521L28.706,49.069,13.137,54.563A10.7,10.7,0,0,0,6,64.651v6.055Z" transform="translate(-6 21.631)" fill="#0059bd"/>
      <path id="Trazado_695398" data-name="Trazado 695398" d="M80.7,64.651a10.7,10.7,0,0,0-7.138-10.088L54.967,48a22.706,22.706,0,0,1-12.683,4.521L24.693,49.069l-10.881,3.84A22.6,22.6,0,0,0,34.38,66.165H80.7Z" transform="translate(-1.987 21.631)" fill="#006bda"/>
      <path id="Trazado_695399" data-name="Trazado 695399" d="M60.384,26.22l.954-1.193a23.267,23.267,0,0,0,5.1-14.541A10.2,10.2,0,0,0,61.9,2a8.245,8.245,0,0,1-6.206,5.48l-.713.142a22.264,22.264,0,0,1-4.369.433,22.718,22.718,0,0,1-10.159-2.4,5.956,5.956,0,0,0-8.442,3.881l-.386,1.545h-.857a12.768,12.768,0,0,0-11.916,17.35l5.015,13.036,9.656,18.809Z" transform="translate(0.165 -2)" fill="#212121"/>
      <path id="Trazado_695400" data-name="Trazado 695400" d="M60.728,3.479A8.232,8.232,0,0,1,55.692,6.72l-.713.142A22.264,22.264,0,0,1,50.61,7.3,22.718,22.718,0,0,1,40.451,4.9a5.956,5.956,0,0,0-8.442,3.881l-.386,1.545h-.857a12.768,12.768,0,0,0-11.916,17.35l5.015,13.036,7.395,14.4L55.843,23.946l.954-1.193A23.267,23.267,0,0,0,61.9,8.212a10.2,10.2,0,0,0-1.17-4.733Z" transform="translate(0.165 -1.24)" fill="#383838"/>
      <path id="Trazado_695401" data-name="Trazado 695401" d="M62.384,42.9a34.345,34.345,0,0,1-.666,6.691L60.25,56.961a5.543,5.543,0,0,1-5.434,4.45h-.288a31.957,31.957,0,0,1-7.417-.863v.015a11.746,11.746,0,0,0,3.981,4.375v.015a23.2,23.2,0,0,1-5.752,2.861,22.666,22.666,0,0,1-14.35,0,23.2,23.2,0,0,1-5.752-2.861v-.015A11.866,11.866,0,0,0,30.6,55.024a12.049,12.049,0,0,0-.227-2.331l-1.287-6.418A3.05,3.05,0,0,1,26.055,49.3a2.487,2.487,0,0,1-2.195-1.347l-2.831-5.661A9.8,9.8,0,0,1,20,37.9a3.793,3.793,0,0,1,1.09-2.649,3.9,3.9,0,0,1,1.741-.984,4.389,4.389,0,0,1,.908-.106,3.733,3.733,0,0,1,3.345,2.074l2,3.981V30.486a65.268,65.268,0,0,1,.893-10.732,4.39,4.39,0,0,1,1.514-2.694,4.562,4.562,0,0,1,4.344-.833,54.176,54.176,0,0,0,17.226,2.8h6.3l.772,4.6a54.551,54.551,0,0,1,.742,9.022l.5,1.983A34.607,34.607,0,0,1,62.384,42.9Z" transform="translate(1.192 5.192)" fill="#cf8c78"/>
      <path id="Trazado_695402" data-name="Trazado 695402" d="M51.092,64.44v-.015a11.747,11.747,0,0,1-3.981-4.375v-.015a31.956,31.956,0,0,0,7.417.863h.288a5.515,5.515,0,0,0,.826-.073,5.5,5.5,0,0,0,1.582-2.876l1.467-7.361a34.074,34.074,0,0,0-.348-14.956l-.5-1.981a54.553,54.553,0,0,0-.742-9.022,5.513,5.513,0,0,0-5.437-4.6H50.032a54.176,54.176,0,0,1-17.226-2.8A4.585,4.585,0,0,0,31.383,17c-.129,0-.253.023-.378.033a4.378,4.378,0,0,0-1.029,2.207,65.268,65.268,0,0,0-.893,10.732v9.733l-2-3.981a3.733,3.733,0,0,0-3.345-2.074,4.389,4.389,0,0,0-.908.106,3.9,3.9,0,0,0-1.741.984A3.793,3.793,0,0,0,20,37.39a9.8,9.8,0,0,0,1.029,4.39l2.831,5.661a2.487,2.487,0,0,0,2.195,1.347,3.05,3.05,0,0,0,3.027-3.027l1.287,6.418A12.049,12.049,0,0,1,30.6,54.51a11.866,11.866,0,0,1-5.359,9.915v.015A23.2,23.2,0,0,0,30.99,67.3a22.666,22.666,0,0,0,14.35,0,23.548,23.548,0,0,0,2.77-1.137l-.045-.226c.045.064.091.121.136.185a22.86,22.86,0,0,0,2.891-1.683Z" transform="translate(1.192 5.706)" fill="#f1b8a0"/>
      <path id="Trazado_695403" data-name="Trazado 695403" d="M35.027,34,32,38.541l7.569,4.541L38.055,46.11,47.137,44.6,44.11,35.514,42.6,38.541Z" transform="translate(7.357 14.439)" fill="#a7d309"/>
      <path id="Trazado_695404" data-name="Trazado 695404" d="M43.587,35.514l-1.514,3.027L34.5,34l-1.486,2.23,13.6,8.366Z" transform="translate(7.88 14.439)" fill="#8cbe00"/>
      <path id="Trazado_695405" data-name="Trazado 695405" d="M33.686,70.343V67.316a6.68,6.68,0,0,1,1.606-4.341L38.7,59a16.905,16.905,0,0,0,3.568-6.963c-.525.059-1.06.1-1.583.126L23.09,48.706l-1.514.534v8.719L16.932,70.343Z" transform="translate(-0.384 21.994)" fill="#004c9c"/>
      <path id="Trazado_695406" data-name="Trazado 695406" d="M36.829,50.754a4.555,4.555,0,0,0-3.812-3.572A6.6,6.6,0,0,0,29.761,45.7l.392-1.567a8.477,8.477,0,0,1,2.23-3.94A5.13,5.13,0,0,0,33.9,36.541a4.541,4.541,0,0,0-8.174-2.725,31.422,31.422,0,0,0-3.307,5.51l.2.409a2.487,2.487,0,0,0,2.195,1.347,3.05,3.05,0,0,0,3.027-3.027l1.287,6.418a12.049,12.049,0,0,1,.227,2.331A11.866,11.866,0,0,1,24,56.719v.015A23.2,23.2,0,0,0,29.749,59.6a22.025,22.025,0,0,0,9.7,1.008,16.851,16.851,0,0,0,.5-4.026,6.945,6.945,0,0,0-3.123-5.823Z" transform="translate(2.433 13.412)" fill="#cf8c78"/>
      <path id="Trazado_695407" data-name="Trazado 695407" d="M31.623,78.411V75.384a8.185,8.185,0,0,1,1.968-5.327l3.4-3.97a15.4,15.4,0,0,0,3.712-10.024,5.477,5.477,0,0,0-3.027-4.9,3.027,3.027,0,0,0-3.028-3.027A5.169,5.169,0,0,0,31,46.623H30.11l.843-3.37a9.991,9.991,0,0,1,2.628-4.643,3.654,3.654,0,0,0,1.07-2.584A3.027,3.027,0,0,0,29.2,34.211,29.972,29.972,0,0,0,24.1,44.93l-.825,3.3a24.6,24.6,0,0,0-.734,5.964V66.3L18,78.411Z" transform="translate(0.165 13.926)" fill="#f1b8a0"/>
    </g>
  </g>
</svg>
