<svg xmlns="http://www.w3.org/2000/svg" xmlns:xlink="http://www.w3.org/1999/xlink" width="154" height="154" viewBox="0 0 154 154">
  <defs>
    <filter id="Elipse_4765" x="0" y="0" width="154" height="154" filterUnits="userSpaceOnUse">
      <feOffset dy="3" input="SourceAlpha"/>
      <feGaussianBlur stdDeviation="3" result="blur"/>
      <feFlood flood-opacity="0.161"/>
      <feComposite operator="in" in2="blur"/>
      <feComposite in="SourceGraphic"/>
    </filter>
  </defs>
  <g id="Grupo_1005942" data-name="Grupo 1005942" transform="translate(-1073.857 -6294)">
    <g transform="matrix(1, 0, 0, 1, 1073.86, 6294)" filter="url(#Elipse_4765)">
      <circle id="Elipse_4765-2" data-name="Elipse 4765" cx="68" cy="68" r="68" transform="translate(9 6)" fill="#0098e8"/>
    </g>
    <g id="auto-aceptacion" transform="translate(1104.514 6322)">
      <path id="Trazado_691385" data-name="Trazado 691385" d="M0,45.98A45.98,45.98,0,1,1,72.155,83.789a46,46,0,0,0-52.35,0A45.929,45.929,0,0,1,0,45.98Z" fill="#00b3ce"/>
      <path id="Trazado_691386" data-name="Trazado 691386" d="M119.675,48.074l-6.969,4.173a1.175,1.175,0,0,0-.34,1.708l4.841,6.522a1.175,1.175,0,0,1-.771,1.863L108.4,63.529a1.175,1.175,0,0,0-.968,1.448l1.977,7.879a1.175,1.175,0,0,1-1.426,1.426l-7.879-1.977a1.175,1.175,0,0,0-1.448.968l-1.189,8.035a1.175,1.175,0,0,1-1.863.772l-6.522-4.841a1.175,1.175,0,0,0-1.708.34L83.2,84.547a1.175,1.175,0,0,1-2.016,0l-4.173-6.969a1.175,1.175,0,0,0-1.708-.34L68.782,82.08a1.175,1.175,0,0,1-1.863-.772l-1.189-8.035a1.175,1.175,0,0,0-1.448-.968L56.4,74.282a1.175,1.175,0,0,1-1.426-1.426l1.977-7.879a1.175,1.175,0,0,0-.968-1.448l-8.036-1.189a1.175,1.175,0,0,1-.771-1.863l4.841-6.522a1.175,1.175,0,0,0-.34-1.708l-6.969-4.173a1.175,1.175,0,0,1,0-2.016l6.969-4.173a1.175,1.175,0,0,0,.34-1.708l-4.841-6.522a1.175,1.175,0,0,1,.771-1.863L55.988,30.6a1.175,1.175,0,0,0,.968-1.448l-1.977-7.879A1.175,1.175,0,0,1,56.4,19.851l7.879,1.977a1.175,1.175,0,0,0,1.448-.968l1.189-8.035a1.175,1.175,0,0,1,1.863-.771L75.3,16.894a1.175,1.175,0,0,0,1.708-.34l4.173-6.969a1.175,1.175,0,0,1,2.016,0l4.173,6.969a1.175,1.175,0,0,0,1.708.34l6.522-4.841a1.175,1.175,0,0,1,1.863.771l1.189,8.035a1.175,1.175,0,0,0,1.448.968l7.879-1.977a1.175,1.175,0,0,1,1.426,1.426l-1.977,7.879A1.175,1.175,0,0,0,108.4,30.6l8.036,1.189a1.175,1.175,0,0,1,.771,1.863l-4.841,6.522a1.175,1.175,0,0,0,.34,1.708l6.969,4.173a1.175,1.175,0,0,1,0,2.016Z" transform="translate(-36.214 -7.395)" fill="#2dd2e3"/>
      <path id="Trazado_691387" data-name="Trazado 691387" d="M176.836,78.041V97.014a20.04,20.04,0,0,1-20.04,20.04h-4.3a20.04,20.04,0,0,1-20.04-20.04V78.041a19.991,19.991,0,0,1,6.763-15.011A19.964,19.964,0,0,0,152.5,68.059h4.3a19.964,19.964,0,0,0,13.277-5.029A19.992,19.992,0,0,1,176.836,78.041Z" transform="translate(-108.665 -51.709)" fill="#6d3326"/>
      <path id="Trazado_691388" data-name="Trazado 691388" d="M159.136,116.918a20.216,20.216,0,0,1-2.34.135h-4.3a20.04,20.04,0,0,1-20.04-20.04V78.041a19.991,19.991,0,0,1,6.763-15.011,20.045,20.045,0,0,0,5.792,3.585,19.948,19.948,0,0,0-3.575,11.427V97.014a20.043,20.043,0,0,0,17.7,19.9Z" transform="translate(-108.665 -51.709)" fill="#55271a"/>
      <path id="Trazado_691389" data-name="Trazado 691389" d="M103.29,357.391A46.031,46.031,0,0,1,96,352.6V342.573A12.573,12.573,0,0,1,108.573,330h7.29a12.573,12.573,0,0,0-12.573,12.573Z" transform="translate(-78.757 -270.728)" fill="#6db000"/>
      <path id="Trazado_691390" data-name="Trazado 691390" d="M178.087,342.573V352.6A46.008,46.008,0,0,1,126,356.328V342.573A12.573,12.573,0,0,1,138.573,330h26.942A12.573,12.573,0,0,1,178.087,342.573Z" transform="translate(-103.369 -270.728)" fill="#80cf00"/>
      <path id="Trazado_691391" data-name="Trazado 691391" d="M129.981,184.49v1.8a4.49,4.49,0,1,1-8.981,0v-1.8a4.49,4.49,0,1,1,8.981,0Z" transform="translate(-99.267 -147.67)" fill="#a44f3e"/>
      <path id="Trazado_691392" data-name="Trazado 691392" d="M123.694,76.942v3.592a4.483,4.483,0,0,0,1.8,3.592,4.49,4.49,0,0,1-4.49-4.49v-1.8a4.49,4.49,0,0,1,4.49-4.49A4.483,4.483,0,0,0,123.694,76.942ZM165,73.349V69.757a19.757,19.757,0,0,0-39.514,0v7.184a19.766,19.766,0,0,0,14.369,19.013v4.336a5.388,5.388,0,0,0,10.777,0V95.955a19.8,19.8,0,0,0,13.093-12.013,4.494,4.494,0,0,0,5.766-4.306v-1.8A4.49,4.49,0,0,0,165,73.349Z" transform="translate(-99.267 -41.019)" fill="#883f2e"/>
      <path id="Trazado_691393" data-name="Trazado 691393" d="M210.126,70.59v7.184a19.766,19.766,0,0,1-14.587,19.074,9.492,9.492,0,0,1-4.952,0A19.766,19.766,0,0,1,176,77.774V70.59a19.761,19.761,0,0,1,17.063-19.575A19.761,19.761,0,0,1,210.126,70.59Z" transform="translate(-144.388 -41.852)" fill="#a44f3e"/>
      <path id="Trazado_691394" data-name="Trazado 691394" d="M239.7,196.228a1.347,1.347,0,0,1,1.9-1.905.987.987,0,0,0,1.4,0,1.347,1.347,0,0,1,1.9,1.905,3.681,3.681,0,0,1-5.208,0Z" transform="translate(-196.322 -159.096)" fill="#883f2e"/>
      <path id="Trazado_691395" data-name="Trazado 691395" d="M198.888,155.194a2.694,2.694,0,1,1-2.694-2.694A2.694,2.694,0,0,1,198.888,155.194Zm14.369-2.694a2.694,2.694,0,1,0,2.694,2.694A2.694,2.694,0,0,0,213.257,152.5Z" transform="translate(-158.745 -125.109)" fill="#55271a"/>
      <path id="Trazado_691396" data-name="Trazado 691396" d="M213.694,153.847a1.347,1.347,0,1,1-1.347-1.347A1.347,1.347,0,0,1,213.694,153.847ZM229.41,152.5a1.347,1.347,0,1,0,1.347,1.347A1.347,1.347,0,0,0,229.41,152.5Z" transform="translate(-173.102 -125.109)" fill="#fff5f5"/>
      <path id="Trazado_691397" data-name="Trazado 691397" d="M231.388,239.235A5.388,5.388,0,0,1,226,233.847a1.347,1.347,0,0,1,1.347-1.347h8.082a1.347,1.347,0,0,1,1.347,1.347A5.388,5.388,0,0,1,231.388,239.235Z" transform="translate(-185.408 -190.74)" fill="#fff5f5"/>
      <path id="Trazado_691398" data-name="Trazado 691398" d="M232.735,239.066A5.393,5.393,0,0,1,226,233.847a1.347,1.347,0,0,1,1.347-1.347h2.694a1.347,1.347,0,0,0-1.347,1.347A5.391,5.391,0,0,0,232.735,239.066Z" transform="translate(-185.408 -190.74)" fill="#d5f3f7"/>
      <path id="Trazado_691399" data-name="Trazado 691399" d="M196.144,353.951l-6.94,1.86-.112.03a7.035,7.035,0,0,1-3.709-.012,5.752,5.752,0,0,0-3.026-.042l-30.051,8.052a5.388,5.388,0,1,1-2.789-10.409l30.052-8.052a5.681,5.681,0,0,0,2.583-1.534,7.023,7.023,0,0,1,2.193-1.52l.618-2.959a1.835,1.835,0,0,1,2.1-1.456,1.8,1.8,0,0,1,1.424,2.132l-.24,1.15,4.113-1.1a1.837,1.837,0,0,1,2.225,1.14,1.8,1.8,0,0,1-1.235,2.314,1.8,1.8,0,0,1,.93,3.47,4.016,4.016,0,0,0,3.13,4.74,1.8,1.8,0,0,1-1.27,2.2Z" transform="translate(-119.385 -277.191)" fill="#883f2e"/>
      <path id="Trazado_691400" data-name="Trazado 691400" d="M196.061,359.623a1.79,1.79,0,0,1,.49.913,1.763,1.763,0,0,1-1.276,2.087l-4.356,1.167a.9.9,0,0,1-.465-1.735l4.337-1.162A1.8,1.8,0,0,0,196.061,359.623Zm-2.2-2.2-4.337,1.162a.9.9,0,1,0,.465,1.735l4.343-1.164a1.8,1.8,0,0,0,.8-3A1.8,1.8,0,0,1,193.861,357.423Zm-5.9-1.208a.9.9,0,0,0,1.1.635l4.353-1.166a1.767,1.767,0,0,0,1.28-2.088,1.791,1.791,0,0,0-.49-.913,1.8,1.8,0,0,1-1.27,1.27l-4.337,1.162A.9.9,0,0,0,187.959,356.215Zm9.5,7.682a1.788,1.788,0,0,0-.465-.806,1.8,1.8,0,0,1-1.241,1.171l-6.94,1.859-.112.03a7.037,7.037,0,0,1-3.709-.012,5.752,5.752,0,0,0-3.026-.042l-30.051,8.052a5.39,5.39,0,0,1-6.34-3.062,5.393,5.393,0,0,0,6.775,4.9l30.051-8.052a5.752,5.752,0,0,1,3.026.042,7.035,7.035,0,0,0,3.709.012l.112-.03,6.94-1.86a1.8,1.8,0,0,0,1.27-2.2Z" transform="translate(-119.426 -289.337)" fill="#6d3326"/>
      <path id="Trazado_691401" data-name="Trazado 691401" d="M107.6,450.8l-13.879,3.719a2.694,2.694,0,0,1-3.3-1.905l-.926-3.455a2.694,2.694,0,0,1,1.905-3.3l13.879-3.719a2.694,2.694,0,0,1,3.3,1.905l.926,3.455a2.694,2.694,0,0,1-1.905,3.3Z" transform="translate(-73.341 -362.655)" fill="#80cf00"/>
      <path id="Trazado_691402" data-name="Trazado 691402" d="M100.286,423.522l-13.879,3.719a2.694,2.694,0,0,1-3.3-1.905L81.7,420.1a2.694,2.694,0,0,1,1.905-3.3l13.879-3.719a2.694,2.694,0,0,1,3.3,1.905l1.4,5.235A2.694,2.694,0,0,1,100.286,423.522Z" transform="translate(-66.954 -338.813)" fill="#a3e72d"/>
      <path id="Trazado_691403" data-name="Trazado 691403" d="M138.6,360.02a5.388,5.388,0,0,1-6.6,3.81l-30.051-8.052a5.752,5.752,0,0,0-3.026.042,7.035,7.035,0,0,1-3.709.012l-7.051-1.889a1.8,1.8,0,0,1,.93-3.47,1.8,1.8,0,0,1,.93-3.47,1.8,1.8,0,0,1,.93-3.47,1.8,1.8,0,0,1,.93-3.47l4.172,1.118-.228-1.09a1.837,1.837,0,0,1,1.262-2.157,1.8,1.8,0,0,1,2.242,1.362l.631,3.017a7.019,7.019,0,0,1,2.155,1.481,5.96,5.96,0,0,0,2.674,1.587l30,8.038A5.389,5.389,0,0,1,138.6,360.02Z" transform="translate(-71.237 -277.184)" fill="#a44f3e"/>
      <path id="Trazado_691404" data-name="Trazado 691404" d="M89.658,353.6a1.791,1.791,0,0,1,.49-.913,1.8,1.8,0,0,0,1.27,1.27l4.337,1.162a.9.9,0,1,1-.465,1.735l-4.353-1.166A1.767,1.767,0,0,1,89.658,353.6Zm.36,5.561,4.343,1.164a.9.9,0,1,0,.465-1.735l-4.337-1.162a1.8,1.8,0,0,1-1.27-1.27,1.8,1.8,0,0,0,.8,3Zm42.43,15.088L102.4,366.192a5.752,5.752,0,0,0-3.026.042,7.034,7.034,0,0,1-3.709.012l-7.051-1.889a1.8,1.8,0,0,1-1.265-1.252,1.8,1.8,0,0,0,.818,2.992l7.051,1.889a7.035,7.035,0,0,0,3.709-.012,5.752,5.752,0,0,1,3.026-.042L132,375.984a5.393,5.393,0,0,0,6.765-4.755A5.389,5.389,0,0,1,132.449,374.244ZM89.075,362.622l4.356,1.167a.9.9,0,0,0,.465-1.735l-4.337-1.162a1.8,1.8,0,0,1-1.27-1.27,1.791,1.791,0,0,0-.49.913A1.763,1.763,0,0,0,89.075,362.622Z" transform="translate(-71.237 -289.337)" fill="#883f2e"/>
      <path id="Trazado_691405" data-name="Trazado 691405" d="M319.87,449.354l.817-3.05a2.694,2.694,0,0,1,3.3-1.905l13.879,3.719a2.694,2.694,0,0,1,1.905,3.3l-.817,3.05a2.694,2.694,0,0,1-3.3,1.905l-13.879-3.719A2.694,2.694,0,0,1,319.87,449.354Z" transform="translate(-262.342 -364.505)" fill="#80cf00"/>
      <path id="Trazado_691406" data-name="Trazado 691406" d="M324.621,420.478l1.471-5.49a2.694,2.694,0,0,1,3.3-1.905l13.879,3.719a2.694,2.694,0,0,1,1.905,3.3l-1.471,5.49a2.694,2.694,0,0,1-3.3,1.905l-13.879-3.719A2.694,2.694,0,0,1,324.621,420.478Z" transform="translate(-266.239 -338.813)" fill="#a3e72d"/>
      <path id="Trazado_691407" data-name="Trazado 691407" d="M217.254,44.754A24.876,24.876,0,0,1,192.136,46.5a.884.884,0,0,1-.365-1.233,41.688,41.688,0,0,1,7.185-9.485,2.431,2.431,0,0,1,1.716-.749q.193,0,.387,0h4.3A19.966,19.966,0,0,1,218.787,40.2,3.99,3.99,0,0,1,217.254,44.754Z" transform="translate(-157.229 -28.74)" fill="#6d3326"/>
      <path id="Trazado_691408" data-name="Trazado 691408" d="M172.818,46.514a17.424,17.424,0,0,1-3.063-1.735,3.991,3.991,0,0,1-1.464-4.584,19.965,19.965,0,0,1,13.368-5.163C176.276,40.474,175.473,41.834,172.818,46.514Z" transform="translate(-137.888 -28.74)" fill="#55271a"/>
      <path id="Trazado_691409" data-name="Trazado 691409" d="M55.142,290.738a1.347,1.347,0,0,1-2.683.249l-.5-5.329a1.347,1.347,0,1,1,2.683-.249Zm-7.561,6.128-5.329.5a1.347,1.347,0,0,0,.249,2.683l5.329-.5a1.347,1.347,0,0,0-.249-2.683Zm2.942-4.273L46.4,289.175a1.347,1.347,0,0,0-1.72,2.073l4.119,3.418a1.347,1.347,0,1,0,1.72-2.073Zm54.67-7.185a1.347,1.347,0,1,1,2.683.249l-.5,5.329a1.347,1.347,0,1,1-2.682-.249Zm5.6,12.674a1.347,1.347,0,0,0,1.217,1.466l5.329.5a1.347,1.347,0,0,0,.249-2.683l-5.329-.5A1.347,1.347,0,0,0,110.793,298.083Zm-1.652-3.593a1.347,1.347,0,0,0,1.9.176l4.119-3.418a1.347,1.347,0,1,0-1.72-2.073l-4.119,3.418A1.347,1.347,0,0,0,109.14,294.49Z" transform="translate(-33.66 -233.143)" fill="#fff"/>
    </g>
  </g>
</svg>
