<svg xmlns="http://www.w3.org/2000/svg" xmlns:xlink="http://www.w3.org/1999/xlink" width="113" height="113" viewBox="0 0 113 113">
  <defs>
    <filter id="Trazado_701530" x="0" y="0" width="113" height="113" filterUnits="userSpaceOnUse">
      <feOffset dy="3" input="SourceAlpha"/>
      <feGaussianBlur stdDeviation="3" result="blur"/>
      <feFlood flood-opacity="0.161"/>
      <feComposite operator="in" in2="blur"/>
      <feComposite in="SourceGraphic"/>
    </filter>
    <filter id="Trazado_688485" x="43.543" y="12" width="41.294" height="80.474" filterUnits="userSpaceOnUse">
      <feOffset dy="3" input="SourceAlpha"/>
      <feGaussianBlur stdDeviation="3" result="blur-2"/>
      <feFlood flood-opacity="0.161"/>
      <feComposite operator="in" in2="blur-2"/>
      <feComposite in="SourceGraphic"/>
    </filter>
    <filter id="Trazado_688486" x="43.543" y="33.085" width="30.335" height="34.439" filterUnits="userSpaceOnUse">
      <feOffset dy="3" input="SourceAlpha"/>
      <feGaussianBlur stdDeviation="3" result="blur-3"/>
      <feFlood flood-opacity="0.161"/>
      <feComposite operator="in" in2="blur-3"/>
      <feComposite in="SourceGraphic"/>
    </filter>
    <filter id="Trazado_688487" x="43.543" y="44.044" width="45.678" height="56.388" filterUnits="userSpaceOnUse">
      <feOffset dy="3" input="SourceAlpha"/>
      <feGaussianBlur stdDeviation="3" result="blur-4"/>
      <feFlood flood-opacity="0.161"/>
      <feComposite operator="in" in2="blur-4"/>
      <feComposite in="SourceGraphic"/>
    </filter>
    <filter id="Trazado_688488" x="23" y="49.524" width="39.919" height="50.908" filterUnits="userSpaceOnUse">
      <feOffset dy="3" input="SourceAlpha"/>
      <feGaussianBlur stdDeviation="3" result="blur-5"/>
      <feFlood flood-opacity="0.161"/>
      <feComposite operator="in" in2="blur-5"/>
      <feComposite in="SourceGraphic"/>
    </filter>
    <filter id="Trazado_688489" x="23" y="35.277" width="39.919" height="37.727" filterUnits="userSpaceOnUse">
      <feOffset dy="3" input="SourceAlpha"/>
      <feGaussianBlur stdDeviation="3" result="blur-6"/>
      <feFlood flood-opacity="0.161"/>
      <feComposite operator="in" in2="blur-6"/>
      <feComposite in="SourceGraphic"/>
    </filter>
  </defs>
  <g id="Grupo_1005931" data-name="Grupo 1005931" transform="translate(-534 -1096)">
    <g transform="matrix(1, 0, 0, 1, 534, 1096)" filter="url(#Trazado_701530)">
      <path id="Trazado_701530-2" data-name="Trazado 701530" d="M47.5,0A47.5,47.5,0,1,1,0,47.5,47.5,47.5,0,0,1,47.5,0Z" transform="translate(9 6)" fill="#0098e8"/>
    </g>
    <g id="_1" data-name="1" transform="translate(566 1114)">
      <g transform="matrix(1, 0, 0, 1, -32, -18)" filter="url(#Trazado_688485)">
        <path id="Trazado_688485-2" data-name="Trazado 688485" d="M253.36,32.154V5.48a5.48,5.48,0,1,0-10.959,0V26.565L230.066,37.524l1.376,24.95L248.16,47.131V43Z" transform="translate(-177.52 18)" fill="#ffcaba"/>
      </g>
      <g transform="matrix(1, 0, 0, 1, -32, -18)" filter="url(#Trazado_688486)">
        <path id="Trazado_688486-2" data-name="Trazado 688486" d="M230.066,169.716l1.376-10.959a5.48,5.48,0,1,1,10.959,0v10.959Z" transform="translate(-177.52 -114.19)" fill="#ffdccc"/>
      </g>
      <g transform="matrix(1, 0, 0, 1, -32, -18)" filter="url(#Trazado_688487)">
        <path id="Trazado_688487-2" data-name="Trazado 688487" d="M236.791,271.332a20.953,20.953,0,0,0,20.953-20.953V238.424a5.48,5.48,0,0,0-5.48-5.48H236.921a5.48,5.48,0,0,0,0,10.959h9.863v4.127a15.343,15.343,0,0,0-15.343,15.343l-1.376,3.926,1.376,4.032Z" transform="translate(-177.52 -182.9)" fill="#ffbaa5"/>
      </g>
      <g transform="matrix(1, 0, 0, 1, -32, -18)" filter="url(#Trazado_688488)">
        <path id="Trazado_688488-2" data-name="Trazado 688488" d="M80.73,272.792v11.942a20.953,20.953,0,0,0,20.953,20.953h.966V272.779Z" transform="translate(-48.73 -217.26)" fill="#ffdccc"/>
      </g>
      <g transform="matrix(1, 0, 0, 1, -32, -18)" filter="url(#Trazado_688489)">
        <path id="Trazado_688489-2" data-name="Trazado 688489" d="M97.169,169.211a5.48,5.48,0,0,0-5.48,5.48v4.384a5.48,5.48,0,1,0-10.959,0v4.384a5.48,5.48,0,1,0,10.959,0,5.48,5.48,0,1,0,10.959,0v-8.767A5.48,5.48,0,0,0,97.169,169.211Z" transform="translate(-48.73 -127.93)" fill="#ffece3"/>
      </g>
    </g>
  </g>
</svg>
